<svg xmlns="http://www.w3.org/2000/svg" xmlns:xlink="http://www.w3.org/1999/xlink" display="none">
    <symbol id="copy-diamond" viewBox="0 0 19 22">
	    <defs>
	        <path d="M12.5384615,0.615384615 L4.53846154,0.615384615 C3.86153846,0.615384615 3.30769231,1.16923077 3.30769231,1.84615385 L3.30769231,2.46153846 L10.6923077,2.46153846 C11.3692308,2.46153846 11.9230769,3.01538462 11.9230769,3.69230769 L11.9230769,12.3076923 L12.5384615,12.3076923 C13.2153846,12.3076923 13.7692308,11.7538462 13.7692308,11.0769231 L13.7692308,1.84615385 C13.7692308,1.16923077 13.2153846,0.615384615 12.5384615,0.615384615 Z M10.6923077,4.92307692 C10.6923077,4.24615385 10.1384615,3.69230769 9.46153846,3.69230769 L1.46153846,3.69230769 C0.784615385,3.69230769 0.230769231,4.24615385 0.230769231,4.92307692 L0.230769231,14.1538462 C0.230769231,14.8307692 0.784615385,15.3846154 1.46153846,15.3846154 L9.46153846,15.3846154 C10.1384615,15.3846154 10.6923077,14.8307692 10.6923077,14.1538462 L10.6923077,4.92307692 Z M5.15384615,7.07692308 C5.15384615,7.26153846 5.03076923,7.38461538 4.84615385,7.38461538 L2.38461538,7.38461538 C2.2,7.38461538 2.07692308,7.26153846 2.07692308,7.07692308 L2.07692308,6.46153846 C2.07692308,6.27692308 2.2,6.15384615 2.38461538,6.15384615 L4.84615385,6.15384615 C5.03076923,6.15384615 5.15384615,6.27692308 5.15384615,6.46153846 L5.15384615,7.07692308 Z M7.61538462,12 C7.61538462,12.1846154 7.49230769,12.3076923 7.30769231,12.3076923 L2.38461538,12.3076923 C2.2,12.3076923 2.07692308,12.1846154 2.07692308,12 L2.07692308,11.3846154 C2.07692308,11.2 2.2,11.0769231 2.38461538,11.0769231 L7.30769231,11.0769231 C7.49230769,11.0769231 7.61538462,11.2 7.61538462,11.3846154 L7.61538462,12 Z M8.84615385,9.53846154 C8.84615385,9.72307692 8.72307692,9.84615385 8.53846154,9.84615385 L2.38461538,9.84615385 C2.2,9.84615385 2.07692308,9.72307692 2.07692308,9.53846154 L2.07692308,8.92307692 C2.07692308,8.73846154 2.2,8.61538462 2.38461538,8.61538462 L8.53846154,8.61538462 C8.72307692,8.61538462 8.84615385,8.73846154 8.84615385,8.92307692 L8.84615385,9.53846154 Z" id="path-1"></path>
	    </defs>
	    <g id="Symbols" stroke="none" stroke-width="1">
	        <g id="Nav/Draft-Journey" transform="translate(-796.000000, -23.000000)">
	            <g id="Nav:-Draft-Journey">
	                <g id="Right" transform="translate(577.000000, 16.000000)">
	                    <g id="Nav/Journey-Builder-Modes" transform="translate(164.000000, 0.000000)">
	                        <g id="Inactive">
	                            <g id="Group-2" transform="translate(56.000000, 7.000000)">
	                                <g id="icons/utility/copy" transform="translate(4.000000, 0.000000)">
	                                    <mask id="mask-2">
	                                        <use xlink:href="#path-1"></use>
	                                    </mask>
	                                    <use id="Mask" xlink:href="#path-1"></use>
	                                </g>
	                                <rect id="Rectangle-6" transform="translate(5.410534, 15.410534) rotate(-45.000000) translate(-5.410534, -15.410534) " x="1.875" y="11.875" width="7.07106781" height="7.07106781" rx="1"></rect>
	                                <rect id="Rectangle-6" stroke="#FFFFFF" transform="translate(5.500000, 15.500000) rotate(-45.000000) translate(-5.500000, -15.500000) " x="1.5" y="11.5" width="8" height="8" rx="1"></rect>
	                            </g>
	                        </g>
	                    </g>
	                </g>
	            </g>
	        </g>
	    </g>
	</symbol>
	<symbol id="trophy" viewBox="0 0 15 15">
	    <g id="Symbols" stroke="none" stroke-width="1">
	        <g id="Nav/Running-Journey" transform="translate(-1046.000000, -24.000000)">
	            <g id="Nav:-Running-Journey">
	                <g id="Right" transform="translate(899.000000, 14.000000)">
	                    <g id="Goal/Exit-Button" transform="translate(109.000000, 1.000000)">
	                        <path d="M52.5,10 L50,10 L50,9.5 C50,9.225 49.775,9 49.5,9 L41.5,9 C41.225,9 41,9.225 41,9.5 L41,10 L38.5,10 C38.225,10 38,10.225 38,10.5 L38,13.75 C38,15 39,16 40.25,16 L41.4,16 C42.1,17.6 43.625,18.725 45.475,18.75 C47.375,18.775 48.975,17.625 49.65,16 L50.75,16 C52,16 53,15 53,13.75 L53,10.5 C53,10.225 52.775,10 52.5,10 L52.5,10 Z M40.3125,14.5 C39.8875,14.5 39.5625,14.175 39.5625,13.75 L39.5625,11.5 L41.0625,11.5 L41.0625,14.15 C41.0625,14.275 41.0625,14.375 41.0875,14.5 L40.3125,14.5 Z M51.7125,13.75 C51.7125,14.175 51.3875,14.5 50.9625,14.5 L50.1875,14.5 C50.1875,14.4 50.2125,14.275 50.2125,14.175 L50.2125,11.5 L51.7125,11.5 L51.7125,13.75 Z M48.1875,22.5 L47.9375,22.5 C47.1125,22.5 46.4375,21.825 46.4375,21 L46.4375,20.5 C46.4375,20.35 46.3375,20.25 46.1875,20.25 L45.1875,20.25 C45.0375,20.25 44.9375,20.35 44.9375,20.5 L44.9375,21 C44.9375,21.825 44.2625,22.5 43.4375,22.5 L43.1875,22.5 C42.9125,22.5 42.6875,22.725 42.6875,23 L42.6875,23.5 C42.6875,23.775 42.9125,24 43.1875,24 L48.1875,24 C48.4625,24 48.6875,23.775 48.6875,23.5 L48.6875,23 C48.6875,22.725 48.4625,22.5 48.1875,22.5 Z" id="Shape"></path>
	                    </g>
	                </g>
	            </g>
	        </g>
	    </g>
	</symbol>
	<symbol id="upload-right" viewBox="0 0 14 14">
	    <g id="Symbols" stroke="none" stroke-width="1">
	        <g id="Nav/Running-Journey" transform="translate(-1078.000000, -24.000000)">
	            <g id="Nav:-Running-Journey">
	                <g id="Right" transform="translate(899.000000, 14.000000)">
	                    <g id="Goal/Exit-Button" transform="translate(109.000000, 1.000000)">
	                        <path d="M75.6583333,22.0666667 L75.6583333,21.25 C75.6583333,21.0166667 75.4833333,20.8416667 75.25,20.8416667 L72.5666667,20.8416667 C72.3333333,20.8416667 72.1583333,20.6666667 72.1583333,20.4333333 L72.1583333,11.5666667 C72.1583333,11.3333333 72.3333333,11.1583333 72.5666667,11.1583333 L75.25,11.1583333 C75.4833333,11.1583333 75.6583333,10.9833333 75.6583333,10.75 L75.6583333,9.93333333 C75.6583333,9.7 75.4833333,9.525 75.25,9.525 L71.6333333,9.525 C71.05,9.525 70.525,10.05 70.525,10.6333333 L70.525,21.3666667 C70.525,21.95 71.05,22.475 71.6333333,22.475 L75.25,22.475 C75.4833333,22.475 75.6583333,22.3 75.6583333,22.0666667 Z M83.3583333,16.2916667 C83.5333333,16.1166667 83.5333333,15.8833333 83.3583333,15.7083333 L79.7416667,12.0916667 C79.5666667,11.9166667 79.3333333,11.9166667 79.1583333,12.0916667 L78.575,12.6166667 C78.4,12.7916667 78.4,13.025 78.575,13.2 L80.0916667,14.7166667 C80.2666667,14.8916667 80.15,15.1833333 79.9166667,15.1833333 L74.2,15.1833333 C73.9666667,15.1833333 73.7916667,15.3 73.7916667,15.5333333 L73.7916667,16.35 C73.7916667,16.5833333 73.9666667,16.7583333 74.2,16.7583333 L79.8583333,16.7583333 C80.15,16.7583333 80.2083333,17.05 80.0916667,17.225 L78.575,18.7416667 C78.4,18.9166667 78.4,19.15 78.575,19.325 L79.1,19.85 C79.275,20.025 79.5083333,20.025 79.6833333,19.85 L83.3583333,16.2916667 Z" id="Shape"></path>
	                    </g>
	                </g>
	            </g>
	        </g>
	    </g>
	</svg>
</svg>