<?xml version="1.0" encoding="UTF-8"?>
<svg width="1280px" height="660px" viewBox="0 0 1280 660" version="1.1" xmlns="http://www.w3.org/2000/svg" xmlns:xlink="http://www.w3.org/1999/xlink">
    <!-- Generator: Sketch 51.3 (57544) - http://www.bohemiancoding.com/sketch -->
    <title>insights.einstein-journey-insights</title>
    <desc>Created with Sketch.</desc>
    <defs></defs>
    <g id="Final-Version" stroke="none" stroke-width="1" fill="none" fill-rule="evenodd">
        <g id="EJI--Welcome-Mat" transform="translate(0.000000, -191.000000)">
            <rect fill="#FFFFFF" x="0" y="0" width="1280" height="854"></rect>
            <g id="Group-16" transform="translate(438.000000, 647.000000)">
                <g id="Group-2-Copy" transform="translate(33.000000, 0.000000)">
                    <rect id="Rectangle-4-Copy" fill="#0070D2" x="1" y="0" width="334" height="40.1523438" rx="2"></rect>
                    <text id="Get-Started" font-family="SalesforceSans-Bold, Salesforce Sans" font-size="14" font-weight="bold" fill="#FFFFFF">
                        <tspan x="128.437" y="23">Get Started</tspan>
                    </text>
                </g>
                <text id="Begin-by-Selecting-t" font-family="SalesforceSans-Regular, Salesforce Sans" font-size="12" font-weight="normal" fill="#54698D">
                    <tspan x="32.134" y="63">Begin by Selecting the parameters to be used for running the </tspan>
                    <tspan x="155.182" y="81">Journey Insights.</tspan>
                </text>
            </g>
            <g id="Group" transform="translate(340.000000, 490.000000)" font-family="SalesforceSans-Regular, Salesforce Sans" font-weight="normal">
                <text id="What-is-Journey-Insi" font-size="24" fill="#16325C">
                    <tspan x="144.758735" y="28">What is Journey Insights?</tspan>
                </text>
                <text id="Discover-patterns-of" font-size="16" fill="#54698D">
                    <tspan x="58.304" y="59">Discover patterns of user engagements which lead to conversion. </tspan>
                    <tspan x="8.624" y="82">Identify opportunities within these patterns and target them on the fly to drive </tspan>
                    <tspan x="235.304" y="105">more conversion.</tspan>
                </text>
            </g>
            <g id="einstein_empty_state-copy-2" transform="translate(517.000000, 245.000000)">
                <path d="M24.41875,204.173645 L246.90025,204.173645" id="Shape" stroke="#8CD3F8" stroke-width="2.07476636" stroke-linecap="round"></path>
                <path d="M17.9655,204.360374 L0.328,204.360374" id="Shape" stroke="#8CD3F8" stroke-width="2.07476636" stroke-linecap="round"></path>
                <path d="M68.9275,204.173645 C84.656,196.58 84.5315,181.973645 84.5315,181.973645 C84.5315,181.973645 94.51225,184.836822 100.40525,180.811776 C100.40525,180.811776 94.4085,194.297757 90.03025,204.360374 L68.9275,204.173645 Z" id="Shape" stroke="#8CD3F8" stroke-width="2.07476636" fill="#FFFFFF" fill-rule="nonzero"></path>
                <path d="M155.704,218.925234 C166.909,220.543551 186.2895,212.016262 190.21125,206.269159 C190.472022,205.916125 190.67513,205.523962 190.813,205.10729 C192.5975,199.42243 188.323,187.015327 183.011,175.645607 C179.704712,168.727192 174.593694,162.828322 168.21625,158.57028 C168.21625,158.57028 163.838,164.794579 145.51575,168.549907 C132.995413,170.903231 120.28288,172.084044 107.54325,172.077009 C99.9939372,181.770389 94.2002206,192.710503 90.4245,204.401869 L111.299,204.401869 C111.299,204.401869 119.20475,194.754206 143.15025,193.654579 C167.09575,192.554953 158.36,214.402243 158.36,214.402243 L155.704,218.925234 Z" id="Shape" stroke="#8CD3F8" stroke-width="2.07476636" fill="#FFFFFF" fill-rule="nonzero"></path>
                <path d="M147.79825,37.7151402 C147.79825,37.7151402 190.62625,21.6564486 204.73625,65.0398131 L193.884,62.9650467 C193.884,62.9650467 202.184,66.4506542 203.4705,71.9280374 C203.4705,71.9280374 216.68825,75.4758879 216.68825,108.111963 C216.68825,108.111963 213.45125,94.6052336 203.595,92.9869159 C203.595,92.9869159 218.12,99.211215 218.9085,129.668785 C215.922109,127.04022 212.512501,124.935761 208.824,123.444486 C208.824,123.444486 219.46875,130.187477 215.6715,147.428785 C215.6715,147.428785 213.82475,143.051028 205.6285,142.200374 L206.7905,145.478505 L200.275,142.428598 C200.275,142.428598 176.05975,146.308411 170.62325,152.53271 C170.62325,152.53271 173.98475,132.386729 172.86425,133.507103 C169.50275,136.868224 167.822,136.308037 167.822,136.308037 C167.822,136.308037 167.2825,131.287103 165,118.983738 C164.14925,114.294766 163.7135,106.80486 167.80125,101.078505 C170.6025,97.1571963 192.41075,90.4557009 185.7085,74.791215 C182.24325,66.7203738 170.6855,74.5629907 172.8435,72.5504673 C190.75075,55.7656075 169.897,68.8158879 166.88825,65.8697196 C156.05675,55.2261682 145.661,64.3758879 142.6315,59.6454206 C139.602,54.9149533 152.55,41.3252336 147.79825,37.7151402 Z" id="Shape" fill="#FFFFFF" fill-rule="nonzero"></path>
                <path d="M140.764,164.026916 L146.13825,164.026916 L145.47425,168.819626 L132.5885,191.227103 L124.2885,175.230654 L122.40025,173.819813 L110.801,190.417944 C110.801,190.417944 106.8585,180.894766 107.73,174.338505 C108.12425,171.371589 107.62625,168.985607 109.805,167.844486 C109.722,167.906729 128.231,180.106355 140.764,164.026916 Z" id="Shape" stroke="#8CD3F8" stroke-width="2.07476636" fill="#FFFFFF" fill-rule="nonzero"></path>
                <path d="M120.6365,175.998318 L113.125,187.471776 C113.125,187.471776 113.64375,193.488598 116.6525,196.351776 L124.80725,187.368037 L124.662,175.998318 L120.6365,175.998318 Z" id="Shape" stroke="#8CD3F8" stroke-width="2.07476636" fill="#C2E8FF" fill-rule="nonzero" stroke-linecap="round" stroke-linejoin="round"></path>
                <path d="M90.4245,204.401869 C93.80675,192.845421 101.1315,178.488037 108.04125,171.558318 L109.8465,174.151776 C104.321819,183.837378 99.589239,193.95369 95.695,204.401869" id="Shape" stroke="#8CD3F8" stroke-width="2.07476636"></path>
                <path d="M156.09825,218.925234 C153.3385,219.547664 150.32975,213.510093 150.32975,213.510093 L158.3185,210.128224 C158.3185,210.128224 158.775,218.261308 156.09825,218.925234 Z" id="Shape" stroke="#8CD3F8" stroke-width="2.07476636" fill="#C2E8FF" fill-rule="nonzero"></path>
                <path d="M141.69775,193.779065 C130.2645,194.588224 112.44025,198.364299 111.797,206.227664 L111.797,206.476636 C111.31975,210.750654 127.04825,216.601495 139.3945,217.472897 C147.57,218.053832 146.574,212.161495 157.42625,214.028785 C159.127534,211.769944 160.110712,209.052051 160.24825,206.227664 C160.24825,199.858131 157.34325,192.119252 143.15025,193.633832 L141.69775,193.779065 Z" id="Shape" stroke="#8CD3F8" stroke-width="2.07476636" fill="#FFFFFF" fill-rule="nonzero"></path>
                <path d="M188.489,189.235327 C184.488304,194.142097 181.854199,200.018065 180.853,206.269159 C180.479208,208.501285 180.479208,210.780023 180.853,213.01215 C180.853,213.01215 187.825,210.626168 190.37725,206.269159 C190.617311,205.87447 190.818824,205.457595 190.979,205.024299 C192.8465,199.961869 188.489,189.235327 188.489,189.235327 Z" id="Shape" stroke="#8CD3F8" stroke-width="2.07476636" fill="#C2E8FF" fill-rule="nonzero"></path>
                <path d="M143.503,193.592336 C143.503,193.592336 149.45825,188.260187 161.348,187.015327 C162.277735,182.623828 163.497746,178.298822 165,174.068785" id="Shape" stroke="#8CD3F8" stroke-width="2.07476636" stroke-linecap="round" stroke-linejoin="round"></path>
                <path d="M175.0845,149.669533 C169.233,160.271589 158.4845,168.155701 142.0505,167.678505 C136.946,167.533271 131.6755,168.840374 126.25975,168.425421 C105.50975,166.848598 85.403,169.379813 81.14925,143.217009 L78.265,119.875888 L94.865,92.5927103 L129.1025,92.5927103 L165,101.659439 L179.525,119.875888 L175.1675,149.669533" id="Shape" stroke="#8CD3F8" stroke-width="2.07476636" fill="#FFFFFF" fill-rule="nonzero"></path>
                <ellipse id="Oval" fill="#8CD3F8" fill-rule="nonzero" transform="translate(100.998099, 139.578045) rotate(-85.630000) translate(-100.998099, -139.578045) " cx="100.998099" cy="139.578045" rx="6.24575" ry="4.14953271"></ellipse>
                <ellipse id="Oval" fill="#8CD3F8" fill-rule="nonzero" transform="translate(141.225495, 139.591203) rotate(-85.630000) translate(-141.225495, -139.591203) " cx="141.225495" cy="139.591203" rx="6.24575" ry="4.14953271"></ellipse>
                <path d="M174.794,150.208972 L172.57375,152.53271 C173.23775,150.457944 174.794,131.017383 172.57375,133.486355 C170.3535,135.955327 168.071,136.764486 167.96725,136.308037 C167.8635,135.851589 163.69275,105.477009 161.24425,116.30729 C159.937,122.095888 156.9905,125.80972 155.47575,124.606355 C148.566,102.198879 126.737,99.211215 126.17675,101.783925 C125.18075,106.244673 135.037,111.390093 135.92925,112.157757 C131.90375,118.174579 105.17775,103.858692 105.17775,103.858692 C96.774,107.448037 97.04375,122.324112 96.5665,122.282617 C94.0765,122.033645 90.9225,116.763738 90.9225,116.763738 C83.72225,116.431776 82,145.78972 82,145.78972 C75.775,136.308037 63.55325,149.233832 59.40325,152.657196 C55.25325,156.080561 60.98025,142.822804 66.147,140.914019 C66.147,140.914019 54.361,140.45757 52.4105,148.71514 C51.5809051,143.114681 53.7271562,137.48632 58.07525,133.859813 C58.07525,133.859813 46.08175,143.797944 43.42575,147.905981 C43.82,145.25028 44.46325,142.158879 44.46325,142.158879 L35.437,143.486729 C35.437,143.486729 33.03,120.47757 48.8,116.245047 C64.57,112.012523 47.78325,114.17028 47.78325,114.17028 C47.78325,114.17028 43.01075,105.871215 29.10825,109.294579 C29.10825,109.294579 35.12575,61.5749533 63.9475,57.9648598 C63.9475,57.9648598 61.2085,47.591028 51.1655,49.6657944 C51.1655,49.6657944 52.6595,44.3336449 56.95475,44.4788785 L48.9245,40.2256075 C48.9245,40.2256075 73.7,25.9719626 93.7445,47.7570093 C93.7445,47.7570093 100.86175,15.8678505 100.758,11.6145794 C100.65425,7.36130841 101.007,2.94205607 99.49225,0.410841121 C99.49225,0.410841121 109.058,2.17439252 109.141,6.63514019 C110.027284,4.56098931 109.37506,2.14974899 107.564,0.805046729 C107.564,0.805046729 123.998,7.46504673 122.56625,15.3284112 L123.76975,8.66841121 C123.76975,8.66841121 128.7705,11.2203738 129.1025,14.3117757 C129.4345,17.4031776 130.36825,7.31981308 130.36825,7.31981308 C130.36825,7.31981308 146.823,13.5441121 147.7775,37.9226168 C147.7775,37.9226168 190.6055,21.8639252 204.7155,65.2472897 L193.86325,63.1725234 C193.86325,63.1725234 202.16325,66.6581308 203.44975,72.135514 C203.44975,72.135514 216.6675,75.6833645 216.6675,108.319439 C216.6675,108.319439 213.4305,94.8127103 203.57425,93.1943925 C203.57425,93.1943925 218.09925,99.4186916 218.88775,129.876262 C215.901359,127.247697 212.491751,125.143237 208.80325,123.651963 C208.80325,123.651963 219.448,130.394953 215.65075,147.636262 C215.65075,147.636262 213.804,143.258505 205.60775,142.40785 L206.76975,145.685981 L200.275,142.428598 C200.275,142.428598 180.20975,143.880935 174.794,150.208972 Z" id="Shape" stroke="#8CD3F8" stroke-width="2.07476636" fill="#C2E8FF" fill-rule="nonzero" stroke-linecap="round" stroke-linejoin="round"></path>
                <path d="M99.49225,0.390093458 C100.408709,2.43374789 100.814612,4.6695198 100.675,6.90485981 C103.248,7.54803738 107.99975,8.14971963 108.062,11.5523364 C108.062,11.5523364 109.49375,8.27420561 107.54325,6.92560748 C107.54325,6.92560748 123.97725,13.5856075 122.5455,21.448972 L123.749,14.788972 C123.749,14.788972 128.74975,17.3409346 129.08175,20.4323364 C129.41375,23.5237383 130.3475,13.4403738 130.3475,13.4403738 C130.3475,13.4403738 146.13825,19.6646729 147.1135,43.9809346 C147.1135,43.9809346 185.93675,29.7480374 202.08025,64.7285981 L204.7155,65.2057944 C190.6055,21.8224299 147.7775,37.8811215 147.7775,37.8811215 C146.80225,13.5441121 130.36825,7.27831776 130.36825,7.27831776 C130.36825,7.27831776 129.41375,17.3616822 129.1025,14.2702804 C128.79125,11.1788785 123.76975,8.62691589 123.76975,8.62691589 L122.56625,15.2869159 C124.01875,7.48579439 107.564,0.763551402 107.564,0.763551402 C109.37506,2.10825366 110.027284,4.51949398 109.141,6.59364486 C108.975,2.17439252 99.49225,0.390093458 99.49225,0.390093458 Z" id="Shape" fill="#FFFFFF" fill-rule="nonzero"></path>
                <path d="M58.07525,140.084112 C58.07525,140.084112 55.46075,142.158879 52.4105,144.980561 C52.29653,146.198098 52.3383677,147.4252 52.535,148.63215 C52.7777806,147.60462 53.2144222,146.63285 53.8215,145.768972 C54.8093158,143.587398 56.2609413,141.647395 58.07525,140.084112 Z" id="Shape" fill="#FFFFFF" fill-rule="nonzero"></path>
                <path d="M197.1625,62.6953271 L184.837,60.4753271 C184.837,60.4753271 202.267,72.7786916 203.512,78.2353271 C203.512,78.2353271 214.7585,81.2852336 216.5015,107.282056 C216.64675,107.800748 216.72975,108.111963 216.72975,108.111963 C216.72975,75.4966355 203.512,71.9280374 203.512,71.9280374 C203.3875,71.6168224 197.30775,63.0272897 197.1625,62.6953271 Z" id="Shape" fill="#FFFFFF" fill-rule="nonzero"></path>
                <path d="M173.65275,141.619439 C173.545519,145.277743 173.184989,148.924227 172.57375,152.53271 L173.4245,151.640561 C173.722264,148.308917 173.798515,144.961183 173.65275,141.619439 Z" id="Shape" fill="#FFFFFF" fill-rule="nonzero"></path>
                <path d="M216.6675,112.925421 C216.6675,113.402617 212.95325,101.804673 212.66275,101.285981 C209.75775,92.6134579 205.3795,92.3852336 195.6685,90.7876636 C195.6685,90.7876636 215.962,104.605607 218.4935,129.399065 L218.95,129.71028 C218.840626,124.045916 218.074677,118.413342 216.6675,112.925421 Z" id="Shape" fill="#FFFFFF" fill-rule="nonzero"></path>
                <path d="M59.77675,148.071963 C57.90925,151.516075 57.28675,154.524486 59.507,152.677944 C60.39925,151.951776 61.582,150.769159 63.13825,149.482804 C63.7956122,148.73439 64.5573483,148.084542 65.4,147.553271 L65.898,147.159065 C63.8246642,147.172259 61.7636951,147.479623 59.77675,148.071963 Z" id="Shape" fill="#FFFFFF" fill-rule="nonzero"></path>
                <path d="M65.8565,63.6704673 C66.4485773,61.5657172 65.941661,59.3043453 64.50775,57.6536449 C33.59025,65.3925234 29.129,109.273832 29.129,109.273832 L30.291,109.02486 C33.113,95.8708411 43.67475,66.4921495 65.8565,63.6704673 Z" id="Shape" fill="#FFFFFF" fill-rule="nonzero"></path>
                <path d="M48.8,122.469346 C64.5285,118.319813 55.4815,113.962804 55.4815,113.962804 C55.4815,113.962804 47.57575,116.618505 45.25175,117.676636 C34.192,123.776449 35.29175,141.245981 35.4785,143.341495 C35.91425,136.183551 38.425,125.249533 48.8,122.469346 Z" id="Shape" fill="#FFFFFF" fill-rule="nonzero"></path>
                <path d="M203.11775,121.037757 C203.11775,121.037757 215.15275,133.79757 216.294,143.590467 C216.72975,139.440935 212.87025,126.992336 212.0195,124.170654 C209.315915,122.490457 206.277812,121.421222 203.11775,121.037757 Z" id="Shape" fill="#FFFFFF" fill-rule="nonzero"></path>
                <path d="M54.5685,49.4375701 L51.871,48.0059813 C51.5842964,48.5359062 51.348089,49.0916257 51.1655,49.6657944 C52.2834005,49.4296892 53.4290786,49.3528536 54.5685,49.4375701 Z" id="Shape" fill="#FFFFFF" fill-rule="nonzero"></path>
                <path d="M93.47475,53.6700935 C93.47475,53.6700935 95.4045,40.2256075 99.928,17.8181308 C100.363356,16.1422956 100.613849,14.423827 100.675,12.6934579 C99.99025,19.6646729 93.72375,47.7570093 93.72375,47.7570093 C73.7,25.9719626 48.94525,40.2256075 48.94525,40.2256075 L55.54375,43.7319626 C64.2795,41.0140187 79.925,38.835514 93.47475,53.6700935 Z" id="Shape" fill="#FFFFFF" fill-rule="nonzero"></path>
                <path d="M113.125,151.433084 C107.149,146.806355 89.11725,143.258505 91.4205,172.450467 C91.4205,172.450467 92.64475,167.865234 95.5705,168.07271 C95.5705,168.07271 94.34625,175.251402 98.102,176.786729 C98.102,176.786729 99.90725,169.628785 102.7915,171.226355 C102.7915,171.226355 108.16575,180.023364 112.89675,180.645794 C112.89675,180.645794 111.6725,174.421495 114.785,174.421495 L119.53675,181.579439 L124.18475,173.508598 C124.18475,173.508598 127.484,177.22243 125.3675,178.840748 C128.096047,178.897465 130.409342,176.846454 130.6795,174.131028 C130.6795,174.131028 136.09525,176.060561 135.09925,180.915514 C137.772439,179.208708 139.294176,176.173541 139.0625,173.010654 L143.60675,178.944486 L144.89325,169.31757 C144.89325,169.31757 152.4255,172.201495 152.5085,175.541869 C153.654755,170.482337 152.082163,165.19116 148.3585,161.578692 L155.9115,162.92729 C155.9115,162.92729 139.3115,143.714953 125.63725,153.922804 C123.5,155.354393 120.86475,157.491402 113.125,151.433084 Z" id="Shape" stroke="#8CD3F8" stroke-width="2.07476636" fill="#C2E8FF" fill-rule="nonzero" stroke-linecap="round" stroke-linejoin="round"></path>
                <path d="M113.125,157.657383 C120.86475,163.715701 123.5,161.578692 125.575,160.001869 C134.4145,153.42486 144.416,159.047477 150.475,163.90243 C149.885193,163.005232 149.188407,162.183117 148.4,161.454206 L155.953,162.802804 C155.953,162.802804 139.353,143.590467 125.67875,153.798318 C123.60375,155.354393 120.927,157.51215 113.10425,151.433084 C107.25275,146.889346 89.802,143.424486 91.296,170.790654 C92.56175,150.208972 107.66775,153.487103 113.125,157.657383 Z" id="Shape" fill="#FFFFFF" fill-rule="nonzero"></path>
                <path d="M105.6965,128.133458 C105.6965,128.133458 106.87925,119.834393 101.007,120.456822 C102.334082,121.193903 102.910667,122.799289 102.35575,124.21215 C102.35575,124.21215 99.16025,114.481495 86.75175,124.21215 C86.75175,124.21215 90.90175,122.69757 92.35425,123.568972 C92.35425,123.568972 86.7725,124.046168 86.6065,127.13757 C86.6065,127.13757 88.95125,126.494393 89.69825,127.303551 C89.69825,127.303551 86.12925,130.291215 91.02625,134.06729 C91.0055,134.025794 99.28475,126.722617 105.6965,128.133458 Z" id="Shape" stroke="#8CD3F8" stroke-width="2.07476636" fill="#C2E8FF" fill-rule="nonzero" stroke-linecap="round" stroke-linejoin="round"></path>
                <path d="M140.1,130.851402 C140.1,130.851402 149.54125,130.851402 153.77425,135.457383 C153.77425,135.457383 159.99925,132.55271 153.15175,129.233084 C154.278304,128.845675 155.519132,128.982684 156.534,129.606542 C156.534,129.606542 156.67925,125.083551 149.562,125.457009 C151.002522,124.710458 152.692777,124.612374 154.21,125.18729 C154.21,125.18729 147.985,118.506542 143.44075,124.606355 C143.803378,123.079882 144.853354,121.807792 146.2835,121.162243 C144.02175,121.017009 136.4895,120.539813 137.17425,130.560935 L140.1,130.851402 Z" id="Shape" stroke="#8CD3F8" stroke-width="2.07476636" fill="#C2E8FF" fill-rule="nonzero" stroke-linecap="round" stroke-linejoin="round"></path>
                <path d="M174.794,150.208972 L172.57375,152.53271 C173.23775,150.457944 174.794,131.017383 172.57375,133.486355 C170.3535,135.955327 168.071,136.764486 167.96725,136.308037 C167.8635,135.851589 163.69275,105.477009 161.24425,116.30729 C159.937,122.095888 156.9905,125.80972 155.47575,124.606355 C148.566,102.198879 126.737,99.211215 126.17675,101.783925 C125.18075,106.244673 135.037,111.390093 135.92925,112.157757 C131.90375,118.174579 105.17775,103.858692 105.17775,103.858692 C96.774,107.448037 97.04375,122.324112 96.5665,122.282617 C94.0765,122.033645 90.9225,116.763738 90.9225,116.763738 C83.72225,116.431776 82,145.78972 82,145.78972 C75.775,136.308037 63.55325,149.233832 59.40325,152.657196 C55.25325,156.080561 60.98025,142.822804 66.147,140.914019 C66.147,140.914019 54.361,140.45757 52.4105,148.71514 C51.5809051,143.114681 53.7271562,137.48632 58.07525,133.859813 C58.07525,133.859813 46.08175,143.797944 43.42575,147.905981 C43.82,145.25028 44.46325,142.158879 44.46325,142.158879 L35.437,143.486729 C35.437,143.486729 33.03,120.47757 48.8,116.245047 C64.57,112.012523 47.78325,114.17028 47.78325,114.17028 C47.78325,114.17028 43.01075,105.871215 29.10825,109.294579 C29.10825,109.294579 35.12575,61.5749533 63.9475,57.9648598 C63.9475,57.9648598 61.2085,47.591028 51.1655,49.6657944 C51.1655,49.6657944 52.6595,44.3336449 56.95475,44.4788785 L48.9245,40.2256075 C48.9245,40.2256075 73.7,25.9719626 93.7445,47.7570093 C93.7445,47.7570093 100.86175,15.8678505 100.758,11.6145794 C100.65425,7.36130841 101.007,2.94205607 99.49225,0.410841121 C99.49225,0.410841121 109.058,2.17439252 109.141,6.63514019 C110.027284,4.56098931 109.37506,2.14974899 107.564,0.805046729 C107.564,0.805046729 123.998,7.46504673 122.56625,15.3284112 L123.76975,8.66841121 C123.76975,8.66841121 128.7705,11.2203738 129.1025,14.3117757 C129.4345,17.4031776 130.36825,7.31981308 130.36825,7.31981308 C130.36825,7.31981308 146.823,13.5441121 147.7775,37.9226168 C147.7775,37.9226168 190.6055,21.8639252 204.7155,65.2472897 L193.86325,63.1725234 C193.86325,63.1725234 202.16325,66.6581308 203.44975,72.135514 C203.44975,72.135514 216.6675,75.6833645 216.6675,108.319439 C216.6675,108.319439 213.4305,94.8127103 203.57425,93.1943925 C203.57425,93.1943925 218.09925,99.4186916 218.88775,129.876262 C215.901359,127.247697 212.491751,125.143237 208.80325,123.651963 C208.80325,123.651963 219.448,130.394953 215.65075,147.636262 C215.65075,147.636262 213.804,143.258505 205.60775,142.40785 L206.76975,145.685981 L200.275,142.428598 C200.275,142.428598 180.20975,143.880935 174.794,150.208972 Z" id="Shape" stroke="#8CD3F8" stroke-width="2.07476636" stroke-linecap="round" stroke-linejoin="round"></path>
                <path d="M113.125,151.433084 C107.149,146.806355 89.11725,143.258505 91.4205,172.450467 C91.4205,172.450467 92.64475,167.865234 95.5705,168.07271 C95.5705,168.07271 94.34625,175.251402 98.102,176.786729 C98.102,176.786729 99.90725,169.628785 102.7915,171.226355 C102.7915,171.226355 108.16575,180.023364 112.89675,180.645794 C112.89675,180.645794 111.6725,174.421495 114.785,174.421495 L119.53675,181.579439 L124.18475,173.508598 C124.18475,173.508598 127.484,177.22243 125.3675,178.840748 C128.096047,178.897465 130.409342,176.846454 130.6795,174.131028 C130.6795,174.131028 136.09525,176.060561 135.09925,180.915514 C137.772439,179.208708 139.294176,176.173541 139.0625,173.010654 L143.60675,178.944486 L144.89325,169.31757 C144.89325,169.31757 152.4255,172.201495 152.5085,175.541869 C153.654755,170.482337 152.082163,165.19116 148.3585,161.578692 L155.9115,162.92729 C155.9115,162.92729 139.3115,143.714953 125.63725,153.922804 C123.5,155.354393 120.86475,157.491402 113.125,151.433084 Z" id="Shape" stroke="#8CD3F8" stroke-width="2.07476636" stroke-linecap="round" stroke-linejoin="round"></path>
                <path d="M64.50775,204.173645 C58.78075,201.829159 53.84225,197.140187 53.21975,195.646355 C52.6941341,194.602529 52.4104449,193.453717 52.38975,192.285234 C52.3289847,191.659778 52.4364396,191.029447 52.701,190.459439 C52.9826755,189.861463 52.7566983,189.147455 52.18225,188.820374 C51.2929585,188.321983 50.7328547,187.391211 50.709,186.37215 L50.709,183.26 C50.6372055,182.331062 51.1272614,181.449061 51.954,181.019252 C52.161467,180.875783 52.2965859,180.649468 52.3244424,180.398788 C52.3522989,180.148108 52.2701599,179.897656 52.09925,179.71215 C51.4194572,179.009025 51.1456008,178.007606 51.373,177.056449 L52.01625,174.234766 C52.47275,172.823925 54.50625,172.595701 55.8135,172.699439 C55.8672539,172.564179 55.929632,172.432507 56.00025,172.305234 C56.95475,170.666168 48.0945,164.25514 48.717,158.964486 C49.298,154.088785 55.44,158.777757 58.2205,161.039252 C62.3705,164.400374 64.4455,166.558131 66.5205,168.363178 C67.70325,169.359065 72.7455,164.794579 79.178,173.716075 C81.321997,176.237525 83.1285936,179.027322 84.55225,182.01514 C83.9135535,191.751064 77.8932327,200.316248 68.94825,204.21514 L64.50775,204.173645 Z" id="Shape" stroke="#8CD3F8" stroke-width="2.07476636" fill="#FFFFFF" fill-rule="nonzero"></path>
                <path d="M59.6315,172.844673 C59.4823694,172.425324 59.5280138,171.961325 59.756,171.579065 C60.31625,170.873645 62.05925,170.002243 66.6865,168.529159 C64.6115,166.682617 62.30825,164.379626 58.1375,160.997757 C55.357,158.757009 49.19425,154.068037 48.634,158.922991 C48.0115,164.192897 56.934,170.624673 55.91725,172.263738 C55.846632,172.391011 55.7842539,172.522684 55.7305,172.657944" id="Shape" stroke="#8CD3F8" stroke-width="2.07476636"></path>
                <path d="M59.5485,172.077009 C59.5163641,174.754578 61.0718279,177.19744 63.51175,178.301308 C65.7142361,179.236655 68.1877442,179.310703 70.44225,178.508785" id="Shape" stroke="#8CD3F8" stroke-width="2.07476636" stroke-linecap="round"></path>
            </g>
        </g>
    </g>
</svg>