<?xml version="1.0" encoding="UTF-8"?>
<svg width="16px" height="16px" viewBox="0 0 16 16" version="1.1" xmlns="http://www.w3.org/2000/svg" xmlns:xlink="http://www.w3.org/1999/xlink">
    <!-- Generator: Sketch 50.2 (55047) - http://www.bohemiancoding.com/sketch -->
    <title>close</title>
    <desc>Created with Sketch.</desc>
    <defs></defs>
    <g id="Storyboard---5/28" stroke="none" stroke-width="1" fill="none" fill-rule="evenodd">
        <g id="Manage-Segments" transform="translate(-943.000000, -120.000000)" fill="#FFFFFF">
            <g id="Toast_Success" transform="translate(322.000000, 94.000000)">
                <path d="M631.168022,33.7189189 L636.804878,28.0540541 C637.065041,27.7945946 637.065041,27.4054054 636.804878,27.1459459 L635.937669,26.2378378 C635.677507,25.9783784 635.287263,25.9783784 635.0271,26.2378378 L629.346883,31.9027027 C629.173442,32.0756757 628.913279,32.0756757 628.739837,31.9027027 L623.059621,26.1945946 C622.799458,25.9351351 622.409214,25.9351351 622.149051,26.1945946 L621.238482,27.1027027 C620.97832,27.3621622 620.97832,27.7513514 621.238482,28.0108108 L626.918699,33.6756757 C627.092141,33.8486486 627.092141,34.1081081 626.918699,34.2810811 L621.195122,39.9891892 C620.934959,40.2486486 620.934959,40.6378378 621.195122,40.8972973 L622.105691,41.8054054 C622.365854,42.0648649 622.756098,42.0648649 623.01626,41.8054054 L628.696477,36.1405405 C628.869919,35.9675676 629.130081,35.9675676 629.303523,36.1405405 L634.98374,41.8054054 C635.243902,42.0648649 635.634146,42.0648649 635.894309,41.8054054 L636.804878,40.8972973 C637.065041,40.6378378 637.065041,40.2486486 636.804878,39.9891892 L631.168022,34.3243243 C630.99458,34.1513514 630.99458,33.8918919 631.168022,33.7189189" id="close"></path>
            </g>
        </g>
    </g>
</svg>