<?xml version="1.0" encoding="UTF-8" standalone="no"?>
<svg width="27px" height="27px" viewBox="0 0 27 27" version="1.1" xmlns="http://www.w3.org/2000/svg" xmlns:xlink="http://www.w3.org/1999/xlink">
    <!-- Generator: Sketch 46.2 (44496) - http://www.bohemiancoding.com/sketch -->
    <title>update</title>
    <desc>Created with Sketch.</desc>
    <defs></defs>
    <g id="Story-Artboards-Copy" stroke="none" stroke-width="1" fill="none" fill-rule="evenodd">
        <g id="Persona-Summary-Copy" transform="translate(-214.000000, -342.000000)" fill="#73ACE8">
            <g id="update" transform="translate(214.000000, 342.000000)">
                <path d="M13.5,0 C6.08108108,0 0,6.08108108 0,13.5 C0,20.9189189 6.08108108,27 13.5,27 C20.9189189,27 27,20.9189189 27,13.5 C27,6.08108108 20.9189189,0 13.5,0 Z M18.6081081,8.75675676 C18.6081081,9.12162162 18.1216216,9.60810811 17.7567568,9.60810811 L12.4054054,9.60810811 C12.0405405,9.60810811 11.7972973,9.85135135 11.7972973,10.0945946 L11.7972973,11.3108108 C11.7972973,11.5540541 12.0405405,11.7972973 12.4054054,11.7972973 L14.5945946,11.7972973 C16.7837838,11.7972973 18.6081081,13.5 18.6081081,15.6891892 L18.6081081,16.9054054 C18.6081081,19.0945946 16.7837838,20.7972973 14.5945946,20.7972973 L15.2027027,20.7972973 L15.2027027,21.8918919 C15.2027027,22.5 14.7162162,22.9864865 14.1081081,22.9864865 C13.5,22.9864865 12.8918919,22.5 12.8918919,21.8918919 L12.8918919,20.7972973 L9.24324324,20.7972973 C8.87837838,20.7972973 8.39189189,20.4324324 8.39189189,19.9459459 L8.39189189,18.2432432 C8.39189189,17.8783784 8.87837838,17.3918919 9.24324324,17.3918919 L14.5945946,17.3918919 C14.9594595,17.3918919 15.2027027,17.1486486 15.2027027,16.9054054 L15.2027027,15.6891892 C15.2027027,15.4459459 14.9594595,15.2027027 14.5945946,15.2027027 L12.4054054,15.2027027 C10.2162162,15.2027027 8.39189189,13.5 8.39189189,11.3108108 L8.39189189,10.0945946 C8.39189189,7.90540541 10.2162162,6.2027027 12.4054054,6.2027027 L12.8918919,6.2027027 L12.8918919,5.10810811 C12.8918919,4.5 13.5,4.01351351 14.1081081,4.01351351 C14.7162162,4.01351351 15.2027027,4.5 15.2027027,5.10810811 L15.2027027,6.2027027 L17.7567568,6.2027027 C18.1216216,6.2027027 18.6081081,6.56756757 18.6081081,7.05405405 L18.6081081,8.75675676 Z" id="Shape"></path>
            </g>
        </g>
    </g>
</svg>