<svg xmlns="http://www.w3.org/2000/svg" xmlns:xlink="http://www.w3.org/1999/xlink" width="56" height="64" viewBox="0 0 56 64">
  <defs>
    <path id="einstein-leaning-left-b" d="M22.7221784,60.371691 C21.1206782,60.2597874 20.4817159,59.8003249 19.2934986,59.0234419 C19.0620018,59.7399132 16.4170378,61.0465561 15.752992,60.7019958 C13.3144873,61.0690136 9.87762841,60.7018607 7.83145804,55.8445551 C7.4771068,55.0033777 7.75074122,52.9155506 8.97912713,49.9588914 C10.1241945,47.1102934 11.5037827,44.8264582 13.9484456,43.1068259 C12.8108305,42.0269508 12.3438461,41.0817635 12.0987646,40.7649241 C8.95998436,39.1773107 5.59339277,38.792097 5.22641661,38.7137574 C5.13189362,38.7923935 4.55207232,39.0783231 3.4869527,39.571546 C3.49070978,39.2551705 3.49070978,38.9965147 3.4869527,38.7955787 C2.2258948,38.9251774 1.79735433,39.2218617 0.969674415,40.1412229 C0.53763528,38.0121183 0.510177313,35.5961401 2.78630993,33.7251701 C1.97328096,33.9657584 0.47644761,34.8971706 -8.74300632e-16,35.3374024 C0.341514775,30.1240582 1.90952436,26.6453472 4.19175571,25.3976984 C1.87871955,25.7880194 0.913595761,28.582194 0.868944355,28.7554497 C0.857338101,28.8899186 0.847028346,29.1398809 0.838015089,29.5053368 L0.800893746,28.9299444 L0.642451268,29.4722125 C0.679563407,23.8511412 1.88414659,20.5730137 4.25620081,19.6378297 C4.52303055,18.8059193 5.35918774,18.005811 6.76467237,17.2375049 L3.91597493,17.7853325 C4.91141605,14.7732718 7.0189935,12.3098234 10.2387073,10.3949872 C14.7872386,8.6785351 19.3873602,10.3724398 19.5121352,10.4687618 C19.6203773,6.47361786 21.1938026,3.65314823 24.2324111,2.00735292 C24.3360687,3.28937518 24.4281616,3.98444227 24.5086897,4.09255418 C24.6294819,4.25472205 24.2170865,3.44780064 25.9562976,2.45704665 C25.9626142,2.5198263 26.1799283,3.46093264 26.2822684,4.21771086 C26.3756008,3.28295372 26.3715246,1.29605666 30.4991192,0.143475487 C29.9918357,0.4954225 29.913695,0.823800042 29.8957029,0.910613741 C29.7667948,1.37629508 29.8724761,1.71724676 29.9918357,1.97604052 C29.7205978,0.951465425 32.3332496,0.19482658 32.4965928,0.244938805 C32.6063699,0.150614466 32.6637166,0.117490223 32.7178248,0.0745520245 C32.5037339,0.687460549 32.0174815,3.52377132 34.3107934,12.8296732 C34.1798989,12.6010401 34.0766562,12.4335864 34.0010651,12.3273121 C34.0699144,12.6264162 34.126198,12.8719186 34.1699159,13.0638193 C39.6665661,7.48290325 45.3460748,10.5500425 46.3397915,10.9807805 C46.096476,11.107145 45.3669595,11.4795038 44.1512419,12.0978568 C44.8988907,12.1967319 45.4023696,12.6394884 45.6616785,13.4261264 C44.9521724,13.4033932 43.2673053,12.9961152 42.2587903,15.7661784 C44.2355718,15.6119857 48.1970071,17.8008183 50.2296262,22.8462026 C51.5279953,26.0690253 51.8994177,28.9104322 51.9584757,29.302503 C51.7980107,28.8337462 51.6622362,28.4529284 51.5511522,28.1600496 C51.7110053,29.0551527 51.7854969,29.5521815 51.7746271,29.6511361 C48.338118,28.8008543 46.8663398,30.5985562 46.7109243,31.011971 C46.0577069,30.9311658 44.5404771,30.7545187 44.5586177,30.916733 C44.8275218,31.7740919 50.489569,30.5999389 50.0435683,39.0193811 C49.2039663,38.8980185 48.6883904,38.7979024 47.5798998,38.6169502 C47.5838515,38.7877902 47.827754,39.4140846 47.8792976,40.1412229 C47.5993628,39.6469299 45.1279776,37.1998861 44.0004893,36.4875202 C45.3094925,37.9837181 45.2425776,38.0675586 45.4298544,40.4491179 C45.3232613,38.6860444 42.6466663,38.1344825 41.6997335,38.3300172 C43.2739641,39.1384083 44.1047899,41.4896625 43.8489871,41.6236063 C43.5931842,41.7575501 40.1719665,37.8516807 37.6810877,38.9830203 C37.3858906,40.694486 36.7869705,42.4513252 34.9593345,43.846698 C34.9697361,43.9626207 35.1745881,44.8324766 35.0615282,46.7716927 C34.9153143,46.2496181 34.6226107,45.9220558 34.5451277,45.8709425 C34.6827847,46.0614185 34.7733322,46.3154949 34.9021834,46.9379798 C34.7674202,46.578677 34.2441741,46.0291615 33.9765146,45.9216897 C34.0609478,47.6630275 33.480435,47.8764564 33.2487434,48.011196 C32.8299498,46.5188039 32.3089835,46.3004261 31.9472405,46.5191184 C31.9009555,46.5925524 31.4888559,47.1861446 31.3586976,47.3557108 C32.2845842,48.0653345 33.202085,48.758311 34.1112001,49.4346402 C34.9886391,49.558238 35.8576509,49.4940698 36.7182354,49.2421356 C36.7089684,49.3245723 36.7203357,49.3402849 36.7182354,49.4828477 C36.7924758,49.3131231 36.9840009,48.881063 37.6810877,47.9716916 C38.032877,47.5127716 38.4658953,46.8414627 39.1739693,46.2051892 C40.1994581,45.3299907 40.9791013,45.6422117 41.6447945,45.7564711 C42.2587903,45.214683 45.4298544,41.944659 46.2301049,42.7364198 C47.2657686,44.0571773 43.8489871,46.3303614 44.6107836,46.809664 C45.7877149,46.7658441 45.6453582,47.3737053 45.7290913,47.7077042 C45.9965796,48.7075949 45.516367,48.5299412 45.5826907,48.895175 C45.6433824,49.2255967 45.9591471,48.8128987 45.9457673,49.9001915 C45.9950861,50.7347552 45.9176384,50.9766287 45.521999,51.1447741 C44.97999,51.6664616 45.9457673,52.0940683 44.9641209,53.2605135 C43.1605671,54.359386 37.9752439,54.4759841 29.4081512,53.610308 C28.1701976,53.1750597 28.0716674,53.8073162 29.1125608,55.5070774 C30.6739008,58.0567191 26.6825247,60.2263408 22.7221784,60.371691 Z"/>
    <filter id="einstein-leaning-left-a" width="108.7%" height="107.4%" x="-4.3%" y="-3.7%" filterUnits="objectBoundingBox">
      <feOffset in="SourceAlpha" result="shadowOffsetOuter1"/>
      <feGaussianBlur in="shadowOffsetOuter1" result="shadowBlurOuter1" stdDeviation=".75"/>
      <feColorMatrix in="shadowBlurOuter1" values="0 0 0 0 0   0 0 0 0 0   0 0 0 0 0  0 0 0 0.599071558 0"/>
    </filter>
  </defs>
  <g fill="none" fill-rule="evenodd" transform="translate(2 1)">
    <use fill="#000" filter="url(#einstein-leaning-left-a)" xlink:href="#einstein-leaning-left-b"/>
    <g fill-rule="nonzero" transform="matrix(-1 0 0 1 52 .015)">
      <path fill="#FDD5A6" d="M12.3514898,55.3877833 C13.455106,54.9140794 14.4010628,53.5719182 15.0317007,51.1244477 C15.1893601,50.7296944 15.2681898,50.2559904 15.3470196,49.8612371 C15.4258493,49.0717305 14.1645736,47.8874706 13.6915952,47.097964 C11.9573411,44.7294442 10.6172357,45.9137041 10.3019168,45.6768521 C9.75010867,45.2031482 9.19830055,44.6504936 8.09468432,43.7030856 C7.38521674,43.0714804 5.72979238,41.8872205 5.57213292,43.150431 C5.41447346,44.4136416 7.77936539,46.2295068 7.46404647,46.7032107 L7.38521674,46.7821614 C7.06989781,46.7821614 6.51808969,46.7821614 6.36043023,47.1769147 L6.20277077,47.9664213 C6.12394104,48.2032733 6.20277077,48.5190759 6.36043023,48.6769772 C6.43925996,48.7559279 6.43925996,48.9138292 6.36043023,48.9927799 L6.36043023,48.9927799 C6.12394104,49.0717305 6.04511131,49.3085825 6.04511131,49.6243852 L6.04511131,50.4928424 C6.04511131,50.7296944 6.20277077,51.045497 6.43925996,51.1244477 C6.59691942,51.2033984 6.67574916,51.4402503 6.59691942,51.5981517 C6.51808969,51.756053 6.51808969,51.9139543 6.51808969,52.0718556 C6.51808969,52.3876583 6.59691942,52.7034609 6.75457889,52.9403129 C7.62170593,54.0456221 8.88298163,54.9140794 10.2230871,55.3088327"/>
      <path fill="#FBBF88" d="M10.3356259,45.6768521 C9.77989131,45.2031482 9.22415674,44.6504936 8.1126876,43.7030856 C7.39817172,43.0714804 5.730968,41.8872205 5.57218669,43.150431 C5.41340539,44.4136416 7.79512498,46.2295068 7.47756237,46.7032107 L7.39817172,46.7821614 L8.35085956,46.7821614 C8.35085956,46.7032107 8.35085956,46.6242601 8.35085956,46.5453094 C8.98598478,46.1505561 9.62111001,45.8347535 10.3356259,45.6768521 Z M14.4639399,55.3877833 C14.6227212,54.6772274 14.6227212,53.9666715 14.4639399,53.3350662 C14.4639399,53.3350662 12.4791735,52.8613622 12.2410016,51.1244477 C11.8440483,47.7295693 11.2089231,48.5190759 10.7325792,48.4401253 C11.0501418,49.3085825 11.1295324,50.3349411 10.8913605,51.282349 C10.8119698,51.992905 10.4944072,52.6245102 9.93867262,53.0192635 C9.22415674,53.4929675 8.03329694,53.3350662 7.00121845,53.2561155 C7.31878106,53.8877208 8.74781282,54.7561781 10.0974539,55.3877833 L14.4639399,55.3877833 Z"/>
      <path fill="#815A37" d="M23.9116833,55.5787757 C22.4456356,49.7535824 21.3684909,47.0269148 20.6802492,47.3987727 C18.3346865,50.4643387 15.2654406,49.2040684 15.2654406,49.2040684 C15.2654406,49.2040684 15.8284683,53.414583 9.71370558,55.5660468 L23.9116833,55.5787757 Z"/>
      <path fill="#DCAD84" d="M8.51715891,46.6854254 C8.28350272,46.2169353 8.59504431,47.8566505 9.52966908,48.3251406 C10.0748669,48.5593856 10.7758354,48.5593856 11.3210332,48.4032223 C10.1527523,48.3251406 9.06235669,47.7004872 8.51715891,46.6854254 Z"/>
      <path fill="#163860" d="M31.6605166,46.6021349 L21.7005063,48.1805842 C20.6295375,49.7064184 18.9318618,52.1682393 16.6074794,55.5660468 C22.4926971,55.5486255 25.8962954,55.5486255 26.8182741,55.5660468 L31.339226,56.1517528 C31.5801939,51.4953276 31.6605166,46.6021349 31.6605166,46.6021349 Z"/>
      <path fill="#0C233B" d="M17.4044099,55.5778577 L19.9895811,49.9445012 L21.2537443,48.1300738 L21.6190474,48.4161459 C20.5129046,50.6250141 19.3632257,53.1330377 18.5105527,55.5778577 L17.4044099,55.5778577 Z"/>
      <polygon fill="#0C233B" points="25.69 52.905 25.69 52.905 25.137 53.458 25.137 53.458 25.137 53.458"/>
      <polygon fill="#0C233B" points="25.882 52.523 25.328 53.076 25.328 53.076 25.328 53.076"/>
      <polygon fill="#0C233B" points="24.73 53.86 24.73 53.86 24.177 54.413 24.177 54.413 24.177 54.413"/>
      <polygon fill="#0C233B" points="27.992 50.613 27.439 51.167 27.439 51.167 27.439 51.167"/>
      <polygon fill="#0C233B" points="26.841 51.759 26.841 51.759 26.288 52.313 26.288 52.313 26.288 52.313"/>
      <polygon fill="#0C233B" points="26.265 52.141 25.712 52.694 25.712 52.694 25.712 52.694"/>
      <polygon fill="#0C233B" points="23.793 54.413 23.793 53.86 23.793 53.86 23.793 53.86"/>
      <polygon fill="#0C233B" points="23.793 54.222 23.793 53.946 23.793 53.669 23.793 53.946"/>
      <polygon fill="#0C233B" points="23.793 53.84 23.793 53.287 23.793 53.287 23.793 53.287"/>
      <polygon fill="#0C233B" points="21.683 49.467 21.683 49.467 21.683 49.467 21.683 50.021 21.683 50.021 21.683 50.021"/>
      <polygon fill="#0C233B" points="21.683 49.085 21.683 49.085 21.683 49.085 21.683 49.639 21.683 49.639 21.683 49.639"/>
      <polygon fill="#0C233B" points="22.066 50.613 22.066 50.613 22.066 51.167 22.066 51.167 22.066 51.167"/>
      <polygon fill="#0C233B" points="21.683 49.849 21.683 49.849 21.683 49.849 21.683 49.849 21.683 50.403 21.683 50.403 21.683 50.403"/>
      <polygon fill="#0C233B" points="21.875 50.231 21.875 50.231 21.875 50.785 21.875 50.785 21.875 50.785"/>
      <polygon fill="#0C233B" points="21.875 50.04 21.875 50.04 21.875 50.04 21.875 50.04 21.875 50.594 21.875 50.594 21.875 50.594"/>
      <polygon fill="#0C233B" points="22.066 50.804 22.066 50.804 22.066 51.358 22.066 51.358 22.066 51.358"/>
      <polygon fill="#0C233B" points="22.066 50.995 22.066 50.995 22.066 51.549 22.066 51.549 22.066 51.549"/>
      <polygon fill="#0C233B" points="22.834 52.905 22.834 52.905 23.387 53.458 23.387 53.458 23.387 53.458"/>
      <polygon fill="#0C233B" points="23.218 53.287 23.218 53.287 23.771 53.84 23.771 53.84 23.771 53.84"/>
      <polygon fill="#0C233B" points="22.642 52.714 22.642 52.714 23.195 53.267 23.195 53.267 23.195 53.267"/>
      <polygon fill="#0C233B" points="23.026 53.096 23.026 53.096 23.026 53.096 23.579 53.649 23.579 53.649 23.579 53.649"/>
      <polygon fill="#0C233B" points="22.45 51.759 22.45 51.759 23.003 52.313 23.003 52.313 23.003 52.313"/>
      <polygon fill="#0C233B" points="22.258 51.568 22.258 51.568 22.811 52.122 22.811 52.122 22.811 52.122"/>
      <polygon fill="#0C233B" points="22.258 51.377 22.258 51.377 22.811 51.931 22.811 51.931 22.811 51.931"/>
      <polygon fill="#0C233B" points="22.45 52.141 22.45 52.141 23.003 52.694 23.003 52.694 23.003 52.694"/>
      <polygon fill="#0C233B" points="22.642 52.332 22.642 52.332 23.195 52.885 23.195 52.885 23.195 52.885"/>
      <path fill="#DADAD9" d="M27.7709572,49.011026 L24.2764489,52.7138904 L22.8948991,51.1382034 C22.8948991,51.1382034 22.3260256,48.3807513 22.8948991,47.0414174 L23.2199696,46.4111426 L28.0147601,46.962633 L27.7709572,49.011026 Z"/>
      <path fill="#FFF" d="M30.4160046,44.501219 L31.8523985,44.501219 L31.6927992,45.8483247 L28.181614,51.9499209 L25.8674237,47.5916379 L25.3088261,47.1954304 L21.7976409,51.1575058 C21.3986426,49.8896417 21.2390432,48.6217775 21.3188429,47.3539134 C21.3986426,46.5614983 21.3188429,45.9275662 21.8774406,45.6106002 C21.9572402,45.6106002 26.984619,48.9387436 30.4160046,44.501219 Z"/>
      <path fill="#159AD6" d="M25.1461255,47.7480891 L23.0258303,50.8339799 C23.1073801,51.7043593 23.4335793,52.5747388 24.004428,53.2868674 C24.004428,53.2868674 25.6354244,51.5461085 26.2878229,50.8339799 L26.2878229,47.7480891 L25.1461255,47.7480891 Z"/>
      <path fill="#1580AF" d="M24.7527675,48.2350279 C25.1478185,48.5309744 25.6218797,48.6049611 26.095941,48.3830012 L26.095941,48.0130681 L24.9897981,47.9390814 L24.7527675,48.2350279 Z"/>
      <path fill="#815A37" d="M16.8856089,55.5787757 C17.8624623,52.7735755 19.8161691,48.5257008 21.7698759,46.6021349 L22.2583026,47.3234722 C20.711618,49.9683752 19.4091468,52.6934269 18.350889,55.5787757 L16.8856089,55.5787757 Z"/>
      <polygon fill="#C1C0BD" points="26.096 47.939 26.649 50.834 26.096 50.995"/>
      <path fill="#815A37" d="M31.8540671,44.2126122 C31.8540671,44.2126122 37.4603562,42.6356796 37.7006257,42.7933728 C37.9408952,47.2876309 38.7417937,51.7030423 40.103321,55.9607604 L30.8929889,55.9607604 C31.2934382,50.5203428 31.8540671,44.2126122 31.8540671,44.2126122 Z"/>
      <path fill="#472A16" d="M31.7724477,45.6141444 L32.9717097,45.4561808 C33.0516605,47.2727622 33.6912669,49.0103619 34.7306273,50.5110161 C34.7306273,50.5110161 31.8523985,51.6167613 31.2127921,52.6435247 L33.9311193,52.3275975 C33.5313653,53.5913064 33.1316113,54.7760334 32.5719557,55.9607604 L30.8929889,55.9607604 L31.7724477,45.6141444 Z"/>
      <path fill="#693521" d="M31.2682247,45.4880129 L32.3214432,44.6922114 C32.3214432,46.5225548 32.8885609,48.3528982 33.7797458,49.9445012 C33.7797458,49.9445012 31.5922919,51.3769439 31.2682247,52.6502262 L34.3468635,52.1727453 C33.5366954,53.4460277 32.8885609,54.7988902 32.2404264,56.1517528 L30.701107,56.1517528 L31.2682247,45.4880129 Z"/>
      <path fill="#C1C0BD" d="M22.7273473,50.2309897 C23.1537515,49.857309 24.1771218,48.5120585 24.1771218,48.5120585 L22.6420664,50.0067813 C22.7273473,50.1562536 22.7273473,50.2309897 22.7273473,50.2309897 Z"/>
      <polygon fill="#0C233B" points="31.085 47.142 28.207 51.95 31.007 46.984"/>
      <path fill="#1580AF" d="M23.0258303,50.9660209 L23.1057811,50.8039668 C23.1857319,51.6952645 23.5055351,52.6675892 23.9852399,53.4778598 C23.9852399,53.3968327 23.2656827,52.9106704 23.0258303,50.9660209 Z"/>
      <path fill="#0C233B" d="M22.8339483,50.285559 C22.5940959,50.5311206 22.1143911,50.9403899 21.8745387,51.1859515 L22.8339483,50.0399974 L22.8339483,50.285559 Z"/>
      <path fill="#159AD6" d="M26.6715867,47.3661044 C26.6715867,47.824486 26.1259225,48.1300738 25.4243542,48.1300738 C24.722786,48.1300738 24.1771218,47.7480891 24.1771218,47.3661044 C24.1771218,46.6785319 24.722786,46.6021349 25.4243542,46.6021349 C26.1259225,46.6021349 26.6715867,46.6785319 26.6715867,47.3661044 Z"/>
      <path fill="#5B4026" d="M34.6565073,59.5789052 C33.8300987,59.7384014 33.00369,58.0636916 33.00369,58.0636916 L35.2349934,57.1067145 C35.3176343,57.1067145 35.482916,59.419409 34.6565073,59.5789052 Z"/>
      <path fill="#FCD7A9" d="M30.7754383,52.7317226 C27.6964047,52.9643268 22.8804802,53.972278 22.6436315,56.0657151 L22.6436315,56.0657151 C22.4857323,58.1591522 34.3281695,57.6164093 34.3281695,57.6164093 C34.4860686,57.151201 34.6439678,56.6084581 34.7229174,56.0657151 C34.801867,54.5925556 34.3281695,52.4991185 30.7754383,52.7317226 Z"/>
      <polygon fill="#DBAC83" points="22.642 55.961 22.642 56.514 22.642 56.514"/>
      <path fill="#DBAC83" d="M31.205877,52.5704121 C31.467594,52.6671975 33.4250155,52.8058441 33.9798001,53.9045268 C34.3760749,54.5323455 34.5345847,55.2386415 34.3760749,55.9449375 C33.9005452,57.2790522 31.7606617,57.5144842 30.3340726,57.5144842 C27.7186595,57.5144842 23.7559122,56.6512335 22.646343,55.9449375 L22.646343,55.9449375 C22.4878331,57.1220976 26.7676001,58.7701216 30.1755628,59.0055536 C32.3947012,59.1625083 32.5532111,57.5929616 35.564899,58.0638256 C35.8026639,57.3575296 35.8819188,56.6512335 35.8819188,55.9449375 C35.8026639,54.2969135 35.0101144,52.1780254 31.205877,52.5704121 Z"/>
      <path fill="#815A37" d="M35.1095661,56.0986733 C35.2692666,57.2947558 35.1095661,58.4908383 34.5506141,59.5274432 C37.5849246,60.0058762 42.9348932,57.6137111 44.052797,56.0986733 C44.1326473,56.0189344 44.2124976,55.8594568 44.2124976,55.7797179 C44.6915993,54.1849412 43.5736954,50.8359102 42.0565401,47.7260956 C41.0184865,45.7326247 39.5013313,43.9783703 37.5849246,42.7822878 L36.2274699,51.2346043 C32.2349561,51.7130373 31.2767528,52.5901645 31.2767528,52.5901645 C33.9118119,52.4306869 34.9498655,54.2646801 35.1095661,56.0986733 Z"/>
      <path fill="#5B4026" d="M37.2250923,47.3661044 C37.2250923,47.3661044 36.5820285,50.399177 36.5016456,51.3569894 C36.5016456,51.3569894 34.7332203,51.0377186 31.2767528,52.7138904 C32.7236462,51.6762602 34.4116884,51.0377186 36.1801137,50.8780832 C36.4212626,49.6808177 36.8231774,48.4835522 37.2250923,47.3661044 Z"/>
      <path fill="#FDD5A6" d="M30.540779,42.9732802 L30.701107,44.8681433 C29.498647,46.6840538 27.4945469,47.6314854 25.3301189,47.5525327 C23.8871669,47.4735801 21.9632308,46.9209117 21.8029028,46.1313854 C21.6425748,45.4997644 21.6425748,44.8681433 21.8029028,44.2365223 L30.540779,42.9732802 Z"/>
      <path fill="#CDAD87" d="M29.7751447,45.6704565 C27.002539,46.453639 24.0714987,46.3753207 21.298893,45.5921382 L21.3781103,44.4173645 L29.9335793,43.1642725 L29.7751447,45.6704565 Z"/>
      <ellipse cx="29.07" cy="43.642" fill="#5B4026" rx="8.347" ry="3.151"/>
      <path fill="#F6F7F7" d="M15.2893396,39.7353571 C13.6206733,37.1201987 9.56819777,40.5278293 8.45575351,41.478796 C7.34330926,42.4297627 8.85305503,38.7843904 10.2833405,38.3089071 C10.2833405,38.3089071 7.02546805,38.1504126 6.54870622,40.4485821 C6.31032531,38.9428848 6.86654744,37.4371876 8.058452,36.4069737 C8.058452,36.4069737 4.80057954,39.1013793 4.08543681,40.2108404 C4.16489711,39.4976154 4.40327802,38.6258959 4.40327802,38.6258959 L1.9400086,39.0221321 C1.9400086,39.0221321 1.30432617,32.7616014 5.59518258,31.572893 C9.88603898,30.3841847 5.27734136,31.0181625 5.27734136,31.0181625 C5.27734136,31.0181625 4.0059765,28.719993 0.191881919,29.6709596 C0.191881919,29.6709596 1.8605483,16.6744149 9.72711838,15.7234482 C9.72711838,15.7234482 9.01197564,12.9497954 6.23086501,13.504526 C6.23086501,13.504526 6.62816653,12.0780759 7.82007108,12.0780759 L5.59518258,10.9686148 C5.59518258,10.9686148 12.3493084,7.08550084 17.8320694,13.0290426 C17.8320694,13.0290426 19.7391167,4.311848 19.7391167,3.20238686 C19.7391167,2.09292573 19.818577,0.824970148 19.4212754,0.190992356 C19.4212754,0.190992356 22.0434655,0.6664757 22.0434655,1.85518406 C22.2818464,1.30045349 22.1229258,0.6664757 21.6461639,0.27023958 C21.6461639,0.27023958 26.095941,2.09292573 25.6986394,4.23260078 L26.0164807,2.40991463 C26.0164807,2.40991463 27.3673058,3.12313964 27.4467661,3.91561188 C27.5262264,4.70808412 27.7646073,2.01367851 27.7646073,2.01367851 C27.7646073,2.01367851 32.2938447,3.75711743 32.5322256,10.334637 C32.5322256,10.334637 44.2128902,5.9760397 48.1064451,17.7838761 L45.1664139,17.2291455 C45.1664139,17.2291455 47.4707627,18.1801122 47.7886039,19.6858094 C47.7886039,19.6858094 51.3643176,20.6367761 51.3643176,29.5124652 C51.3643176,29.5124652 50.4902542,25.8670929 47.7886039,25.3916096 C47.7886039,25.3916096 51.7616191,27.0558013 52,35.3767598 C51.205397,34.6635348 50.2518733,34.1088042 49.2188894,33.7125681 C49.2188894,33.7125681 52.1589206,35.5352542 51.0464764,40.2108404 C51.0464764,40.2108404 50.5697145,39.0221321 48.2653657,38.7843904 L48.5832069,39.6561099 L46.8350803,38.7843904 C46.8350803,38.7843904 41.1933987,39.2598737 39.7631132,40.9240654 C39.7631132,40.9240654 39.5247323,38.7051432 37.7766056,39.8146043 L15.2893396,39.7353571 Z"/>
      <path fill="#FCD4A9" d="M41.2245927,35.6966066 C40.8278352,40.5866884 37.5744243,45.6345147 30.8295479,45.3978978 C29.4012211,45.3978978 28.0522458,45.7133869 26.5445676,45.6345147 C20.593206,45.1612809 14.8005475,45.9500038 14.0863841,37.5106692 C14.0863841,37.3529246 14.0070326,37.2740524 13.9276811,37.1163078 C13.5309237,36.0120958 13.3722207,34.7501392 13.4515722,33.5670549 C13.9276811,27.4938889 20.8312605,22.9192964 28.5283547,23.5502746 C29.87733,23.6291469 31.2263053,23.9446361 32.5752806,24.3389975 C38.0505332,26.1530601 41.6213501,30.7276526 41.2245927,35.6966066 Z"/>
      <path fill="#FBC18D" d="M22.4501845,24.1765936 C24.4508222,23.6199489 26.4514599,23.381387 28.5321231,23.5404283 C29.8925568,23.6199489 31.2529904,23.9380316 32.6134241,24.3356349 C38.2152097,26.2441309 41.8163576,30.8563295 41.41623,35.7866107 C41.256179,38.0131893 39.6556688,45.3290905 31.493067,45.6471732 C31.493067,45.6471732 42.5365871,38.2517513 33.0935771,30.1406435 C29.8925568,27.5164615 26.2914089,25.5284449 22.4501845,24.1765936 Z"/>
      <path fill="#E8E7E6" d="M21.0805609,34.8312499 C21.0805609,34.8312499 21.4045756,32.5550396 19.7845018,32.7905096 C20.1895203,32.9474896 20.3515277,33.4184297 20.1895203,33.8108797 C20.1895203,33.8108797 19.2984797,31.2207094 15.815321,33.8108797 C15.815321,33.8108797 16.9493727,33.4184297 17.3543911,33.6538997 C17.3543911,33.6538997 15.815321,33.8108797 15.7343173,34.5957798 C15.7343173,34.5957798 16.3823469,34.4387998 16.6253579,34.6742698 C16.6253579,34.6742698 15.6533137,35.4591699 17.0303764,36.4795401 C17.0303764,36.4010501 19.2984797,34.4387998 21.0805609,34.8312499 Z"/>
      <ellipse cx="19.572" cy="38.007" fill="#232221" rx="1.727" ry="1.146" transform="rotate(-85.63 19.572 38.007)"/>
      <ellipse cx="30.509" cy="37.816" fill="#232221" rx="1.727" ry="1.146" transform="rotate(-85.63 30.51 37.816)"/>
      <path fill="#E8E7E6" d="M30.2992471,35.5786247 C30.2992471,35.5786247 32.8947627,35.5786247 34.1114106,36.8615248 C34.1114106,36.8615248 35.8958276,36.0597123 33.9491909,35.0975372 C34.2736303,35.017356 34.5980698,35.017356 34.9225092,35.1777185 C34.9225092,35.1777185 34.9225092,33.9749997 32.9758725,34.0551809 C33.3814218,33.8146372 33.868081,33.8146372 34.2736303,33.9749997 C34.2736303,33.9749997 32.4892134,32.1308309 31.2725654,33.8146372 C31.3536753,33.4137309 31.6781147,33.0128247 32.083664,32.8524622 C31.4347851,32.8524622 29.3259287,32.6920997 29.5692583,35.4182622 L30.2992471,35.5786247 Z"/>
      <path fill="#744E31" d="M35.0937757,56.0895564 C35.2523558,57.2887626 35.0937757,58.4879688 34.5387454,59.5272808 C37.5517673,60.0069633 42.8642005,57.6085509 43.9742612,56.0895564 C44.0535513,56.0096093 44.1328413,55.8497151 44.1328413,55.7697681 C42.5470403,56.2494505 40.9612394,56.6491859 39.2961483,56.8090801 C37.8689274,56.729133 36.5209966,56.4892918 35.0937757,56.0895564 Z"/>
      <path fill="#693521" d="M17.1574416,55.5787757 C18.4366544,52.7957442 19.9557196,50.0945666 21.6346863,47.5570967 C21.9544895,47.2296813 21.9544895,46.7385581 21.6346863,46.4111426 C21.6346863,46.4111426 17.9569496,49.2760279 17.8769988,49.3578818 L17.797048,50.5856898 L16.9175892,51.3223746 C16.9175892,51.3223746 16.4378844,53.532429 16.1180812,55.5787757"/>
      <path fill="#E8E7E6" d="M22.9163324,41.14412 C21.3198061,39.880911 16.3705744,38.9335043 16.9293587,46.8285605 C16.9293587,46.8285605 17.2486639,45.5653515 18.0469271,45.6443021 C18.0469271,45.6443021 17.7276218,47.6180661 18.7653639,48.0128189 C18.7653639,48.0128189 19.2443218,46.0390549 20.042585,46.5127583 C20.042585,46.5127583 21.4794587,48.8812751 22.8365061,49.0391763 C22.8365061,49.0391763 22.5172008,47.3812144 23.3952903,47.3022639 L24.7523377,49.2760279 L26.0295588,47.0654122 C26.0295588,47.0654122 26.9076483,48.0917695 26.348864,48.4865223 C27.1471272,48.4865223 27.7857377,47.9338684 27.8655641,47.2233133 C27.8655641,47.2233133 29.3822641,47.7759673 29.0629588,49.0391763 C29.7813957,48.5654729 30.1805272,47.7759673 30.1805272,46.9075111 L31.4577483,48.4865223 L31.7770536,45.8811538 C31.7770536,45.8811538 33.8525378,46.6706594 33.8525378,47.5391156 C34.1718431,46.196956 33.6928852,44.6968953 32.6551431,43.7494886 L34.7306273,44.1442414 C34.7306273,44.1442414 30.1805272,38.9335043 26.4286904,41.6967739 C25.7900798,42.1704773 25.071643,42.8020818 22.9163324,41.14412 Z"/>
      <path fill="#DADBD9" d="M28.3424564,43.5462572 C28.3424564,43.5462572 33.5317135,43.6258374 33.7712177,47.4456845 C33.691383,47.4456845 31.7753496,43.944158 28.3424564,43.5462572 Z M22.7540256,49.0372875 C22.7540256,49.0372875 22.6741909,45.2970205 24.1910507,44.3420587 C24.1910507,44.3420587 21.0774964,45.3766007 22.7540256,49.0372875 Z M28.9012995,49.1168676 C28.9012995,49.1168676 29.7794815,46.5703029 28.3424564,45.6949213 C28.3424564,45.6949213 30.9770023,46.4111426 28.9012995,49.1168676 Z M24.670059,49.2760279 C24.670059,49.2760279 25.9474146,46.4907227 25.7079105,45.2174404 C25.9474146,45.4561808 26.0272494,45.7745014 26.1070841,46.092822 C26.1869188,46.8090433 26.0272494,47.9231654 24.670059,49.2760279 Z"/>
      <path fill="#DADBD9" d="M25.3680317,43.928242 C25.3680317,43.928242 26.6390068,46.4111426 25.8446474,47.0318678 L25.9240833,47.419821 C26.2418271,47.4974116 26.400699,47.7301836 26.4801349,48.0405461 C26.4801349,48.1181368 27.3539303,46.0231894 25.3680317,43.928242 Z M22.8260815,48.7388619 C22.8260815,48.7388619 20.6018751,45.4024642 22.4289018,43.928242 C22.4289018,43.928242 19.251464,46.4887332 22.9055174,48.8940432 L22.8260815,48.7388619 Z M18.7748483,47.8077742 C18.7748483,47.8077742 19.5692078,45.1696923 20.8401829,45.0921016 C20.8401829,45.0921016 17.9010529,44.3937858 18.7748483,47.8077742 Z"/>
      <path fill="#DADBD9" d="M17.0774908,46.9841197 C17.4731236,46.1053437 18.3435158,45.5461226 19.2930346,45.6260113 L19.9260471,45.3064564 C19.8469205,45.3863451 17.393997,44.3477917 17.0774908,46.9841197 Z M24.0406284,43.0695721 C24.0406284,43.0695721 18.9765283,38.2762485 17.4731236,44.267903 C17.4731236,44.267903 18.5808955,41.9511299 20.0843002,42.1907961 C20.0843002,42.1907961 19.2930346,42.510351 19.2930346,43.2293495 C19.3721611,43.2293495 20.7964393,41.631575 24.0406284,43.0695721 Z M25.939666,42.7500172 C25.939666,42.7500172 29.6586145,40.3533554 32.4280443,43.0695721 C32.3489177,43.0695721 30.3707536,41.7114638 25.939666,42.7500172 Z"/>
      <path fill="#F6F7F7" d="M15.155047,39.6419028 C15.155047,39.6419028 14.9961117,31.5869981 16.9828032,31.5869981 C16.9828032,31.5869981 17.8569474,33.0084518 18.4926887,33.0874215 C18.651624,33.0874215 18.4926887,28.9809995 20.7972508,28.0333636 C20.7972508,28.0333636 28.1082755,32.060816 29.2208227,30.4024532 C28.9824198,30.2445139 26.359987,28.8230601 26.6778576,27.6385153 C26.836793,27.0067581 32.5584644,27.6385153 34.4656883,33.7191787 C34.8630266,34.0350574 35.8166385,32.8505125 36.2139768,31.2711194 C36.8497181,28.3492422 37.8827976,36.7200256 37.8827976,36.8779649 C37.8827976,37.0359042 38.6774742,36.7200256 39.3132155,36.0092987 C39.9489568,35.2985718 38.9953449,40.510569 38.7569419,41.0633566 C40.1873598,40.1157208 41.2204393,40.1157208 41.7767129,36.0092987 C42.2535189,32.297725 39.4721508,27.3226367 36.3729121,25.2694257 C33.829947,23.6110629 28.0288079,22.2685788 20.7972508,24.4007595 C12.135276,26.9277884 13.2478232,34.4299056 13.3272908,35.6144504 C13.4862262,37.6676615 15.0755794,39.0101456 15.155047,39.6419028 Z"/>
      <path fill="#E8E7E6" d="M15.0463755,38.3786527 C15.0463755,38.3786527 13.1369115,36.3173767 9.87491065,38.9336117 C9.87491065,38.9336117 14.4894485,38.0615334 15.0463755,39.7264101 L15.0463755,38.3786527 Z M6.69247076,35.7624178 C10.1135936,33.7011418 11.9434966,34.8110597 11.9434966,34.8110597 C8.2836907,34.6525 7.72676372,37.5858543 7.72676372,37.5858543 C9.87491065,36.0795372 12.6595456,35.6038581 15.1259365,36.4759364 L15.2054975,35.3660186 L15.2054975,35.3660186 L15.3646195,34.2561007 C9.87491065,31.560586 6.69247076,35.7624178 6.69247076,35.7624178 Z M5.18081181,29.49931 C5.18081181,29.49931 12.2617406,25.9317169 16.7967174,31.6398658 C13.4551555,29.3407503 9.23842267,28.5479518 5.18081181,29.49931 Z M33.9023319,11.978464 C33.9023319,11.978464 43.6883345,9.28294924 47.9050674,17.6073331 C47.9050674,17.6073331 42.8131636,10.7099865 33.9023319,11.978464 Z M51.1670683,29.49931 C51.1670683,29.49931 50.9283853,21.254206 47.0298964,20.7785269 C46.8707744,19.3514897 46.1547254,18.0037323 45.0408715,17.131654 C45.0408715,17.131654 47.1890184,18.0037323 47.5072624,19.5100494 C47.5868234,19.5100494 51.8035563,20.5406874 51.1670683,29.49931 Z M32.6293559,12.6127028 C32.6293559,12.6127028 30.799453,4.2090391 27.6170131,1.90992356 C27.6170131,1.90992356 32.3906729,3.65408018 32.3906729,10.2343074 L32.6293559,12.6127028 Z M7.88588572,10.7892663 C7.88588572,10.7892663 16.4784734,8.1730314 21.0930113,19.8271688 C18.2288154,14.9910982 13.3755945,11.6613446 7.88588572,10.7892663 Z"/>
      <path fill="#E8E7E6" d="M7.9507353,12.9748756 C7.9507353,12.9748756 10.9720147,12.5793001 12.0056103,16.4559398 C11.9261029,16.4559398 12.4826544,11.1552284 7.9507353,12.9748756 Z M0,29.4308154 C0,29.4308154 3.73684559,17.9591266 9.54088236,15.6647888 C9.54088236,15.6647888 2.06719118,15.7439039 0,29.4308154 Z M20.274375,27.9276286 C17.7301397,26.9782474 11.6080735,23.8927587 12.8801912,20.0161191 C12.8801912,20.0161191 10.0974338,24.0509889 15.6629485,26.3453267 C15.6629485,26.3453267 12.4031471,25.4750606 11.1310294,26.4244418 C11.1310294,26.4244418 16.4580221,27.2155927 19.6383162,28.9561248 C19.9563456,28.5605494 20.3538824,28.1649739 20.8309265,28.0067437 C20.7514191,28.0067437 20.3538824,28.0067437 20.274375,27.9276286 Z M29.1791985,30.3801965 C29.1791985,30.3801965 19.1612721,25.0794852 25.6013677,24.5256795 C25.6013677,24.5256795 14.1523088,23.0224927 29.1791985,30.3801965 Z M29.1791985,30.3801965 C29.1791985,30.3801965 28.6226471,32.1998437 21.8645221,28.6396644 C21.8645221,28.6396644 27.1120074,30.6966569 29.1791985,30.3801965 Z M19.2407794,0 C19.2407794,0 20.274375,1.97787738 17.6506324,12.8957605 C17.6506324,12.8957605 23.9317132,3.322834 19.2407794,0 Z M30.7693456,20.0952342 C30.7693456,20.0952342 34.5061912,16.4559398 37.6864853,17.8008964 C36.0168309,16.3768247 33.7111177,15.9812492 31.6439265,16.9306304 C32.3594927,16.3768247 33.1545662,15.9812492 33.9496397,15.6647888 C33.9496397,15.6647888 31.8029412,15.5856737 31.087375,16.1394794 C31.087375,16.1394794 29.73575,12.4210699 22.3415662,14.161602 C22.3415662,14.0824869 30.2923015,13.4495662 30.7693456,20.0952342 Z M42.6159412,25.791521 C43.3315074,24.6839097 43.8085515,23.4971833 43.9675662,22.1522266 C44.603625,18.1964719 40.1512133,19.3831983 40.1512133,19.3831983 C40.1512133,19.3831983 43.5700294,19.0667379 43.1724927,21.9148814 C42.7749559,24.7630248 37.8455,27.452938 37.8455,27.452938 C38.2430368,25.7124059 38.2430368,23.7345285 36.493875,22.7851474 C36.493875,22.7851474 37.7659927,25.9497512 35.6192941,31.3295777 C35.14225,21.8357663 29.2587059,22.3104568 29.2587059,22.3104568 C34.1881618,23.4971833 34.9832353,31.7251532 34.9832353,32.6745343 C34.8242206,32.9909947 34.6652059,33.3865702 34.4266838,33.7030305 C34.4266838,33.7030305 35.2217574,34.6524117 36.4143677,30.775772 L36.9709191,32.1998437 C40.54875,24.4465644 48.7380074,27.3738229 48.7380074,27.3738229 C47.5453971,25.0003701 43.8085515,25.4750606 42.6159412,25.791521 Z M29.73575,12.8957605 C27.9865883,11.2343435 26.0784118,9.17735104 25.7603824,7.59504913 C25.6013677,6.64566799 25.6013677,5.69628685 25.680875,4.74690571 C25.9193971,2.37345285 24.6472794,1.02849624 21.387478,0.0791150952 C21.387478,0.0791150952 24.090728,1.42407171 24.1702353,6.80389818 C23.6136838,6.25009252 22.977625,5.77540195 22.2620588,5.37982647 C24.0112206,6.64566799 23.4546691,8.1488548 24.090728,9.09823594 C24.7267868,10.0476171 29.73575,12.8957605 29.73575,12.8957605 Z"/>
      <path fill="#EBECEC" d="M50.0610793,27.8006602 C50.6169553,27.9593193 51.7287072,31.6878078 51.8081181,35.2576371 C51.0140096,34.5436712 50.0610793,33.9883645 49.0287382,33.5917167 C49.0287382,33.5917167 51.9669398,35.4162962 50.8551878,40.0967391 C50.8551878,40.0967391 50.3787227,38.906796 48.075808,38.6688074 L48.3934514,39.5414323 L46.6464126,38.6688074 C46.6464126,38.6688074 40.0553118,39.7000914 38.5465056,41.4453413 C38.5465056,41.4453413 39.4994359,35.971603 39.1817925,36.2889211 C38.2288622,37.2408756 37.831808,37.0822166 37.831808,37.0822166 C37.831808,37.0822166 37.6729863,35.7336144 37.0376994,32.3224441 C36.8788777,31.0531714 40.9288312,24.6274786 50.0610793,27.8006602 Z"/>
      <path fill="#E8E7E6" d="M44.0650507,37.7610681 C45.5786582,37.120325 47.3312563,37.4406965 48.446546,38.5619971 C48.6058731,38.7221829 48.5262096,39.5231118 48.5262096,39.5231118 L46.7736114,38.64209 C46.7736114,38.64209 40.3208638,40.2439479 38.5682657,41.4453413 C40.0022096,39.7633905 41.9141348,38.4819042 44.0650507,37.7610681 Z"/>
      <path fill="#E8E7E6" d="M41.9573648,35.7579303 C43.7050791,35.678831 45.1350271,34.4923407 45.5322349,32.8312542 C45.8500012,31.882062 46.0088843,30.8537704 46.0883259,29.8254788 C46.0883259,29.8254788 47.0416246,34.0177445 46.247209,34.8087381 C48.8687804,35.2042349 50.8548194,37.4190168 50.9342609,40.1083948 C50.9342609,40.1083948 48.3126895,36.1534271 41.8779232,36.7071226 C41.0040661,36.8653213 40.1302089,37.02352 39.3357934,37.3399174 L39.3357934,36.3116258 L41.9573648,35.7579303 Z M51.8081181,35.2833342 C51.8081181,35.2833342 50.2192869,29.8254788 48.0743648,29.9045781 C48.0743648,29.9045781 51.2520272,28.5598891 51.8081181,35.2833342 Z"/>
      <path fill="#45413E" d="M43.3403261,51.3769439 C42.351267,52.7232071 41.6665338,54.3070461 41.2861265,55.9700771 C41.2100451,56.5244208 41.2861265,57.2371484 41.362208,57.870684 C42.351267,57.4747242 43.3403261,56.6828047 43.8728963,55.9700771 C43.9489778,55.8908852 43.9489778,55.7325013 44.0250593,55.6533093 C44.481548,54.3070461 43.3403261,51.3769439 43.3403261,51.3769439 Z"/>
    </g>
  </g>
</svg>
