<?xml version="1.0" encoding="UTF-8"?>
<svg width="1280px" height="48px" viewBox="0 0 1280 48" version="1.1" xmlns="http://www.w3.org/2000/svg" xmlns:xlink="http://www.w3.org/1999/xlink">
    <!-- Generator: Sketch 51.2 (57519) - http://www.bohemiancoding.com/sketch -->
    <title>Global Header</title>
    <desc>Created with Sketch.</desc>
    <defs>
        <rect id="path-1" x="0" y="0" width="32" height="32" rx="16"></rect>
        <path d="M2.09264518,3.15 L10.0576452,3.15 C10.2826452,3.15 10.4401452,3.4425 10.2601452,3.645 L6.36764518,8.415 C6.23264518,8.595 5.94014518,8.595 5.80514518,8.415 L1.86764518,3.645 C1.71014518,3.4425 1.84514518,3.15 2.09264518,3.15 Z" id="path-3"></path>
        <path d="M15.2608999,13.9378179 L11.137823,9.84551026 C11.9685923,8.67627949 12.3993615,7.19935641 12.1839769,5.63012564 C11.8147461,2.9839718 9.66089994,0.891664104 6.98397687,0.645510258 C3.35320764,0.276279488 0.276284559,3.35320257 0.645515328,7.01474103 C0.891669175,9.66089487 2.98397687,11.8455103 5.63013071,12.214741 C7.19936148,12.4301256 8.67628456,11.9993564 9.84551533,11.1685872 L13.937823,15.2608949 C14.1224384,15.4455103 14.3993615,15.4455103 14.5839769,15.2608949 L15.2301307,14.614741 C15.4147461,14.4301256 15.4147461,14.1224333 15.2608999,13.9378179 L15.2608999,13.9378179 Z M2.46089994,6.43012564 C2.46089994,4.24551026 4.24551533,2.46089487 6.43013071,2.46089487 C8.6147461,2.46089487 10.3993615,4.24551026 10.3993615,6.43012564 C10.3993615,8.61474103 8.6147461,10.3993564 6.43013071,10.3993564 C4.24551533,10.3993564 2.46089994,8.64551026 2.46089994,6.43012564 L2.46089994,6.43012564 Z" id="path-5"></path>
    </defs>
    <g id="Page-1" stroke="none" stroke-width="1" fill="none" fill-rule="evenodd">
        <g id="DMP-Overview">
            <g id="Desktop-Components-/Global-Header">
                <g id="Global-Header" transform="translate(0.000000, -11.000000)">
                    <rect id="Background" fill="#FFFFFF" x="0" y="11" width="1280" height="48"></rect>
                    <g id="right-icons-(full)" transform="translate(1039.000000, 19.000000)">
                        <g id="Identity" transform="translate(193.000000, 0.000000)">
                            <g id="Desktop-Components-/-Avatar-/-User-Icons-/-Circle">
                                <g id="circle-image-medium">
                                    <mask id="mask-2" fill="white">
                                        <use xlink:href="#path-1"></use>
                                    </mask>
                                    <use id="bkgd" fill="#62B7ED" xlink:href="#path-1"></use>
                                    <g id="z-nested-/-Color-Tokens-/-MALIBU" mask="url(#mask-2)" fill="#5EB4FF">
                                        <rect id="Rectangle" x="0" y="0" width="32" height="32"></rect>
                                    </g>
                                    <g id="avatar" mask="url(#mask-2)" fill="#FFFFFF">
                                        <g transform="translate(8.888889, 8.888889)">
                                            <path d="M14.2222222,12.1362963 L14.2222222,12.8 C14.2222222,13.5822222 13.5822222,14.2222222 12.8,14.2222222 L1.42222222,14.2222222 C0.64,14.2222222 0,13.5822222 0,12.8 L0,12.1362963 C0,10.4059259 2.01481481,9.36296296 3.91111111,8.53333333 C3.98222222,8.50962963 4.02962963,8.48592593 4.10074074,8.43851852 C4.24296296,8.36740741 4.40888889,8.36740741 4.55111111,8.46222222 C5.30962963,8.96 6.18666667,9.24444444 7.11111111,9.24444444 C8.03555556,9.24444444 8.91259259,8.96 9.67111111,8.48592593 C9.81333333,8.39111111 9.97925926,8.39111111 10.1214815,8.46222222 C10.1925926,8.48592593 10.24,8.50962963 10.3111111,8.55703704 C12.2074074,9.36296296 14.2222222,10.4059259 14.2222222,12.1362963" id="Fill-1"></path>
                                            <path d="M7.11111111,0 C9.06168889,0 10.642963,1.75099259 10.642963,3.91111111 C10.642963,6.07122963 9.06168889,7.82222222 7.11111111,7.82222222 C5.16053333,7.82222222 3.57925926,6.07122963 3.57925926,3.91111111 C3.57925926,1.75099259 5.16053333,0 7.11111111,0" id="Fill-3"></path>
                                        </g>
                                    </g>
                                </g>
                            </g>
                        </g>
                        <g id="Notifications" transform="translate(157.000000, 6.000000)" fill="#B0ADAB">
                            <g id="bell">
                                <path d="M18.3333333,12.9167437 L18.1104167,12.9167437 C17.3129167,12.9167437 16.6666667,12.2704937 16.6666667,11.4729937 L16.6666667,6.66674369 C16.6666667,2.87799369 13.50625,-0.172422972 9.6775,0.00757702807 C6.09208333,0.176327028 3.33333333,3.26549369 3.33333333,6.85507703 L3.33333333,11.4729937 C3.33333333,12.2704937 2.68708333,12.9167437 1.88958333,12.9167437 L1.66666667,12.9167437 C0.74625,12.9167437 0,13.6629937 0,14.5834104 L0,15.2084104 C0,15.5534104 0.28,15.8334104 0.625,15.8334104 L19.375,15.8334104 C19.72,15.8334104 20,15.5534104 20,15.2084104 L20,14.5834104 C20,13.6629937 19.25375,12.9167437 18.3333333,12.9167437" id="Fill-77"></path>
                                <path d="M12.0020688,17.5 L7.92040215,17.5 C7.66498548,17.5 7.45873548,17.7295833 7.50706881,17.98 C7.73123548,19.1308333 8.74456881,20 9.96123548,20 C11.1779021,20 12.1912355,19.1308333 12.4154021,17.98 C12.4637355,17.7295833 12.2574855,17.5 12.0020688,17.5" id="Fill-78"></path>
                            </g>
                        </g>
                        <g id="setup" transform="translate(122.000000, 6.000000)" fill="#B0ADAB">
                            <path d="M18.25,12.6666667 L16.7083333,11.375 C16.7916667,10.9166667 16.8333333,10.4166667 16.8333333,9.95833333 C16.8333333,9.5 16.7916667,9 16.7083333,8.54166667 L18.25,7.25 C18.75,6.83333333 18.9166667,6.08333333 18.5833333,5.5 L17.9166667,4.29166667 C17.6666667,3.875 17.2083333,3.625 16.7083333,3.625 C16.5416667,3.625 16.375,3.66666667 16.25,3.70833333 L14.375,4.41666667 C13.625,3.75 12.7916667,3.29166667 11.9583333,3 L11.625,1.04166667 C11.5,0.375 10.9166667,0 10.25,0 L8.91666667,0 C8.25,0 7.66666667,0.375 7.54166667,1.04166667 L7.20833333,2.95833333 C6.29166667,3.25 5.5,3.75 4.75,4.375 L2.91666667,3.66666667 C2.75,3.625 2.625,3.58333333 2.45833333,3.58333333 C1.95833333,3.58333333 1.5,3.83333333 1.25,4.25 L0.583333333,5.41666667 C0.25,6 0.375,6.75 0.916666667,7.16666667 L2.45833333,8.45833333 C2.375,8.91666667 2.33333333,9.41666667 2.33333333,9.875 C2.33333333,10.375 2.375,10.8333333 2.45833333,11.2916667 L0.916666667,12.5833333 C0.416666667,13 0.25,13.75 0.583333333,14.3333333 L1.25,15.5833333 C1.5,16 1.95833333,16.25 2.45833333,16.25 C2.625,16.25 2.79166667,16.2083333 2.91666667,16.1666667 L4.79166667,15.4583333 C5.54166667,16.125 6.375,16.5833333 7.20833333,16.875 L7.54166667,18.875 C7.66666667,19.5416667 8.20833333,20 8.91666667,20 L10.25,20 C10.9166667,20 11.5,19.5 11.625,18.8333333 L11.9583333,16.8333333 C12.9166667,16.5 13.75,16 14.5,15.2916667 L16.25,16 C16.4166667,16.0416667 16.5833333,16.0833333 16.75,16.0833333 C17.25,16.0833333 17.7083333,15.8333333 17.9583333,15.4166667 L18.5833333,14.3333333 C18.9166667,13.8333333 18.75,13.0833333 18.25,12.6666667 L18.25,12.6666667 Z M9.625,14.625 C7.125,14.625 5.08333333,12.5833333 5.08333333,10.0416667 C5.08333333,7.5 7.08333333,5.45833333 9.625,5.45833333 C12.1666667,5.45833333 14.1666667,7.5 14.1666667,10.0416667 C14.1666667,12.5833333 12.125,14.625 9.625,14.625 L9.625,14.625 Z" id="Shape"></path>
                            <path d="M10.8333333,6.66666667 L8.91666667,6.66666667 C8.625,6.66666667 8.375,6.83333333 8.29166667,7.08333333 L7.125,10.0833333 C7.04166667,10.2916667 7.20833333,10.5416667 7.45833333,10.5416667 L9.41666667,10.5416667 L8.70833333,13.0416667 C8.625,13.2916667 8.91666667,13.4166667 9.08333333,13.25 L12.0416667,9.79166667 C12.25,9.58333333 12.0833333,9.25 11.7916667,9.25 L10.3333333,9.25 L11.625,7.20833333 C11.75,7 11.5833333,6.70833333 11.3333333,6.70833333 L10.8333333,6.70833333 L10.8333333,6.66666667 Z" id="Shape"></path>
                        </g>
                        <g id="help-icon" transform="translate(92.000000, 6.000000)" fill="#B0ADAB">
                            <g id="Fill-1-+-Fill-2">
                                <path d="M7.84719941,15 L6.08922923,15 C5.60358997,15 5.21024414,14.6266637 5.21024414,14.1666601 L5.21024414,13.7370734 C5.21024414,11.9937265 6.39995046,10.4116307 8.17066592,9.80037595 C8.70069393,9.61745785 9.19600203,9.33912234 9.55594643,8.92745245 C11.7393454,6.43493293 9.71899816,3.42990939 7.10665447,3.33574199 C6.13449696,3.3024084 5.2243079,3.6307443 4.52990968,4.26491593 C4.00295812,4.7461697 3.65531952,5.35284112 3.51819784,6.01659632 C3.43908918,6.39868264 3.07343139,6.66660141 2.66294535,6.66660141 L0.878166123,6.66660141 C0.334513845,6.66660141 -0.0685008192,6.20493113 0.00972885379,5.69451046 C0.231672589,4.2390824 0.951121885,2.90407194 2.09160504,1.86364713 C3.48040148,0.595303863 5.30429554,-0.0638679657 7.24026021,0.00488257265 C10.8893668,0.1361336 13.856381,2.9490723 13.9948211,6.40868272 C14.1112867,9.31662216 12.2539912,11.938726 9.37311753,12.9329005 C8.98021119,13.0683182 8.7261845,13.384154 8.7261845,13.7370734 L8.7261845,14.1666601 C8.7261845,14.6266637 8.33239918,15 7.84719941,15" id="Fill-1"></path>
                                <path d="M7.25,20 L5.75,20 C5.335625,20 5,19.664 5,19.25 L5,17.75 C5,17.335625 5.335625,17 5.75,17 L7.25,17 C7.664,17 8,17.335625 8,17.75 L8,19.25 C8,19.664 7.664,20 7.25,20" id="Fill-2"></path>
                            </g>
                        </g>
                        <g id="global-create" transform="translate(56.000000, 6.000000)" fill="#B0ADAB">
                            <path d="M0,3.99922997 C0,1.79051625 1.79246765,0 3.99922997,0 L16.00077,0 C18.2094838,0 20,1.79246765 20,3.99922997 L20,16.00077 C20,18.2094838 18.2075324,20 16.00077,20 L3.99922997,20 C1.79051625,20 0,18.2075324 0,16.00077 L0,3.99922997 Z M16.5227273,10.9545455 C16.7861818,10.9545455 17,10.7407273 17,10.4772727 L17,9.52272727 C17,9.26022727 16.7852273,9.04545455 16.5227273,9.04545455 L11.2727273,9.04545455 C11.0970909,9.04545455 10.9545455,8.90290909 10.9545455,8.72727273 L10.9545455,3.47727273 C10.9545455,3.21381818 10.7407273,3 10.4772727,3 L9.52272727,3 C9.26022727,3 9.04545455,3.21477273 9.04545455,3.47727273 L9.04545455,8.72727273 C9.04545455,8.90290909 8.90290909,9.04545455 8.72727273,9.04545455 L3.47727273,9.04545455 C3.21477273,9.04545455 3,9.26022727 3,9.52272727 L3,10.4772727 C3,10.7407273 3.21381818,10.9545455 3.47727273,10.9545455 L8.72727273,10.9545455 C8.90290909,10.9545455 9.04545455,11.0970909 9.04545455,11.2727273 L9.04545455,16.5227273 C9.04545455,16.7861818 9.25927273,17 9.52272727,17 L10.4772727,17 C10.7407273,17 10.9545455,16.7861818 10.9545455,16.5227273 L10.9545455,11.2727273 C10.9545455,11.0970909 11.0970909,10.9545455 11.2727273,10.9545455 L16.5227273,10.9545455 Z" id="Combined-Shape"></path>
                        </g>
                        <g id="fav-group" transform="translate(0.000000, 5.000000)">
                            <path d="M22,0 L22,22 L36.0052166,22 C38.2114745,22 40,20.1996477 40,17.9904421 L40,4.00955791 C40,1.79514022 38.2082844,0 36.0052166,0 L22,0 Z" id="BG" stroke="#B0ADAB" fill="#FFFFFF"></path>
                            <path d="M4.00955791,0 C1.79514022,0 0,1.80035233 0,4.00955791 L0,17.9904421 C0,20.2048598 1.80035233,22 4.00955791,22 L22,22 L22,0 L4.00955791,0 Z" id="BG-Copy" stroke="#B0ADAB" fill="#FFFFFF"></path>
                            <path d="M26.3427433,8 L35.6712767,8 C35.9347946,8 36.1192571,8.325 35.9084428,8.55 L31.3495832,13.85 C31.1914725,14.05 30.8488992,14.05 30.6907885,13.85 L26.0792254,8.55 C25.8947629,8.325 26.0528736,8 26.3427433,8 L26.3427433,8 Z" id="Shape" fill="#B0ADAB"></path>
                            <path d="M8.16758179,8.05764779 C8.30128182,8.03516936 8.4181289,7.94525562 8.47767597,7.82162423 L10.6303588,3.23602356 C10.7820353,2.92132548 11.2179647,2.92132548 11.3696412,3.23602356 L13.522324,7.82162423 C13.5818711,7.94525562 13.6987182,8.03516936 13.8324182,8.05764779 L18.6467427,8.78819692 C18.9849251,8.83315379 19.1197487,9.27148326 18.8748192,9.51874604 L15.3918773,13.0815779 C15.2941303,13.1827309 15.2503126,13.3288407 15.2727832,13.4637113 L16.0952069,18.4988807 C16.1525069,18.8472964 15.7997186,19.1170376 15.4974891,18.9484494 L11.1921236,16.5769745 C11.0719059,16.5095392 10.9280941,16.5095392 10.8078764,16.5769745 L6.50251087,18.9484494 C6.2002814,19.1170376 5.8474931,18.8472964 5.90479311,18.4988807 L6.7272168,13.4637113 C6.74968739,13.3288407 6.70586974,13.1827309 6.60812266,13.0815779 L3.12518079,9.51874604 C2.88025133,9.27148326 3.01507489,8.83315379 3.35325731,8.78819692 L8.16758179,8.05764779 Z" id="off" fill="#B0ADAB"></path>
                        </g>
                    </g>
                    <g id="cloud-logo" transform="translate(16.000000, 21.000000)" fill="#00A1E0">
                        <path d="M21.7180516,0.875887711 C24.3582847,0.875887711 26.6622293,2.34823978 27.8887345,4.53432114 C28.9552608,4.05783079 30.1351733,3.79264952 31.3766935,3.79264952 C36.1390664,3.79264952 40,7.68762526 40,12.4924685 C40,17.297389 36.1390664,21.1922874 31.3766935,21.1922874 C30.7952122,21.1922874 30.227198,21.1339258 29.6779137,21.0230853 C28.597843,22.9499454 26.5387041,24.2519344 24.1760155,24.2519344 C23.1870407,24.2519344 22.2513148,24.0236741 21.4181395,23.6171557 C20.3232086,26.1935783 17.7712077,28 14.7978592,28 C11.7008309,28 9.06121691,26.040476 8.04855868,23.2920649 C7.60561745,23.3856446 7.14673251,23.43495 6.67623806,23.43495 C2.98898258,23.43495 0,20.4145462 0,16.6886177 C0,14.1915327 1.34267769,12.0114114 3.33842862,10.8448769 C2.92745222,9.89917207 2.69936419,8.85593996 2.69936419,7.75922266 C2.69936419,3.47390565 6.17757121,0 10.4682886,0 C12.9873959,0 15.2260177,1.19772768 16.6455503,3.05384179 C17.9356756,1.70982322 19.7315883,0.875887711 21.7180516,0.875887711 Z" id="Fill-1"></path>
                    </g>
                    <g id="Desktop-Components-/-Combobox-/-Search---Global" transform="translate(370.000000, 0.000000)">
                        <g id="Desktop-Components-/-Combobox-/-z-nested-/-Input---Grouped-Combobox">
                            <g id="value" stroke-width="1" fill-rule="evenodd" transform="translate(0.000000, 19.000000)">
                                <g id="Desktop-Components-/State/Input/Default" fill="#FFFFFF" stroke="#DDDBDA">
                                    <rect id="Rectangle-2" x="0.5" y="0.5" width="80" height="31" rx="4"></rect>
                                </g>
                                <text font-family="SalesforceSans-Regular, Salesforce Sans" font-size="12" font-weight="normal" fill="#706E6B">
                                    <tspan x="12" y="22">All</tspan>
                                </text>
                            </g>
                            <text id="label" font-family="SalesforceSans-Regular, Salesforce Sans" font-size="12" font-weight="normal"></text>
                            <g id="Icons-/-Utility-Icon" transform="translate(35.000000, 29.000000)">
                                <rect id="Rectangle" x="0" y="0" width="11.7" height="11.7"></rect>
                                <g id="Icons-/-z-nested-/-icon-glyphs-/-utility-/caret-down">
                                    <mask id="mask-4" fill="white">
                                        <use xlink:href="#path-3"></use>
                                    </mask>
                                    <use id="Mask" fill="#000000" fill-rule="evenodd" xlink:href="#path-3"></use>
                                    <g id="z-nested-/-Color-Tokens-/-PALETTE_GRAY_9" mask="url(#mask-4)" fill="#706E6B" fill-rule="evenodd">
                                        <rect id="Rectangle" x="0" y="0" width="12" height="12"></rect>
                                    </g>
                                </g>
                            </g>
                        </g>
                        <g id="Desktop-Components-/-Combobox-/-Autocomplete" transform="translate(58.000000, 0.000000)">
                            <g id="Desktop-Components-/-Input-/-Input---Global-Search-Icon-Left">
                                <g id="Desktop-Components-/-Combobox-/-z-nested-/-Input---Global-Search-Combobox">
                                    <g id="Desktop-Components-/State/Input/Default" transform="translate(0.000000, 19.000000)" fill="#FFFFFF" fill-rule="evenodd" stroke="#DDDBDA" stroke-width="1">
                                        <rect id="Rectangle-2" x="0.5" y="0.5" width="481" height="31" rx="4"></rect>
                                    </g>
                                    <text id="value" font-family="SalesforceSans-Regular, Salesforce Sans" font-size="13" font-weight="normal" fill="#706E6B">
                                        <tspan x="52" y="41">Search Salesforce</tspan>
                                    </text>
                                    <text id="label" font-family="SalesforceSans-Regular, Salesforce Sans" font-size="12" font-weight="normal"></text>
                                </g>
                                <g id="Icons-/-Utility-Icon" transform="translate(20.000000, 27.000000)">
                                    <rect id="Rectangle" x="0" y="0" width="16" height="16"></rect>
                                    <g id="Icons-/-z-nested-/-icon-glyphs-/-utility-/search">
                                        <mask id="mask-6" fill="white">
                                            <use xlink:href="#path-5"></use>
                                        </mask>
                                        <use id="Mask" fill="#000000" fill-rule="evenodd" xlink:href="#path-5"></use>
                                        <g id="z-nested-/-Color-Tokens-/-PALETTE_GRAY_7" mask="url(#mask-6)" fill="#B0ADAB" fill-rule="evenodd">
                                            <rect id="Rectangle" x="0" y="0" width="16" height="16"></rect>
                                        </g>
                                    </g>
                                </g>
                            </g>
                        </g>
                        <g id="Desktop-Components-/-Button-Group-/-Button-Combine-Splice" transform="translate(54.000000, 19.000000)" fill-rule="evenodd">
                            <rect id="Rectangle-2" fill="#FFFFFF" x="0" y="0" width="8" height="32"></rect>
                            <rect id="Rectangle-3" fill="#DDDBDA" x="3.5" y="0" width="1" height="32"></rect>
                            <rect id="Rectangle-4" fill="#DDDBDA" x="0" y="31" width="8" height="1"></rect>
                            <rect id="Rectangle-4" fill="#DDDBDA" x="0" y="0" width="8" height="1"></rect>
                        </g>
                    </g>
                </g>
            </g>
        </g>
    </g>
</svg>