<?xml version="1.0" encoding="UTF-8"?>
<svg width="439px" height="199px" viewBox="0 0 439 199" version="1.1" xmlns="http://www.w3.org/2000/svg" xmlns:xlink="http://www.w3.org/1999/xlink">
    <!-- Generator: Sketch 51.2 (57519) - http://www.bohemiancoding.com/sketch -->
    <title>index.audience-segments-population</title>
    <desc>Created with Sketch.</desc>
    <defs>
        <polygon id="path-1" points="47.5629578 0.0782660512 0 0.0782660512 0 46.9596307 47.5629578 46.9596307 47.5629578 0.0782660512"></polygon>
        <path d="M5.62237762,5.94257179 C5.47852148,5.79275905 5.26273726,5.79275905 5.11888112,5.94257179 L4.25574426,6.84144819 C4.11188811,6.99126092 3.84815185,6.89138577 3.84815185,6.66666667 L3.84815185,3.37078652 C3.84815185,3.1710362 3.68031968,2.99625468 3.48851149,2.99625468 L2.76923077,2.99625468 C2.57742258,2.99625468 2.40959041,3.1710362 2.40959041,3.37078652 L2.40959041,6.66666667 C2.40959041,6.89138577 2.14585415,6.99126092 2.001998,6.84144819 L1.13886114,5.94257179 C0.995004995,5.79275905 0.779220779,5.79275905 0.635364635,5.94257179 L0.107892108,6.49188514 C-0.035964036,6.64169788 -0.035964036,6.86641698 0.107892108,7.01622971 L2.86513487,9.88764045 C3.00899101,10.0374532 3.22477522,10.0374532 3.36863137,9.88764045 L6.14985015,6.99126092 C6.29370629,6.84144819 6.29370629,6.61672909 6.14985015,6.46691635 L5.62237762,5.94257179 L5.62237762,5.94257179 Z M12,0.374531835 C12,0.174781523 11.8321678,0 11.6403596,0 L2.76923077,0 C2.57742258,0 2.40959041,0.174781523 2.40959041,0.374531835 L2.40959041,1.12359551 C2.40959041,1.32334582 2.57742258,1.49812734 2.76923077,1.49812734 L11.6403596,1.49812734 C11.8321678,1.49812734 12,1.32334582 12,1.12359551 L12,0.374531835 Z M12,3.37078652 C12,3.1710362 11.8321678,2.99625468 11.6403596,2.99625468 L5.16683317,2.99625468 C4.97502498,2.99625468 4.80719281,3.1710362 4.80719281,3.37078652 L4.80719281,4.11985019 C4.80719281,4.3196005 4.97502498,4.49438202 5.16683317,4.49438202 L11.6403596,4.49438202 C11.8321678,4.49438202 12,4.3196005 12,4.11985019 L12,3.37078652 Z M12,6.3670412 C12,6.16729089 11.8321678,5.99250936 11.6403596,5.99250936 L7.56443556,5.99250936 C7.37262737,5.99250936 7.2047952,6.16729089 7.2047952,6.3670412 L7.2047952,7.11610487 C7.2047952,7.31585518 7.37262737,7.4906367 7.56443556,7.4906367 L11.6403596,7.4906367 C11.8321678,7.4906367 12,7.31585518 12,7.11610487 L12,6.3670412 Z" id="path-3"></path>
        <path d="M5.62237762,5.94257179 C5.47852148,5.79275905 5.26273726,5.79275905 5.11888112,5.94257179 L4.25574426,6.84144819 C4.11188811,6.99126092 3.84815185,6.89138577 3.84815185,6.66666667 L3.84815185,3.37078652 C3.84815185,3.1710362 3.68031968,2.99625468 3.48851149,2.99625468 L2.76923077,2.99625468 C2.57742258,2.99625468 2.40959041,3.1710362 2.40959041,3.37078652 L2.40959041,6.66666667 C2.40959041,6.89138577 2.14585415,6.99126092 2.001998,6.84144819 L1.13886114,5.94257179 C0.995004995,5.79275905 0.779220779,5.79275905 0.635364635,5.94257179 L0.107892108,6.49188514 C-0.035964036,6.64169788 -0.035964036,6.86641698 0.107892108,7.01622971 L2.86513487,9.88764045 C3.00899101,10.0374532 3.22477522,10.0374532 3.36863137,9.88764045 L6.14985015,6.99126092 C6.29370629,6.84144819 6.29370629,6.61672909 6.14985015,6.46691635 L5.62237762,5.94257179 L5.62237762,5.94257179 Z M12,0.374531835 C12,0.174781523 11.8321678,0 11.6403596,0 L2.76923077,0 C2.57742258,0 2.40959041,0.174781523 2.40959041,0.374531835 L2.40959041,1.12359551 C2.40959041,1.32334582 2.57742258,1.49812734 2.76923077,1.49812734 L11.6403596,1.49812734 C11.8321678,1.49812734 12,1.32334582 12,1.12359551 L12,0.374531835 Z M12,3.37078652 C12,3.1710362 11.8321678,2.99625468 11.6403596,2.99625468 L5.16683317,2.99625468 C4.97502498,2.99625468 4.80719281,3.1710362 4.80719281,3.37078652 L4.80719281,4.11985019 C4.80719281,4.3196005 4.97502498,4.49438202 5.16683317,4.49438202 L11.6403596,4.49438202 C11.8321678,4.49438202 12,4.3196005 12,4.11985019 L12,3.37078652 Z M12,6.3670412 C12,6.16729089 11.8321678,5.99250936 11.6403596,5.99250936 L7.56443556,5.99250936 C7.37262737,5.99250936 7.2047952,6.16729089 7.2047952,6.3670412 L7.2047952,7.11610487 C7.2047952,7.31585518 7.37262737,7.4906367 7.56443556,7.4906367 L11.6403596,7.4906367 C11.8321678,7.4906367 12,7.31585518 12,7.11610487 L12,6.3670412 Z" id="path-5"></path>
        <polygon id="path-7" points="47.7522938 0.467612903 0 0.467612903 0 46.4516129 47.7522938 46.4516129 47.7522938 0.467612903"></polygon>
    </defs>
    <g id="Page-1" stroke="none" stroke-width="1" fill="none" fill-rule="evenodd">
        <g id="Dashboard" transform="translate(-119.000000, -270.000000)">
            <rect fill="#FFFFFF" x="0" y="0" width="1280" height="1434"></rect>
            <path d="M46,149.5 C44.0670034,149.5 42.5,151.067003 42.5,153 L42.5,545 C42.5,546.932997 44.0670034,548.5 46,548.5 L627,548.5 C628.932997,548.5 630.5,546.932997 630.5,545 L630.5,153 C630.5,151.067003 628.932997,149.5 627,149.5 L46,149.5 Z" id="Rectangle-24" stroke="#D8DDE6" fill="#FFFFFF"></path>
            <g id="Group-19" transform="translate(122.000000, 272.000000)">
                <g id="Group-12">
                    <g id="Group-9">
                        <g id="Page-1">
                            <g id="Group-3" transform="translate(0.000000, 0.233807)">
                                <mask id="mask-2" fill="white">
                                    <use xlink:href="#path-1"></use>
                                </mask>
                                <g id="Clip-2"></g>
                                <path d="M47.5629578,23.5195745 C47.5629578,36.4647794 36.9148189,46.9602569 23.7813201,46.9602569 C10.6478213,46.9602569 -0.000317617866,36.4647794 -0.000317617866,23.5195745 C-0.000317617866,10.5728043 10.6478213,0.0773268586 23.7813201,0.0773268586 C36.9148189,0.0773268586 47.5629578,10.5728043 47.5629578,23.5195745" id="Fill-1" fill="#1E6A8F" mask="url(#mask-2)"></path>
                            </g>
                            <path d="M38.4050819,13.6490776 L9.15882878,13.6490776 C8.82533002,13.6490776 8.55217866,13.9167475 8.55217866,14.2454649 L8.55217866,32.06821 C8.55217866,32.3953621 8.82533002,32.6645974 9.15882878,32.6645974 L11.3091017,32.6645974 L11.3091017,19.0056061 C11.3091017,18.1838126 11.9872159,17.5138552 12.8225509,17.5138552 L24.3107891,17.5138552 C25.1461241,17.5138552 25.8258263,18.1838126 25.8258263,19.0056061 L25.8258263,28.4851902 L32.8531216,28.4851902 C33.6884566,28.4851902 34.3681588,29.152017 34.3681588,29.9785065 L34.3681588,32.6645974 L38.4050819,32.6645974 C38.7385806,32.6645974 39.011732,32.3953621 39.011732,32.06821 L39.011732,14.2454649 C39.011732,13.9167475 38.7385806,13.6490776 38.4050819,13.6490776" id="Fill-4" fill="#FFFFFF"></path>
                            <path d="M32.3379454,30.2561944 L24.6134789,30.2561944 L21.415067,30.2561944 C21.2483176,30.2561944 21.11333,30.3892467 21.11333,30.5536054 L21.11333,35.5516755 L21.11333,35.8443905 C21.11333,36.0118798 21.2483176,36.1449321 21.415067,36.1449321 L32.3379454,36.1449321 C32.5031067,36.1449321 32.6396824,36.0118798 32.6396824,35.8443905 L32.6396824,30.5536054 C32.6396824,30.3892467 32.5031067,30.2561944 32.3379454,30.2561944" id="Fill-6" fill="#FFFFFF"></path>
                            <path d="M24.0851216,28.4845641 L24.0851216,19.4464005 C24.0851216,19.2820418 23.9485459,19.1474242 23.7817965,19.1474242 L13.3289926,19.1474242 C13.1622432,19.1474242 13.0256675,19.2820418 13.0256675,19.4464005 L13.0256675,35.2498816 C13.0256675,35.4173709 13.1622432,35.5519885 13.3289926,35.5519885 L19.3684963,35.5519885 L19.3684963,29.9778804 C19.3684963,29.1529562 20.0481985,28.4845641 20.8835335,28.4845641 L24.0851216,28.4845641 Z" id="Fill-8" fill="#FFFFFF"></path>
                        </g>
                    </g>
                    <text id="TOTAL-DEVICES" font-family="SalesforceSans-Regular, Salesforce Sans" font-size="16" font-weight="normal" fill="#16325C">
                        <tspan x="59" y="31">TOTAL DEVICES</tspan>
                    </text>
                </g>
                <g id="Group-14" transform="translate(20.000000, 47.000000)">
                    <text id="18M" font-family="SalesforceSans-Light, Salesforce Sans" font-size="36" font-weight="300" fill="#16325C">
                        <tspan x="30.16" y="42">18M</tspan>
                    </text>
                    <g id="Group-16" transform="translate(17.000000, 53.000000)">
                        <text id="vs.-Aug-06,-2018" font-family="SalesforceSans-Regular, Salesforce Sans" font-size="13" font-weight="normal" fill="#028048">
                            <tspan x="0.692" y="38">vs. Aug 06, 2018</tspan>
                        </text>
                        <g id="Group-5" transform="translate(18.000000, 0.000000)">
                            <text id="0.9%" font-family="SalesforceSans-Regular, Salesforce Sans" font-size="16" font-weight="normal" fill="#028048">
                                <tspan x="23.688" y="18">0.9%</tspan>
                            </text>
                            <g id="trend_up_green" transform="translate(0.000000, 2.000000)" stroke="#028048" stroke-linecap="round" stroke-linejoin="round">
                                <polyline id="Stroke-1" points="5.8333 5.8333 11.1663 5.8333 11.1663 11.1663"></polyline>
                                <path d="M5.3846,15.8707 C6.3416,16.2757 7.3946,16.4997 8.4996,16.4997 C12.9186,16.4997 16.4996,12.9187 16.4996,8.4997 C16.4996,4.0817 12.9186,0.4997 8.4996,0.4997 C4.0816,0.4997 0.4996,4.0817 0.4996,8.4997 C0.4996,10.7077 1.3946,12.7067 2.8406,14.1547 L11.1666,5.8337" id="Stroke-2"></path>
                            </g>
                        </g>
                    </g>
                </g>
            </g>
            <g id="Group-2" transform="translate(209.000000, 442.000000)">
                <text id="By-device-types" font-family="SalesforceSans-Regular, Salesforce Sans" font-size="12" font-weight="normal" fill="#0070D2">
                    <tspan x="19" y="14">By device types</tspan>
                </text>
                <g id="icons/utility/filter-copy-5" transform="translate(0.000000, 4.000000)">
                    <mask id="mask-4" fill="white">
                        <use xlink:href="#path-3"></use>
                    </mask>
                    <use id="Mask" fill="#0070D2" xlink:href="#path-3"></use>
                </g>
                <text id="By-data-providers" font-family="SalesforceSans-Regular, Salesforce Sans" font-size="12" font-weight="normal" fill="#0070D2">
                    <tspan x="152" y="15">By data providers</tspan>
                </text>
                <path d="M118.5,0.472278553 L118.5,17.5" id="Line-11" stroke="#D8DDE6" stroke-linecap="square"></path>
                <g id="icons/utility/filter-copy-4" transform="translate(133.000000, 5.000000)">
                    <mask id="mask-6" fill="white">
                        <use xlink:href="#path-5"></use>
                    </mask>
                    <use id="Mask" fill="#0070D2" xlink:href="#path-5"></use>
                </g>
            </g>
            <g id="Group-20" transform="translate(382.000000, 272.000000)">
                <g id="Group-18">
                    <g id="Page-1">
                        <g id="Group-3" transform="translate(0.000000, 0.192195)">
                            <mask id="mask-8" fill="white">
                                <use xlink:href="#path-7"></use>
                            </mask>
                            <g id="Clip-2"></g>
                            <path d="M47.7522938,23.4602323 C47.7522938,36.1570065 37.0627057,46.4522323 23.8759861,46.4522323 C10.6908744,46.4522323 -0.000321588089,36.1570065 -0.000321588089,23.4602323 C-0.000321588089,10.7619097 10.6908744,0.466683871 23.8759861,0.466683871 C37.0627057,0.466683871 47.7522938,10.7619097 47.7522938,23.4602323" id="Fill-1" fill="#EA785E" mask="url(#mask-8)"></path>
                        </g>
                        <path d="M44.6189002,29.5768659 C44.3921806,29.8973821 43.0350789,30.9239627 35.0838134,30.9239627 C34.3747117,30.9239627 33.7202799,30.9146724 33.1156943,30.9007369 C32.2168556,30.124995 31.2199325,29.8462853 30.4256099,29.7115756 C29.586265,29.5660272 28.6279325,29.3028014 28.0908804,29.1061563 C28.0908804,28.9358337 28.0957042,28.6973821 28.1117836,28.389253 C28.397997,27.9324789 28.9334412,26.9523498 29.153729,26.3980272 C29.2807563,26.2958337 29.4013519,26.1766079 29.5026521,26.0480918 C30.4256099,25.8406079 31.3726868,25.5464143 31.7923593,25.3265434 C31.8952675,25.2723498 31.9820963,25.1949305 32.0415901,25.1004789 C32.7153171,25.6114466 33.7427911,26.0883498 34.932667,26.1348014 L34.960002,26.1348014 C36.1177191,26.1348014 37.0744437,25.9505434 38.1308605,25.105124 C38.1855305,25.1949305 38.2659275,25.269253 38.360796,25.317253 C38.9669896,25.6393176 40.4109201,26.0248659 41.4030194,26.1951885 C42.5784238,26.3980272 43.8872873,26.8857692 44.6976893,28.9513176 C44.7861261,29.1618982 44.7571831,29.3864143 44.6189002,29.5768659 M33.4951682,33.6754466 C33.5803891,33.8844789 33.5498382,34.1136401 33.4147712,34.3056401 C33.1896596,34.6199627 31.8261261,35.6558337 23.8748605,35.6558337 C15.9284189,35.6558337 14.5648854,34.6199627 14.3397737,34.3056401 C14.2014908,34.1136401 14.1741558,33.8844789 14.2529449,33.6754466 C14.5230789,33.0034466 14.8398432,32.497124 15.1887663,32.1162208 C15.9123395,31.324995 16.7581161,31.0586724 17.5540467,30.9239627 C18.0203494,30.8434466 18.5364983,30.7273176 19.0188804,30.5941563 C19.6845677,30.412995 20.2795057,30.2117047 20.5914462,30.0460272 C20.6959623,29.9964789 20.7795752,29.9190595 20.8326372,29.8230595 C20.9660963,29.9221563 21.109203,30.0243498 21.271605,30.1110595 C21.7041409,30.3789305 22.2218978,30.604995 22.8071881,30.7335111 C23.1030491,30.8016401 23.4069499,30.8480918 23.728538,30.8589305 L23.7574809,30.8589305 C24.186801,30.8589305 24.5823543,30.8326079 24.9762998,30.7536401 C25.4940566,30.6545434 25.9989499,30.4702853 26.5167067,30.1280918 C26.6501658,30.0398337 26.7820169,29.9376401 26.9219077,29.8323498 C26.9814015,29.9190595 27.0569747,29.9964789 27.1582749,30.0460272 C27.4959424,30.2271885 28.0973122,30.4269305 28.7420963,30.5988014 C29.2405578,30.7335111 29.7599226,30.8480918 30.2004983,30.9239627 C30.991605,31.0586724 31.8422055,31.324995 32.556131,32.113124 C32.9114859,32.497124 33.2282501,33.0034466 33.4951682,33.6754466 M12.6707315,30.9239627 C4.71785806,30.9239627 3.35914839,29.8973821 3.13564467,29.5768659 C2.99736179,29.3864143 2.96841886,29.1618982 3.04881588,28.9482208 C3.86404169,26.8873176 5.17290521,26.3980272 6.34830968,26.1982853 C7.45296476,26.0047369 8.84383325,25.6098982 9.38570918,25.3265434 C9.48861737,25.2754466 9.56901439,25.1964789 9.62690025,25.1004789 C10.308667,25.6145434 11.3297092,26.0883498 12.5244089,26.1348014 L12.5517439,26.1348014 C13.7062452,26.1348014 14.6677935,25.9520918 15.7177787,25.1066724 C15.7740566,25.1964789 15.8528457,25.269253 15.9477141,25.3188014 C16.410801,25.5634466 17.354662,25.8406079 18.2133022,26.0388014 C18.3258581,26.1719627 18.4448457,26.2958337 18.5783047,26.3980272 C18.8050243,26.9786724 19.3838829,27.9913176 19.6443692,28.4202208 C19.6572328,28.7190595 19.6620566,28.9435756 19.6620566,29.1061563 C19.1217886,29.3028014 18.1522005,29.5675756 17.327327,29.7115756 C16.5330045,29.8462853 15.5360814,30.124995 14.6388506,30.9007369 C14.034265,30.9146724 13.3782253,30.9239627 12.6707315,30.9239627 M8.28105409,20.7990595 C7.91444367,20.5544143 7.63144615,20.044995 7.46100447,19.3188014 C7.34844864,18.8573821 7.25679603,18.2782853 7.52371414,17.9515756 L7.53496973,17.9314466 C7.65878114,17.8060272 7.71827494,17.6310595 7.70219553,17.4545434 C7.53979355,15.9526079 8.00448834,12.8558337 10.8794859,11.8803498 L10.8843097,11.8741563 C10.8891335,11.8741563 10.9003891,11.8695111 10.9116447,11.8695111 C11.41493,11.7255111 11.8924883,11.6527369 12.3234164,11.6527369 C12.4247166,11.6527369 12.5147613,11.6589305 12.5951583,11.665124 C12.6321409,11.6682208 12.6707315,11.6682208 12.7061062,11.665124 C12.7993667,11.6589305 12.8942352,11.6527369 12.9923196,11.6527369 C13.4312873,11.6527369 13.9104536,11.7255111 14.4105231,11.8695111 C14.4249945,11.8741563 14.4362501,11.8803498 14.4523295,11.8803498 C17.3208953,12.8620272 17.7807663,15.9588014 17.6231881,17.4545434 C17.6006769,17.6217692 17.6569548,17.7858982 17.7695107,17.9175111 C17.7743345,17.9283498 17.7823742,17.9314466 17.7904139,17.9422853 C18.0653717,18.2782853 17.9721112,18.8573821 17.8595553,19.3218982 C17.6875057,20.0418982 17.4029002,20.5590595 17.0330739,20.805253 C16.9108705,20.8873176 16.8176099,21.0096401 16.7870591,21.1567369 C16.6889747,21.5175111 15.9026918,22.9017692 15.7515454,23.1417692 C15.7451136,23.1417692 15.7418978,23.1464143 15.7418978,23.1510595 L15.7418978,23.1557047 C15.6422055,23.2950595 15.4460367,23.5629305 15.3125777,23.7440918 C15.2627315,23.8122208 15.2193171,23.8695111 15.1887663,23.9159627 C14.2867117,24.7505434 13.6145926,24.9038337 12.5613916,24.9069305 C11.5130144,24.8604789 10.633471,24.3665434 10.1816397,23.9360918 C10.1591285,23.905124 10.1317935,23.8741563 10.1044586,23.8385434 C9.97903921,23.6790595 9.71372903,23.3415111 9.6092129,23.1804789 C9.6011732,23.1758337 9.6011732,23.1758337 9.59795732,23.1711885 C9.45163474,22.9389305 8.62997717,21.5175111 8.53510868,21.1567369 C8.50134194,21.0096401 8.40968933,20.8857692 8.28105409,20.7990595 M18.7278432,22.6726079 L18.7390988,22.6602208 C18.8629102,22.5301563 18.920796,22.3520918 18.9063246,22.1833176 C18.7439226,20.6798337 19.2054015,17.5846079 22.0836149,16.6013821 L22.0884387,16.6013821 C22.0916546,16.5967369 22.1093419,16.5967369 22.1205975,16.5905434 C22.6238829,16.4480918 23.0950094,16.3753176 23.5323692,16.3753176 C23.6288457,16.3753176 23.7188903,16.3799627 23.8057191,16.3846079 C23.8427017,16.3923498 23.8748605,16.3923498 23.9198829,16.3923498 C24.0034958,16.3799627 24.1015801,16.3753176 24.2028804,16.3753176 C24.6370243,16.3753176 25.1145826,16.4480918 25.6210839,16.5967369 C25.6307315,16.5967369 25.643595,16.6013821 25.6564586,16.6075756 C28.5282402,17.5846079 28.9897191,20.6798337 28.8257092,22.1864143 C28.8112377,22.3474466 28.8659077,22.513124 28.9736397,22.6385434 C28.9784635,22.6478337 28.9897191,22.6602208 28.9945429,22.6679627 C29.2743246,23.0008659 29.1762402,23.5799627 29.0701161,24.0460272 C28.9832873,24.4006079 28.8707315,24.700995 28.7308407,24.9487369 C28.5909499,25.2073176 28.4317638,25.4024143 28.2420268,25.5278337 C28.1166074,25.6145434 28.0281707,25.7399627 27.9911881,25.8855111 C27.9574213,25.996995 27.8545132,26.2199627 27.7290938,26.4785434 C27.454136,27.0158337 27.0634065,27.7002208 26.9572824,27.861253 C26.9508506,27.8674466 26.9508506,27.8720918 26.9428109,27.8767369 L26.9428109,27.8813821 C26.8479424,28.0253821 26.6501658,28.2901563 26.5215305,28.465124 C26.4668605,28.5394466 26.4218382,28.5905434 26.3912873,28.6431885 C26.0536199,28.9590595 25.7481112,29.1758337 25.4361707,29.3260272 C25.0470491,29.5164789 24.6547117,29.5938982 24.186801,29.6124789 C24.0533419,29.6233176 23.9118432,29.6279627 23.7687365,29.6279627 C23.6979871,29.6233176 23.6352774,29.6233176 23.5709598,29.6124789 C23.1094809,29.5675756 22.6914164,29.4359627 22.3312377,29.2795756 C21.9340764,29.0937692 21.6060566,28.869253 21.3873767,28.6648659 C21.3648655,28.6323498 21.3391385,28.5951885 21.3118035,28.561124 C21.1799524,28.3985434 20.919466,28.0640918 20.8101261,27.9046079 C20.8101261,27.9046079 20.8069102,27.8984143 20.8069102,27.8937692 C20.7056099,27.7389305 20.2843295,27.0204789 20.0077638,26.4661563 C19.8726968,26.2153176 19.7697886,25.996995 19.7440615,25.8855111 C19.7070789,25.7399627 19.6138184,25.6145434 19.4867911,25.5278337 C19.3034859,25.3993176 19.137868,25.2026724 18.9947613,24.9456401 C18.8580864,24.6994466 18.7519623,24.3944143 18.6651335,24.0460272 C18.5509697,23.5799627 18.4609251,22.9962208 18.7278432,22.6726079 M29.9319722,17.9515756 L29.9432278,17.9314466 C30.0654313,17.8060272 30.126533,17.6310595 30.1088457,17.4545434 C29.9496596,15.9526079 30.4111385,12.8558337 33.286136,11.8803498 L33.2957836,11.8741563 C33.3038233,11.8741563 33.311863,11.8695111 33.3247266,11.8695111 C33.8296199,11.7255111 34.3007464,11.6527369 34.7364983,11.6527369 C34.8361906,11.6527369 34.9278432,11.6589305 35.0082402,11.665124 C35.0468308,11.6682208 35.0854213,11.6682208 35.122404,11.665124 C35.2076248,11.6589305 35.3057092,11.6527369 35.4070094,11.6527369 C35.8427613,11.6527369 36.3187117,11.7255111 36.821997,11.8695111 C36.8332526,11.8741563 36.85094,11.8803498 36.8605876,11.8803498 C39.7307613,12.8620272 40.1906323,15.9588014 40.0314462,17.4545434 C40.0153667,17.6186724 40.0668208,17.7858982 40.1761608,17.9175111 C40.1874164,17.9283498 40.1906323,17.9314466 40.198672,17.9422853 C40.4768457,18.2782853 40.3819772,18.8573821 40.2726372,19.3188014 C40.0957638,20.0388014 39.8127663,20.5544143 39.4477638,20.805253 C39.3191285,20.8873176 39.2339077,21.0096401 39.1937092,21.1567369 C39.1036645,21.5175111 38.3141658,22.9017692 38.1598035,23.1417692 C38.1533717,23.1417692 38.1533717,23.1448659 38.1533717,23.1510595 C38.1533717,23.1557047 38.1485479,23.1557047 38.1485479,23.1557047 C38.0520715,23.2950595 37.8526868,23.5629305 37.7224437,23.7440918 C37.6758134,23.8106724 37.632399,23.8664143 37.5970243,23.9159627 C36.6933618,24.7505434 36.0292824,24.9007369 34.9712576,24.9069305 C33.9260963,24.8604789 33.0449449,24.3665434 32.5898978,23.9360918 C32.5689945,23.905124 32.5416596,23.8726079 32.5143246,23.836995 C32.3856893,23.6759627 32.1219871,23.3415111 32.0126471,23.1804789 C32.0126471,23.1758337 32.0094313,23.1758337 32.0094313,23.1711885 C31.8582849,22.9389305 31.0382352,21.5175111 30.9465826,21.1567369 C30.9096,21.0096401 30.8179474,20.8873176 30.694136,20.7990595 C30.3307414,20.5590595 30.044528,20.0465434 29.8692625,19.3218982 C29.7567067,18.8558337 29.6650541,18.2782853 29.9319722,17.9515756" id="Fill-4" fill="#FFFFFF"></path>
                    </g>
                    <text id="TOTAL-PEOPLE" font-family="SalesforceSans-Regular, Salesforce Sans" font-size="16" font-weight="normal" fill="#16325C">
                        <tspan x="59" y="31">TOTAL PEOPLE</tspan>
                    </text>
                </g>
                <g id="Group-15" transform="translate(17.000000, 47.000000)">
                    <text id="3.1M" font-family="SalesforceSans-Light, Salesforce Sans" font-size="36" font-weight="300" fill="#16325C">
                        <tspan x="25.624" y="42">3.1M</tspan>
                    </text>
                    <g id="Group-16-Copy" transform="translate(13.000000, 53.000000)">
                        <text id="vs.-Aug-06,-2018" font-family="SalesforceSans-Regular, Salesforce Sans" font-size="13" font-weight="normal" fill="#028048">
                            <tspan x="0.692" y="38">vs. Aug 06, 2018</tspan>
                        </text>
                        <g id="Group-5" transform="translate(18.000000, 0.000000)">
                            <text id="1.3%" font-family="SalesforceSans-Regular, Salesforce Sans" font-size="16" font-weight="normal" fill="#028048">
                                <tspan x="23.688" y="18">1.3%</tspan>
                            </text>
                            <g id="trend_up_green" transform="translate(0.000000, 2.000000)" stroke="#028048" stroke-linecap="round" stroke-linejoin="round">
                                <polyline id="Stroke-1" points="5.8333 5.8333 11.1663 5.8333 11.1663 11.1663"></polyline>
                                <path d="M5.3846,15.8707 C6.3416,16.2757 7.3946,16.4997 8.4996,16.4997 C12.9186,16.4997 16.4996,12.9187 16.4996,8.4997 C16.4996,4.0817 12.9186,0.4997 8.4996,0.4997 C4.0816,0.4997 0.4996,4.0817 0.4996,8.4997 C0.4996,10.7077 1.3946,12.7067 2.8406,14.1547 L11.1666,5.8337" id="Stroke-2"></path>
                            </g>
                        </g>
                    </g>
                </g>
            </g>
        </g>
    </g>
</svg>