<?xml version="1.0" encoding="UTF-8"?>
<svg width="1245px" height="769px" viewBox="0 0 1245 769" version="1.1" xmlns="http://www.w3.org/2000/svg" xmlns:xlink="http://www.w3.org/1999/xlink">
    <!-- Generator: Sketch 51.2 (57519) - http://www.bohemiancoding.com/sketch -->
    <title>insights.einstein-segmentation.bottom</title>
    <desc>Created with Sketch.</desc>
    <defs></defs>
    <g id="Page-1" stroke="none" stroke-width="1" fill="none" fill-rule="evenodd">
        <g id="Summary" transform="translate(-20.000000, -887.000000)">
            <rect fill="#FFFFFF" x="0" y="0" width="1280" height="1590"></rect>
            <path d="M22.5,890 L1245.21634,890" id="Line" stroke="#FFFFFF" stroke-width="2" stroke-linecap="square"></path>
            <path d="M20,887.934066 L1246.34681,887.934066" id="Line-Copy-5" stroke="#E0E5EE" stroke-linecap="square"></path>
            <g id="Group-14" transform="translate(392.000000, 899.000000)">
                <rect id="Rectangle-18" stroke="#CCD3D9" fill="#E1E7EC" x="0.5" y="0.5" width="41" height="31" rx="4"></rect>
                <g id="filter" transform="translate(5.000000, 9.000000)" fill="#63859B">
                    <path d="M14.8,0.533333333 L1.2,0.533333333 C0.733333333,0.533333333 0.466666667,1.06666667 0.8,1.4 L6.8,8.4 C6.93333333,8.6 7.06666667,8.93333333 7.06666667,9.2 L7.06666667,13.6666667 C7.06666667,13.8666667 7.26666667,14.1333333 7.53333333,14.1333333 L8.46666667,14.1333333 C8.73333333,14.1333333 8.93333333,13.8666667 8.93333333,13.6666667 L8.93333333,9.2 C8.93333333,8.93333333 9,8.6 9.2,8.4 L15.2,1.4 C15.5333333,1.06666667 15.2666667,0.533333333 14.8,0.533333333 L14.8,0.533333333 Z" id="Shape"></path>
                </g>
                <text id="0" font-family="SalesforceSans-Regular, Salesforce Sans" font-size="12" font-weight="normal" fill="#7A8289">
                    <tspan x="27" y="23">0</tspan>
                </text>
            </g>
            <rect id="Rectangle-16-Copy-2" fill="#FFFFFF" x="22" y="888" width="1224" height="852"></rect>
            <path d="M1269,1037.5 L23,1037.5" id="Line" stroke="#D8DDE6" stroke-linecap="square"></path>
            <g id="Group" transform="translate(1231.000000, 1052.000000)" fill="#54698D">
                <path d="M6.98493024,4.96363636 C5.75995949,4.96363636 4.80720445,5.85454545 4.80720445,7 C4.80720445,8.14545455 5.75995949,9.1 6.98493024,9.1 C8.209901,9.1 9.23070997,8.14545455 9.23070997,7 C9.23070997,5.85454545 8.209901,4.96363636 6.98493024,4.96363636 Z M13.5861615,8.90909091 L12.4292447,7.95454545 C12.4972987,7.63636364 12.5653526,7.31818182 12.5653526,7 C12.5653526,6.68181818 12.4972987,6.3 12.4292447,5.98181818 L13.5861615,5.09090909 C13.9944851,4.77272727 14.130593,4.26363636 13.8583773,3.81818182 L13.3819998,2.99090909 C13.177838,2.73636364 12.8375683,2.54545455 12.4292447,2.54545455 C12.2931369,2.54545455 12.2250829,2.54545455 12.0889751,2.60909091 L10.6598425,3.11818182 C10.1154111,2.60909091 9.43487176,2.29090909 8.82238638,2.1 L8.55017066,0.7 C8.48211673,0.254545455 8.00573921,0 7.52936169,0 L6.50855273,0 C6.03217521,0 5.55579769,0.254545455 5.48774376,0.7 L5.21552804,2.03636364 C4.53498873,2.29090909 3.92250335,2.60909091 3.31001797,3.05454545 L1.88088542,2.54545455 C1.74477756,2.54545455 1.67672363,2.48181818 1.54061577,2.48181818 C1.20034611,2.48181818 0.860076458,2.67272727 0.655914665,2.99090909 L0.111483218,3.81818182 C-0.0926785752,4.2 -0.0246246443,4.70909091 0.383698941,5.02727273 L1.54061577,5.91818182 C1.47256184,6.23636364 1.47256184,6.61818182 1.47256184,6.93636364 C1.47256184,7.31818182 1.47256184,7.63636364 1.54061577,7.95454545 L0.383698941,8.84545455 C0.0434292867,9.16363636 -0.0926785752,9.67272727 0.111483218,10.0545455 L0.655914665,10.8818182 C0.860076458,11.2 1.20034611,11.3909091 1.54061577,11.3909091 C1.67672363,11.3909091 1.81283149,11.3272727 1.88088542,11.3272727 L3.31001797,10.8181818 C3.92250335,11.2636364 4.53498873,11.5818182 5.21552804,11.8363636 L5.41968983,13.2363636 C5.55579769,13.6818182 5.96412128,14 6.50855273,14 L7.46130776,14 C8.00573921,14 8.41406279,13.6818182 8.55017066,13.1727273 L8.75433245,11.7727273 C9.50292569,11.5818182 10.183465,11.2 10.7278964,10.6909091 L12.0889751,11.2 C12.2250829,11.2 12.2931369,11.2636364 12.4292447,11.2636364 C12.8375683,11.2636364 13.177838,11.0727273 13.3819998,10.8181818 L13.8583773,10.0545455 C14.130593,9.67272727 13.9944851,9.16363636 13.5861615,8.90909091 L13.5861615,8.90909091 Z M6.98493024,10.2454545 C5.07942018,10.2454545 3.5822337,8.84545455 3.5822337,7 C3.5822337,5.15454545 5.07942018,3.81818182 6.98493024,3.81818182 C8.89044031,3.81818182 10.4556807,5.21818182 10.4556807,7 C10.4556807,8.78181818 8.95849424,10.2454545 6.98493024,10.2454545 L6.98493024,10.2454545 Z" id="Shape"></path>
            </g>
            <g id="Group-Copy-4" transform="translate(1231.000000, 1249.000000)" fill="#54698D">
                <path d="M6.98493024,4.96363636 C5.75995949,4.96363636 4.80720445,5.85454545 4.80720445,7 C4.80720445,8.14545455 5.75995949,9.1 6.98493024,9.1 C8.209901,9.1 9.23070997,8.14545455 9.23070997,7 C9.23070997,5.85454545 8.209901,4.96363636 6.98493024,4.96363636 Z M13.5861615,8.90909091 L12.4292447,7.95454545 C12.4972987,7.63636364 12.5653526,7.31818182 12.5653526,7 C12.5653526,6.68181818 12.4972987,6.3 12.4292447,5.98181818 L13.5861615,5.09090909 C13.9944851,4.77272727 14.130593,4.26363636 13.8583773,3.81818182 L13.3819998,2.99090909 C13.177838,2.73636364 12.8375683,2.54545455 12.4292447,2.54545455 C12.2931369,2.54545455 12.2250829,2.54545455 12.0889751,2.60909091 L10.6598425,3.11818182 C10.1154111,2.60909091 9.43487176,2.29090909 8.82238638,2.1 L8.55017066,0.7 C8.48211673,0.254545455 8.00573921,0 7.52936169,0 L6.50855273,0 C6.03217521,0 5.55579769,0.254545455 5.48774376,0.7 L5.21552804,2.03636364 C4.53498873,2.29090909 3.92250335,2.60909091 3.31001797,3.05454545 L1.88088542,2.54545455 C1.74477756,2.54545455 1.67672363,2.48181818 1.54061577,2.48181818 C1.20034611,2.48181818 0.860076458,2.67272727 0.655914665,2.99090909 L0.111483218,3.81818182 C-0.0926785752,4.2 -0.0246246443,4.70909091 0.383698941,5.02727273 L1.54061577,5.91818182 C1.47256184,6.23636364 1.47256184,6.61818182 1.47256184,6.93636364 C1.47256184,7.31818182 1.47256184,7.63636364 1.54061577,7.95454545 L0.383698941,8.84545455 C0.0434292867,9.16363636 -0.0926785752,9.67272727 0.111483218,10.0545455 L0.655914665,10.8818182 C0.860076458,11.2 1.20034611,11.3909091 1.54061577,11.3909091 C1.67672363,11.3909091 1.81283149,11.3272727 1.88088542,11.3272727 L3.31001797,10.8181818 C3.92250335,11.2636364 4.53498873,11.5818182 5.21552804,11.8363636 L5.41968983,13.2363636 C5.55579769,13.6818182 5.96412128,14 6.50855273,14 L7.46130776,14 C8.00573921,14 8.41406279,13.6818182 8.55017066,13.1727273 L8.75433245,11.7727273 C9.50292569,11.5818182 10.183465,11.2 10.7278964,10.6909091 L12.0889751,11.2 C12.2250829,11.2 12.2931369,11.2636364 12.4292447,11.2636364 C12.8375683,11.2636364 13.177838,11.0727273 13.3819998,10.8181818 L13.8583773,10.0545455 C14.130593,9.67272727 13.9944851,9.16363636 13.5861615,8.90909091 L13.5861615,8.90909091 Z M6.98493024,10.2454545 C5.07942018,10.2454545 3.5822337,8.84545455 3.5822337,7 C3.5822337,5.15454545 5.07942018,3.81818182 6.98493024,3.81818182 C8.89044031,3.81818182 10.4556807,5.21818182 10.4556807,7 C10.4556807,8.78181818 8.95849424,10.2454545 6.98493024,10.2454545 L6.98493024,10.2454545 Z" id="Shape"></path>
            </g>
            <g id="Group-Copy-8" transform="translate(1231.000000, 1520.000000)" fill="#54698D">
                <path d="M6.98493024,4.96363636 C5.75995949,4.96363636 4.80720445,5.85454545 4.80720445,7 C4.80720445,8.14545455 5.75995949,9.1 6.98493024,9.1 C8.209901,9.1 9.23070997,8.14545455 9.23070997,7 C9.23070997,5.85454545 8.209901,4.96363636 6.98493024,4.96363636 Z M13.5861615,8.90909091 L12.4292447,7.95454545 C12.4972987,7.63636364 12.5653526,7.31818182 12.5653526,7 C12.5653526,6.68181818 12.4972987,6.3 12.4292447,5.98181818 L13.5861615,5.09090909 C13.9944851,4.77272727 14.130593,4.26363636 13.8583773,3.81818182 L13.3819998,2.99090909 C13.177838,2.73636364 12.8375683,2.54545455 12.4292447,2.54545455 C12.2931369,2.54545455 12.2250829,2.54545455 12.0889751,2.60909091 L10.6598425,3.11818182 C10.1154111,2.60909091 9.43487176,2.29090909 8.82238638,2.1 L8.55017066,0.7 C8.48211673,0.254545455 8.00573921,0 7.52936169,0 L6.50855273,0 C6.03217521,0 5.55579769,0.254545455 5.48774376,0.7 L5.21552804,2.03636364 C4.53498873,2.29090909 3.92250335,2.60909091 3.31001797,3.05454545 L1.88088542,2.54545455 C1.74477756,2.54545455 1.67672363,2.48181818 1.54061577,2.48181818 C1.20034611,2.48181818 0.860076458,2.67272727 0.655914665,2.99090909 L0.111483218,3.81818182 C-0.0926785752,4.2 -0.0246246443,4.70909091 0.383698941,5.02727273 L1.54061577,5.91818182 C1.47256184,6.23636364 1.47256184,6.61818182 1.47256184,6.93636364 C1.47256184,7.31818182 1.47256184,7.63636364 1.54061577,7.95454545 L0.383698941,8.84545455 C0.0434292867,9.16363636 -0.0926785752,9.67272727 0.111483218,10.0545455 L0.655914665,10.8818182 C0.860076458,11.2 1.20034611,11.3909091 1.54061577,11.3909091 C1.67672363,11.3909091 1.81283149,11.3272727 1.88088542,11.3272727 L3.31001797,10.8181818 C3.92250335,11.2636364 4.53498873,11.5818182 5.21552804,11.8363636 L5.41968983,13.2363636 C5.55579769,13.6818182 5.96412128,14 6.50855273,14 L7.46130776,14 C8.00573921,14 8.41406279,13.6818182 8.55017066,13.1727273 L8.75433245,11.7727273 C9.50292569,11.5818182 10.183465,11.2 10.7278964,10.6909091 L12.0889751,11.2 C12.2250829,11.2 12.2931369,11.2636364 12.4292447,11.2636364 C12.8375683,11.2636364 13.177838,11.0727273 13.3819998,10.8181818 L13.8583773,10.0545455 C14.130593,9.67272727 13.9944851,9.16363636 13.5861615,8.90909091 L13.5861615,8.90909091 Z M6.98493024,10.2454545 C5.07942018,10.2454545 3.5822337,8.84545455 3.5822337,7 C3.5822337,5.15454545 5.07942018,3.81818182 6.98493024,3.81818182 C8.89044031,3.81818182 10.4556807,5.21818182 10.4556807,7 C10.4556807,8.78181818 8.95849424,10.2454545 6.98493024,10.2454545 L6.98493024,10.2454545 Z" id="Shape"></path>
            </g>
            <g id="Group-Copy-2" transform="translate(1231.000000, 1153.000000)" fill="#54698D">
                <path d="M6.98493024,4.96363636 C5.75995949,4.96363636 4.80720445,5.85454545 4.80720445,7 C4.80720445,8.14545455 5.75995949,9.1 6.98493024,9.1 C8.209901,9.1 9.23070997,8.14545455 9.23070997,7 C9.23070997,5.85454545 8.209901,4.96363636 6.98493024,4.96363636 Z M13.5861615,8.90909091 L12.4292447,7.95454545 C12.4972987,7.63636364 12.5653526,7.31818182 12.5653526,7 C12.5653526,6.68181818 12.4972987,6.3 12.4292447,5.98181818 L13.5861615,5.09090909 C13.9944851,4.77272727 14.130593,4.26363636 13.8583773,3.81818182 L13.3819998,2.99090909 C13.177838,2.73636364 12.8375683,2.54545455 12.4292447,2.54545455 C12.2931369,2.54545455 12.2250829,2.54545455 12.0889751,2.60909091 L10.6598425,3.11818182 C10.1154111,2.60909091 9.43487176,2.29090909 8.82238638,2.1 L8.55017066,0.7 C8.48211673,0.254545455 8.00573921,0 7.52936169,0 L6.50855273,0 C6.03217521,0 5.55579769,0.254545455 5.48774376,0.7 L5.21552804,2.03636364 C4.53498873,2.29090909 3.92250335,2.60909091 3.31001797,3.05454545 L1.88088542,2.54545455 C1.74477756,2.54545455 1.67672363,2.48181818 1.54061577,2.48181818 C1.20034611,2.48181818 0.860076458,2.67272727 0.655914665,2.99090909 L0.111483218,3.81818182 C-0.0926785752,4.2 -0.0246246443,4.70909091 0.383698941,5.02727273 L1.54061577,5.91818182 C1.47256184,6.23636364 1.47256184,6.61818182 1.47256184,6.93636364 C1.47256184,7.31818182 1.47256184,7.63636364 1.54061577,7.95454545 L0.383698941,8.84545455 C0.0434292867,9.16363636 -0.0926785752,9.67272727 0.111483218,10.0545455 L0.655914665,10.8818182 C0.860076458,11.2 1.20034611,11.3909091 1.54061577,11.3909091 C1.67672363,11.3909091 1.81283149,11.3272727 1.88088542,11.3272727 L3.31001797,10.8181818 C3.92250335,11.2636364 4.53498873,11.5818182 5.21552804,11.8363636 L5.41968983,13.2363636 C5.55579769,13.6818182 5.96412128,14 6.50855273,14 L7.46130776,14 C8.00573921,14 8.41406279,13.6818182 8.55017066,13.1727273 L8.75433245,11.7727273 C9.50292569,11.5818182 10.183465,11.2 10.7278964,10.6909091 L12.0889751,11.2 C12.2250829,11.2 12.2931369,11.2636364 12.4292447,11.2636364 C12.8375683,11.2636364 13.177838,11.0727273 13.3819998,10.8181818 L13.8583773,10.0545455 C14.130593,9.67272727 13.9944851,9.16363636 13.5861615,8.90909091 L13.5861615,8.90909091 Z M6.98493024,10.2454545 C5.07942018,10.2454545 3.5822337,8.84545455 3.5822337,7 C3.5822337,5.15454545 5.07942018,3.81818182 6.98493024,3.81818182 C8.89044031,3.81818182 10.4556807,5.21818182 10.4556807,7 C10.4556807,8.78181818 8.95849424,10.2454545 6.98493024,10.2454545 L6.98493024,10.2454545 Z" id="Shape"></path>
            </g>
            <g id="Group-Copy-9" transform="translate(1231.000000, 1429.000000)" fill="#54698D">
                <path d="M6.98493024,4.96363636 C5.75995949,4.96363636 4.80720445,5.85454545 4.80720445,7 C4.80720445,8.14545455 5.75995949,9.1 6.98493024,9.1 C8.209901,9.1 9.23070997,8.14545455 9.23070997,7 C9.23070997,5.85454545 8.209901,4.96363636 6.98493024,4.96363636 Z M13.5861615,8.90909091 L12.4292447,7.95454545 C12.4972987,7.63636364 12.5653526,7.31818182 12.5653526,7 C12.5653526,6.68181818 12.4972987,6.3 12.4292447,5.98181818 L13.5861615,5.09090909 C13.9944851,4.77272727 14.130593,4.26363636 13.8583773,3.81818182 L13.3819998,2.99090909 C13.177838,2.73636364 12.8375683,2.54545455 12.4292447,2.54545455 C12.2931369,2.54545455 12.2250829,2.54545455 12.0889751,2.60909091 L10.6598425,3.11818182 C10.1154111,2.60909091 9.43487176,2.29090909 8.82238638,2.1 L8.55017066,0.7 C8.48211673,0.254545455 8.00573921,0 7.52936169,0 L6.50855273,0 C6.03217521,0 5.55579769,0.254545455 5.48774376,0.7 L5.21552804,2.03636364 C4.53498873,2.29090909 3.92250335,2.60909091 3.31001797,3.05454545 L1.88088542,2.54545455 C1.74477756,2.54545455 1.67672363,2.48181818 1.54061577,2.48181818 C1.20034611,2.48181818 0.860076458,2.67272727 0.655914665,2.99090909 L0.111483218,3.81818182 C-0.0926785752,4.2 -0.0246246443,4.70909091 0.383698941,5.02727273 L1.54061577,5.91818182 C1.47256184,6.23636364 1.47256184,6.61818182 1.47256184,6.93636364 C1.47256184,7.31818182 1.47256184,7.63636364 1.54061577,7.95454545 L0.383698941,8.84545455 C0.0434292867,9.16363636 -0.0926785752,9.67272727 0.111483218,10.0545455 L0.655914665,10.8818182 C0.860076458,11.2 1.20034611,11.3909091 1.54061577,11.3909091 C1.67672363,11.3909091 1.81283149,11.3272727 1.88088542,11.3272727 L3.31001797,10.8181818 C3.92250335,11.2636364 4.53498873,11.5818182 5.21552804,11.8363636 L5.41968983,13.2363636 C5.55579769,13.6818182 5.96412128,14 6.50855273,14 L7.46130776,14 C8.00573921,14 8.41406279,13.6818182 8.55017066,13.1727273 L8.75433245,11.7727273 C9.50292569,11.5818182 10.183465,11.2 10.7278964,10.6909091 L12.0889751,11.2 C12.2250829,11.2 12.2931369,11.2636364 12.4292447,11.2636364 C12.8375683,11.2636364 13.177838,11.0727273 13.3819998,10.8181818 L13.8583773,10.0545455 C14.130593,9.67272727 13.9944851,9.16363636 13.5861615,8.90909091 L13.5861615,8.90909091 Z M6.98493024,10.2454545 C5.07942018,10.2454545 3.5822337,8.84545455 3.5822337,7 C3.5822337,5.15454545 5.07942018,3.81818182 6.98493024,3.81818182 C8.89044031,3.81818182 10.4556807,5.21818182 10.4556807,7 C10.4556807,8.78181818 8.95849424,10.2454545 6.98493024,10.2454545 L6.98493024,10.2454545 Z" id="Shape"></path>
            </g>
            <g id="Group-Copy-5" transform="translate(1231.000000, 1339.000000)" fill="#54698D">
                <path d="M6.98493024,4.96363636 C5.75995949,4.96363636 4.80720445,5.85454545 4.80720445,7 C4.80720445,8.14545455 5.75995949,9.1 6.98493024,9.1 C8.209901,9.1 9.23070997,8.14545455 9.23070997,7 C9.23070997,5.85454545 8.209901,4.96363636 6.98493024,4.96363636 Z M13.5861615,8.90909091 L12.4292447,7.95454545 C12.4972987,7.63636364 12.5653526,7.31818182 12.5653526,7 C12.5653526,6.68181818 12.4972987,6.3 12.4292447,5.98181818 L13.5861615,5.09090909 C13.9944851,4.77272727 14.130593,4.26363636 13.8583773,3.81818182 L13.3819998,2.99090909 C13.177838,2.73636364 12.8375683,2.54545455 12.4292447,2.54545455 C12.2931369,2.54545455 12.2250829,2.54545455 12.0889751,2.60909091 L10.6598425,3.11818182 C10.1154111,2.60909091 9.43487176,2.29090909 8.82238638,2.1 L8.55017066,0.7 C8.48211673,0.254545455 8.00573921,0 7.52936169,0 L6.50855273,0 C6.03217521,0 5.55579769,0.254545455 5.48774376,0.7 L5.21552804,2.03636364 C4.53498873,2.29090909 3.92250335,2.60909091 3.31001797,3.05454545 L1.88088542,2.54545455 C1.74477756,2.54545455 1.67672363,2.48181818 1.54061577,2.48181818 C1.20034611,2.48181818 0.860076458,2.67272727 0.655914665,2.99090909 L0.111483218,3.81818182 C-0.0926785752,4.2 -0.0246246443,4.70909091 0.383698941,5.02727273 L1.54061577,5.91818182 C1.47256184,6.23636364 1.47256184,6.61818182 1.47256184,6.93636364 C1.47256184,7.31818182 1.47256184,7.63636364 1.54061577,7.95454545 L0.383698941,8.84545455 C0.0434292867,9.16363636 -0.0926785752,9.67272727 0.111483218,10.0545455 L0.655914665,10.8818182 C0.860076458,11.2 1.20034611,11.3909091 1.54061577,11.3909091 C1.67672363,11.3909091 1.81283149,11.3272727 1.88088542,11.3272727 L3.31001797,10.8181818 C3.92250335,11.2636364 4.53498873,11.5818182 5.21552804,11.8363636 L5.41968983,13.2363636 C5.55579769,13.6818182 5.96412128,14 6.50855273,14 L7.46130776,14 C8.00573921,14 8.41406279,13.6818182 8.55017066,13.1727273 L8.75433245,11.7727273 C9.50292569,11.5818182 10.183465,11.2 10.7278964,10.6909091 L12.0889751,11.2 C12.2250829,11.2 12.2931369,11.2636364 12.4292447,11.2636364 C12.8375683,11.2636364 13.177838,11.0727273 13.3819998,10.8181818 L13.8583773,10.0545455 C14.130593,9.67272727 13.9944851,9.16363636 13.5861615,8.90909091 L13.5861615,8.90909091 Z M6.98493024,10.2454545 C5.07942018,10.2454545 3.5822337,8.84545455 3.5822337,7 C3.5822337,5.15454545 5.07942018,3.81818182 6.98493024,3.81818182 C8.89044031,3.81818182 10.4556807,5.21818182 10.4556807,7 C10.4556807,8.78181818 8.95849424,10.2454545 6.98493024,10.2454545 L6.98493024,10.2454545 Z" id="Shape"></path>
            </g>
            <g id="Group-Copy" transform="translate(1231.000000, 1001.000000)" fill="#54698D">
                <path d="M6.98493024,4.96363636 C5.75995949,4.96363636 4.80720445,5.85454545 4.80720445,7 C4.80720445,8.14545455 5.75995949,9.1 6.98493024,9.1 C8.209901,9.1 9.23070997,8.14545455 9.23070997,7 C9.23070997,5.85454545 8.209901,4.96363636 6.98493024,4.96363636 Z M13.5861615,8.90909091 L12.4292447,7.95454545 C12.4972987,7.63636364 12.5653526,7.31818182 12.5653526,7 C12.5653526,6.68181818 12.4972987,6.3 12.4292447,5.98181818 L13.5861615,5.09090909 C13.9944851,4.77272727 14.130593,4.26363636 13.8583773,3.81818182 L13.3819998,2.99090909 C13.177838,2.73636364 12.8375683,2.54545455 12.4292447,2.54545455 C12.2931369,2.54545455 12.2250829,2.54545455 12.0889751,2.60909091 L10.6598425,3.11818182 C10.1154111,2.60909091 9.43487176,2.29090909 8.82238638,2.1 L8.55017066,0.7 C8.48211673,0.254545455 8.00573921,0 7.52936169,0 L6.50855273,0 C6.03217521,0 5.55579769,0.254545455 5.48774376,0.7 L5.21552804,2.03636364 C4.53498873,2.29090909 3.92250335,2.60909091 3.31001797,3.05454545 L1.88088542,2.54545455 C1.74477756,2.54545455 1.67672363,2.48181818 1.54061577,2.48181818 C1.20034611,2.48181818 0.860076458,2.67272727 0.655914665,2.99090909 L0.111483218,3.81818182 C-0.0926785752,4.2 -0.0246246443,4.70909091 0.383698941,5.02727273 L1.54061577,5.91818182 C1.47256184,6.23636364 1.47256184,6.61818182 1.47256184,6.93636364 C1.47256184,7.31818182 1.47256184,7.63636364 1.54061577,7.95454545 L0.383698941,8.84545455 C0.0434292867,9.16363636 -0.0926785752,9.67272727 0.111483218,10.0545455 L0.655914665,10.8818182 C0.860076458,11.2 1.20034611,11.3909091 1.54061577,11.3909091 C1.67672363,11.3909091 1.81283149,11.3272727 1.88088542,11.3272727 L3.31001797,10.8181818 C3.92250335,11.2636364 4.53498873,11.5818182 5.21552804,11.8363636 L5.41968983,13.2363636 C5.55579769,13.6818182 5.96412128,14 6.50855273,14 L7.46130776,14 C8.00573921,14 8.41406279,13.6818182 8.55017066,13.1727273 L8.75433245,11.7727273 C9.50292569,11.5818182 10.183465,11.2 10.7278964,10.6909091 L12.0889751,11.2 C12.2250829,11.2 12.2931369,11.2636364 12.4292447,11.2636364 C12.8375683,11.2636364 13.177838,11.0727273 13.3819998,10.8181818 L13.8583773,10.0545455 C14.130593,9.67272727 13.9944851,9.16363636 13.5861615,8.90909091 L13.5861615,8.90909091 Z M6.98493024,10.2454545 C5.07942018,10.2454545 3.5822337,8.84545455 3.5822337,7 C3.5822337,5.15454545 5.07942018,3.81818182 6.98493024,3.81818182 C8.89044031,3.81818182 10.4556807,5.21818182 10.4556807,7 C10.4556807,8.78181818 8.95849424,10.2454545 6.98493024,10.2454545 L6.98493024,10.2454545 Z" id="Shape"></path>
            </g>
            <g id="Group-Copy-6" transform="translate(1231.000000, 1203.000000)" fill="#54698D">
                <path d="M6.98493024,4.96363636 C5.75995949,4.96363636 4.80720445,5.85454545 4.80720445,7 C4.80720445,8.14545455 5.75995949,9.1 6.98493024,9.1 C8.209901,9.1 9.23070997,8.14545455 9.23070997,7 C9.23070997,5.85454545 8.209901,4.96363636 6.98493024,4.96363636 Z M13.5861615,8.90909091 L12.4292447,7.95454545 C12.4972987,7.63636364 12.5653526,7.31818182 12.5653526,7 C12.5653526,6.68181818 12.4972987,6.3 12.4292447,5.98181818 L13.5861615,5.09090909 C13.9944851,4.77272727 14.130593,4.26363636 13.8583773,3.81818182 L13.3819998,2.99090909 C13.177838,2.73636364 12.8375683,2.54545455 12.4292447,2.54545455 C12.2931369,2.54545455 12.2250829,2.54545455 12.0889751,2.60909091 L10.6598425,3.11818182 C10.1154111,2.60909091 9.43487176,2.29090909 8.82238638,2.1 L8.55017066,0.7 C8.48211673,0.254545455 8.00573921,0 7.52936169,0 L6.50855273,0 C6.03217521,0 5.55579769,0.254545455 5.48774376,0.7 L5.21552804,2.03636364 C4.53498873,2.29090909 3.92250335,2.60909091 3.31001797,3.05454545 L1.88088542,2.54545455 C1.74477756,2.54545455 1.67672363,2.48181818 1.54061577,2.48181818 C1.20034611,2.48181818 0.860076458,2.67272727 0.655914665,2.99090909 L0.111483218,3.81818182 C-0.0926785752,4.2 -0.0246246443,4.70909091 0.383698941,5.02727273 L1.54061577,5.91818182 C1.47256184,6.23636364 1.47256184,6.61818182 1.47256184,6.93636364 C1.47256184,7.31818182 1.47256184,7.63636364 1.54061577,7.95454545 L0.383698941,8.84545455 C0.0434292867,9.16363636 -0.0926785752,9.67272727 0.111483218,10.0545455 L0.655914665,10.8818182 C0.860076458,11.2 1.20034611,11.3909091 1.54061577,11.3909091 C1.67672363,11.3909091 1.81283149,11.3272727 1.88088542,11.3272727 L3.31001797,10.8181818 C3.92250335,11.2636364 4.53498873,11.5818182 5.21552804,11.8363636 L5.41968983,13.2363636 C5.55579769,13.6818182 5.96412128,14 6.50855273,14 L7.46130776,14 C8.00573921,14 8.41406279,13.6818182 8.55017066,13.1727273 L8.75433245,11.7727273 C9.50292569,11.5818182 10.183465,11.2 10.7278964,10.6909091 L12.0889751,11.2 C12.2250829,11.2 12.2931369,11.2636364 12.4292447,11.2636364 C12.8375683,11.2636364 13.177838,11.0727273 13.3819998,10.8181818 L13.8583773,10.0545455 C14.130593,9.67272727 13.9944851,9.16363636 13.5861615,8.90909091 L13.5861615,8.90909091 Z M6.98493024,10.2454545 C5.07942018,10.2454545 3.5822337,8.84545455 3.5822337,7 C3.5822337,5.15454545 5.07942018,3.81818182 6.98493024,3.81818182 C8.89044031,3.81818182 10.4556807,5.21818182 10.4556807,7 C10.4556807,8.78181818 8.95849424,10.2454545 6.98493024,10.2454545 L6.98493024,10.2454545 Z" id="Shape"></path>
            </g>
            <g id="Group-Copy-11" transform="translate(1231.000000, 1475.000000)" fill="#54698D">
                <path d="M6.98493024,4.96363636 C5.75995949,4.96363636 4.80720445,5.85454545 4.80720445,7 C4.80720445,8.14545455 5.75995949,9.1 6.98493024,9.1 C8.209901,9.1 9.23070997,8.14545455 9.23070997,7 C9.23070997,5.85454545 8.209901,4.96363636 6.98493024,4.96363636 Z M13.5861615,8.90909091 L12.4292447,7.95454545 C12.4972987,7.63636364 12.5653526,7.31818182 12.5653526,7 C12.5653526,6.68181818 12.4972987,6.3 12.4292447,5.98181818 L13.5861615,5.09090909 C13.9944851,4.77272727 14.130593,4.26363636 13.8583773,3.81818182 L13.3819998,2.99090909 C13.177838,2.73636364 12.8375683,2.54545455 12.4292447,2.54545455 C12.2931369,2.54545455 12.2250829,2.54545455 12.0889751,2.60909091 L10.6598425,3.11818182 C10.1154111,2.60909091 9.43487176,2.29090909 8.82238638,2.1 L8.55017066,0.7 C8.48211673,0.254545455 8.00573921,0 7.52936169,0 L6.50855273,0 C6.03217521,0 5.55579769,0.254545455 5.48774376,0.7 L5.21552804,2.03636364 C4.53498873,2.29090909 3.92250335,2.60909091 3.31001797,3.05454545 L1.88088542,2.54545455 C1.74477756,2.54545455 1.67672363,2.48181818 1.54061577,2.48181818 C1.20034611,2.48181818 0.860076458,2.67272727 0.655914665,2.99090909 L0.111483218,3.81818182 C-0.0926785752,4.2 -0.0246246443,4.70909091 0.383698941,5.02727273 L1.54061577,5.91818182 C1.47256184,6.23636364 1.47256184,6.61818182 1.47256184,6.93636364 C1.47256184,7.31818182 1.47256184,7.63636364 1.54061577,7.95454545 L0.383698941,8.84545455 C0.0434292867,9.16363636 -0.0926785752,9.67272727 0.111483218,10.0545455 L0.655914665,10.8818182 C0.860076458,11.2 1.20034611,11.3909091 1.54061577,11.3909091 C1.67672363,11.3909091 1.81283149,11.3272727 1.88088542,11.3272727 L3.31001797,10.8181818 C3.92250335,11.2636364 4.53498873,11.5818182 5.21552804,11.8363636 L5.41968983,13.2363636 C5.55579769,13.6818182 5.96412128,14 6.50855273,14 L7.46130776,14 C8.00573921,14 8.41406279,13.6818182 8.55017066,13.1727273 L8.75433245,11.7727273 C9.50292569,11.5818182 10.183465,11.2 10.7278964,10.6909091 L12.0889751,11.2 C12.2250829,11.2 12.2931369,11.2636364 12.4292447,11.2636364 C12.8375683,11.2636364 13.177838,11.0727273 13.3819998,10.8181818 L13.8583773,10.0545455 C14.130593,9.67272727 13.9944851,9.16363636 13.5861615,8.90909091 L13.5861615,8.90909091 Z M6.98493024,10.2454545 C5.07942018,10.2454545 3.5822337,8.84545455 3.5822337,7 C3.5822337,5.15454545 5.07942018,3.81818182 6.98493024,3.81818182 C8.89044031,3.81818182 10.4556807,5.21818182 10.4556807,7 C10.4556807,8.78181818 8.95849424,10.2454545 6.98493024,10.2454545 L6.98493024,10.2454545 Z" id="Shape"></path>
            </g>
            <g id="Group-Copy-3" transform="translate(1231.000000, 1102.000000)" fill="#54698D">
                <path d="M6.98493024,4.96363636 C5.75995949,4.96363636 4.80720445,5.85454545 4.80720445,7 C4.80720445,8.14545455 5.75995949,9.1 6.98493024,9.1 C8.209901,9.1 9.23070997,8.14545455 9.23070997,7 C9.23070997,5.85454545 8.209901,4.96363636 6.98493024,4.96363636 Z M13.5861615,8.90909091 L12.4292447,7.95454545 C12.4972987,7.63636364 12.5653526,7.31818182 12.5653526,7 C12.5653526,6.68181818 12.4972987,6.3 12.4292447,5.98181818 L13.5861615,5.09090909 C13.9944851,4.77272727 14.130593,4.26363636 13.8583773,3.81818182 L13.3819998,2.99090909 C13.177838,2.73636364 12.8375683,2.54545455 12.4292447,2.54545455 C12.2931369,2.54545455 12.2250829,2.54545455 12.0889751,2.60909091 L10.6598425,3.11818182 C10.1154111,2.60909091 9.43487176,2.29090909 8.82238638,2.1 L8.55017066,0.7 C8.48211673,0.254545455 8.00573921,0 7.52936169,0 L6.50855273,0 C6.03217521,0 5.55579769,0.254545455 5.48774376,0.7 L5.21552804,2.03636364 C4.53498873,2.29090909 3.92250335,2.60909091 3.31001797,3.05454545 L1.88088542,2.54545455 C1.74477756,2.54545455 1.67672363,2.48181818 1.54061577,2.48181818 C1.20034611,2.48181818 0.860076458,2.67272727 0.655914665,2.99090909 L0.111483218,3.81818182 C-0.0926785752,4.2 -0.0246246443,4.70909091 0.383698941,5.02727273 L1.54061577,5.91818182 C1.47256184,6.23636364 1.47256184,6.61818182 1.47256184,6.93636364 C1.47256184,7.31818182 1.47256184,7.63636364 1.54061577,7.95454545 L0.383698941,8.84545455 C0.0434292867,9.16363636 -0.0926785752,9.67272727 0.111483218,10.0545455 L0.655914665,10.8818182 C0.860076458,11.2 1.20034611,11.3909091 1.54061577,11.3909091 C1.67672363,11.3909091 1.81283149,11.3272727 1.88088542,11.3272727 L3.31001797,10.8181818 C3.92250335,11.2636364 4.53498873,11.5818182 5.21552804,11.8363636 L5.41968983,13.2363636 C5.55579769,13.6818182 5.96412128,14 6.50855273,14 L7.46130776,14 C8.00573921,14 8.41406279,13.6818182 8.55017066,13.1727273 L8.75433245,11.7727273 C9.50292569,11.5818182 10.183465,11.2 10.7278964,10.6909091 L12.0889751,11.2 C12.2250829,11.2 12.2931369,11.2636364 12.4292447,11.2636364 C12.8375683,11.2636364 13.177838,11.0727273 13.3819998,10.8181818 L13.8583773,10.0545455 C14.130593,9.67272727 13.9944851,9.16363636 13.5861615,8.90909091 L13.5861615,8.90909091 Z M6.98493024,10.2454545 C5.07942018,10.2454545 3.5822337,8.84545455 3.5822337,7 C3.5822337,5.15454545 5.07942018,3.81818182 6.98493024,3.81818182 C8.89044031,3.81818182 10.4556807,5.21818182 10.4556807,7 C10.4556807,8.78181818 8.95849424,10.2454545 6.98493024,10.2454545 L6.98493024,10.2454545 Z" id="Shape"></path>
            </g>
            <g id="Group-Copy-12" transform="translate(1231.000000, 1385.000000)" fill="#54698D">
                <path d="M6.98493024,4.96363636 C5.75995949,4.96363636 4.80720445,5.85454545 4.80720445,7 C4.80720445,8.14545455 5.75995949,9.1 6.98493024,9.1 C8.209901,9.1 9.23070997,8.14545455 9.23070997,7 C9.23070997,5.85454545 8.209901,4.96363636 6.98493024,4.96363636 Z M13.5861615,8.90909091 L12.4292447,7.95454545 C12.4972987,7.63636364 12.5653526,7.31818182 12.5653526,7 C12.5653526,6.68181818 12.4972987,6.3 12.4292447,5.98181818 L13.5861615,5.09090909 C13.9944851,4.77272727 14.130593,4.26363636 13.8583773,3.81818182 L13.3819998,2.99090909 C13.177838,2.73636364 12.8375683,2.54545455 12.4292447,2.54545455 C12.2931369,2.54545455 12.2250829,2.54545455 12.0889751,2.60909091 L10.6598425,3.11818182 C10.1154111,2.60909091 9.43487176,2.29090909 8.82238638,2.1 L8.55017066,0.7 C8.48211673,0.254545455 8.00573921,0 7.52936169,0 L6.50855273,0 C6.03217521,0 5.55579769,0.254545455 5.48774376,0.7 L5.21552804,2.03636364 C4.53498873,2.29090909 3.92250335,2.60909091 3.31001797,3.05454545 L1.88088542,2.54545455 C1.74477756,2.54545455 1.67672363,2.48181818 1.54061577,2.48181818 C1.20034611,2.48181818 0.860076458,2.67272727 0.655914665,2.99090909 L0.111483218,3.81818182 C-0.0926785752,4.2 -0.0246246443,4.70909091 0.383698941,5.02727273 L1.54061577,5.91818182 C1.47256184,6.23636364 1.47256184,6.61818182 1.47256184,6.93636364 C1.47256184,7.31818182 1.47256184,7.63636364 1.54061577,7.95454545 L0.383698941,8.84545455 C0.0434292867,9.16363636 -0.0926785752,9.67272727 0.111483218,10.0545455 L0.655914665,10.8818182 C0.860076458,11.2 1.20034611,11.3909091 1.54061577,11.3909091 C1.67672363,11.3909091 1.81283149,11.3272727 1.88088542,11.3272727 L3.31001797,10.8181818 C3.92250335,11.2636364 4.53498873,11.5818182 5.21552804,11.8363636 L5.41968983,13.2363636 C5.55579769,13.6818182 5.96412128,14 6.50855273,14 L7.46130776,14 C8.00573921,14 8.41406279,13.6818182 8.55017066,13.1727273 L8.75433245,11.7727273 C9.50292569,11.5818182 10.183465,11.2 10.7278964,10.6909091 L12.0889751,11.2 C12.2250829,11.2 12.2931369,11.2636364 12.4292447,11.2636364 C12.8375683,11.2636364 13.177838,11.0727273 13.3819998,10.8181818 L13.8583773,10.0545455 C14.130593,9.67272727 13.9944851,9.16363636 13.5861615,8.90909091 L13.5861615,8.90909091 Z M6.98493024,10.2454545 C5.07942018,10.2454545 3.5822337,8.84545455 3.5822337,7 C3.5822337,5.15454545 5.07942018,3.81818182 6.98493024,3.81818182 C8.89044031,3.81818182 10.4556807,5.21818182 10.4556807,7 C10.4556807,8.78181818 8.95849424,10.2454545 6.98493024,10.2454545 L6.98493024,10.2454545 Z" id="Shape"></path>
            </g>
            <g id="Group-Copy-7" transform="translate(1231.000000, 1293.000000)" fill="#54698D">
                <path d="M6.98493024,4.96363636 C5.75995949,4.96363636 4.80720445,5.85454545 4.80720445,7 C4.80720445,8.14545455 5.75995949,9.1 6.98493024,9.1 C8.209901,9.1 9.23070997,8.14545455 9.23070997,7 C9.23070997,5.85454545 8.209901,4.96363636 6.98493024,4.96363636 Z M13.5861615,8.90909091 L12.4292447,7.95454545 C12.4972987,7.63636364 12.5653526,7.31818182 12.5653526,7 C12.5653526,6.68181818 12.4972987,6.3 12.4292447,5.98181818 L13.5861615,5.09090909 C13.9944851,4.77272727 14.130593,4.26363636 13.8583773,3.81818182 L13.3819998,2.99090909 C13.177838,2.73636364 12.8375683,2.54545455 12.4292447,2.54545455 C12.2931369,2.54545455 12.2250829,2.54545455 12.0889751,2.60909091 L10.6598425,3.11818182 C10.1154111,2.60909091 9.43487176,2.29090909 8.82238638,2.1 L8.55017066,0.7 C8.48211673,0.254545455 8.00573921,0 7.52936169,0 L6.50855273,0 C6.03217521,0 5.55579769,0.254545455 5.48774376,0.7 L5.21552804,2.03636364 C4.53498873,2.29090909 3.92250335,2.60909091 3.31001797,3.05454545 L1.88088542,2.54545455 C1.74477756,2.54545455 1.67672363,2.48181818 1.54061577,2.48181818 C1.20034611,2.48181818 0.860076458,2.67272727 0.655914665,2.99090909 L0.111483218,3.81818182 C-0.0926785752,4.2 -0.0246246443,4.70909091 0.383698941,5.02727273 L1.54061577,5.91818182 C1.47256184,6.23636364 1.47256184,6.61818182 1.47256184,6.93636364 C1.47256184,7.31818182 1.47256184,7.63636364 1.54061577,7.95454545 L0.383698941,8.84545455 C0.0434292867,9.16363636 -0.0926785752,9.67272727 0.111483218,10.0545455 L0.655914665,10.8818182 C0.860076458,11.2 1.20034611,11.3909091 1.54061577,11.3909091 C1.67672363,11.3909091 1.81283149,11.3272727 1.88088542,11.3272727 L3.31001797,10.8181818 C3.92250335,11.2636364 4.53498873,11.5818182 5.21552804,11.8363636 L5.41968983,13.2363636 C5.55579769,13.6818182 5.96412128,14 6.50855273,14 L7.46130776,14 C8.00573921,14 8.41406279,13.6818182 8.55017066,13.1727273 L8.75433245,11.7727273 C9.50292569,11.5818182 10.183465,11.2 10.7278964,10.6909091 L12.0889751,11.2 C12.2250829,11.2 12.2931369,11.2636364 12.4292447,11.2636364 C12.8375683,11.2636364 13.177838,11.0727273 13.3819998,10.8181818 L13.8583773,10.0545455 C14.130593,9.67272727 13.9944851,9.16363636 13.5861615,8.90909091 L13.5861615,8.90909091 Z M6.98493024,10.2454545 C5.07942018,10.2454545 3.5822337,8.84545455 3.5822337,7 C3.5822337,5.15454545 5.07942018,3.81818182 6.98493024,3.81818182 C8.89044031,3.81818182 10.4556807,5.21818182 10.4556807,7 C10.4556807,8.78181818 8.95849424,10.2454545 6.98493024,10.2454545 L6.98493024,10.2454545 Z" id="Shape"></path>
            </g>
            <g id="Group-Copy-13" transform="translate(1231.000000, 1565.000000)" fill="#54698D">
                <path d="M6.98493024,4.96363636 C5.75995949,4.96363636 4.80720445,5.85454545 4.80720445,7 C4.80720445,8.14545455 5.75995949,9.1 6.98493024,9.1 C8.209901,9.1 9.23070997,8.14545455 9.23070997,7 C9.23070997,5.85454545 8.209901,4.96363636 6.98493024,4.96363636 Z M13.5861615,8.90909091 L12.4292447,7.95454545 C12.4972987,7.63636364 12.5653526,7.31818182 12.5653526,7 C12.5653526,6.68181818 12.4972987,6.3 12.4292447,5.98181818 L13.5861615,5.09090909 C13.9944851,4.77272727 14.130593,4.26363636 13.8583773,3.81818182 L13.3819998,2.99090909 C13.177838,2.73636364 12.8375683,2.54545455 12.4292447,2.54545455 C12.2931369,2.54545455 12.2250829,2.54545455 12.0889751,2.60909091 L10.6598425,3.11818182 C10.1154111,2.60909091 9.43487176,2.29090909 8.82238638,2.1 L8.55017066,0.7 C8.48211673,0.254545455 8.00573921,0 7.52936169,0 L6.50855273,0 C6.03217521,0 5.55579769,0.254545455 5.48774376,0.7 L5.21552804,2.03636364 C4.53498873,2.29090909 3.92250335,2.60909091 3.31001797,3.05454545 L1.88088542,2.54545455 C1.74477756,2.54545455 1.67672363,2.48181818 1.54061577,2.48181818 C1.20034611,2.48181818 0.860076458,2.67272727 0.655914665,2.99090909 L0.111483218,3.81818182 C-0.0926785752,4.2 -0.0246246443,4.70909091 0.383698941,5.02727273 L1.54061577,5.91818182 C1.47256184,6.23636364 1.47256184,6.61818182 1.47256184,6.93636364 C1.47256184,7.31818182 1.47256184,7.63636364 1.54061577,7.95454545 L0.383698941,8.84545455 C0.0434292867,9.16363636 -0.0926785752,9.67272727 0.111483218,10.0545455 L0.655914665,10.8818182 C0.860076458,11.2 1.20034611,11.3909091 1.54061577,11.3909091 C1.67672363,11.3909091 1.81283149,11.3272727 1.88088542,11.3272727 L3.31001797,10.8181818 C3.92250335,11.2636364 4.53498873,11.5818182 5.21552804,11.8363636 L5.41968983,13.2363636 C5.55579769,13.6818182 5.96412128,14 6.50855273,14 L7.46130776,14 C8.00573921,14 8.41406279,13.6818182 8.55017066,13.1727273 L8.75433245,11.7727273 C9.50292569,11.5818182 10.183465,11.2 10.7278964,10.6909091 L12.0889751,11.2 C12.2250829,11.2 12.2931369,11.2636364 12.4292447,11.2636364 C12.8375683,11.2636364 13.177838,11.0727273 13.3819998,10.8181818 L13.8583773,10.0545455 C14.130593,9.67272727 13.9944851,9.16363636 13.5861615,8.90909091 L13.5861615,8.90909091 Z M6.98493024,10.2454545 C5.07942018,10.2454545 3.5822337,8.84545455 3.5822337,7 C3.5822337,5.15454545 5.07942018,3.81818182 6.98493024,3.81818182 C8.89044031,3.81818182 10.4556807,5.21818182 10.4556807,7 C10.4556807,8.78181818 8.95849424,10.2454545 6.98493024,10.2454545 L6.98493024,10.2454545 Z" id="Shape"></path>
            </g>
            <path d="M1269,1368.5 L23,1368.5" id="Line-Copy" stroke="#D8DDE6" stroke-linecap="square"></path>
            <path d="M1269,1082.5 L23,1082.5" id="Line" stroke="#D8DDE6" stroke-linecap="square"></path>
            <path d="M1269,1413.5 L23,1413.5" id="Line-Copy-2" stroke="#D8DDE6" stroke-linecap="square"></path>
            <path d="M1269,1127.5 L23,1127.5" id="Line" stroke="#D8DDE6" stroke-linecap="square"></path>
            <path d="M1269,1458.5 L23,1458.5" id="Line-Copy-3" stroke="#D8DDE6" stroke-linecap="square"></path>
            <path d="M1269,1187.5 L23,1187.5" id="Line" stroke="#D8DDE6" stroke-linecap="square"></path>
            <path d="M1269,1504.5 L23,1504.5" id="Line-Copy-4" stroke="#D8DDE6" stroke-linecap="square"></path>
            <path d="M1269,1232.5 L23,1232.5" id="Line" stroke="#D8DDE6" stroke-linecap="square"></path>
            <path d="M1269,1549.5 L23,1549.5" id="Line-Copy-5" stroke="#D8DDE6" stroke-linecap="square"></path>
            <path d="M1269,1277.5 L23,1277.5" id="Line" stroke="#D8DDE6" stroke-linecap="square"></path>
            <path d="M1269,1322.5 L23,1322.5" id="Line" stroke="#D8DDE6" stroke-linecap="square"></path>
            <text id="Category---Mens-•-Ho" font-family="SalesforceSans-Regular, Salesforce Sans" font-size="13" font-weight="normal" line-spacing="24" fill="#16325C">
                <tspan x="442" y="1000">Category - Mens • Housing/New Homeowners • Memberships: Netflix •  NTO Product </tspan>
                <tspan x="442" y="1024">Activity: Climbing •  New Parents</tspan>
            </text>
            <text id="Category---Mens-•-Ne-Copy" font-family="SalesforceSans-Regular, Salesforce Sans" font-size="13" font-weight="normal" line-spacing="24" fill="#16325C">
                <tspan x="442" y="1149">Category - Mens • New Parent • Category: Acessories •  NTO Product Activity: Climbing </tspan>
                <tspan x="442" y="1173">•  NTO Product Color: Brown</tspan>
            </text>
            <text id="Memberships:-Netflix" font-family="SalesforceSans-Regular, Salesforce Sans" font-size="13" font-weight="normal" fill="#16325C">
                <tspan x="444" y="1069">Memberships: Netflix • TV Shows: Family Guy</tspan>
            </text>
            <text id="Memberships:-Netflix-Copy" font-family="SalesforceSans-Regular, Salesforce Sans" font-size="13" font-weight="normal" fill="#16325C">
                <tspan x="444" y="1218">Memberships: Netflix • TV Shows: Family Guy</tspan>
            </text>
            <text id="Memberships:-Netflix-Copy-2" font-family="SalesforceSans-Regular, Salesforce Sans" font-size="13" font-weight="normal" fill="#16325C">
                <tspan x="444" y="1352">Memberships: Netflix • TV Shows: Family Guy</tspan>
            </text>
            <text id="Category:Mens-•-New" font-family="SalesforceSans-Regular, Salesforce Sans" font-size="13" font-weight="normal" fill="#16325C">
                <tspan x="445" y="1115">Category:Mens • New Homeowners: Last 12 months</tspan>
            </text>
            <text id="Category:Mens-•-New-Copy" font-family="SalesforceSans-Regular, Salesforce Sans" font-size="13" font-weight="normal" fill="#16325C">
                <tspan x="445" y="1264">Category:Mens • New Homeowners: Last 12 months</tspan>
            </text>
            <text id="Category:Mens-•-New-Copy-3" font-family="SalesforceSans-Regular, Salesforce Sans" font-size="13" font-weight="normal" fill="#16325C">
                <tspan x="445" y="1398">Category:Mens • New Homeowners: Last 12 months</tspan>
            </text>
            <text id="Category:Mens-•-New-Copy-2" font-family="SalesforceSans-Regular, Salesforce Sans" font-size="13" font-weight="normal" fill="#16325C">
                <tspan x="445" y="1308">Category:Mens • New Homeowners: Last 12 months</tspan>
            </text>
            <text id="Category:Mens-•-New-Copy-4" font-family="SalesforceSans-Regular, Salesforce Sans" font-size="13" font-weight="normal" fill="#16325C">
                <tspan x="445" y="1442">Category:Mens • New Homeowners: Last 12 months</tspan>
            </text>
            <text id="Category:Mens-•-New-Copy-6" font-family="SalesforceSans-Regular, Salesforce Sans" font-size="13" font-weight="normal" fill="#16325C">
                <tspan x="445" y="1534">Category:Mens • New Homeowners: Last 12 months</tspan>
            </text>
            <text id="Category:Mens-•-New-Copy-5" font-family="SalesforceSans-Regular, Salesforce Sans" font-size="13" font-weight="normal" fill="#16325C">
                <tspan x="445" y="1489">Category:Mens • New Homeowners: Last 12 months</tspan>
            </text>
            <text id="Category:Mens-•-New-Copy-7" font-family="SalesforceSans-Regular, Salesforce Sans" font-size="13" font-weight="normal" fill="#16325C">
                <tspan x="445" y="1580">Category:Mens • New Homeowners: Last 12 months</tspan>
            </text>
            <g id="badge" transform="translate(55.000000, 1001.000000)">
                <rect id="bkgd" fill="#E0E5EE" x="0" y="0" width="18" height="17" rx="8.5"></rect>
                <text id="1" font-family="SalesforceSans-Regular, Salesforce Sans" font-size="10" font-weight="normal" letter-spacing="0.600000024" fill="#16325C">
                    <tspan x="6" y="13">1</tspan>
                </text>
            </g>
            <g id="badge-copy-2" transform="translate(55.000000, 1098.000000)">
                <rect id="bkgd" fill="#E0E5EE" x="0" y="0" width="18" height="17" rx="8.5"></rect>
                <text id="3" font-family="SalesforceSans-Regular, Salesforce Sans" font-size="10" font-weight="normal" letter-spacing="0.600000024" fill="#16325C">
                    <tspan x="6" y="13">3</tspan>
                </text>
            </g>
            <g id="badge-copy-3" transform="translate(55.000000, 1150.000000)">
                <rect id="bkgd" fill="#E0E5EE" x="0" y="0" width="18" height="17" rx="8.5"></rect>
                <text id="4" font-family="SalesforceSans-Regular, Salesforce Sans" font-size="10" font-weight="normal" letter-spacing="0.600000024" fill="#16325C">
                    <tspan x="6" y="13">4</tspan>
                </text>
            </g>
            <g id="badge-copy-8" transform="translate(55.000000, 1432.000000)">
                <rect id="bkgd" fill="#E0E5EE" x="0" y="0" width="24" height="17" rx="8.5"></rect>
                <text id="10" font-family="SalesforceSans-Regular, Salesforce Sans" font-size="10" font-weight="normal" letter-spacing="0.600000024" fill="#16325C">
                    <tspan x="6" y="13">10</tspan>
                </text>
            </g>
            <g id="badge-copy-9" transform="translate(55.000000, 1475.000000)">
                <rect id="bkgd" fill="#E0E5EE" x="0" y="0" width="24" height="17" rx="8.5"></rect>
                <text id="11" font-family="SalesforceSans-Regular, Salesforce Sans" font-size="10" font-weight="normal" letter-spacing="0.600000024" fill="#16325C">
                    <tspan x="6" y="13">11</tspan>
                </text>
            </g>
            <g id="badge-copy-14" transform="translate(55.000000, 1519.000000)">
                <rect id="bkgd" fill="#E0E5EE" x="0" y="0" width="24" height="17" rx="8.5"></rect>
                <text id="12" font-family="SalesforceSans-Regular, Salesforce Sans" font-size="10" font-weight="normal" letter-spacing="0.600000024" fill="#16325C">
                    <tspan x="6" y="13">12</tspan>
                </text>
            </g>
            <g id="badge-copy-12" transform="translate(55.000000, 1562.000000)">
                <rect id="bkgd" fill="#E0E5EE" x="0" y="0" width="24" height="17" rx="8.5"></rect>
                <text id="13" font-family="SalesforceSans-Regular, Salesforce Sans" font-size="10" font-weight="normal" letter-spacing="0.600000024" fill="#16325C">
                    <tspan x="6" y="13">13</tspan>
                </text>
            </g>
            <g id="badge-copy" transform="translate(55.000000, 1052.000000)">
                <rect id="bkgd" fill="#E0E5EE" x="0" y="0" width="18" height="17" rx="8.5"></rect>
                <text id="2" font-family="SalesforceSans-Regular, Salesforce Sans" font-size="10" font-weight="normal" letter-spacing="0.600000024" fill="#16325C">
                    <tspan x="6" y="13">2</tspan>
                </text>
            </g>
            <g id="badge-copy-10" transform="translate(55.000000, 1386.000000)">
                <rect id="bkgd" fill="#E0E5EE" x="0" y="0" width="18" height="17" rx="8.5"></rect>
                <text id="9" font-family="SalesforceSans-Regular, Salesforce Sans" font-size="10" font-weight="normal" letter-spacing="0.600000024" fill="#16325C">
                    <tspan x="6" y="13">9</tspan>
                </text>
            </g>
            <rect id="Rectangle-10" fill="#F7F9FB" x="23" y="943" width="1242" height="32"></rect>
            <path d="M1264.52266,974.001513 L24,974.001513" id="Line" stroke="#E0E5EE" stroke-linecap="square"></path>
            <text id="RANK" font-family="SalesforceSans-Regular, Salesforce Sans" font-size="12" font-weight="normal" fill="#54698D">
                <tspan x="47" y="965">RANK</tspan>
            </text>
            <text id="ATTRIBUTES" font-family="SalesforceSans-Regular, Salesforce Sans" font-size="12" font-weight="normal" fill="#54698D">
                <tspan x="442" y="965">ATTRIBUTES</tspan>
            </text>
            <text id="278,122" font-family="SalesforceSans-Regular, Salesforce Sans" font-size="13" font-weight="normal" fill="#16325C">
                <tspan x="1098.871" y="1069">278,122</tspan>
            </text>
            <text id="75,000" font-family="SalesforceSans-Regular, Salesforce Sans" font-size="13" font-weight="normal" fill="#16325C">
                <tspan x="1106.801" y="1399">75,000</tspan>
            </text>
            <text id="345,427" font-family="SalesforceSans-Regular, Salesforce Sans" font-size="13" font-weight="normal" fill="#16325C">
                <tspan x="1098.871" y="1016">345,427</tspan>
            </text>
            <text id="76,011" font-family="SalesforceSans-Regular, Salesforce Sans" font-size="13" font-weight="normal" fill="#16325C">
                <tspan x="1106.801" y="1353">76,011</tspan>
            </text>
            <text id="186,201" font-family="SalesforceSans-Regular, Salesforce Sans" font-size="13" font-weight="normal" fill="#16325C">
                <tspan x="1098.871" y="1115">186,201</tspan>
            </text>
            <text id="74,870" font-family="SalesforceSans-Regular, Salesforce Sans" font-size="13" font-weight="normal" fill="#16325C">
                <tspan x="1106.801" y="1444">74,870</tspan>
            </text>
            <text id="176,009" font-family="SalesforceSans-Regular, Salesforce Sans" font-size="13" font-weight="normal" fill="#16325C">
                <tspan x="1098.871" y="1165">176,009</tspan>
            </text>
            <text id="74,832" font-family="SalesforceSans-Regular, Salesforce Sans" font-size="13" font-weight="normal" fill="#16325C">
                <tspan x="1106.801" y="1489">74,832</tspan>
            </text>
            <text id="89,913" font-family="SalesforceSans-Regular, Salesforce Sans" font-size="13" font-weight="normal" fill="#16325C">
                <tspan x="1106.801" y="1220">89,913</tspan>
            </text>
            <text id="74,811" font-family="SalesforceSans-Regular, Salesforce Sans" font-size="13" font-weight="normal" fill="#16325C">
                <tspan x="1106.801" y="1534">74,811</tspan>
            </text>
            <text id="78,099" font-family="SalesforceSans-Regular, Salesforce Sans" font-size="13" font-weight="normal" fill="#16325C">
                <tspan x="1106.801" y="1262">78,099</tspan>
            </text>
            <text id="67,056" font-family="SalesforceSans-Regular, Salesforce Sans" font-size="13" font-weight="normal" fill="#16325C">
                <tspan x="1106.801" y="1579">67,056</tspan>
            </text>
            <text id="76,191" font-family="SalesforceSans-Regular, Salesforce Sans" font-size="13" font-weight="normal" fill="#16325C">
                <tspan x="1106.801" y="1308">76,191</tspan>
            </text>
            <text id="DEVICES" font-family="SalesforceSans-Regular, Salesforce Sans" font-size="12" font-weight="normal" fill="#54698D">
                <tspan x="1102" y="965">DEVICES</tspan>
            </text>
            <polygon id="Rectangle" fill="#F7F9FB" points="21 888 1267 888 1267 942 22.0171429 942"></polygon>
            <rect id="Rectangle-16-Copy" stroke="#E0E5EE" x="20.5" y="848.5" width="1245" height="891" rx="4"></rect>
            <path d="M92.8541667,959.964583 C92.8541667,960.1 92.7458333,960.208333 92.5833333,960.208333 L90.4166667,960.208333 C90.28125,960.208333 90.1458333,960.127083 90.1458333,959.964583 L90.1458333,959.422917 C90.1458333,959.2875 90.2541667,959.125 90.4166667,959.125 C90.5520833,959.125 90.6875,959.04375 90.6875,958.88125 L90.6875,957.797917 C90.6875,957.6625 90.5791667,957.5 90.4166667,957.5 C90.28125,957.5 90.1458333,957.41875 90.1458333,957.25625 L90.1458333,956.714583 C90.1458333,956.579167 90.2541667,956.416667 90.4166667,956.416667 L92.0416667,956.416667 C92.1770833,956.416667 92.3125,956.552083 92.3125,956.714583 L92.3125,958.88125 C92.3125,959.016667 92.4208333,959.125 92.5833333,959.125 C92.71875,959.125 92.8541667,959.260417 92.8541667,959.422917 L92.8541667,959.964583 Z M91.5,954.277083 C91.9604167,954.277083 92.3125,954.629167 92.3125,955.089583 C92.3125,955.55 91.9604167,955.902083 91.5,955.902083 C91.0395833,955.902083 90.6875,955.55 90.6875,955.089583 C90.6875,954.629167 91.0395833,954.277083 91.5,954.277083 L91.5,954.277083 Z M91.5,951 C87.8979167,951 85,953.897917 85,957.5 C85,961.102083 87.8979167,964 91.5,964 C95.1020833,964 98,961.102083 98,957.5 C98,953.897917 95.1020833,951 91.5,951 L91.5,951 Z" id="Page-1-Copy" fill="#D8DDE6"></path>
            <text id="175-Personas" font-family="SalesforceSans-Regular, Salesforce Sans" font-size="14" font-weight="normal" fill="#16325C">
                <tspan x="41" y="920">175 Personas</tspan>
            </text>
            <text id="PERSONA" font-family="SalesforceSans-Regular, Salesforce Sans" font-size="12" font-weight="normal" fill="#54698D">
                <tspan x="117" y="965">PERSONA</tspan>
            </text>
            <text id="Persona-08" font-family="SalesforceSans-Regular, Salesforce Sans" font-size="13" font-weight="normal" fill="#16325C">
                <tspan x="116" y="1353">Persona 08</tspan>
            </text>
            <text id="Persona-07" font-family="SalesforceSans-Regular, Salesforce Sans" font-size="13" font-weight="normal" fill="#16325C">
                <tspan x="116" y="1308">Persona 07</tspan>
            </text>
            <text id="Persona-02" font-family="SalesforceSans-Regular, Salesforce Sans" font-size="13" font-weight="normal" fill="#16325C">
                <tspan x="116" y="1069">Persona 02</tspan>
            </text>
            <text id="Persona-09" font-family="SalesforceSans-Regular, Salesforce Sans" font-size="13" font-weight="normal" fill="#16325C">
                <tspan x="116" y="1399">Persona 09</tspan>
            </text>
            <text id="Persona-03" font-family="SalesforceSans-Regular, Salesforce Sans" font-size="13" font-weight="normal" fill="#16325C">
                <tspan x="116" y="1115">Persona 03</tspan>
            </text>
            <text id="Persona-10" font-family="SalesforceSans-Regular, Salesforce Sans" font-size="13" font-weight="normal" fill="#16325C">
                <tspan x="116" y="1444">Persona 10</tspan>
            </text>
            <text id="Persona-04" font-family="SalesforceSans-Regular, Salesforce Sans" font-size="13" font-weight="normal" fill="#16325C">
                <tspan x="116" y="1165">Persona 04</tspan>
            </text>
            <text id="Persona-11" font-family="SalesforceSans-Regular, Salesforce Sans" font-size="13" font-weight="normal" fill="#16325C">
                <tspan x="116" y="1489">Persona 11</tspan>
            </text>
            <text id="Persona-05" font-family="SalesforceSans-Regular, Salesforce Sans" font-size="13" font-weight="normal" fill="#16325C">
                <tspan x="116" y="1220">Persona 05</tspan>
            </text>
            <text id="Persona-12" font-family="SalesforceSans-Regular, Salesforce Sans" font-size="13" font-weight="normal" fill="#16325C">
                <tspan x="116" y="1534">Persona 12</tspan>
            </text>
            <text id="Persona-06" font-family="SalesforceSans-Regular, Salesforce Sans" font-size="13" font-weight="normal" fill="#16325C">
                <tspan x="116" y="1262">Persona 06</tspan>
            </text>
            <text id="Persona-01" font-family="SalesforceSans-Regular, Salesforce Sans" font-size="13" font-weight="normal" fill="#16325C">
                <tspan x="116" y="1016">Persona 01</tspan>
            </text>
            <g id="badge-copy-4" transform="translate(55.000000, 1204.000000)">
                <rect id="bkgd" fill="#E0E5EE" x="0" y="0" width="18" height="17" rx="8.5"></rect>
                <text id="5" font-family="SalesforceSans-Regular, Salesforce Sans" font-size="10" font-weight="normal" letter-spacing="0.600000024" fill="#16325C">
                    <tspan x="6" y="13">5</tspan>
                </text>
            </g>
            <g id="badge-copy-5" transform="translate(55.000000, 1293.000000)">
                <rect id="bkgd" fill="#E0E5EE" x="0" y="0" width="18" height="17" rx="8.5"></rect>
                <text id="7" font-family="SalesforceSans-Regular, Salesforce Sans" font-size="10" font-weight="normal" letter-spacing="0.600000024" fill="#16325C">
                    <tspan x="6" y="13">7</tspan>
                </text>
            </g>
            <g id="badge-copy-7" transform="translate(55.000000, 1338.000000)">
                <rect id="bkgd" fill="#E0E5EE" x="0" y="0" width="18" height="17" rx="8.5"></rect>
                <text id="8" font-family="SalesforceSans-Regular, Salesforce Sans" font-size="10" font-weight="normal" letter-spacing="0.600000024" fill="#16325C">
                    <tspan x="6" y="13">8</tspan>
                </text>
            </g>
            <g id="badge-copy-11" transform="translate(55.000000, 1247.000000)">
                <rect id="bkgd" fill="#E0E5EE" x="0" y="0" width="18" height="17" rx="8.5"></rect>
                <text id="6" font-family="SalesforceSans-Regular, Salesforce Sans" font-size="10" font-weight="normal" letter-spacing="0.600000024" fill="#16325C">
                    <tspan x="6" y="13">6</tspan>
                </text>
            </g>
        </g>
    </g>
</svg>