<?xml version="1.0" encoding="UTF-8"?>
<svg width="1280px" height="782px" viewBox="0 0 1280 782" version="1.1" xmlns="http://www.w3.org/2000/svg" xmlns:xlink="http://www.w3.org/1999/xlink">
    <!-- Generator: Sketch 51.2 (57519) - http://www.bohemiancoding.com/sketch -->
    <title>manage.data-capture.sources</title>
    <desc>Created with Sketch.</desc>
    <defs>
        <path d="M7.10501396,5.84615385 C5.90501396,5.84615385 4.95116781,6.8 4.95116781,8 C4.95116781,9.2 5.90501396,10.1538462 7.10501396,10.1538462 C8.30501396,10.1538462 9.25886011,9.2 9.25886011,8 C9.25886011,6.8 8.30501396,5.84615385 7.10501396,5.84615385 Z M13.5665524,9.93846154 L12.4280909,8.98461538 C12.4896293,8.64615385 12.5203986,8.27692308 12.5203986,7.93846154 C12.5203986,7.6 12.4896293,7.23076923 12.4280909,6.89230769 L13.5665524,5.93846154 C13.9357832,5.63076923 14.0588601,5.07692308 13.8127063,4.64615385 L13.3203986,3.78461538 C13.1357832,3.47692308 12.7973217,3.29230769 12.4280909,3.29230769 C12.305014,3.29230769 12.181937,3.32307692 12.0896293,3.35384615 L10.6742447,3.87692308 C10.1203986,3.38461538 9.50501396,3.04615385 8.85886011,2.83076923 L8.61270627,1.38461538 C8.52039857,0.892307692 8.08962934,0.615384615 7.59732165,0.615384615 L6.61270627,0.615384615 C6.12039857,0.615384615 5.68962934,0.892307692 5.59732165,1.38461538 L5.35116781,2.8 C4.67424473,3.01538462 4.05886011,3.38461538 3.50501396,3.84615385 L2.08962934,3.32307692 C1.96655242,3.29230769 1.87424473,3.26153846 1.75116781,3.26153846 C1.38193704,3.26153846 1.0434755,3.44615385 0.858860113,3.75384615 L0.366552421,4.61538462 C0.120398575,5.04615385 0.212706267,5.6 0.612706267,5.90769231 L1.75116781,6.86153846 C1.68962934,7.2 1.65886011,7.56923077 1.65886011,7.90769231 C1.65886011,8.27692308 1.68962934,8.61538462 1.75116781,8.95384615 L0.612706267,9.90769231 C0.243475498,10.2153846 0.120398575,10.7692308 0.366552421,11.2 L0.858860113,12.0615385 C1.0434755,12.3692308 1.38193704,12.5538462 1.75116781,12.5538462 C1.87424473,12.5538462 1.99732165,12.5230769 2.08962934,12.4923077 L3.50501396,11.9692308 C4.05886011,12.4615385 4.67424473,12.8 5.32039857,13.0153846 L5.56655242,14.4923077 C5.65886011,14.9846154 6.05886011,15.3230769 6.58193704,15.3230769 L7.56655242,15.3230769 C8.05886011,15.3230769 8.48962934,14.9538462 8.58193704,14.4615385 L8.82809088,12.9846154 C9.53578319,12.7384615 10.181937,12.3692308 10.7357832,11.8461538 L12.0588601,12.3692308 C12.181937,12.4 12.305014,12.4307692 12.4280909,12.4307692 C12.7973217,12.4307692 13.1357832,12.2461538 13.3203986,11.9384615 L13.781937,11.1384615 C14.0588601,10.8 13.9357832,10.2461538 13.5665524,9.93846154 L13.5665524,9.93846154 Z M7.10501396,11.3846154 C5.22809088,11.3846154 3.72039857,9.87692308 3.72039857,8 C3.72039857,6.12307692 5.22809088,4.61538462 7.10501396,4.61538462 C8.98193704,4.61538462 10.4896293,6.12307692 10.4896293,8 C10.4896293,9.87692308 8.98193704,11.3846154 7.10501396,11.3846154 Z" id="path-1"></path>
        <path d="M7.10501396,5.84615385 C5.90501396,5.84615385 4.95116781,6.8 4.95116781,8 C4.95116781,9.2 5.90501396,10.1538462 7.10501396,10.1538462 C8.30501396,10.1538462 9.25886011,9.2 9.25886011,8 C9.25886011,6.8 8.30501396,5.84615385 7.10501396,5.84615385 Z M13.5665524,9.93846154 L12.4280909,8.98461538 C12.4896293,8.64615385 12.5203986,8.27692308 12.5203986,7.93846154 C12.5203986,7.6 12.4896293,7.23076923 12.4280909,6.89230769 L13.5665524,5.93846154 C13.9357832,5.63076923 14.0588601,5.07692308 13.8127063,4.64615385 L13.3203986,3.78461538 C13.1357832,3.47692308 12.7973217,3.29230769 12.4280909,3.29230769 C12.305014,3.29230769 12.181937,3.32307692 12.0896293,3.35384615 L10.6742447,3.87692308 C10.1203986,3.38461538 9.50501396,3.04615385 8.85886011,2.83076923 L8.61270627,1.38461538 C8.52039857,0.892307692 8.08962934,0.615384615 7.59732165,0.615384615 L6.61270627,0.615384615 C6.12039857,0.615384615 5.68962934,0.892307692 5.59732165,1.38461538 L5.35116781,2.8 C4.67424473,3.01538462 4.05886011,3.38461538 3.50501396,3.84615385 L2.08962934,3.32307692 C1.96655242,3.29230769 1.87424473,3.26153846 1.75116781,3.26153846 C1.38193704,3.26153846 1.0434755,3.44615385 0.858860113,3.75384615 L0.366552421,4.61538462 C0.120398575,5.04615385 0.212706267,5.6 0.612706267,5.90769231 L1.75116781,6.86153846 C1.68962934,7.2 1.65886011,7.56923077 1.65886011,7.90769231 C1.65886011,8.27692308 1.68962934,8.61538462 1.75116781,8.95384615 L0.612706267,9.90769231 C0.243475498,10.2153846 0.120398575,10.7692308 0.366552421,11.2 L0.858860113,12.0615385 C1.0434755,12.3692308 1.38193704,12.5538462 1.75116781,12.5538462 C1.87424473,12.5538462 1.99732165,12.5230769 2.08962934,12.4923077 L3.50501396,11.9692308 C4.05886011,12.4615385 4.67424473,12.8 5.32039857,13.0153846 L5.56655242,14.4923077 C5.65886011,14.9846154 6.05886011,15.3230769 6.58193704,15.3230769 L7.56655242,15.3230769 C8.05886011,15.3230769 8.48962934,14.9538462 8.58193704,14.4615385 L8.82809088,12.9846154 C9.53578319,12.7384615 10.181937,12.3692308 10.7357832,11.8461538 L12.0588601,12.3692308 C12.181937,12.4 12.305014,12.4307692 12.4280909,12.4307692 C12.7973217,12.4307692 13.1357832,12.2461538 13.3203986,11.9384615 L13.781937,11.1384615 C14.0588601,10.8 13.9357832,10.2461538 13.5665524,9.93846154 L13.5665524,9.93846154 Z M7.10501396,11.3846154 C5.22809088,11.3846154 3.72039857,9.87692308 3.72039857,8 C3.72039857,6.12307692 5.22809088,4.61538462 7.10501396,4.61538462 C8.98193704,4.61538462 10.4896293,6.12307692 10.4896293,8 C10.4896293,9.87692308 8.98193704,11.3846154 7.10501396,11.3846154 Z" id="path-3"></path>
        <path d="M7.10501396,5.84615385 C5.90501396,5.84615385 4.95116781,6.8 4.95116781,8 C4.95116781,9.2 5.90501396,10.1538462 7.10501396,10.1538462 C8.30501396,10.1538462 9.25886011,9.2 9.25886011,8 C9.25886011,6.8 8.30501396,5.84615385 7.10501396,5.84615385 Z M13.5665524,9.93846154 L12.4280909,8.98461538 C12.4896293,8.64615385 12.5203986,8.27692308 12.5203986,7.93846154 C12.5203986,7.6 12.4896293,7.23076923 12.4280909,6.89230769 L13.5665524,5.93846154 C13.9357832,5.63076923 14.0588601,5.07692308 13.8127063,4.64615385 L13.3203986,3.78461538 C13.1357832,3.47692308 12.7973217,3.29230769 12.4280909,3.29230769 C12.305014,3.29230769 12.181937,3.32307692 12.0896293,3.35384615 L10.6742447,3.87692308 C10.1203986,3.38461538 9.50501396,3.04615385 8.85886011,2.83076923 L8.61270627,1.38461538 C8.52039857,0.892307692 8.08962934,0.615384615 7.59732165,0.615384615 L6.61270627,0.615384615 C6.12039857,0.615384615 5.68962934,0.892307692 5.59732165,1.38461538 L5.35116781,2.8 C4.67424473,3.01538462 4.05886011,3.38461538 3.50501396,3.84615385 L2.08962934,3.32307692 C1.96655242,3.29230769 1.87424473,3.26153846 1.75116781,3.26153846 C1.38193704,3.26153846 1.0434755,3.44615385 0.858860113,3.75384615 L0.366552421,4.61538462 C0.120398575,5.04615385 0.212706267,5.6 0.612706267,5.90769231 L1.75116781,6.86153846 C1.68962934,7.2 1.65886011,7.56923077 1.65886011,7.90769231 C1.65886011,8.27692308 1.68962934,8.61538462 1.75116781,8.95384615 L0.612706267,9.90769231 C0.243475498,10.2153846 0.120398575,10.7692308 0.366552421,11.2 L0.858860113,12.0615385 C1.0434755,12.3692308 1.38193704,12.5538462 1.75116781,12.5538462 C1.87424473,12.5538462 1.99732165,12.5230769 2.08962934,12.4923077 L3.50501396,11.9692308 C4.05886011,12.4615385 4.67424473,12.8 5.32039857,13.0153846 L5.56655242,14.4923077 C5.65886011,14.9846154 6.05886011,15.3230769 6.58193704,15.3230769 L7.56655242,15.3230769 C8.05886011,15.3230769 8.48962934,14.9538462 8.58193704,14.4615385 L8.82809088,12.9846154 C9.53578319,12.7384615 10.181937,12.3692308 10.7357832,11.8461538 L12.0588601,12.3692308 C12.181937,12.4 12.305014,12.4307692 12.4280909,12.4307692 C12.7973217,12.4307692 13.1357832,12.2461538 13.3203986,11.9384615 L13.781937,11.1384615 C14.0588601,10.8 13.9357832,10.2461538 13.5665524,9.93846154 L13.5665524,9.93846154 Z M7.10501396,11.3846154 C5.22809088,11.3846154 3.72039857,9.87692308 3.72039857,8 C3.72039857,6.12307692 5.22809088,4.61538462 7.10501396,4.61538462 C8.98193704,4.61538462 10.4896293,6.12307692 10.4896293,8 C10.4896293,9.87692308 8.98193704,11.3846154 7.10501396,11.3846154 Z" id="path-5"></path>
        <path d="M7.10501396,5.84615385 C5.90501396,5.84615385 4.95116781,6.8 4.95116781,8 C4.95116781,9.2 5.90501396,10.1538462 7.10501396,10.1538462 C8.30501396,10.1538462 9.25886011,9.2 9.25886011,8 C9.25886011,6.8 8.30501396,5.84615385 7.10501396,5.84615385 Z M13.5665524,9.93846154 L12.4280909,8.98461538 C12.4896293,8.64615385 12.5203986,8.27692308 12.5203986,7.93846154 C12.5203986,7.6 12.4896293,7.23076923 12.4280909,6.89230769 L13.5665524,5.93846154 C13.9357832,5.63076923 14.0588601,5.07692308 13.8127063,4.64615385 L13.3203986,3.78461538 C13.1357832,3.47692308 12.7973217,3.29230769 12.4280909,3.29230769 C12.305014,3.29230769 12.181937,3.32307692 12.0896293,3.35384615 L10.6742447,3.87692308 C10.1203986,3.38461538 9.50501396,3.04615385 8.85886011,2.83076923 L8.61270627,1.38461538 C8.52039857,0.892307692 8.08962934,0.615384615 7.59732165,0.615384615 L6.61270627,0.615384615 C6.12039857,0.615384615 5.68962934,0.892307692 5.59732165,1.38461538 L5.35116781,2.8 C4.67424473,3.01538462 4.05886011,3.38461538 3.50501396,3.84615385 L2.08962934,3.32307692 C1.96655242,3.29230769 1.87424473,3.26153846 1.75116781,3.26153846 C1.38193704,3.26153846 1.0434755,3.44615385 0.858860113,3.75384615 L0.366552421,4.61538462 C0.120398575,5.04615385 0.212706267,5.6 0.612706267,5.90769231 L1.75116781,6.86153846 C1.68962934,7.2 1.65886011,7.56923077 1.65886011,7.90769231 C1.65886011,8.27692308 1.68962934,8.61538462 1.75116781,8.95384615 L0.612706267,9.90769231 C0.243475498,10.2153846 0.120398575,10.7692308 0.366552421,11.2 L0.858860113,12.0615385 C1.0434755,12.3692308 1.38193704,12.5538462 1.75116781,12.5538462 C1.87424473,12.5538462 1.99732165,12.5230769 2.08962934,12.4923077 L3.50501396,11.9692308 C4.05886011,12.4615385 4.67424473,12.8 5.32039857,13.0153846 L5.56655242,14.4923077 C5.65886011,14.9846154 6.05886011,15.3230769 6.58193704,15.3230769 L7.56655242,15.3230769 C8.05886011,15.3230769 8.48962934,14.9538462 8.58193704,14.4615385 L8.82809088,12.9846154 C9.53578319,12.7384615 10.181937,12.3692308 10.7357832,11.8461538 L12.0588601,12.3692308 C12.181937,12.4 12.305014,12.4307692 12.4280909,12.4307692 C12.7973217,12.4307692 13.1357832,12.2461538 13.3203986,11.9384615 L13.781937,11.1384615 C14.0588601,10.8 13.9357832,10.2461538 13.5665524,9.93846154 L13.5665524,9.93846154 Z M7.10501396,11.3846154 C5.22809088,11.3846154 3.72039857,9.87692308 3.72039857,8 C3.72039857,6.12307692 5.22809088,4.61538462 7.10501396,4.61538462 C8.98193704,4.61538462 10.4896293,6.12307692 10.4896293,8 C10.4896293,9.87692308 8.98193704,11.3846154 7.10501396,11.3846154 Z" id="path-7"></path>
        <path d="M7.10501396,5.84615385 C5.90501396,5.84615385 4.95116781,6.8 4.95116781,8 C4.95116781,9.2 5.90501396,10.1538462 7.10501396,10.1538462 C8.30501396,10.1538462 9.25886011,9.2 9.25886011,8 C9.25886011,6.8 8.30501396,5.84615385 7.10501396,5.84615385 Z M13.5665524,9.93846154 L12.4280909,8.98461538 C12.4896293,8.64615385 12.5203986,8.27692308 12.5203986,7.93846154 C12.5203986,7.6 12.4896293,7.23076923 12.4280909,6.89230769 L13.5665524,5.93846154 C13.9357832,5.63076923 14.0588601,5.07692308 13.8127063,4.64615385 L13.3203986,3.78461538 C13.1357832,3.47692308 12.7973217,3.29230769 12.4280909,3.29230769 C12.305014,3.29230769 12.181937,3.32307692 12.0896293,3.35384615 L10.6742447,3.87692308 C10.1203986,3.38461538 9.50501396,3.04615385 8.85886011,2.83076923 L8.61270627,1.38461538 C8.52039857,0.892307692 8.08962934,0.615384615 7.59732165,0.615384615 L6.61270627,0.615384615 C6.12039857,0.615384615 5.68962934,0.892307692 5.59732165,1.38461538 L5.35116781,2.8 C4.67424473,3.01538462 4.05886011,3.38461538 3.50501396,3.84615385 L2.08962934,3.32307692 C1.96655242,3.29230769 1.87424473,3.26153846 1.75116781,3.26153846 C1.38193704,3.26153846 1.0434755,3.44615385 0.858860113,3.75384615 L0.366552421,4.61538462 C0.120398575,5.04615385 0.212706267,5.6 0.612706267,5.90769231 L1.75116781,6.86153846 C1.68962934,7.2 1.65886011,7.56923077 1.65886011,7.90769231 C1.65886011,8.27692308 1.68962934,8.61538462 1.75116781,8.95384615 L0.612706267,9.90769231 C0.243475498,10.2153846 0.120398575,10.7692308 0.366552421,11.2 L0.858860113,12.0615385 C1.0434755,12.3692308 1.38193704,12.5538462 1.75116781,12.5538462 C1.87424473,12.5538462 1.99732165,12.5230769 2.08962934,12.4923077 L3.50501396,11.9692308 C4.05886011,12.4615385 4.67424473,12.8 5.32039857,13.0153846 L5.56655242,14.4923077 C5.65886011,14.9846154 6.05886011,15.3230769 6.58193704,15.3230769 L7.56655242,15.3230769 C8.05886011,15.3230769 8.48962934,14.9538462 8.58193704,14.4615385 L8.82809088,12.9846154 C9.53578319,12.7384615 10.181937,12.3692308 10.7357832,11.8461538 L12.0588601,12.3692308 C12.181937,12.4 12.305014,12.4307692 12.4280909,12.4307692 C12.7973217,12.4307692 13.1357832,12.2461538 13.3203986,11.9384615 L13.781937,11.1384615 C14.0588601,10.8 13.9357832,10.2461538 13.5665524,9.93846154 L13.5665524,9.93846154 Z M7.10501396,11.3846154 C5.22809088,11.3846154 3.72039857,9.87692308 3.72039857,8 C3.72039857,6.12307692 5.22809088,4.61538462 7.10501396,4.61538462 C8.98193704,4.61538462 10.4896293,6.12307692 10.4896293,8 C10.4896293,9.87692308 8.98193704,11.3846154 7.10501396,11.3846154 Z" id="path-9"></path>
    </defs>
    <g id="Page-1" stroke="none" stroke-width="1" fill="none" fill-rule="evenodd">
        <g id="Data-Capture-Overview" transform="translate(0.000000, -599.000000)">
            <rect fill="#FFFFFF" x="0" y="0" width="1280" height="1382"></rect>
            <path d="M16.5,731.5 L1263.5,731.5 L1263.5,661.00581 C1263.5,659.072729 1261.92816,657.5 1259.99309,657.5 L20.0069082,657.5 C18.0619097,657.5 16.5,659.064945 16.5,661.00581 L16.5,731.5 Z" id="Rectangle" stroke="#D8DDE6" fill="#F7F9FB"></path>
            <path d="M326.5,657.5 L326.5,730.5" id="Line-2" stroke="#D8DDE6" stroke-linecap="square"></path>
            <g id="Group-19-Copy-2" transform="translate(16.000000, 657.000000)">
                <rect id="Rectangle" x="0" y="0" width="304" height="75" rx="4"></rect>
                <g id="Group-36" transform="translate(16.000000, 29.000000)" fill="#54698D">
                    <g id="Group-33">
                        <g id="Page-1-Copy-3">
                            <g id="custom68">
                                <path d="M10.1137124,0 C4.49498328,0 0,4.49498328 0,10.1137124 C0,15.7324415 4.49498328,20.2274247 10.1137124,20.2274247 C15.7324415,20.2274247 20.2274247,15.7324415 20.2274247,10.1137124 C20.2274247,4.49498328 15.7324415,0 10.1137124,0 Z M18.1204013,9.13043478 L15.451505,9.13043478 C15.3110368,6.74247492 14.8896321,4.63545151 14.0468227,3.090301 C16.2943144,4.21404682 17.8394649,6.46153846 18.1204013,9.13043478 Z M9.13043478,2.52842809 L9.13043478,9.13043478 L6.74247492,9.13043478 C6.88294314,5.89966555 8.00668896,3.37123746 9.13043478,2.52842809 Z M9.13043478,11.09699 L9.13043478,17.6989967 C8.00668896,16.8561873 6.88294314,14.3277592 6.74247492,11.09699 L9.13043478,11.09699 Z M11.09699,17.6989967 L11.09699,11.09699 L13.4849498,11.09699 C13.3444816,14.3277592 12.2207358,16.8561873 11.09699,17.6989967 Z M11.09699,9.13043478 L11.09699,2.52842809 C12.2207358,3.37123746 13.3444816,5.89966555 13.4849498,9.13043478 L11.09699,9.13043478 L11.09699,9.13043478 Z M6.18060201,3.090301 C5.33779264,4.63545151 4.91638796,6.74247492 4.77591973,9.13043478 L2.10702341,9.13043478 C2.38795987,6.46153846 3.93311037,4.21404682 6.18060201,3.090301 Z M2.10702341,11.09699 L4.77591973,11.09699 C4.91638796,13.4849498 5.33779264,15.5919732 6.18060201,17.1371237 C3.93311037,16.0133779 2.38795987,13.7658863 2.10702341,11.09699 Z M14.0468227,17.1371237 C14.8896321,15.5919732 15.3110368,13.4849498 15.451505,11.09699 L18.1204013,11.09699 C17.8394649,13.7658863 16.2943144,16.0133779 14.0468227,17.1371237 Z" id="Shape"></path>
                            </g>
                        </g>
                    </g>
                </g>
                <g id="Group-48" transform="translate(230.000000, 28.000000)" fill="#16325C" font-family="SalesforceSans-Bold, Salesforce Sans" font-size="18" font-weight="bold">
                    <text id="10">
                        <tspan x="0" y="20">10</tspan>
                    </text>
                </g>
                <text id="Web" font-family="SalesforceSans-Regular, Salesforce Sans" font-size="18" font-weight="normal" fill="#16325C">
                    <tspan x="48" y="48">Web</tspan>
                </text>
            </g>
            <g id="Group-19-Copy-3" transform="translate(330.000000, 657.000000)">
                <rect id="Rectangle" x="0" y="0" width="304" height="75" rx="4"></rect>
                <g id="Group-36" transform="translate(12.000000, 30.000000)" fill="#54698D" fill-rule="nonzero">
                    <g id="Group-3">
                        <g id="icons/utility/phone_portrait">
                            <path d="M13.825,1.575 C13.825,0.7 13.125,0 12.25,0 L1.75,0 C0.875,0 0.175,0.7 0.175,1.575 L0.175,19.425 C0.175,20.3 0.875,21 1.75,21 L12.25,21 C13.125,21 13.825,20.3 13.825,19.425 L13.825,1.575 Z M7,20.2125 C6.3,20.2125 5.775,19.6875 5.775,18.9875 C5.775,18.2875 6.3,17.7625 7,17.7625 C7.7,17.7625 8.225,18.2875 8.225,18.9875 C8.225,19.6875 7.7,20.2125 7,20.2125 Z M11.4625,16.3625 C11.4625,16.7125 11.2,16.975 10.85,16.975 L3.15,16.975 C2.8,16.975 2.5375,16.7125 2.5375,16.3625 L2.5375,3.85 C2.5375,3.5 2.8,3.2375 3.15,3.2375 L10.85,3.2375 C11.2,3.2375 11.4625,3.5 11.4625,3.85 L11.4625,16.3625 Z" id="Shape"></path>
                        </g>
                    </g>
                </g>
                <g id="Group-48" transform="translate(246.000000, 29.000000)" fill="#16325C" font-family="SalesforceSans-Bold, Salesforce Sans" font-size="18" font-weight="bold">
                    <text id="12">
                        <tspan x="0" y="20">12</tspan>
                    </text>
                </g>
                <text id="App" font-family="SalesforceSans-Regular, Salesforce Sans" font-size="18" font-weight="normal" fill="#16325C">
                    <tspan x="35" y="49">App</tspan>
                </text>
            </g>
            <g id="Group-19-Copy-4" transform="translate(645.000000, 657.000000)">
                <rect id="Rectangle" stroke="#D8DDE6" fill="#FFFFFF" x="0.5" y="0.5" width="303" height="74" rx="4"></rect>
                <g id="Group-36" transform="translate(18.000000, 30.000000)" fill="#54698D" fill-rule="nonzero">
                    <g id="Group-3">
                        <g id="icons/utility/file">
                            <path d="M2.19201031,14.3530432 L2.19201031,4.31562252 C1.10273196,4.31562252 0.195,5.18844171 0.195,6.14854282 L0.195,18.0188838 C0.195,19.0662669 1.10273196,19.939086 2.19201031,19.939086 L11.9047423,19.939086 C12.9940206,19.939086 13.9017526,19.0662669 13.9017526,18.1061657 L6.09525773,18.1061657 C3.91670103,18.1061657 2.19201031,18.1061657 2.19201031,14.3530432 Z M17.1695876,6.14854282 L13.9017526,6.14854282 C12.8124742,6.14854282 11.9047423,5.36300555 11.9047423,4.31562252 L11.9047423,1.17347343 C11.9047423,0.824345757 11.6324227,0.5625 11.2693299,0.5625 L6.09525773,0.5625 C5.00597938,0.5625 4.09824742,1.43531919 4.09824742,2.3954203 L4.09824742,14.2657613 C4.09824742,15.3131443 5.00597938,16.0986816 6.09525773,16.0986816 L15.8079897,16.0986816 C16.897268,16.0986816 17.805,15.3131443 17.805,14.2657613 L17.805,6.84679818 C17.805,6.4976705 17.5326804,6.14854282 17.1695876,6.14854282 Z M17.7142268,3.53008525 L14.6279381,0.737063838 C14.5371649,0.649781919 14.4463918,0.5625 14.3556186,0.5625 C14.083299,0.5625 13.9017526,0.824345757 13.9017526,0.998909596 L13.9017526,3.09367565 C13.9017526,3.79193101 14.4463918,4.31562252 15.1725773,4.31562252 L17.351134,4.31562252 C17.6234536,4.31562252 17.805,4.14105868 17.805,3.87921293 C17.805,3.79193101 17.7142268,3.70464909 17.7142268,3.53008525 Z" id="Shape"></path>
                        </g>
                    </g>
                </g>
                <g id="Group-48" transform="translate(233.000000, 28.000000)" fill="#16325C" font-family="SalesforceSans-Bold, Salesforce Sans" font-size="18" font-weight="bold">
                    <text id="5">
                        <tspan x="0" y="20">5</tspan>
                    </text>
                </g>
                <g id="Group-48-Copy" transform="translate(540.000000, 27.000000)" fill="#16325C" font-family="SalesforceSans-Bold, Salesforce Sans" font-size="18" font-weight="bold">
                    <text id="3">
                        <tspan x="0" y="20">3</tspan>
                    </text>
                </g>
                <text id="Offline-Files" font-family="SalesforceSans-Regular, Salesforce Sans" font-size="18" font-weight="normal" fill="#16325C">
                    <tspan x="50" y="48">Offline Files</tspan>
                </text>
            </g>
            <g id="Group-19-Copy-5" transform="translate(968.000000, 684.000000)">
                <g id="Group-36" transform="translate(0.000000, 2.000000)" fill="#54698D">
                    <g id="Group-3">
                        <g id="custom14">
                            <path d="M23.1646192,2.975 L20.8255528,2.975 C20.3243243,2.975 19.8230958,2.8 19.3218673,2.45 L17.4840295,0.7 C16.982801,0.35 16.4815725,0 15.980344,0 L11.3022113,0 C10.6339066,0 10.1326781,0.35 9.63144963,0.7 L7.12530713,2.975 C6.95823096,3.15 6.95823096,3.5 7.12530713,3.675 L7.96068796,4.375 C8.46191646,4.9 9.13022113,4.9 9.63144963,4.55 L11.8034398,3.15 C12.1375921,2.975 12.4717445,2.975 12.8058968,3.325 L19.6560197,10.325 C19.8230958,10.5 19.990172,10.675 19.990172,11.025 L19.990172,12.95 C19.990172,13.3 20.3243243,14 20.8255528,14 L23.1646192,14 C23.6658477,14 24,13.475 24,13.125 L24,3.85 C24,3.325 23.6658477,2.975 23.1646192,2.975 Z M16.7577413,11.1930187 L12.3118099,6.69738202 L11.1148284,7.59650936 C10.6018363,7.9561603 9.9178469,8.13598577 9.23385746,8.13598577 C8.2078733,8.13598577 7.35288649,7.77633483 6.66889705,7.23685843 L5.12992081,5.79825468 C4.78792609,5.43860374 4.44593137,5.07895281 4.44593137,4.71930187 C4.44593137,4.17982547 4.10393665,4 3.59094457,4 L0.854986802,4 C0.341994721,4 0,4.17982547 0,4.71930187 L0,12.6316225 C0,12.9912734 0.341994721,13.3509243 0.854986802,13.3509243 L2.39396304,13.3509243 C2.56496041,13.3509243 2.73595777,12.9912734 2.90695513,12.8114479 C3.59094457,11.9123206 4.44593137,11.3728442 5.47191553,11.1930187 C6.32690233,11.1930187 7.35288649,11.5526697 8.2078733,12.2719715 L13.3377941,17.1272592 C13.6797888,17.6667356 14.0217835,18.0263865 14.1927809,18.7456884 C14.3637783,18.9255139 14.705773,19.1053393 14.8767703,18.9255139 L16.7577413,16.7676082 C17.7837255,15.8684809 18.4677149,13.3509243 17.6127281,12.2719715 L16.7577413,11.1930187 L16.7577413,11.1930187 Z M5.85285911,13.3384872 C5.38224743,12.7778887 4.59789462,12.9647549 4.2841535,13.5253534 C3.81354182,14.0859519 3.97041238,15.0202827 4.44102406,15.5808812 L9.14714089,20.6262677 C9.30401145,21 9.61775257,21 9.9314937,21 C10.2452348,21 10.5589759,20.8131338 10.7158465,20.4394015 C11.1864582,19.878803 11.0295876,18.9444722 10.5589759,18.3838737 L5.85285911,13.3384872 L5.85285911,13.3384872 Z" id="Shape"></path>
                        </g>
                    </g>
                </g>
                <text id="Partners" font-family="SalesforceSans-Regular, Salesforce Sans" font-size="18" font-weight="normal" fill="#16325C">
                    <tspan x="35" y="20">Partners</tspan>
                </text>
            </g>
            <g id="Group-17" transform="translate(30.000000, 745.000000)" font-family="SalesforceSans-Regular, Salesforce Sans" font-weight="normal">
                <text id="Offline-File-Sources" font-size="16" fill="#16325C">
                    <tspan x="0" y="18">Offline File Sources</tspan>
                </text>
                <text id="Use-existing-or-crea" font-size="12" fill="#4F6A92">
                    <tspan x="1" y="38">Use existing or create new cofigurations to import offline files into DMP.</tspan>
                </text>
            </g>
            <g id="Folder-without-issues" transform="translate(440.000000, 798.000000)">
                <rect id="Rectangle" fill="#F7F9FB" fill-rule="evenodd" x="0" y="0" width="400" height="112"></rect>
                <g id="icons/utility/settings" stroke-width="1" fill-rule="evenodd" transform="translate(370.000000, 16.000000)">
                    <mask id="mask-2" fill="white">
                        <use xlink:href="#path-1"></use>
                    </mask>
                    <use id="Mask" fill="#54698D" xlink:href="#path-1"></use>
                </g>
                <g id="Group" stroke-width="1" fill-rule="evenodd" transform="translate(24.000000, 12.000000)">
                    <g id="Title" fill="#0070D2" font-family="SalesforceSans-Regular, Salesforce Sans" font-size="18" font-weight="normal">
                        <text id="Configuration-2">
                            <tspan x="0" y="20">Spending Habits</tspan>
                        </text>
                    </g>
                    <text id="LAST-PROCESSED:" font-family="SalesforceSans-Regular, Salesforce Sans" font-size="12" font-weight="normal" fill="#4F6A92">
                        <tspan x="1" y="86">LAST PROCESSED:</tspan>
                    </text>
                    <text id="04/28/2017-12:00-AM" font-family="SalesforceSans-Bold, Salesforce Sans" font-size="12" font-weight="bold" fill="#16325C">
                        <tspan x="107" y="86">04/28/2017 12:00 AM</tspan>
                    </text>
                    <text id="IMPORT-TYPE:" font-family="SalesforceSans-Regular, Salesforce Sans" font-size="12" font-weight="normal" fill="#4F6A92">
                        <tspan x="1" y="65">IMPORT TYPE:</tspan>
                    </text>
                    <text id="Platform-Segments" font-family="SalesforceSans-Bold, Salesforce Sans" font-size="12" font-weight="bold" fill="#16325C">
                        <tspan x="87" y="65">User Attribute Data</tspan>
                    </text>
                </g>
                <g id="Group-2" stroke-width="1" fill-rule="evenodd" transform="translate(51.000000, 124.000000)" font-family="SalesforceSans-Regular, Salesforce Sans" font-weight="normal">
                    <g id="Group-7-Copy-8">
                        <text id="RECEIVED-RECORDS" font-size="12" fill="#4F6A92">
                            <tspan x="0" y="56">RECEIVED RECORDS</tspan>
                        </text>
                        <text id="999" font-size="28" fill="#16325C">
                            <tspan x="0" y="32">623K</tspan>
                        </text>
                    </g>
                    <g id="Group-7-Copy-9" transform="translate(145.000000, 0.000000)">
                        <text id="MATCHED-RECORDS" font-size="12" fill="#4F6A92">
                            <tspan x="0" y="56">MATCHED RECORDS</tspan>
                        </text>
                        <text id="100" font-size="28" fill="#16325C">
                            <tspan x="0" y="32">210K</tspan>
                        </text>
                    </g>
                </g>
                <rect id="Rectangle-13-Copy" stroke="#E0E5EE" stroke-width="1" x="0.5" y="0.5" width="399" height="195" rx="4"></rect>
            </g>
            <g id="Folder-without-issues" transform="translate(30.000000, 798.000000)">
                <rect id="Rectangle" fill="#F7F9FB" fill-rule="evenodd" x="0" y="0" width="400" height="112"></rect>
                <g id="icons/utility/settings" stroke-width="1" fill-rule="evenodd" transform="translate(370.000000, 16.000000)">
                    <mask id="mask-4" fill="white">
                        <use xlink:href="#path-3"></use>
                    </mask>
                    <use id="Mask" fill="#54698D" xlink:href="#path-3"></use>
                </g>
                <g id="Group" stroke-width="1" fill-rule="evenodd" transform="translate(24.000000, 12.000000)">
                    <g id="Title" fill="#0070D2" font-family="SalesforceSans-Regular, Salesforce Sans" font-size="18" font-weight="normal">
                        <text id="Configuration-2">
                            <tspan x="0" y="20">Mortgage Installments</tspan>
                        </text>
                    </g>
                    <text id="LAST-PROCESSED:" font-family="SalesforceSans-Regular, Salesforce Sans" font-size="12" font-weight="normal" fill="#4F6A92">
                        <tspan x="1" y="86">LAST PROCESSED:</tspan>
                    </text>
                    <text id="04/28/2017-12:00-AM" font-family="SalesforceSans-Bold, Salesforce Sans" font-size="12" font-weight="bold" fill="#16325C">
                        <tspan x="107" y="86">09/05/2017 12:00 AM</tspan>
                    </text>
                    <text id="IMPORT-TYPE:" font-family="SalesforceSans-Regular, Salesforce Sans" font-size="12" font-weight="normal" fill="#4F6A92">
                        <tspan x="1" y="65">IMPORT TYPE:</tspan>
                    </text>
                    <text id="Platform-Segments" font-family="SalesforceSans-Bold, Salesforce Sans" font-size="12" font-weight="bold" fill="#16325C">
                        <tspan x="87" y="65">Transaction Data</tspan>
                    </text>
                </g>
                <g id="Group-2" stroke-width="1" fill-rule="evenodd" transform="translate(51.000000, 124.000000)" font-family="SalesforceSans-Regular, Salesforce Sans" font-weight="normal">
                    <g id="Group-7-Copy-8">
                        <text id="RECEIVED-RECORDS" font-size="12" fill="#4F6A92">
                            <tspan x="0" y="56">RECEIVED RECORDS</tspan>
                        </text>
                        <text id="999" font-size="28" fill="#16325C">
                            <tspan x="0" y="32">117K</tspan>
                        </text>
                    </g>
                    <g id="Group-7-Copy-9" transform="translate(145.000000, 0.000000)">
                        <text id="MATCHED-RECORDS" font-size="12" fill="#4F6A92">
                            <tspan x="0" y="56">MATCHED RECORDS</tspan>
                        </text>
                        <text id="100" font-size="28" fill="#16325C">
                            <tspan x="0" y="32">25K</tspan>
                        </text>
                    </g>
                </g>
                <rect id="Rectangle-13-Copy" stroke="#E0E5EE" stroke-width="1" x="0.5" y="0.5" width="399" height="195" rx="4"></rect>
            </g>
            <g id="Folder-without-issues" transform="translate(850.000000, 798.000000)">
                <rect id="Rectangle" fill="#F7F9FB" fill-rule="evenodd" x="0" y="0" width="400" height="112"></rect>
                <g id="icons/utility/settings" stroke-width="1" fill-rule="evenodd" transform="translate(370.000000, 16.000000)">
                    <mask id="mask-6" fill="white">
                        <use xlink:href="#path-5"></use>
                    </mask>
                    <use id="Mask" fill="#54698D" xlink:href="#path-5"></use>
                </g>
                <g id="Group" stroke-width="1" fill-rule="evenodd" transform="translate(24.000000, 12.000000)">
                    <g id="Title" fill="#0070D2" font-family="SalesforceSans-Regular, Salesforce Sans" font-size="18" font-weight="normal">
                        <text id="Configuration-2">
                            <tspan x="0" y="20">Content Engagement</tspan>
                        </text>
                    </g>
                    <text id="LAST-PROCESSED:" font-family="SalesforceSans-Regular, Salesforce Sans" font-size="12" font-weight="normal" fill="#4F6A92">
                        <tspan x="1" y="86">LAST PROCESSED:</tspan>
                    </text>
                    <text id="04/28/2017-12:00-AM" font-family="SalesforceSans-Bold, Salesforce Sans" font-size="12" font-weight="bold" fill="#16325C">
                        <tspan x="107" y="86">04/28/2017 12:00 AM</tspan>
                    </text>
                    <text id="IMPORT-TYPE:" font-family="SalesforceSans-Regular, Salesforce Sans" font-size="12" font-weight="normal" fill="#4F6A92">
                        <tspan x="1" y="65">IMPORT TYPE:</tspan>
                    </text>
                    <text id="Platform-Segments" font-family="SalesforceSans-Bold, Salesforce Sans" font-size="12" font-weight="bold" fill="#16325C">
                        <tspan x="87" y="65">Page Attribute Data</tspan>
                    </text>
                </g>
                <g id="Group-2" stroke-width="1" fill-rule="evenodd" transform="translate(51.000000, 124.000000)" font-family="SalesforceSans-Regular, Salesforce Sans" font-weight="normal">
                    <g id="Group-7-Copy-8">
                        <text id="RECEIVED-RECORDS" font-size="12" fill="#4F6A92">
                            <tspan x="0" y="56">RECEIVED RECORDS</tspan>
                        </text>
                        <text id="999" font-size="28" fill="#16325C">
                            <tspan x="0" y="32">121K</tspan>
                        </text>
                    </g>
                    <g id="Group-7-Copy-9" transform="translate(145.000000, 0.000000)">
                        <text id="MATCHED-RECORDS" font-size="12" fill="#4F6A92">
                            <tspan x="0" y="56">MATCHED RECORDS</tspan>
                        </text>
                        <text id="100" font-size="28" fill="#16325C">
                            <tspan x="0" y="32">20K</tspan>
                        </text>
                    </g>
                </g>
                <rect id="Rectangle-13-Copy" stroke="#E0E5EE" stroke-width="1" x="0.5" y="0.5" width="399" height="195" rx="4"></rect>
            </g>
            <path d="M16.5,731.5 L16.5,1422.00543 C16.5,1423.9381 18.068016,1425.5 20.0069082,1425.5 L1259.99309,1425.5 C1261.93841,1425.5 1263.5,1423.93976 1263.5,1422.00543 L1263.5,731.5 L16.5,731.5 Z" id="Rectangle" stroke="#D8DDE6"></path>
            <rect id="Rectangle-Copy" fill="#FFFFFF" x="646" y="727" width="302" height="9"></rect>
            <rect id="Rectangle-Copy-2" fill="#4F6A92" x="646" y="657" width="302" height="2"></rect>
            <g id="Button-New-Copy-2" transform="translate(1104.000000, 749.000000)">
                <rect id="Rectangle-827" fill="#0070D2" x="0" y="0" width="146" height="32" rx="4"></rect>
                <text id="Add-New-Source" font-family="SalesforceSans-Regular, Salesforce Sans" font-size="12" font-weight="normal" fill="#FFFFFF">
                    <tspan x="37" y="20">Add New Source</tspan>
                </text>
                <g id="new" transform="translate(16.000000, 10.000000)" fill="#FFFFFF">
                    <path d="M6.98181818,6.76363636 L11.1818182,6.76363636 C11.3454545,6.76363636 11.5636364,6.6 11.5636364,6.38181818 L11.5636364,5.61818182 C11.5636364,5.4 11.3454545,5.23636364 11.1818182,5.23636364 L6.98181818,5.23636364 C6.87272727,5.23636364 6.76363636,5.12727273 6.76363636,5.01818182 L6.76363636,0.818181818 C6.76363636,0.654545455 6.6,0.436363636 6.38181818,0.436363636 L5.61818182,0.436363636 C5.4,0.436363636 5.23636364,0.654545455 5.23636364,0.818181818 L5.23636364,5.01818182 C5.23636364,5.12727273 5.12727273,5.23636364 5.01818182,5.23636364 L0.818181818,5.23636364 C0.654545455,5.23636364 0.436363636,5.4 0.436363636,5.61818182 L0.436363636,6.38181818 C0.436363636,6.6 0.654545455,6.76363636 0.818181818,6.76363636 L5.01818182,6.76363636 C5.12727273,6.76363636 5.23636364,6.87272727 5.23636364,6.98181818 L5.23636364,11.1818182 C5.23636364,11.3454545 5.4,11.5636364 5.61818182,11.5636364 L6.38181818,11.5636364 C6.6,11.5636364 6.76363636,11.3454545 6.76363636,11.1818182 L6.76363636,6.98181818 C6.76363636,6.87272727 6.87272727,6.76363636 6.98181818,6.76363636 L6.98181818,6.76363636 Z" id="Shape"></path>
                </g>
            </g>
            <g id="Folder-without-issues" transform="translate(30.000000, 1015.000000)">
                <rect id="Rectangle" fill="#F7F9FB" x="0" y="0" width="400" height="112"></rect>
                <g id="icons/utility/settings" transform="translate(370.000000, 16.000000)">
                    <mask id="mask-8" fill="white">
                        <use xlink:href="#path-7"></use>
                    </mask>
                    <use id="Mask" fill="#54698D" xlink:href="#path-7"></use>
                </g>
                <g id="Group" transform="translate(24.000000, 12.000000)">
                    <g id="Title" fill="#0070D2" font-family="SalesforceSans-Regular, Salesforce Sans" font-size="18" font-weight="normal">
                        <text id="Configuration-2">
                            <tspan x="0" y="20">Account Holders</tspan>
                        </text>
                    </g>
                    <text id="LAST-PROCESSED:" font-family="SalesforceSans-Regular, Salesforce Sans" font-size="12" font-weight="normal" fill="#4F6A92">
                        <tspan x="1" y="86">LAST PROCESSED:</tspan>
                    </text>
                    <text id="04/28/2017-12:00-AM" font-family="SalesforceSans-Bold, Salesforce Sans" font-size="12" font-weight="bold" fill="#16325C">
                        <tspan x="107" y="86">04/28/2017 12:00 AM</tspan>
                    </text>
                    <text id="IMPORT-TYPE:" font-family="SalesforceSans-Regular, Salesforce Sans" font-size="12" font-weight="normal" fill="#4F6A92">
                        <tspan x="1" y="44">IMPORT TYPE:</tspan>
                    </text>
                    <text id="Platform-Segments" font-family="SalesforceSans-Bold, Salesforce Sans" font-size="12" font-weight="bold" fill="#16325C">
                        <tspan x="89" y="44">Consent Data</tspan>
                    </text>
                </g>
                <g id="Group-2" transform="translate(51.000000, 124.000000)" font-family="SalesforceSans-Regular, Salesforce Sans" font-weight="normal">
                    <g id="Group-7-Copy-8">
                        <text id="RECEIVED-RECORDS" font-size="12" fill="#4F6A92">
                            <tspan x="0" y="56">RECEIVED RECORDS</tspan>
                        </text>
                        <text id="999" font-size="28" fill="#16325C">
                            <tspan x="0" y="32">2M</tspan>
                        </text>
                    </g>
                    <g id="Group-7-Copy-9" transform="translate(145.000000, 0.000000)">
                        <text id="MATCHED-RECORDS" font-size="12" fill="#4F6A92">
                            <tspan x="0" y="56">MATCHED RECORDS</tspan>
                        </text>
                        <text id="100" font-size="28" fill="#16325C">
                            <tspan x="0" y="32">765K</tspan>
                        </text>
                    </g>
                </g>
                <rect id="Rectangle-13-Copy" stroke="#E0E5EE" x="0.5" y="0.5" width="399" height="195" rx="4"></rect>
            </g>
            <g id="Group-16" transform="translate(54.000000, 1075.000000)" fill="#0070D2">
                <g id="Group-16-Copy-2" transform="translate(16.000000, 0.000000)" font-family="SalesforceSans-Regular, Salesforce Sans" font-size="11" font-weight="normal">
                    <g id="Group-8">
                        <text id="Manage-Consumer-Righ">
                            <tspan x="0" y="13">Manage Consumer Rights</tspan>
                        </text>
                    </g>
                </g>
                <g id="new_custom91-copy" transform="translate(0.000000, 1.000000)">
                    <path d="M11.583671,2.53986492 C10.9868045,2.37774588 10.4441986,1.94542845 10.118635,1.40503166 C9.84733207,0.972714225 9.84733207,0 9.19620499,0 L2.79345537,0 C2.14232829,2.9998048e-16 2.14232829,0.972714225 1.87102534,1.40503166 C1.43694062,2.05350781 0.948595307,2.21562685 0.297468227,2.5939046 C-0.353658854,2.97218235 0.243207637,4.53933305 0.405989407,5.13376952 C1.0028559,7.34939636 2.19658888,9.40290417 4.04144894,10.8619755 C4.58405484,11.2942929 5.12666074,11.618531 5.72352723,11.9427691 C6.26613313,12.2129675 7.18856316,11.456412 7.56838729,11.1321739 C8.5993385,10.3756184 9.46750794,9.45694385 10.1728956,8.37615027 C10.7155015,7.45747572 11.2038468,6.4847615 11.5294104,5.45800759 L11.8549739,4.16105529 C11.9092345,3.83681722 12.0720163,3.24238075 11.9634951,2.91814267 C11.9092345,2.75602364 11.7464527,2.5939046 11.583671,2.53986492 C10.6612409,2.26966652 11.8549739,2.5939046 11.583671,2.53986492 L11.583671,2.53986492 Z M10.7155015,3.94489658 C10.1728956,6.59284086 8.70785968,9.0786661 6.32039372,10.5377374 L5.99483018,10.7538962 L5.66926664,10.5377374 C2.79345537,8.8084677 1.70824357,5.99840439 1.27415885,3.8908569 L1.21989826,3.51257914 L1.59972239,3.29642043 C2.19658888,2.91814267 2.79345537,2.21562685 3.11901891,1.51311102 L3.28180068,1.18887294 L8.70785968,1.18887294 L8.81638086,1.45907134 C9.1419444,2.16158717 9.73881089,2.91814267 10.4984592,3.35046011 L10.7697621,3.45853947 L10.7697621,3.51257914 L10.7155015,3.94489658 Z M5.77778782,2.43178556 C5.3437031,2.43178556 4.20423071,2.43178556 3.98718835,2.5939046 C3.60736422,2.97218235 3.39032186,3.45853947 3.01049773,3.78277754 C2.57641301,4.10701562 2.73919478,4.48529337 2.90197655,4.97165048 C3.1732795,5.83628535 3.55310363,6.64688054 4.09570953,7.34939636 C4.36701248,7.72767412 4.63831543,8.10595187 5.01813956,8.43018995 C5.07240015,8.53826931 5.99483018,9.45694385 5.99483018,8.86250738 L5.99483018,2.81006332 C5.99483018,2.5939046 5.99483018,2.43178556 5.77778782,2.43178556 Z" id="Shape"></path>
                </g>
            </g>
            <g id="Folder-without-issues" transform="translate(440.000000, 1015.000000)">
                <rect id="Rectangle" fill="#F7F9FB" fill-rule="evenodd" x="0" y="0" width="400" height="112"></rect>
                <g id="icons/utility/settings" stroke-width="1" fill-rule="evenodd" transform="translate(370.000000, 16.000000)">
                    <mask id="mask-10" fill="white">
                        <use xlink:href="#path-9"></use>
                    </mask>
                    <use id="Mask" fill="#54698D" xlink:href="#path-9"></use>
                </g>
                <g id="Group" stroke-width="1" fill-rule="evenodd" transform="translate(24.000000, 12.000000)">
                    <g id="Title" fill="#0070D2" font-family="SalesforceSans-Regular, Salesforce Sans" font-size="18" font-weight="normal">
                        <text id="Configuration-2">
                            <tspan x="0" y="20">High Value Targets</tspan>
                        </text>
                    </g>
                    <text id="LAST-PROCESSED:" font-family="SalesforceSans-Regular, Salesforce Sans" font-size="12" font-weight="normal" fill="#4F6A92">
                        <tspan x="1" y="86">LAST PROCESSED:</tspan>
                    </text>
                    <text id="04/28/2017-12:00-AM" font-family="SalesforceSans-Bold, Salesforce Sans" font-size="12" font-weight="bold" fill="#16325C">
                        <tspan x="107" y="86">----- Processing</tspan>
                    </text>
                    <text id="IMPORT-TYPE:" font-family="SalesforceSans-Regular, Salesforce Sans" font-size="12" font-weight="normal" fill="#4F6A92">
                        <tspan x="1" y="65">IMPORT TYPE:</tspan>
                    </text>
                    <text id="Platform-Segments" font-family="SalesforceSans-Bold, Salesforce Sans" font-size="12" font-weight="bold" fill="#16325C">
                        <tspan x="87" y="65">Platform Segments</tspan>
                    </text>
                </g>
                <g id="Group-2" stroke-width="1" fill-rule="evenodd" transform="translate(51.000000, 124.000000)" font-family="SalesforceSans-Regular, Salesforce Sans" font-weight="normal">
                    <g id="Group-7-Copy-8">
                        <text id="RECEIVED-RECORDS" font-size="12" fill="#4F6A92">
                            <tspan x="0" y="56">RECEIVED RECORDS</tspan>
                        </text>
                        <text id="999" font-size="28" fill="#16325C">
                            <tspan x="0" y="32">-</tspan>
                        </text>
                    </g>
                    <g id="Group-7-Copy-9" transform="translate(145.000000, 0.000000)">
                        <text id="MATCHED-RECORDS" font-size="12" fill="#4F6A92">
                            <tspan x="0" y="56">MATCHED RECORDS</tspan>
                        </text>
                        <text id="100" font-size="28" fill="#16325C">
                            <tspan x="0" y="32">-</tspan>
                        </text>
                    </g>
                </g>
                <rect id="Rectangle-13-Copy" stroke="#E0E5EE" stroke-width="1" x="0.5" y="0.5" width="399" height="195" rx="4"></rect>
            </g>
            <rect id="Path" fill="#F7F9FB" x="570" y="1098" width="21" height="19"></rect>
            <path d="M588.527027,1100 L587.581081,1100 C587.310811,1100 587.108108,1100.18919 587.108108,1100.44144 L587.108108,1102.45946 C587.108108,1102.77477 586.77027,1102.9009 586.635135,1102.71171 C585.148649,1101.1982 583.054054,1100.44144 580.756757,1100.63063 C579.945946,1100.69369 579.202703,1100.94595 578.459459,1101.26126 C578.121622,1101.45045 577.716216,1101.63964 577.445946,1101.89189 C577.175676,1102.01802 577.175676,1102.33333 577.378378,1102.52252 L577.986486,1103.15315 C578.189189,1103.27928 578.391892,1103.34234 578.594595,1103.21622 C579,1102.96396 579.405405,1102.77477 579.810811,1102.58559 C580.013514,1102.52252 580.216216,1102.45946 580.418919,1102.45946 C582.378378,1102.08108 584.27027,1102.83784 585.351351,1103.97297 C585.689189,1104.41441 585.418919,1104.66667 585.148649,1104.66667 L582.918919,1104.66667 C582.716216,1104.66667 582.445946,1104.85586 582.445946,1105.10811 L582.445946,1105.99099 C582.445946,1106.24324 582.716216,1106.43243 582.918919,1106.43243 L588.594595,1106.43243 C588.797297,1106.43243 589,1106.24324 589,1106.05405 L589,1100.44144 C589,1100.18919 588.797297,1100 588.527027,1100 L588.527027,1100 Z M585.689189,1110.34234 C585.486486,1110.15315 585.216216,1110.15315 585.013514,1110.34234 C584.540541,1110.78378 583.932432,1111.16216 583.189189,1111.41441 C583.054054,1111.47748 582.783784,1111.54054 582.581081,1111.54054 C580.621622,1111.91892 578.72973,1111.16216 577.716216,1110.02703 C577.310811,1109.58559 577.581081,1109.33333 577.918919,1109.33333 L580.081081,1109.33333 C580.351351,1109.33333 580.554054,1109.14414 580.554054,1108.89189 L580.554054,1108.00901 C580.554054,1107.75676 580.351351,1107.56757 580.081081,1107.56757 L574.405405,1107.56757 C574.202703,1107.56757 574,1107.75676 574,1107.94595 L574,1113.55856 C574,1113.81081 574.202703,1114 574.472973,1114 L575.418919,1114 C575.689189,1114 575.891892,1113.81081 575.891892,1113.55856 L575.891892,1111.54054 C575.891892,1111.22523 576.22973,1111.0991 576.364865,1111.28829 C577.851351,1112.8018 579.945946,1113.55856 582.243243,1113.36937 C583.054054,1113.30631 583.797297,1113.05405 584.540541,1112.73874 C585.216216,1112.42342 585.824324,1111.98198 586.297297,1111.54054 C586.5,1111.35135 586.5,1111.0991 586.297297,1110.90991 L585.689189,1110.34234 L585.689189,1110.34234 Z" id="Shape" fill="#54698D"></path>
            <path d="M449.5,617.166667 L463.5,617.166667" id="Line" stroke="#73ACE8" stroke-width="2"></path>
            <circle id="Oval-2" fill="#73ACE8" cx="457" cy="617" r="3"></circle>
            <text id="Website" font-family="SalesforceSans-Regular, Salesforce Sans" font-size="12" font-weight="normal" fill="#3E3E3C">
                <tspan x="469" y="623">Website</tspan>
            </text>
            <g id="Group-4" transform="translate(555.000000, 609.000000)">
                <path d="M0.5,8.16666667 L14.5,8.16666667" id="Line" stroke="#EDBE32" stroke-width="2"></path>
                <circle id="Oval-2" fill="#EDBE32" cx="8" cy="8" r="3"></circle>
                <text id="App" font-family="SalesforceSans-Regular, Salesforce Sans" font-size="12" font-weight="normal" fill="#3E3E3C">
                    <tspan x="19" y="14">App</tspan>
                </text>
            </g>
            <g id="Group-4" transform="translate(637.000000, 609.000000)">
                <path d="M0.5,8.16666667 L14.5,8.16666667" id="Line" stroke="#EA78BB" stroke-width="2"></path>
                <circle id="Oval-2" fill="#EA78BB" cx="8" cy="8" r="3"></circle>
                <text id="Offline-Files" font-family="SalesforceSans-Regular, Salesforce Sans" font-size="12" font-weight="normal" fill="#3E3E3C">
                    <tspan x="19" y="14">Offline Files</tspan>
                </text>
            </g>
            <g id="Group-4-Copy" transform="translate(762.000000, 609.000000)">
                <path d="M0.5,8.16666667 L14.5,8.16666667" id="Line" stroke="#B896FA" stroke-width="2"></path>
                <circle id="Oval-2" fill="#B896FA" cx="8" cy="8" r="3"></circle>
                <text id="Partners" font-family="SalesforceSans-Regular, Salesforce Sans" font-size="12" font-weight="normal" fill="#3E3E3C">
                    <tspan x="19" y="14">Partners</tspan>
                </text>
            </g>
        </g>
    </g>
</svg>