<?xml version="1.0" encoding="UTF-8"?>
<svg width="1280px" height="161px" viewBox="0 0 1280 161" version="1.1" xmlns="http://www.w3.org/2000/svg" xmlns:xlink="http://www.w3.org/1999/xlink">
    <!-- Generator: Sketch 51.2 (57519) - http://www.bohemiancoding.com/sketch -->
    <title>manage.data-capture.sources-top</title>
    <desc>Created with Sketch.</desc>
    <defs>
        <path d="M6.46153846,0 C2.88076923,0 0,2.88076923 0,6.46153846 C0,10.0423077 2.88076923,12.9230769 6.46153846,12.9230769 C10.0423077,12.9230769 12.9230769,10.0423077 12.9230769,6.46153846 C12.9230769,2.88076923 10.0423077,0 6.46153846,0 Z M6.46153846,3.25769231 C6.91923077,3.25769231 7.26923077,3.60769231 7.26923077,4.06538462 C7.26923077,4.52307692 6.91923077,4.87307692 6.46153846,4.87307692 C6.00384615,4.87307692 5.65384615,4.52307692 5.65384615,4.06538462 C5.65384615,3.60769231 6.00384615,3.25769231 6.46153846,3.25769231 L6.46153846,3.25769231 Z M7.80769231,8.91153846 C7.80769231,9.04615385 7.7,9.15384615 7.53846154,9.15384615 L5.38461538,9.15384615 C5.25,9.15384615 5.11538462,9.07307692 5.11538462,8.91153846 L5.11538462,8.37307692 C5.11538462,8.23846154 5.22307692,8.07692308 5.38461538,8.07692308 C5.51923077,8.07692308 5.65384615,7.99615385 5.65384615,7.83461538 L5.65384615,6.75769231 C5.65384615,6.62307692 5.54615385,6.46153846 5.38461538,6.46153846 C5.25,6.46153846 5.11538462,6.38076923 5.11538462,6.21923077 L5.11538462,5.68076923 C5.11538462,5.54615385 5.22307692,5.38461538 5.38461538,5.38461538 L7,5.38461538 C7.13461538,5.38461538 7.26923077,5.51923077 7.26923077,5.68076923 L7.26923077,7.83461538 C7.26923077,7.96923077 7.37692308,8.07692308 7.53846154,8.07692308 C7.67307692,8.07692308 7.80769231,8.21153846 7.80769231,8.37307692 L7.80769231,8.91153846 Z" id="path-1"></path>
        <path d="M6.46153846,0 C2.88076923,0 0,2.88076923 0,6.46153846 C0,10.0423077 2.88076923,12.9230769 6.46153846,12.9230769 C10.0423077,12.9230769 12.9230769,10.0423077 12.9230769,6.46153846 C12.9230769,2.88076923 10.0423077,0 6.46153846,0 Z M6.46153846,3.25769231 C6.91923077,3.25769231 7.26923077,3.60769231 7.26923077,4.06538462 C7.26923077,4.52307692 6.91923077,4.87307692 6.46153846,4.87307692 C6.00384615,4.87307692 5.65384615,4.52307692 5.65384615,4.06538462 C5.65384615,3.60769231 6.00384615,3.25769231 6.46153846,3.25769231 L6.46153846,3.25769231 Z M7.80769231,8.91153846 C7.80769231,9.04615385 7.7,9.15384615 7.53846154,9.15384615 L5.38461538,9.15384615 C5.25,9.15384615 5.11538462,9.07307692 5.11538462,8.91153846 L5.11538462,8.37307692 C5.11538462,8.23846154 5.22307692,8.07692308 5.38461538,8.07692308 C5.51923077,8.07692308 5.65384615,7.99615385 5.65384615,7.83461538 L5.65384615,6.75769231 C5.65384615,6.62307692 5.54615385,6.46153846 5.38461538,6.46153846 C5.25,6.46153846 5.11538462,6.38076923 5.11538462,6.21923077 L5.11538462,5.68076923 C5.11538462,5.54615385 5.22307692,5.38461538 5.38461538,5.38461538 L7,5.38461538 C7.13461538,5.38461538 7.26923077,5.51923077 7.26923077,5.68076923 L7.26923077,7.83461538 C7.26923077,7.96923077 7.37692308,8.07692308 7.53846154,8.07692308 C7.67307692,8.07692308 7.80769231,8.21153846 7.80769231,8.37307692 L7.80769231,8.91153846 Z" id="path-3"></path>
        <path d="M6.46153846,0 C2.88076923,0 0,2.88076923 0,6.46153846 C0,10.0423077 2.88076923,12.9230769 6.46153846,12.9230769 C10.0423077,12.9230769 12.9230769,10.0423077 12.9230769,6.46153846 C12.9230769,2.88076923 10.0423077,0 6.46153846,0 Z M6.46153846,3.25769231 C6.91923077,3.25769231 7.26923077,3.60769231 7.26923077,4.06538462 C7.26923077,4.52307692 6.91923077,4.87307692 6.46153846,4.87307692 C6.00384615,4.87307692 5.65384615,4.52307692 5.65384615,4.06538462 C5.65384615,3.60769231 6.00384615,3.25769231 6.46153846,3.25769231 L6.46153846,3.25769231 Z M7.80769231,8.91153846 C7.80769231,9.04615385 7.7,9.15384615 7.53846154,9.15384615 L5.38461538,9.15384615 C5.25,9.15384615 5.11538462,9.07307692 5.11538462,8.91153846 L5.11538462,8.37307692 C5.11538462,8.23846154 5.22307692,8.07692308 5.38461538,8.07692308 C5.51923077,8.07692308 5.65384615,7.99615385 5.65384615,7.83461538 L5.65384615,6.75769231 C5.65384615,6.62307692 5.54615385,6.46153846 5.38461538,6.46153846 C5.25,6.46153846 5.11538462,6.38076923 5.11538462,6.21923077 L5.11538462,5.68076923 C5.11538462,5.54615385 5.22307692,5.38461538 5.38461538,5.38461538 L7,5.38461538 C7.13461538,5.38461538 7.26923077,5.51923077 7.26923077,5.68076923 L7.26923077,7.83461538 C7.26923077,7.96923077 7.37692308,8.07692308 7.53846154,8.07692308 C7.67307692,8.07692308 7.80769231,8.21153846 7.80769231,8.37307692 L7.80769231,8.91153846 Z" id="path-5"></path>
    </defs>
    <g id="Page-1" stroke="none" stroke-width="1" fill="none" fill-rule="evenodd">
        <g id="Data-Capture-Overview" transform="translate(0.000000, -188.000000)">
            <rect fill="#FFFFFF" x="0" y="0" width="1280" height="1382"></rect>
            <g id="Group-19-Copy" transform="translate(22.000000, 188.000000)">
                <g id="Group-48">
                    <text id="2,787" font-family="SalesforceSans-Bold, Salesforce Sans" font-size="20" font-weight="bold" fill="#16325C">
                        <tspan x="0" y="23">2,787</tspan>
                    </text>
                    <text id="TOTAL-ATTRIBUTES" font-family="SalesforceSans-Regular, Salesforce Sans" font-size="10" font-weight="normal" fill="#54698D">
                        <tspan x="0" y="41">TOTAL ATTRIBUTES</tspan>
                    </text>
                    <g id="icons/utility/info-copy" transform="translate(96.000000, 29.000000)">
                        <mask id="mask-2" fill="white">
                            <use xlink:href="#path-1"></use>
                        </mask>
                        <use id="Mask" fill="#54698D" xlink:href="#path-1"></use>
                    </g>
                </g>
                <g id="Group-25" transform="translate(161.000000, 0.000000)">
                    <text id="Web" font-family="SalesforceSans-Bold, Salesforce Sans" font-size="20" font-weight="bold" fill="#16325C">
                        <tspan x="0" y="23">Web</tspan>
                    </text>
                    <text id="MOST-ACTIVE-SOURCE" font-family="SalesforceSans-Regular, Salesforce Sans" font-size="10" font-weight="normal" fill="#54698D">
                        <tspan x="3" y="41">MOST ACTIVE SOURCE</tspan>
                    </text>
                    <g id="icons/utility/info-copy" transform="translate(115.000000, 29.000000)">
                        <mask id="mask-4" fill="white">
                            <use xlink:href="#path-3"></use>
                        </mask>
                        <use id="Mask" fill="#54698D" xlink:href="#path-3"></use>
                    </g>
                </g>
                <g id="Group-51" transform="translate(341.000000, 1.000000)">
                    <text id="App" font-family="SalesforceSans-Bold, Salesforce Sans" font-size="20" font-weight="bold" fill="#16325C">
                        <tspan x="0" y="23">App</tspan>
                    </text>
                    <text id="LEAST-ACTIVE-SOURCE" font-family="SalesforceSans-Regular, Salesforce Sans" font-size="10" font-weight="normal" fill="#54698D">
                        <tspan x="0" y="41">LEAST ACTIVE SOURCE</tspan>
                    </text>
                    <g id="icons/utility/info-copy" transform="translate(113.000000, 30.000000)">
                        <mask id="mask-6" fill="white">
                            <use xlink:href="#path-5"></use>
                        </mask>
                        <use id="Mask" fill="#54698D" xlink:href="#path-5"></use>
                    </g>
                </g>
            </g>
            <text id="Last-15-days-(Aug-22" font-family="SalesforceSans-Regular, Salesforce Sans" font-size="14" font-weight="normal" fill="#54698D">
                <tspan x="22" y="333">Last 15 days (Aug 22, 2018 - Sept 5, 2018)</tspan>
            </text>
            <text id="300" opacity="0" font-family="SalesforceSans-Regular, Salesforce Sans" font-size="12" font-weight="normal" fill="#7D98B3">
                <tspan x="223.02" y="348">300</tspan>
            </text>
            <polyline id="line" stroke="#73ACE8" stroke-width="2" transform="translate(668.863281, 404.367188) scale(-1, 1) rotate(2.000000) translate(-668.863281, -404.367188) " points="114.923828 396.661511 190.384766 399.432501 263.248047 396.661511 337.542969 422.588044 411.082031 404.269586 490.167969 418.626485 571.585938 401.872255 654.076172 424.327724 735.238281 434.328945 815.683594 396.661511 896.964844 441.867187 977.846199 430.596198 1060.0532 366.867188 1140.64438 438.417529 1222.80273 429.138662"></polyline>
            <g id="Group-17-Copy" transform="translate(22.000000, 288.000000)" fill="#16325C" font-family="SalesforceSans-Regular, Salesforce Sans" font-size="16" font-weight="normal">
                <text id="Data-Collection-Even">
                    <tspan x="0" y="18">Data Collection Events (DCE) by sources</tspan>
                </text>
            </g>
            <g id="Group-18-Copy" transform="translate(22.000000, 238.000000)" fill="#0070D2" font-family="SalesforceSans-Regular, Salesforce Sans" font-size="12" font-weight="normal">
                <g id="Group-16">
                    <g id="Group-16-Copy-2">
                        <g id="Group-8">
                            <text id="Manage-Attributes">
                                <tspan x="0" y="14">Manage Attributes</tspan>
                            </text>
                        </g>
                    </g>
                </g>
            </g>
        </g>
    </g>
</svg>