<?xml version="1.0" encoding="UTF-8"?>
<svg width="1280px" height="1213px" viewBox="0 0 1280 1213" version="1.1" xmlns="http://www.w3.org/2000/svg" xmlns:xlink="http://www.w3.org/1999/xlink">
    <!-- Generator: Sketch 51.2 (57519) - http://www.bohemiancoding.com/sketch -->
    <title>manage.data-capture.sources</title>
    <desc>Created with Sketch.</desc>
    <defs>
        <path d="M6.46153846,0 C2.88076923,0 0,2.88076923 0,6.46153846 C0,10.0423077 2.88076923,12.9230769 6.46153846,12.9230769 C10.0423077,12.9230769 12.9230769,10.0423077 12.9230769,6.46153846 C12.9230769,2.88076923 10.0423077,0 6.46153846,0 Z M6.46153846,3.25769231 C6.91923077,3.25769231 7.26923077,3.60769231 7.26923077,4.06538462 C7.26923077,4.52307692 6.91923077,4.87307692 6.46153846,4.87307692 C6.00384615,4.87307692 5.65384615,4.52307692 5.65384615,4.06538462 C5.65384615,3.60769231 6.00384615,3.25769231 6.46153846,3.25769231 L6.46153846,3.25769231 Z M7.80769231,8.91153846 C7.80769231,9.04615385 7.7,9.15384615 7.53846154,9.15384615 L5.38461538,9.15384615 C5.25,9.15384615 5.11538462,9.07307692 5.11538462,8.91153846 L5.11538462,8.37307692 C5.11538462,8.23846154 5.22307692,8.07692308 5.38461538,8.07692308 C5.51923077,8.07692308 5.65384615,7.99615385 5.65384615,7.83461538 L5.65384615,6.75769231 C5.65384615,6.62307692 5.54615385,6.46153846 5.38461538,6.46153846 C5.25,6.46153846 5.11538462,6.38076923 5.11538462,6.21923077 L5.11538462,5.68076923 C5.11538462,5.54615385 5.22307692,5.38461538 5.38461538,5.38461538 L7,5.38461538 C7.13461538,5.38461538 7.26923077,5.51923077 7.26923077,5.68076923 L7.26923077,7.83461538 C7.26923077,7.96923077 7.37692308,8.07692308 7.53846154,8.07692308 C7.67307692,8.07692308 7.80769231,8.21153846 7.80769231,8.37307692 L7.80769231,8.91153846 Z" id="path-1"></path>
        <path d="M6.46153846,0 C2.88076923,0 0,2.88076923 0,6.46153846 C0,10.0423077 2.88076923,12.9230769 6.46153846,12.9230769 C10.0423077,12.9230769 12.9230769,10.0423077 12.9230769,6.46153846 C12.9230769,2.88076923 10.0423077,0 6.46153846,0 Z M6.46153846,3.25769231 C6.91923077,3.25769231 7.26923077,3.60769231 7.26923077,4.06538462 C7.26923077,4.52307692 6.91923077,4.87307692 6.46153846,4.87307692 C6.00384615,4.87307692 5.65384615,4.52307692 5.65384615,4.06538462 C5.65384615,3.60769231 6.00384615,3.25769231 6.46153846,3.25769231 L6.46153846,3.25769231 Z M7.80769231,8.91153846 C7.80769231,9.04615385 7.7,9.15384615 7.53846154,9.15384615 L5.38461538,9.15384615 C5.25,9.15384615 5.11538462,9.07307692 5.11538462,8.91153846 L5.11538462,8.37307692 C5.11538462,8.23846154 5.22307692,8.07692308 5.38461538,8.07692308 C5.51923077,8.07692308 5.65384615,7.99615385 5.65384615,7.83461538 L5.65384615,6.75769231 C5.65384615,6.62307692 5.54615385,6.46153846 5.38461538,6.46153846 C5.25,6.46153846 5.11538462,6.38076923 5.11538462,6.21923077 L5.11538462,5.68076923 C5.11538462,5.54615385 5.22307692,5.38461538 5.38461538,5.38461538 L7,5.38461538 C7.13461538,5.38461538 7.26923077,5.51923077 7.26923077,5.68076923 L7.26923077,7.83461538 C7.26923077,7.96923077 7.37692308,8.07692308 7.53846154,8.07692308 C7.67307692,8.07692308 7.80769231,8.21153846 7.80769231,8.37307692 L7.80769231,8.91153846 Z" id="path-3"></path>
        <path d="M6.46153846,0 C2.88076923,0 0,2.88076923 0,6.46153846 C0,10.0423077 2.88076923,12.9230769 6.46153846,12.9230769 C10.0423077,12.9230769 12.9230769,10.0423077 12.9230769,6.46153846 C12.9230769,2.88076923 10.0423077,0 6.46153846,0 Z M6.46153846,3.25769231 C6.91923077,3.25769231 7.26923077,3.60769231 7.26923077,4.06538462 C7.26923077,4.52307692 6.91923077,4.87307692 6.46153846,4.87307692 C6.00384615,4.87307692 5.65384615,4.52307692 5.65384615,4.06538462 C5.65384615,3.60769231 6.00384615,3.25769231 6.46153846,3.25769231 L6.46153846,3.25769231 Z M7.80769231,8.91153846 C7.80769231,9.04615385 7.7,9.15384615 7.53846154,9.15384615 L5.38461538,9.15384615 C5.25,9.15384615 5.11538462,9.07307692 5.11538462,8.91153846 L5.11538462,8.37307692 C5.11538462,8.23846154 5.22307692,8.07692308 5.38461538,8.07692308 C5.51923077,8.07692308 5.65384615,7.99615385 5.65384615,7.83461538 L5.65384615,6.75769231 C5.65384615,6.62307692 5.54615385,6.46153846 5.38461538,6.46153846 C5.25,6.46153846 5.11538462,6.38076923 5.11538462,6.21923077 L5.11538462,5.68076923 C5.11538462,5.54615385 5.22307692,5.38461538 5.38461538,5.38461538 L7,5.38461538 C7.13461538,5.38461538 7.26923077,5.51923077 7.26923077,5.68076923 L7.26923077,7.83461538 C7.26923077,7.96923077 7.37692308,8.07692308 7.53846154,8.07692308 C7.67307692,8.07692308 7.80769231,8.21153846 7.80769231,8.37307692 L7.80769231,8.91153846 Z" id="path-5"></path>
        <path d="M7.10501396,5.84615385 C5.90501396,5.84615385 4.95116781,6.8 4.95116781,8 C4.95116781,9.2 5.90501396,10.1538462 7.10501396,10.1538462 C8.30501396,10.1538462 9.25886011,9.2 9.25886011,8 C9.25886011,6.8 8.30501396,5.84615385 7.10501396,5.84615385 Z M13.5665524,9.93846154 L12.4280909,8.98461538 C12.4896293,8.64615385 12.5203986,8.27692308 12.5203986,7.93846154 C12.5203986,7.6 12.4896293,7.23076923 12.4280909,6.89230769 L13.5665524,5.93846154 C13.9357832,5.63076923 14.0588601,5.07692308 13.8127063,4.64615385 L13.3203986,3.78461538 C13.1357832,3.47692308 12.7973217,3.29230769 12.4280909,3.29230769 C12.305014,3.29230769 12.181937,3.32307692 12.0896293,3.35384615 L10.6742447,3.87692308 C10.1203986,3.38461538 9.50501396,3.04615385 8.85886011,2.83076923 L8.61270627,1.38461538 C8.52039857,0.892307692 8.08962934,0.615384615 7.59732165,0.615384615 L6.61270627,0.615384615 C6.12039857,0.615384615 5.68962934,0.892307692 5.59732165,1.38461538 L5.35116781,2.8 C4.67424473,3.01538462 4.05886011,3.38461538 3.50501396,3.84615385 L2.08962934,3.32307692 C1.96655242,3.29230769 1.87424473,3.26153846 1.75116781,3.26153846 C1.38193704,3.26153846 1.0434755,3.44615385 0.858860113,3.75384615 L0.366552421,4.61538462 C0.120398575,5.04615385 0.212706267,5.6 0.612706267,5.90769231 L1.75116781,6.86153846 C1.68962934,7.2 1.65886011,7.56923077 1.65886011,7.90769231 C1.65886011,8.27692308 1.68962934,8.61538462 1.75116781,8.95384615 L0.612706267,9.90769231 C0.243475498,10.2153846 0.120398575,10.7692308 0.366552421,11.2 L0.858860113,12.0615385 C1.0434755,12.3692308 1.38193704,12.5538462 1.75116781,12.5538462 C1.87424473,12.5538462 1.99732165,12.5230769 2.08962934,12.4923077 L3.50501396,11.9692308 C4.05886011,12.4615385 4.67424473,12.8 5.32039857,13.0153846 L5.56655242,14.4923077 C5.65886011,14.9846154 6.05886011,15.3230769 6.58193704,15.3230769 L7.56655242,15.3230769 C8.05886011,15.3230769 8.48962934,14.9538462 8.58193704,14.4615385 L8.82809088,12.9846154 C9.53578319,12.7384615 10.181937,12.3692308 10.7357832,11.8461538 L12.0588601,12.3692308 C12.181937,12.4 12.305014,12.4307692 12.4280909,12.4307692 C12.7973217,12.4307692 13.1357832,12.2461538 13.3203986,11.9384615 L13.781937,11.1384615 C14.0588601,10.8 13.9357832,10.2461538 13.5665524,9.93846154 L13.5665524,9.93846154 Z M7.10501396,11.3846154 C5.22809088,11.3846154 3.72039857,9.87692308 3.72039857,8 C3.72039857,6.12307692 5.22809088,4.61538462 7.10501396,4.61538462 C8.98193704,4.61538462 10.4896293,6.12307692 10.4896293,8 C10.4896293,9.87692308 8.98193704,11.3846154 7.10501396,11.3846154 Z" id="path-7"></path>
        <path d="M7.10501396,5.84615385 C5.90501396,5.84615385 4.95116781,6.8 4.95116781,8 C4.95116781,9.2 5.90501396,10.1538462 7.10501396,10.1538462 C8.30501396,10.1538462 9.25886011,9.2 9.25886011,8 C9.25886011,6.8 8.30501396,5.84615385 7.10501396,5.84615385 Z M13.5665524,9.93846154 L12.4280909,8.98461538 C12.4896293,8.64615385 12.5203986,8.27692308 12.5203986,7.93846154 C12.5203986,7.6 12.4896293,7.23076923 12.4280909,6.89230769 L13.5665524,5.93846154 C13.9357832,5.63076923 14.0588601,5.07692308 13.8127063,4.64615385 L13.3203986,3.78461538 C13.1357832,3.47692308 12.7973217,3.29230769 12.4280909,3.29230769 C12.305014,3.29230769 12.181937,3.32307692 12.0896293,3.35384615 L10.6742447,3.87692308 C10.1203986,3.38461538 9.50501396,3.04615385 8.85886011,2.83076923 L8.61270627,1.38461538 C8.52039857,0.892307692 8.08962934,0.615384615 7.59732165,0.615384615 L6.61270627,0.615384615 C6.12039857,0.615384615 5.68962934,0.892307692 5.59732165,1.38461538 L5.35116781,2.8 C4.67424473,3.01538462 4.05886011,3.38461538 3.50501396,3.84615385 L2.08962934,3.32307692 C1.96655242,3.29230769 1.87424473,3.26153846 1.75116781,3.26153846 C1.38193704,3.26153846 1.0434755,3.44615385 0.858860113,3.75384615 L0.366552421,4.61538462 C0.120398575,5.04615385 0.212706267,5.6 0.612706267,5.90769231 L1.75116781,6.86153846 C1.68962934,7.2 1.65886011,7.56923077 1.65886011,7.90769231 C1.65886011,8.27692308 1.68962934,8.61538462 1.75116781,8.95384615 L0.612706267,9.90769231 C0.243475498,10.2153846 0.120398575,10.7692308 0.366552421,11.2 L0.858860113,12.0615385 C1.0434755,12.3692308 1.38193704,12.5538462 1.75116781,12.5538462 C1.87424473,12.5538462 1.99732165,12.5230769 2.08962934,12.4923077 L3.50501396,11.9692308 C4.05886011,12.4615385 4.67424473,12.8 5.32039857,13.0153846 L5.56655242,14.4923077 C5.65886011,14.9846154 6.05886011,15.3230769 6.58193704,15.3230769 L7.56655242,15.3230769 C8.05886011,15.3230769 8.48962934,14.9538462 8.58193704,14.4615385 L8.82809088,12.9846154 C9.53578319,12.7384615 10.181937,12.3692308 10.7357832,11.8461538 L12.0588601,12.3692308 C12.181937,12.4 12.305014,12.4307692 12.4280909,12.4307692 C12.7973217,12.4307692 13.1357832,12.2461538 13.3203986,11.9384615 L13.781937,11.1384615 C14.0588601,10.8 13.9357832,10.2461538 13.5665524,9.93846154 L13.5665524,9.93846154 Z M7.10501396,11.3846154 C5.22809088,11.3846154 3.72039857,9.87692308 3.72039857,8 C3.72039857,6.12307692 5.22809088,4.61538462 7.10501396,4.61538462 C8.98193704,4.61538462 10.4896293,6.12307692 10.4896293,8 C10.4896293,9.87692308 8.98193704,11.3846154 7.10501396,11.3846154 Z" id="path-9"></path>
        <path d="M7.10501396,5.84615385 C5.90501396,5.84615385 4.95116781,6.8 4.95116781,8 C4.95116781,9.2 5.90501396,10.1538462 7.10501396,10.1538462 C8.30501396,10.1538462 9.25886011,9.2 9.25886011,8 C9.25886011,6.8 8.30501396,5.84615385 7.10501396,5.84615385 Z M13.5665524,9.93846154 L12.4280909,8.98461538 C12.4896293,8.64615385 12.5203986,8.27692308 12.5203986,7.93846154 C12.5203986,7.6 12.4896293,7.23076923 12.4280909,6.89230769 L13.5665524,5.93846154 C13.9357832,5.63076923 14.0588601,5.07692308 13.8127063,4.64615385 L13.3203986,3.78461538 C13.1357832,3.47692308 12.7973217,3.29230769 12.4280909,3.29230769 C12.305014,3.29230769 12.181937,3.32307692 12.0896293,3.35384615 L10.6742447,3.87692308 C10.1203986,3.38461538 9.50501396,3.04615385 8.85886011,2.83076923 L8.61270627,1.38461538 C8.52039857,0.892307692 8.08962934,0.615384615 7.59732165,0.615384615 L6.61270627,0.615384615 C6.12039857,0.615384615 5.68962934,0.892307692 5.59732165,1.38461538 L5.35116781,2.8 C4.67424473,3.01538462 4.05886011,3.38461538 3.50501396,3.84615385 L2.08962934,3.32307692 C1.96655242,3.29230769 1.87424473,3.26153846 1.75116781,3.26153846 C1.38193704,3.26153846 1.0434755,3.44615385 0.858860113,3.75384615 L0.366552421,4.61538462 C0.120398575,5.04615385 0.212706267,5.6 0.612706267,5.90769231 L1.75116781,6.86153846 C1.68962934,7.2 1.65886011,7.56923077 1.65886011,7.90769231 C1.65886011,8.27692308 1.68962934,8.61538462 1.75116781,8.95384615 L0.612706267,9.90769231 C0.243475498,10.2153846 0.120398575,10.7692308 0.366552421,11.2 L0.858860113,12.0615385 C1.0434755,12.3692308 1.38193704,12.5538462 1.75116781,12.5538462 C1.87424473,12.5538462 1.99732165,12.5230769 2.08962934,12.4923077 L3.50501396,11.9692308 C4.05886011,12.4615385 4.67424473,12.8 5.32039857,13.0153846 L5.56655242,14.4923077 C5.65886011,14.9846154 6.05886011,15.3230769 6.58193704,15.3230769 L7.56655242,15.3230769 C8.05886011,15.3230769 8.48962934,14.9538462 8.58193704,14.4615385 L8.82809088,12.9846154 C9.53578319,12.7384615 10.181937,12.3692308 10.7357832,11.8461538 L12.0588601,12.3692308 C12.181937,12.4 12.305014,12.4307692 12.4280909,12.4307692 C12.7973217,12.4307692 13.1357832,12.2461538 13.3203986,11.9384615 L13.781937,11.1384615 C14.0588601,10.8 13.9357832,10.2461538 13.5665524,9.93846154 L13.5665524,9.93846154 Z M7.10501396,11.3846154 C5.22809088,11.3846154 3.72039857,9.87692308 3.72039857,8 C3.72039857,6.12307692 5.22809088,4.61538462 7.10501396,4.61538462 C8.98193704,4.61538462 10.4896293,6.12307692 10.4896293,8 C10.4896293,9.87692308 8.98193704,11.3846154 7.10501396,11.3846154 Z" id="path-11"></path>
        <path d="M7.10501396,5.84615385 C5.90501396,5.84615385 4.95116781,6.8 4.95116781,8 C4.95116781,9.2 5.90501396,10.1538462 7.10501396,10.1538462 C8.30501396,10.1538462 9.25886011,9.2 9.25886011,8 C9.25886011,6.8 8.30501396,5.84615385 7.10501396,5.84615385 Z M13.5665524,9.93846154 L12.4280909,8.98461538 C12.4896293,8.64615385 12.5203986,8.27692308 12.5203986,7.93846154 C12.5203986,7.6 12.4896293,7.23076923 12.4280909,6.89230769 L13.5665524,5.93846154 C13.9357832,5.63076923 14.0588601,5.07692308 13.8127063,4.64615385 L13.3203986,3.78461538 C13.1357832,3.47692308 12.7973217,3.29230769 12.4280909,3.29230769 C12.305014,3.29230769 12.181937,3.32307692 12.0896293,3.35384615 L10.6742447,3.87692308 C10.1203986,3.38461538 9.50501396,3.04615385 8.85886011,2.83076923 L8.61270627,1.38461538 C8.52039857,0.892307692 8.08962934,0.615384615 7.59732165,0.615384615 L6.61270627,0.615384615 C6.12039857,0.615384615 5.68962934,0.892307692 5.59732165,1.38461538 L5.35116781,2.8 C4.67424473,3.01538462 4.05886011,3.38461538 3.50501396,3.84615385 L2.08962934,3.32307692 C1.96655242,3.29230769 1.87424473,3.26153846 1.75116781,3.26153846 C1.38193704,3.26153846 1.0434755,3.44615385 0.858860113,3.75384615 L0.366552421,4.61538462 C0.120398575,5.04615385 0.212706267,5.6 0.612706267,5.90769231 L1.75116781,6.86153846 C1.68962934,7.2 1.65886011,7.56923077 1.65886011,7.90769231 C1.65886011,8.27692308 1.68962934,8.61538462 1.75116781,8.95384615 L0.612706267,9.90769231 C0.243475498,10.2153846 0.120398575,10.7692308 0.366552421,11.2 L0.858860113,12.0615385 C1.0434755,12.3692308 1.38193704,12.5538462 1.75116781,12.5538462 C1.87424473,12.5538462 1.99732165,12.5230769 2.08962934,12.4923077 L3.50501396,11.9692308 C4.05886011,12.4615385 4.67424473,12.8 5.32039857,13.0153846 L5.56655242,14.4923077 C5.65886011,14.9846154 6.05886011,15.3230769 6.58193704,15.3230769 L7.56655242,15.3230769 C8.05886011,15.3230769 8.48962934,14.9538462 8.58193704,14.4615385 L8.82809088,12.9846154 C9.53578319,12.7384615 10.181937,12.3692308 10.7357832,11.8461538 L12.0588601,12.3692308 C12.181937,12.4 12.305014,12.4307692 12.4280909,12.4307692 C12.7973217,12.4307692 13.1357832,12.2461538 13.3203986,11.9384615 L13.781937,11.1384615 C14.0588601,10.8 13.9357832,10.2461538 13.5665524,9.93846154 L13.5665524,9.93846154 Z M7.10501396,11.3846154 C5.22809088,11.3846154 3.72039857,9.87692308 3.72039857,8 C3.72039857,6.12307692 5.22809088,4.61538462 7.10501396,4.61538462 C8.98193704,4.61538462 10.4896293,6.12307692 10.4896293,8 C10.4896293,9.87692308 8.98193704,11.3846154 7.10501396,11.3846154 Z" id="path-13"></path>
        <path d="M7.10501396,5.84615385 C5.90501396,5.84615385 4.95116781,6.8 4.95116781,8 C4.95116781,9.2 5.90501396,10.1538462 7.10501396,10.1538462 C8.30501396,10.1538462 9.25886011,9.2 9.25886011,8 C9.25886011,6.8 8.30501396,5.84615385 7.10501396,5.84615385 Z M13.5665524,9.93846154 L12.4280909,8.98461538 C12.4896293,8.64615385 12.5203986,8.27692308 12.5203986,7.93846154 C12.5203986,7.6 12.4896293,7.23076923 12.4280909,6.89230769 L13.5665524,5.93846154 C13.9357832,5.63076923 14.0588601,5.07692308 13.8127063,4.64615385 L13.3203986,3.78461538 C13.1357832,3.47692308 12.7973217,3.29230769 12.4280909,3.29230769 C12.305014,3.29230769 12.181937,3.32307692 12.0896293,3.35384615 L10.6742447,3.87692308 C10.1203986,3.38461538 9.50501396,3.04615385 8.85886011,2.83076923 L8.61270627,1.38461538 C8.52039857,0.892307692 8.08962934,0.615384615 7.59732165,0.615384615 L6.61270627,0.615384615 C6.12039857,0.615384615 5.68962934,0.892307692 5.59732165,1.38461538 L5.35116781,2.8 C4.67424473,3.01538462 4.05886011,3.38461538 3.50501396,3.84615385 L2.08962934,3.32307692 C1.96655242,3.29230769 1.87424473,3.26153846 1.75116781,3.26153846 C1.38193704,3.26153846 1.0434755,3.44615385 0.858860113,3.75384615 L0.366552421,4.61538462 C0.120398575,5.04615385 0.212706267,5.6 0.612706267,5.90769231 L1.75116781,6.86153846 C1.68962934,7.2 1.65886011,7.56923077 1.65886011,7.90769231 C1.65886011,8.27692308 1.68962934,8.61538462 1.75116781,8.95384615 L0.612706267,9.90769231 C0.243475498,10.2153846 0.120398575,10.7692308 0.366552421,11.2 L0.858860113,12.0615385 C1.0434755,12.3692308 1.38193704,12.5538462 1.75116781,12.5538462 C1.87424473,12.5538462 1.99732165,12.5230769 2.08962934,12.4923077 L3.50501396,11.9692308 C4.05886011,12.4615385 4.67424473,12.8 5.32039857,13.0153846 L5.56655242,14.4923077 C5.65886011,14.9846154 6.05886011,15.3230769 6.58193704,15.3230769 L7.56655242,15.3230769 C8.05886011,15.3230769 8.48962934,14.9538462 8.58193704,14.4615385 L8.82809088,12.9846154 C9.53578319,12.7384615 10.181937,12.3692308 10.7357832,11.8461538 L12.0588601,12.3692308 C12.181937,12.4 12.305014,12.4307692 12.4280909,12.4307692 C12.7973217,12.4307692 13.1357832,12.2461538 13.3203986,11.9384615 L13.781937,11.1384615 C14.0588601,10.8 13.9357832,10.2461538 13.5665524,9.93846154 L13.5665524,9.93846154 Z M7.10501396,11.3846154 C5.22809088,11.3846154 3.72039857,9.87692308 3.72039857,8 C3.72039857,6.12307692 5.22809088,4.61538462 7.10501396,4.61538462 C8.98193704,4.61538462 10.4896293,6.12307692 10.4896293,8 C10.4896293,9.87692308 8.98193704,11.3846154 7.10501396,11.3846154 Z" id="path-15"></path>
    </defs>
    <g id="Page-1" stroke="none" stroke-width="1" fill="none" fill-rule="evenodd">
        <g id="Data-Capture-Overview" transform="translate(0.000000, -168.000000)">
            <rect fill="#FFFFFF" x="0" y="0" width="1280" height="1382"></rect>
            <g id="Group-19-Copy" transform="translate(22.000000, 188.000000)">
                <g id="Group-48">
                    <text id="2,787" font-family="SalesforceSans-Bold, Salesforce Sans" font-size="20" font-weight="bold" fill="#16325C">
                        <tspan x="0" y="23">2,787</tspan>
                    </text>
                    <text id="TOTAL-ATTRIBUTES" font-family="SalesforceSans-Regular, Salesforce Sans" font-size="10" font-weight="normal" fill="#54698D">
                        <tspan x="0" y="41">TOTAL ATTRIBUTES</tspan>
                    </text>
                    <g id="icons/utility/info-copy" transform="translate(96.000000, 29.000000)">
                        <mask id="mask-2" fill="white">
                            <use xlink:href="#path-1"></use>
                        </mask>
                        <use id="Mask" fill="#54698D" xlink:href="#path-1"></use>
                    </g>
                </g>
                <g id="Group-25" transform="translate(161.000000, 0.000000)">
                    <text id="Web" font-family="SalesforceSans-Bold, Salesforce Sans" font-size="20" font-weight="bold" fill="#16325C">
                        <tspan x="0" y="23">Web</tspan>
                    </text>
                    <text id="MOST-ACTIVE-SOURCE" font-family="SalesforceSans-Regular, Salesforce Sans" font-size="10" font-weight="normal" fill="#54698D">
                        <tspan x="3" y="41">MOST ACTIVE SOURCE</tspan>
                    </text>
                    <g id="icons/utility/info-copy" transform="translate(115.000000, 29.000000)">
                        <mask id="mask-4" fill="white">
                            <use xlink:href="#path-3"></use>
                        </mask>
                        <use id="Mask" fill="#54698D" xlink:href="#path-3"></use>
                    </g>
                </g>
                <g id="Group-51" transform="translate(341.000000, 1.000000)">
                    <text id="App" font-family="SalesforceSans-Bold, Salesforce Sans" font-size="20" font-weight="bold" fill="#16325C">
                        <tspan x="0" y="23">App</tspan>
                    </text>
                    <text id="LEAST-ACTIVE-SOURCE" font-family="SalesforceSans-Regular, Salesforce Sans" font-size="10" font-weight="normal" fill="#54698D">
                        <tspan x="0" y="41">LEAST ACTIVE SOURCE</tspan>
                    </text>
                    <g id="icons/utility/info-copy" transform="translate(113.000000, 30.000000)">
                        <mask id="mask-6" fill="white">
                            <use xlink:href="#path-5"></use>
                        </mask>
                        <use id="Mask" fill="#54698D" xlink:href="#path-5"></use>
                    </g>
                </g>
            </g>
            <path d="M16.5,731.5 L1263.5,731.5 L1263.5,661.00581 C1263.5,659.072729 1261.92816,657.5 1259.99309,657.5 L20.0069082,657.5 C18.0619097,657.5 16.5,659.064945 16.5,661.00581 L16.5,731.5 Z" id="Rectangle" stroke="#D8DDE6" fill="#F7F9FB"></path>
            <path d="M326.5,657.5 L326.5,730.5" id="Line-2" stroke="#D8DDE6" stroke-linecap="square"></path>
            <g id="Group-19-Copy-2" transform="translate(16.000000, 657.000000)">
                <rect id="Rectangle" x="0" y="0" width="304" height="75" rx="4"></rect>
                <g id="Group-36" transform="translate(16.000000, 29.000000)" fill="#54698D">
                    <g id="Group-33">
                        <g id="Page-1-Copy-3">
                            <g id="custom68">
                                <path d="M10.1137124,0 C4.49498328,0 0,4.49498328 0,10.1137124 C0,15.7324415 4.49498328,20.2274247 10.1137124,20.2274247 C15.7324415,20.2274247 20.2274247,15.7324415 20.2274247,10.1137124 C20.2274247,4.49498328 15.7324415,0 10.1137124,0 Z M18.1204013,9.13043478 L15.451505,9.13043478 C15.3110368,6.74247492 14.8896321,4.63545151 14.0468227,3.090301 C16.2943144,4.21404682 17.8394649,6.46153846 18.1204013,9.13043478 Z M9.13043478,2.52842809 L9.13043478,9.13043478 L6.74247492,9.13043478 C6.88294314,5.89966555 8.00668896,3.37123746 9.13043478,2.52842809 Z M9.13043478,11.09699 L9.13043478,17.6989967 C8.00668896,16.8561873 6.88294314,14.3277592 6.74247492,11.09699 L9.13043478,11.09699 Z M11.09699,17.6989967 L11.09699,11.09699 L13.4849498,11.09699 C13.3444816,14.3277592 12.2207358,16.8561873 11.09699,17.6989967 Z M11.09699,9.13043478 L11.09699,2.52842809 C12.2207358,3.37123746 13.3444816,5.89966555 13.4849498,9.13043478 L11.09699,9.13043478 L11.09699,9.13043478 Z M6.18060201,3.090301 C5.33779264,4.63545151 4.91638796,6.74247492 4.77591973,9.13043478 L2.10702341,9.13043478 C2.38795987,6.46153846 3.93311037,4.21404682 6.18060201,3.090301 Z M2.10702341,11.09699 L4.77591973,11.09699 C4.91638796,13.4849498 5.33779264,15.5919732 6.18060201,17.1371237 C3.93311037,16.0133779 2.38795987,13.7658863 2.10702341,11.09699 Z M14.0468227,17.1371237 C14.8896321,15.5919732 15.3110368,13.4849498 15.451505,11.09699 L18.1204013,11.09699 C17.8394649,13.7658863 16.2943144,16.0133779 14.0468227,17.1371237 Z" id="Shape"></path>
                            </g>
                        </g>
                    </g>
                </g>
                <g id="Group-48" transform="translate(230.000000, 28.000000)" fill="#16325C" font-family="SalesforceSans-Bold, Salesforce Sans" font-size="18" font-weight="bold">
                    <text id="10">
                        <tspan x="0" y="20">10</tspan>
                    </text>
                </g>
                <text id="Web" font-family="SalesforceSans-Regular, Salesforce Sans" font-size="18" font-weight="normal" fill="#16325C">
                    <tspan x="48" y="48">Web</tspan>
                </text>
            </g>
            <g id="Group-19-Copy-3" transform="translate(330.000000, 657.000000)">
                <rect id="Rectangle" x="0" y="0" width="304" height="75" rx="4"></rect>
                <g id="Group-36" transform="translate(12.000000, 30.000000)" fill="#54698D" fill-rule="nonzero">
                    <g id="Group-3">
                        <g id="icons/utility/phone_portrait">
                            <path d="M13.825,1.575 C13.825,0.7 13.125,0 12.25,0 L1.75,0 C0.875,0 0.175,0.7 0.175,1.575 L0.175,19.425 C0.175,20.3 0.875,21 1.75,21 L12.25,21 C13.125,21 13.825,20.3 13.825,19.425 L13.825,1.575 Z M7,20.2125 C6.3,20.2125 5.775,19.6875 5.775,18.9875 C5.775,18.2875 6.3,17.7625 7,17.7625 C7.7,17.7625 8.225,18.2875 8.225,18.9875 C8.225,19.6875 7.7,20.2125 7,20.2125 Z M11.4625,16.3625 C11.4625,16.7125 11.2,16.975 10.85,16.975 L3.15,16.975 C2.8,16.975 2.5375,16.7125 2.5375,16.3625 L2.5375,3.85 C2.5375,3.5 2.8,3.2375 3.15,3.2375 L10.85,3.2375 C11.2,3.2375 11.4625,3.5 11.4625,3.85 L11.4625,16.3625 Z" id="Shape"></path>
                        </g>
                    </g>
                </g>
                <g id="Group-48" transform="translate(246.000000, 29.000000)" fill="#16325C" font-family="SalesforceSans-Bold, Salesforce Sans" font-size="18" font-weight="bold">
                    <text id="12">
                        <tspan x="0" y="20">12</tspan>
                    </text>
                </g>
                <text id="App" font-family="SalesforceSans-Regular, Salesforce Sans" font-size="18" font-weight="normal" fill="#16325C">
                    <tspan x="35" y="49">App</tspan>
                </text>
            </g>
            <g id="Group-19-Copy-4" transform="translate(645.000000, 657.000000)">
                <rect id="Rectangle" stroke="#D8DDE6" fill="#FFFFFF" x="0.5" y="0.5" width="303" height="74" rx="4"></rect>
                <g id="Group-36" transform="translate(18.000000, 30.000000)" fill="#54698D" fill-rule="nonzero">
                    <g id="Group-3">
                        <g id="icons/utility/file">
                            <path d="M2.19201031,14.3530432 L2.19201031,4.31562252 C1.10273196,4.31562252 0.195,5.18844171 0.195,6.14854282 L0.195,18.0188838 C0.195,19.0662669 1.10273196,19.939086 2.19201031,19.939086 L11.9047423,19.939086 C12.9940206,19.939086 13.9017526,19.0662669 13.9017526,18.1061657 L6.09525773,18.1061657 C3.91670103,18.1061657 2.19201031,18.1061657 2.19201031,14.3530432 Z M17.1695876,6.14854282 L13.9017526,6.14854282 C12.8124742,6.14854282 11.9047423,5.36300555 11.9047423,4.31562252 L11.9047423,1.17347343 C11.9047423,0.824345757 11.6324227,0.5625 11.2693299,0.5625 L6.09525773,0.5625 C5.00597938,0.5625 4.09824742,1.43531919 4.09824742,2.3954203 L4.09824742,14.2657613 C4.09824742,15.3131443 5.00597938,16.0986816 6.09525773,16.0986816 L15.8079897,16.0986816 C16.897268,16.0986816 17.805,15.3131443 17.805,14.2657613 L17.805,6.84679818 C17.805,6.4976705 17.5326804,6.14854282 17.1695876,6.14854282 Z M17.7142268,3.53008525 L14.6279381,0.737063838 C14.5371649,0.649781919 14.4463918,0.5625 14.3556186,0.5625 C14.083299,0.5625 13.9017526,0.824345757 13.9017526,0.998909596 L13.9017526,3.09367565 C13.9017526,3.79193101 14.4463918,4.31562252 15.1725773,4.31562252 L17.351134,4.31562252 C17.6234536,4.31562252 17.805,4.14105868 17.805,3.87921293 C17.805,3.79193101 17.7142268,3.70464909 17.7142268,3.53008525 Z" id="Shape"></path>
                        </g>
                    </g>
                </g>
                <g id="Group-48" transform="translate(233.000000, 28.000000)" fill="#16325C" font-family="SalesforceSans-Bold, Salesforce Sans" font-size="18" font-weight="bold">
                    <text id="5">
                        <tspan x="0" y="20">5</tspan>
                    </text>
                </g>
                <g id="Group-48-Copy" transform="translate(540.000000, 27.000000)" fill="#16325C" font-family="SalesforceSans-Bold, Salesforce Sans" font-size="18" font-weight="bold">
                    <text id="3">
                        <tspan x="0" y="20">3</tspan>
                    </text>
                </g>
                <text id="Offline-Files" font-family="SalesforceSans-Regular, Salesforce Sans" font-size="18" font-weight="normal" fill="#16325C">
                    <tspan x="50" y="48">Offline Files</tspan>
                </text>
            </g>
            <g id="Group-19-Copy-5" transform="translate(968.000000, 684.000000)">
                <g id="Group-36" transform="translate(0.000000, 2.000000)" fill="#54698D">
                    <g id="Group-3">
                        <g id="custom14">
                            <path d="M23.1646192,2.975 L20.8255528,2.975 C20.3243243,2.975 19.8230958,2.8 19.3218673,2.45 L17.4840295,0.7 C16.982801,0.35 16.4815725,0 15.980344,0 L11.3022113,0 C10.6339066,0 10.1326781,0.35 9.63144963,0.7 L7.12530713,2.975 C6.95823096,3.15 6.95823096,3.5 7.12530713,3.675 L7.96068796,4.375 C8.46191646,4.9 9.13022113,4.9 9.63144963,4.55 L11.8034398,3.15 C12.1375921,2.975 12.4717445,2.975 12.8058968,3.325 L19.6560197,10.325 C19.8230958,10.5 19.990172,10.675 19.990172,11.025 L19.990172,12.95 C19.990172,13.3 20.3243243,14 20.8255528,14 L23.1646192,14 C23.6658477,14 24,13.475 24,13.125 L24,3.85 C24,3.325 23.6658477,2.975 23.1646192,2.975 Z M16.7577413,11.1930187 L12.3118099,6.69738202 L11.1148284,7.59650936 C10.6018363,7.9561603 9.9178469,8.13598577 9.23385746,8.13598577 C8.2078733,8.13598577 7.35288649,7.77633483 6.66889705,7.23685843 L5.12992081,5.79825468 C4.78792609,5.43860374 4.44593137,5.07895281 4.44593137,4.71930187 C4.44593137,4.17982547 4.10393665,4 3.59094457,4 L0.854986802,4 C0.341994721,4 0,4.17982547 0,4.71930187 L0,12.6316225 C0,12.9912734 0.341994721,13.3509243 0.854986802,13.3509243 L2.39396304,13.3509243 C2.56496041,13.3509243 2.73595777,12.9912734 2.90695513,12.8114479 C3.59094457,11.9123206 4.44593137,11.3728442 5.47191553,11.1930187 C6.32690233,11.1930187 7.35288649,11.5526697 8.2078733,12.2719715 L13.3377941,17.1272592 C13.6797888,17.6667356 14.0217835,18.0263865 14.1927809,18.7456884 C14.3637783,18.9255139 14.705773,19.1053393 14.8767703,18.9255139 L16.7577413,16.7676082 C17.7837255,15.8684809 18.4677149,13.3509243 17.6127281,12.2719715 L16.7577413,11.1930187 L16.7577413,11.1930187 Z M5.85285911,13.3384872 C5.38224743,12.7778887 4.59789462,12.9647549 4.2841535,13.5253534 C3.81354182,14.0859519 3.97041238,15.0202827 4.44102406,15.5808812 L9.14714089,20.6262677 C9.30401145,21 9.61775257,21 9.9314937,21 C10.2452348,21 10.5589759,20.8131338 10.7158465,20.4394015 C11.1864582,19.878803 11.0295876,18.9444722 10.5589759,18.3838737 L5.85285911,13.3384872 L5.85285911,13.3384872 Z" id="Shape"></path>
                        </g>
                    </g>
                </g>
                <text id="Partners" font-family="SalesforceSans-Regular, Salesforce Sans" font-size="18" font-weight="normal" fill="#16325C">
                    <tspan x="35" y="20">Partners</tspan>
                </text>
            </g>
            <g id="Group-17" transform="translate(30.000000, 745.000000)" font-family="SalesforceSans-Regular, Salesforce Sans" font-weight="normal">
                <text id="Offline-File-Sources" font-size="16" fill="#16325C">
                    <tspan x="0" y="18">Offline File Sources</tspan>
                </text>
                <text id="Use-existing-or-crea" font-size="12" fill="#4F6A92">
                    <tspan x="1" y="38">Use existing or create new cofigurations to import offline files into DMP.</tspan>
                </text>
            </g>
            <g id="Folder-without-issues" transform="translate(440.000000, 798.000000)">
                <rect id="Rectangle" fill="#F7F9FB" fill-rule="evenodd" x="0" y="0" width="400" height="112"></rect>
                <g id="icons/utility/settings" stroke-width="1" fill-rule="evenodd" transform="translate(370.000000, 16.000000)">
                    <mask id="mask-8" fill="white">
                        <use xlink:href="#path-7"></use>
                    </mask>
                    <use id="Mask" fill="#54698D" xlink:href="#path-7"></use>
                </g>
                <g id="Group" stroke-width="1" fill-rule="evenodd" transform="translate(24.000000, 12.000000)">
                    <g id="Title" fill="#0070D2" font-family="SalesforceSans-Regular, Salesforce Sans" font-size="18" font-weight="normal">
                        <text id="Configuration-2">
                            <tspan x="0" y="20">Spending Habits</tspan>
                        </text>
                    </g>
                    <text id="LAST-PROCESSED:" font-family="SalesforceSans-Regular, Salesforce Sans" font-size="12" font-weight="normal" fill="#4F6A92">
                        <tspan x="1" y="86">LAST PROCESSED:</tspan>
                    </text>
                    <text id="04/28/2017-12:00-AM" font-family="SalesforceSans-Bold, Salesforce Sans" font-size="12" font-weight="bold" fill="#16325C">
                        <tspan x="107" y="86">04/28/2017 12:00 AM</tspan>
                    </text>
                    <text id="IMPORT-TYPE:" font-family="SalesforceSans-Regular, Salesforce Sans" font-size="12" font-weight="normal" fill="#4F6A92">
                        <tspan x="1" y="65">IMPORT TYPE:</tspan>
                    </text>
                    <text id="Platform-Segments" font-family="SalesforceSans-Bold, Salesforce Sans" font-size="12" font-weight="bold" fill="#16325C">
                        <tspan x="87" y="65">User Attribute Data</tspan>
                    </text>
                </g>
                <g id="Group-2" stroke-width="1" fill-rule="evenodd" transform="translate(51.000000, 124.000000)" font-family="SalesforceSans-Regular, Salesforce Sans" font-weight="normal">
                    <g id="Group-7-Copy-8">
                        <text id="RECEIVED-RECORDS" font-size="12" fill="#4F6A92">
                            <tspan x="0" y="56">RECEIVED RECORDS</tspan>
                        </text>
                        <text id="999" font-size="28" fill="#16325C">
                            <tspan x="0" y="32">623K</tspan>
                        </text>
                    </g>
                    <g id="Group-7-Copy-9" transform="translate(145.000000, 0.000000)">
                        <text id="MATCHED-RECORDS" font-size="12" fill="#4F6A92">
                            <tspan x="0" y="56">MATCHED RECORDS</tspan>
                        </text>
                        <text id="100" font-size="28" fill="#16325C">
                            <tspan x="0" y="32">210K</tspan>
                        </text>
                    </g>
                </g>
                <rect id="Rectangle-13-Copy" stroke="#E0E5EE" stroke-width="1" x="0.5" y="0.5" width="399" height="195" rx="4"></rect>
            </g>
            <g id="Folder-without-issues" transform="translate(30.000000, 798.000000)">
                <rect id="Rectangle" fill="#F7F9FB" fill-rule="evenodd" x="0" y="0" width="400" height="112"></rect>
                <g id="icons/utility/settings" stroke-width="1" fill-rule="evenodd" transform="translate(370.000000, 16.000000)">
                    <mask id="mask-10" fill="white">
                        <use xlink:href="#path-9"></use>
                    </mask>
                    <use id="Mask" fill="#54698D" xlink:href="#path-9"></use>
                </g>
                <g id="Group" stroke-width="1" fill-rule="evenodd" transform="translate(24.000000, 12.000000)">
                    <g id="Title" fill="#0070D2" font-family="SalesforceSans-Regular, Salesforce Sans" font-size="18" font-weight="normal">
                        <text id="Configuration-2">
                            <tspan x="0" y="20">Mortgage Installments</tspan>
                        </text>
                    </g>
                    <text id="LAST-PROCESSED:" font-family="SalesforceSans-Regular, Salesforce Sans" font-size="12" font-weight="normal" fill="#4F6A92">
                        <tspan x="1" y="86">LAST PROCESSED:</tspan>
                    </text>
                    <text id="04/28/2017-12:00-AM" font-family="SalesforceSans-Bold, Salesforce Sans" font-size="12" font-weight="bold" fill="#16325C">
                        <tspan x="107" y="86">09/05/2017 12:00 AM</tspan>
                    </text>
                    <text id="IMPORT-TYPE:" font-family="SalesforceSans-Regular, Salesforce Sans" font-size="12" font-weight="normal" fill="#4F6A92">
                        <tspan x="1" y="65">IMPORT TYPE:</tspan>
                    </text>
                    <text id="Platform-Segments" font-family="SalesforceSans-Bold, Salesforce Sans" font-size="12" font-weight="bold" fill="#16325C">
                        <tspan x="87" y="65">Transaction Data</tspan>
                    </text>
                </g>
                <g id="Group-2" stroke-width="1" fill-rule="evenodd" transform="translate(51.000000, 124.000000)" font-family="SalesforceSans-Regular, Salesforce Sans" font-weight="normal">
                    <g id="Group-7-Copy-8">
                        <text id="RECEIVED-RECORDS" font-size="12" fill="#4F6A92">
                            <tspan x="0" y="56">RECEIVED RECORDS</tspan>
                        </text>
                        <text id="999" font-size="28" fill="#16325C">
                            <tspan x="0" y="32">117K</tspan>
                        </text>
                    </g>
                    <g id="Group-7-Copy-9" transform="translate(145.000000, 0.000000)">
                        <text id="MATCHED-RECORDS" font-size="12" fill="#4F6A92">
                            <tspan x="0" y="56">MATCHED RECORDS</tspan>
                        </text>
                        <text id="100" font-size="28" fill="#16325C">
                            <tspan x="0" y="32">25K</tspan>
                        </text>
                    </g>
                </g>
                <rect id="Rectangle-13-Copy" stroke="#E0E5EE" stroke-width="1" x="0.5" y="0.5" width="399" height="195" rx="4"></rect>
            </g>
            <g id="Folder-without-issues" transform="translate(850.000000, 798.000000)">
                <rect id="Rectangle" fill="#F7F9FB" fill-rule="evenodd" x="0" y="0" width="400" height="112"></rect>
                <g id="icons/utility/settings" stroke-width="1" fill-rule="evenodd" transform="translate(370.000000, 16.000000)">
                    <mask id="mask-12" fill="white">
                        <use xlink:href="#path-11"></use>
                    </mask>
                    <use id="Mask" fill="#54698D" xlink:href="#path-11"></use>
                </g>
                <g id="Group" stroke-width="1" fill-rule="evenodd" transform="translate(24.000000, 12.000000)">
                    <g id="Title" fill="#0070D2" font-family="SalesforceSans-Regular, Salesforce Sans" font-size="18" font-weight="normal">
                        <text id="Configuration-2">
                            <tspan x="0" y="20">Content Engagement</tspan>
                        </text>
                    </g>
                    <text id="LAST-PROCESSED:" font-family="SalesforceSans-Regular, Salesforce Sans" font-size="12" font-weight="normal" fill="#4F6A92">
                        <tspan x="1" y="86">LAST PROCESSED:</tspan>
                    </text>
                    <text id="04/28/2017-12:00-AM" font-family="SalesforceSans-Bold, Salesforce Sans" font-size="12" font-weight="bold" fill="#16325C">
                        <tspan x="107" y="86">04/28/2017 12:00 AM</tspan>
                    </text>
                    <text id="IMPORT-TYPE:" font-family="SalesforceSans-Regular, Salesforce Sans" font-size="12" font-weight="normal" fill="#4F6A92">
                        <tspan x="1" y="65">IMPORT TYPE:</tspan>
                    </text>
                    <text id="Platform-Segments" font-family="SalesforceSans-Bold, Salesforce Sans" font-size="12" font-weight="bold" fill="#16325C">
                        <tspan x="87" y="65">Page Attribute Data</tspan>
                    </text>
                </g>
                <g id="Group-2" stroke-width="1" fill-rule="evenodd" transform="translate(51.000000, 124.000000)" font-family="SalesforceSans-Regular, Salesforce Sans" font-weight="normal">
                    <g id="Group-7-Copy-8">
                        <text id="RECEIVED-RECORDS" font-size="12" fill="#4F6A92">
                            <tspan x="0" y="56">RECEIVED RECORDS</tspan>
                        </text>
                        <text id="999" font-size="28" fill="#16325C">
                            <tspan x="0" y="32">121K</tspan>
                        </text>
                    </g>
                    <g id="Group-7-Copy-9" transform="translate(145.000000, 0.000000)">
                        <text id="MATCHED-RECORDS" font-size="12" fill="#4F6A92">
                            <tspan x="0" y="56">MATCHED RECORDS</tspan>
                        </text>
                        <text id="100" font-size="28" fill="#16325C">
                            <tspan x="0" y="32">20K</tspan>
                        </text>
                    </g>
                </g>
                <rect id="Rectangle-13-Copy" stroke="#E0E5EE" stroke-width="1" x="0.5" y="0.5" width="399" height="195" rx="4"></rect>
            </g>
            <path d="M16.5,731.5 L16.5,1422.00543 C16.5,1423.9381 18.068016,1425.5 20.0069082,1425.5 L1259.99309,1425.5 C1261.93841,1425.5 1263.5,1423.93976 1263.5,1422.00543 L1263.5,731.5 L16.5,731.5 Z" id="Rectangle" stroke="#D8DDE6"></path>
            <rect id="Rectangle-Copy" fill="#FFFFFF" x="646" y="727" width="302" height="9"></rect>
            <rect id="Rectangle-Copy-2" fill="#4F6A92" x="646" y="657" width="302" height="2"></rect>
            <g id="Button-New-Copy-2" transform="translate(1104.000000, 749.000000)">
                <rect id="Rectangle-827" fill="#0070D2" x="0" y="0" width="146" height="32" rx="4"></rect>
                <text id="Add-New-Source" font-family="SalesforceSans-Regular, Salesforce Sans" font-size="12" font-weight="normal" line-spacing="20" fill="#FFFFFF">
                    <tspan x="37" y="17">Add New Source</tspan>
                </text>
                <g id="new" transform="translate(16.000000, 10.000000)" fill="#FFFFFF">
                    <path d="M6.98181818,6.76363636 L11.1818182,6.76363636 C11.3454545,6.76363636 11.5636364,6.6 11.5636364,6.38181818 L11.5636364,5.61818182 C11.5636364,5.4 11.3454545,5.23636364 11.1818182,5.23636364 L6.98181818,5.23636364 C6.87272727,5.23636364 6.76363636,5.12727273 6.76363636,5.01818182 L6.76363636,0.818181818 C6.76363636,0.654545455 6.6,0.436363636 6.38181818,0.436363636 L5.61818182,0.436363636 C5.4,0.436363636 5.23636364,0.654545455 5.23636364,0.818181818 L5.23636364,5.01818182 C5.23636364,5.12727273 5.12727273,5.23636364 5.01818182,5.23636364 L0.818181818,5.23636364 C0.654545455,5.23636364 0.436363636,5.4 0.436363636,5.61818182 L0.436363636,6.38181818 C0.436363636,6.6 0.654545455,6.76363636 0.818181818,6.76363636 L5.01818182,6.76363636 C5.12727273,6.76363636 5.23636364,6.87272727 5.23636364,6.98181818 L5.23636364,11.1818182 C5.23636364,11.3454545 5.4,11.5636364 5.61818182,11.5636364 L6.38181818,11.5636364 C6.6,11.5636364 6.76363636,11.3454545 6.76363636,11.1818182 L6.76363636,6.98181818 C6.76363636,6.87272727 6.87272727,6.76363636 6.98181818,6.76363636 L6.98181818,6.76363636 Z" id="Shape"></path>
                </g>
            </g>
            <g id="Folder-without-issues" transform="translate(30.000000, 1015.000000)">
                <rect id="Rectangle" fill="#F7F9FB" x="0" y="0" width="400" height="112"></rect>
                <g id="icons/utility/settings" transform="translate(370.000000, 16.000000)">
                    <mask id="mask-14" fill="white">
                        <use xlink:href="#path-13"></use>
                    </mask>
                    <use id="Mask" fill="#54698D" xlink:href="#path-13"></use>
                </g>
                <g id="Group" transform="translate(24.000000, 12.000000)">
                    <g id="Title" fill="#0070D2" font-family="SalesforceSans-Regular, Salesforce Sans" font-size="18" font-weight="normal">
                        <text id="Configuration-2">
                            <tspan x="0" y="20">Account Holders</tspan>
                        </text>
                    </g>
                    <text id="LAST-PROCESSED:" font-family="SalesforceSans-Regular, Salesforce Sans" font-size="12" font-weight="normal" fill="#4F6A92">
                        <tspan x="1" y="86">LAST PROCESSED:</tspan>
                    </text>
                    <text id="04/28/2017-12:00-AM" font-family="SalesforceSans-Bold, Salesforce Sans" font-size="12" font-weight="bold" fill="#16325C">
                        <tspan x="107" y="86">04/28/2017 12:00 AM</tspan>
                    </text>
                    <text id="IMPORT-TYPE:" font-family="SalesforceSans-Regular, Salesforce Sans" font-size="12" font-weight="normal" fill="#4F6A92">
                        <tspan x="1" y="44">IMPORT TYPE:</tspan>
                    </text>
                    <text id="Platform-Segments" font-family="SalesforceSans-Bold, Salesforce Sans" font-size="12" font-weight="bold" fill="#16325C">
                        <tspan x="89" y="44">Consent Data</tspan>
                    </text>
                </g>
                <g id="Group-2" transform="translate(51.000000, 124.000000)" font-family="SalesforceSans-Regular, Salesforce Sans" font-weight="normal">
                    <g id="Group-7-Copy-8">
                        <text id="RECEIVED-RECORDS" font-size="12" fill="#4F6A92">
                            <tspan x="0" y="56">RECEIVED RECORDS</tspan>
                        </text>
                        <text id="999" font-size="28" fill="#16325C">
                            <tspan x="0" y="32">2M</tspan>
                        </text>
                    </g>
                    <g id="Group-7-Copy-9" transform="translate(145.000000, 0.000000)">
                        <text id="MATCHED-RECORDS" font-size="12" fill="#4F6A92">
                            <tspan x="0" y="56">MATCHED RECORDS</tspan>
                        </text>
                        <text id="100" font-size="28" fill="#16325C">
                            <tspan x="0" y="32">765K</tspan>
                        </text>
                    </g>
                </g>
                <rect id="Rectangle-13-Copy" stroke="#E0E5EE" x="0.5" y="0.5" width="399" height="195" rx="4"></rect>
            </g>
            <g id="Group-16" transform="translate(54.000000, 1075.000000)" fill="#0070D2">
                <g id="Group-16-Copy-2" transform="translate(16.000000, 0.000000)" font-family="SalesforceSans-Regular, Salesforce Sans" font-size="11" font-weight="normal">
                    <g id="Group-8">
                        <text id="Manage-Consumer-Righ">
                            <tspan x="0" y="13">Manage Consumer Rights</tspan>
                        </text>
                    </g>
                </g>
                <g id="new_custom91-copy" transform="translate(0.000000, 1.000000)">
                    <path d="M11.583671,2.53986492 C10.9868045,2.37774588 10.4441986,1.94542845 10.118635,1.40503166 C9.84733207,0.972714225 9.84733207,0 9.19620499,0 L2.79345537,0 C2.14232829,2.9998048e-16 2.14232829,0.972714225 1.87102534,1.40503166 C1.43694062,2.05350781 0.948595307,2.21562685 0.297468227,2.5939046 C-0.353658854,2.97218235 0.243207637,4.53933305 0.405989407,5.13376952 C1.0028559,7.34939636 2.19658888,9.40290417 4.04144894,10.8619755 C4.58405484,11.2942929 5.12666074,11.618531 5.72352723,11.9427691 C6.26613313,12.2129675 7.18856316,11.456412 7.56838729,11.1321739 C8.5993385,10.3756184 9.46750794,9.45694385 10.1728956,8.37615027 C10.7155015,7.45747572 11.2038468,6.4847615 11.5294104,5.45800759 L11.8549739,4.16105529 C11.9092345,3.83681722 12.0720163,3.24238075 11.9634951,2.91814267 C11.9092345,2.75602364 11.7464527,2.5939046 11.583671,2.53986492 C10.6612409,2.26966652 11.8549739,2.5939046 11.583671,2.53986492 L11.583671,2.53986492 Z M10.7155015,3.94489658 C10.1728956,6.59284086 8.70785968,9.0786661 6.32039372,10.5377374 L5.99483018,10.7538962 L5.66926664,10.5377374 C2.79345537,8.8084677 1.70824357,5.99840439 1.27415885,3.8908569 L1.21989826,3.51257914 L1.59972239,3.29642043 C2.19658888,2.91814267 2.79345537,2.21562685 3.11901891,1.51311102 L3.28180068,1.18887294 L8.70785968,1.18887294 L8.81638086,1.45907134 C9.1419444,2.16158717 9.73881089,2.91814267 10.4984592,3.35046011 L10.7697621,3.45853947 L10.7697621,3.51257914 L10.7155015,3.94489658 Z M5.77778782,2.43178556 C5.3437031,2.43178556 4.20423071,2.43178556 3.98718835,2.5939046 C3.60736422,2.97218235 3.39032186,3.45853947 3.01049773,3.78277754 C2.57641301,4.10701562 2.73919478,4.48529337 2.90197655,4.97165048 C3.1732795,5.83628535 3.55310363,6.64688054 4.09570953,7.34939636 C4.36701248,7.72767412 4.63831543,8.10595187 5.01813956,8.43018995 C5.07240015,8.53826931 5.99483018,9.45694385 5.99483018,8.86250738 L5.99483018,2.81006332 C5.99483018,2.5939046 5.99483018,2.43178556 5.77778782,2.43178556 Z" id="Shape"></path>
                </g>
            </g>
            <g id="Folder-without-issues" transform="translate(440.000000, 1015.000000)">
                <rect id="Rectangle" fill="#F7F9FB" fill-rule="evenodd" x="0" y="0" width="400" height="112"></rect>
                <g id="icons/utility/settings" stroke-width="1" fill-rule="evenodd" transform="translate(370.000000, 16.000000)">
                    <mask id="mask-16" fill="white">
                        <use xlink:href="#path-15"></use>
                    </mask>
                    <use id="Mask" fill="#54698D" xlink:href="#path-15"></use>
                </g>
                <g id="Group" stroke-width="1" fill-rule="evenodd" transform="translate(24.000000, 12.000000)">
                    <g id="Title" fill="#0070D2" font-family="SalesforceSans-Regular, Salesforce Sans" font-size="18" font-weight="normal">
                        <text id="Configuration-2">
                            <tspan x="0" y="20">High Value Targets</tspan>
                        </text>
                    </g>
                    <text id="LAST-PROCESSED:" font-family="SalesforceSans-Regular, Salesforce Sans" font-size="12" font-weight="normal" fill="#4F6A92">
                        <tspan x="1" y="86">LAST PROCESSED:</tspan>
                    </text>
                    <text id="04/28/2017-12:00-AM" font-family="SalesforceSans-Bold, Salesforce Sans" font-size="12" font-weight="bold" fill="#16325C">
                        <tspan x="107" y="86">       Processing</tspan>
                    </text>
                    <text id="IMPORT-TYPE:" font-family="SalesforceSans-Regular, Salesforce Sans" font-size="12" font-weight="normal" fill="#4F6A92">
                        <tspan x="1" y="65">IMPORT TYPE:</tspan>
                    </text>
                    <text id="Platform-Segments" font-family="SalesforceSans-Bold, Salesforce Sans" font-size="12" font-weight="bold" fill="#16325C">
                        <tspan x="87" y="65">Platform Segments</tspan>
                    </text>
                </g>
                <g id="Group-2" stroke-width="1" fill-rule="evenodd" transform="translate(51.000000, 124.000000)" font-family="SalesforceSans-Regular, Salesforce Sans" font-weight="normal">
                    <g id="Group-7-Copy-8">
                        <text id="RECEIVED-RECORDS" font-size="12" fill="#4F6A92">
                            <tspan x="0" y="56">RECEIVED RECORDS</tspan>
                        </text>
                        <text id="999" font-size="28" fill="#16325C">
                            <tspan x="0" y="32">-</tspan>
                        </text>
                    </g>
                    <g id="Group-7-Copy-9" transform="translate(145.000000, 0.000000)">
                        <text id="MATCHED-RECORDS" font-size="12" fill="#4F6A92">
                            <tspan x="0" y="56">MATCHED RECORDS</tspan>
                        </text>
                        <text id="100" font-size="28" fill="#16325C">
                            <tspan x="0" y="32">-</tspan>
                        </text>
                    </g>
                </g>
                <rect id="Rectangle-13-Copy" stroke="#E0E5EE" stroke-width="1" x="0.5" y="0.5" width="399" height="195" rx="4"></rect>
            </g>
            <path d="M587.558559,1100 L586.675676,1100 C586.423423,1100 586.234234,1100.18919 586.234234,1100.44144 L586.234234,1102.45946 C586.234234,1102.77477 585.918919,1102.9009 585.792793,1102.71171 C584.405405,1101.1982 582.45045,1100.44144 580.306306,1100.63063 C579.54955,1100.69369 578.855856,1100.94595 578.162162,1101.26126 C577.846847,1101.45045 577.468468,1101.63964 577.216216,1101.89189 C576.963964,1102.01802 576.963964,1102.33333 577.153153,1102.52252 L577.720721,1103.15315 C577.90991,1103.27928 578.099099,1103.34234 578.288288,1103.21622 C578.666667,1102.96396 579.045045,1102.77477 579.423423,1102.58559 C579.612613,1102.52252 579.801802,1102.45946 579.990991,1102.45946 C581.81982,1102.08108 583.585586,1102.83784 584.594595,1103.97297 C584.90991,1104.41441 584.657658,1104.66667 584.405405,1104.66667 L582.324324,1104.66667 C582.135135,1104.66667 581.882883,1104.85586 581.882883,1105.10811 L581.882883,1105.99099 C581.882883,1106.24324 582.135135,1106.43243 582.324324,1106.43243 L587.621622,1106.43243 C587.810811,1106.43243 588,1106.24324 588,1106.05405 L588,1100.44144 C588,1100.18919 587.810811,1100 587.558559,1100 L587.558559,1100 Z M584.90991,1110.34234 C584.720721,1110.15315 584.468468,1110.15315 584.279279,1110.34234 C583.837838,1110.78378 583.27027,1111.16216 582.576577,1111.41441 C582.45045,1111.47748 582.198198,1111.54054 582.009009,1111.54054 C580.18018,1111.91892 578.414414,1111.16216 577.468468,1110.02703 C577.09009,1109.58559 577.342342,1109.33333 577.657658,1109.33333 L579.675676,1109.33333 C579.927928,1109.33333 580.117117,1109.14414 580.117117,1108.89189 L580.117117,1108.00901 C580.117117,1107.75676 579.927928,1107.56757 579.675676,1107.56757 L574.378378,1107.56757 C574.189189,1107.56757 574,1107.75676 574,1107.94595 L574,1113.55856 C574,1113.81081 574.189189,1114 574.441441,1114 L575.324324,1114 C575.576577,1114 575.765766,1113.81081 575.765766,1113.55856 L575.765766,1111.54054 C575.765766,1111.22523 576.081081,1111.0991 576.207207,1111.28829 C577.594595,1112.8018 579.54955,1113.55856 581.693694,1113.36937 C582.45045,1113.30631 583.144144,1113.05405 583.837838,1112.73874 C584.468468,1112.42342 585.036036,1111.98198 585.477477,1111.54054 C585.666667,1111.35135 585.666667,1111.0991 585.477477,1110.90991 L584.90991,1110.34234 L584.90991,1110.34234 Z" id="Shape" fill="#54698D"></path>
            <g id="Group-23" transform="translate(0.000000, 106.000000)" fill="#F7F9FB">
                <rect id="Rectangle-4-Copy-2" x="0" y="0" width="1280" height="66"></rect>
            </g>
            <text id="Date-and-time-repres" font-family="SalesforceSans-Regular, Salesforce Sans" font-size="12" font-weight="normal" fill="#4F6A92">
                <tspan x="846.52" y="148">Date and time represented in the current browser's timezone (UTC -07:00)</tspan>
            </text>
            <text id="Last-15-days-(Aug-22" font-family="SalesforceSans-Regular, Salesforce Sans" font-size="14" font-weight="normal" fill="#54698D">
                <tspan x="22" y="333">Last 15 days (Aug 22, 2018 - Sept 5, 2018)</tspan>
            </text>
            <text id="300" opacity="0" font-family="SalesforceSans-Regular, Salesforce Sans" font-size="12" font-weight="normal" fill="#7D98B3">
                <tspan x="223.02" y="348">300</tspan>
            </text>
            <text id="Data-Collection-Even" transform="translate(46.000000, 453.500000) rotate(-90.000000) translate(-46.000000, -453.500000) " font-family="SalesforceSans-Regular, Salesforce Sans" font-size="12" font-weight="normal" fill="#4F6A92">
                <tspan x="-16.838" y="460">Data Collection Events</tspan>
            </text>
            <path d="M100,359.5 L1238,359.5" id="ygridlin6" stroke="#A3B8CC" opacity="0.5" stroke-linecap="square"></path>
            <text id="1M" font-family="SalesforceSans-Regular, Salesforce Sans" font-size="12" font-weight="normal" fill="#4F6A92">
                <tspan x="74.604" y="372">1M</tspan>
            </text>
            <path d="M100,419.5 L1238,419.5" id="ygridlin5" stroke="#CCCCCC" opacity="0.5" stroke-linecap="square"></path>
            <text id="100K" font-family="SalesforceSans-Regular, Salesforce Sans" font-size="12" font-weight="normal" fill="#4F6A92">
                <tspan x="63.612" y="432">100K</tspan>
            </text>
            <path d="M100,483.5 L1238,483.5" id="ygridlin3" stroke="#CCCCCC" opacity="0.5" stroke-linecap="square"></path>
            <text id="10K" font-family="SalesforceSans-Regular, Salesforce Sans" font-size="12" font-weight="normal" fill="#4F6A92">
                <tspan x="70.932" y="497">10K</tspan>
            </text>
            <text id="0" font-family="SalesforceSans-Regular, Salesforce Sans" font-size="12" font-weight="normal" fill="#4F6A92">
                <tspan x="85.68" y="562">0</tspan>
            </text>
            <path d="M100,548.5 L1238,548.5" id="ygridlin1" stroke="#CCCCCC" opacity="0.5" stroke-linecap="square"></path>
            <g id="Days" transform="translate(96.000000, 570.000000)" fill="#4F6A92" font-family="SalesforceSans-Regular, Salesforce Sans" font-size="12" font-weight="normal">
                <text id="Aug-25">
                    <tspan x="244.388" y="14">Aug 25</tspan>
                </text>
                <text id="Aug-24">
                    <tspan x="162.388" y="14">Aug 24</tspan>
                </text>
                <text id="Aug-23">
                    <tspan x="81.388" y="14">Aug 23</tspan>
                </text>
                <text id="Aug-22">
                    <tspan x="0.388" y="14">Aug 22</tspan>
                </text>
                <text id="Aug-26" transform="translate(345.000000, 7.500000) rotate(-360.000000) translate(-345.000000, -7.500000) ">
                    <tspan x="325.388" y="14">Aug 26</tspan>
                </text>
                <text id="Aug-27" transform="translate(426.000000, 7.500000) rotate(-360.000000) translate(-426.000000, -7.500000) ">
                    <tspan x="406.388" y="14">Aug 27</tspan>
                </text>
                <text id="Aug-28" transform="translate(507.000000, 7.500000) rotate(-360.000000) translate(-507.000000, -7.500000) ">
                    <tspan x="487.388" y="14">Aug 28</tspan>
                </text>
                <text id="Aug-29" transform="translate(588.000000, 7.500000) rotate(-360.000000) translate(-588.000000, -7.500000) ">
                    <tspan x="568.388" y="14">Aug 29</tspan>
                </text>
                <text id="Aug-30">
                    <tspan x="650.388" y="14">Aug 30</tspan>
                </text>
                <text id="Aug-31" transform="translate(752.500000, 7.500000) rotate(-360.000000) translate(-752.500000, -7.500000) ">
                    <tspan x="734.388" y="14">Aug 31 </tspan>
                </text>
                <text id="Sep-1" transform="translate(831.000000, 7.500000) rotate(-360.000000) translate(-831.000000, -7.500000) ">
                    <tspan x="815.5" y="14">Sep 1</tspan>
                </text>
                <text id="Sep-2" transform="translate(904.000000, 7.500000) rotate(-360.000000) translate(-904.000000, -7.500000) ">
                    <tspan x="888.5" y="14">Sep 2</tspan>
                </text>
                <text id="Sep-3">
                    <tspan x="962.5" y="14">Sep 3</tspan>
                </text>
                <text id="Sep-4" transform="translate(1051.000000, 7.500000) rotate(-360.000000) translate(-1051.000000, -7.500000) ">
                    <tspan x="1035.5" y="14">Sep 4</tspan>
                </text>
                <text id="Today">
                    <tspan x="1108.22" y="16">Today</tspan>
                </text>
            </g>
            <path d="M1223.5,369.5 L1223.5,550.502762" id="Line-3" stroke="#16325C" stroke-linecap="square" stroke-dasharray="5"></path>
            <polyline id="line" stroke="#EDBE32" stroke-width="2" transform="translate(669.281250, 476.669922) scale(-1, 1) translate(-669.281250, -476.669922) " points="114.844727 447.004883 191.663086 460.115234 264.398438 429.37207 338.491211 484.939453 411.633789 440.600586 490.99707 466.617188 572.78125 487.46875 654.917969 478.452148 736.18457 523.967773 816.566406 435.895508 897.499023 504.636719 979.011719 491.193359 1061.04004 472.257812 1141.79883 508.166992 1223.71777 487.46875"></polyline>
            <circle id="Oval" fill="#EDBE32" transform="translate(1224.000000, 447.000000) scale(-1, 1) translate(-1224.000000, -447.000000) " cx="1224" cy="447" r="4"></circle>
            <circle id="Oval" fill="#EDBE32" transform="translate(1147.000000, 460.000000) scale(-1, 1) translate(-1147.000000, -460.000000) " cx="1147" cy="460" r="4"></circle>
            <circle id="Oval" fill="#EDBE32" transform="translate(1074.000000, 429.000000) scale(-1, 1) translate(-1074.000000, -429.000000) " cx="1074" cy="429" r="4"></circle>
            <circle id="Oval" fill="#EDBE32" transform="translate(1000.000000, 485.000000) scale(-1, 1) translate(-1000.000000, -485.000000) " cx="1000" cy="485" r="4"></circle>
            <circle id="Oval-Copy-3" fill="#EDBE32" transform="translate(927.000000, 441.000000) scale(-1, 1) translate(-927.000000, -441.000000) " cx="927" cy="441" r="4"></circle>
            <circle id="Oval" fill="#EDBE32" transform="translate(848.000000, 467.000000) scale(-1, 1) translate(-848.000000, -467.000000) " cx="848" cy="467" r="4"></circle>
            <circle id="Oval" fill="#EDBE32" transform="translate(766.000000, 487.000000) scale(-1, 1) translate(-766.000000, -487.000000) " cx="766" cy="487" r="4"></circle>
            <circle id="Oval-Copy-5" fill="#EDBE32" transform="translate(684.000000, 479.000000) scale(-1, 1) translate(-684.000000, -479.000000) " cx="684" cy="479" r="4"></circle>
            <circle id="Oval" fill="#EDBE32" transform="translate(603.000000, 524.000000) scale(-1, 1) translate(-603.000000, -524.000000) " cx="603" cy="524" r="4"></circle>
            <circle id="Oval" fill="#EDBE32" transform="translate(522.000000, 436.000000) scale(-1, 1) translate(-522.000000, -436.000000) " cx="522" cy="436" r="4"></circle>
            <circle id="Oval-Copy-7" fill="#EDBE32" transform="translate(441.000000, 505.000000) scale(-1, 1) translate(-441.000000, -505.000000) " cx="441" cy="505" r="4"></circle>
            <circle id="Oval" fill="#EDBE32" transform="translate(360.000000, 491.000000) scale(-1, 1) translate(-360.000000, -491.000000) " cx="360" cy="491" r="4"></circle>
            <circle id="Oval" fill="#EDBE32" transform="translate(278.000000, 472.000000) scale(-1, 1) translate(-278.000000, -472.000000) " cx="278" cy="472" r="4"></circle>
            <circle id="Oval-Copy-18" fill="#EDBE32" transform="translate(197.000000, 508.000000) scale(-1, 1) translate(-197.000000, -508.000000) " cx="197" cy="508" r="4"></circle>
            <circle id="Oval" fill="#EDBE32" transform="translate(197.000000, 527.000000) scale(-1, 1) translate(-197.000000, -527.000000) " cx="197" cy="527" r="4"></circle>
            <circle id="Oval" fill="#EDBE32" transform="translate(116.000000, 487.000000) scale(-1, 1) translate(-116.000000, -487.000000) " cx="116" cy="487" r="4"></circle>
            <path d="M449.5,617.166667 L463.5,617.166667" id="Line" stroke="#73ACE8" stroke-width="2"></path>
            <circle id="Oval-2" fill="#73ACE8" cx="457" cy="617" r="3"></circle>
            <text id="Website" font-family="SalesforceSans-Regular, Salesforce Sans" font-size="12" font-weight="normal" fill="#3E3E3C">
                <tspan x="469" y="623">Website</tspan>
            </text>
            <g id="Group-4" transform="translate(555.000000, 609.000000)">
                <path d="M0.5,8.16666667 L14.5,8.16666667" id="Line" stroke="#EDBE32" stroke-width="2"></path>
                <circle id="Oval-2" fill="#EDBE32" cx="8" cy="8" r="3"></circle>
                <text id="App" font-family="SalesforceSans-Regular, Salesforce Sans" font-size="12" font-weight="normal" fill="#3E3E3C">
                    <tspan x="19" y="14">App</tspan>
                </text>
            </g>
            <g id="Group-4" transform="translate(637.000000, 609.000000)">
                <path d="M0.5,8.16666667 L14.5,8.16666667" id="Line" stroke="#EA78BB" stroke-width="2"></path>
                <circle id="Oval-2" fill="#EA78BB" cx="8" cy="8" r="3"></circle>
                <text id="Offline-Files" font-family="SalesforceSans-Regular, Salesforce Sans" font-size="12" font-weight="normal" fill="#3E3E3C">
                    <tspan x="19" y="14">Offline Files</tspan>
                </text>
            </g>
            <g id="Group-4-Copy" transform="translate(762.000000, 609.000000)">
                <path d="M0.5,8.16666667 L14.5,8.16666667" id="Line" stroke="#B896FA" stroke-width="2"></path>
                <circle id="Oval-2" fill="#B896FA" cx="8" cy="8" r="3"></circle>
                <text id="Partners" font-family="SalesforceSans-Regular, Salesforce Sans" font-size="12" font-weight="normal" fill="#3E3E3C">
                    <tspan x="19" y="14">Partners</tspan>
                </text>
            </g>
            <polyline id="line" stroke="#73ACE8" stroke-width="2" transform="translate(668.863281, 404.367188) scale(-1, 1) rotate(2.000000) translate(-668.863281, -404.367188) " points="114.923828 396.661511 190.384766 399.432501 263.248047 396.661511 337.542969 422.588044 411.082031 404.269586 490.167969 418.626485 571.585938 401.872255 654.076172 424.327724 735.238281 434.328945 815.683594 396.661511 896.964844 441.867187 977.846199 430.596198 1060.0532 366.867188 1140.64438 438.417529 1222.80273 429.138662"></polyline>
            <circle id="Oval" fill="#73ACE8" transform="translate(1223.000000, 377.000000) scale(-1, 1) translate(-1223.000000, -377.000000) " cx="1223" cy="377" r="4"></circle>
            <circle id="Oval" fill="#73ACE8" transform="translate(1147.000000, 382.000000) scale(-1, 1) translate(-1147.000000, -382.000000) " cx="1147" cy="382" r="4"></circle>
            <circle id="Oval" fill="#73ACE8" transform="translate(1074.000000, 382.000000) scale(-1, 1) translate(-1074.000000, -382.000000) " cx="1074" cy="382" r="4"></circle>
            <circle id="Oval" fill="#73ACE8" transform="translate(1000.000000, 410.000000) scale(-1, 1) translate(-1000.000000, -410.000000) " cx="1000" cy="410" r="4"></circle>
            <circle id="Oval-Copy-4" fill="#73ACE8" transform="translate(927.000000, 395.000000) scale(-1, 1) translate(-927.000000, -395.000000) " cx="927" cy="395" r="4"></circle>
            <circle id="Oval" fill="#73ACE8" transform="translate(848.000000, 412.000000) scale(-1, 1) translate(-848.000000, -412.000000) " cx="848" cy="412" r="4"></circle>
            <circle id="Oval" fill="#73ACE8" transform="translate(766.000000, 398.000000) scale(-1, 1) translate(-766.000000, -398.000000) " cx="766" cy="398" r="4"></circle>
            <circle id="Oval-Copy-6" fill="#73ACE8" transform="translate(684.000000, 424.000000) scale(-1, 1) translate(-684.000000, -424.000000) " cx="684" cy="424" r="4"></circle>
            <circle id="Oval" fill="#73ACE8" transform="translate(603.000000, 436.000000) scale(-1, 1) translate(-603.000000, -436.000000) " cx="603" cy="436" r="4"></circle>
            <circle id="Oval" fill="#73ACE8" transform="translate(522.000000, 402.000000) scale(-1, 1) translate(-522.000000, -402.000000) " cx="522" cy="402" r="4"></circle>
            <circle id="Oval-Copy-8" fill="#73ACE8" transform="translate(441.000000, 449.000000) scale(-1, 1) translate(-441.000000, -449.000000) " cx="441" cy="449" r="4"></circle>
            <circle id="Oval" fill="#73ACE8" transform="translate(360.000000, 441.000000) scale(-1, 1) translate(-360.000000, -441.000000) " cx="360" cy="441" r="4"></circle>
            <circle id="Oval" fill="#73ACE8" transform="translate(277.000000, 381.000000) scale(-1, 1) translate(-277.000000, -381.000000) " cx="277" cy="381" r="4"></circle>
            <circle id="Oval" fill="#73ACE8" transform="translate(198.000000, 454.000000) scale(-1, 1) translate(-198.000000, -454.000000) " cx="198" cy="454" r="4"></circle>
            <circle id="Oval" fill="#73ACE8" transform="translate(116.000000, 448.000000) scale(-1, 1) translate(-116.000000, -448.000000) " cx="116" cy="448" r="4"></circle>
            <polyline id="Path-3" stroke="#EA78BB" stroke-width="2" points="115.803711 510.874023 196.569336 527.47168 277.873047 482.981445 359.84668 527.47168 440.478516 507.179688 521.839844 444.552239 603.331055 534.134766 684.37793 488.503906 766.147461 497.155273 849.091797 471.306641 926.904297 444.552239 999.814453 488.503906 1074.00781 436.240234 1147.09863 463.897461 1223.88477 452.085938"></polyline>
            <circle id="Oval" fill="#EA78BB" cx="116" cy="511" r="4"></circle>
            <circle id="Oval-Copy" fill="#EA78BB" cx="197" cy="527" r="4"></circle>
            <circle id="Oval-Copy" fill="#EA78BB" cx="278" cy="484" r="4"></circle>
            <circle id="Oval-Copy" fill="#EA78BB" cx="360" cy="527" r="4"></circle>
            <circle id="Oval-Copy-2" fill="#EA78BB" cx="441" cy="507" r="4"></circle>
            <circle id="Oval-Copy-9" fill="#EA78BB" cx="522" cy="444" r="4"></circle>
            <circle id="Oval-Copy-10" fill="#EA78BB" cx="603" cy="534" r="4"></circle>
            <circle id="Oval-Copy-11" fill="#EA78BB" cx="684" cy="489" r="4"></circle>
            <circle id="Oval-Copy-12" fill="#EA78BB" cx="766" cy="497" r="4"></circle>
            <circle id="Oval-Copy-12" fill="#EA78BB" cx="849" cy="471" r="4"></circle>
            <circle id="Oval-Copy-13" fill="#EA78BB" cx="927" cy="444" r="4"></circle>
            <circle id="Oval-Copy-14" fill="#EA78BB" cx="1000" cy="489" r="4"></circle>
            <circle id="Oval-Copy-15" fill="#EA78BB" cx="1074" cy="436" r="4"></circle>
            <circle id="Oval-Copy-16" fill="#EA78BB" cx="1147" cy="464" r="4"></circle>
            <circle id="Oval-Copy-17" fill="#EA78BB" cx="1224" cy="452" r="4"></circle>
            <circle id="Oval" fill="#B896FA" cx="116" cy="517" r="4"></circle>
            <circle id="Oval-Copy" fill="#B896FA" cx="197" cy="503" r="4"></circle>
            <circle id="Oval-Copy" fill="#B896FA" cx="278" cy="510" r="4"></circle>
            <circle id="Oval-Copy" fill="#B896FA" cx="360" cy="543" r="4"></circle>
            <circle id="Oval-Copy-2" fill="#B896FA" cx="441" cy="505" r="4"></circle>
            <circle id="Oval-Copy-9" fill="#B896FA" cx="522" cy="470" r="4"></circle>
            <circle id="Oval-Copy-10" fill="#B896FA" cx="603" cy="540" r="4"></circle>
            <path d="M684,499 C681.790861,499 680,497.209139 680,495 C680,492.790861 681.790861,491 684,491 C686.209139,491 688,492.790861 688,495 C688,497.209139 686.209139,499 684,499 Z M849,501 C846.790861,501 845,499.209139 845,497 C845,494.790861 846.790861,493 849,493 C851.209139,493 853,494.790861 853,497 C853,499.209139 851.209139,501 849,501 Z" id="Oval-Copy-11" fill="#B896FA"></path>
            <circle id="Oval-Copy-12" fill="#B896FA" cx="766" cy="513" r="4"></circle>
            <circle id="Oval-Copy-13" fill="#B896FA" cx="927" cy="460" r="4"></circle>
            <circle id="Oval-Copy-14" fill="#B896FA" cx="1000" cy="470" r="4"></circle>
            <circle id="Oval-Copy-15" fill="#B896FA" cx="1074" cy="452" r="4"></circle>
            <circle id="Oval-Copy-16" fill="#B896FA" cx="1147" cy="440" r="4"></circle>
            <circle id="Oval-Copy-17" fill="#B896FA" cx="1224" cy="458" r="4"></circle>
            <polyline id="Path-3" stroke="#B896FA" stroke-width="2" points="115.602539 517.452148 197.053711 503.12793 277.814453 509.782227 359.713867 543.473633 440.657227 505.563477 521.827148 470.217773 602.900391 540.294922 683.858398 494.966797 765.821289 513.082031 848.768555 497.328125 927.133789 460.007812 1000.37891 470.217773 1074.16992 451.981445 1147.12891 440.081055 1224.13281 458.288086"></polyline>
            <g id="Group-17-Copy" transform="translate(22.000000, 288.000000)" fill="#16325C" font-family="SalesforceSans-Regular, Salesforce Sans" font-size="16" font-weight="normal">
                <text id="Data-Collection-Even">
                    <tspan x="0" y="18">Data Collection Events (DCE) by sources</tspan>
                </text>
            </g>
            <g id="Group-18-Copy" transform="translate(22.000000, 243.000000)">
                <g id="Group-16-Copy" fill="#FFFFFF" stroke="#E0E5EE">
                    <rect id="Rectangle-8" x="0.5" y="0.5" width="130" height="24" rx="12"></rect>
                </g>
                <g id="Group-16" transform="translate(18.000000, 6.000000)" fill="#0070D2" font-family="SalesforceSans-Regular, Salesforce Sans" font-size="11" font-weight="normal">
                    <g id="Group-16-Copy-2">
                        <g id="Group-8">
                            <text id="Manage-Attributes">
                                <tspan x="0" y="13">Manage Attributes</tspan>
                            </text>
                        </g>
                    </g>
                </g>
            </g>
        </g>
    </g>
</svg>