<?xml version="1.0" encoding="UTF-8"?>
<svg width="1280px" height="782px" viewBox="0 0 1280 782" version="1.1" xmlns="http://www.w3.org/2000/svg" xmlns:xlink="http://www.w3.org/1999/xlink">
    <!-- Generator: Sketch 51.2 (57519) - http://www.bohemiancoding.com/sketch -->
    <title>manage.data-capture.sources</title>
    <desc>Created with Sketch.</desc>
    <defs>
        <path d="M6.87424473,5.23076923 C5.67424473,5.23076923 4.72039857,6.18461538 4.72039857,7.38461538 C4.72039857,8.58461538 5.67424473,9.53846154 6.87424473,9.53846154 C8.07424473,9.53846154 9.02809088,8.58461538 9.02809088,7.38461538 C9.02809088,6.18461538 8.07424473,5.23076923 6.87424473,5.23076923 Z M13.3357832,9.32307692 L12.1973217,8.36923077 C12.2588601,8.03076923 12.2896293,7.66153846 12.2896293,7.32307692 C12.2896293,6.98461538 12.2588601,6.61538462 12.1973217,6.27692308 L13.3357832,5.32307692 C13.705014,5.01538462 13.8280909,4.46153846 13.581937,4.03076923 L13.0896293,3.16923077 C12.905014,2.86153846 12.5665524,2.67692308 12.1973217,2.67692308 C12.0742447,2.67692308 11.9511678,2.70769231 11.8588601,2.73846154 L10.4434755,3.26153846 C9.88962934,2.76923077 9.27424473,2.43076923 8.62809088,2.21538462 L8.38193704,0.769230769 C8.28962934,0.276923077 7.85886011,0 7.36655242,0 L6.38193704,0 C5.88962934,0 5.45886011,0.276923077 5.36655242,0.769230769 L5.12039857,2.18461538 C4.4434755,2.4 3.82809088,2.76923077 3.27424473,3.23076923 L1.85886011,2.70769231 C1.73578319,2.67692308 1.6434755,2.64615385 1.52039857,2.64615385 C1.15116781,2.64615385 0.812706267,2.83076923 0.628090882,3.13846154 L0.13578319,4 C-0.110370656,4.43076923 -0.0180629638,4.98461538 0.381937036,5.29230769 L1.52039857,6.24615385 C1.45886011,6.58461538 1.42809088,6.95384615 1.42809088,7.29230769 C1.42809088,7.66153846 1.45886011,8 1.52039857,8.33846154 L0.381937036,9.29230769 C0.012706267,9.6 -0.110370656,10.1538462 0.13578319,10.5846154 L0.628090882,11.4461538 C0.812706267,11.7538462 1.15116781,11.9384615 1.52039857,11.9384615 C1.6434755,11.9384615 1.76655242,11.9076923 1.85886011,11.8769231 L3.27424473,11.3538462 C3.82809088,11.8461538 4.4434755,12.1846154 5.08962934,12.4 L5.33578319,13.8769231 C5.42809088,14.3692308 5.82809088,14.7076923 6.35116781,14.7076923 L7.33578319,14.7076923 C7.82809088,14.7076923 8.25886011,14.3384615 8.35116781,13.8461538 L8.59732165,12.3692308 C9.30501396,12.1230769 9.95116781,11.7538462 10.505014,11.2307692 L11.8280909,11.7538462 C11.9511678,11.7846154 12.0742447,11.8153846 12.1973217,11.8153846 C12.5665524,11.8153846 12.905014,11.6307692 13.0896293,11.3230769 L13.5511678,10.5230769 C13.8280909,10.1846154 13.705014,9.63076923 13.3357832,9.32307692 L13.3357832,9.32307692 Z M6.87424473,10.7692308 C4.99732165,10.7692308 3.48962934,9.26153846 3.48962934,7.38461538 C3.48962934,5.50769231 4.99732165,4 6.87424473,4 C8.75116781,4 10.2588601,5.50769231 10.2588601,7.38461538 C10.2588601,9.26153846 8.75116781,10.7692308 6.87424473,10.7692308 Z" id="path-1"></path>
        <path d="M6.87424473,5.23076923 C5.67424473,5.23076923 4.72039857,6.18461538 4.72039857,7.38461538 C4.72039857,8.58461538 5.67424473,9.53846154 6.87424473,9.53846154 C8.07424473,9.53846154 9.02809088,8.58461538 9.02809088,7.38461538 C9.02809088,6.18461538 8.07424473,5.23076923 6.87424473,5.23076923 Z M13.3357832,9.32307692 L12.1973217,8.36923077 C12.2588601,8.03076923 12.2896293,7.66153846 12.2896293,7.32307692 C12.2896293,6.98461538 12.2588601,6.61538462 12.1973217,6.27692308 L13.3357832,5.32307692 C13.705014,5.01538462 13.8280909,4.46153846 13.581937,4.03076923 L13.0896293,3.16923077 C12.905014,2.86153846 12.5665524,2.67692308 12.1973217,2.67692308 C12.0742447,2.67692308 11.9511678,2.70769231 11.8588601,2.73846154 L10.4434755,3.26153846 C9.88962934,2.76923077 9.27424473,2.43076923 8.62809088,2.21538462 L8.38193704,0.769230769 C8.28962934,0.276923077 7.85886011,0 7.36655242,0 L6.38193704,0 C5.88962934,0 5.45886011,0.276923077 5.36655242,0.769230769 L5.12039857,2.18461538 C4.4434755,2.4 3.82809088,2.76923077 3.27424473,3.23076923 L1.85886011,2.70769231 C1.73578319,2.67692308 1.6434755,2.64615385 1.52039857,2.64615385 C1.15116781,2.64615385 0.812706267,2.83076923 0.628090882,3.13846154 L0.13578319,4 C-0.110370656,4.43076923 -0.0180629638,4.98461538 0.381937036,5.29230769 L1.52039857,6.24615385 C1.45886011,6.58461538 1.42809088,6.95384615 1.42809088,7.29230769 C1.42809088,7.66153846 1.45886011,8 1.52039857,8.33846154 L0.381937036,9.29230769 C0.012706267,9.6 -0.110370656,10.1538462 0.13578319,10.5846154 L0.628090882,11.4461538 C0.812706267,11.7538462 1.15116781,11.9384615 1.52039857,11.9384615 C1.6434755,11.9384615 1.76655242,11.9076923 1.85886011,11.8769231 L3.27424473,11.3538462 C3.82809088,11.8461538 4.4434755,12.1846154 5.08962934,12.4 L5.33578319,13.8769231 C5.42809088,14.3692308 5.82809088,14.7076923 6.35116781,14.7076923 L7.33578319,14.7076923 C7.82809088,14.7076923 8.25886011,14.3384615 8.35116781,13.8461538 L8.59732165,12.3692308 C9.30501396,12.1230769 9.95116781,11.7538462 10.505014,11.2307692 L11.8280909,11.7538462 C11.9511678,11.7846154 12.0742447,11.8153846 12.1973217,11.8153846 C12.5665524,11.8153846 12.905014,11.6307692 13.0896293,11.3230769 L13.5511678,10.5230769 C13.8280909,10.1846154 13.705014,9.63076923 13.3357832,9.32307692 L13.3357832,9.32307692 Z M6.87424473,10.7692308 C4.99732165,10.7692308 3.48962934,9.26153846 3.48962934,7.38461538 C3.48962934,5.50769231 4.99732165,4 6.87424473,4 C8.75116781,4 10.2588601,5.50769231 10.2588601,7.38461538 C10.2588601,9.26153846 8.75116781,10.7692308 6.87424473,10.7692308 Z" id="path-3"></path>
        <path d="M6.87424473,5.23076923 C5.67424473,5.23076923 4.72039857,6.18461538 4.72039857,7.38461538 C4.72039857,8.58461538 5.67424473,9.53846154 6.87424473,9.53846154 C8.07424473,9.53846154 9.02809088,8.58461538 9.02809088,7.38461538 C9.02809088,6.18461538 8.07424473,5.23076923 6.87424473,5.23076923 Z M13.3357832,9.32307692 L12.1973217,8.36923077 C12.2588601,8.03076923 12.2896293,7.66153846 12.2896293,7.32307692 C12.2896293,6.98461538 12.2588601,6.61538462 12.1973217,6.27692308 L13.3357832,5.32307692 C13.705014,5.01538462 13.8280909,4.46153846 13.581937,4.03076923 L13.0896293,3.16923077 C12.905014,2.86153846 12.5665524,2.67692308 12.1973217,2.67692308 C12.0742447,2.67692308 11.9511678,2.70769231 11.8588601,2.73846154 L10.4434755,3.26153846 C9.88962934,2.76923077 9.27424473,2.43076923 8.62809088,2.21538462 L8.38193704,0.769230769 C8.28962934,0.276923077 7.85886011,0 7.36655242,0 L6.38193704,0 C5.88962934,0 5.45886011,0.276923077 5.36655242,0.769230769 L5.12039857,2.18461538 C4.4434755,2.4 3.82809088,2.76923077 3.27424473,3.23076923 L1.85886011,2.70769231 C1.73578319,2.67692308 1.6434755,2.64615385 1.52039857,2.64615385 C1.15116781,2.64615385 0.812706267,2.83076923 0.628090882,3.13846154 L0.13578319,4 C-0.110370656,4.43076923 -0.0180629638,4.98461538 0.381937036,5.29230769 L1.52039857,6.24615385 C1.45886011,6.58461538 1.42809088,6.95384615 1.42809088,7.29230769 C1.42809088,7.66153846 1.45886011,8 1.52039857,8.33846154 L0.381937036,9.29230769 C0.012706267,9.6 -0.110370656,10.1538462 0.13578319,10.5846154 L0.628090882,11.4461538 C0.812706267,11.7538462 1.15116781,11.9384615 1.52039857,11.9384615 C1.6434755,11.9384615 1.76655242,11.9076923 1.85886011,11.8769231 L3.27424473,11.3538462 C3.82809088,11.8461538 4.4434755,12.1846154 5.08962934,12.4 L5.33578319,13.8769231 C5.42809088,14.3692308 5.82809088,14.7076923 6.35116781,14.7076923 L7.33578319,14.7076923 C7.82809088,14.7076923 8.25886011,14.3384615 8.35116781,13.8461538 L8.59732165,12.3692308 C9.30501396,12.1230769 9.95116781,11.7538462 10.505014,11.2307692 L11.8280909,11.7538462 C11.9511678,11.7846154 12.0742447,11.8153846 12.1973217,11.8153846 C12.5665524,11.8153846 12.905014,11.6307692 13.0896293,11.3230769 L13.5511678,10.5230769 C13.8280909,10.1846154 13.705014,9.63076923 13.3357832,9.32307692 L13.3357832,9.32307692 Z M6.87424473,10.7692308 C4.99732165,10.7692308 3.48962934,9.26153846 3.48962934,7.38461538 C3.48962934,5.50769231 4.99732165,4 6.87424473,4 C8.75116781,4 10.2588601,5.50769231 10.2588601,7.38461538 C10.2588601,9.26153846 8.75116781,10.7692308 6.87424473,10.7692308 Z" id="path-5"></path>
        <path d="M6.87424473,5.23076923 C5.67424473,5.23076923 4.72039857,6.18461538 4.72039857,7.38461538 C4.72039857,8.58461538 5.67424473,9.53846154 6.87424473,9.53846154 C8.07424473,9.53846154 9.02809088,8.58461538 9.02809088,7.38461538 C9.02809088,6.18461538 8.07424473,5.23076923 6.87424473,5.23076923 Z M13.3357832,9.32307692 L12.1973217,8.36923077 C12.2588601,8.03076923 12.2896293,7.66153846 12.2896293,7.32307692 C12.2896293,6.98461538 12.2588601,6.61538462 12.1973217,6.27692308 L13.3357832,5.32307692 C13.705014,5.01538462 13.8280909,4.46153846 13.581937,4.03076923 L13.0896293,3.16923077 C12.905014,2.86153846 12.5665524,2.67692308 12.1973217,2.67692308 C12.0742447,2.67692308 11.9511678,2.70769231 11.8588601,2.73846154 L10.4434755,3.26153846 C9.88962934,2.76923077 9.27424473,2.43076923 8.62809088,2.21538462 L8.38193704,0.769230769 C8.28962934,0.276923077 7.85886011,0 7.36655242,0 L6.38193704,0 C5.88962934,0 5.45886011,0.276923077 5.36655242,0.769230769 L5.12039857,2.18461538 C4.4434755,2.4 3.82809088,2.76923077 3.27424473,3.23076923 L1.85886011,2.70769231 C1.73578319,2.67692308 1.6434755,2.64615385 1.52039857,2.64615385 C1.15116781,2.64615385 0.812706267,2.83076923 0.628090882,3.13846154 L0.13578319,4 C-0.110370656,4.43076923 -0.0180629638,4.98461538 0.381937036,5.29230769 L1.52039857,6.24615385 C1.45886011,6.58461538 1.42809088,6.95384615 1.42809088,7.29230769 C1.42809088,7.66153846 1.45886011,8 1.52039857,8.33846154 L0.381937036,9.29230769 C0.012706267,9.6 -0.110370656,10.1538462 0.13578319,10.5846154 L0.628090882,11.4461538 C0.812706267,11.7538462 1.15116781,11.9384615 1.52039857,11.9384615 C1.6434755,11.9384615 1.76655242,11.9076923 1.85886011,11.8769231 L3.27424473,11.3538462 C3.82809088,11.8461538 4.4434755,12.1846154 5.08962934,12.4 L5.33578319,13.8769231 C5.42809088,14.3692308 5.82809088,14.7076923 6.35116781,14.7076923 L7.33578319,14.7076923 C7.82809088,14.7076923 8.25886011,14.3384615 8.35116781,13.8461538 L8.59732165,12.3692308 C9.30501396,12.1230769 9.95116781,11.7538462 10.505014,11.2307692 L11.8280909,11.7538462 C11.9511678,11.7846154 12.0742447,11.8153846 12.1973217,11.8153846 C12.5665524,11.8153846 12.905014,11.6307692 13.0896293,11.3230769 L13.5511678,10.5230769 C13.8280909,10.1846154 13.705014,9.63076923 13.3357832,9.32307692 L13.3357832,9.32307692 Z M6.87424473,10.7692308 C4.99732165,10.7692308 3.48962934,9.26153846 3.48962934,7.38461538 C3.48962934,5.50769231 4.99732165,4 6.87424473,4 C8.75116781,4 10.2588601,5.50769231 10.2588601,7.38461538 C10.2588601,9.26153846 8.75116781,10.7692308 6.87424473,10.7692308 Z" id="path-7"></path>
        <path d="M6.87424473,5.23076923 C5.67424473,5.23076923 4.72039857,6.18461538 4.72039857,7.38461538 C4.72039857,8.58461538 5.67424473,9.53846154 6.87424473,9.53846154 C8.07424473,9.53846154 9.02809088,8.58461538 9.02809088,7.38461538 C9.02809088,6.18461538 8.07424473,5.23076923 6.87424473,5.23076923 Z M13.3357832,9.32307692 L12.1973217,8.36923077 C12.2588601,8.03076923 12.2896293,7.66153846 12.2896293,7.32307692 C12.2896293,6.98461538 12.2588601,6.61538462 12.1973217,6.27692308 L13.3357832,5.32307692 C13.705014,5.01538462 13.8280909,4.46153846 13.581937,4.03076923 L13.0896293,3.16923077 C12.905014,2.86153846 12.5665524,2.67692308 12.1973217,2.67692308 C12.0742447,2.67692308 11.9511678,2.70769231 11.8588601,2.73846154 L10.4434755,3.26153846 C9.88962934,2.76923077 9.27424473,2.43076923 8.62809088,2.21538462 L8.38193704,0.769230769 C8.28962934,0.276923077 7.85886011,0 7.36655242,0 L6.38193704,0 C5.88962934,0 5.45886011,0.276923077 5.36655242,0.769230769 L5.12039857,2.18461538 C4.4434755,2.4 3.82809088,2.76923077 3.27424473,3.23076923 L1.85886011,2.70769231 C1.73578319,2.67692308 1.6434755,2.64615385 1.52039857,2.64615385 C1.15116781,2.64615385 0.812706267,2.83076923 0.628090882,3.13846154 L0.13578319,4 C-0.110370656,4.43076923 -0.0180629638,4.98461538 0.381937036,5.29230769 L1.52039857,6.24615385 C1.45886011,6.58461538 1.42809088,6.95384615 1.42809088,7.29230769 C1.42809088,7.66153846 1.45886011,8 1.52039857,8.33846154 L0.381937036,9.29230769 C0.012706267,9.6 -0.110370656,10.1538462 0.13578319,10.5846154 L0.628090882,11.4461538 C0.812706267,11.7538462 1.15116781,11.9384615 1.52039857,11.9384615 C1.6434755,11.9384615 1.76655242,11.9076923 1.85886011,11.8769231 L3.27424473,11.3538462 C3.82809088,11.8461538 4.4434755,12.1846154 5.08962934,12.4 L5.33578319,13.8769231 C5.42809088,14.3692308 5.82809088,14.7076923 6.35116781,14.7076923 L7.33578319,14.7076923 C7.82809088,14.7076923 8.25886011,14.3384615 8.35116781,13.8461538 L8.59732165,12.3692308 C9.30501396,12.1230769 9.95116781,11.7538462 10.505014,11.2307692 L11.8280909,11.7538462 C11.9511678,11.7846154 12.0742447,11.8153846 12.1973217,11.8153846 C12.5665524,11.8153846 12.905014,11.6307692 13.0896293,11.3230769 L13.5511678,10.5230769 C13.8280909,10.1846154 13.705014,9.63076923 13.3357832,9.32307692 L13.3357832,9.32307692 Z M6.87424473,10.7692308 C4.99732165,10.7692308 3.48962934,9.26153846 3.48962934,7.38461538 C3.48962934,5.50769231 4.99732165,4 6.87424473,4 C8.75116781,4 10.2588601,5.50769231 10.2588601,7.38461538 C10.2588601,9.26153846 8.75116781,10.7692308 6.87424473,10.7692308 Z" id="path-9"></path>
    </defs>
    <g id="Page-1" stroke="none" stroke-width="1" fill="none" fill-rule="evenodd">
        <g id="Data-Capture-Overview" transform="translate(0.000000, -599.000000)">
            <rect fill="#FFFFFF" x="0" y="0" width="1280" height="1382"></rect>
            <path d="M16.5,731.5 L1263.5,731.5 L1263.5,661.00581 C1263.5,659.072729 1261.92816,657.5 1259.99309,657.5 L20.0069082,657.5 C18.0619097,657.5 16.5,659.064945 16.5,661.00581 L16.5,731.5 Z" id="Rectangle" stroke="#D8DDE6" fill="#F7F9FB"></path>
            <path d="M326.5,657.5 L326.5,730.5" id="Line-2" stroke="#D8DDE6" stroke-linecap="square"></path>
            <g id="Group-19-Copy-2" transform="translate(16.000000, 657.000000)">
                <rect id="Rectangle" x="0" y="0" width="304" height="75" rx="4"></rect>
                <g id="Group-36" transform="translate(16.000000, 29.000000)" fill="#54698D">
                    <g id="Group-33">
                        <g id="Page-1-Copy-3">
                            <g id="custom68">
                                <path d="M10.1137124,0 C4.49498328,0 0,4.49498328 0,10.1137124 C0,15.7324415 4.49498328,20.2274247 10.1137124,20.2274247 C15.7324415,20.2274247 20.2274247,15.7324415 20.2274247,10.1137124 C20.2274247,4.49498328 15.7324415,0 10.1137124,0 Z M18.1204013,9.13043478 L15.451505,9.13043478 C15.3110368,6.74247492 14.8896321,4.63545151 14.0468227,3.090301 C16.2943144,4.21404682 17.8394649,6.46153846 18.1204013,9.13043478 Z M9.13043478,2.52842809 L9.13043478,9.13043478 L6.74247492,9.13043478 C6.88294314,5.89966555 8.00668896,3.37123746 9.13043478,2.52842809 Z M9.13043478,11.09699 L9.13043478,17.6989967 C8.00668896,16.8561873 6.88294314,14.3277592 6.74247492,11.09699 L9.13043478,11.09699 Z M11.09699,17.6989967 L11.09699,11.09699 L13.4849498,11.09699 C13.3444816,14.3277592 12.2207358,16.8561873 11.09699,17.6989967 Z M11.09699,9.13043478 L11.09699,2.52842809 C12.2207358,3.37123746 13.3444816,5.89966555 13.4849498,9.13043478 L11.09699,9.13043478 L11.09699,9.13043478 Z M6.18060201,3.090301 C5.33779264,4.63545151 4.91638796,6.74247492 4.77591973,9.13043478 L2.10702341,9.13043478 C2.38795987,6.46153846 3.93311037,4.21404682 6.18060201,3.090301 Z M2.10702341,11.09699 L4.77591973,11.09699 C4.91638796,13.4849498 5.33779264,15.5919732 6.18060201,17.1371237 C3.93311037,16.0133779 2.38795987,13.7658863 2.10702341,11.09699 Z M14.0468227,17.1371237 C14.8896321,15.5919732 15.3110368,13.4849498 15.451505,11.09699 L18.1204013,11.09699 C17.8394649,13.7658863 16.2943144,16.0133779 14.0468227,17.1371237 Z" id="Shape"></path>
                            </g>
                        </g>
                    </g>
                </g>
                <g id="Group-48" transform="translate(230.000000, 28.000000)" fill="#16325C" font-family="SalesforceSans-Bold, Salesforce Sans" font-size="18" font-weight="bold">
                    <text id="10">
                        <tspan x="0" y="20">10</tspan>
                    </text>
                </g>
                <text id="Web" font-family="SalesforceSans-Regular, Salesforce Sans" font-size="18" font-weight="normal" fill="#16325C">
                    <tspan x="48" y="48">Web</tspan>
                </text>
            </g>
            <g id="Group-19-Copy-3" transform="translate(330.000000, 657.000000)">
                <rect id="Rectangle" x="0" y="0" width="304" height="75" rx="4"></rect>
                <g id="Group-36" transform="translate(12.000000, 30.000000)" fill="#54698D" fill-rule="nonzero">
                    <g id="Group-3">
                        <g id="icons/utility/phone_portrait">
                            <path d="M13.825,1.575 C13.825,0.7 13.125,0 12.25,0 L1.75,0 C0.875,0 0.175,0.7 0.175,1.575 L0.175,19.425 C0.175,20.3 0.875,21 1.75,21 L12.25,21 C13.125,21 13.825,20.3 13.825,19.425 L13.825,1.575 Z M7,20.2125 C6.3,20.2125 5.775,19.6875 5.775,18.9875 C5.775,18.2875 6.3,17.7625 7,17.7625 C7.7,17.7625 8.225,18.2875 8.225,18.9875 C8.225,19.6875 7.7,20.2125 7,20.2125 Z M11.4625,16.3625 C11.4625,16.7125 11.2,16.975 10.85,16.975 L3.15,16.975 C2.8,16.975 2.5375,16.7125 2.5375,16.3625 L2.5375,3.85 C2.5375,3.5 2.8,3.2375 3.15,3.2375 L10.85,3.2375 C11.2,3.2375 11.4625,3.5 11.4625,3.85 L11.4625,16.3625 Z" id="Shape"></path>
                        </g>
                    </g>
                </g>
                <g id="Group-48" transform="translate(246.000000, 29.000000)" fill="#16325C" font-family="SalesforceSans-Bold, Salesforce Sans" font-size="18" font-weight="bold">
                    <text id="12">
                        <tspan x="0" y="20">12</tspan>
                    </text>
                </g>
                <text id="App" font-family="SalesforceSans-Regular, Salesforce Sans" font-size="18" font-weight="normal" fill="#16325C">
                    <tspan x="35" y="49">App</tspan>
                </text>
            </g>
            <g id="Group-19-Copy-4" transform="translate(645.000000, 657.000000)">
                <rect id="Rectangle" stroke="#D8DDE6" fill="#FFFFFF" x="0.5" y="0.5" width="303" height="74" rx="4"></rect>
                <g id="Group-36" transform="translate(18.000000, 30.000000)" fill="#54698D" fill-rule="nonzero">
                    <g id="Group-3">
                        <g id="icons/utility/file">
                            <path d="M2.19201031,14.3530432 L2.19201031,4.31562252 C1.10273196,4.31562252 0.195,5.18844171 0.195,6.14854282 L0.195,18.0188838 C0.195,19.0662669 1.10273196,19.939086 2.19201031,19.939086 L11.9047423,19.939086 C12.9940206,19.939086 13.9017526,19.0662669 13.9017526,18.1061657 L6.09525773,18.1061657 C3.91670103,18.1061657 2.19201031,18.1061657 2.19201031,14.3530432 Z M17.1695876,6.14854282 L13.9017526,6.14854282 C12.8124742,6.14854282 11.9047423,5.36300555 11.9047423,4.31562252 L11.9047423,1.17347343 C11.9047423,0.824345757 11.6324227,0.5625 11.2693299,0.5625 L6.09525773,0.5625 C5.00597938,0.5625 4.09824742,1.43531919 4.09824742,2.3954203 L4.09824742,14.2657613 C4.09824742,15.3131443 5.00597938,16.0986816 6.09525773,16.0986816 L15.8079897,16.0986816 C16.897268,16.0986816 17.805,15.3131443 17.805,14.2657613 L17.805,6.84679818 C17.805,6.4976705 17.5326804,6.14854282 17.1695876,6.14854282 Z M17.7142268,3.53008525 L14.6279381,0.737063838 C14.5371649,0.649781919 14.4463918,0.5625 14.3556186,0.5625 C14.083299,0.5625 13.9017526,0.824345757 13.9017526,0.998909596 L13.9017526,3.09367565 C13.9017526,3.79193101 14.4463918,4.31562252 15.1725773,4.31562252 L17.351134,4.31562252 C17.6234536,4.31562252 17.805,4.14105868 17.805,3.87921293 C17.805,3.79193101 17.7142268,3.70464909 17.7142268,3.53008525 Z" id="Shape"></path>
                        </g>
                    </g>
                </g>
                <g id="Group-48" transform="translate(233.000000, 28.000000)" fill="#16325C" font-family="SalesforceSans-Bold, Salesforce Sans" font-size="18" font-weight="bold">
                    <text id="5">
                        <tspan x="0" y="20">5</tspan>
                    </text>
                </g>
                <g id="Group-48-Copy" transform="translate(540.000000, 27.000000)" fill="#16325C" font-family="SalesforceSans-Bold, Salesforce Sans" font-size="18" font-weight="bold">
                    <text id="3">
                        <tspan x="0" y="20">3</tspan>
                    </text>
                </g>
                <text id="Offline-Files" font-family="SalesforceSans-Regular, Salesforce Sans" font-size="18" font-weight="normal" fill="#16325C">
                    <tspan x="50" y="48">Offline Files</tspan>
                </text>
            </g>
            <g id="Group-19-Copy-5" transform="translate(968.000000, 684.000000)">
                <g id="Group-36" transform="translate(0.000000, 2.000000)" fill="#54698D">
                    <g id="Group-3">
                        <g id="custom14">
                            <path d="M23.1646192,2.975 L20.8255528,2.975 C20.3243243,2.975 19.8230958,2.8 19.3218673,2.45 L17.4840295,0.7 C16.982801,0.35 16.4815725,0 15.980344,0 L11.3022113,0 C10.6339066,0 10.1326781,0.35 9.63144963,0.7 L7.12530713,2.975 C6.95823096,3.15 6.95823096,3.5 7.12530713,3.675 L7.96068796,4.375 C8.46191646,4.9 9.13022113,4.9 9.63144963,4.55 L11.8034398,3.15 C12.1375921,2.975 12.4717445,2.975 12.8058968,3.325 L19.6560197,10.325 C19.8230958,10.5 19.990172,10.675 19.990172,11.025 L19.990172,12.95 C19.990172,13.3 20.3243243,14 20.8255528,14 L23.1646192,14 C23.6658477,14 24,13.475 24,13.125 L24,3.85 C24,3.325 23.6658477,2.975 23.1646192,2.975 Z M16.7577413,11.1930187 L12.3118099,6.69738202 L11.1148284,7.59650936 C10.6018363,7.9561603 9.9178469,8.13598577 9.23385746,8.13598577 C8.2078733,8.13598577 7.35288649,7.77633483 6.66889705,7.23685843 L5.12992081,5.79825468 C4.78792609,5.43860374 4.44593137,5.07895281 4.44593137,4.71930187 C4.44593137,4.17982547 4.10393665,4 3.59094457,4 L0.854986802,4 C0.341994721,4 0,4.17982547 0,4.71930187 L0,12.6316225 C0,12.9912734 0.341994721,13.3509243 0.854986802,13.3509243 L2.39396304,13.3509243 C2.56496041,13.3509243 2.73595777,12.9912734 2.90695513,12.8114479 C3.59094457,11.9123206 4.44593137,11.3728442 5.47191553,11.1930187 C6.32690233,11.1930187 7.35288649,11.5526697 8.2078733,12.2719715 L13.3377941,17.1272592 C13.6797888,17.6667356 14.0217835,18.0263865 14.1927809,18.7456884 C14.3637783,18.9255139 14.705773,19.1053393 14.8767703,18.9255139 L16.7577413,16.7676082 C17.7837255,15.8684809 18.4677149,13.3509243 17.6127281,12.2719715 L16.7577413,11.1930187 L16.7577413,11.1930187 Z M5.85285911,13.3384872 C5.38224743,12.7778887 4.59789462,12.9647549 4.2841535,13.5253534 C3.81354182,14.0859519 3.97041238,15.0202827 4.44102406,15.5808812 L9.14714089,20.6262677 C9.30401145,21 9.61775257,21 9.9314937,21 C10.2452348,21 10.5589759,20.8131338 10.7158465,20.4394015 C11.1864582,19.878803 11.0295876,18.9444722 10.5589759,18.3838737 L5.85285911,13.3384872 L5.85285911,13.3384872 Z" id="Shape"></path>
                        </g>
                    </g>
                </g>
                <text id="Partners" font-family="SalesforceSans-Regular, Salesforce Sans" font-size="18" font-weight="normal" fill="#16325C">
                    <tspan x="35" y="20">Partners</tspan>
                </text>
            </g>
            <g id="Group-17" transform="translate(30.000000, 745.000000)" font-family="SalesforceSans-Regular, Salesforce Sans" font-weight="normal">
                <text id="Offline-File-Sources" font-size="16" fill="#16325C">
                    <tspan x="0" y="18">Offline File Sources</tspan>
                </text>
                <text id="Create-new-or-edit-e" font-size="12" fill="#4F6A92">
                    <tspan x="1" y="38">Create new or edit existing connections to bring offline data into the DMP.</tspan>
                </text>
            </g>
            <path d="M16.5,731.5 L16.5,1219.99547 C16.5,1221.93582 18.0672005,1223.5 20.0069082,1223.5 L1259.99309,1223.5 C1261.93813,1223.5 1263.5,1221.93559 1263.5,1219.99547 L1263.5,731.5 L16.5,731.5 Z" id="Rectangle" stroke="#D8DDE6"></path>
            <rect id="Rectangle-Copy" fill="#FFFFFF" x="646" y="727" width="302" height="9"></rect>
            <rect id="Rectangle-Copy-2" fill="#4F6A92" x="646" y="657" width="302" height="2"></rect>
            <g id="Button-New-Copy-2" transform="translate(1104.000000, 749.000000)">
                <rect id="Rectangle-827" fill="#0070D2" x="0" y="0" width="146" height="32" rx="4"></rect>
                <text id="Add-New-Source" font-family="SalesforceSans-Regular, Salesforce Sans" font-size="12" font-weight="normal" line-spacing="20" fill="#FFFFFF">
                    <tspan x="37" y="17">Add New Source</tspan>
                </text>
                <g id="new" transform="translate(16.000000, 10.000000)" fill="#FFFFFF">
                    <path d="M6.98181818,6.76363636 L11.1818182,6.76363636 C11.3454545,6.76363636 11.5636364,6.6 11.5636364,6.38181818 L11.5636364,5.61818182 C11.5636364,5.4 11.3454545,5.23636364 11.1818182,5.23636364 L6.98181818,5.23636364 C6.87272727,5.23636364 6.76363636,5.12727273 6.76363636,5.01818182 L6.76363636,0.818181818 C6.76363636,0.654545455 6.6,0.436363636 6.38181818,0.436363636 L5.61818182,0.436363636 C5.4,0.436363636 5.23636364,0.654545455 5.23636364,0.818181818 L5.23636364,5.01818182 C5.23636364,5.12727273 5.12727273,5.23636364 5.01818182,5.23636364 L0.818181818,5.23636364 C0.654545455,5.23636364 0.436363636,5.4 0.436363636,5.61818182 L0.436363636,6.38181818 C0.436363636,6.6 0.654545455,6.76363636 0.818181818,6.76363636 L5.01818182,6.76363636 C5.12727273,6.76363636 5.23636364,6.87272727 5.23636364,6.98181818 L5.23636364,11.1818182 C5.23636364,11.3454545 5.4,11.5636364 5.61818182,11.5636364 L6.38181818,11.5636364 C6.6,11.5636364 6.76363636,11.3454545 6.76363636,11.1818182 L6.76363636,6.98181818 C6.76363636,6.87272727 6.87272727,6.76363636 6.98181818,6.76363636 L6.98181818,6.76363636 Z" id="Shape"></path>
                </g>
            </g>
            <path d="M449.5,617.166667 L463.5,617.166667" id="Line" stroke="#73ACE8" stroke-width="2"></path>
            <circle id="Oval-2" fill="#73ACE8" cx="457" cy="617" r="3"></circle>
            <text id="Website" font-family="SalesforceSans-Regular, Salesforce Sans" font-size="12" font-weight="normal" fill="#3E3E3C">
                <tspan x="469" y="623">Website</tspan>
            </text>
            <g id="Group-4" transform="translate(555.000000, 609.000000)">
                <path d="M0.5,8.16666667 L14.5,8.16666667" id="Line" stroke="#EDBE32" stroke-width="2"></path>
                <circle id="Oval-2" fill="#EDBE32" cx="8" cy="8" r="3"></circle>
                <text id="App" font-family="SalesforceSans-Regular, Salesforce Sans" font-size="12" font-weight="normal" fill="#3E3E3C">
                    <tspan x="19" y="14">App</tspan>
                </text>
            </g>
            <g id="Group-4" transform="translate(637.000000, 609.000000)">
                <path d="M0.5,8.16666667 L14.5,8.16666667" id="Line" stroke="#EA78BB" stroke-width="2"></path>
                <circle id="Oval-2" fill="#EA78BB" cx="8" cy="8" r="3"></circle>
                <text id="Offline-Files" font-family="SalesforceSans-Regular, Salesforce Sans" font-size="12" font-weight="normal" fill="#3E3E3C">
                    <tspan x="19" y="14">Offline Files</tspan>
                </text>
            </g>
            <g id="Group-4-Copy" transform="translate(762.000000, 609.000000)">
                <path d="M0.5,8.16666667 L14.5,8.16666667" id="Line" stroke="#B896FA" stroke-width="2"></path>
                <circle id="Oval-2" fill="#B896FA" cx="8" cy="8" r="3"></circle>
                <text id="Partners" font-family="SalesforceSans-Regular, Salesforce Sans" font-size="12" font-weight="normal" fill="#3E3E3C">
                    <tspan x="19" y="14">Partners</tspan>
                </text>
            </g>
            <g id="Card-Complete" transform="translate(32.000000, 794.000000)">
                <g id="Folder-with-issues-Copy-2">
                    <rect id="Rectangle-13-Copy" stroke="#E0E5EE" fill="#FFFFFF" x="0.5" y="0.5" width="399" height="195" rx="4"></rect>
                    <path d="M0.5,110.5 L399.5,110.5 L399.5,4 C399.5,2.06700338 397.932997,0.5 396,0.5 L4,0.5 C2.06700338,0.5 0.5,2.06700338 0.5,4 L0.5,110.5 Z" id="Rectangle" stroke="#E0E5EE" fill="#F7F9FB"></path>
                    <g id="icons/utility/settings" transform="translate(370.000000, 19.000000)">
                        <mask id="mask-2" fill="white">
                            <use xlink:href="#path-1"></use>
                        </mask>
                        <use id="Mask" fill="#54698D" xlink:href="#path-1"></use>
                    </g>
                    <g id="Group" transform="translate(24.000000, 53.000000)">
                        <g id="Title" fill="#0070D2" font-family="SalesforceSans-Regular, Salesforce Sans" font-size="18" font-weight="normal">
                            <text id="Name">
                                <tspan x="0" y="20">Mortgage Installments</tspan>
                            </text>
                        </g>
                        <text id="IMPORT-TYPE:" font-family="SalesforceSans-Regular, Salesforce Sans" font-size="12" font-weight="normal" fill="#4F6A92">
                            <tspan x="1" y="47">IMPORT TYPE:</tspan>
                        </text>
                        <text id="Import-Type" font-family="SalesforceSans-Bold, Salesforce Sans" font-size="12" font-weight="bold" fill="#16325C">
                            <tspan x="87" y="47">NTO Transactions</tspan>
                        </text>
                    </g>
                    <g id="Group-2" transform="translate(50.000000, 125.000000)" font-family="SalesforceSans-Regular, Salesforce Sans" font-weight="normal">
                        <g id="Group-7-Copy-8">
                            <text id="RECEIVED-RECORDS" font-size="12" fill="#4F6A92">
                                <tspan x="0" y="56">RECEIVED RECORDS</tspan>
                            </text>
                            <text id="000" font-size="28" fill="#16325C">
                                <tspan x="0" y="32">117K</tspan>
                            </text>
                        </g>
                        <g id="Group-7-Copy-9" transform="translate(184.000000, 0.000000)">
                            <text id="MATCHED-RECORDS" font-size="12" fill="#4F6A92">
                                <tspan x="0" y="56">MATCHED RECORDS</tspan>
                            </text>
                            <text id="000" font-size="28" fill="#16325C">
                                <tspan x="0" y="32">25K</tspan>
                            </text>
                        </g>
                    </g>
                    <g id="Group-27-Copy" transform="translate(24.000000, 16.000000)">
                        <g id="Group-23">
                            <rect id="bkgd-copy" stroke="#04844B" fill="#FFFFFF" x="0" y="0" width="73" height="21" rx="10.5"></rect>
                            <text id="COMPLETE-Copy" font-family="SalesforceSans-Regular, Salesforce Sans" font-size="10" font-weight="normal" letter-spacing="0.600000024" fill="#04844B">
                                <tspan x="8" y="15">COMPLETE</tspan>
                            </text>
                        </g>
                    </g>
                </g>
            </g>
            <g id="Card-Processing" transform="translate(32.000000, 998.000000)">
                <g id="Folder-with-issues-Copy-2">
                    <rect id="Rectangle-13-Copy" stroke="#E0E5EE" fill="#FFFFFF" x="0.5" y="0.5" width="399" height="195" rx="4"></rect>
                    <path d="M0.5,110.5 L399.5,110.5 L399.5,4 C399.5,2.06700338 397.932997,0.5 396,0.5 L4,0.5 C2.06700338,0.5 0.5,2.06700338 0.5,4 L0.5,110.5 Z" id="Rectangle" stroke="#E0E5EE" fill="#F7F9FB"></path>
                    <g id="icons/utility/settings" transform="translate(370.000000, 19.000000)">
                        <mask id="mask-4" fill="white">
                            <use xlink:href="#path-3"></use>
                        </mask>
                        <use id="Mask" fill="#54698D" xlink:href="#path-3"></use>
                    </g>
                    <g id="Group" transform="translate(24.000000, 53.000000)">
                        <g id="Title" fill="#0070D2" font-family="SalesforceSans-Regular, Salesforce Sans" font-size="18" font-weight="normal">
                            <text id="Name">
                                <tspan x="0" y="20">High Value Targets</tspan>
                            </text>
                        </g>
                        <text id="IMPORT-TYPE:" font-family="SalesforceSans-Regular, Salesforce Sans" font-size="12" font-weight="normal" fill="#4F6A92">
                            <tspan x="1" y="47">IMPORT TYPE:</tspan>
                        </text>
                        <text id="Import-Type" font-family="SalesforceSans-Bold, Salesforce Sans" font-size="12" font-weight="bold" fill="#16325C">
                            <tspan x="87" y="47">Platform Segment</tspan>
                        </text>
                    </g>
                    <g id="Group-2" transform="translate(50.000000, 125.000000)" font-family="SalesforceSans-Regular, Salesforce Sans" font-weight="normal">
                        <g id="Group-7-Copy-8">
                            <text id="RECEIVED-RECORDS" font-size="12" fill="#4F6A92">
                                <tspan x="0" y="56">RECEIVED RECORDS</tspan>
                            </text>
                            <text id="—" font-size="28" fill="#16325C">
                                <tspan x="0" y="32">—</tspan>
                            </text>
                        </g>
                        <g id="Group-7-Copy-9" transform="translate(184.000000, 0.000000)">
                            <text id="MATCHED-RECORDS" font-size="12" fill="#4F6A92">
                                <tspan x="0" y="56">MATCHED RECORDS</tspan>
                            </text>
                            <text id="—" font-size="28" fill="#16325C">
                                <tspan x="0" y="32">—</tspan>
                            </text>
                        </g>
                    </g>
                    <g id="Group-23" transform="translate(24.000000, 16.000000)">
                        <rect id="bkgd" stroke="#54698D" fill="#FFFFFF" x="0" y="0" width="101" height="21" rx="10.5"></rect>
                        <text id="PROCESSING" font-family="SalesforceSans-Regular, Salesforce Sans" font-size="10" font-weight="normal" letter-spacing="0.600000024" fill="#54698D">
                            <tspan x="24" y="15">PROCESSING</tspan>
                        </text>
                        <path d="M17.6784168,5 L17.0352503,5 C16.8514885,5 16.7136671,5.14705882 16.7136671,5.34313725 L16.7136671,6.91176471 C16.7136671,7.15686275 16.4839648,7.25490196 16.3920839,7.10784314 C15.3813938,5.93137255 13.9572395,5.34313725 12.3952639,5.49019608 C11.8439783,5.53921569 11.3386333,5.73529412 10.8332882,5.98039216 C10.6035859,6.12745098 10.3279432,6.2745098 10.1441813,6.47058824 C9.96041948,6.56862745 9.96041948,6.81372549 10.0982409,6.96078431 L10.511705,7.45098039 C10.6495264,7.54901961 10.7873478,7.59803922 10.9251691,7.5 C11.2008119,7.30392157 11.4764547,7.15686275 11.7520974,7.00980392 C11.8899188,6.96078431 12.0277402,6.91176471 12.1655616,6.91176471 C13.4978349,6.61764706 14.7841678,7.20588235 15.5192152,8.08823529 C15.7489175,8.43137255 15.5651556,8.62745098 15.3813938,8.62745098 L13.8653586,8.62745098 C13.7275372,8.62745098 13.5437754,8.7745098 13.5437754,8.97058824 L13.5437754,9.65686275 C13.5437754,9.85294118 13.7275372,10 13.8653586,10 L17.7243572,10 C17.8621786,10 18,9.85294118 18,9.70588235 L18,5.34313725 C18,5.14705882 17.8621786,5 17.6784168,5 L17.6784168,5 Z M15.5115332,12.1568627 C15.3812754,12.0098039 15.2075984,12.0098039 15.0773406,12.1568627 C14.7734057,12.5 14.3826323,12.7941176 13.9050204,12.9901961 C13.8181818,13.0392157 13.6445047,13.0882353 13.5142469,13.0882353 C12.2550882,13.3823529 11.0393487,12.7941176 10.3880597,11.9117647 C10.1275441,11.5686275 10.3012212,11.372549 10.5183175,11.372549 L11.9077341,11.372549 C12.0814111,11.372549 12.2116689,11.2254902 12.2116689,11.0294118 L12.2116689,10.3431373 C12.2116689,10.1470588 12.0814111,10 11.9077341,10 L8.2605156,10 C8.1302578,10 8,10.1470588 8,10.2941176 L8,14.6568627 C8,14.8529412 8.1302578,15 8.30393487,15 L8.91180461,15 C9.08548168,15 9.21573948,14.8529412 9.21573948,14.6568627 L9.21573948,13.0882353 C9.21573948,12.8431373 9.43283582,12.745098 9.51967436,12.8921569 C10.4748982,14.0686275 11.8208955,14.6568627 13.2971506,14.5098039 C13.8181818,14.4607843 14.2957938,14.2647059 14.7734057,14.0196078 C15.2075984,13.7745098 15.5983718,13.4313725 15.9023066,13.0882353 C16.0325645,12.9411765 16.0325645,12.745098 15.9023066,12.5980392 L15.5115332,12.1568627 L15.5115332,12.1568627 Z" id="Shape" fill="#4F6A92"></path>
                    </g>
                </g>
            </g>
            <g id="Group-23" transform="translate(440.000000, 998.000000)">
                <g id="Folder-with-issues-Copy-2">
                    <rect id="Rectangle-13-Copy" stroke="#E0E5EE" fill="#FFFFFF" x="0.5" y="0.5" width="399" height="195" rx="4"></rect>
                    <path d="M0.5,110.5 L399.5,110.5 L399.5,4 C399.5,2.06700338 397.932997,0.5 396,0.5 L4,0.5 C2.06700338,0.5 0.5,2.06700338 0.5,4 L0.5,110.5 Z" id="Rectangle" stroke="#E0E5EE" fill="#F7F9FB"></path>
                    <g id="icons/utility/settings" transform="translate(370.000000, 19.000000)">
                        <mask id="mask-6" fill="white">
                            <use xlink:href="#path-5"></use>
                        </mask>
                        <use id="Mask" fill="#54698D" xlink:href="#path-5"></use>
                    </g>
                    <g id="Group" transform="translate(24.000000, 43.000000)">
                        <g id="Title" fill="#0070D2" font-family="SalesforceSans-Regular, Salesforce Sans" font-size="18" font-weight="normal">
                            <text id="Name">
                                <tspan x="0" y="20">Account Holders</tspan>
                            </text>
                        </g>
                        <g id="Group-16-Copy-2" transform="translate(17.000000, 48.000000)" fill="#0070D2" font-family="SalesforceSans-Regular, Salesforce Sans" font-size="11" font-weight="normal">
                            <g id="Group-8">
                                <text id="Manage-Consumer-Righ">
                                    <tspan x="0" y="13">Manage Consumer Rights</tspan>
                                </text>
                            </g>
                        </g>
                        <g id="new_custom91-copy" transform="translate(1.000000, 49.000000)" fill="#0070D2">
                            <path d="M11.583671,2.53986492 C10.9868045,2.37774588 10.4441986,1.94542845 10.118635,1.40503166 C9.84733207,0.972714225 9.84733207,0 9.19620499,0 L2.79345537,0 C2.14232829,2.9998048e-16 2.14232829,0.972714225 1.87102534,1.40503166 C1.43694062,2.05350781 0.948595307,2.21562685 0.297468227,2.5939046 C-0.353658854,2.97218235 0.243207637,4.53933305 0.405989407,5.13376952 C1.0028559,7.34939636 2.19658888,9.40290417 4.04144894,10.8619755 C4.58405484,11.2942929 5.12666074,11.618531 5.72352723,11.9427691 C6.26613313,12.2129675 7.18856316,11.456412 7.56838729,11.1321739 C8.5993385,10.3756184 9.46750794,9.45694385 10.1728956,8.37615027 C10.7155015,7.45747572 11.2038468,6.4847615 11.5294104,5.45800759 L11.8549739,4.16105529 C11.9092345,3.83681722 12.0720163,3.24238075 11.9634951,2.91814267 C11.9092345,2.75602364 11.7464527,2.5939046 11.583671,2.53986492 C10.6612409,2.26966652 11.8549739,2.5939046 11.583671,2.53986492 L11.583671,2.53986492 Z M10.7155015,3.94489658 C10.1728956,6.59284086 8.70785968,9.0786661 6.32039372,10.5377374 L5.99483018,10.7538962 L5.66926664,10.5377374 C2.79345537,8.8084677 1.70824357,5.99840439 1.27415885,3.8908569 L1.21989826,3.51257914 L1.59972239,3.29642043 C2.19658888,2.91814267 2.79345537,2.21562685 3.11901891,1.51311102 L3.28180068,1.18887294 L8.70785968,1.18887294 L8.81638086,1.45907134 C9.1419444,2.16158717 9.73881089,2.91814267 10.4984592,3.35046011 L10.7697621,3.45853947 L10.7697621,3.51257914 L10.7155015,3.94489658 Z M5.77778782,2.43178556 C5.3437031,2.43178556 4.20423071,2.43178556 3.98718835,2.5939046 C3.60736422,2.97218235 3.39032186,3.45853947 3.01049773,3.78277754 C2.57641301,4.10701562 2.73919478,4.48529337 2.90197655,4.97165048 C3.1732795,5.83628535 3.55310363,6.64688054 4.09570953,7.34939636 C4.36701248,7.72767412 4.63831543,8.10595187 5.01813956,8.43018995 C5.07240015,8.53826931 5.99483018,9.45694385 5.99483018,8.86250738 L5.99483018,2.81006332 C5.99483018,2.5939046 5.99483018,2.43178556 5.77778782,2.43178556 Z" id="Shape"></path>
                        </g>
                        <text id="IMPORT-TYPE:" font-family="SalesforceSans-Regular, Salesforce Sans" font-size="12" font-weight="normal" fill="#4F6A92">
                            <tspan x="1" y="43">IMPORT TYPE:</tspan>
                        </text>
                        <text id="Import-Type" font-family="SalesforceSans-Bold, Salesforce Sans" font-size="12" font-weight="bold" fill="#16325C">
                            <tspan x="87" y="43">Consent Data</tspan>
                        </text>
                    </g>
                    <g id="Group-2" transform="translate(50.000000, 125.000000)" font-family="SalesforceSans-Regular, Salesforce Sans" font-weight="normal">
                        <g id="Group-7-Copy-8">
                            <text id="RECEIVED-RECORDS" font-size="12" fill="#4F6A92">
                                <tspan x="0" y="56">RECEIVED RECORDS</tspan>
                            </text>
                            <text id="000" font-size="28" fill="#16325C">
                                <tspan x="0" y="32">2M</tspan>
                            </text>
                        </g>
                        <g id="Group-7-Copy-9" transform="translate(184.000000, 0.000000)">
                            <text id="MATCHED-RECORDS" font-size="12" fill="#4F6A92">
                                <tspan x="0" y="56">MATCHED RECORDS</tspan>
                            </text>
                            <text id="000" font-size="28" fill="#16325C">
                                <tspan x="0" y="32">765K</tspan>
                            </text>
                        </g>
                    </g>
                    <g id="Group-28" transform="translate(24.000000, 16.000000)">
                        <rect id="bkgd" stroke="#C23934" fill="#FFFFFF" x="0" y="0" width="53" height="21" rx="10.5"></rect>
                        <text id="FAILED" font-family="SalesforceSans-Regular, Salesforce Sans" font-size="10" font-weight="normal" letter-spacing="0.600000024" fill="#C23934">
                            <tspan x="8" y="15">FAILED</tspan>
                        </text>
                    </g>
                </g>
            </g>
            <g id="Card-Complete-With-Warning" transform="translate(440.000000, 794.000000)">
                <g id="Folder-with-issues-Copy-3">
                    <rect id="Rectangle-13-Copy" stroke="#E0E5EE" fill="#FFFFFF" x="0.5" y="0.5" width="399" height="195" rx="4"></rect>
                    <rect id="Rectangle" stroke="#E0E5EE" fill="#F7F9FB" x="0.5" y="0.5" width="399" height="111"></rect>
                    <g id="icons/utility/settings" transform="translate(370.000000, 17.000000)">
                        <mask id="mask-8" fill="white">
                            <use xlink:href="#path-7"></use>
                        </mask>
                        <use id="Mask" fill="#54698D" xlink:href="#path-7"></use>
                    </g>
                    <g id="Group" transform="translate(24.000000, 51.000000)">
                        <g id="Title" fill="#0070D2" font-family="SalesforceSans-Regular, Salesforce Sans" font-size="18" font-weight="normal">
                            <text id="Name">
                                <tspan x="0" y="20">Content Engagement</tspan>
                            </text>
                        </g>
                        <text id="IMPORT-TYPE:" font-family="SalesforceSans-Regular, Salesforce Sans" font-size="12" font-weight="normal" fill="#4F6A92">
                            <tspan x="1" y="47">IMPORT TYPE:</tspan>
                        </text>
                        <text id="Import-Type" font-family="SalesforceSans-Bold, Salesforce Sans" font-size="12" font-weight="bold" fill="#16325C">
                            <tspan x="87" y="47">Page Attribute Data</tspan>
                        </text>
                    </g>
                    <g id="Group-2" transform="translate(51.000000, 124.000000)" font-family="SalesforceSans-Regular, Salesforce Sans" font-weight="normal">
                        <g id="Group-7-Copy-8">
                            <text id="RECEIVED-RECORDS" font-size="12" fill="#4F6A92">
                                <tspan x="0" y="56">RECEIVED RECORDS</tspan>
                            </text>
                            <text id="000" font-size="28" fill="#16325C">
                                <tspan x="0" y="32">121K</tspan>
                            </text>
                        </g>
                        <g id="Group-7-Copy-9" transform="translate(145.000000, 0.000000)">
                            <text id="MATCHED-RECORDS" font-size="12" fill="#4F6A92">
                                <tspan x="0" y="56">MATCHED RECORDS</tspan>
                            </text>
                            <text id="000" font-size="28" fill="#16325C">
                                <tspan x="0" y="32">20K</tspan>
                            </text>
                        </g>
                    </g>
                    <g id="Group-23" transform="translate(24.000000, 14.000000)">
                        <rect id="bkgd" stroke="#FFB75D" fill="#FFFFFF" x="0" y="0" width="192" height="21" rx="10.5"></rect>
                        <text id="COMPLETED-WITH-WARNI" font-family="SalesforceSans-Regular, Salesforce Sans" font-size="10" font-weight="normal" letter-spacing="0.600000024" fill="#F5A43F">
                            <tspan x="24" y="15">COMPLETED WITH WARNINGS</tspan>
                        </text>
                        <path d="M19.8617684,13.75 L14.5724349,5.34090909 C14.2952646,4.88636364 13.6947289,4.88636364 13.4175586,5.34090909 L8.12822516,13.75 C7.80485979,14.2727273 8.12822516,15 8.70566331,15 L19.2843303,15 C19.8617684,15 20.2082313,14.2727273 19.8617684,13.75 Z M13.9949968,13.1818182 C13.6023388,13.1818182 13.302071,12.8863636 13.302071,12.5 C13.302071,12.1136364 13.6023388,11.8181818 13.9949968,11.8181818 C14.3876547,11.8181818 14.6879226,12.1136364 14.6879226,12.5 C14.6879226,12.8863636 14.3876547,13.1818182 13.9949968,13.1818182 Z M14.6879226,11.1363636 C14.6879226,11.2727273 14.5955325,11.3636364 14.4569473,11.3636364 L13.5330463,11.3636364 C13.3944611,11.3636364 13.302071,11.2727273 13.302071,11.1363636 L13.302071,8.18181818 C13.302071,8.04545455 13.3944611,7.95454545 13.5330463,7.95454545 L14.4569473,7.95454545 C14.5955325,7.95454545 14.6879226,8.04545455 14.6879226,8.18181818 L14.6879226,11.1363636 Z" id="Shape" fill="#FFB75D" fill-rule="nonzero"></path>
                    </g>
                </g>
            </g>
            <g id="Card-Disabled" transform="translate(848.000000, 794.000000)">
                <g id="Folder-with-issues-Copy-4">
                    <rect id="Rectangle-13-Copy" stroke="#E0E5EE" fill="#FFFFFF" x="0.5" y="0.5" width="399" height="195" rx="4"></rect>
                    <rect id="Rectangle" stroke="#E0E5EE" fill="#F7F9FB" x="0.5" y="0.5" width="399" height="111"></rect>
                    <g id="icons/utility/settings" transform="translate(370.000000, 17.000000)">
                        <mask id="mask-10" fill="white">
                            <use xlink:href="#path-9"></use>
                        </mask>
                        <use id="Mask" fill="#54698D" xlink:href="#path-9"></use>
                    </g>
                    <g id="Group" transform="translate(24.000000, 51.000000)">
                        <g id="Title" fill="#969492" font-family="SalesforceSans-Regular, Salesforce Sans" font-size="18" font-weight="normal">
                            <text id="Name">
                                <tspan x="0" y="20">Spending Habits</tspan>
                            </text>
                        </g>
                        <text id="IMPORT-TYPE:" font-family="SalesforceSans-Regular, Salesforce Sans" font-size="12" font-weight="normal" fill="#B0ADAB">
                            <tspan x="1" y="47">IMPORT TYPE:</tspan>
                        </text>
                        <text id="Import-Type" font-family="SalesforceSans-Bold, Salesforce Sans" font-size="12" font-weight="bold" fill="#969492">
                            <tspan x="87" y="47">User Attribute Data</tspan>
                        </text>
                    </g>
                    <g id="Group-2" transform="translate(51.000000, 124.000000)" font-family="SalesforceSans-Regular, Salesforce Sans" font-weight="normal">
                        <g id="Group-7-Copy-8">
                            <text id="RECEIVED-RECORDS" font-size="12" fill="#B0ADAB">
                                <tspan x="0" y="56">RECEIVED RECORDS</tspan>
                            </text>
                            <text id="000" font-size="28" fill="#969492">
                                <tspan x="0" y="32">623K</tspan>
                            </text>
                        </g>
                        <g id="Group-7-Copy-9" transform="translate(145.000000, 0.000000)">
                            <text id="MATCHED-RECORDS" font-size="12" fill="#B0ADAB">
                                <tspan x="0" y="56">MATCHED RECORDS</tspan>
                            </text>
                            <text id="000" font-size="28" fill="#969492">
                                <tspan x="0" y="32">210K</tspan>
                            </text>
                        </g>
                    </g>
                    <g id="Group-23" transform="translate(24.000000, 14.000000)">
                        <rect id="bkgd" stroke="#969492" fill="#FFFFFF" x="0" y="0" width="73" height="21" rx="10.5"></rect>
                        <text id="DISABLED" font-family="SalesforceSans-Regular, Salesforce Sans" font-size="10" font-weight="normal" letter-spacing="0.600000024" fill="#969492">
                            <tspan x="11" y="15">DISABLED</tspan>
                        </text>
                    </g>
                </g>
            </g>
        </g>
    </g>
</svg>