<svg width="48" height="48" viewBox="0 0 48 48" fill="none" xmlns="http://www.w3.org/2000/svg">
<rect width="48" height="48" rx="3" fill="#4BCA81"/>
<path d="M23.7129 17.82C26.1484 17.82 28.1229 15.8456 28.1229 13.41C28.1229 10.9744 26.1484 9 23.7129 9C21.2773 9 19.3029 10.9744 19.3029 13.41C19.3029 15.8456 21.2773 17.82 23.7129 17.82Z" fill="white"/>
<path d="M37.4329 20.7598H9.99293C9.01293 20.7598 8.62093 21.9848 9.45393 22.5238L16.6079 27.1298C16.9509 27.3748 17.1469 27.8158 16.9999 28.2078L14.3049 37.1748C14.0109 38.1548 15.2849 38.8408 16.0199 38.1058L22.9779 30.7558C23.3699 30.3148 24.0559 30.3148 24.4479 30.7558L31.4059 38.1058C32.0919 38.8408 33.3659 38.1548 33.1209 37.1748L30.4259 28.2078C30.3279 27.8158 30.4749 27.3748 30.8179 27.1298L37.9719 22.5238C38.8049 21.9848 38.4129 20.7598 37.4329 20.7598Z" fill="white"/>
</svg>
