<svg width="13px" height="16px" viewBox="0 0 13 16" version="1.1" xmlns="http://www.w3.org/2000/svg" xmlns:xlink="http://www.w3.org/1999/xlink">
    <!-- Generator: Sketch 46 (44423) - http://www.bohemiancoding.com/sketch -->
    <title>Pin</title>
    <desc>Created with Sketch.</desc>
    <defs></defs>
    <g id="Specs" stroke="none" stroke-width="1" fill="none" fill-rule="evenodd">
        <g id="Group-19" transform="translate(-899.000000, -26.000000)" fill="#54698D">
            <g id="Group-19-Copy" transform="translate(885.000000, 19.000000)">
                <g id="Pin" transform="translate(19.477671, 16.083333) rotate(-330.000000) translate(-19.477671, -16.083333) translate(13.977671, 8.083333)">
                    <path d="M5.17139394,6.61362424 C2.31515152,6.61362424 0,7.91204848 0,9.51398788 L10.3427879,9.51398788 C10.3427879,7.91204848 8.02763636,6.61362424 5.17139394,6.61362424" id="Fill-1"></path>
                    <path d="M5.17139394,1.74264242 C7.36,1.74264242 9.13406061,0.962521212 9.13406061,9.6969697e-05 L1.20872727,9.6969697e-05 C1.20872727,0.962521212 2.98278788,1.74264242 5.17139394,1.74264242" id="Fill-3"></path>
                    <polygon id="Fill-5" points="7.72349091 8.31132121 2.61949091 8.31132121 3.0224 0.871321212 7.32058182 0.871321212"></polygon>
                    <path d="M5.17139394,5.83500606 C5.17139394,5.83500606 5.33333333,6.45124848 5.44872727,7.37633939 C5.51078788,7.8384 5.56266667,8.37803636 5.59709091,8.95597576 C5.63393939,9.53391515 5.65624242,10.1501576 5.65624242,10.7668848 C5.65624242,11.3836121 5.63587879,11.9998545 5.59806061,12.5777939 C5.56460606,13.1557333 5.51272727,13.6953697 5.44969697,14.1579152 C5.33430303,15.0825212 5.17139394,15.6987636 5.17139394,15.6987636 C5.17139394,15.6987636 5.00848485,15.0825212 4.89309091,14.1579152 C4.83006061,13.6953697 4.77818182,13.1557333 4.74472727,12.5777939 C4.70690909,11.9998545 4.68654545,11.3836121 4.68654545,10.7668848 C4.68654545,10.1501576 4.70884848,9.53391515 4.74569697,8.95597576 C4.78012121,8.37803636 4.832,7.8384 4.89406061,7.37633939 C5.00945455,6.45124848 5.17139394,5.83500606 5.17139394,5.83500606" id="Fill-7"></path>
                </g>
            </g>
        </g>
    </g>
</svg>