<svg width="362" height="249" viewBox="0 0 362 249" fill="none" xmlns="http://www.w3.org/2000/svg">
<g id="channel-engagement">
<g id="new_custom24">
<path id="Shape" fill-rule="evenodd" clip-rule="evenodd" d="M52.5615 168H35.7945C34.2702 168 33 169.27 33 170.794C33 171.43 33.5081 171.811 34.0162 171.811H54.3398C54.8479 171.811 55.356 171.43 55.356 170.794C55.356 169.27 54.0858 168 52.5615 168ZM52.5613 174.606H35.7944C35.2863 174.606 34.9052 174.987 34.9052 175.495V195.184C34.9052 195.819 35.2863 196.2 35.7944 196.2H41.0023C41.5104 196.2 41.8914 195.819 41.8914 195.184V191.5C41.8914 190.992 42.3995 190.484 42.9076 190.484H45.5751C46.0832 190.484 46.5913 190.992 46.5913 191.5V195.184C46.5913 195.819 46.9724 196.2 47.4804 196.2H52.5613C53.1965 196.2 53.5775 195.819 53.5775 195.184V175.495C53.4505 174.987 53.0694 174.606 52.5613 174.606ZM42.7806 187.308C42.7806 187.816 42.3996 188.197 41.8915 188.197H39.9861C39.4781 188.197 38.97 187.816 38.97 187.308V185.403C38.97 184.895 39.4781 184.387 39.9861 184.387H41.8915C42.3996 184.387 42.7806 184.895 42.7806 185.403V187.308ZM42.7806 180.703C42.7806 181.212 42.3996 181.593 41.8915 181.593H39.9861C39.4781 181.593 38.97 181.212 38.97 180.703V178.798C38.97 178.29 39.4781 177.909 39.9861 177.909H41.8915C42.3996 177.909 42.7806 178.29 42.7806 178.798V180.703ZM49.2588 187.308C49.2588 187.816 48.8777 188.197 48.3696 188.197H46.4643C45.9562 188.197 45.5751 187.816 45.5751 187.308V185.403C45.5751 184.895 45.9562 184.387 46.4643 184.387H48.3696C48.8777 184.387 49.3858 184.895 49.3858 185.403V187.308H49.2588ZM49.2588 180.703C49.2588 181.212 48.8777 181.593 48.3696 181.593H46.4643C45.9562 181.593 45.5751 181.212 45.5751 180.703V178.798C45.5751 178.29 45.9562 177.909 46.4643 177.909H48.3696C48.8777 177.909 49.3858 178.29 49.3858 178.798V180.703H49.2588Z" fill="#C23934"/>
</g>
<text id="Gender" fill="#3E3E3C" xml:space="preserve" style="white-space: pre" font-family="Salesforce Sans" font-size="14" letter-spacing="0px"><tspan x="116" y="13.888">Highest</tspan></text>
<text id="Gender_2" fill="#080707" xml:space="preserve" style="white-space: pre" font-family="Salesforce Sans" font-size="32" letter-spacing="0px"><tspan x="115" y="47.744">32%</tspan></text>
<g id="new_custom99">
<path id="Shape_2" fill-rule="evenodd" clip-rule="evenodd" d="M57.0116 48.8966H48.638C48.3679 48.2213 47.9627 47.8161 47.5575 47.411L50.6639 43.3592C51.2041 42.6839 51.069 41.7385 50.3938 41.3333C49.8535 40.7931 48.7731 40.9282 48.2328 41.6035L44.8564 45.9253H43.2357L39.7242 41.6035C39.1839 40.9282 38.2385 40.7931 37.5632 41.3333C36.888 41.8736 36.888 42.6839 37.4282 43.3592L40.5345 47.411C40.1293 47.8161 39.7242 48.2213 39.4541 48.8966H32.9713C31.3506 48.8966 30 50.1121 30 51.7328V65.5087C30 67.1294 31.3506 68.48 32.9713 68.48H57.0116C58.6323 68.48 59.9829 67.1294 59.9829 65.5087V51.7328C59.9829 50.1121 58.6323 48.8966 57.0116 48.8966ZM52.9597 64.4289C52.9597 65.1042 52.5545 65.5094 52.0143 65.5094H34.0516C33.5113 65.5094 32.9711 65.1042 32.9711 64.4289V52.8139C32.9711 52.2737 33.5113 51.7334 34.0516 51.7334H52.0143C52.5545 51.7334 52.9597 52.2737 52.9597 52.8139V64.4289ZM56.4714 59.5668C55.526 59.5668 54.9858 59.0266 54.9858 58.0812C54.9858 57.1358 55.526 56.5956 56.4714 56.5956C57.4168 56.5956 57.9571 57.2709 57.9571 58.0812C57.9571 58.8915 57.2818 59.5668 56.4714 59.5668ZM56.4714 54.7047C55.526 54.7047 54.9858 54.0294 54.9858 53.2191C54.9858 52.4087 55.526 51.7334 56.4714 51.7334C57.4168 51.7334 57.9571 52.4087 57.9571 53.2191C57.9571 54.0294 57.2818 54.7047 56.4714 54.7047Z" fill="#4BCA81"/>
</g>
<g id="Goal Tracker Copy">
<g id="Polar Gauge">
<path id="Oval 3" fill-rule="evenodd" clip-rule="evenodd" d="M44.5002 95.0019C66.3156 95.0019 84.0005 77.3171 84.0005 55.5017C84.0005 33.6863 66.3156 16.0015 44.5002 16.0015C22.6849 16.0015 5 33.6863 5 55.5017C5 77.3171 22.6849 95.0019 44.5002 95.0019Z" stroke="#E6ECF2" stroke-width="10"/>
<path id="Oval 3_2" class="grow-circle" d="M44.5002 16.0001C66.3156 16.0001 84.0005 33.6849 84.0005 55.5003C84.0005 65.7583 80.0903 75.103 73.6791 82.1252" stroke="#4BCA81" stroke-width="10" stroke-linecap="round"/>
</g>
</g>
<g id="Gender_3">
<text fill="#6F6E6B" xml:space="preserve" style="white-space: pre" font-family="Salesforce Sans" font-size="14" letter-spacing="0px"><tspan x="222.119" y="73.888">Lottie</tspan></text>
<text fill="#6F6E6B" xml:space="preserve" style="white-space: pre" font-family="Salesforce Sans" font-size="14" font-weight="bold" letter-spacing="0px"><tspan x="262.684" y="73.888">most engaged</tspan><tspan x="146.678" y="93.888">Over-the-top device </tspan></text>
<text fill="#6F6E6B" xml:space="preserve" style="white-space: pre" font-family="Salesforce Sans" font-size="14" letter-spacing="0px"><tspan x="115" y="73.888">In the past year, </tspan><tspan x="259.074" y="73.888"> </tspan><tspan x="358.674" y="73.888"> </tspan><tspan x="115" y="93.888">with </tspan><tspan x="283.342" y="93.888">targeted </tspan><tspan x="115" y="113.888">messages.</tspan></text>
</g>
<text id="Gender_4" fill="#3E3E3C" xml:space="preserve" style="white-space: pre" font-family="Salesforce Sans" font-size="14" letter-spacing="0px"><tspan x="116" y="142.888">Lowest</tspan></text>
<text id="Gender_5" fill="#080707" xml:space="preserve" style="white-space: pre" font-family="Salesforce Sans" font-size="32" letter-spacing="0px"><tspan x="117" y="176.744">7.8%</tspan></text>
<g id="Goal Tracker Copy_2">
<g id="Polar Gauge_2">
<path id="Oval 3_3" fill-rule="evenodd" clip-rule="evenodd" d="M44.5002 222.002C66.3156 222.002 84.0005 204.317 84.0005 182.502C84.0005 160.686 66.3156 143.001 44.5002 143.001C22.6849 143.001 5 160.686 5 182.502C5 204.317 22.6849 222.002 44.5002 222.002Z" stroke="#E6ECF2" stroke-width="10"/>
<path id="Oval 3_4" class="grow-circle" d="M44.5002 143C54.9418 143 64.4372 147.052 71.5 153.668" stroke="#C23934" stroke-width="10" stroke-linecap="round"/>
</g>
</g>
<g id="Gender_6">
<text fill="#6F6E6B" xml:space="preserve" style="white-space: pre" font-family="Salesforce Sans" font-size="14" letter-spacing="0px"><tspan x="224.119" y="202.888">Lottie</tspan></text>
<text fill="#6F6E6B" xml:space="preserve" style="white-space: pre" font-family="Salesforce Sans" font-size="14" font-weight="bold" letter-spacing="0px"><tspan x="264.684" y="202.888">least </tspan><tspan x="117" y="222.888">engaged </tspan><tspan x="210.488" y="222.888">In-Store</tspan></text>
<text fill="#6F6E6B" xml:space="preserve" style="white-space: pre" font-family="Salesforce Sans" font-size="14" letter-spacing="0px"><tspan x="117" y="202.888">In the past year, </tspan><tspan x="261.074" y="202.888"> </tspan><tspan x="178.811" y="222.888">with </tspan><tspan x="264.287" y="222.888"> targeted </tspan><tspan x="117" y="242.888">messages.</tspan></text>
</g>
</g>
</svg>
