<svg width="339" height="164" viewBox="0 0 339 164" fill="none" xmlns="http://www.w3.org/2000/svg">
<g id="contact-details">
<g id="Group 75">
<g id="Group">
<g id="Group 2">
<g id="Phone (3) (917) 223-4463">
<text fill="#3E3E3C" xml:space="preserve" style="white-space: pre" font-family="Salesforce Sans" font-size="12" letter-spacing="0em"><tspan x="235" y="11.904">Phone (3)&#10;</tspan></text>
<text fill="#3F70CE" xml:space="preserve" style="white-space: pre" font-family="Salesforce Sans" font-size="14" letter-spacing="0em"><tspan x="235" y="34.272">(917) 223-4463</tspan></text>
</g>
<path id="dropdown 2.2" fill-rule="evenodd" clip-rule="evenodd" d="M303.955 6.33565L299.163 12.169C299.117 12.223 299.063 12.25 299.001 12.25C298.924 12.25 298.87 12.223 298.839 12.169L294.047 6.33565C293.993 6.27392 293.986 6.20062 294.024 6.11574C294.063 6.03858 294.124 6 294.209 6H303.793C303.878 6 303.939 6.03858 303.978 6.11574C304.016 6.20062 304.009 6.27392 303.955 6.33565Z" fill="#706E6B"/>
</g>
<g id="Group_2">
<g id="Active Email (2) lottie.garner@gmail.com">
<text fill="#3E3E3C" xml:space="preserve" style="white-space: pre" font-family="Salesforce Sans" font-size="12" letter-spacing="0em"><tspan x="2" y="66.904">Active Email (2)&#10;</tspan></text>
<text fill="#3F70CE" xml:space="preserve" style="white-space: pre" font-family="Salesforce Sans" font-size="14" letter-spacing="0em"><tspan x="2" y="89.272">lottie.garner@gmail.com</tspan></text>
</g>
<path id="dropdown 2.2_2" fill-rule="evenodd" clip-rule="evenodd" d="M102.955 61.3356L98.163 67.169C98.1167 67.223 98.0627 67.25 98.001 67.25C97.9238 67.25 97.8698 67.223 97.8389 67.169L93.0473 61.3356C92.9932 61.2739 92.9855 61.2006 93.0241 61.1157C93.0627 61.0386 93.1244 61 93.2093 61H102.793C102.878 61 102.939 61.0386 102.978 61.1157C103.016 61.2006 103.009 61.2739 102.955 61.3356Z" fill="#706E6B"/>
</g>
<g id="Group_3">
<g id="Address 37487 W Street, San Francisco, CA 94105">
<text fill="#3E3E3C" xml:space="preserve" style="white-space: pre" font-family="Salesforce Sans" font-size="12" letter-spacing="0em"><tspan x="2" y="136.904">Address&#10;</tspan></text>
<text fill="#3F70CE" xml:space="preserve" style="white-space: pre" font-family="Salesforce Sans" font-size="14" letter-spacing="0em"><tspan x="2" y="159.272">37487  W Street, San Francisco, CA 94105</tspan></text>
</g>
</g>
</g>
<g id="Badge Copy 4">
<rect id="bkgd [4 8]" x="53" y="120" width="91" height="21" rx="10.5" fill="#C23934"/>
<text id="Poor" fill="white" xml:space="preserve" style="white-space: pre" font-family="Salesforce Sans" font-size="10" font-weight="bold" letter-spacing="0px"><tspan x="63" y="132.92">Do not market</tspan></text>
</g>
</g>
<g id="Group 2.1">
<g id="Customer 360 ID 0001Av4kd9503kd058f5rd">
<text fill="#3E3E3C" xml:space="preserve" style="white-space: pre" font-family="Salesforce Sans" font-size="12" letter-spacing="0em"><tspan x="0" y="11.904">Customer 360 ID&#10;</tspan></text>
<text fill="#3F70CE" xml:space="preserve" style="white-space: pre" font-family="Salesforce Sans" font-size="14" letter-spacing="0em"><tspan x="0" y="34.272">0001Av4kd9503kd058f5rd</tspan></text>
</g>
<path id="dropdown 2.2_3" fill-rule="evenodd" clip-rule="evenodd" d="M108.955 6.33565L104.163 12.169C104.117 12.223 104.063 12.25 104.001 12.25C103.924 12.25 103.87 12.223 103.839 12.169L99.0473 6.33565C98.9932 6.27392 98.9855 6.20062 99.0241 6.11574C99.0627 6.03858 99.1244 6 99.2093 6H108.793C108.878 6 108.939 6.03858 108.978 6.11574C109.016 6.20062 109.009 6.27392 108.955 6.33565Z" fill="#706E6B"/>
</g>
</g>
</svg>
