<svg width="1260" height="125" viewBox="0 0 1260 125" fill="none" xmlns="http://www.w3.org/2000/svg">
<g id="page-header-info">
<g id="Card" filter="url(#filter0_d)">
<rect x="2" width="1256" height="121" rx="4" fill="white"/>
</g>
<g id="Group 30">
<text id="CONVERSION RATE Copy" fill="#706E6A" xml:space="preserve" style="white-space: pre" font-family="Salesforce Sans" font-size="12" font-weight="bold" letter-spacing="0px"><tspan x="60.3535" y="41.712">Avg. Order Value</tspan></text>
<text id="78.5% copy" fill="#080707" xml:space="preserve" style="white-space: pre" font-family="Salesforce Sans" font-size="35" font-weight="300" letter-spacing="0px"><tspan x="62.4346" y="81.785">$ 117</tspan></text>
</g>
<g id="Group 31">
<text id="AVG. ORDER VALUE" fill="#706E6A" xml:space="preserve" style="white-space: pre" font-family="Salesforce Sans" font-size="12" font-weight="bold" letter-spacing="0px"><tspan x="223.598" y="41.712">Forecast Avg. Lifetime Value</tspan></text>
<g id="indicator - icon">
<g id="icon">
<g id="einstein">
<path id="Path" fill-rule="evenodd" clip-rule="evenodd" d="M408.641 37.653C408.314 36.8693 407.955 36.2816 407.563 35.8244C407.204 35.4 406.159 34.7795 405.571 34.551C405.735 34.3224 406.061 34.1591 406.551 34.0612C406.518 33.7347 406.192 33.3755 405.571 32.9836C404.951 32.5918 404.102 32.4938 403.025 32.7224C403.025 32.3306 402.763 31.6449 402.208 30.6326C401.425 29.0979 398.192 28.6081 398.225 29.3265C398.518 30.2081 398.649 31.351 398.682 32.6898C398.29 32.2326 397.865 31.9387 397.408 31.8081C397.049 31.7102 396.723 31.6775 396.396 31.7428C396.363 31.7428 396.331 31.7755 396.298 31.7755C396.2 31.8408 396.2 32.004 396.265 32.102C396.461 32.3632 396.559 32.5591 396.625 32.6898C396.69 32.8857 396.82 33.1469 396.984 33.5387C396.494 33.4734 395.874 33.6367 395.025 34.0285C394.241 34.4204 393.588 35.302 393.033 36.7061V36.7714C393.033 36.902 393.098 37 393.196 37.0326C393.947 37.1632 394.469 37.2938 394.763 37.4571C395.09 37.6204 395.449 37.9795 395.874 38.4693C395.71 38.4367 395.449 38.6 395.057 38.9591C394.698 39.253 394.437 39.7102 394.274 40.3632V40.4285C394.274 40.5591 394.339 40.6571 394.469 40.6571C395.025 40.6898 395.58 40.7877 396.102 40.951C396.69 41.1469 397.147 41.3428 397.474 41.5714V39.6775C397.474 39.2204 397.441 38.8612 397.898 38.3061C398.355 37.751 398.812 37.6204 399.89 38.0449C400.967 38.4693 402.176 37.5877 403.123 37.8163C404.102 38.0449 404.592 39.0244 404.69 39.7102C404.788 40.3959 404.69 40.7551 404.69 41.604V41.7346H404.723C405.212 41.4408 405.474 41.2775 405.865 41.1142C406.127 40.9836 406.551 40.853 407.106 40.6571C407.074 40.3306 406.812 40.0367 406.29 39.7102C406.453 39.6449 407.204 39.1551 407.629 38.8285C407.89 38.6326 408.216 38.3387 408.641 37.9142C408.674 37.8816 408.706 37.751 408.641 37.653Z" fill="#006DCC"/>
<path id="Oval" fill-rule="evenodd" clip-rule="evenodd" d="M401.914 41.604C402.185 41.604 402.404 41.2823 402.404 40.8856C402.404 40.4889 402.185 40.1672 401.914 40.1672C401.644 40.1672 401.425 40.4889 401.425 40.8856C401.425 41.2823 401.644 41.604 401.914 41.604Z" fill="#006DCC"/>
<path id="Oval_2" fill-rule="evenodd" clip-rule="evenodd" d="M399.106 41.604C399.377 41.604 399.596 41.2823 399.596 40.8856C399.596 40.4889 399.377 40.1672 399.106 40.1672C398.836 40.1672 398.616 40.4889 398.616 40.8856C398.616 41.2823 398.836 41.604 399.106 41.604Z" fill="#006DCC"/>
<path id="Path_2" fill-rule="evenodd" clip-rule="evenodd" d="M399.825 42.2244C399.531 42.0611 399.074 42.1264 398.812 42.257C398.551 42.3876 398.225 42.7795 398.225 43.1386C398.225 43.4978 398.323 43.7264 398.388 43.857C398.421 43.955 398.518 44.0529 398.649 44.2162C398.682 44.2815 398.747 44.2815 398.812 44.2815L399.27 44.1835L400.249 44.6407C400.282 44.6733 400.347 44.6733 400.38 44.6407L401.457 44.1835L402.012 44.2815C402.045 44.2815 402.11 44.2815 402.143 44.2489C402.404 44.0856 402.567 43.857 402.665 43.6284C402.796 43.2366 402.665 42.6162 402.339 42.355C402.045 42.0611 401.588 41.9631 401.131 42.1591C400.772 42.2897 400.51 42.355 400.314 42.355C400.184 42.355 400.053 42.2897 399.825 42.2244Z" fill="#006DCC"/>
</g>
</g>
</g>
<text id="39" fill="#080707" xml:space="preserve" style="white-space: pre" font-family="Salesforce Sans" font-size="35" font-weight="300" letter-spacing="0px"><tspan x="282.34" y="81.785">$ 15.2K</tspan></text>
</g>
<g id="Group 31.2">
<text id="AVG. ORDER VALUE_2" fill="#706E6A" xml:space="preserve" style="white-space: pre" font-family="Salesforce Sans" font-size="12" font-weight="bold" letter-spacing="0px"><tspan x="524.445" y="41.712">Open Cases</tspan></text>
<text id="39_2" fill="#080707" xml:space="preserve" style="white-space: pre" font-family="Salesforce Sans" font-size="35" font-weight="300" letter-spacing="0px"><tspan x="571.319" y="81.785">0</tspan></text>
</g>
<g id="Group 32">
<text id="AVG. ORDER VALUE_3" fill="#706E6A" xml:space="preserve" style="white-space: pre" font-family="Salesforce Sans" font-size="12" font-weight="bold" letter-spacing="0px"><tspan x="1055.15" y="41.712">Engagement</tspan></text>
<text id="39_3" fill="#080707" xml:space="preserve" style="white-space: pre" font-family="Salesforce Sans" font-size="28" font-weight="300" letter-spacing="0px"><tspan x="1071.19" y="82.828">High</tspan></text>
<g id="Charts / Metric / Gauge">
<g id="Metric / Gauge">
<g id="Gauge">
<path id="Oval 84 Copy 3" d="M1022.52 60.6735C1021.09 61.5691 1019.77 62.6088 1018.59 63.7708C1014.51 67.7667 1012 73.2084 1012 79.2053" stroke="#C23934" stroke-width="7" stroke-linecap="round"/>
<path id="Oval 84 Copy 3_2" d="M1055.88 79.6204C1055.88 78.7215 1055.82 77.835 1055.72 76.9641C1055.14 72.4229 1053.13 68.3024 1050.11 65.0278C1048.24 62.9938 1045.98 61.2862 1043.45 60.0067" stroke="#04844B" stroke-width="7" stroke-linecap="round"/>
<path id="Oval 84 Copy 3_3" d="M1022.64 60.595C1025.93 58.9387 1029.67 58.0001 1033.65 58.0001C1036.67 58.0001 1039.55 58.5398 1042.2 59.5228C1043.74 60.0963 1044.22 60.4048 1045.58 61.261" stroke="#FFB75D" stroke-width="7"/>
</g>
<g id="Needle">
<path id="Rectangle192" fill-rule="evenodd" clip-rule="evenodd" d="M1033.94 81.3009C1033.04 81.9784 1031.76 81.7265 1031.18 80.7609C1030.61 79.7953 1031 78.5446 1032.02 78.0799L1047.51 71.0449L1033.94 81.3009Z" fill="#3E3E3C"/>
</g>
</g>
</g>
</g>
<g id="Group 39">
<g id="Group 31.1">
<text id="AVG. ORDER VALUE_4" fill="#706E6A" xml:space="preserve" style="white-space: pre" font-family="Salesforce Sans" font-size="12" font-weight="bold" letter-spacing="0px"><tspan x="754.496" y="41.712">Satisfaction Score</tspan></text>
</g>
<text id="satisfactionScore" fill="#080707" xml:space="preserve" style="white-space: pre" font-family="Salesforce Sans" font-size="35" font-weight="300" letter-spacing="0px"><tspan x="778.292" y="85.785">98%</tspan></text>
<g id="badge">
<rect id="FairBckgd" x="720" y="63" width="47" height="21" rx="10.5" fill="#C23934"/>
<text id="Fair" fill="white" xml:space="preserve" style="white-space: pre" font-family="Salesforce Sans" font-size="10" font-weight="bold" letter-spacing="0px"><tspan x="732" y="75.92">Poor</tspan></text>
</g>
</g>
</g>
<defs>
<filter id="filter0_d" x="0" y="0" width="1260" height="125" filterUnits="userSpaceOnUse" color-interpolation-filters="sRGB">
<feFlood flood-opacity="0" result="BackgroundImageFix"/>
<feColorMatrix in="SourceAlpha" type="matrix" values="0 0 0 0 0 0 0 0 0 0 0 0 0 0 0 0 0 0 127 0"/>
<feOffset dy="2"/>
<feGaussianBlur stdDeviation="1"/>
<feColorMatrix type="matrix" values="0 0 0 0 0 0 0 0 0 0 0 0 0 0 0 0 0 0 0.1 0"/>
<feBlend mode="normal" in2="BackgroundImageFix" result="effect1_dropShadow"/>
<feBlend mode="normal" in="SourceGraphic" in2="effect1_dropShadow" result="shape"/>
</filter>
</defs>
</svg>
