<svg width="345" height="249" viewBox="0 0 345 249" fill="none" xmlns="http://www.w3.org/2000/svg">
<g id="preferred-conversion-path">
<g id="Group 72">
<g id="Group 35">
<g id="Group 34">
<g id="Mobile App event on">
<text fill="#706E6B" xml:space="preserve" style="white-space: pre" font-family="Salesforce Sans" font-size="14" letter-spacing="0px"><tspan x="45" y="99.888">Opened </tspan></text>
<text fill="#2B2826" xml:space="preserve" style="white-space: pre" font-family="Salesforce Sans" font-size="14" font-weight="bold" letter-spacing="0px"><tspan x="101.766" y="99.888">Email</tspan></text>
</g>
<rect id="Rectangle 1593" x="17.9268" y="112.857" width="2.15444" height="23.6988" fill="#979797"/>
<g id="Mobile App event on_2">
<text fill="#706E6B" xml:space="preserve" style="white-space: pre" font-family="Salesforce Sans" font-size="14" letter-spacing="0px"><tspan x="45" y="158.888">Called </tspan></text>
<text fill="#2B2826" xml:space="preserve" style="white-space: pre" font-family="Salesforce Sans" font-size="14" font-weight="bold" letter-spacing="0px"><tspan x="89.5156" y="158.888">Customer Support</tspan></text>
</g>
<text id="Mobile App event on_3" fill="#706E6B" xml:space="preserve" style="white-space: pre" font-family="Salesforce Sans" font-size="12" letter-spacing="0px"><tspan x="46" y="121.904">Fever Fan Event 10% OFF </tspan></text>
<g id="Mobile App event on_4">
<text fill="#706E6B" xml:space="preserve" style="white-space: pre" font-family="Salesforce Sans" font-size="12" letter-spacing="0px"><tspan x="98.165" y="179.24">Youth 4-7 Fever Nike Replica Shorts</tspan></text>
<text fill="#706E6B" xml:space="preserve" style="white-space: pre" font-family="Salesforce Sans" font-size="12" font-weight="bold" letter-spacing="0px"><tspan x="45.9346" y="179.24">Product: </tspan></text>
</g>
<text id="Mobile App event on_5" fill="#706E6B" xml:space="preserve" style="white-space: pre" font-family="Salesforce Sans" font-size="12" letter-spacing="0px"><tspan x="45.9346" y="239.259">Fever Summer Camp + Youth Jersey Promotion&#10;</tspan></text>
<rect id="Rectangle 1593_2" x="17.9268" y="172.031" width="2.15444" height="23.6988" fill="#979797"/>
<g id="Mobile App event on_6">
<text fill="#706E6B" xml:space="preserve" style="white-space: pre" font-family="Salesforce Sans" font-size="14" letter-spacing="0px"><tspan x="45" y="218.888">Purchased on </tspan></text>
<text fill="#2B2826" xml:space="preserve" style="white-space: pre" font-family="Salesforce Sans" font-size="14" font-weight="bold" letter-spacing="0px"><tspan x="136.93" y="218.888">Retail Website</tspan></text>
</g>
</g>
</g>
<g id="call">
<path id="Shape" fill-rule="evenodd" clip-rule="evenodd" d="M24.7023 165.5L22.9261 164.041C22.4821 163.724 21.9111 163.724 21.5305 164.041L20.008 165.12C19.8177 165.31 19.564 165.247 19.3737 165.056L17.0899 163.026L15.06 160.743C14.8696 160.552 14.8696 160.362 14.9965 160.108L16.0749 158.586C16.3921 158.205 16.3921 157.634 16.0749 157.19L14.6159 155.414C14.1718 154.906 13.4106 154.843 12.9031 155.35L11.3806 156.873C11.1269 157.063 11 157.444 11 157.761C11.1903 160.743 12.5225 163.534 14.489 165.564C16.4556 167.594 19.3102 168.862 22.2917 169.053C22.6724 169.053 22.9896 168.926 23.1799 168.672L24.7023 167.15C25.2733 166.706 25.2733 165.881 24.7023 165.5Z" fill="white"/>
</g>
</g>
<g id="Group 33.1">
<text id="TOTAL PEOPLE" fill="#706E6A" xml:space="preserve" style="white-space: pre" font-family="Salesforce Sans" font-size="12" letter-spacing="0px"><tspan x="5" y="11.712">Path Conversion Rate</tspan></text>
<text id="82K" fill="#080707" xml:space="preserve" style="white-space: pre" font-family="Salesforce Sans" font-size="35" font-weight="300" letter-spacing="0px"><tspan x="4.68091" y="50.8661">17.5%</tspan></text>
</g>
<path id="Rectangle 48" fill-rule="evenodd" clip-rule="evenodd" d="M10 142C7.79086 142 6 143.791 6 146V162.687C6 164.896 7.79086 166.687 10 166.687H26.6865C28.8957 166.687 30.6865 164.896 30.6865 162.687V146C30.6865 143.791 28.8957 142 26.6865 142H10Z" fill="#48C3CC"/>
<path id="Shape_2" fill-rule="evenodd" clip-rule="evenodd" d="M26.4087 154.87C26.4087 153.539 25.5217 152.43 24.3391 151.987C24.2652 148.661 21.5304 146 18.2043 146C14.8783 146 12.1435 148.661 12.0696 151.987C10.887 152.43 10 153.539 10 154.87C10 156.348 11.0348 157.53 12.2913 157.826C13.0304 160.487 15.3957 162.409 18.2043 162.409C21.013 162.409 23.3783 160.487 24.1174 157.826C25.3739 157.53 26.4087 156.348 26.4087 154.87ZM23.0087 151.839L22.9348 151.765L23.0826 151.839H23.0087ZM13.4 156.126C13.4 158.787 15.5435 161.004 18.2043 161.004C20.2739 161.004 22.0478 159.674 22.6391 157.752C21.8261 158.27 20.7174 158.639 19.5348 158.639C19.4609 158.861 19.2391 159.009 19.0174 159.009H17.3174C17.0217 159.009 16.8739 158.787 16.8739 158.491V157.457C16.8739 157.235 17.0217 156.939 17.3174 156.939H19.0174C19.2391 156.939 19.4609 157.087 19.5348 157.309C21.3826 157.161 22.713 156.348 22.9348 155.535C22.8898 155.175 22.8174 154.842 22.7509 154.537C22.7083 154.341 22.668 154.156 22.6391 153.983H21.6043C19.5348 153.983 17.687 152.948 16.4304 151.47C15.913 152.357 15.0261 153.096 13.9913 153.465C13.9631 153.522 13.9348 153.567 13.9107 153.606C13.8717 153.67 13.8435 153.715 13.8435 153.761C13.5478 154.426 13.4 155.461 13.4 156.126Z" fill="white"/>
<path id="Rectangle 48 Copy 3" fill-rule="evenodd" clip-rule="evenodd" d="M10 83C7.79086 83 6 84.7909 6 87V103.687C6 105.896 7.79086 107.687 10 107.687H26.6865C28.8957 107.687 30.6865 105.896 30.6865 103.687V87C30.6865 84.7909 28.8957 83 26.6865 83H10Z" fill="#6275A1"/>
<g id="icons/utility/email">
<path id="Shape_3" fill-rule="evenodd" clip-rule="evenodd" d="M18.8125 96.8125C18.625 97 18.375 97 18.1875 96.8125L11.6875 90.75C11.375 90.5 11.6875 90.1875 12.0625 90.1875L24.9375 90.125C25.375 90.125 25.4375 90.5 25.3125 90.75L18.8125 96.8125ZM24.875 92.875C25.0625 92.625 25.4375 92.8125 25.4375 93.125V99.6875C25.4375 100.312 24.875 100.812 24.25 100.812H12.75C12.125 100.812 11.5625 100.312 11.5625 99.6875C11.5625 99.6875 11.5625 93 11.625 93.125C11.625 92.8125 11.9375 92.625 12.1875 92.875L17.25 97.5625C17.625 97.875 18.0625 98.0625 18.5 98.0625C18.9375 98.0625 19.375 97.875 19.75 97.5625L24.875 92.875Z" fill="white"/>
</g>
<path id="Rectangle 48.1" fill-rule="evenodd" clip-rule="evenodd" d="M12 201C9.79086 201 8 202.791 8 205V221.687C8 223.896 9.79086 225.687 12 225.687H28.6865C30.8957 225.687 32.6865 223.896 32.6865 221.687V205C32.6865 202.791 30.8957 201 28.6865 201H12Z" fill="#4BC076"/>
<path id="Shape_4" fill-rule="evenodd" clip-rule="evenodd" d="M27.8 208.267C27.8 207.6 27.2 207 26.5333 207H14.2667C13.6 207 13 207.6 13 208.267V216.267C13 216.933 13.6 217.467 14.2667 217.467H26.5333C27.2 217.467 27.8 216.933 27.8 216.267V208.267ZM25.9333 215.2C25.9333 215.4 25.7333 215.6 25.4667 215.6H15.3333C15.0667 215.6 14.8667 215.4 14.8667 215.2V209.333C14.8667 209.067 15.0667 208.867 15.3333 208.867H25.4667C25.7333 208.867 25.9333 209.067 25.9333 209.333V215.2ZM21.6 219.933H22.5333C23.2 219.933 23.8 220.467 23.8 221.2V221.333C23.8 221.6 23.6 221.8 23.3333 221.8H17.4667C17.2 221.8 17 221.6 17 221.333V221.2C17 220.467 17.6 219.933 18.2667 219.933H19.2C19.3333 219.933 19.4667 219.8 19.4667 219.6V219C19.4667 218.8 19.6 218.733 19.8 218.733H21C21.2 218.733 21.3333 218.8 21.3333 219V219.6C21.3333 219.8 21.4667 219.933 21.6 219.933Z" fill="white"/>
</g>
</svg>
