<svg width="349" height="532" viewBox="0 0 349 532" fill="none" xmlns="http://www.w3.org/2000/svg">
<g id="transaction-overview">
<g id="Group 73">
<text id="Email" fill="#3E3E3C" xml:space="preserve" style="white-space: pre" font-family="Salesforce Sans" font-size="12" letter-spacing="0px"><tspan x="255.075" y="152.212">Tickets</tspan></text>
<text id="Call" fill="#3E3E3C" xml:space="preserve" style="white-space: pre" font-family="Salesforce Sans" font-size="12" letter-spacing="0px"><tspan x="254.325" y="181.212">Merchandise</tspan></text>
<rect id="Rectangle 522" x="238" y="143.27" width="10.5705" height="10.5705" rx="5.28525" fill="#8073F7"/>
<rect id="Rectangle 522 Copy" x="238" y="171.858" width="10.5705" height="10.5705" rx="5.28525" fill="#0855C9"/>
<text id="Text" fill="#3E3E3C" xml:space="preserve" style="white-space: pre" font-family="Salesforce Sans" font-size="12" letter-spacing="0px"><tspan x="253.816" y="211.212">Training Camps</tspan></text>
<rect id="Rectangle 522 Copy 2" x="238" y="200.971" width="10.5705" height="10.5705" rx="5.28525" fill="#2E9BED"/>
<g id="Group">
<text id="$72m" fill="#080707" xml:space="preserve" style="white-space: pre" font-family="Salesforce Sans" font-size="28" font-weight="bold" letter-spacing="0px"><tspan x="76.4985" y="180.776">$3.8K</tspan></text>
<text id="Lifetime Spend" fill="black" xml:space="preserve" style="white-space: pre" font-family="Salesforce Sans" font-size="12" letter-spacing="0px"><tspan x="72.5871" y="200.609">Lifetime Spend</tspan></text>
<g id="Ellipse">
<mask id="path-9-outside-1" maskUnits="userSpaceOnUse" x="14" y="148" width="96" height="127" fill="black">
<rect fill="white" x="14" y="148" width="96" height="127"/>
<path d="M20.2832 151.416C16.6096 165.126 16.0103 179.478 18.5281 193.446C21.046 207.415 26.6187 220.655 34.848 232.219C43.0773 243.784 53.7598 253.387 66.132 260.343C78.5042 267.299 92.2603 271.436 106.417 272.458L107.804 253.237C96.4791 252.42 85.4741 249.11 75.5764 243.545C65.6787 237.981 57.1326 230.298 50.5492 221.046C43.9658 211.795 39.5076 201.203 37.4933 190.028C35.4791 178.853 35.9585 167.371 38.8974 156.403L20.2832 151.416Z"/>
</mask>
<path d="M20.2832 151.416C16.6096 165.126 16.0103 179.478 18.5281 193.446C21.046 207.415 26.6187 220.655 34.848 232.219C43.0773 243.784 53.7598 253.387 66.132 260.343C78.5042 267.299 92.2603 271.436 106.417 272.458L107.804 253.237C96.4791 252.42 85.4741 249.11 75.5764 243.545C65.6787 237.981 57.1326 230.298 50.5492 221.046C43.9658 211.795 39.5076 201.203 37.4933 190.028C35.4791 178.853 35.9585 167.371 38.8974 156.403L20.2832 151.416Z" fill="#0855C9"/>
<path d="M20.2832 151.416C16.6096 165.126 16.0103 179.478 18.5281 193.446C21.046 207.415 26.6187 220.655 34.848 232.219C43.0773 243.784 53.7598 253.387 66.132 260.343C78.5042 267.299 92.2603 271.436 106.417 272.458L107.804 253.237C96.4791 252.42 85.4741 249.11 75.5764 243.545C65.6787 237.981 57.1326 230.298 50.5492 221.046C43.9658 211.795 39.5076 201.203 37.4933 190.028C35.4791 178.853 35.9585 167.371 38.8974 156.403L20.2832 151.416Z" stroke="white" stroke-width="4" mask="url(#path-9-outside-1)"/>
</g>
<g id="Ellipse_2">
<mask id="path-10-outside-2" maskUnits="userSpaceOnUse" x="17" y="77" width="99" height="82" fill="black">
<rect fill="white" x="17" y="77" width="99" height="82"/>
<path d="M113.354 80C92.1321 80 71.5038 87.0062 54.6717 99.931C37.8395 112.856 25.7452 130.976 20.2664 151.479L38.8839 156.454C43.267 140.052 52.9424 125.555 66.4082 115.216C79.8739 104.876 96.3765 99.2708 113.354 99.2708V80Z"/>
</mask>
<path d="M113.354 80C92.1321 80 71.5038 87.0062 54.6717 99.931C37.8395 112.856 25.7452 130.976 20.2664 151.479L38.8839 156.454C43.267 140.052 52.9424 125.555 66.4082 115.216C79.8739 104.876 96.3765 99.2708 113.354 99.2708V80Z" fill="#2E9BED"/>
<path d="M113.354 80C92.1321 80 71.5038 87.0062 54.6717 99.931C37.8395 112.856 25.7452 130.976 20.2664 151.479L38.8839 156.454C43.267 140.052 52.9424 125.555 66.4082 115.216C79.8739 104.876 96.3765 99.2708 113.354 99.2708V80Z" stroke="white" stroke-width="4" mask="url(#path-10-outside-2)"/>
</g>
<g id="Ellipse_3">
<mask id="path-11-outside-3" maskUnits="userSpaceOnUse" x="98" y="77" width="114" height="198" fill="black">
<rect fill="white" x="98" y="77" width="114" height="198"/>
<path d="M100.875 271.897C114.102 273.624 127.544 272.587 140.35 268.849C153.155 265.112 165.045 258.756 175.267 250.185C185.488 241.613 193.818 231.013 199.73 219.054C205.642 207.096 209.006 194.04 209.609 180.714C210.213 167.388 208.043 154.082 203.237 141.638C198.431 129.194 191.093 117.884 181.688 108.424C172.284 98.9632 161.017 91.5585 148.602 86.6786C136.187 81.7987 122.894 79.5499 109.564 80.0746L110.322 99.3305C120.986 98.9107 131.62 100.71 141.552 104.614C151.485 108.518 160.498 114.441 168.021 122.01C175.545 129.578 181.415 138.626 185.26 148.581C189.105 158.536 190.841 169.181 190.358 179.842C189.875 190.503 187.184 200.948 182.455 210.514C177.726 220.081 171.061 228.561 162.884 235.418C154.707 242.276 145.195 247.36 134.951 250.35C124.706 253.34 113.953 254.17 103.371 252.788L100.875 271.897Z"/>
</mask>
<path d="M100.875 271.897C114.102 273.624 127.544 272.587 140.35 268.849C153.155 265.112 165.045 258.756 175.267 250.185C185.488 241.613 193.818 231.013 199.73 219.054C205.642 207.096 209.006 194.04 209.609 180.714C210.213 167.388 208.043 154.082 203.237 141.638C198.431 129.194 191.093 117.884 181.688 108.424C172.284 98.9632 161.017 91.5585 148.602 86.6786C136.187 81.7987 122.894 79.5499 109.564 80.0746L110.322 99.3305C120.986 98.9107 131.62 100.71 141.552 104.614C151.485 108.518 160.498 114.441 168.021 122.01C175.545 129.578 181.415 138.626 185.26 148.581C189.105 158.536 190.841 169.181 190.358 179.842C189.875 190.503 187.184 200.948 182.455 210.514C177.726 220.081 171.061 228.561 162.884 235.418C154.707 242.276 145.195 247.36 134.951 250.35C124.706 253.34 113.953 254.17 103.371 252.788L100.875 271.897Z" fill="#8073F7"/>
<path d="M100.875 271.897C114.102 273.624 127.544 272.587 140.35 268.849C153.155 265.112 165.045 258.756 175.267 250.185C185.488 241.613 193.818 231.013 199.73 219.054C205.642 207.096 209.006 194.04 209.609 180.714C210.213 167.388 208.043 154.082 203.237 141.638C198.431 129.194 191.093 117.884 181.688 108.424C172.284 98.9632 161.017 91.5585 148.602 86.6786C136.187 81.7987 122.894 79.5499 109.564 80.0746L110.322 99.3305C120.986 98.9107 131.62 100.71 141.552 104.614C151.485 108.518 160.498 114.441 168.021 122.01C175.545 129.578 181.415 138.626 185.26 148.581C189.105 158.536 190.841 169.181 190.358 179.842C189.875 190.503 187.184 200.948 182.455 210.514C177.726 220.081 171.061 228.561 162.884 235.418C154.707 242.276 145.195 247.36 134.951 250.35C124.706 253.34 113.953 254.17 103.371 252.788L100.875 271.897Z" stroke="white" stroke-width="4" mask="url(#path-11-outside-3)"/>
</g>
</g>
</g>
<g id="Group 33.2">
<text id="TOTAL PEOPLE" fill="#706E6A" xml:space="preserve" style="white-space: pre" font-family="Salesforce Sans" font-size="12" letter-spacing="0px"><tspan x="61.7773" y="11.712">Highest Spend</tspan></text>
<text id="82K" fill="#080707" xml:space="preserve" style="white-space: pre" font-family="Salesforce Sans" font-size="35" font-weight="300" letter-spacing="0px"><tspan x="49.6812" y="50.8661">$2.1K</tspan></text>
</g>
<g id="Group 33.3">
<text id="TOTAL PEOPLE_2" fill="#706E6A" xml:space="preserve" style="white-space: pre" font-family="Salesforce Sans" font-size="12" letter-spacing="0px"><tspan x="191.094" y="11.712">Recent Order Value</tspan></text>
<text id="82K_2" fill="#080707" xml:space="preserve" style="white-space: pre" font-family="Salesforce Sans" font-size="35" font-weight="300" letter-spacing="0px"><tspan x="234.871" y="50.8661">$75</tspan></text>
</g>
<path id="ygridlin6" d="M52.0547 348.002H347.2" stroke="#DDDBDA"/>
<text id="$50M" fill="#3E3E3C" xml:space="preserve" style="white-space: pre" font-family="Salesforce Sans" font-size="12" letter-spacing="0px"><tspan x="21.0224" y="352.212">100</tspan></text>
<path id="ygridlin5" d="M52.0547 381.192H348" stroke="#DDDBDA"/>
<text id="$40M" fill="#3E3E3C" xml:space="preserve" style="white-space: pre" font-family="Salesforce Sans" font-size="12" letter-spacing="0px"><tspan x="28.3466" y="385.399">80</tspan></text>
<path id="ygridlin4" d="M52.0547 414.385L348 413.058" stroke="#DDDBDA"/>
<text id="$30M" fill="#3E3E3C" xml:space="preserve" style="white-space: pre" font-family="Salesforce Sans" font-size="12" letter-spacing="0px"><tspan x="28.3466" y="417.435">60</tspan></text>
<path id="ygridlin3" d="M52.0547 446.253H347.2" stroke="#DDDBDA"/>
<text id="$20M" fill="#3E3E3C" xml:space="preserve" style="white-space: pre" font-family="Salesforce Sans" font-size="12" letter-spacing="0px"><tspan x="28.3466" y="449.826">40</tspan></text>
<path id="ygridlin2" d="M52.0547 478.781H347.2" stroke="#DDDBDA"/>
<text id="$10M" fill="#3E3E3C" xml:space="preserve" style="white-space: pre" font-family="Salesforce Sans" font-size="12" letter-spacing="0px"><tspan x="28.3466" y="482.698">20</tspan></text>
<text id="0" fill="#3E3E3C" xml:space="preserve" style="white-space: pre" font-family="Salesforce Sans" font-size="12" letter-spacing="0px"><tspan x="35.6708" y="514.378">0</tspan></text>
<path id="ygridlin1" d="M48.0945 511.31H346.402" stroke="#DDDBDA"/>
<text id="Sales" transform="rotate(-90)" fill="#3E3E3C" xml:space="preserve" style="white-space: pre" font-family="Salesforce Sans" font-size="12" letter-spacing="0px"><tspan x="38.627" y="524.212">Order Value ($) </tspan></text>
<text id="Jan" fill="#3E3E3C" xml:space="preserve" style="white-space: pre" font-family="Salesforce Sans" font-size="12" letter-spacing="0px"><tspan x="46.2578" y="529.117">Jan</tspan></text>
<text id="Feb" fill="#3E3E3C" xml:space="preserve" style="white-space: pre" font-family="Salesforce Sans" font-size="12" letter-spacing="0px"><tspan x="140" y="529.212">Feb</tspan></text>
<text id="Mar" fill="#3E3E3C" xml:space="preserve" style="white-space: pre" font-family="Salesforce Sans" font-size="12" letter-spacing="0px"><tspan x="235.697" y="529.117">Mar</tspan></text>
<text id="Apr" fill="#3E3E3C" xml:space="preserve" style="white-space: pre" font-family="Salesforce Sans" font-size="12" letter-spacing="0px"><tspan x="320" y="529.212">Apr</tspan></text>
<path id="series fill" d="M53 511L53 433.74L73.6085 426.235L92.4004 421.092L112.104 420.854L131.403 406.267L150.798 409.2L170.097 392.14L189.897 404.272L208.49 404.398L227.988 402.308L247.589 395.133L266.742 384.424L285.953 372L305.77 375.774L325.183 407.319L345 411.34L344.891 511H53Z" fill="#77B9F2" fill-opacity="0.3"/>
<path id="series" d="M53 435L73.6085 427.561L92.4004 422.464L112.104 422.229L131.403 407.771L150.798 410.677L170.097 393.768L189.897 405.986L208.49 406.111L227.988 404.04L247.589 396.929L266.742 386.314L285.953 374L305.77 377.741L325.183 409.264L345 413.508" stroke="#3296ED" stroke-width="3" stroke-linecap="round" stroke-linejoin="round"/>
<text id="Order Value($) over the last 4 months" fill="#080707" xml:space="preserve" style="white-space: pre" font-family="Salesforce Sans" font-size="12" letter-spacing="0em"><tspan x="2" y="317.904">Order Value($) over the last 4 months</tspan></text>
</g>
</svg>
