<?xml version="1.0" encoding="UTF-8"?>
<svg width="1280px" height="870px" viewBox="0 0 1280 870" version="1.1" xmlns="http://www.w3.org/2000/svg" xmlns:xlink="http://www.w3.org/1999/xlink">
    <!-- Generator: Sketch 50.2 (55047) - http://www.bohemiancoding.com/sketch -->
    <title>201.completed-journey</title>
    <desc>Created with Sketch.</desc>
    <defs>
        <rect id="path-1" x="0" y="0.558253398" width="1280" height="875.441747"></rect>
        <filter x="-1.0%" y="-1.4%" width="102.0%" height="102.7%" filterUnits="objectBoundingBox" id="filter-2">
            <feOffset dx="-1" dy="0" in="SourceAlpha" result="shadowOffsetOuter1"></feOffset>
            <feColorMatrix values="0 0 0 0 0.878431373   0 0 0 0 0.898039216   0 0 0 0 0.933333333  0 0 0 1 0" type="matrix" in="shadowOffsetOuter1" result="shadowMatrixOuter1"></feColorMatrix>
            <feOffset dx="0" dy="0" in="SourceAlpha" result="shadowOffsetOuter2"></feOffset>
            <feGaussianBlur stdDeviation="4" in="shadowOffsetOuter2" result="shadowBlurOuter2"></feGaussianBlur>
            <feColorMatrix values="0 0 0 0 0   0 0 0 0 0   0 0 0 0 0  0 0 0 0.16 0" type="matrix" in="shadowBlurOuter2" result="shadowMatrixOuter2"></feColorMatrix>
            <feMerge>
                <feMergeNode in="shadowMatrixOuter1"></feMergeNode>
                <feMergeNode in="shadowMatrixOuter2"></feMergeNode>
            </feMerge>
        </filter>
        <path d="M0.33866801,-4.4408921e-16 L9.55628337,-4.4408921e-16 C9.81666798,-4.4408921e-16 9.99893721,0.338499999 9.79062952,0.572846152 L5.28597569,6.09299998 C5.12974492,6.30130767 4.79124492,6.30130767 4.63501415,6.09299998 L0.078283395,0.572846152 C-0.103985835,0.338499999 0.0522449335,-4.4408921e-16 0.33866801,-4.4408921e-16 Z" id="path-3"></path>
        <path d="M0.307845027,-4.4408921e-16 L8.68654325,-4.4408921e-16 C8.92322964,-4.4408921e-16 9.08891012,0.307692308 8.899561,0.520710059 L4.80488645,5.53846154 C4.66287461,5.72781065 4.35518231,5.72781065 4.21317047,5.53846154 L0.0711586367,0.520710059 C-0.0945218367,0.307692308 0.0474899977,-4.4408921e-16 0.307845027,-4.4408921e-16 Z" id="path-5"></path>
        <path d="M7.01965137,5.33472803 C5.79426852,5.33472803 4.82024625,6.30753138 4.82024625,7.53138075 C4.82024625,8.75523013 5.79426852,9.72803347 7.01965137,9.72803347 C8.24503423,9.72803347 9.2190565,8.75523013 9.2190565,7.53138075 C9.2190565,6.30753138 8.24503423,5.33472803 7.01965137,5.33472803 Z M13.6178668,9.5083682 L12.4553241,8.53556485 C12.5181642,8.19037657 12.5495843,7.81380753 12.5495843,7.46861925 C12.5495843,7.12343096 12.5181642,6.74686192 12.4553241,6.40167364 L13.6178668,5.42887029 C13.9949076,5.11506276 14.1205879,4.55020921 13.8692273,4.11087866 L13.3665062,3.23221757 C13.1779857,2.91841004 12.8323649,2.73012552 12.4553241,2.73012552 C12.3296438,2.73012552 12.2039635,2.76150628 12.1097032,2.79288703 L10.6643799,3.32635983 C10.0988186,2.82426778 9.47041709,2.4790795 8.81059555,2.25941423 L8.55923497,0.784518828 C8.46497475,0.282426778 8.02509372,0 7.52237255,0 L6.5169302,0 C6.01420903,0 5.574328,0.282426778 5.48006778,0.784518828 L5.2287072,2.22803347 C4.53746559,2.44769874 3.90906412,2.82426778 3.3435028,3.29497908 L1.89817943,2.76150628 C1.77249914,2.73012552 1.67823892,2.69874477 1.55255863,2.69874477 C1.17551775,2.69874477 0.82989694,2.88702929 0.6413765,3.20083682 L0.138655328,4.07949791 C-0.112705258,4.51882845 -0.0184450385,5.08368201 0.390015914,5.39748954 L1.55255863,6.37029289 C1.48971848,6.71548117 1.45829841,7.09205021 1.45829841,7.43723849 C1.45829841,7.81380753 1.48971848,8.15899582 1.55255863,8.5041841 L0.390015914,9.47698745 C0.0129750348,9.79079498 -0.112705258,10.3556485 0.138655328,10.7949791 L0.6413765,11.6736402 C0.82989694,11.9874477 1.17551775,12.1757322 1.55255863,12.1757322 C1.67823892,12.1757322 1.80391921,12.1443515 1.89817943,12.1129707 L3.3435028,11.5794979 C3.90906412,12.08159 4.53746559,12.4267782 5.19728712,12.6464435 L5.44864771,14.1527197 C5.54290793,14.6548117 5.95136888,15 6.48551013,15 L7.49095247,15 C7.99367365,15 8.43355467,14.623431 8.52781489,14.1213389 L8.77917548,12.6150628 C9.50183716,12.3640167 10.1616587,11.9874477 10.72722,11.4539749 L12.0782832,11.9874477 C12.2039635,12.0188285 12.3296438,12.0502092 12.4553241,12.0502092 C12.8323649,12.0502092 13.1779857,11.8619247 13.3665062,11.5481172 L13.8378073,10.7322176 C14.1205879,10.3870293 13.9949076,9.82217573 13.6178668,9.5083682 L13.6178668,9.5083682 Z M7.01965137,10.9832636 C5.10302691,10.9832636 3.56344331,9.44560669 3.56344331,7.53138075 C3.56344331,5.61715481 5.10302691,4.07949791 7.01965137,4.07949791 C8.93627584,4.07949791 10.4758594,5.61715481 10.4758594,7.53138075 C10.4758594,9.44560669 8.93627584,10.9832636 7.01965137,10.9832636 Z" id="path-7"></path>
        <path d="M8.27132316,11.0817942 C7.54303056,9.97361478 7.17888425,8.70712401 7.17888425,7.2823219 C7.17888425,4.85488127 8.16728136,2.84960422 9.72790837,1.63588391 C9.20769937,0.686015831 8.16728136,0 6.81473795,0 C4.52581833,0 3.22529582,1.89973615 3.22529582,4.06332454 C3.22529582,5.22427441 3.58944213,6.22691293 4.36975563,6.91292876 C4.78592284,7.33509235 5.15006914,7.86279683 5.15006914,8.39050132 C5.15006914,8.9182058 4.94198554,9.44591029 3.64146303,10.0263852 C1.76871061,10.8707124 0.0520209004,12.0316623 -8.8817842e-16,13.7730871 C0.0520209004,14.9340369 0.780313506,15.8311346 1.87275241,15.8311346 L3.58944213,15.8311346 C3.84954663,15.8311346 4.10965113,15.6728232 4.26571383,15.408971 C5.09804824,13.878628 6.65867525,12.9287599 7.95919776,12.2427441 C8.42738586,12.0316623 8.53142766,11.4511873 8.27132316,11.0817942 L8.27132316,11.0817942 Z M23.4614261,10.0263852 C22.1609036,9.44591029 21.95282,8.97097625 21.95282,8.39050132 C21.95282,7.81002639 22.3169663,7.2823219 22.7331335,6.91292876 C23.513447,6.17414248 23.8775933,5.22427441 23.8775933,4.06332454 C23.8775933,1.89973615 22.6290917,0 20.2881511,0 C18.9356077,0 17.8951897,0.686015831 17.3229598,1.63588391 C18.8835868,2.84960422 19.8719839,4.85488127 19.8719839,7.2823219 C19.8719839,8.70712401 19.5078376,9.97361478 18.779545,11.0817942 C18.5194405,11.5039578 18.6755032,12.0316623 19.0916704,12.2427441 C20.392193,12.8759894 21.95282,13.878628 22.7851544,15.408971 C22.9412171,15.6728232 23.2013216,15.8311346 23.4614261,15.8311346 L25.1781158,15.8311346 C26.2705547,15.8311346 26.9988473,14.9340369 26.9988473,13.7730871 C27.0508682,12.0316623 25.3341785,10.8707124 23.4614261,10.0263852 L23.4614261,10.0263852 Z M17.0108344,13.878628 C15.6062701,13.2453826 15.3461656,12.6649077 15.3461656,12.0844327 C15.3461656,11.4511873 15.7623328,10.8707124 16.2305209,10.4485488 C17.0628553,9.65699208 17.5310434,8.54881266 17.5310434,7.2823219 C17.5310434,4.90765172 16.1264791,2.84960422 13.577455,2.84960422 C11.0284309,2.84960422 9.62386657,4.90765172 9.62386657,7.2823219 C9.62386657,8.54881266 10.0920547,9.65699208 10.9243891,10.4485488 C11.3925772,10.9234828 11.8087444,11.5039578 11.8087444,12.0844327 C11.8087444,12.7176781 11.6006608,13.2453826 10.1440756,13.878628 C8.06323956,14.7757256 6.08644534,15.7783641 6.03442444,17.6781003 C6.03442444,18.944591 6.97080065,20 8.16728136,20 L18.9876286,20 C20.1841093,20 21.1204856,18.944591 21.1204856,17.6781003 C21.0684647,15.8311346 19.0916704,14.828496 17.0108344,13.878628 Z" id="path-9"></path>
        <path d="M25.2485082,30.8942561 C24.5222245,29.8048305 24.1590826,28.5597727 24.1590826,27.1590826 C24.1590826,24.7727217 25.1447534,22.8013802 26.7010757,21.6081997 C26.1823016,20.6744063 25.1447534,20 23.7959407,20 C21.5133347,20 20.2163994,21.8675868 20.2163994,23.9945606 C20.2163994,25.1358636 20.5795413,26.1215344 21.3577025,26.7959407 C21.7727217,27.21096 22.1358636,27.7297341 22.1358636,28.2485082 C22.1358636,28.7672823 21.928354,29.2860564 20.6314187,29.8567079 C18.7638319,30.6867465 17.0518774,31.8280495 17,33.5400041 C17.0518774,34.6813071 17.7781612,35.5632231 18.8675868,35.5632231 L20.5795413,35.5632231 C20.8389284,35.5632231 21.0983154,35.4075908 21.2539476,35.1482038 C22.0839862,33.6437589 23.6403085,32.7099655 24.9372438,32.0355592 C25.4041405,31.8280495 25.5078953,31.257398 25.2485082,30.8942561 L25.2485082,30.8942561 Z M40.396712,29.8567079 C39.0997767,29.2860564 38.8922671,28.8191597 38.8922671,28.2485082 C38.8922671,27.6778567 39.255409,27.1590826 39.6704283,26.7959407 C40.4485894,26.069657 40.8117313,25.1358636 40.8117313,23.9945606 C40.8117313,21.8675868 39.5666734,20 37.23219,20 C35.8833773,20 34.8458291,20.6744063 34.2751776,21.6081997 C35.8314999,22.8013802 36.8171707,24.7727217 36.8171707,27.1590826 C36.8171707,28.5597727 36.4540288,29.8048305 35.7277451,30.8942561 C35.468358,31.3092754 35.6239903,31.8280495 36.0390095,32.0355592 C37.3359448,32.6580881 38.8922671,33.6437589 39.7223057,35.1482038 C39.8779379,35.4075908 40.1373249,35.5632231 40.396712,35.5632231 L42.1086665,35.5632231 C43.1980921,35.5632231 43.9243759,34.6813071 43.9243759,33.5400041 C43.9762533,31.8280495 42.2642988,30.6867465 40.396712,29.8567079 L40.396712,29.8567079 Z M33.9639131,33.6437589 C32.5632231,33.02123 32.303836,32.4505784 32.303836,31.8799269 C32.303836,31.257398 32.7188553,30.6867465 33.185752,30.2717272 C34.0157905,29.4935661 34.4826872,28.4041405 34.4826872,27.1590826 C34.4826872,24.8245991 33.0819972,22.8013802 30.5400041,22.8013802 C27.998011,22.8013802 26.5973209,24.8245991 26.5973209,27.1590826 C26.5973209,28.4041405 27.0642176,29.4935661 27.8942561,30.2717272 C28.3611528,30.7386239 28.7761721,31.3092754 28.7761721,31.8799269 C28.7761721,32.5024559 28.5686625,33.02123 27.116095,33.6437589 C25.0409986,34.5256749 23.069657,35.5113456 23.0177796,37.3789324 C23.0177796,38.6239903 23.951573,39.6615385 25.1447534,39.6615385 L35.9352547,39.6615385 C37.1284352,39.6615385 38.0622285,38.6239903 38.0622285,37.3789324 C38.0103511,35.5632231 36.0390095,34.5775523 33.9639131,33.6437589 Z" id="path-11"></path>
        <path d="M8.75519311,3.72079676 L0.455472474,3.72079676 C0.293526705,3.72079676 0.151824158,3.86117344 0.151824158,4.02160392 L0.151824158,8.93478757 C0.151824158,9.37597141 0.516202137,9.73694 0.961553,9.73694 L8.24911258,9.73694 C8.69446344,9.73694 9.05884142,9.37597141 9.05884142,8.93478757 L9.05884142,4.02160392 C9.05884142,3.86117344 8.91713888,3.72079676 8.75519311,3.72079676 Z M3.18830732,8.13263514 C3.18830732,8.252958 3.10733443,8.33317325 2.98587511,8.33317325 L2.17614626,8.33317325 C2.05468694,8.33317325 1.97371405,8.252958 1.97371405,8.13263514 L1.97371405,7.33048271 C1.97371405,7.21015984 2.05468694,7.1299446 2.17614626,7.1299446 L2.98587511,7.1299446 C3.10733443,7.1299446 3.18830732,7.21015984 3.18830732,7.33048271 L3.18830732,8.13263514 Z M3.18830732,6.12725406 C3.18830732,6.24757692 3.10733443,6.32779217 2.98587511,6.32779217 L2.17614626,6.32779217 C2.05468694,6.32779217 1.97371405,6.24757692 1.97371405,6.12725406 L1.97371405,5.32510163 C1.97371405,5.20477876 2.05468694,5.12456352 2.17614626,5.12456352 L2.98587511,5.12456352 C3.10733443,5.12456352 3.18830732,5.20477876 3.18830732,5.32510163 L3.18830732,6.12725406 Z M5.21262942,8.13263514 C5.21262942,8.252958 5.13165654,8.33317325 5.01019721,8.33317325 L4.20046837,8.33317325 C4.07900904,8.33317325 3.99803616,8.252958 3.99803616,8.13263514 L3.99803616,7.33048271 C3.99803616,7.21015984 4.07900904,7.1299446 4.20046837,7.1299446 L5.01019721,7.1299446 C5.13165654,7.1299446 5.21262942,7.21015984 5.21262942,7.33048271 L5.21262942,8.13263514 Z M5.21262942,6.12725406 C5.21262942,6.24757692 5.13165654,6.32779217 5.01019721,6.32779217 L4.20046837,6.32779217 C4.07900904,6.32779217 3.99803616,6.24757692 3.99803616,6.12725406 L3.99803616,5.32510163 C3.99803616,5.20477876 4.07900904,5.12456352 4.20046837,5.12456352 L5.01019721,5.12456352 C5.13165654,5.12456352 5.21262942,5.20477876 5.21262942,5.32510163 L5.21262942,6.12725406 Z M7.23695153,8.13263514 C7.23695153,8.252958 7.15597864,8.33317325 7.03451932,8.33317325 L6.22479048,8.33317325 C6.10333115,8.33317325 6.02235826,8.252958 6.02235826,8.13263514 L6.02235826,7.33048271 C6.02235826,7.21015984 6.10333115,7.1299446 6.22479048,7.1299446 L7.03451932,7.1299446 C7.15597864,7.1299446 7.23695153,7.21015984 7.23695153,7.33048271 L7.23695153,8.13263514 Z M7.23695153,6.12725406 C7.23695153,6.24757692 7.15597864,6.32779217 7.03451932,6.32779217 L6.22479048,6.32779217 C6.10333115,6.32779217 6.02235826,6.24757692 6.02235826,6.12725406 L6.02235826,5.32510163 C6.02235826,5.20477876 6.10333115,5.12456352 6.22479048,5.12456352 L7.03451932,5.12456352 C7.15597864,5.12456352 7.23695153,5.20477876 7.23695153,5.32510163 L7.23695153,6.12725406 Z M8.24911258,1.11380136 L7.23695153,1.11380136 L7.23695153,0.712725142 C7.23695153,0.391864169 6.97378965,0.111110818 6.6296549,0.111110818 C6.30576336,0.111110818 6.02235826,0.371810359 6.02235826,0.712725142 L6.02235826,1.11380136 L3.18830732,1.11380136 L3.18830732,0.712725142 C3.18830732,0.391864169 2.92514544,0.111110818 2.58101068,0.111110818 C2.25711915,0.111110818 1.97371405,0.371810359 1.97371405,0.712725142 L1.97371405,1.11380136 L0.961553,1.11380136 C0.516202137,1.11380136 0.151824158,1.47476995 0.151824158,1.91595379 L0.151824158,2.41729906 C0.151824158,2.57772955 0.293526705,2.71810622 0.455472474,2.71810622 L8.75519311,2.71810622 C8.91713888,2.71810622 9.05884142,2.57772955 9.05884142,2.41729906 L9.05884142,1.91595379 C9.05884142,1.47476995 8.69446344,1.11380136 8.24911258,1.11380136 Z" id="path-13"></path>
    </defs>
    <g id="DMP-201" stroke="none" stroke-width="1" fill="none" fill-rule="evenodd">
        <g id="JB-8" transform="translate(0.000000, -133.000000)">
            <g id="Group-2" transform="translate(-1.000000, 133.000000)">
                <g id="Bottom">
                    <g id="Drawer/50%" transform="translate(0.530951, 0.441747)">
                        <g id="Rectangle">
                            <use fill="black" fill-opacity="1" filter="url(#filter-2)" xlink:href="#path-1"></use>
                            <use fill="#FFFFFF" fill-rule="evenodd" xlink:href="#path-1"></use>
                        </g>
                    </g>
                </g>
            </g>
            <g id="Group-20" transform="translate(12.000000, 132.000000)">
                <rect id="Rectangle-35" stroke="#D8DDE6" fill="#F8F9FB" x="0.5" y="0.5" width="1268" height="36"></rect>
                <g id="Checkbox-Selected" transform="translate(1176.000000, 12.000000)">
                    <rect id="checkbox" stroke="#D8DDE6" fill="#FFFFFF" x="0.5" y="0.5" width="15" height="15" rx="2"></rect>
                    <text id="Checkbox-Label" font-family="SalesforceSans-Regular, Salesforce Sans" font-size="12" font-weight="normal" fill="#54698D">
                        <tspan x="20" y="13">Labels</tspan>
                    </text>
                    <path d="M3.09394572,8.5177453 C2.96868476,8.39248434 2.96868476,8.18371608 3.09394572,8.05845511 L3.55323591,7.59916493 C3.67849687,7.47390397 3.88726514,7.47390397 4.0125261,7.59916493 L6.60125261,10.2087683 C6.68475992,10.2922756 6.8308977,10.2922756 6.91440501,10.2087683 L11.9874739,5.09394572 C12.1127349,4.96868476 12.3215031,4.96868476 12.4467641,5.09394572 L12.9060543,5.55323591 C13.0313152,5.67849687 13.0313152,5.88726514 12.9060543,6.0125261 L6.99791232,11.9832985 C6.87265136,12.1294363 6.66388309,12.1294363 6.53862213,11.9832985 L3.09394572,8.5177453 Z" id="Shape" fill="#0070D2"></path>
                </g>
                <text id="Journey-Plan-Duratio" font-family="SalesforceSans-Regular, Salesforce Sans" font-size="12" font-weight="normal" fill="#00396B">
                    <tspan x="16.16" y="24">Journey Plan Duration: 3 Days</tspan>
                </text>
                <path d="M1110.5,8.5 L1110.5,31.5798724" id="Line-7" stroke="#E1E1E1" stroke-linecap="square"></path>
                <text id="Show" font-family="SalesforceSans-Bold, Salesforce Sans" font-size="12" font-weight="bold" fill="#00396B">
                    <tspan x="1131" y="24">Show</tspan>
                </text>
            </g>
            <g id="JB-App-Nav" transform="translate(0.000000, 54.000000)">
                <g id="JB-Nav">
                    <g id="Nav/Versions" transform="translate(289.000000, 24.000000)">
                        <g>
                            <rect id="Rectangle-10" stroke="#D8DDE6" fill="#FFFFFF" x="0.5" y="0.5" width="87" height="31" rx="4"></rect>
                            <g id="icons/utility/down" transform="translate(70.000000, 14.000000)">
                                <mask id="mask-4" fill="white">
                                    <use xlink:href="#path-3"></use>
                                </mask>
                                <use id="Mask" fill="#54698D" xlink:href="#path-3"></use>
                            </g>
                            <text id="Version-1" font-family="SalesforceSans-Bold, Salesforce Sans" font-size="12" font-weight="bold" fill="#6187BF">
                                <tspan x="8.198" y="21">Version 1</tspan>
                            </text>
                        </g>
                    </g>
                    <g id="Options/Button+Dropdown" transform="translate(900.000000, 24.000000)">
                        <g id="Options/Button">
                            <g id="Options">
                                <g>
                                    <rect id="Rectangle-10" stroke="#D8DDE6" fill="#FFFFFF" x="0.5" y="0.5" width="54" height="31" rx="4"></rect>
                                    <g id="icons/utility/down" transform="translate(34.000000, 13.000000)">
                                        <mask id="mask-6" fill="white">
                                            <use xlink:href="#path-5"></use>
                                        </mask>
                                        <use id="Mask" fill="#54698D" xlink:href="#path-5"></use>
                                    </g>
                                    <g id="icons/utility/settings" transform="translate(11.000000, 9.000000)">
                                        <mask id="mask-8" fill="white">
                                            <use xlink:href="#path-7"></use>
                                        </mask>
                                        <use id="Mask" fill="#54698D" xlink:href="#path-7"></use>
                                    </g>
                                </g>
                            </g>
                        </g>
                    </g>
                </g>
            </g>
            <g id="journey" transform="translate(135.000000, 199.000000)">
                <rect id="Rectangle-7" fill="#D8DDE6" x="0.419122585" y="48" width="681.570007" height="7"></rect>
                <rect id="Rectangle-7-Copy" fill="#D8DDE6" x="389" y="201" width="303" height="7"></rect>
                <g id="Group-7" transform="translate(221.000000, 0.000000)">
                    <g id="Flow-4" transform="translate(30.000000, 39.000000)"></g>
                    <text id="2-Days" font-family="SalesforceSans-Regular, Salesforce Sans" font-size="12" font-weight="normal" fill="#2A426C">
                        <tspan x="23.628" y="12">2 Days</tspan>
                    </text>
                </g>
                <g id="Group-8" transform="translate(89.000000, 26.000000)">
                    <g id="Message-1" transform="translate(18.000000, 0.000000)">
                        <g id="BG---Activities-Messages" fill="#4477A4">
                            <rect id="Rectangle" x="0" y="0" width="48" height="48" rx="8"></rect>
                        </g>
                        <rect id="Rectangle" fill="#4DC6BE" x="0" y="0" width="48" height="48" rx="8"></rect>
                        <g id="icon---email" transform="translate(12.000000, 14.000000)" fill="#FFFFFF">
                            <path d="M5.6328,9.5005 L-0.0002,14.4315 L-0.0002,4.5685 L5.6328,9.5005 Z M24,14.432 L18.367,9.501 L24,4.569 L24,14.432 Z M9.5298,11.4122 L-0.0002,3.0692 L-0.0002,2.2352 C-0.0002,1.0062 1.0288,0.0002 2.2858,0.0002 L21.7138,0.0002 C22.9718,0.0002 23.9998,1.0062 23.9998,2.2352 L23.9998,3.0692 L14.4698,11.4122 C13.8198,11.9812 12.9428,12.2942 11.9998,12.2942 C11.0568,12.2942 10.1798,11.9812 9.5298,11.4122 Z M17.5105,10.2506 L24.0005,15.9316 L24.0005,16.7646 C24.0005,17.9946 22.9715,18.9996 21.7145,18.9996 L12.5715,18.9996 L11.4285,18.9996 L2.2855,18.9996 C1.0285,18.9996 0.0005,17.9946 0.0005,16.7646 L0.0005,15.9316 L6.4895,10.2506 L8.7675,12.2446 C9.4175,12.8136 10.2195,13.1696 11.0615,13.3226 C11.3705,13.3786 11.6845,13.4126 12.0005,13.4126 C12.3155,13.4126 12.6295,13.3786 12.9385,13.3226 C13.7805,13.1696 14.5825,12.8136 15.2325,12.2446 L17.5105,10.2506 Z"></path>
                        </g>
                    </g>
                    <text id="10%-Off-Promotion" font-family="SalesforceSans-Regular, Salesforce Sans" font-size="12" font-weight="normal" fill="#2A426C">
                        <tspan x="17.046" y="76">10% Off </tspan>
                        <tspan x="12.078" y="91">Promotion</tspan>
                    </text>
                </g>
                <rect id="Rectangle-3" fill="#D8DDE6" x="389" y="65.5636273" width="8" height="138.490005"></rect>
                <g id="Group-9" transform="translate(382.000000, 39.000000)">
                    <g id="Flow-4"></g>
                </g>
                <g id="exit" transform="translate(668.984375, 34.000000)">
                    <circle id="Oval" fill="#92D359" cx="17" cy="17" r="17"></circle>
                    <g id="icon---exit" transform="translate(9.000000, 9.000000)" fill="#FFFFFF">
                        <path d="M10.9565217,11.2 L10.9565217,14.4 L1.56521739,14.4 L1.56521739,1.6 L10.9565217,1.6 L10.9565217,4.8 L12.5217391,4.8 L12.5217391,1.6 C12.5217391,0.72 11.8173913,0 10.9565217,0 L1.56521739,0 C0.704347826,0 0,0.72 0,1.6 L0,14.4 C0,15.28 0.704347826,16 1.56521739,16 L10.9565217,16 C11.8173913,16 12.5217391,15.28 12.5217391,14.4 L12.5217391,11.2 L10.9565217,11.2 Z" id="Fill-1"></path>
                        <path d="M14.0869565,12.43416 C14.49,12.92216 15.1489565,12.92216 15.5512174,12.43416 L18.4805217,8.88696 C18.8835652,8.39896 18.8835652,7.60056 18.4805217,7.11336 L15.5512174,3.56616 C15.1489565,3.07816 14.49,3.07816 14.0869565,3.56616 L14.0869565,5.59976 L7.76817391,5.59976 C7.36982609,5.59976 7.04347826,5.93336 7.04347826,6.34056 L7.04347826,9.65896 C7.04347826,10.06696 7.36982609,10.39976 7.76817391,10.39976 L14.0869565,10.39976 L14.0869565,12.43416 Z" id="Fill-3"></path>
                    </g>
                </g>
                <text id="Exit-Immediately" font-family="SalesforceSans-Regular, Salesforce Sans" font-size="12" font-weight="normal" fill="#2A426C">
                    <tspan x="715.264375" y="56">Exit Immediately</tspan>
                </text>
                <g id="exit" transform="translate(670.984375, 187.000000)">
                    <circle id="Oval" fill="#92D359" cx="17" cy="17" r="17"></circle>
                    <g id="icon---exit" transform="translate(9.000000, 9.000000)" fill="#FFFFFF">
                        <path d="M10.9565217,11.2 L10.9565217,14.4 L1.56521739,14.4 L1.56521739,1.6 L10.9565217,1.6 L10.9565217,4.8 L12.5217391,4.8 L12.5217391,1.6 C12.5217391,0.72 11.8173913,0 10.9565217,0 L1.56521739,0 C0.704347826,0 0,0.72 0,1.6 L0,14.4 C0,15.28 0.704347826,16 1.56521739,16 L10.9565217,16 C11.8173913,16 12.5217391,15.28 12.5217391,14.4 L12.5217391,11.2 L10.9565217,11.2 Z" id="Fill-1"></path>
                        <path d="M14.0869565,12.43416 C14.49,12.92216 15.1489565,12.92216 15.5512174,12.43416 L18.4805217,8.88696 C18.8835652,8.39896 18.8835652,7.60056 18.4805217,7.11336 L15.5512174,3.56616 C15.1489565,3.07816 14.49,3.07816 14.0869565,3.56616 L14.0869565,5.59976 L7.76817391,5.59976 C7.36982609,5.59976 7.04347826,5.93336 7.04347826,6.34056 L7.04347826,9.65896 C7.04347826,10.06696 7.36982609,10.39976 7.76817391,10.39976 L14.0869565,10.39976 L14.0869565,12.43416 Z" id="Fill-3"></path>
                    </g>
                </g>
                <text id="Exit-Immediately" font-family="SalesforceSans-Regular, Salesforce Sans" font-size="12" font-weight="normal" fill="#2A426C">
                    <tspan x="717.264375" y="209">Exit Immediately</tspan>
                </text>
            </g>
            <g id="audience-block" transform="translate(32.000000, 196.000000)">
                <path d="M4,0.5 C2.06700338,0.5 0.5,2.06700338 0.5,4 L0.5,353 C0.5,354.932997 2.06700338,356.5 4,356.5 L141,356.5 C142.932997,356.5 144.5,354.932997 144.5,353 L144.5,4 C144.5,2.06700338 142.932997,0.5 141,0.5 L4,0.5 Z" id="Rectangle-6-Copy-5" stroke="#A8B7C7" fill="#FFFFFF"></path>
                <text id="Audience" font-family="SalesforceSans-Regular, Salesforce Sans" font-size="14" font-weight="normal" fill="#16325C">
                    <tspan x="42.847" y="113">Audience</tspan>
                </text>
                <g id="Group-2-Copy-5" transform="translate(59.000000, 43.000000)">
                    <g id="Group">
                        <g id="icons/utility/groups-copy">
                            <mask id="mask-10" fill="white">
                                <use xlink:href="#path-9"></use>
                            </mask>
                            <use id="Mask" fill="#FFFFFF" xlink:href="#path-9"></use>
                        </g>
                    </g>
                </g>
                <text id="Winter-Jackets---New" font-family="SalesforceSans-Regular, Salesforce Sans" font-size="10" font-weight="normal" line-spacing="12" fill="#54698D">
                    <tspan x="23.07" y="155">Winter Jackets - New </tspan>
                    <tspan x="46.37" y="167">High Value</tspan>
                </text>
                <text id="NAME" font-family="SalesforceSans-Bold, Salesforce Sans" font-size="10" font-weight="bold" line-spacing="18" fill="#54698D">
                    <tspan x="57.21" y="136">NAME</tspan>
                </text>
                <text id="Salesforce-DMP" font-family="SalesforceSans-Regular, Salesforce Sans" font-size="10" font-weight="normal" line-spacing="18" fill="#54698D">
                    <tspan x="36.665" y="205">Salesforce DMP</tspan>
                </text>
                <text id="AUDIENCE-SOURCE" font-family="SalesforceSans-Bold, Salesforce Sans" font-size="10" font-weight="bold" line-spacing="18" fill="#54698D">
                    <tspan x="25.365" y="188">AUDIENCE SOURCE</tspan>
                </text>
                <text id="See-all" font-family="SalesforceSans-Regular, Salesforce Sans" font-size="10" font-weight="normal" line-spacing="18" fill="#0070D2">
                    <tspan x="57.455" y="329">See all</tspan>
                </text>
                <g id="Group-3" transform="translate(14.000000, 246.000000)" fill="#54698D" font-size="10">
                    <text id="DESCRIPTION" font-family="SalesforceSans-Bold, Salesforce Sans" font-weight="bold" line-spacing="18">
                        <tspan x="24.11" y="10">DESCRIPTION</tspan>
                    </text>
                    <text id="High-propensity-cust" font-family="SalesforceSans-Regular, Salesforce Sans" font-weight="normal" line-spacing="16">
                        <tspan x="21.995" y="27">High propensity </tspan>
                        <tspan x="3.425" y="43">customers - Winterwear</tspan>
                    </text>
                </g>
            </g>
            <g id="Group-2-Copy-5" transform="translate(75.000000, 219.000000)">
                <g id="Group" fill="#92D359">
                    <circle id="Oval-3" cx="30" cy="30" r="30"></circle>
                </g>
                <mask id="mask-12" fill="white">
                    <use xlink:href="#path-11"></use>
                </mask>
                <use id="Mask" fill="#FFFFFF" xlink:href="#path-11"></use>
            </g>
            <path d="M524.192672,243.960945 L527.408754,242 L531,242.106779 L531,243.960945 C529.132189,244.66937 528.066695,245.015543 527.803519,244.999465 C527.408754,244.975348 524,244.40669 524,244.40669 L524.192672,243.960945 Z" id="Path-2-Copy" fill="#FFFFFF"></path>
            <g id="BG---Flow-Control" transform="translate(360.000000, 212.000000)" fill="#ED8B00">
                <rect id="BG---Activities-Flow-Control" transform="translate(37.000000, 38.000000) rotate(-45.000000) translate(-37.000000, -38.000000) " x="14" y="15" width="46" height="46" rx="8"></rect>
            </g>
            <g id="icon---wait" transform="translate(386.000000, 238.000000)" fill="#FFFFFF">
                <path d="M17.0449,15.3174 L12.9999,11.5634 L12.9999,4.0004 L10.9999,4.0004 L10.9999,12.4364 L15.6849,16.7844 L17.0449,15.3174 Z M11.9999,0.0004 C5.3749,0.0004 -0.0001,5.3754 -0.0001,12.0004 C-0.0001,18.6254 5.3749,24.0004 11.9999,24.0004 C18.6249,24.0004 23.9999,18.6254 23.9999,12.0004 C23.9999,5.3754 18.6249,0.0004 11.9999,0.0004 L11.9999,0.0004 Z M11.9999,2.0004 C17.5139,2.0004 21.9999,6.4864 21.9999,12.0004 C21.9999,17.5144 17.5139,22.0004 11.9999,22.0004 C6.4859,22.0004 1.9999,17.5144 1.9999,12.0004 C1.9999,6.4864 6.4859,2.0004 11.9999,2.0004 L11.9999,2.0004 Z" id="Fill-1"></path>
            </g>
            <rect id="Rectangle-12" fill="#FFFFFF" x="487" y="286" width="87" height="39"></rect>
            <rect id="Rectangle-12" fill="#FFFFFF" x="665" y="286" width="87" height="39"></rect>
            <text id="Email-Decision-Split" font-family="SalesforceSans-Regular, Salesforce Sans" font-size="12" font-weight="normal" fill="#2A426C">
                <tspan x="511.55" y="302">Email</tspan>
                <tspan x="489.23" y="317">Decision Split</tspan>
            </text>
            <g id="Group-5" transform="translate(498.000000, 220.000000)">
                <g id="Group-6" fill="#ED8B00">
                    <path d="M2.10217401,24.924903 L24.924903,2.10217401 C27.7278017,-0.700724669 32.2721983,-0.700724669 35.075097,2.10217401 L57.897826,24.924903 C60.7007247,27.7278017 60.7007247,32.2721983 57.897826,35.075097 L35.075097,57.897826 C32.2721983,60.7007247 27.7278017,60.7007247 24.924903,57.897826 L2.10217401,35.075097 C-0.700724669,32.2721983 -0.700724669,27.7278017 2.10217401,24.924903 Z" id="Rectangle-5"></path>
                </g>
                <g id="icon---decision-split" transform="translate(22.000000, 19.000000)" fill="#FFFFFF">
                    <path d="M5.972,24 L9.272,24 L9.272,20.7 L5.972,20.7 L5.972,24 Z M6.149,18.189 C6.139,17.803 6.133,17.513 6.133,17.32 C6.133,16.183 6.294,15.201 6.616,14.374 C6.851,13.752 7.233,13.124 7.759,12.491 C8.145,12.03 8.839,11.356 9.843,10.471 C10.847,9.586 11.499,8.879 11.799,8.354 C12.099,7.829 12.249,7.254 12.249,6.632 C12.249,5.505 11.809,4.515 10.93,3.662 C10.05,2.809 8.971,2.382 7.694,2.382 C6.46,2.382 5.43,2.768 4.603,3.541 C3.777,4.314 3.235,5.521 2.978,7.163 L0,6.809 C0.268,4.609 1.065,2.924 2.39,1.755 C3.716,0.585 5.467,0 7.646,0 C9.953,0 11.793,0.628 13.167,1.883 C14.541,3.139 15.227,4.658 15.227,6.439 C15.227,7.469 14.986,8.418 14.503,9.288 C14.02,10.157 13.076,11.214 11.67,12.459 C10.726,13.296 10.109,13.913 9.819,14.31 C9.529,14.707 9.314,15.163 9.175,15.678 C9.036,16.193 8.955,17.03 8.934,18.189 L6.149,18.189 Z" id="Page-1"></path>
                </g>
            </g>
            <g id="Group-19" transform="translate(33.000000, 557.000000)">
                <g id="Group-25">
                    <rect id="Rectangle-6-Copy-6" stroke="#A8B7C7" fill="#FFFFFF" x="0.5" y="0.5" width="142" height="151" rx="4"></rect>
                    <text id="Schedule-Copy-4" font-family="SalesforceSans-Regular, Salesforce Sans" font-size="14" font-weight="normal" fill="#16325C">
                        <tspan x="48.393" y="33">Schedule</tspan>
                    </text>
                    <g id="Group-Copy-4" transform="translate(16.000000, 16.000000)">
                        <circle id="Oval-3" fill="#B17FD1" cx="12" cy="12" r="12"></circle>
                        <g id="icons/utility/event-copy" transform="translate(7.407612, 7.211765)">
                            <mask id="mask-14" fill="white">
                                <use xlink:href="#path-13"></use>
                            </mask>
                            <use id="Mask" fill="#FFFFFF" xlink:href="#path-13"></use>
                        </g>
                    </g>
                    <text id="FRI-JUN-15,-2018-@-9" font-family="SalesforceSans-Regular, Salesforce Sans" font-size="12" font-weight="normal" fill="#16325C">
                        <tspan x="16" y="65">FRI JUN 15, 2018</tspan>
                        <tspan x="16" y="80">@ 9:45 AM ET</tspan>
                    </text>
                </g>
            </g>
            <g id="Group-8" transform="translate(698.000000, 226.000000)">
                <g id="Message-1" transform="translate(18.000000, 0.000000)">
                    <g id="BG---Activities-Messages" fill="#4477A4">
                        <rect id="Rectangle" x="0" y="0" width="48" height="48" rx="8"></rect>
                    </g>
                    <rect id="Rectangle" fill="#4DC6BE" x="0" y="0" width="48" height="48" rx="8"></rect>
                    <g id="icon---email" transform="translate(12.000000, 14.000000)" fill="#FFFFFF">
                        <path d="M5.6328,9.5005 L-0.0002,14.4315 L-0.0002,4.5685 L5.6328,9.5005 Z M24,14.432 L18.367,9.501 L24,4.569 L24,14.432 Z M9.5298,11.4122 L-0.0002,3.0692 L-0.0002,2.2352 C-0.0002,1.0062 1.0288,0.0002 2.2858,0.0002 L21.7138,0.0002 C22.9718,0.0002 23.9998,1.0062 23.9998,2.2352 L23.9998,3.0692 L14.4698,11.4122 C13.8198,11.9812 12.9428,12.2942 11.9998,12.2942 C11.0568,12.2942 10.1798,11.9812 9.5298,11.4122 Z M17.5105,10.2506 L24.0005,15.9316 L24.0005,16.7646 C24.0005,17.9946 22.9715,18.9996 21.7145,18.9996 L12.5715,18.9996 L11.4285,18.9996 L2.2855,18.9996 C1.0285,18.9996 0.0005,17.9946 0.0005,16.7646 L0.0005,15.9316 L6.4895,10.2506 L8.7675,12.2446 C9.4175,12.8136 10.2195,13.1696 11.0615,13.3226 C11.3705,13.3786 11.6845,13.4126 12.0005,13.4126 C12.3155,13.4126 12.6295,13.3786 12.9385,13.3226 C13.7805,13.1696 14.5825,12.8136 15.2325,12.2446 L17.5105,10.2506 Z"></path>
                    </g>
                </g>
                <text id="Product-Promo-Email" font-family="SalesforceSans-Regular, Salesforce Sans" font-size="12" font-weight="normal" fill="#2A426C">
                    <tspan x="19.908" y="76">Product </tspan>
                    <tspan x="6.12" y="91">Promo Email</tspan>
                </text>
            </g>
            <g id="Message-4" transform="translate(694.000000, 381.000000)">
                <text id="Advertising-Audience" font-family="SalesforceSans-Regular, Salesforce Sans" font-size="12" font-weight="normal" fill="#2A426C">
                    <tspan x="11.878" y="72"> Advertising </tspan>
                    <tspan x="18.094" y="87">Audience</tspan>
                </text>
                <rect id="Rectangle" fill="#4DC6BE" x="22" y="0" width="48" height="48" rx="8"></rect>
                <g id="icon---create-ad-audience" transform="translate(34.000000, 12.000000)" fill="#FFFFFF">
                    <path d="M10.9951,9.8809 C10.5071,9.6349 10.1191,9.3699 9.9051,9.0469 C9.5291,8.4759 9.6371,7.9399 9.9051,7.5919 C10.7141,6.5489 11.1411,5.0089 11.1411,2.9149 C11.1411,1.2509 9.7981,-0.0001 8.0001,-0.0001 C6.6771,-0.0001 4.8621,0.8919 4.8621,2.9149 C4.8621,4.8559 5.2861,6.5489 6.0951,7.5919 C6.3631,7.9399 6.4701,8.4759 6.0951,9.0469 C5.6931,9.6569 4.6921,10.0649 3.4961,10.5179 C2.3461,10.9569 1.2261,11.1189 0.5931,11.7499 C-0.0689,12.4149 0.0021,13.0799 0.0021,13.7189 L8.4751,13.7189 C8.9451,12.2139 9.8331,10.8949 10.9951,9.8809" id="Fill-1"></path>
                    <path d="M16.5713,22.3032 C13.2023,22.3032 10.4713,19.5812 10.4713,16.2242 C10.4713,12.8672 13.2023,10.1452 16.5713,10.1452 C19.9403,10.1452 22.6713,12.8672 22.6713,16.2242 C22.6713,19.5812 19.9403,22.3032 16.5713,22.3032 M16.5473,8.7922 C12.4313,8.7922 9.0953,12.1172 9.0953,16.2192 C9.0953,20.3212 12.4313,23.6472 16.5473,23.6472 C20.6633,23.6472 24.0003,20.3212 24.0003,16.2192 C24.0003,12.1172 20.6633,8.7922 16.5473,8.7922" id="Fill-4"></path>
                    <path d="M16.6059,19.591 C14.7389,19.591 13.2249,18.083 13.2249,16.222 C13.2249,14.361 14.7389,12.852 16.6059,12.852 C18.4729,12.852 19.9869,14.361 19.9869,16.222 C19.9869,18.083 18.4729,19.591 16.6059,19.591 M16.5879,11.498 C13.9699,11.498 11.8489,13.613 11.8489,16.222 C11.8489,18.83 13.9699,20.945 16.5879,20.945 C19.2049,20.945 21.3269,18.83 21.3269,16.222 C21.3269,13.613 19.2049,11.498 16.5879,11.498" id="Fill-7"></path>
                    <path d="M14.6017,16.1682 C14.6017,17.2522 15.4837,18.1312 16.5717,18.1312 C17.6597,18.1312 18.5417,17.2522 18.5417,16.1682 C18.5417,15.0842 17.6597,14.2052 16.5717,14.2052 C15.4837,14.2052 14.6017,15.0842 14.6017,16.1682 Z" id="Fill-9"></path>
                </g>
            </g>
            <g id="Create_Ad_Audience" transform="translate(717.000000, 381.000000)">
                <g id="Custom_Activity" fill="#4DC6BD">
                    <g id="Group-11">
                        <g id="Group">
                            <rect id="Rectangle" x="0" y="0" width="47" height="47" rx="8"></rect>
                        </g>
                    </g>
                </g>
                <g id="icon_journeyBuilder-activities-addToAudience-white" transform="translate(10.281250, 11.750000)" fill="#FFFFFF">
                    <g id="Layer_1">
                        <g id="Group">
                            <path d="M19.828125,13.21875 C16.126875,13.21875 13.21875,16.126875 13.21875,19.828125 C13.21875,23.529375 16.126875,26.4375 19.828125,26.4375 C23.529375,26.4375 26.4375,23.529375 26.4375,19.828125 C26.4375,16.126875 23.529375,13.21875 19.828125,13.21875 L19.828125,13.21875 Z M24.058125,21.0178125 L20.885625,21.0178125 L20.885625,24.1903125 L18.50625,24.1903125 L18.50625,21.0178125 L15.33375,21.0178125 L15.33375,18.6384375 L18.50625,18.6384375 L18.50625,15.4659375 L20.885625,15.4659375 L20.885625,18.6384375 L24.058125,18.6384375 L24.058125,21.0178125 L24.058125,21.0178125 Z" id="Shape"></path>
                            <path d="M7.2703125,10.310625 C7.2703125,9.253125 7.666875,8.3278125 8.3278125,7.7990625 C8.0634375,7.5346875 7.93125,7.4025 7.7990625,7.2703125 C7.5346875,6.87375 7.5346875,6.345 7.7990625,6.080625 C8.46,5.2875 8.8565625,3.965625 8.8565625,2.379375 C8.8565625,1.0575 7.7990625,0 6.345,0 C5.2875,0 3.8334375,0.6609375 3.8334375,2.379375 C3.8334375,3.965625 4.23,5.2875 4.75875,6.080625 C5.023125,6.345 5.023125,6.7415625 4.75875,7.2703125 C4.494375,7.7990625 3.70125,8.0634375 2.7759375,8.46 C1.850625,8.8565625 0.9253125,8.98875 0.52875,9.3853125 C0,9.9140625 0,10.4428125 0,10.9715625 L7.4025,10.9715625 C7.4025,10.7071875 7.2703125,10.575 7.2703125,10.310625 L7.2703125,10.310625 Z" id="Shape"></path>
                            <path d="M22.0753125,9.3853125 C21.5465625,8.8565625 20.7534375,8.724375 19.828125,8.46 C18.9028125,8.0634375 18.1096875,7.7990625 17.713125,7.2703125 C17.44875,6.87375 17.44875,6.345 17.713125,6.080625 C18.3740625,5.2875 18.770625,3.965625 18.770625,2.379375 C18.770625,1.0575 17.713125,0 16.2590625,0 C15.2015625,0 13.7475,0.6609375 13.7475,2.379375 C13.7475,3.965625 14.1440625,5.2875 14.6728125,6.080625 C14.9371875,6.345 14.9371875,6.7415625 14.6728125,7.2703125 C14.540625,7.5346875 14.27625,7.666875 13.8796875,7.93125 C14.4084375,8.5921875 14.6728125,9.3853125 14.6728125,10.310625 L14.6728125,11.10375 L22.6040625,11.10375 C22.6040625,10.4428125 22.6040625,9.9140625 22.0753125,9.3853125 L22.0753125,9.3853125 Z" id="Shape"></path>
                            <path d="M12.5578125,15.7303125 C12.2934375,15.2015625 12.2934375,14.805 12.5578125,14.4084375 C13.21875,13.483125 13.6153125,12.16125 13.6153125,10.310625 C13.6153125,8.8565625 12.5578125,7.7990625 10.9715625,7.7990625 C9.9140625,7.7990625 8.3278125,8.5921875 8.3278125,10.310625 C8.3278125,12.0290625 8.724375,13.483125 9.3853125,14.4084375 C9.6496875,14.6728125 9.6496875,15.2015625 9.3853125,15.7303125 C8.98875,16.2590625 8.195625,16.655625 7.2703125,17.0521875 C6.345,17.44875 5.4196875,17.5809375 4.8909375,18.1096875 C4.3621875,18.6384375 4.3621875,19.299375 4.3621875,19.828125 L12.0290625,19.828125 C12.0290625,18.50625 12.425625,17.184375 12.954375,16.126875 C12.8221875,15.9946875 12.69,15.8625 12.5578125,15.7303125 L12.5578125,15.7303125 Z" id="Shape"></path>
                        </g>
                    </g>
                </g>
            </g>
            <g id="Group-10" transform="translate(0.000000, 132.000000)">
                <rect id="Rectangle-27" stroke="#D8DDE6" fill="#FFFFFF" x="0.5" y="0.5" width="11" height="869"></rect>
                <path d="M2.27419463,402 L9.73702134,402 C9.94783565,402 10.0954057,402.270833 9.92675422,402.458333 L6.27966659,406.875 C6.15317801,407.041667 5.8791194,407.041667 5.75263081,406.875 L2.06338032,402.458333 C1.9158103,402.270833 2.04229889,402 2.27419463,402 L2.27419463,402 Z" id="Shape" fill="#16325C" transform="translate(6.000000, 404.500000) rotate(-90.000000) translate(-6.000000, -404.500000) "></path>
            </g>
            <g id="Group-3" transform="translate(603.000000, 242.000000)">
                <rect id="Rectangle-13" stroke="#E0E5EE" fill="#F4F6F9" x="0.5" y="0.5" width="58" height="15" rx="4"></rect>
                <text id="Opened" font-family="SalesforceSans-Regular, Salesforce Sans" font-size="10" font-weight="normal" fill="#2A426C">
                    <tspan x="9.02" y="11">Opened</tspan>
                </text>
            </g>
            <g id="Group-3" transform="translate(593.000000, 396.000000)">
                <rect id="Rectangle-13" stroke="#E0E5EE" fill="#F4F6F9" x="0.5" y="0.5" width="78" height="15" rx="4"></rect>
                <text id="Not-Opened" font-family="SalesforceSans-Regular, Salesforce Sans" font-size="10" font-weight="normal" fill="#2A426C">
                    <tspan x="11.01" y="11">Not Opened</tspan>
                </text>
            </g>
        </g>
    </g>
</svg>