<?xml version="1.0" encoding="UTF-8"?>
<svg width="16px" height="16px" viewBox="0 0 16 16" version="1.1" xmlns="http://www.w3.org/2000/svg" xmlns:xlink="http://www.w3.org/1999/xlink">
    <!-- Generator: Sketch 47 (45396) - http://www.bohemiancoding.com/sketch -->
    <title>Group</title>
    <desc>Created with Sketch.</desc>
    <defs></defs>
    <g id="Ducati-Story-Files" stroke="none" stroke-width="1" fill="none" fill-rule="evenodd">
        <g id="Dashboard" transform="translate(-959.000000, -27.000000)" fill="#E9EAEC">
            <g id="new_custom93" transform="translate(959.000000, 27.000000)">
                <g id="Group">
                    <path fill="#54698D" d="M6.44155844,8 L14.0606061,8 C14.2683983,8 14.5454545,7.85454545 14.5454545,7.56363636 L15.9307359,2.61818182 C16.0692641,2.25454545 15.7922078,1.89090909 15.4458874,1.89090909 L3.67099567,1.89090909 L3.46320346,1.16363636 C3.32467532,0.872727273 3.04761905,0.581818182 2.7012987,0.581818182 L1.45454545,0.581818182 C1.03896104,0.581818182 0.692640693,0.945454545 0.623376623,1.38181818 C0.623376623,1.81818182 0.96969697,2.18181818 1.38528139,2.18181818 L2.14718615,2.18181818 L4.57142857,10.6181818 C4.64069264,10.9090909 4.98701299,11.1272727 5.33333333,11.1272727 L14.3376623,11.1272727 C14.7532468,11.1272727 15.0995671,10.8363636 15.1688312,10.4 C15.1688312,9.96363636 14.8225108,9.6 14.4069264,9.6 L6.44155844,9.6 C6.0952381,9.6 5.81818182,9.30909091 5.74891775,9.01818182 C5.54112554,8.50909091 5.95670996,8 6.44155844,8 Z" id="Shape"></path>
                    <ellipse fill="#54698D" id="Oval" cx="6.58562771" cy="14.0756364" rx="1.27861472" ry="1.30909091"></ellipse>
                    <ellipse fill="#54698D" id="Oval" cx="12.8193939" cy="14.0756364" rx="1.27861472" ry="1.30909091"></ellipse>
                </g>
            </g>
        </g>
    </g>
</svg>