<svg id="einstein-segmentation-header" xmlns="http://www.w3.org/2000/svg" viewBox="0 0 271.17 31.78"><defs><style>.cls-1{fill:#16325c;}</style></defs><title>einstein-segementation-header</title><path id="dot-your-i--3" class="cls-1" d="M237.64,6.83a1.78,1.78,0,0,0,1.8-1.65,1.79,1.79,0,0,0-1.62-1.68A1.72,1.72,0,0,0,236,5.33,1.53,1.53,0,0,0,237.64,6.83Z"/><path id="dot-your-i--1" class="cls-1" d="M22.28,6.83a1.78,1.78,0,0,0,1.8-1.65A1.79,1.79,0,0,0,22.46,3.5,1.72,1.72,0,0,0,20.6,5.33,1.53,1.53,0,0,0,22.28,6.83Z"/><path id="dot-your-i--2" class="cls-1" d="M77.87,6.83a1.78,1.78,0,0,0,1.8-1.65A1.79,1.79,0,0,0,78,3.5a1.72,1.72,0,0,0-1.86,1.83A1.53,1.53,0,0,0,77.87,6.83Z"/><path id="egmentation" class="cls-1" d="M270.16,17.65a1.58,1.58,0,0,0-1,.69,13.2,13.2,0,0,1-1.38,1.47,2.41,2.41,0,0,1-1.32.66c-1.68,0-1-3.39-.9-5.16s.6-5.58.21-6.09a5.87,5.87,0,0,0-3-1.68C262,7.49,260.15,9,258.71,11c.09-1.14.27-2.88-.06-2.94a6.89,6.89,0,0,0-3.63.69,9.42,9.42,0,0,0-.39,2.84,7.75,7.75,0,0,1-1.14,1.11,2.59,2.59,0,0,1-1.95.63c-.48-3-2.22-5.73-4.95-5.73a1.81,1.81,0,0,0-1.65.78c-3.27.72-5.13,5.07-5.13,8.24a10,10,0,0,0,.26,2.27,3.24,3.24,0,0,1-.92.91c-1.17.54-1.68.33-1.86-.69,0-2.19,1.83-9.05,1.23-9.92-.18-.48-2.85-.6-3.24-.51-1.12,1-2.08,7.81-2,10.64a2,2,0,0,1-1.4.82c-1.65,0-2.46-1.83-2.43-2.88a73,73,0,0,1,1.77-9.11c.21-.48.3-.57.75-.72A17.48,17.48,0,0,1,233.77,7a1.36,1.36,0,0,0,1.08-1A3.79,3.79,0,0,0,235,4.88c.09-.69-.63-.87-1.11-.87a4.47,4.47,0,0,0-.9,0c-.33.06-.63,0-.6-.36a1.24,1.24,0,0,0-1.26-1.23,3.36,3.36,0,0,0-2.55,1.5,1.47,1.47,0,0,1-.9.51,30,30,0,0,0-3.42.66c-.57.21-1.56.45-1.77.75-.12,1.5.54,1.8,1.35,2a26.27,26.27,0,0,0,3,.06c.36.06.45.3.3,1-.24.87-.81,2.88-1.23,5a22.89,22.89,0,0,0-.6,4.06,3.69,3.69,0,0,0-.36.38,13.2,13.2,0,0,1-1.38,1.47,1.79,1.79,0,0,1-.9.36c-.45,0-1.23-.51-1.23-2.46,0-2.67,1.26-7.94,1.26-9,0-.48-1-.66-1.65-.66-.33,0-1.23.27-1.32.57a3.68,3.68,0,0,0-2.61-1.29c-4.8,0-8,5.43-8,10.61a9.25,9.25,0,0,0,.06,1c-.5.6-1.1,1.25-1.77,1.23-1.65,0-2.46-1.83-2.43-2.88a73,73,0,0,1,1.77-9.11c.21-.48.3-.57.75-.72A17.48,17.48,0,0,1,209.27,7a1.36,1.36,0,0,0,1.08-1,3.79,3.79,0,0,0,.15-1.17c.09-.69-.63-.87-1.11-.87a4.47,4.47,0,0,0-.9,0c-.33.06-.63,0-.6-.36a1.24,1.24,0,0,0-1.26-1.23,3.36,3.36,0,0,0-2.55,1.5,1.47,1.47,0,0,1-.9.51,30,30,0,0,0-3.42.66c-.57.21-1.56.45-1.77.75-.12,1.5.54,1.8,1.35,2a26.27,26.27,0,0,0,3,.06c.36.06.45.3.3,1-.24.87-.81,2.88-1.23,5a22.89,22.89,0,0,0-.6,4.06,3.69,3.69,0,0,0-.36.38,13.2,13.2,0,0,1-1.38,1.47,2.41,2.41,0,0,1-1.32.66c-1.68,0-1-3.39-.9-5.16s.6-5.58.21-6.09a5.87,5.87,0,0,0-3-1.68C193.26,7.49,191.41,9,190,11c.09-1.14.27-2.88-.06-2.94a6.89,6.89,0,0,0-3.63.69c-.3.39-.45,3.21-.45,5-.06,1.34-.17,3-.25,4.53l-.08.09c-1.17,1.29-2.22,2.25-4.23,2.25a2.86,2.86,0,0,1-2.88-1.77,24.53,24.53,0,0,0,3.12-3.3c1.2-1.53,1.95-2.61,1.95-4.5a3.6,3.6,0,0,0-3.6-3.78c-5,.12-7.17,4.86-7,9.38a8.08,8.08,0,0,0,.37,2.11c-1.05,1.2-1.71,1.72-2.2,1.72-1.68,0-1.17-3.39-1-5.16s.6-5.58.21-6.09a5.87,5.87,0,0,0-3-1.68c-.78-.06-2.46,1.26-3.87,3.06a4,4,0,0,0-.15-1.2c-.24-.66-2.67-2-3.18-1.89-.93.18-3.3,2-4.83,4.35,0-.87.42-3.54,0-3.63a8.67,8.67,0,0,0-4,.51c-.3.39-.18,3.24-.21,5-.08,1.45-.21,3-.26,4.43-.47.45-.87,1.06-1.21,1.42a10.41,10.41,0,0,1-2.4,1.86c.15-6.33,1.44-12.65.72-13.49-.24-.33-1.53-.12-2.46.42-.57-.78-2.28-1-2.28-1-2.82.15-5.19,2.43-6.39,4.95a12.77,12.77,0,0,0-1.44,5.85,11.91,11.91,0,0,0,.06,1.25,4.5,4.5,0,0,1-3.12,1.15,2.86,2.86,0,0,1-2.88-1.77,24.53,24.53,0,0,0,3.12-3.3c1.2-1.53,1.95-2.61,1.95-4.5a3.6,3.6,0,0,0-3.6-3.78c-5,.12-7.17,4.86-7,9.38a7.33,7.33,0,0,0,7.49,7.23,7.74,7.74,0,0,0,5-1.82,4.61,4.61,0,0,0,1.2,1c2,1.14,4.8-.57,5.85-1.86,0,.72.06,1.56.12,2.4-4.08,1.68-8.12,1.41-8.6,4.11s4.95,4.44,8.21,4.08c3.93-.45,4.44-3.27,4.23-6.3l-.09-1.17a10.39,10.39,0,0,0,2-1.11A7.82,7.82,0,0,0,151,21.82a5.23,5.23,0,0,0,.47,1.41,4,4,0,0,0,3.06-.48c.33-2.4.48-5,1.23-6.87.51-1.17,1.56-3,2.79-3.69.36,0,.39,1.11.33,1.59-.15,2.31-.6,8.45,0,9.14.42.51,3,0,3.48-.15A47.13,47.13,0,0,0,162.8,17c.48-1.86,1.41-3.9,2.82-4.86.36,0,.45,1.11.39,1.59,0,2.31-.21,7.16.3,8.21a3.14,3.14,0,0,0,2.55,1.65A11.88,11.88,0,0,0,172,23.2a5.47,5.47,0,0,0,2.4-2.2,7.32,7.32,0,0,0,6,2.86A7.71,7.71,0,0,0,185.49,22c0,.62.11,1,.25,1.14,1.32.09,2.73.39,3.69-.12.15-1.5.06-3.06.12-5.55.45-2,1.41-4.29,2.94-5.31.36,0,.45,1.11.39,1.59,0,2.31-.84,6.9.18,8.33a3.56,3.56,0,0,0,3,1.53,7.84,7.84,0,0,0,3.06-.45,5.52,5.52,0,0,0,2.29-2.1c.74,1.57,2.3,2.55,5.2,2.55a5.2,5.2,0,0,0,3.4-1.82,2.67,2.67,0,0,0,2.36,1.67c1.77,0,4-1.53,5.1-2.76a3.41,3.41,0,0,0,3.33,3,6.25,6.25,0,0,0,2.82-.57A7.39,7.39,0,0,0,225.84,21c.72,1.6,2.29,2.6,5.23,2.6a4.94,4.94,0,0,0,3-1.42,3.56,3.56,0,0,0,.83,1.09c1.35,1.08,3,.6,4.29-.12a7.26,7.26,0,0,0,2-1.74,4.48,4.48,0,0,0,3.85,2c4.08,0,6.18-3.18,6.6-6.87a4.57,4.57,0,0,0,2.46-.87l.43-.42c-.19,3.35-.51,7.52,0,7.89,1.32.09,2.73.39,3.69-.12.15-1.5.06-3.06.12-5.55.45-2,1.41-4.29,2.94-5.31.36,0,.45,1.11.39,1.59,0,2.31-.84,6.9.18,8.33a3.56,3.56,0,0,0,3,1.53,7.84,7.84,0,0,0,3.06-.45A6,6,0,0,0,271,18.91C271.09,18,270.79,17.65,270.16,17.65ZM130.69,10.27c.15,0,.33.15.42.48a6.46,6.46,0,0,1-.93,2.7,13.87,13.87,0,0,1-2.25,2.79C127.67,14.77,128.45,10,130.69,10.27Zm11.42,18.62c-.87,0-3.09-.3-3.21-1.2-.09-.6,2.22-1.26,4.83-2.1l.06,1C143.86,28.05,143.08,28.86,142.12,28.89Zm-1-10.58a1.49,1.49,0,0,1-1.59.3,8.15,8.15,0,0,1,2.43-7,1.66,1.66,0,0,1,2.1.15A8.81,8.81,0,0,1,141.1,18.31Zm38.59-8c.15,0,.33.15.42.48a6.44,6.44,0,0,1-.93,2.7,13.85,13.85,0,0,1-2.25,2.79C176.66,14.77,177.43,10,179.68,10.27ZM218,12.7c-.27,2.73-2.13,6.39-4.17,6.39-.33,0-.42-.3-.42-1.11,0-3.42,2.13-6.57,4-6.66.33,0,.63.78.63,1.26Zm27.76,6.84c-1.32,0-2.1-1.29-2.1-2.73s.36-3.72,1.71-4.83a7.16,7.16,0,0,0,3.06,3.81C248.28,17.68,247.44,19.54,245.79,19.54Z"/><path id="s" class="cls-1" d="M114.77,2.84c-1.44-.09-3.18,1.77-3.36,3.12-.18,1.71,3.06,3.45,4.62,4.29,2.52,1.35,6.09,3,6.36,6.36s-1.56,6.57-7.61,7.22c-.48,0-1,.06-1.41.06-4.95,0-7.55-2.79-7.88-5.37-.27-2.88,2.67-3.15,3.18-3.12s.78.57.6.87a2.62,2.62,0,0,0-.75,2.22c.3,1.14,2.46,1.95,5.16,2s4.14-1.11,3.93-2.85-2.58-3.18-5.13-4.41-6.18-2.55-6.33-6.36S111.36.2,114.32,0a10.9,10.9,0,0,1,6,1.44,8,8,0,0,1,2,1.95c.42.84.93,1.71-1.59,2.64a2,2,0,0,1-2.46-1.23A5.71,5.71,0,0,0,114.77,2.84Z"/><path id="instein" class="cls-1" d="M96.91,17.65a1.58,1.58,0,0,0-1,.69,13.2,13.2,0,0,1-1.38,1.47,2.41,2.41,0,0,1-1.32.66c-1.68,0-1-3.39-.9-5.16s.6-5.58.21-6.09a5.87,5.87,0,0,0-3-1.68C88.75,7.49,86.89,9,85.45,11c.09-1.14.27-2.88-.06-2.94a6.89,6.89,0,0,0-3.63.69c-.3.39-.45,3.21-.45,5-.06,1.27-.16,2.82-.24,4.29a4.15,4.15,0,0,0-.3.32c-.48.54-.93,1.26-1.38,1.47-1.17.54-1.68.33-1.86-.69,0-2.19,1.83-9.05,1.23-9.92-.18-.48-2.85-.6-3.24-.51-1.13,1-2.1,7.92-2,10.7a4.52,4.52,0,0,1-3.17,1.2,2.86,2.86,0,0,1-2.88-1.77,24.53,24.53,0,0,0,3.12-3.3c1.2-1.53,1.95-2.61,1.95-4.5A3.6,3.6,0,0,0,69,7.25c-5,.12-7.17,4.86-7,9.38a8.09,8.09,0,0,0,.36,2.09c-.53.64-1.18,1.44-1.92,1.42-1.65,0-2.46-1.83-2.43-2.88a73,73,0,0,1,1.77-9.11c.21-.48.3-.57.75-.72A17.48,17.48,0,0,1,62.28,7a1.36,1.36,0,0,0,1.08-1,3.79,3.79,0,0,0,.15-1.17C63.6,4.19,62.88,4,62.4,4a4.47,4.47,0,0,0-.9,0c-.33.06-.63,0-.6-.36a1.24,1.24,0,0,0-1.26-1.23,3.36,3.36,0,0,0-2.55,1.5,1.47,1.47,0,0,1-.9.51,30,30,0,0,0-3.42.66c-.57.21-1.56.45-1.77.75-.12,1.5.54,1.8,1.35,2a26.27,26.27,0,0,0,3,.06c.36.06.45.3.3,1-.24.87-.81,2.88-1.23,5a23.12,23.12,0,0,0-.59,4c-.55.48-1,1.5-2.34,2.19a6.38,6.38,0,0,0,.21-1.35c0-2.22-2.58-6.24-3.84-8.93-.27-.57-.12-1.53-.63-1.89a1.8,1.8,0,0,0-1.11-.45,2.76,2.76,0,0,0-2,.84c-.66,0-1.26-.06-1.32.69-.33,3.09-1.35,8.21-3.78,10.79a2.41,2.41,0,0,1-1.32.66c-1.68,0-1-3.39-.9-5.16s.6-5.58.21-6.09a5.87,5.87,0,0,0-3-1.68C33.17,7.49,31.31,9,29.87,11c.09-1.14.27-2.88-.06-2.94a6.89,6.89,0,0,0-3.63.69c-.3.39-.45,3.21-.45,5-.06,1.27-.16,2.82-.24,4.29a4.15,4.15,0,0,0-.3.32c-.48.54-.93,1.26-1.38,1.47-1.17.54-1.68.33-1.86-.69,0-2.19,1.83-9.05,1.23-9.92-.18-.48-2.85-.6-3.24-.51C18.75,9.77,17.73,17.5,18,19.87a5.61,5.61,0,0,0,1.56,3.39c1.35,1.08,3,.6,4.29-.12a6.93,6.93,0,0,0,1.55-1.26c0,.67.1,1.12.25,1.23,1.32.09,2.73.39,3.69-.12.15-1.5.06-3.06.12-5.55.45-2,1.41-4.29,2.94-5.31.36,0,.45,1.11.39,1.59,0,2.31-.84,6.9.18,8.33a3.56,3.56,0,0,0,3,1.53,7.85,7.85,0,0,0,3-.45,2,2,0,0,0,.53-.28,6.23,6.23,0,0,0,2-2.26,7.65,7.65,0,0,0,6.83,3.34,9,9,0,0,0,3.69-.81A7.17,7.17,0,0,0,54.35,21c.73,1.6,2.29,2.6,5.23,2.6a5.54,5.54,0,0,0,4-2.54,7.32,7.32,0,0,0,5.92,2.81,7.83,7.83,0,0,0,4.84-1.67,3.53,3.53,0,0,0,.82,1.07c1.35,1.08,3,.6,4.29-.12A6.93,6.93,0,0,0,81,21.88c0,.67.1,1.12.25,1.23,1.32.09,2.73.39,3.69-.12.15-1.5.06-3.06.12-5.55.45-2,1.41-4.29,2.94-5.31.36,0,.45,1.11.39,1.59,0,2.31-.84,6.9.18,8.33a3.56,3.56,0,0,0,3,1.53,7.84,7.84,0,0,0,3.06-.45,6,6,0,0,0,3.15-4.23C97.84,18,97.53,17.65,96.91,17.65Zm-50.19,1a1,1,0,0,1-1.59.45,3.55,3.55,0,0,1-1.41-1.65,28,28,0,0,0,1.2-4.17C46,14.62,47.11,17.47,46.72,18.7Zm22.07-8.42c.15,0,.33.15.42.48a6.46,6.46,0,0,1-.93,2.7A13.87,13.87,0,0,1,66,16.24C65.76,14.77,66.54,10,68.78,10.27Z"/><path id="E" class="cls-1" d="M1,10.75c.45-.84,1-.63,1.92-.84,0,0,.12-4.8.15-4.92.06-.63-2-.18-2.49-.3S0,2.18,0,2C.22.71,1.36.47,2.68.44,5.13.38,7.56.41,10,.41c0,0,1.59,0,3.42.09h.36c2.37,0,5-.57,4.44,2.7l-.06.33c0,.21-.18.33-.51.51a3.05,3.05,0,0,1-1,.12c-1.65,0-7.88.15-7.88.15-.66,0-.81.12-.9.72s-.15,3.9-.15,3.9c0,.51,0,.57.6.54l2.85-.09c.84,0,1.77-.06,2.7-.12a1.81,1.81,0,0,1,2.1,2.19c-.15.57-.3,1.11-.48,1.62a.55.55,0,0,1-.6.45c-1-.09-7.32-.51-7.55-.36a35.93,35.93,0,0,0-.21,6.21c.51.15,7.91-.93,8.81-.45.57.33.69,3.84-.9,4.14-.21,0-4.62.27-6.3.45a38.45,38.45,0,0,1-4.92,0c-1.32-.3-1.56-1.26-1.44-2.58.12-1,.42-6.66.42-7.41-.21-.06-1.11.06-1.35,0C.64,13.27.61,11.38,1,10.75Z"/></svg>