<?xml version="1.0" encoding="UTF-8"?>
<svg width="269px" height="162px" viewBox="0 0 269 162" version="1.1" xmlns="http://www.w3.org/2000/svg" xmlns:xlink="http://www.w3.org/1999/xlink">
    <!-- Generator: Sketch 50.2 (55047) - http://www.bohemiancoding.com/sketch -->
    <title>card.0</title>
    <desc>Created with Sketch.</desc>
    <defs>
        <path d="M238,0 L267,0 C268.104569,-2.02906125e-16 269,0.8954305 269,2 L269,26 L238,26 L238,0 Z" id="path-1"></path>
        <filter x="-4.8%" y="-5.8%" width="109.7%" height="111.5%" filterUnits="objectBoundingBox" id="filter-2">
            <feGaussianBlur stdDeviation="1" in="SourceAlpha" result="shadowBlurInner1"></feGaussianBlur>
            <feOffset dx="1" dy="0" in="shadowBlurInner1" result="shadowOffsetInner1"></feOffset>
            <feComposite in="shadowOffsetInner1" in2="SourceAlpha" operator="arithmetic" k2="-1" k3="1" result="shadowInnerInner1"></feComposite>
            <feColorMatrix values="0 0 0 0 0.878431373   0 0 0 0 0.898039216   0 0 0 0 0.933333333  0 0 0 1 0" type="matrix" in="shadowInnerInner1"></feColorMatrix>
        </filter>
    </defs>
    <g id="Page-1" stroke="none" stroke-width="1" fill="none" fill-rule="evenodd">
        <g id="Audience-Discovery" transform="translate(-78.000000, -307.000000)">
            <g id="0" transform="translate(78.000000, 307.000000)">
                <g>
                    <g id="Data-Provider-Card">
                        <g id="Group-7">
                            <rect id="Rectangle-12" stroke="#E0E5EE" fill="#FFFFFF" x="0.5" y="0.5" width="268" height="161" rx="2"></rect>
                            <g id="Rectangle-13">
                                <use fill="#F7F9FB" fill-rule="evenodd" xlink:href="#path-1"></use>
                                <use fill="black" fill-opacity="1" filter="url(#filter-2)" xlink:href="#path-1"></use>
                                <path stroke="#E0E5EE" stroke-width="1" d="M238.5,0.5 L238.5,25.5 L268.5,25.5 L268.5,2 C268.5,1.17157288 267.828427,0.5 267,0.5 L238.5,0.5 Z" stroke-linejoin="square"></path>
                            </g>
                            <text id="1st" font-family="SalesforceSans-Regular, Salesforce Sans" font-size="12" font-weight="normal" fill="#54698D">
                                <tspan x="245" y="16">1st</tspan>
                            </text>
                            <g id="Group-5" transform="translate(27.000000, 109.000000)" font-family="SalesforceSans-Regular, Salesforce Sans" font-weight="normal">
                                <text id="POPULATION" font-size="12" fill="#54698D">
                                    <tspan x="0.444" y="37">POPULATION</tspan>
                                </text>
                                <text id="OVERLAP" font-size="12" fill="#54698D">
                                    <tspan x="154.028" y="37">OVERLAP</tspan>
                                </text>
                                <text id="410.3M" font-size="20" fill="#16325C">
                                    <tspan x="9.3" y="20">15.8M</tspan>
                                </text>
                                <text id="100%" font-size="20" fill="#16325C">
                                    <tspan x="150" y="20">100%</tspan>
                                </text>
                            </g>
                        </g>
                    </g>
                    <g id="Group" transform="translate(102.000000, 27.000000)">
                        <path d="M6.05880616,6.14925458 C3.29468819,7.4927275 0,10.4535634 0,16.9292271 C0,17.9270903 0.0792740993,18.9989321 0.236123567,20.1142575 L0.304639039,20.6157303 C0.705539484,23.5887077 1.92805934,32.6507968 6.48886815,42.1691811 C11.0740254,51.7386726 15.329629,57.8404906 22.1899529,64.6818116 C22.2400654,64.7323542 27.3716478,69.7948018 29.9072865,71.0600608 C31.7184165,71.9636155 33.535209,72.0054049 33.9941494,71.9994754 C33.9748971,71.9994754 33.9556448,71.999193 33.9361094,71.9989106 C33.9508318,71.999193 33.9765959,71.999193 33.9966975,71.9994754 C34.0139679,71.999193 34.0360514,71.999193 34.0493582,71.9989106 C34.032654,71.9994754 34.0156667,71.9994754 33.9986794,71.9994754 C34.4669628,72.0059697 36.2775266,71.9661568 38.0926203,71.0600608 C40.628259,69.7948018 45.7598414,64.7323542 45.8105202,64.6818116 C52.6708441,57.8402082 56.9264476,51.7386726 61.5110387,42.1694634 C66.0712812,32.6522086 67.2943673,23.5878606 67.6964003,20.6095184 L67.7660482,20.1007041 C68.9752614,11.4991456 65.2660829,7.76520572 61.9411006,6.14925458 C53.5459735,2.06857558 44.1451978,0 33.9998118,0 C23.8544259,0 14.4539333,2.06857558 6.05880616,6.14925458" id="Fill-2" fill="#FFFFFE"></path>
                        <path d="M40.9776746,17.7943253 L42.5283459,17.7943253 L42.5379319,14.3493694 L42.5153766,14.3493694 L40.9776746,17.7943253 Z M57.6879907,21.4878601 L54.0599837,21.4878601 L56.0067811,12.351177 L59.6339423,12.351177 L57.6879907,21.4878601 Z M51.1165276,21.4878601 L47.4879567,21.4878601 L48.9128827,14.8071597 L46.6553871,14.8071597 L47.1741572,12.351177 L55.3188469,12.351177 L54.7989491,14.8071597 L52.5411716,14.8071597 L51.1165276,21.4878601 Z M42.6309721,21.4878601 L42.5869895,20.0197257 L39.9593064,20.0197257 L39.2809582,21.4878601 L35.8035072,21.4878601 L40.6807915,12.351177 L45.3875019,12.351177 L46.3861342,21.4878601 L42.6309721,21.4878601 Z M31.6423512,21.7288467 C28.4338713,21.7288467 27.3672913,19.7770519 27.9805113,16.8826816 C28.500973,14.0338654 30.6093222,12.1093467 33.7044621,12.1093467 C36.0138347,12.1093467 37.7700404,13.0477042 37.2098252,15.7300513 L33.88434,15.7300513 C34.0554777,14.6943993 33.7208147,14.4899684 33.2750671,14.4899684 C32.3336687,14.4899684 32.0418605,15.4519465 31.7272152,16.9206433 C31.4354071,18.3106047 31.2885162,19.348225 32.200029,19.348225 C32.6708692,19.348225 33.0475414,19.0723699 33.3015695,18.1098293 L36.7040244,18.1098293 C36.1691837,20.6257072 33.9136618,21.7288467 31.6423512,21.7288467 Z M21.6969092,21.7288467 C18.9322032,21.7288467 17.5805816,20.6257072 18.0502941,18.4239274 L19.3438359,12.351177 L22.9752262,12.351177 L21.711852,18.2748925 C21.5579126,18.9953216 21.8412626,19.2723016 22.2201903,19.2723016 C22.6030651,19.2723016 23.0022925,18.9953216 23.1579235,18.2748925 L24.4212977,12.351177 L28.0478951,12.351177 L26.7535074,18.4239274 C26.2843589,20.6257072 24.4613332,21.7288467 21.6969092,21.7288467 Z M17.4489156,17.021031 C16.8610701,19.7770519 14.6968969,21.4878601 11.8786222,21.4878601 L7.36616862,21.4878601 L9.31042853,12.351177 L13.611145,12.351177 C17.2774959,12.351177 18.0266111,14.3136573 17.4489156,17.021031 Z M60.2914269,7.88659744 C51.4633141,3.59551705 42.0930302,2 33.4997735,2 C24.9065169,2 15.5365149,3.59551705 6.70868398,7.88659744 C3.57745565,9.40844063 2,12.3022485 2,16.5075635 C2,17.3978362 2.07104894,18.346598 2.212301,19.3532866 L2.2816583,19.8608488 C2.56303466,21.9464939 3.26337422,27.1289717 5.30067441,33.309421 C7.6399326,30.3107263 16.9594673,27.7526687 33.4997735,26.8823611 C49.0927605,26.0621068 60.2327834,26.1180652 63.636084,26.1622132 C64.2532512,23.3001807 64.5557731,21.06297 64.7181707,19.8588805 L64.7878099,19.3493498 C65.5981062,13.5884478 64.0852148,9.73013106 60.2914269,7.88659744 Z M12.7743463,14.4244493 L12.4205113,14.4244493 L11.3581605,19.4123382 L11.7139691,19.4123382 C12.2964576,19.4123382 12.6846893,19.1977841 12.9920042,18.8333516 C13.31398,18.4520472 13.5274087,17.8072604 13.7126435,16.9206433 C13.9032351,16.032339 13.9683633,15.3855838 13.8065296,15.0099034 C13.6548457,14.6429401 13.3605001,14.4244493 12.7743463,14.4244493 Z M45.7461299,30.7640173 C27.7552411,33.5723411 19.0528736,38.3155877 14.8110826,42.7843852 C11.5605936,46.2085324 12.690892,48.8402638 13.5606777,50.3494531 C16.3465292,54.7001474 19.4205237,58.424614 23.4068767,62.4001903 C24.6826563,63.6731734 28.7299085,67.4384136 30.4801935,68.3120956 C31.9240095,69.0328059 33.4326717,69.0007493 33.4958264,68.9993433 C33.5665934,69.0010305 35.0738459,69.0339307 36.5196355,68.3120956 C38.2699205,67.4384136 42.3171726,63.6731734 43.5929522,62.4001903 C50.2165743,55.7942886 54.3295186,49.8939124 58.7686677,40.6295655 C60.7211039,36.5538827 62.0357912,32.5594661 62.9295418,29.1266018 L62.9433569,29.0762674 C59.0111363,29.1572524 53.3965783,29.5703321 45.7461299,30.7640173 Z" id="Fill-3" fill="#D82332"></path>
                    </g>
                </g>
            </g>
        </g>
    </g>
</svg>