<svg xmlns="http://www.w3.org/2000/svg" xmlns:xlink="http://www.w3.org/1999/xlink" width="1965" height="81" viewBox="0 0 1965 81">
  <defs>
    <path id="clouds-bg-a" d="M4.5,0.000218283964 L6063.5,0.000218283964 L6063.5,0.000218283964 C6065.70914,0.000218283964 6067.5,1.79107928 6067.5,4.00021828 L6067.5,81 L0.5,81 L0.5,4.00021828 L0.5,4.00021828 C0.5,1.79107928 2.290861,0.000218283964 4.5,0.000218283964 Z"/>
    <filter id="clouds-bg-b" width="100.2%" height="116%" x="-.1%" y="-8%" filterUnits="objectBoundingBox">
      <feGaussianBlur in="SourceAlpha" result="shadowBlurInner1" stdDeviation="5"/>
      <feOffset dy="-3" in="shadowBlurInner1" result="shadowOffsetInner1"/>
      <feComposite in="shadowOffsetInner1" in2="SourceAlpha" k2="-1" k3="1" operator="arithmetic" result="shadowInnerInner1"/>
      <feColorMatrix in="shadowInnerInner1" values="0 0 0 0 0   0 0 0 0 0   0 0 0 0 0  0 0 0 0.1 0"/>
    </filter>
    <linearGradient id="clouds-bg-c" x1="38.999%" x2="38.999%" y1="-32.398%" y2="162.408%">
      <stop offset="0%" stop-color="#1689EE"/>
      <stop offset="100%" stop-color="#FFF" stop-opacity=".5"/>
    </linearGradient>
  </defs>
  <g fill="none" fill-rule="evenodd" transform="translate(-1811)">
    <mask id="clouds-bg-d" fill="#fff">
      <use xlink:href="#clouds-bg-a"/>
    </mask>
    <use fill="#000" filter="url(#clouds-bg-b)" xlink:href="#clouds-bg-a"/>
    <rect width="6086" height="142" x="-31" y="-20" fill="url(#clouds-bg-c)" mask="url(#clouds-bg-d)"/>
    <g mask="url(#clouds-bg-d)" opacity=".2">
      <g transform="translate(1811 -24)">
        <path fill="#CDEBFA" d="M801.269384,158.388617 C798.488396,158.492351 795.841973,158.990563 793.381868,159.791209 C784.754252,143.199714 764.776686,131.948296 742.104392,132.784007 C737.770744,132.94326 733.585462,133.546667 729.591674,134.521176 C722.230338,131.198786 713.759712,129.441163 704.821563,129.771356 C699.062918,129.981745 693.585476,131.045377 688.544505,132.80154 C687.768175,122.514403 679.457991,114.113461 668.380621,111.28344 C667.059134,101.073738 658.060604,92.9723082 646.532962,90.9692314 C646.589893,90.0020273 646.607145,89.0304401 646.557115,88.0457036 C645.666923,70.7134644 628.353033,57.2763403 607.888967,58.0302336 C597.099702,58.4276346 587.619847,62.7113845 581.16768,69.1939897 C577.336058,63.3089472 569.816006,59.4328256 561.352281,59.7440257 C555.990427,59.9441873 551.182355,61.7909335 547.552579,64.6764745 C543.73476,62.948072 539.352807,62.0159327 534.712077,62.1868736 C524.191939,62.5755084 515.49014,68.421103 512.2054,76.3501313 C509.974745,75.8489968 507.616426,75.6196146 505.187375,75.7087376 C494.465391,76.1032166 485.773943,82.5858218 483.508783,91.0481272 C479.213089,77.4517505 464.250618,67.7110408 446.962605,68.3465903 C426.971239,69.0844122 411.472236,83.4054615 412.341726,100.334455 C412.638457,106.108459 414.836334,111.419316 418.348797,115.909071 C410.445755,103.84678 394.986432,95.8563881 377.60871,96.4977818 C362.584132,97.0500524 349.659096,103.927137 342.232203,113.958592 C338.788747,112.648045 334.953676,111.961359 330.923659,112.108924 C329.229534,112.170287 327.585439,112.380676 326,112.710869 L881.895594,196 C885.207937,191.127454 808.658323,158.115404 801.269384,158.388617 Z" transform="scale(-1 1) rotate(-10 0 7030.752)"/>
        <path fill="#CDEBFA" d="M1334.26938,148.388617 C1331.4884,148.492351 1328.84197,148.990563 1326.38187,149.791209 C1317.75425,133.199714 1297.77669,121.948296 1275.10439,122.784007 C1270.77074,122.94326 1266.58546,123.546667 1262.59167,124.521176 C1255.23034,121.198786 1246.75971,119.441163 1237.82156,119.771356 C1232.06292,119.981745 1226.58548,121.045377 1221.54451,122.80154 C1220.76818,112.514403 1212.45799,104.113461 1201.38062,101.28344 C1200.05913,91.0737384 1191.0606,82.9723082 1179.53296,80.9692314 C1179.58989,80.0020273 1179.60714,79.0304401 1179.55711,78.0457036 C1178.66692,60.7134644 1161.35303,47.2763403 1140.88897,48.0302336 C1130.0997,48.4276346 1120.61985,52.7113845 1114.16768,59.1939897 C1110.33606,53.3089472 1102.81601,49.4328256 1094.35228,49.7440257 C1088.99043,49.9441873 1084.18235,51.7909335 1080.55258,54.6764745 C1076.73476,52.948072 1072.35281,52.0159327 1067.71208,52.1868736 C1057.19194,52.5755084 1048.49014,58.421103 1045.2054,66.3501313 C1042.97474,65.8489968 1040.61643,65.6196146 1038.18737,65.7087376 C1027.46539,66.1032166 1018.77394,72.5858218 1016.50878,81.0481272 C1012.21309,67.4517505 997.250618,57.7110408 979.962605,58.3465903 C959.971239,59.0844122 944.472236,73.4054615 945.341726,90.3344555 C945.638457,96.1084594 947.836334,101.419316 951.348797,105.909071 C943.445755,93.8467797 927.986432,85.8563881 910.60871,86.4977818 C895.584132,87.0500524 882.659096,93.9271366 875.232203,103.958592 C871.788747,102.648045 867.953676,101.961359 863.923659,102.108924 C862.229534,102.170287 860.585439,102.380676 859,102.710869 L1414.89559,186 C1418.20794,181.127454 1341.65832,148.115404 1334.26938,148.388617 Z" transform="rotate(-10 1137 117)"/>
        <path fill="#FFF" d="M1375.00737,154.159826 C1376.51206,145.843789 1384.93286,139.429648 1395.11928,139.441926 C1400.15959,139.449293 1404.7621,141.0295 1408.28321,143.634938 C1409.87199,141.148599 1412.97561,139.465255 1416.54455,139.468938 C1417.66365,139.470166 1418.73347,139.646973 1419.7279,139.955156 C1422.42563,135.627084 1427.78629,132.677856 1433.96309,132.686451 C1435.59245,132.687679 1437.15948,132.898864 1438.63954,133.281945 C1438.21335,131.631752 1437.98576,129.916485 1437.98721,128.153333 C1438.01186,115.000907 1450.62203,104.353236 1466.15028,104.372882 C1470.24833,104.379021 1474.13329,105.131675 1477.64135,106.470001 C1479.36349,102.608502 1483.76016,99.8594089 1488.92223,99.865548 C1492.74196,99.8704592 1496.1355,101.384363 1498.34036,103.735642 C1505.02887,98.5333614 1513.94834,95.3594421 1523.74481,95.3717204 C1534.06895,95.3864542 1543.41315,98.9348591 1550.18429,104.662648 C1549.54066,103.189261 1549.17536,101.602916 1549.17826,99.9429007 C1549.19275,92.4249482 1556.39588,86.3423192 1565.27185,86.3533696 C1566.24599,86.3545974 1567.19404,86.4417728 1568.11889,86.5829723 C1571.66754,84.9966266 1575.71341,84.0978611 1580.00571,84.1027724 C1581.3582,76.2852313 1588.56132,69.9140642 1597.64749,69.4303025 C1606.7467,52.6570296 1629.04609,43.3783806 1650.80331,48.3301857 C1669.83237,52.660713 1682.78466,66.5903508 1684.36183,82.3089248 C1685.69983,82.2941909 1687.06246,82.4194287 1688.4193,82.727612 C1692.40573,75.0218027 1702.49503,70.6654912 1712.33355,72.9038102 C1717.20135,74.0137611 1721.16603,76.5455295 1723.77534,79.8324083 C1726.06717,77.7782625 1729.57813,76.8303841 1733.02386,77.6137344 C1734.10672,77.8605266 1735.08521,78.26448 1735.95353,78.7789373 C1739.87763,75.1887865 1745.9544,73.5103541 1751.921,74.8670972 C1753.49383,75.2256211 1754.9449,75.770774 1756.25679,76.4657211 C1756.34812,74.778694 1756.64964,73.070794 1757.1889,71.3678052 C1761.22027,58.6659892 1776.64559,51.1357584 1791.64328,54.5491029 C1795.59927,55.4503241 1799.12472,57.0268472 1802.10658,59.0859042 C1804.94782,55.7314952 1810.0316,54.0371012 1815.01682,55.1716085 C1818.70608,56.0114386 1821.52413,58.2166065 1822.9375,60.9693828 C1830.98575,57.4050163 1840.56913,56.2889263 1850.0293,58.4412978 C1859.99973,60.7127681 1867.94651,66.182714 1872.74182,73.1960318 C1872.57077,71.6330147 1872.70123,70.0208847 1873.21005,68.4161217 C1875.51203,61.1560117 1884.32567,56.8537243 1892.89868,58.8047331 C1893.83803,59.0183741 1894.72809,59.3093678 1895.57756,59.6494744 C1899.49007,58.8919084 1903.6722,58.9078701 1907.81809,59.852065 C1911.60592,52.2813161 1921.15597,47.6205048 1930.43928,49.733586 C1935.971,50.9933311 1940.14299,54.3796635 1942.09851,58.5714469 C1944.56285,58.1883666 1947.15766,58.2350238 1949.73942,58.8231504 C1959.02418,60.9362316 1964.52836,69.0238935 1962.03358,76.8893196 C1960.58977,81.4408548 1956.77584,84.9082234 1952.02401,86.6198069 C1952.33567,88.4087432 1952.2371,90.2823992 1951.64711,92.1413213 C1949.8206,97.9010332 1943.89023,101.787089 1937.23941,102.177536 C1944.25409,105.323216 1948.04337,112.246902 1945.89505,119.015884 C1944.92526,122.070704 1942.8842,124.633168 1940.21547,126.512963 C1940.95477,127.282808 1941.5955,128.114043 1942.1333,128.994391 C1943.20602,129.0742 1944.28018,129.22031 1945.35289,129.464647 C1955.35232,131.739801 1961.27978,140.449968 1958.59365,148.919482 C1957.54703,152.214956 1955.34072,154.980011 1952.45744,157.003461 C1952.9706,157.541247 1953.44608,158.104817 1953.88096,158.688032 C1955.50743,157.478628 1957.79346,156.955576 1960.04036,157.46635 C1963.61076,158.280395 1965.72864,161.391696 1964.769,164.417049 C1963.86734,167.260684 1960.56512,169.014013 1957.20637,168.537618 C1957.19332,169.706505 1957.04401,170.891353 1956.75264,172.074973 C1957.93408,173.82953 1958.33272,175.963484 1957.66445,178.069199 C1956.39749,182.064531 1951.74423,184.521402 1947.02285,183.82891 C1942.17534,186.360679 1936.15221,187.263128 1930.21749,185.912524 C1740.87206,195.974932 1644.15104,201.00409 1640.05444,200.999998 C1462.41994,169.772398 1374.07092,154.159007 1375.00737,154.159826 Z" transform="matrix(-1 0 0 1 3340 0)"/>
        <path fill="#FFF" d="M861.007373,171.159827 C862.513413,162.843791 870.941722,156.42965 881.137235,156.441928 C886.182033,156.449295 890.788658,158.029501 894.312907,160.634939 C895.903099,158.1486 899.009488,156.465256 902.581617,156.46894 C903.701716,156.470168 904.772484,156.646974 905.767805,156.955157 C908.46794,152.627086 913.833388,149.677858 920.015696,149.686452 C921.646514,149.68768 923.214943,149.898866 924.696317,150.281946 C924.269751,148.631754 924.041959,146.916487 924.04341,145.153335 C924.068075,132.000908 936.689501,121.353237 952.2316,121.372883 C956.33331,121.379022 960.221737,122.131676 963.732928,123.470002 C965.456603,119.608503 969.857199,116.85941 975.023874,116.865549 C978.847009,116.87046 982.243579,118.384364 984.450406,120.735643 C991.144884,115.533362 1000.0723,112.359443 1009.87752,112.371721 C1020.21087,112.386455 1029.56341,115.93486 1036.34059,121.662648 C1035.69639,120.189262 1035.33076,118.602917 1035.33366,116.942902 C1035.34817,109.424949 1042.55772,103.34232 1051.44161,103.35337 C1052.41662,103.354598 1053.36551,103.441773 1054.29119,103.582973 C1057.84301,101.996627 1061.89248,101.097862 1066.18861,101.102773 C1067.54231,93.2852318 1074.75186,86.9140646 1083.84613,86.4303028 C1092.95347,69.6570297 1115.27274,60.3783806 1137.04938,65.3301858 C1156.09542,69.6607131 1169.05926,83.5903511 1170.63784,99.3089254 C1171.97703,99.2941915 1173.34088,99.4194293 1174.69893,99.7276126 C1178.68892,92.0218032 1188.78722,87.6654915 1198.63452,89.9038106 C1203.50666,91.0137615 1207.47488,93.54553 1210.08651,96.8324089 C1213.3341,95.4797194 1225.67884,95.5156908 1233.90466,101.033095 C1242.13047,106.550499 1252.23296,119.024161 1250.63045,132.501423 C1258.68588,128.937057 1132.44131,218.006139 1126.29092,218 C948.497937,186.7724 860.070088,171.159009 861.007373,171.159827 Z"/>
        <path fill="#FFF" d="M1552.06183,186.890242 C1547.58597,183.006387 1541.27857,180.676895 1534.38533,180.932537 C1531.7909,181.029599 1529.32202,181.495771 1527.02695,182.244927 C1518.97813,166.720446 1500.34079,156.192616 1479.18949,156.974582 C1475.14657,157.123593 1471.24207,157.688194 1467.51621,158.600032 C1460.64872,155.491308 1452.74635,153.846719 1444.40783,154.155677 C1439.03551,154.352536 1433.92553,155.347765 1429.22274,156.990987 C1428.49849,147.365426 1420.74581,139.504755 1410.41158,136.856735 C1409.17874,127.303628 1400.78389,119.723208 1390.0296,117.848951 C1390.08271,116.943949 1390.0988,116.034845 1390.05213,115.113438 C1389.22166,98.8958504 1373.06929,86.3228795 1353.97808,87.0282892 C1343.91263,87.4001331 1335.06874,91.4083913 1329.04943,97.4740944 C1325.47486,91.9675242 1318.4593,88.3406793 1310.56337,88.6318659 C1305.56122,88.8191549 1301.07571,90.5471352 1297.68944,93.2471045 C1294.12774,91.6298571 1290.03976,90.7576645 1285.71036,90.917612 C1275.89598,91.2812535 1267.77795,96.7509128 1264.71357,104.170018 C1262.63256,103.701112 1260.43245,103.486482 1258.16636,103.569873 C1248.16367,103.938983 1240.0553,110.004686 1237.9421,117.922773 C1233.93459,105.200791 1219.9759,96.0865153 1203.84767,96.681192 C1185.19745,97.3715639 1170.73822,110.771614 1171.54938,126.611889 C1171.8262,132.014562 1173.87663,136.983873 1177.15346,141.184888 C1169.7806,129.898333 1155.35839,122.421811 1139.14647,123.021956 C1125.12984,123.538709 1113.0719,129.973522 1106.14324,139.359846 C1102.9308,138.133581 1099.35301,137.491057 1095.59335,137.629131 C1094.01288,137.686548 1092.47908,137.883407 1091,138.192365 L1571.50714,211 C1574.59727,206.440811 1562.55952,192.943784 1552.06183,186.890242 Z" transform="rotate(-9 1331.5 149)"/>
        <path fill="#FFF" d="M481.061833,157.890242 C476.585974,154.006387 470.278568,151.676895 463.385326,151.932537 C460.790905,152.029599 458.32202,152.495771 456.026955,153.244927 C447.978132,137.720446 429.340788,127.192616 408.189494,127.974582 C404.146574,128.123593 400.242067,128.688194 396.516207,129.600032 C389.648716,126.491308 381.746353,124.846719 373.407831,125.155677 C368.035512,125.352536 362.925532,126.347765 358.222741,127.990987 C357.498492,118.365426 349.745807,110.504755 339.411576,107.856735 C338.178743,98.3036284 329.783891,90.7232084 319.029596,88.8489512 C319.082708,87.9439488 319.098802,87.0348453 319.052128,86.113438 C318.221656,69.8958504 302.06929,57.3228795 282.978083,58.0282892 C272.912629,58.4001331 264.068743,62.4083913 258.049428,68.4740944 C254.474856,62.9675242 247.459296,59.3406793 239.56337,59.6318659 C234.561223,59.8191549 230.075707,61.5471352 226.68944,64.2471045 C223.127743,62.6298571 219.039759,61.7576645 214.710359,61.917612 C204.895978,62.2812535 196.77795,67.7509128 193.713571,75.1700182 C191.632562,74.7011122 189.432454,74.4864817 187.166359,74.5698732 C177.163674,74.9389829 169.055302,81.004686 166.942104,88.9227731 C162.934592,76.2007913 148.975897,67.0865153 132.847673,67.681192 C114.197453,68.3715639 99.7382213,81.771614 100.54938,97.6118895 C100.826204,103.014562 102.876634,107.983873 106.153459,112.184888 C98.780603,100.898333 84.3583884,93.4218106 68.1464736,94.0219556 C54.1298385,94.5387093 42.071895,100.973522 35.1432449,110.359846 C31.9307976,109.133581 28.3530068,108.491057 24.593349,108.629131 C23.0128764,108.686548 21.4790777,108.883407 20,109.192365 L500.50714,182 C503.597269,177.440811 491.559524,163.943784 481.061833,157.890242 Z" transform="rotate(-9 260.5 120)"/>
        <path fill="#FFF" d="M468.061833,157.890242 C463.585974,154.006387 457.278568,151.676895 450.385326,151.932537 C447.790905,152.029599 445.32202,152.495771 443.026955,153.244927 C434.978132,137.720446 416.340788,127.192616 395.189494,127.974582 C391.146574,128.123593 387.242067,128.688194 383.516207,129.600032 C376.648716,126.491308 368.746353,124.846719 360.407831,125.155677 C355.035512,125.352536 349.925532,126.347765 345.222741,127.990987 C344.498492,118.365426 336.745807,110.504755 326.411576,107.856735 C325.178743,98.3036284 316.783891,90.7232084 306.029596,88.8489512 C306.082708,87.9439488 306.098802,87.0348453 306.052128,86.113438 C305.221656,69.8958504 289.06929,57.3228795 269.978083,58.0282892 C259.912629,58.4001331 251.068743,62.4083913 245.049428,68.4740944 C241.474856,62.9675242 234.459296,59.3406793 226.56337,59.6318659 C221.561223,59.8191549 217.075707,61.5471352 213.68944,64.2471045 C210.127743,62.6298571 206.039759,61.7576645 201.710359,61.917612 C191.895978,62.2812535 183.77795,67.7509128 180.713571,75.1700182 C178.632562,74.7011122 176.432454,74.4864817 174.166359,74.5698732 C164.163674,74.9389829 156.055302,81.004686 153.942104,88.9227731 C149.934592,76.2007913 135.975897,67.0865153 119.847673,67.681192 C101.197453,68.3715639 86.7382213,81.771614 87.5493803,97.6118895 C87.8262045,103.014562 89.8766343,107.983873 93.1534593,112.184888 C85.780603,100.898333 71.3583884,93.4218106 55.1464736,94.0219556 C41.1298385,94.5387093 29.071895,100.973522 22.1432449,110.359846 C18.9307976,109.133581 15.3530068,108.491057 11.593349,108.629131 C10.0128764,108.686548 8.4790777,108.883407 7,109.192365 L487.50714,182 C490.597269,177.440811 478.559524,163.943784 468.061833,157.890242 Z" transform="rotate(-9 247.5 120)"/>
      </g>
    </g>
  </g>
</svg>
