<?xml version="1.0" encoding="UTF-8"?>
<svg width="32px" height="32px" viewBox="0 0 32 32" version="1.1" xmlns="http://www.w3.org/2000/svg" xmlns:xlink="http://www.w3.org/1999/xlink">
    <!-- Generator: Sketch 50.2 (55047) - http://www.bohemiancoding.com/sketch -->
    <title>Group 18</title>
    <desc>Created with Sketch.</desc>
    <defs></defs>
    <g id="Page-1" stroke="none" stroke-width="1" fill="none" fill-rule="evenodd">
        <g id="Consumer-Rights" transform="translate(-111.000000, -520.000000)">
            <g id="Group-18" transform="translate(111.000000, 520.000000)">
                <g id="Group-5-Copy" fill="#7E8BE4">
                    <g id="standard-icon">
                        <rect id="bkgd" x="0" y="0" width="32" height="32" rx="4"></rect>
                    </g>
                </g>
                <path d="M11.0857143,16.0285714 C10.8571429,16.1428571 10.7428571,16.1428571 10.5142857,16.1428571 C10.4,16.1428571 10.1714286,16.1428571 9.94285714,16.0285714 C9.82857143,16.0285714 9.71428571,16.1428571 9.71428571,16.3714286 L9.71428571,23.8 C9.71428571,24.1428571 9.94285714,24.3714286 10.2857143,24.3714286 L10.7428571,24.3714286 C11.0857143,24.3714286 11.3142857,24.1428571 11.3142857,23.8 L11.3142857,16.3714286 C11.3142857,16.1428571 11.2,16.0285714 11.0857143,16.0285714 L11.0857143,16.0285714 Z M16.5714286,21.8571429 L15.4285714,21.8571429 C15.3142857,21.7428571 15.2,21.9714286 15.2,22.0857143 L15.2,23.8 C15.2,24.1428571 15.4285714,24.3714286 15.7714286,24.3714286 L16.2285714,24.3714286 C16.5714286,24.3714286 16.8,24.1428571 16.8,23.8 L16.8,22.0857143 C16.8,21.8571429 16.6857143,21.7428571 16.5714286,21.8571429 L16.5714286,21.8571429 Z M22.0571429,17.7428571 L20.9142857,17.7428571 C20.8,17.6285714 20.6857143,17.8571429 20.6857143,17.9714286 L20.6857143,23.8 C20.6857143,24.1428571 20.9142857,24.3714286 21.2571429,24.3714286 L21.7142857,24.3714286 C22.0571429,24.3714286 22.2857143,24.1428571 22.2857143,23.8 L22.2857143,17.9714286 C22.2857143,17.7428571 22.1714286,17.6285714 22.0571429,17.7428571 Z M11.3142857,10.8857143 L11.3142857,8.48571429 C11.3142857,8.14285714 11.0857143,7.91428571 10.7428571,7.91428571 L10.2857143,7.91428571 C9.94285714,7.91428571 9.71428571,8.14285714 9.71428571,8.48571429 L9.71428571,10.8857143 C9.02857143,11.1142857 8.57142857,11.8 8.57142857,12.6 C8.57142857,13.6285714 9.48571429,14.5428571 10.5142857,14.5428571 C11.5428571,14.5428571 12.4571429,13.6285714 12.4571429,12.6 C12.4571429,11.8 12,11.1142857 11.3142857,10.8857143 Z M16.8,16.6 L16.8,8.48571429 C16.8,8.14285714 16.5714286,7.91428571 16.2285714,7.91428571 L15.7714286,7.91428571 C15.4285714,7.91428571 15.2,8.14285714 15.2,8.48571429 L15.2,16.6 C14.5142857,16.9428571 14.0571429,17.5142857 14.0571429,18.3142857 C14.0571429,19.4571429 14.9714286,20.2571429 16,20.2571429 C17.0285714,20.2571429 17.9428571,19.4571429 17.9428571,18.3142857 C17.9428571,17.5142857 17.4857143,16.9428571 16.8,16.6 L16.8,16.6 Z M22.2857143,12.4857143 L22.2857143,8.48571429 C22.2857143,8.14285714 22.0571429,7.91428571 21.7142857,7.91428571 L21.2571429,7.91428571 C20.9142857,7.91428571 20.6857143,8.14285714 20.6857143,8.48571429 L20.6857143,12.4857143 C20,12.8285714 19.5428571,13.4 19.5428571,14.2 C19.5428571,15.3428571 20.4571429,16.1428571 21.4857143,16.1428571 C22.5142857,16.1428571 23.4285714,15.3428571 23.4285714,14.2 C23.4285714,13.4 22.9714286,12.8285714 22.2857143,12.4857143 Z" id="Shape" fill="#FFFFFF"></path>
            </g>
        </g>
    </g>
</svg>