<?xml version="1.0" encoding="UTF-8"?>
<svg width="29px" height="30px" viewBox="0 0 29 30" version="1.1" xmlns="http://www.w3.org/2000/svg" xmlns:xlink="http://www.w3.org/1999/xlink">
    <!-- Generator: Sketch 46.2 (44496) - http://www.bohemiancoding.com/sketch -->
    <title>Page 1</title>
    <desc>Created with Sketch.</desc>
    <defs>
        <polygon id="path-1" points="0 0.108243243 0 29.1891892 28.8926194 29.1891892 28.8926194 0.108243243 1.09173135e-20 0.108243243"></polygon>
    </defs>
    <g id="Einstein-Segmentation" stroke="none" stroke-width="1" fill="none" fill-rule="evenodd">
        <g id="Audience---Persona-Name-change-0" transform="translate(-615.000000, -484.000000)">
            <g id="Top-Personas---New" transform="translate(20.000000, 336.000000)">
                <g id="Group-2" transform="translate(594.000000, 148.000000)">
                    <g id="Page-1" transform="translate(1.000000, 0.000000)">
                        <g id="Group-3" transform="translate(0.000000, 0.702730)">
                            <mask id="mask-2" fill="white">
                                <use xlink:href="#path-1"></use>
                            </mask>
                            <g id="Clip-2"></g>
                            <path d="M28.8926194,14.6485135 C28.8926194,22.6795946 22.4248139,29.1895946 14.4465917,29.1895946 C6.46836944,29.1895946 -0.000241666667,22.6795946 -0.000241666667,14.6485135 C-0.000241666667,6.61824324 6.46836944,0.108243243 14.4465917,0.108243243 C22.4248139,0.108243243 28.8926194,6.61824324 28.8926194,14.6485135" id="Fill-1" fill="#5187A8" mask="url(#mask-2)"></path>
                        </g>
                        <path d="M23.3296139,9.08408108 L5.56308611,9.08408108 C5.36089167,9.08408108 5.19494722,9.2502973 5.19494722,9.45462162 L5.19494722,20.5092162 C5.19494722,20.7119189 5.36089167,20.8797568 5.56308611,20.8797568 L6.86889167,20.8797568 L6.86889167,12.4075946 C6.86889167,11.8967838 7.28214167,11.4816486 7.78883611,11.4816486 L14.7681694,11.4816486 C15.2748639,11.4816486 15.6881139,11.8967838 15.6881139,12.4075946 L15.6881139,18.2867838 L19.9567528,18.2867838 C20.4642528,18.2867838 20.8775028,18.7011081 20.8775028,19.2119189 L20.8775028,20.8797568 L23.3296139,20.8797568 C23.5318083,20.8797568 23.6977528,20.7119189 23.6977528,20.5092162 L23.6977528,9.45462162 C23.6977528,9.2502973 23.5318083,9.08408108 23.3296139,9.08408108" id="Fill-4" fill="#FFFFFF"></path>
                        <path d="M19.6440361,19.3854324 L14.951675,19.3854324 L13.0094806,19.3854324 C12.9079806,19.3854324 12.8250083,19.4681351 12.8250083,19.5711081 L12.8250083,22.670027 L12.8250083,22.8524595 C12.8250083,22.9546216 12.9079806,23.0381351 13.0094806,23.0381351 L19.6440361,23.0381351 C19.7447306,23.0381351 19.8277028,22.9546216 19.8277028,22.8524595 L19.8277028,19.5711081 C19.8277028,19.4681351 19.7447306,19.3854324 19.6440361,19.3854324" id="Fill-6" fill="#FFFFFF"></path>
                        <path d="M14.6305806,18.2864595 L14.6305806,12.6788919 C14.6305806,12.5775405 14.5476083,12.494027 14.4461083,12.494027 L8.09671944,12.494027 C7.99521944,12.494027 7.91224722,12.5775405 7.91224722,12.6788919 L7.91224722,22.484027 C7.91224722,22.587 7.99521944,22.6697027 8.09671944,22.6697027 L11.7652194,22.6697027 L11.7652194,19.2124054 C11.7652194,18.7015946 12.1784694,18.2864595 12.6851639,18.2864595 L14.6305806,18.2864595 Z" id="Fill-8" fill="#FFFFFF"></path>
                    </g>
                </g>
            </g>
        </g>
    </g>
</svg>