<?xml version="1.0" encoding="UTF-8"?>
<svg width="12px" height="12px" viewBox="0 0 12 12" version="1.1" xmlns="http://www.w3.org/2000/svg" xmlns:xlink="http://www.w3.org/1999/xlink">
    <!-- Generator: Sketch 50.2 (55047) - http://www.bohemiancoding.com/sketch -->
    <title>Shape Copy 4</title>
    <desc>Created with Sketch.</desc>
    <defs></defs>
    <g id="Page-1" stroke="none" stroke-width="1" fill="none" fill-rule="evenodd">
        <g id="Dashboard" transform="translate(-663.000000, -300.000000)" fill="#73ACE8">
            <g id="Group-44" transform="translate(663.000000, 297.000000)">
                <path d="M6,3 C2.7027027,3 0,5.7027027 0,9 C0,12.2972973 2.7027027,15 6,15 C9.2972973,15 12,12.2972973 12,9 C12,5.7027027 9.2972973,3 6,3 Z M8.27027027,6.89189189 C8.27027027,7.05405405 8.05405405,7.27027027 7.89189189,7.27027027 L5.51351351,7.27027027 C5.35135135,7.27027027 5.24324324,7.37837838 5.24324324,7.48648649 L5.24324324,8.02702703 C5.24324324,8.13513514 5.35135135,8.24324324 5.51351351,8.24324324 L6.48648649,8.24324324 C7.45945946,8.24324324 8.27027027,9 8.27027027,9.97297297 L8.27027027,10.5135135 C8.27027027,11.4864865 7.45945946,12.2432432 6.48648649,12.2432432 L6.75675676,12.2432432 L6.75675676,12.7297297 C6.75675676,13 6.54054054,13.2162162 6.27027027,13.2162162 C6,13.2162162 5.72972973,13 5.72972973,12.7297297 L5.72972973,12.2432432 L4.10810811,12.2432432 C3.94594595,12.2432432 3.72972973,12.0810811 3.72972973,11.8648649 L3.72972973,11.1081081 C3.72972973,10.9459459 3.94594595,10.7297297 4.10810811,10.7297297 L6.48648649,10.7297297 C6.64864865,10.7297297 6.75675676,10.6216216 6.75675676,10.5135135 L6.75675676,9.97297297 C6.75675676,9.86486486 6.64864865,9.75675676 6.48648649,9.75675676 L5.51351351,9.75675676 C4.54054054,9.75675676 3.72972973,9 3.72972973,8.02702703 L3.72972973,7.48648649 C3.72972973,6.51351351 4.54054054,5.75675676 5.51351351,5.75675676 L5.72972973,5.75675676 L5.72972973,5.27027027 C5.72972973,5 6,4.78378378 6.27027027,4.78378378 C6.54054054,4.78378378 6.75675676,5 6.75675676,5.27027027 L6.75675676,5.75675676 L7.89189189,5.75675676 C8.05405405,5.75675676 8.27027027,5.91891892 8.27027027,6.13513514 L8.27027027,6.89189189 Z" id="Shape-Copy-4"></path>
            </g>
        </g>
    </g>
</svg>