<?xml version="1.0" encoding="UTF-8"?>
<svg width="13px" height="17px" viewBox="0 0 13 17" version="1.1" xmlns="http://www.w3.org/2000/svg" xmlns:xlink="http://www.w3.org/1999/xlink">
    <!-- Generator: Sketch 50.2 (55047) - http://www.bohemiancoding.com/sketch -->
    <title>Pin</title>
    <desc>Created with Sketch.</desc>
    <defs></defs>
    <g id="Page-1" stroke="none" stroke-width="1" fill="none" fill-rule="evenodd">
        <g id="Manage-Segments-Copy-2" transform="translate(-1035.000000, -271.000000)" fill="#54698D">
            <g id="Group-25" transform="translate(1017.000000, 260.000000)">
                <g id="More-Actions-Copy-5">
                    <g id="Group-27" transform="translate(15.000000, 11.000000)">
                        <g id="Pin" transform="translate(8.763140, 9.678203) rotate(-330.000000) translate(-8.763140, -9.678203) translate(3.263140, 1.678203)">
                            <path d="M5.62741415,9.51398788 C5.64580518,9.92332202 5.65624242,10.34499 5.65624242,10.7668848 C5.65624242,11.3836121 5.63587879,11.9998545 5.59806061,12.5777939 C5.56460606,13.1557333 5.51272727,13.6953697 5.44969697,14.1579152 C5.33430303,15.0825212 5.17139394,15.6987636 5.17139394,15.6987636 C5.17139394,15.6987636 5.00848485,15.0825212 4.89309091,14.1579152 C4.83006061,13.6953697 4.77818182,13.1557333 4.74472727,12.5777939 C4.70690909,11.9998545 4.68654545,11.3836121 4.68654545,10.7668848 C4.68654545,10.34499 4.6969827,9.92332202 4.71537373,9.51398788 L0,9.51398788 C0,8.41586624 1.08789794,7.46036746 2.69223945,6.96796825 L2.99077342,1.4553283 C1.91707874,1.14359539 1.20872727,0.60824139 1.20872727,9.69696968e-05 L9.13406061,9.69696968e-05 C9.13406061,0.60820534 8.42579312,1.14353192 7.3522054,1.45527287 L7.65074565,6.96802878 C9.2549791,7.46044576 10.3427879,8.41591124 10.3427879,9.51398788 L5.62741415,9.51398788 Z" id="Combined-Shape"></path>
                        </g>
                    </g>
                </g>
            </g>
        </g>
    </g>
</svg>