<?xml version="1.0" encoding="UTF-8"?>
<svg width="32px" height="32px" viewBox="0 0 32 32" version="1.1" xmlns="http://www.w3.org/2000/svg" xmlns:xlink="http://www.w3.org/1999/xlink">
    <!-- Generator: Sketch 50.2 (55047) - http://www.bohemiancoding.com/sketch -->
    <title>Group 20</title>
    <desc>Created with Sketch.</desc>
    <defs></defs>
    <g id="Page-1" stroke="none" stroke-width="1" fill="none" fill-rule="evenodd">
        <g id="Consumer-Rights" transform="translate(-658.000000, -519.000000)">
            <g id="Group-20" transform="translate(658.000000, 519.000000)">
                <g id="Group-14" fill="#7E8BE4">
                    <g id="Group-5-Copy">
                        <g id="standard-icon">
                            <rect id="bkgd" x="0" y="0" width="32" height="32" rx="4"></rect>
                        </g>
                    </g>
                </g>
                <g id="custom91" transform="translate(7.000000, 8.000000)" fill="#FFFFFF">
                    <path d="M16.5375,4.275 C15.75,4.05 14.9625,3.4875 14.5125,2.8125 C14.175,2.25 14.175,0.9 13.275,0.9 L4.725,0.9 C3.825,0.9 3.825,2.25 3.4875,2.8125 C2.925,3.6 2.1375,3.825 1.35,4.3875 C0.45,4.95 1.2375,7.0875 1.4625,7.7625 C2.25,10.8 3.825,13.6125 6.3,15.525 C7.0875,16.0875 7.7625,16.65 8.6625,16.9875 C9.3375,17.4375 10.575,16.3125 11.1375,15.975 C12.4875,14.9625 13.725,13.725 14.625,12.2625 C15.4125,11.025 15.975,9.675 16.425,8.2125 C16.5375,7.65 16.7625,7.0875 16.875,6.525 C16.9875,6.075 17.2125,5.2875 16.9875,4.8375 C16.9875,4.6125 16.7625,4.3875 16.5375,4.275 C15.3,3.9375 16.875,4.3875 16.5375,4.275 L16.5375,4.275 Z M15.3,6.1875 C14.625,9.7875 12.6,13.1625 9.45,15.1875 L9,15.4125 L8.55,15.1875 C4.725,12.825 3.2625,9 2.7,6.1875 L2.5875,5.625 L3.0375,5.2875 C3.9375,4.8375 4.725,3.9375 5.175,2.925 L5.4,2.475 L12.6,2.475 L12.825,2.8125 C13.275,3.825 14.0625,4.8375 15.075,5.4 L15.4125,5.625 L15.3,6.1875 L15.3,6.1875 Z M8.6625,4.1625 C8.1,4.1625 6.525,4.1625 6.3,4.3875 C5.7375,4.8375 5.5125,5.5125 4.95,5.9625 C4.3875,6.525 4.6125,6.975 4.8375,7.65 C5.175,8.775 5.7375,9.9 6.4125,10.9125 C6.75,11.3625 7.2,11.8125 7.65,12.2625 C7.7625,12.375 9,13.725 9,12.9375 L9,4.725 C9,4.3875 9,4.1625 8.6625,4.1625 L8.6625,4.1625 Z" id="Shape"></path>
                </g>
            </g>
        </g>
    </g>
</svg>