<?xml version="1.0" encoding="UTF-8"?>
<svg width="13px" height="13px" viewBox="0 0 13 13" version="1.1" xmlns="http://www.w3.org/2000/svg" xmlns:xlink="http://www.w3.org/1999/xlink">
    <!-- Generator: Sketch 50.2 (55047) - http://www.bohemiancoding.com/sketch -->
    <title>sort</title>
    <desc>Created with Sketch.</desc>
    <defs></defs>
    <g id="Page-1" stroke="none" stroke-width="1" fill="none" fill-rule="evenodd">
        <g id="Manage-Segments" transform="translate(-1190.000000, -275.000000)" fill="#536D95">
            <g id="Group-14" transform="translate(24.000000, 260.000000)">
                <g id="sort" transform="translate(1166.000000, 15.000000)">
                    <path d="M7.35179151,4.42370487 C7.51495035,4.26054602 7.51495035,4.0430009 7.35179151,3.87984205 L4.46931859,0.997369133 C4.36054602,0.834210289 4.08861462,0.834210289 3.97984205,0.997369133 L1.09736913,3.87984205 C0.934210289,4.0430009 0.934210289,4.26054602 1.09736913,4.42370487 L1.58684567,4.96756768 C1.75000451,5.07634025 1.96754964,5.07634025 2.13070848,4.96756768 L3.05527527,4.0430009 C3.16404783,3.87984205 3.43597924,3.98861462 3.43597924,4.20615974 L3.43597924,9.53601533 C3.43597924,9.75356045 3.65352436,9.9167193 3.81668321,9.9167193 L4.57809115,9.9167193 C4.79563628,9.9167193 4.95879512,9.69917417 4.95879512,9.53601533 L4.95879512,4.20615974 C4.95879512,3.98861462 5.23072653,3.87984205 5.39388537,4.0430009 L6.31845216,4.96756768 C6.42722472,5.07634025 6.64476985,5.07634025 6.80792869,4.96756768 L7.35179151,4.42370487 Z M12.8448059,9.42724277 L12.3553294,8.93776623 C12.1921706,8.77460739 11.9746254,8.77460739 11.8114666,8.93776623 L10.8868998,9.86233302 C10.7781272,9.97110558 10.5061958,9.86233302 10.5061958,9.64478789 L10.5061958,4.3149323 C10.5061958,4.09738718 10.2886507,3.93422833 10.1254919,3.93422833 L9.36408392,3.93422833 C9.14653879,3.93422833 8.98337995,4.09738718 8.98337995,4.3149323 L8.98337995,9.59040161 C8.98337995,9.86233302 8.71144854,9.9167193 8.5482897,9.80794674 L7.62372291,8.88337995 C7.51495035,8.72022111 7.29740522,8.72022111 7.13424638,8.88337995 L6.59038356,9.42724277 C6.42722472,9.59040161 6.42722472,9.80794674 6.59038356,9.97110558 L9.47285648,12.8535785 C9.63601533,13.0167373 9.85356045,13.0167373 10.0167193,12.8535785 L12.8991922,9.97110558 C13.0079648,9.80794674 13.0079648,9.53601533 12.8448059,9.42724277 L12.8448059,9.42724277 Z" id="Shape" transform="translate(6.975000, 6.925474) rotate(-90.000000) translate(-6.975000, -6.925474) "></path>
                </g>
            </g>
        </g>
    </g>
</svg>