<?xml version="1.0" encoding="UTF-8"?>
<svg width="9px" height="10px" viewBox="0 0 9 10" version="1.1" xmlns="http://www.w3.org/2000/svg" xmlns:xlink="http://www.w3.org/1999/xlink">
    <!-- Generator: Sketch 50.2 (55047) - http://www.bohemiancoding.com/sketch -->
    <title>calendar</title>
    <desc>Created with Sketch.</desc>
    <defs></defs>
    <g id="DMP-201" stroke="none" stroke-width="1" fill="none" fill-rule="evenodd">
        <g id="BU1---Provisioning-2" transform="translate(-100.000000, -569.000000)" fill="#536D95" fill-rule="nonzero">
            <g id="Group-7" transform="translate(100.000000, 568.000000)">
                <g id="Group-8">
                    <g id="icons/standard/event" transform="translate(0.000000, 0.945137)">
                        <path d="M8.48571429,3.8125 L0.514285714,3.8125 C0.321428571,3.8125 0.192857143,3.9375 0.192857143,4.125 L0.192857143,8.625 C0.192857143,9.125 0.578571429,9.5 1.09285714,9.5 L7.90714286,9.5 C8.42142857,9.5 8.80714286,9.125 8.80714286,8.625 L8.80714286,4.125 C8.80714286,3.9375 8.67857143,3.8125 8.48571429,3.8125 Z M2.95714286,8 C2.95714286,8.1875 2.82857143,8.3125 2.63571429,8.3125 L2.05714286,8.3125 C1.86428571,8.3125 1.73571429,8.1875 1.73571429,8 L1.73571429,7.375 C1.73571429,7.25 1.86428571,7.125 2.05714286,7.125 L2.63571429,7.125 C2.82857143,7.125 2.95714286,7.25 2.95714286,7.375 L2.95714286,8 Z M2.95714286,5.875 C2.95714286,6.0625 2.82857143,6.1875 2.63571429,6.1875 L2.05714286,6.1875 C1.86428571,6.1875 1.73571429,6.0625 1.73571429,5.875 L1.73571429,5.3125 C1.73571429,5.125 1.86428571,5 2.05714286,5 L2.63571429,5 C2.82857143,5 2.95714286,5.125 2.95714286,5.3125 L2.95714286,5.875 Z M5.14285714,8 C5.14285714,8.1875 4.95,8.3125 4.82142857,8.3125 L4.17857143,8.3125 C4.05,8.3125 3.85714286,8.1875 3.85714286,8 L3.85714286,7.375 C3.85714286,7.25 4.05,7.125 4.17857143,7.125 L4.82142857,7.125 C4.95,7.125 5.14285714,7.25 5.14285714,7.375 L5.14285714,8 Z M5.14285714,5.875 C5.14285714,6.0625 4.95,6.1875 4.82142857,6.1875 L4.17857143,6.1875 C4.05,6.1875 3.85714286,6.0625 3.85714286,5.875 L3.85714286,5.3125 C3.85714286,5.125 4.05,5 4.17857143,5 L4.82142857,5 C4.95,5 5.14285714,5.125 5.14285714,5.3125 L5.14285714,5.875 Z M7.26428571,8 C7.26428571,8.1875 7.13571429,8.3125 6.94285714,8.3125 L6.36428571,8.3125 C6.17142857,8.3125 6.04285714,8.1875 6.04285714,8 L6.04285714,7.375 C6.04285714,7.25 6.17142857,7.125 6.36428571,7.125 L6.94285714,7.125 C7.13571429,7.125 7.26428571,7.25 7.26428571,7.375 L7.26428571,8 Z M7.26428571,5.875 C7.26428571,6.0625 7.13571429,6.1875 6.94285714,6.1875 L6.36428571,6.1875 C6.17142857,6.1875 6.04285714,6.0625 6.04285714,5.875 L6.04285714,5.3125 C6.04285714,5.125 6.17142857,5 6.36428571,5 L6.94285714,5 C7.13571429,5 7.26428571,5.125 7.26428571,5.3125 L7.26428571,5.875 Z M7.90714286,1.375 L7.13571429,1.375 L7.13571429,1.125 C7.13571429,0.75 6.81428571,0.5 6.49285714,0.5 C6.17142857,0.5 5.91428571,0.75 5.91428571,1.125 L5.91428571,1.375 L3.08571429,1.375 L3.08571429,1.125 C3.08571429,0.75 2.82857143,0.5 2.50714286,0.5 C2.18571429,0.5 1.86428571,0.75 1.86428571,1.125 L1.86428571,1.375 L1.09285714,1.375 C0.578571429,1.375 0.192857143,1.8125 0.192857143,2.3125 L0.192857143,2.625 C0.192857143,2.75 0.321428571,2.875 0.514285714,2.875 L8.48571429,2.875 C8.67857143,2.875 8.80714286,2.75 8.80714286,2.625 L8.80714286,2.3125 C8.80714286,1.8125 8.42142857,1.375 7.90714286,1.375 Z" id="Shape"></path>
                    </g>
                </g>
            </g>
        </g>
    </g>
</svg>