<?xml version="1.0" encoding="UTF-8"?>
<svg width="84px" height="35px" viewBox="0 0 84 35" version="1.1" xmlns="http://www.w3.org/2000/svg" xmlns:xlink="http://www.w3.org/1999/xlink">
    <!-- Generator: Sketch 50.2 (55047) - http://www.bohemiancoding.com/sketch -->
    <title>Group 18</title>
    <desc>Created with Sketch.</desc>
    <defs>
        <polygon id="path-1" points="29.9498 0.0483870968 0 0.0483870968 0 29.0322581 29.9498 29.0322581 29.9498 0.0483870968"></polygon>
        <rect id="path-3" x="0" y="0" width="53.9039973" height="26.5257924"></rect>
    </defs>
    <g id="DMP-201" stroke="none" stroke-width="1" fill="none" fill-rule="evenodd">
        <g id="BU1---Einstein-Seg-Created" transform="translate(-31.000000, -315.000000)">
            <g id="Group-19" transform="translate(29.000000, 312.000000)">
                <g id="Group-18">
                    <g id="Group-5">
                        <g id="Group-2" transform="translate(3.000000, 4.000000)">
                            <g id="Group-9-Copy" transform="translate(2.000000, 1.000000)">
                                <g id="Page-1">
                                    <g id="Group-3" transform="translate(0.000000, 0.919548)">
                                        <mask id="mask-2" fill="white">
                                            <use xlink:href="#path-1"></use>
                                        </mask>
                                        <g id="Clip-2"></g>
                                        <path d="M29.9498,14.5407097 C29.9498,22.5439355 23.2448,29.0326452 14.9748,29.0326452 C6.7048,29.0326452 -0.0002,22.5439355 -0.0002,14.5407097 C-0.0002,6.53651613 6.7048,0.0478064516 14.9748,0.0478064516 C23.2448,0.0478064516 29.9498,6.53651613 29.9498,14.5407097" id="Fill-1" fill="#D1D8DC" mask="url(#mask-2)"></path>
                                    </g>
                                    <path d="M24.1832,9.2133871 L5.7672,9.2133871 C5.5572,9.2133871 5.3852,9.37887097 5.3852,9.58209677 L5.3852,20.6008065 C5.3852,20.8030645 5.5572,20.9695161 5.7672,20.9695161 L7.1212,20.9695161 L7.1212,12.525 C7.1212,12.0169355 7.5482,11.6027419 8.0742,11.6027419 L15.3082,11.6027419 C15.8342,11.6027419 16.2622,12.0169355 16.2622,12.525 L16.2622,18.3856452 L20.6872,18.3856452 C21.2132,18.3856452 21.6412,18.7979032 21.6412,19.308871 L21.6412,20.9695161 L24.1832,20.9695161 C24.3932,20.9695161 24.5652,20.8030645 24.5652,20.6008065 L24.5652,9.58209677 C24.5652,9.37887097 24.3932,9.2133871 24.1832,9.2133871" id="Fill-4" fill="#FFFFFF"></path>
                                    <path d="M20.3628,19.4805484 L15.4988,19.4805484 L13.4848,19.4805484 C13.3798,19.4805484 13.2948,19.5628065 13.2948,19.6644194 L13.2948,22.7544194 L13.2948,22.9353871 C13.2948,23.0389355 13.3798,23.1211935 13.4848,23.1211935 L20.3628,23.1211935 C20.4668,23.1211935 20.5528,23.0389355 20.5528,22.9353871 L20.5528,19.6644194 C20.5528,19.5628065 20.4668,19.4805484 20.3628,19.4805484" id="Fill-6" fill="#FFFFFF"></path>
                                    <path d="M15.1661,18.3852581 L15.1661,12.7975161 C15.1661,12.6959032 15.0801,12.6126774 14.9751,12.6126774 L8.3931,12.6126774 C8.2881,12.6126774 8.2021,12.6959032 8.2021,12.7975161 L8.2021,22.5678387 C8.2021,22.6713871 8.2881,22.7546129 8.3931,22.7546129 L12.1961,22.7546129 L12.1961,19.3084839 C12.1961,18.7984839 12.6241,18.3852581 13.1501,18.3852581 L15.1661,18.3852581 Z" id="Fill-8" fill="#FFFFFF"></path>
                                </g>
                            </g>
                            <path d="M34,16.4527115 C34,25.5381765 26.3883139,32.9043244 17,32.9043244 C7.61168614,32.9043244 0,25.5381765 0,16.4527115 C0,7.36614788 7.61168614,0 17,0 C26.3883139,0 34,7.36614788 34,16.4527115" id="Fill-1" stroke="#E7EEF0" stroke-width="2"></path>
                        </g>
                        <g id="Fill-1-Copy" transform="translate(29.147971, 29.331737) rotate(-225.000000) translate(-29.147971, -29.331737) translate(2.147971, 15.831737)">
                            <mask id="mask-4" fill="white">
                                <use xlink:href="#path-3"></use>
                            </mask>
                            <g id="Mask"></g>
                            <path d="M27.0006567,41.2944155 C18.0431796,41.2944155 10.7807995,34.2493528 10.7807995,25.5599169 C10.7807995,16.8694302 18.0431796,9.82436754 27.0006567,9.82436754 C35.9581338,9.82436754 43.220514,16.8694302 43.220514,25.5599169 C43.220514,34.2493528 35.9581338,41.2944155 27.0006567,41.2944155 Z" stroke="#5187A8" mask="url(#mask-4)"></path>
                        </g>
                    </g>
                    <circle id="Oval-5" fill="#CCD5D8" cx="54" cy="22" r="6"></circle>
                    <circle id="Oval-5-Copy" fill="#E3E7E9" cx="70" cy="22" r="5"></circle>
                    <circle id="Oval-5-Copy-2" fill="#F1F3F4" cx="82.5" cy="22.5" r="3.5"></circle>
                </g>
            </g>
        </g>
    </g>
</svg>