<?xml version="1.0" encoding="UTF-8"?>
<svg width="16px" height="16px" viewBox="0 0 16 16" version="1.1" xmlns="http://www.w3.org/2000/svg" xmlns:xlink="http://www.w3.org/1999/xlink">
    <!-- Generator: Sketch 50.2 (55047) - http://www.bohemiancoding.com/sketch -->
    <title>settings</title>
    <desc>Created with Sketch.</desc>
    <defs></defs>
    <g id="Page-1" stroke="none" stroke-width="1" fill="none" fill-rule="evenodd">
        <g id="Manage-Segments-Copy-2" transform="translate(-1228.000000, -272.000000)" fill="#0070D2">
            <g id="Group-25" transform="translate(1017.000000, 260.000000)">
                <g id="settings" transform="translate(211.000000, 12.000000)">
                    <path d="M7.85746678,5.67272727 C6.47947635,5.67272727 5.40770602,6.69090909 5.40770602,8 C5.40770602,9.30909091 6.47947635,10.4 7.85746678,10.4 C9.23545721,10.4 10.3837826,9.30909091 10.3837826,8 C10.3837826,6.69090909 9.23545721,5.67272727 7.85746678,5.67272727 Z M15.2833041,10.1818182 L13.9818687,9.09090909 C14.0584237,8.72727273 14.1349787,8.36363636 14.1349787,8 C14.1349787,7.63636364 14.0584237,7.2 13.9818687,6.83636364 L15.2833041,5.81818182 C15.7426342,5.45454545 15.8957443,4.87272727 15.5895242,4.36363636 L15.053639,3.41818182 C14.823974,3.12727273 14.4411988,2.90909091 13.9818687,2.90909091 C13.8287586,2.90909091 13.7522036,2.90909091 13.5990936,2.98181818 L11.9914381,3.56363636 C11.3789979,2.98181818 10.6134476,2.61818182 9.92445243,2.4 L9.61823233,0.8 C9.54167731,0.290909091 9.00579214,-1.33226763e-15 8.46990697,-1.33226763e-15 L7.32158162,-1.33226763e-15 C6.78569645,-1.33226763e-15 6.24981128,0.290909091 6.17325626,0.8 L5.86703616,2.32727273 C5.10148592,2.61818182 4.41249071,2.98181818 3.72349549,3.49090909 L2.11583999,2.90909091 C1.96272994,2.90909091 1.88617492,2.83636364 1.73306487,2.83636364 C1.35028975,2.83636364 0.96751463,3.05454545 0.737849558,3.41818182 L0.125409367,4.36363636 C-0.104255705,4.8 -0.027700681,5.38181818 0.431629463,5.74545455 L1.73306487,6.76363636 C1.65650985,7.12727273 1.65650985,7.56363636 1.65650985,7.92727273 C1.65650985,8.36363636 1.65650985,8.72727273 1.73306487,9.09090909 L0.431629463,10.1090909 C0.0488543429,10.4727273 -0.104255705,11.0545455 0.125409367,11.4909091 L0.737849558,12.4363636 C0.96751463,12.8 1.35028975,13.0181818 1.73306487,13.0181818 C1.88617492,13.0181818 2.03928496,12.9454545 2.11583999,12.9454545 L3.72349549,12.3636364 C4.41249071,12.8727273 5.10148592,13.2363636 5.86703616,13.5272727 L6.09670123,15.1272727 C6.24981128,15.6363636 6.70914142,16 7.32158162,16 L8.39335195,16 C9.00579214,16 9.46512229,15.6363636 9.61823233,15.0545455 L9.84789741,13.4545455 C10.6900027,13.2363636 11.4555529,12.8 12.0679931,12.2181818 L13.5990936,12.8 C13.7522036,12.8 13.8287586,12.8727273 13.9818687,12.8727273 C14.4411988,12.8727273 14.823974,12.6545455 15.053639,12.3636364 L15.5895242,11.4909091 C15.8957443,11.0545455 15.7426342,10.4727273 15.2833041,10.1818182 L15.2833041,10.1818182 Z M7.85746678,11.7090909 C5.71392611,11.7090909 4.02971559,10.1090909 4.02971559,8 C4.02971559,5.89090909 5.71392611,4.36363636 7.85746678,4.36363636 C10.0010075,4.36363636 11.761773,5.96363636 11.761773,8 C11.761773,10.0363636 10.0775625,11.7090909 7.85746678,11.7090909 L7.85746678,11.7090909 Z" id="Shape"></path>
                </g>
            </g>
        </g>
    </g>
</svg>