<svg style="margin: -10px 0 24px 12px" width="373" height="305" viewBox="0 0 373 305" fill="none" xmlns="http://www.w3.org/2000/svg">
<style>
#Oval-2 {
    animation: grow-oval2 2s linear;
    stroke-dashoffset: 70;
}

@keyframes grow-oval2 {
    from {
        stroke-dashoffset: 210;
    }
}
</style>
<g id="Total Consumer Population">
<text id="Displaying an aggreg" fill="black" xml:space="preserve" style="white-space: pre" font-family="Salesforce Sans" font-size="12" letter-spacing="0px"><tspan x="0" y="12.712">Displaying the most common characteristics of your population</tspan></text>
<g id="Group 41">
<text id="Gender" fill="#3E3E3C" xml:space="preserve" style="white-space: pre" font-family="Salesforce Sans" font-size="14" letter-spacing="0px"><tspan x="49" y="193.888">Gender</tspan></text>
<text id="Gender_2" fill="#080707" xml:space="preserve" style="white-space: pre" font-family="Salesforce Sans" font-size="20" letter-spacing="0px"><tspan x="48" y="217.84">Female</tspan></text>
<g id="Group 37">
<g id="iconmonstr-gender-5">
<path id="Shape" fill-rule="evenodd" clip-rule="evenodd" d="M23.05 188V185H32.5V194H29.35V190.121L26.022 193.29C27.1214 194.762 27.775 196.556 27.775 198.5C27.775 203.385 23.6831 207.353 18.588 207.488C17.213 209.76 14.8458 211.413 12.025 211.865V215H16.75V218H12.025V221H8.875V218H4.15V215H8.875V211.865C4.4083 211.149 1 207.459 1 203C1 198.121 5.08082 194.158 10.1665 194.014C11.7982 191.324 14.8285 189.5 18.325 189.5C20.3662 189.5 22.2499 190.123 23.795 191.17L27.1229 188H23.05ZM12.1472 199.646C12.7126 202.406 15.2641 204.5 18.3259 204.5C21.8003 204.5 24.6259 201.809 24.6259 198.5C24.6259 195.191 21.8003 192.5 18.3259 192.5C16.4485 192.5 14.7711 193.295 13.6182 194.54C16.9352 195.668 19.4032 198.497 19.8284 201.937C18.6881 202.396 17.6959 202.346 16.6265 201.821C16.05 199.076 13.5017 197 10.4509 197C6.97643 197 4.15088 199.691 4.15088 203C4.15088 206.309 6.97643 209 10.4509 209C12.3267 209 13.9883 208.201 15.1365 206.954C11.8227 205.819 9.36413 202.987 8.94518 199.547C9.99728 199.127 11.1077 199.147 12.1472 199.646Z" fill="#919191"/>
</g>
</g>
<text id="Gender_3" fill="#3E3E3C" xml:space="preserve" style="white-space: pre" font-family="Salesforce Sans" font-size="14" letter-spacing="0px"><tspan x="55" y="277.888">Age</tspan></text>
<text id="Gender_4" fill="#080707" xml:space="preserve" style="white-space: pre" font-family="Salesforce Sans" font-size="20" letter-spacing="0px"><tspan x="54" y="301.84">18-54</tspan></text>
<g id="Group 38.1">
<path id="Shape_2" fill-rule="evenodd" clip-rule="evenodd" d="M34.749 297V302H7.24919V297H34.749ZM7.24919 295.75V292H34.749V295.75H7.24919ZM32.8162 284.5C34.3861 284.514 35.9836 285.814 35.9999 287.625C36.0149 289.35 34.5299 290.75 32.7187 290.75C31.4337 290.75 30.3187 290.045 29.7812 289.017C29.2437 290.045 28.1287 290.75 26.8437 290.75C25.57 290.75 24.465 290.057 23.9225 289.047C23.3775 290.057 22.2737 290.75 21 290.75C19.7263 290.75 18.6225 290.057 18.0788 289.047C17.535 290.057 16.43 290.75 15.1563 290.75C13.8713 290.75 12.7576 290.045 12.2188 289.017C11.6801 290.045 10.5663 290.75 9.28134 290.75C7.4701 290.75 5.98511 289.35 6.00011 287.625C6.01636 285.814 7.6151 284.514 9.18259 284.5H11.0001V280.782H13.5001V284.5H19.75V278.25H22.25V284.5H28.4999V280.75H30.9999V284.5H32.8162ZM11.1912 280.186C8.82 279.41 9.50249 275.881 12.3037 274.533C12.4037 276.31 14.75 276.49 14.75 278.285C14.75 279.038 14.1987 279.878 13.395 280.186C13.5875 279.55 13.1625 278.416 12.295 277.925C11.4175 278.434 10.9662 279.553 11.1912 280.186ZM28.691 280.154C26.3211 279.377 27.0036 275.849 29.8048 274.5C29.9048 276.277 32.251 276.457 32.251 278.252C32.251 279.005 31.6998 279.845 30.896 280.154C31.0873 279.517 30.6635 278.384 29.796 277.892C28.9185 278.401 28.4673 279.52 28.691 280.154ZM19.9404 277.654C17.5692 276.878 18.2517 273.349 21.0529 272C21.1529 273.777 23.4991 273.957 23.4991 275.752C23.4991 276.505 22.9479 277.345 22.1441 277.654C22.3354 277.018 21.9117 275.884 21.0442 275.393C20.1667 275.901 19.7154 277.02 19.9404 277.654Z" fill="#919191"/>
</g>
<text id="Gender_5" fill="#3E3E3C" xml:space="preserve" style="white-space: pre" font-family="Salesforce Sans" font-size="14" letter-spacing="0px"><tspan x="214" y="279.888">Interest</tspan></text>
<text id="Gender_6" fill="#080707" xml:space="preserve" style="white-space: pre" font-family="Salesforce Sans" font-size="20" letter-spacing="0px"><tspan x="213" y="303.84">Basketball</tspan></text>
<text id="Gender_7" fill="#3E3E3C" xml:space="preserve" style="white-space: pre" font-family="Salesforce Sans" font-size="14" letter-spacing="0px"><tspan x="212" y="200.888">Children in Household</tspan></text>
<text id="Gender_8" fill="#080707" xml:space="preserve" style="white-space: pre" font-family="Salesforce Sans" font-size="20" letter-spacing="0px"><tspan x="211" y="224.84">1+</tspan></text>
<path id="Shape_3" fill-rule="evenodd" clip-rule="evenodd" d="M189.204 208.697C189.204 207.839 189.953 206.981 190.515 206.467C191.827 205.265 192.389 203.893 192.389 202.177C192.389 198.917 190.328 196 186.58 196C180.482 196 180.222 201.913 180.222 203.743C182.463 203.743 187.292 207.295 184.816 212.831C184.441 213.517 184.066 214.288 184.816 214.459C186.877 215.489 188.886 217.136 189.391 219.164C189.578 219.507 189.953 219.85 190.515 219.85H194.638C196.511 219.85 197.636 218.477 197.636 216.762C197.823 214.188 194.825 212.3 191.827 211.099C189.578 210.241 189.204 209.555 189.204 208.697ZM169.44 208.697C169.44 207.839 168.691 206.981 168.129 206.467C166.817 205.265 166.255 203.893 166.255 202.177C166.255 198.917 168.316 196 172.064 196C178.162 196 178.422 201.913 178.422 203.743C176.181 203.743 171.352 207.295 173.828 212.831C174.203 213.517 174.578 214.288 173.828 214.459C171.767 215.489 169.758 217.136 169.253 219.164C169.066 219.507 168.691 219.85 168.129 219.85H164.006C162.133 219.85 161.008 218.477 161.008 216.762C160.821 214.188 163.819 212.3 166.817 211.099C169.066 210.241 169.44 209.555 169.44 208.697ZM182.281 217.17C181.09 216.51 180.891 215.96 180.891 215.41C180.891 214.75 181.189 214.2 181.686 213.87C182.381 213.1 182.778 212 182.778 210.79C182.778 208.48 181.586 206.5 179.302 206.5C177.018 206.5 175.827 208.48 175.827 210.79C175.827 212 176.224 213.1 176.919 213.87C177.415 214.31 177.713 214.86 177.713 215.41C177.713 216.07 177.515 216.51 176.323 217.17C174.436 218.05 172.748 218.93 172.649 220.8C172.649 222.01 173.443 223 174.536 223H184.069C185.161 223 185.956 222.01 185.956 220.8C185.856 218.93 184.168 218.05 182.281 217.17V217.17Z" fill="#919191"/>
<g id="new_custom1">
<path id="Shape_4" fill-rule="evenodd" clip-rule="evenodd" d="M185.235 301.461C184.016 302.68 182.12 302.68 180.901 301.461C177.244 297.668 170.336 290.355 170.336 290.355C167.221 287.104 167.221 281.822 170.336 278.571C171.826 277.081 173.858 276.133 176.025 276.133C178.192 276.133 180.088 276.946 181.578 278.571L182.255 279.384C182.661 279.79 183.474 279.79 183.88 279.384L184.422 278.707C186.047 277.081 187.944 276.133 190.111 276.133C192.142 276.133 194.174 276.946 195.664 278.571C198.779 281.822 198.779 287.104 195.664 290.355C195.664 290.355 188.892 297.668 185.235 301.461V301.461Z" fill="#919191"/>
</g>
</g>
<path id="Oval" opacity="0.5" d="M75.5 137C101.181 137 122 116.181 122 90.5C122 64.8188 101.181 44 75.5 44C49.8188 44 29 64.8188 29 90.5C29 116.181 49.8188 137 75.5 137Z" stroke="#DDDBDA" stroke-width="10"/>
<path id="Oval-2" d="M75.5 44C49.8188 44 29 64.8188 29 90.5C29 116.181 49.8188 137 75.5 137C101.181 137 122 116.181 122 90.5" stroke="#3296ED" stroke-width="10" stroke-linecap="round" stroke-dasharray="219"/>
<text id="75%" fill="#3E3E3C" xml:space="preserve" style="white-space: pre" font-family="Salesforce Sans" font-size="18" letter-spacing="0px"><tspan x="183" y="141.818">57.8% of 2.7M</tspan></text>
<g id="Group 33.1">
<text id="TOTAL PEOPLE" fill="#706E6A" xml:space="preserve" style="white-space: pre" font-family="Salesforce Sans" font-size="12" font-weight="bold" letter-spacing="0px"><tspan x="182" y="53.712">No. of people with this </tspan><tspan x="182" y="70.712">profile in your audience</tspan></text>
<text id="82K" fill="#080707" xml:space="preserve" style="white-space: pre" font-family="Salesforce Sans" font-size="35" font-weight="300" letter-spacing="0px"><tspan x="181.301" y="110.785" id="numberAudience">0M</tspan></text>
</g>
</g>
</svg>
