<svg style="margin-left: 11px; margin-top: -55px;" width="380" height="536" viewBox="0 0 380 536" fill="none" xmlns="http://www.w3.org/2000/svg">
<g id="Top Products">
<g id="$72m">
<text fill="#080707" xml:space="preserve" style="white-space: pre" font-family="Salesforce Sans" font-size="28" letter-spacing="0px"><tspan x="212.267" y="189.776">k</tspan></text>
<text fill="#080707" xml:space="preserve" style="white-space: pre" font-family="Salesforce Sans" font-size="28" letter-spacing="0px"><tspan x="143.908" y="189.776">$298</tspan></text>
</g>
<g id="Ellipse">
<mask id="path-2-outside-1" maskUnits="userSpaceOnUse" x="63.436" y="155" width="118" height="154" fill="black">
<rect fill="white" x="63.436" y="155" width="118" height="154"/>
<path d="M70.493 157.83C65.9537 174.691 65.2131 192.342 68.3243 209.521C71.4355 226.7 78.3216 242.983 88.4902 257.205C98.6589 271.427 111.859 283.238 127.147 291.793C142.435 300.348 159.433 305.436 176.926 306.692L178.64 283.054C164.646 282.049 151.047 277.978 138.817 271.135C126.587 264.291 116.027 254.842 107.892 243.464C99.7568 232.086 94.2479 219.06 91.759 205.317C89.27 191.574 89.8625 177.453 93.4939 163.964L70.493 157.83Z"/>
</mask>
<path d="M70.493 157.83C65.9537 174.691 65.2131 192.342 68.3243 209.521C71.4355 226.7 78.3216 242.983 88.4902 257.205C98.6589 271.427 111.859 283.238 127.147 291.793C142.435 300.348 159.433 305.436 176.926 306.692L178.64 283.054C164.646 282.049 151.047 277.978 138.817 271.135C126.587 264.291 116.027 254.842 107.892 243.464C99.7568 232.086 94.2479 219.06 91.759 205.317C89.27 191.574 89.8625 177.453 93.4939 163.964L70.493 157.83Z" fill="#F7A452"/>
<path d="M70.493 157.83C65.9537 174.691 65.2131 192.342 68.3243 209.521C71.4355 226.7 78.3216 242.983 88.4902 257.205C98.6589 271.427 111.859 283.238 127.147 291.793C142.435 300.348 159.433 305.436 176.926 306.692L178.64 283.054C164.646 282.049 151.047 277.978 138.817 271.135C126.587 264.291 116.027 254.842 107.892 243.464C99.7568 232.086 94.2479 219.06 91.759 205.317C89.27 191.574 89.8625 177.453 93.4939 163.964L70.493 157.83Z" stroke="white" stroke-width="4" mask="url(#path-2-outside-1)"/>
</g>
<g id="Ellipse_2">
<mask id="path-3-outside-2" maskUnits="userSpaceOnUse" x="63.436" y="68" width="125" height="165" fill="black">
<rect fill="white" x="63.436" y="68" width="125" height="165"/>
<path d="M185.498 70C166.252 70 147.293 74.6434 130.246 83.5324C113.198 92.4213 98.5693 105.291 87.613 121.039C76.6566 136.787 69.6992 154.943 67.3366 173.953C64.974 192.963 67.2767 212.259 74.0475 230.189L96.3375 221.852C90.9209 207.507 89.0787 192.07 90.9688 176.862C92.8589 161.654 98.4248 147.129 107.19 134.531C115.955 121.933 127.658 111.637 141.296 104.526C154.934 97.4147 170.101 93.7 185.498 93.7L185.498 70Z"/>
</mask>
<path d="M185.498 70C166.252 70 147.293 74.6434 130.246 83.5324C113.198 92.4213 98.5693 105.291 87.613 121.039C76.6566 136.787 69.6992 154.943 67.3366 173.953C64.974 192.963 67.2767 212.259 74.0475 230.189L96.3375 221.852C90.9209 207.507 89.0787 192.07 90.9688 176.862C92.8589 161.654 98.4248 147.129 107.19 134.531C115.955 121.933 127.658 111.637 141.296 104.526C154.934 97.4147 170.101 93.7 185.498 93.7L185.498 70Z" fill="#4ED4CD"/>
<path d="M185.498 70C166.252 70 147.293 74.6434 130.246 83.5324C113.198 92.4213 98.5693 105.291 87.613 121.039C76.6566 136.787 69.6992 154.943 67.3366 173.953C64.974 192.963 67.2767 212.259 74.0475 230.189L96.3375 221.852C90.9209 207.507 89.0787 192.07 90.9688 176.862C92.8589 161.654 98.4248 147.129 107.19 134.531C115.955 121.933 127.658 111.637 141.296 104.526C154.934 97.4147 170.101 93.7 185.498 93.7L185.498 70Z" stroke="white" stroke-width="4" mask="url(#path-3-outside-2)"/>
</g>
<g id="Ellipse_3">
<mask id="path-4-outside-3" maskUnits="userSpaceOnUse" x="182.436" y="67" width="125" height="120" fill="black">
<rect fill="white" x="182.436" y="67" width="125" height="120"/>
<path d="M304.427 182.915C302.981 152.421 289.767 123.658 267.538 102.623C245.31 81.5869 215.782 69.901 185.109 70.0006L185.187 93.7005C209.725 93.6208 233.347 102.97 251.13 119.798C268.913 136.627 279.484 159.636 280.641 184.032L304.427 182.915Z"/>
</mask>
<path d="M304.427 182.915C302.981 152.421 289.767 123.658 267.538 102.623C245.31 81.5869 215.782 69.901 185.109 70.0006L185.187 93.7005C209.725 93.6208 233.347 102.97 251.13 119.798C268.913 136.627 279.484 159.636 280.641 184.032L304.427 182.915Z" fill="#3296ED"/>
<path d="M304.427 182.915C302.981 152.421 289.767 123.658 267.538 102.623C245.31 81.5869 215.782 69.901 185.109 70.0006L185.187 93.7005C209.725 93.6208 233.347 102.97 251.13 119.798C268.913 136.627 279.484 159.636 280.641 184.032L304.427 182.915Z" stroke="white" stroke-width="4" mask="url(#path-4-outside-3)"/>
</g>
<g id="Ellipse_4">
<mask id="path-5-outside-4" maskUnits="userSpaceOnUse" x="167.436" y="177" width="140" height="133" fill="black">
<rect fill="white" x="167.436" y="177" width="140" height="133"/>
<path d="M170.078 306.002C187.599 308.28 205.409 306.647 222.218 301.223C239.026 295.8 254.411 286.72 267.256 274.644C280.101 262.567 290.084 247.797 296.482 231.403C302.879 215.01 305.53 197.405 304.243 179.865L280.494 181.592C281.524 195.624 279.403 209.708 274.285 222.823C269.167 235.937 261.18 247.754 250.904 257.415C240.628 267.076 228.321 274.34 214.874 278.679C201.427 283.018 187.179 284.324 173.162 282.502L170.078 306.002Z"/>
</mask>
<path d="M170.078 306.002C187.599 308.28 205.409 306.647 222.218 301.223C239.026 295.8 254.411 286.72 267.256 274.644C280.101 262.567 290.084 247.797 296.482 231.403C302.879 215.01 305.53 197.405 304.243 179.865L280.494 181.592C281.524 195.624 279.403 209.708 274.285 222.823C269.167 235.937 261.18 247.754 250.904 257.415C240.628 267.076 228.321 274.34 214.874 278.679C201.427 283.018 187.179 284.324 173.162 282.502L170.078 306.002Z" fill="#77B9F2"/>
<path d="M170.078 306.002C187.599 308.28 205.409 306.647 222.218 301.223C239.026 295.8 254.411 286.72 267.256 274.644C280.101 262.567 290.084 247.797 296.482 231.403C302.879 215.01 305.53 197.405 304.243 179.865L280.494 181.592C281.524 195.624 279.403 209.708 274.285 222.823C269.167 235.937 261.18 247.754 250.904 257.415C240.628 267.076 228.321 274.34 214.874 278.679C201.427 283.018 187.179 284.324 173.162 282.502L170.078 306.002Z" stroke="white" stroke-width="4" mask="url(#path-5-outside-4)"/>
</g>
<g id="Ellipse_5">
<mask id="path-6-outside-5" maskUnits="userSpaceOnUse" x="125.436" y="269" width="107" height="41" fill="black">
<rect fill="white" x="125.436" y="269" width="107" height="41"/>
<path d="M129.101 292.863C144.377 301.04 161.265 305.797 178.582 306.8C195.899 307.803 213.227 305.027 229.353 298.668L220.582 276.635C207.681 281.722 193.818 283.942 179.965 283.14C166.111 282.338 152.601 278.532 140.38 271.99L129.101 292.863Z"/>
</mask>
<path d="M129.101 292.863C144.377 301.04 161.265 305.797 178.582 306.8C195.899 307.803 213.227 305.027 229.353 298.668L220.582 276.635C207.681 281.722 193.818 283.942 179.965 283.14C166.111 282.338 152.601 278.532 140.38 271.99L129.101 292.863Z" fill="#9D53F2"/>
<path d="M129.101 292.863C144.377 301.04 161.265 305.797 178.582 306.8C195.899 307.803 213.227 305.027 229.353 298.668L220.582 276.635C207.681 281.722 193.818 283.942 179.965 283.14C166.111 282.338 152.601 278.532 140.38 271.99L129.101 292.863Z" stroke="white" stroke-width="4" mask="url(#path-6-outside-5)"/>
</g>
<text id="Total Revenue" fill="black" xml:space="preserve" style="white-space: pre" font-family="Salesforce Sans" font-size="12" letter-spacing="0px"><tspan x="146.457" y="210.904">Total Revenue</tspan></text>
<text id="Last 30 days" fill="black" xml:space="preserve" style="white-space: pre" font-family="Salesforce Sans" font-size="12" letter-spacing="0px"><tspan x="0.123047" y="49.904">Last 30 days</tspan></text>
<text id="Rook Security" fill="#080707" xml:space="preserve" style="white-space: pre" font-family="Salesforce Sans" font-size="13" letter-spacing="0px"><tspan x="141.792" y="358.896">Youth Indiana Pacers Logo </tspan><tspan x="141.792" y="375.896">Hat</tspan></text>
<g id="$12.7m">
<text fill="#080707" xml:space="preserve" style="white-space: pre" font-family="Salesforce Sans" font-size="20" letter-spacing="0px"><tspan x="118.128" y="360.84">k</tspan></text>
<text fill="#080707" xml:space="preserve" style="white-space: pre" font-family="Salesforce Sans" font-size="20" letter-spacing="0px"><tspan x="81.5068" y="360.84">$75</tspan></text>
</g>
<rect id="Rectangle 522.1" x="43.3267" y="387" width="13.0616" height="13" rx="6.5" fill="#77B9F2"/>
<rect id="Rectangle 522.2" x="43.3267" y="425" width="13.0616" height="13" rx="6.5" fill="#9D53F2"/>
<rect id="Rectangle 522.3" x="43.3267" y="463" width="13.0616" height="13" rx="6.5" fill="#F7A452"/>
<rect id="Rectangle 522.4" x="43.3267" y="502" width="13.0616" height="13" rx="6.5" fill="#4ED4CD"/>
<text id="SCORE Systems" fill="#080707" xml:space="preserve" style="white-space: pre" font-family="Salesforce Sans" font-size="13" letter-spacing="0px"><tspan x="140.787" y="397.896">Indiana Pacers Nike Custom </tspan><tspan x="140.787" y="414.896">Swingman Jersey</tspan></text>
<g id="$10.8m">
<text fill="#080707" xml:space="preserve" style="white-space: pre" font-family="Salesforce Sans" font-size="20" letter-spacing="0px"><tspan x="118.128" y="399.84">k</tspan></text>
<text fill="#080707" xml:space="preserve" style="white-space: pre" font-family="Salesforce Sans" font-size="20" letter-spacing="0px"><tspan x="81.5068" y="399.84">$62</tspan></text>
</g>
<text id="Fitzmark" fill="#080707" xml:space="preserve" style="white-space: pre" font-family="Salesforce Sans" font-size="13" letter-spacing="0px"><tspan x="140.787" y="475.896">Women&#x2019;s Pacers Perfect Pitch Full </tspan><tspan x="140.787" y="492.896">Zip Track Jacket</tspan></text>
<g id="$6.7m">
<text fill="#080707" xml:space="preserve" style="white-space: pre" font-family="Salesforce Sans" font-size="20" letter-spacing="0px"><tspan x="118.128" y="477.84">k</tspan></text>
<text fill="#080707" xml:space="preserve" style="white-space: pre" font-family="Salesforce Sans" font-size="20" letter-spacing="0px"><tspan x="81.5068" y="477.84">$35</tspan></text>
</g>
<text id="Fitzmark_2" fill="#080707" xml:space="preserve" style="white-space: pre" font-family="Salesforce Sans" font-size="13" letter-spacing="0px"><tspan x="139.782" y="436.896">Pacers ABA Rubber </tspan><tspan x="139.782" y="453.896">Basketball</tspan></text>
<g id="$6.7m_2">
<text fill="#080707" xml:space="preserve" style="white-space: pre" font-family="Salesforce Sans" font-size="20" letter-spacing="0px"><tspan x="118.128" y="438.84">k</tspan></text>
<text fill="#080707" xml:space="preserve" style="white-space: pre" font-family="Salesforce Sans" font-size="20" letter-spacing="0px"><tspan x="93.7139" y="438.84">42</tspan></text>
<text fill="#080707" xml:space="preserve" style="white-space: pre" font-family="Salesforce Sans" font-size="20" letter-spacing="0px"><tspan x="81.5068" y="438.84">$</tspan></text>
</g>
<text id="Fitzmark_3" fill="#080707" xml:space="preserve" style="white-space: pre" font-family="Salesforce Sans" font-size="13" letter-spacing="0px"><tspan x="141.792" y="514.896">Youth 4-7 Pacers Nike Replica </tspan><tspan x="141.792" y="531.896">Shorts</tspan></text>
<g id="$6.7m_3">
<text fill="#080707" xml:space="preserve" style="white-space: pre" font-family="Salesforce Sans" font-size="20" letter-spacing="0px"><tspan x="118.128" y="516.84">k</tspan></text>
<text fill="#080707" xml:space="preserve" style="white-space: pre" font-family="Salesforce Sans" font-size="20" letter-spacing="0px"><tspan x="93.7139" y="516.84">84</tspan></text>
<text fill="#080707" xml:space="preserve" style="white-space: pre" font-family="Salesforce Sans" font-size="20" letter-spacing="0px"><tspan x="81.5068" y="516.84">$</tspan></text>
</g>
<g id="Group 43">
<rect id="Rectangle 522" x="43.3267" y="347" width="13.0616" height="13" rx="6.5" fill="#3296ED"/>
</g>
</g>
</svg>
