<?xml version="1.0" encoding="UTF-8"?>
<svg class="slds-icon slds-icon-text-default slds-icon_devices" style="margin-top: -6px;" width="24px" height="24px" viewBox="0 0 32 32" version="1.1" xmlns="http://www.w3.org/2000/svg" xmlns:xlink="http://www.w3.org/1999/xlink">
    <!-- Generator: Sketch 54.1 (76490) - https://sketchapp.com -->
    <g id="Page-1" stroke="none" stroke-width="1" fill="none" fill-rule="evenodd">
        <g id="Manage-Segments" transform="translate(-942.000000, -212.000000)">
            <g id="Group-37" transform="translate(12.000000, 182.000000)">
                <g id="Group-35" transform="translate(892.000000, 0.000000)">
                    <g id="Group-34">
                        <g id="Group-39" transform="translate(24.000000, 16.000000)">
                            <g id="Group-32" transform="translate(14.000000, 14.000000)">
                                <path d="M16,32 C7.1639399,32 0,24.8362993 0,16.0005342 C0,7.16370071 7.1639399,0 16,0 C24.8360601,0 32,7.16370071 32,16.0005342 C32,24.8362993 24.8360601,32 16,32 Z" id="Fill-1" fill="#5AA7EA"></path>
                                <g id="Group-31" transform="translate(5.333600, 6.710194)">
                                    <g id="Group-23">
                                        <g id="custom27" transform="translate(3.356766, 0.000000)" fill="#FFFFFF">
                                            <path d="M2.01405937,11.0409063 L15.8886906,11.0409063 C16.2243671,11.0409063 16.4481515,10.8222745 16.4481515,10.4943268 L16.4481515,2.18631808 C16.4481515,1.31179085 15.7767984,0.546579521 14.8816609,0.546579521 L3.02108905,0.546579521 C2.12595156,0.546579521 1.45459843,1.31179085 1.45459843,2.18631808 L1.45459843,10.4943268 C1.45459843,10.8222745 1.67838281,11.0409063 2.01405937,11.0409063 L2.01405937,11.0409063 Z M17.0076125,12.6806449 L11.0773265,12.6806449 C10.8535422,12.6806449 10.5178656,12.8992767 10.5178656,13.1179085 C10.5178656,13.3365403 10.2940812,13.664488 10.0702968,13.664488 L7.83245311,13.664488 C7.60866873,13.664488 7.38488436,13.4458562 7.38488436,13.1179085 C7.38488436,12.7899608 7.04920779,12.6806449 6.82542342,12.6806449 L0.895137498,12.6806449 C0.559460936,12.6806449 0.335676562,12.8992767 0.335676562,13.1179085 C0.335676562,13.9924357 1.11892187,14.7576471 2.01405937,14.7576471 L15.8886906,14.7576471 C16.7838281,14.7576471 17.5670734,13.9924357 17.5670734,13.1179085 C17.5670734,12.8992767 17.343289,12.6806449 17.0076125,12.6806449 Z" id="Shape"></path>
                                        </g>
                                        <g id="custom28" transform="translate(0.000000, 3.705969)">
                                            <path d="M8.48765598,0.250503619 L1.44889086,0.250503619 C0.620800844,0.250503619 -0.000266666667,0.86675198 -0.000266666667,1.68841646 L-0.000266666667,13.6025514 C-0.000266666667,14.4242159 0.620800844,15.0404643 1.44889086,15.0404643 L8.48765598,15.0404643 C9.31574599,15.0404643 9.9368135,14.4242159 9.9368135,13.6025514 L9.9368135,1.68841646 C9.9368135,0.86675198 9.31574599,0.250503619 8.48765598,0.250503619 L8.48765598,0.250503619 Z" id="Path" fill="#5AA7EA"></path>
                                            <path d="M7.51915498,1.37722004 L1.43222,1.37722004 C0.716109998,1.37722004 0.1790275,1.91013508 0.1790275,2.62068845 L0.1790275,12.9237124 C0.1790275,13.6342658 0.716109998,14.1671808 1.43222,14.1671808 L7.51915498,14.1671808 C8.23526498,14.1671808 8.77234748,13.6342658 8.77234748,12.9237124 L8.77234748,2.62068845 C8.77234748,1.91013508 8.23526498,1.37722004 7.51915498,1.37722004 L7.51915498,1.37722004 Z M4.47568749,13.723085 C4.11763249,13.723085 3.84909124,13.4566275 3.84909124,13.1013508 C3.84909124,12.7460741 4.11763249,12.4796166 4.47568749,12.4796166 C4.83374249,12.4796166 5.10228374,12.7460741 5.10228374,13.1013508 C5.10228374,13.4566275 4.83374249,13.723085 4.47568749,13.723085 Z" id="Shape" fill="#FFFFFF"></path>
                                        </g>
                                    </g>
                                </g>
                            </g>
                        </g>
                    </g>
                </g>
            </g>
        </g>
    </g>
</svg>