<svg width="1280" height="720" viewBox="0 0 1280 720" version="1.1" xmlns="http://www.w3.org/2000/svg" xmlns:xlink="http://www.w3.org/1999/xlink">
    <g stroke="none" stroke-width="1" fill="none" fill-rule="evenodd" font-family="SalesforceSans-Regular, Salesforce Sans" font-size="12" font-weight="normal" line-spacing="18">
        <text>
            <tspan x="75" y="145" fill="#C23934">0000</tspan> <tspan x="104.28" y="145" fill="#3E3E3C">___ID=</tspan> <tspan x="146.388" y="145" fill="#04844B">google-search-results</tspan> <tspan x="264.948" y="145" fill="#3E3E3C">___DATA=</tspan> <tspan x="325.392" y="145" fill="#0070D2">has-sticky-header</tspan> <tspan x="422.46" y="145" fill="#3E3E3C">.png</tspan> <tspan x="75" y="163" fill="#3E3E3C"/>
 <tspan x="75" y="181" fill="#3E3E3C">Let us break that filename down into three parts: </tspan> <tspan x="351.36" y="181" fill="#C23934">sorter</tspan> <tspan x="384.06" y="181" fill="#3E3E3C">, step identifier, meta data.</tspan> <tspan x="75" y="199" fill="#3E3E3C"/>
 <tspan x="75" y="217" fill="#3E3E3C">* The </tspan> <tspan x="106.944" y="217" fill="#C23934">sorter</tspan> <tspan x="139.644" y="217" fill="#3E3E3C"> is 0000.</tspan> <tspan x="75" y="235" fill="#3E3E3C">* The </tspan> <tspan x="106.944" y="235" fill="#04844B">step identifier</tspan> <tspan x="184.596" y="235" fill="#3E3E3C"> is google-search-results.</tspan> <tspan x="75" y="253" fill="#3E3E3C">* The </tspan> <tspan x="106.944" y="253" fill="#0070D2">meta data</tspan> <tspan x="164.244" y="253" fill="#3E3E3C"> is: has-sticky-header</tspan> <tspan x="75" y="271" fill="#3E3E3C"/>
 <tspan x="75" y="289" fill="#3E3E3C">The Magick Flows system will use the </tspan> <tspan x="284.364" y="289" fill="#04844B">step identifier</tspan> <tspan x="362.016" y="289" fill="#3E3E3C"> and </tspan> <tspan x="389.7" y="289" fill="#0070D2">metadata</tspan> <tspan x="443.904" y="289" fill="#3E3E3C"> to find and display header.</tspan> <tspan x="75" y="307" fill="#3E3E3C"/>
 <tspan x="75" y="325" fill="#3E3E3C">It will find the header at ../assets/</tspan> <tspan x="264.468" y="325" fill="#04844B">google-search-results</tspan> <tspan x="383.028" y="325" fill="#3E3E3C">___</tspan> <tspan x="404.988" y="325" fill="#0070D2">sticky-header</tspan> <tspan x="478.98" y="325" fill="#3E3E3C">.png.</tspan>
        </text>
    </g>
</svg>
