<svg width="400" height="330" viewBox="0 0 400 330" fill="none" xmlns="http://www.w3.org/2000/svg">
<g id="pacers-dash-card-01">
<rect id="Rectangle Copy 12" width="400" height="330" fill="white"/>
<text id="Displaying an aggreg" fill="black" xml:space="preserve" style="white-space: pre" font-family="Salesforce Sans" font-size="12" letter-spacing="0px"><tspan x="18" y="15.712">Displaying most common characteristics of your audience</tspan></text>
<g id="Group 41">
<text id="Gender" fill="#3E3E3C" xml:space="preserve" style="white-space: pre" font-family="Salesforce Sans" font-size="14" letter-spacing="0px"><tspan x="67" y="196.888">Gender</tspan></text>
<text id="Gender_2" fill="#080707" xml:space="preserve" style="white-space: pre" font-family="Salesforce Sans" font-size="20" letter-spacing="0px"><tspan x="66" y="220.84">Female</tspan></text>
<g id="Group 37">
<g id="iconmonstr-gender-5">
<path id="Shape" fill-rule="evenodd" clip-rule="evenodd" d="M41.05 191V188H50.5V197H47.35V193.121L44.022 196.29C45.1214 197.762 45.775 199.556 45.775 201.5C45.775 206.385 41.6831 210.353 36.588 210.488C35.213 212.76 32.8458 214.413 30.025 214.865V218H34.75V221H30.025V224H26.875V221H22.15V218H26.875V214.865C22.4083 214.149 19 210.459 19 206C19 201.121 23.0808 197.158 28.1665 197.014C29.7982 194.324 32.8285 192.5 36.325 192.5C38.3662 192.5 40.2499 193.123 41.795 194.17L45.1229 191H41.05ZM30.1472 202.646C30.7126 205.406 33.2641 207.5 36.3259 207.5C39.8003 207.5 42.6259 204.809 42.6259 201.5C42.6259 198.191 39.8003 195.5 36.3259 195.5C34.4485 195.5 32.7711 196.295 31.6182 197.54C34.9352 198.668 37.4032 201.497 37.8284 204.936C36.6881 205.396 35.6959 205.346 34.6265 204.821C34.05 202.076 31.5017 200 28.4509 200C24.9764 200 22.1509 202.691 22.1509 206C22.1509 209.309 24.9764 212 28.4509 212C30.3267 212 31.9883 211.201 33.1365 209.954C29.8227 208.818 27.3641 205.986 26.9452 202.547C27.9973 202.127 29.1077 202.147 30.1472 202.646Z" fill="#919191"/>
</g>
</g>
<text id="Gender_3" fill="#3E3E3C" xml:space="preserve" style="white-space: pre" font-family="Salesforce Sans" font-size="14" letter-spacing="0px"><tspan x="73" y="280.888">Age</tspan></text>
<text id="Gender_4" fill="#080707" xml:space="preserve" style="white-space: pre" font-family="Salesforce Sans" font-size="20" letter-spacing="0px"><tspan x="72" y="304.84">35-54</tspan></text>
<g id="Group 38.1">
<path id="Shape_2" fill-rule="evenodd" clip-rule="evenodd" d="M52.7491 300V305H25.2493V300H52.7491ZM25.2493 298.75V295H52.7491V298.75H25.2493ZM50.8162 287.5C52.3861 287.514 53.9836 288.814 53.9999 290.625C54.0149 292.35 52.5299 293.75 50.7187 293.75C49.4337 293.75 48.3187 293.045 47.7812 292.017C47.2437 293.045 46.1287 293.75 44.8437 293.75C43.57 293.75 42.465 293.057 41.9225 292.047C41.3775 293.057 40.2737 293.75 39 293.75C37.7263 293.75 36.6225 293.057 36.0788 292.047C35.535 293.057 34.43 293.75 33.1563 293.75C31.8713 293.75 30.7576 293.045 30.2188 292.017C29.6801 293.045 28.5663 293.75 27.2813 293.75C25.4701 293.75 23.9851 292.35 24.0001 290.625C24.0164 288.814 25.6151 287.514 27.1826 287.5H29.0001V283.782H31.5001V287.5H37.75V281.25H40.25V287.5H46.4999V283.75H48.9999V287.5H50.8162ZM29.1912 283.186C26.82 282.41 27.5025 278.881 30.3037 277.533C30.4037 279.31 32.75 279.49 32.75 281.285C32.75 282.038 32.1987 282.878 31.395 283.186C31.5875 282.55 31.1625 281.416 30.295 280.925C29.4175 281.434 28.9662 282.553 29.1912 283.186ZM46.691 283.154C44.321 282.378 45.0035 278.849 47.8047 277.5C47.9047 279.277 50.2509 279.457 50.2509 281.252C50.2509 282.005 49.6997 282.845 48.8959 283.154C49.0872 282.518 48.6634 281.384 47.796 280.893C46.9185 281.401 46.4672 282.52 46.691 283.154ZM37.9405 280.654C35.5693 279.878 36.2518 276.349 39.053 275C39.153 276.777 41.4992 276.957 41.4992 278.752C41.4992 279.505 40.948 280.345 40.1442 280.654C40.3355 280.018 39.9117 278.884 39.0442 278.393C38.1667 278.901 37.7155 280.02 37.9405 280.654Z" fill="#919191"/>
</g>
<text id="Gender_5" fill="#3E3E3C" xml:space="preserve" style="white-space: pre" font-family="Salesforce Sans" font-size="14" letter-spacing="0px"><tspan x="232" y="282.888">Interest</tspan></text>
<text id="Gender_6" fill="#080707" xml:space="preserve" style="white-space: pre" font-family="Salesforce Sans" font-size="20" letter-spacing="0px"><tspan x="231" y="306.84">Basketball</tspan></text>
<text id="Gender_7" fill="#3E3E3C" xml:space="preserve" style="white-space: pre" font-family="Salesforce Sans" font-size="14" letter-spacing="0px"><tspan x="230" y="203.888">Children in Household</tspan></text>
<text id="Gender_8" fill="#080707" xml:space="preserve" style="white-space: pre" font-family="Salesforce Sans" font-size="20" letter-spacing="0px"><tspan x="229" y="227.84">2 or more</tspan></text>
<path id="Shape_3" fill-rule="evenodd" clip-rule="evenodd" d="M207.204 211.697C207.204 210.839 207.953 209.981 208.515 209.467C209.827 208.265 210.389 206.893 210.389 205.177C210.389 201.917 208.328 199 204.58 199C198.482 199 198.222 204.913 198.222 206.743C200.463 206.743 205.292 210.295 202.816 215.831C202.441 216.517 202.066 217.288 202.816 217.459C204.877 218.489 206.886 220.136 207.391 222.164C207.578 222.507 207.953 222.85 208.515 222.85H212.638C214.511 222.85 215.636 221.477 215.636 219.762C215.823 217.188 212.825 215.3 209.827 214.099C207.578 213.241 207.204 212.555 207.204 211.697ZM187.44 211.697C187.44 210.839 186.691 209.981 186.129 209.467C184.817 208.265 184.255 206.893 184.255 205.177C184.255 201.917 186.316 199 190.064 199C196.162 199 196.422 204.913 196.422 206.743C194.181 206.743 189.352 210.295 191.828 215.831C192.203 216.517 192.578 217.288 191.828 217.459C189.767 218.489 187.758 220.136 187.253 222.164C187.066 222.507 186.691 222.85 186.129 222.85H182.006C180.133 222.85 179.008 221.477 179.008 219.762C178.821 217.188 181.819 215.3 184.817 214.099C187.066 213.241 187.44 212.555 187.44 211.697ZM200.282 220.17C199.09 219.51 198.891 218.96 198.891 218.41C198.891 217.75 199.189 217.2 199.686 216.87C200.381 216.1 200.778 215 200.778 213.79C200.778 211.48 199.586 209.5 197.302 209.5C195.018 209.5 193.827 211.48 193.827 213.79C193.827 215 194.224 216.1 194.919 216.87C195.416 217.31 195.714 217.86 195.714 218.41C195.714 219.07 195.515 219.51 194.323 220.17C192.436 221.05 190.748 221.93 190.649 223.8C190.649 225.01 191.443 226 192.536 226H202.069C203.161 226 203.956 225.01 203.956 223.8C203.857 221.93 202.168 221.05 200.282 220.17V220.17Z" fill="#919191"/>
<path id="Shape_4" fill-rule="evenodd" clip-rule="evenodd" d="M203.235 304.461C202.016 305.68 200.12 305.68 198.901 304.461C195.244 300.668 188.336 293.355 188.336 293.355C185.221 290.104 185.221 284.822 188.336 281.571C189.826 280.081 191.858 279.133 194.025 279.133C196.192 279.133 198.088 279.946 199.578 281.571L200.255 282.384C200.661 282.79 201.474 282.79 201.88 282.384L202.422 281.707C204.047 280.081 205.944 279.133 208.111 279.133C210.142 279.133 212.174 279.946 213.664 281.571C216.779 284.822 216.779 290.104 213.664 293.355C213.664 293.355 206.892 300.668 203.235 304.461V304.461Z" fill="#919191"/>
</g>
<path id="Oval" opacity="0.5" d="M93.5 140C119.181 140 140 119.181 140 93.5C140 67.8188 119.181 47 93.5 47C67.8188 47 47 67.8188 47 93.5C47 119.181 67.8188 140 93.5 140Z" stroke="#DDDBDA" stroke-width="10"/>
<path id="Oval-2" d="M94 47C106.399 47 117.664 51.8525 126 59.7619" stroke="#3296ED" stroke-width="10" stroke-linecap="round"/>
<text id="75%" fill="#3E3E3C" xml:space="preserve" style="white-space: pre" font-family="Salesforce Sans" font-size="18" letter-spacing="0px"><tspan x="201" y="144.818">9.49% of 12.4M</tspan></text>
<g id="Group 33.1">
<text id="TOTAL PEOPLE" fill="#706E6A" xml:space="preserve" style="white-space: pre" font-family="Salesforce Sans" font-size="12" font-weight="bold" letter-spacing="0px"><tspan x="200" y="56.712">No. of people with this </tspan><tspan x="200" y="73.712">profile in your audience</tspan></text>
<text fill="#080707" xml:space="preserve" style="white-space: pre" font-family="Salesforce Sans" font-size="35" font-weight="300" letter-spacing="0px"><tspan id="numberAudience" x="199.301" y="113.785">0K</tspan></text>
</g>
</g>
</svg>
