<svg width="815" height="330" viewBox="0 0 815 330" fill="none" xmlns="http://www.w3.org/2000/svg">
<g id="pacers-dash-card-04">
<rect id="Rectangle Copy 12.4" width="815" height="330" fill="white"/>
<g id="Group 44">
<text id="Updated a minute ago" fill="black" xml:space="preserve" style="white-space: pre" font-family="Salesforce Sans" font-size="12" letter-spacing="0px"><tspan x="23" y="14.904">Updated a minute ago</tspan></text>
<text id="40" fill="#3E3E3C" xml:space="preserve" style="white-space: pre" font-family="Salesforce Sans" font-size="12" letter-spacing="0px"><tspan x="51.0044" y="67.5274">5+</tspan></text>
<text id="30" fill="#3E3E3C" xml:space="preserve" style="white-space: pre" font-family="Salesforce Sans" font-size="12" letter-spacing="0px"><tspan x="51.0044" y="104.047">4</tspan></text>
<text id="20" fill="#3E3E3C" xml:space="preserve" style="white-space: pre" font-family="Salesforce Sans" font-size="12" letter-spacing="0px"><tspan x="51.0044" y="143.237">3</tspan></text>
<text id="10" fill="#3E3E3C" xml:space="preserve" style="white-space: pre" font-family="Salesforce Sans" font-size="12" letter-spacing="0px"><tspan x="51.0044" y="181.094">2</tspan></text>
<text id="10_2" fill="#3E3E3C" xml:space="preserve" style="white-space: pre" font-family="Salesforce Sans" font-size="12" letter-spacing="0px"><tspan x="51.0039" y="220.094">1</tspan></text>
<path id="ygridlin6" opacity="0.5" d="M80 46.5H769" stroke="#DDDBDA" stroke-linecap="square"/>
<path id="Vector" d="M420 47L420 281" stroke="#EEEDEC" stroke-width="2"/>
<path id="ygridlin5" opacity="0.5" d="M80 84.5H769" stroke="#DDDBDA" stroke-linecap="square"/>
<path id="ygridlin5_2" opacity="0.5" d="M80 122.5H769" stroke="#DDDBDA" stroke-linecap="square"/>
<path id="ygridlin3" opacity="0.5" d="M80 160.5H769" stroke="#DDDBDA" stroke-linecap="square"/>
<path id="ygridlin2" opacity="0.5" d="M80 197.5H769" stroke="#DDDBDA" stroke-linecap="square"/>
<path id="ygridlin1" opacity="0.5" d="M80 235.5H769" stroke="#DDDBDA" stroke-linecap="square"/>
<text id="Number of Employees" fill="#F30808" xml:space="preserve" style="white-space: pre" font-family="Salesforce Sans" font-size="12" letter-spacing="0px"><tspan x="159" y="276.212">Losing Streak (# of Games)</tspan></text>
<text id="Number of Employees_2" fill="#3E3E3C" xml:space="preserve" style="white-space: pre" font-family="Salesforce Sans" font-size="12" letter-spacing="0px"><tspan x="520" y="276.212">Winning Streak (# of Games)</tspan></text>
<text id="Sales" transform="rotate(-90)" fill="#3E3E3C" xml:space="preserve" style="white-space: pre" font-family="Salesforce Sans" font-size="12" letter-spacing="0px"><tspan x="23.582" y="243.212">Number of Kids in Household</tspan></text>
<path id="bubble5" d="M98 221C100.761 221 103 218.761 103 216C103 213.239 100.761 211 98 211C95.2386 211 93 213.239 93 216C93 218.761 95.2386 221 98 221Z" fill="#D8D8D8"/>
<path id="bubble5_2" d="M145 226C150.523 226 155 221.523 155 216C155 210.477 150.523 206 145 206C139.477 206 135 210.477 135 216C135 221.523 139.477 226 145 226Z" fill="#D8D8D8"/>
<path id="bubble5_3" d="M191 231C199.284 231 206 224.284 206 216C206 207.716 199.284 201 191 201C182.716 201 176 207.716 176 216C176 224.284 182.716 231 191 231Z" fill="#D8D8D8"/>
<path id="bubble5_4" d="M238 226C243.523 226 248 221.523 248 216C248 210.477 243.523 206 238 206C232.477 206 228 210.477 228 216C228 221.523 232.477 226 238 226Z" fill="#D8D8D8"/>
<path id="bubble5_5" d="M285 221C287.761 221 290 218.761 290 216C290 213.239 287.761 211 285 211C282.239 211 280 213.239 280 216C280 218.761 282.239 221 285 221Z" fill="#3296ED"/>
<path id="bubble5_6" d="M332 221C334.761 221 337 218.761 337 216C337 213.239 334.761 211 332 211C329.239 211 327 213.239 327 216C327 218.761 329.239 221 332 221Z" fill="#3296ED"/>
<path id="bubble5_7" d="M378 221C380.761 221 383 218.761 383 216C383 213.239 380.761 211 378 211C375.239 211 373 213.239 373 216C373 218.761 375.239 221 378 221Z" fill="#3296ED"/>
<path id="bubble5_8" d="M462 226C467.523 226 472 221.523 472 216C472 210.477 467.523 206 462 206C456.477 206 452 210.477 452 216C452 221.523 456.477 226 462 226Z" fill="#3296ED"/>
<path id="bubble5_9" d="M508 221C510.761 221 513 218.761 513 216C513 213.239 510.761 211 508 211C505.239 211 503 213.239 503 216C503 218.761 505.239 221 508 221Z" fill="#D8D8D8"/>
<path id="bubble5_10" d="M555 221C557.761 221 560 218.761 560 216C560 213.239 557.761 211 555 211C552.239 211 550 213.239 550 216C550 218.761 552.239 221 555 221Z" fill="#D8D8D8"/>
<path id="bubble5_11" d="M602 221C604.761 221 607 218.761 607 216C607 213.239 604.761 211 602 211C599.239 211 597 213.239 597 216C597 218.761 599.239 221 602 221Z" fill="#3296ED"/>
<path id="bubble5_12" d="M649 221C651.761 221 654 218.761 654 216C654 213.239 651.761 211 649 211C646.239 211 644 213.239 644 216C644 218.761 646.239 221 649 221Z" fill="#3296ED"/>
<path id="bubble5_13" d="M695 221C697.761 221 700 218.761 700 216C700 213.239 697.761 211 695 211C692.239 211 690 213.239 690 216C690 218.761 692.239 221 695 221Z" fill="#3296ED"/>
<path id="bubble5_14" d="M742 221C744.761 221 747 218.761 747 216C747 213.239 744.761 211 742 211C739.239 211 737 213.239 737 216C737 218.761 739.239 221 742 221Z" fill="#04844B"/>
<path id="bubble5_15" d="M191 183C193.761 183 196 180.761 196 178C196 175.239 193.761 173 191 173C188.239 173 186 175.239 186 178C186 180.761 188.239 183 191 183Z" fill="#D8D8D8"/>
<path id="bubble5_16" d="M191 145C193.761 145 196 142.761 196 140C196 137.239 193.761 135 191 135C188.239 135 186 137.239 186 140C186 142.761 188.239 145 191 145Z" fill="#D8D8D8"/>
<path id="bubble5_17" d="M145 183C147.761 183 150 180.761 150 178C150 175.239 147.761 173 145 173C142.239 173 140 175.239 140 178C140 180.761 142.239 183 145 183Z" fill="#D8D8D8"/>
<path id="bubble5_18" d="M238 188C243.523 188 248 183.523 248 178C248 172.477 243.523 168 238 168C232.477 168 228 172.477 228 178C228 183.523 232.477 188 238 188Z" fill="#3296ED"/>
<path id="bubble5_19" d="M285 183C287.761 183 290 180.761 290 178C290 175.239 287.761 173 285 173C282.239 173 280 175.239 280 178C280 180.761 282.239 183 285 183Z" fill="#3296ED"/>
<path id="bubble5_20" d="M378 198C389.046 198 398 189.046 398 178C398 166.954 389.046 158 378 158C366.954 158 358 166.954 358 178C358 189.046 366.954 198 378 198Z" fill="#3296ED"/>
<path id="bubble5_21" d="M462 183C464.761 183 467 180.761 467 178C467 175.239 464.761 173 462 173C459.239 173 457 175.239 457 178C457 180.761 459.239 183 462 183Z" fill="#3296ED"/>
<path id="bubble5_22" d="M508 183C510.761 183 513 180.761 513 178C513 175.239 510.761 173 508 173C505.239 173 503 175.239 503 178C503 180.761 505.239 183 508 183Z" fill="#3296ED"/>
<path id="bubble5_23" d="M555 183C557.761 183 560 180.761 560 178C560 175.239 557.761 173 555 173C552.239 173 550 175.239 550 178C550 180.761 552.239 183 555 183Z" fill="#3296ED"/>
<path id="bubble5_24" d="M600 183C602.761 183 605 180.761 605 178C605 175.239 602.761 173 600 173C597.239 173 595 175.239 595 178C595 180.761 597.239 183 600 183Z" fill="#3296ED"/>
<path id="bubble5_25" d="M649 183C651.761 183 654 180.761 654 178C654 175.239 651.761 173 649 173C646.239 173 644 175.239 644 178C644 180.761 646.239 183 649 183Z" fill="#04844B"/>
<path id="bubble5_26" d="M694 194C702.284 194 709 187.284 709 179C709 170.716 702.284 164 694 164C685.716 164 679 170.716 679 179C679 187.284 685.716 194 694 194Z" fill="#04844B"/>
<path id="bubble5_27" d="M694 156C702.284 156 709 149.284 709 141C709 132.716 702.284 126 694 126C685.716 126 679 132.716 679 141C679 149.284 685.716 156 694 156Z" fill="#04844B"/>
<path id="bubble5_28" d="M742 183C744.761 183 747 180.761 747 178C747 175.239 744.761 173 742 173C739.239 173 737 175.239 737 178C737 180.761 739.239 183 742 183Z" fill="#3296ED"/>
<path id="bubble5_29" d="M238 145C240.761 145 243 142.761 243 140C243 137.239 240.761 135 238 135C235.239 135 233 137.239 233 140C233 142.761 235.239 145 238 145Z" fill="#D8D8D8"/>
<path id="bubble5_30" d="M285 145C287.761 145 290 142.761 290 140C290 137.239 287.761 135 285 135C282.239 135 280 137.239 280 140C280 142.761 282.239 145 285 145Z" fill="#3296ED"/>
<path id="bubble5_31" d="M332 145C334.761 145 337 142.761 337 140C337 137.239 334.761 135 332 135C329.239 135 327 137.239 327 140C327 142.761 329.239 145 332 145Z" fill="#D8D8D8"/>
<path id="bubble5_32" d="M378 150C383.523 150 388 145.523 388 140C388 134.477 383.523 130 378 130C372.477 130 368 134.477 368 140C368 145.523 372.477 150 378 150Z" fill="#3296ED"/>
<path id="bubble5_33" d="M462 145C464.761 145 467 142.761 467 140C467 137.239 464.761 135 462 135C459.239 135 457 137.239 457 140C457 142.761 459.239 145 462 145Z" fill="#3296ED"/>
<path id="bubble5_34" d="M508 150C513.523 150 518 145.523 518 140C518 134.477 513.523 130 508 130C502.477 130 498 134.477 498 140C498 145.523 502.477 150 508 150Z" fill="#3296ED"/>
<path id="bubble5_35" d="M508 113C513.523 113 518 108.523 518 103C518 97.4772 513.523 93 508 93C502.477 93 498 97.4772 498 103C498 108.523 502.477 113 508 113Z" fill="#3296ED"/>
<path id="bubble5_36" d="M555 150C560.523 150 565 145.523 565 140C565 134.477 560.523 130 555 130C549.477 130 545 134.477 545 140C545 145.523 549.477 150 555 150Z" fill="#04844B"/>
<path id="bubble5_37" d="M600 157C608.284 157 615 150.284 615 142C615 133.716 608.284 127 600 127C591.716 127 585 133.716 585 142C585 150.284 591.716 157 600 157Z" fill="#04844B"/>
<path id="bubble5_38" d="M649 145C651.761 145 654 142.761 654 140C654 137.239 651.761 135 649 135C646.239 135 644 137.239 644 140C644 142.761 646.239 145 649 145Z" fill="#04844B"/>
<path id="bubble5_39" d="M743 166C756.807 166 768 154.807 768 141C768 127.193 756.807 116 743 116C729.193 116 718 127.193 718 141C718 154.807 729.193 166 743 166Z" fill="#04844B"/>
<path id="bubble5_40" d="M238 108C240.761 108 243 105.761 243 103C243 100.239 240.761 98 238 98C235.239 98 233 100.239 233 103C233 105.761 235.239 108 238 108Z" fill="#3296ED"/>
<path id="bubble5_41" d="M285 108C287.761 108 290 105.761 290 103C290 100.239 287.761 98 285 98C282.239 98 280 100.239 280 103C280 105.761 282.239 108 285 108Z" fill="#3296ED"/>
<path id="bubble5_42" d="M332 108C334.761 108 337 105.761 337 103C337 100.239 334.761 98 332 98C329.239 98 327 100.239 327 103C327 105.761 329.239 108 332 108Z" fill="#3296ED"/>
<path id="bubble5_43" d="M378 108C380.761 108 383 105.761 383 103C383 100.239 380.761 98 378 98C375.239 98 373 100.239 373 103C373 105.761 375.239 108 378 108Z" fill="#3296ED"/>
<path id="bubble5_44" d="M332 195C340.284 195 347 188.284 347 180C347 171.716 340.284 165 332 165C323.716 165 317 171.716 317 180C317 188.284 323.716 195 332 195Z" fill="#3296ED"/>
<path id="bubble5_45" d="M555 108C557.761 108 560 105.761 560 103C560 100.239 557.761 98 555 98C552.239 98 550 100.239 550 103C550 105.761 552.239 108 555 108Z" fill="#04844B"/>
<path id="bubble5_46" d="M600 113C605.523 113 610 108.523 610 103C610 97.4772 605.523 93 600 93C594.477 93 590 97.4772 590 103C590 108.523 594.477 113 600 113Z" fill="#04844B"/>
<path id="bubble5_47" d="M649 108C651.761 108 654 105.761 654 103C654 100.239 651.761 98 649 98C646.239 98 644 100.239 644 103C644 105.761 646.239 108 649 108Z" fill="#3296ED"/>
<path id="bubble5_48" d="M649 70C651.761 70 654 67.7614 654 65C654 62.2386 651.761 60 649 60C646.239 60 644 62.2386 644 65C644 67.7614 646.239 70 649 70Z" fill="#3296ED"/>
<path id="bubble5_49" d="M693 108C695.761 108 698 105.761 698 103C698 100.239 695.761 98 693 98C690.239 98 688 100.239 688 103C688 105.761 690.239 108 693 108Z" fill="#3296ED"/>
<path id="bubble5_50" d="M742 108C744.761 108 747 105.761 747 103C747 100.239 744.761 98 742 98C739.239 98 737 100.239 737 103C737 105.761 739.239 108 742 108Z" fill="#3296ED"/>
<path id="bubble5_51" d="M332 70C334.761 70 337 67.7614 337 65C337 62.2386 334.761 60 332 60C329.239 60 327 62.2386 327 65C327 67.7614 329.239 70 332 70Z" fill="#04844B"/>
<path id="bubble5_52" d="M285 70C287.761 70 290 67.7614 290 65C290 62.2386 287.761 60 285 60C282.239 60 280 62.2386 280 65C280 67.7614 282.239 70 285 70Z" fill="#3296ED"/>
<path id="bubble5_53" d="M378 70C380.761 70 383 67.7614 383 65C383 62.2386 380.761 60 378 60C375.239 60 373 62.2386 373 65C373 67.7614 375.239 70 378 70Z" fill="#04844B"/>
<path id="bubble5_54" d="M462 75C467.523 75 472 70.5228 472 65C472 59.4772 467.523 55 462 55C456.477 55 452 59.4772 452 65C452 70.5228 456.477 75 462 75Z" fill="#04844B"/>
<path id="bubble5_55" d="M462 113C467.523 113 472 108.523 472 103C472 97.4772 467.523 93 462 93C456.477 93 452 97.4772 452 103C452 108.523 456.477 113 462 113Z" fill="#04844B"/>
<path id="bubble5_56" d="M508 70C510.761 70 513 67.7614 513 65C513 62.2386 510.761 60 508 60C505.239 60 503 62.2386 503 65C503 67.7614 505.239 70 508 70Z" fill="#04844B"/>
<path id="bubble5_57" d="M555 75C560.523 75 565 70.5228 565 65C565 59.4772 560.523 55 555 55C549.477 55 545 59.4772 545 65C545 70.5228 549.477 75 555 75Z" fill="#04844B"/>
<path id="bubble5_58" d="M600 75C605.523 75 610 70.5228 610 65C610 59.4772 605.523 55 600 55C594.477 55 590 59.4772 590 65C590 70.5228 594.477 75 600 75Z" fill="#04844B"/>
<path id="bubble5_59" d="M742 70C744.761 70 747 67.7614 747 65C747 62.2386 744.761 60 742 60C739.239 60 737 62.2386 737 65C737 67.7614 739.239 70 742 70Z" fill="#04844B"/>
<text id="10_3" fill="#F30808" xml:space="preserve" style="white-space: pre" font-family="Salesforce Sans" font-size="12" letter-spacing="0px"><tspan x="140" y="253.212">6</tspan></text>
<text id="10_4" fill="#F30808" xml:space="preserve" style="white-space: pre" font-family="Salesforce Sans" font-size="12" letter-spacing="0px"><tspan x="94" y="253.212">7+</tspan></text>
<text id="20_2" fill="#F30808" xml:space="preserve" style="white-space: pre" font-family="Salesforce Sans" font-size="12" letter-spacing="0px"><tspan x="185" y="253.212">5</tspan></text>
<text id="30_2" fill="#F30808" xml:space="preserve" style="white-space: pre" font-family="Salesforce Sans" font-size="12" letter-spacing="0px"><tspan x="234" y="253.212">4</tspan></text>
<text id="40_2" fill="#F30808" xml:space="preserve" style="white-space: pre" font-family="Salesforce Sans" font-size="12" letter-spacing="0px"><tspan x="283" y="253.212">3</tspan></text>
<text id="50" fill="#F30808" xml:space="preserve" style="white-space: pre" font-family="Salesforce Sans" font-size="12" letter-spacing="0px"><tspan x="328" y="253.212">2</tspan></text>
<text id="10_5" fill="#3E3E3C" xml:space="preserve" style="white-space: pre" font-family="Salesforce Sans" font-size="12" letter-spacing="0px"><tspan x="551" y="252.212">3</tspan></text>
<text id="20_3" fill="#3E3E3C" xml:space="preserve" style="white-space: pre" font-family="Salesforce Sans" font-size="12" letter-spacing="0px"><tspan x="598" y="253.212">4</tspan></text>
<text id="30_3" fill="#3E3E3C" xml:space="preserve" style="white-space: pre" font-family="Salesforce Sans" font-size="12" letter-spacing="0px"><tspan x="647" y="253.212">5</tspan></text>
<text id="40_3" fill="#3E3E3C" xml:space="preserve" style="white-space: pre" font-family="Salesforce Sans" font-size="12" letter-spacing="0px"><tspan x="690" y="253.212">6</tspan></text>
<text id="50_2" fill="#3E3E3C" xml:space="preserve" style="white-space: pre" font-family="Salesforce Sans" font-size="12" letter-spacing="0px"><tspan x="737" y="253.212">7+</tspan></text>
<text id="60" fill="#F30808" xml:space="preserve" style="white-space: pre" font-family="Salesforce Sans" font-size="12" letter-spacing="0px"><tspan x="374" y="253.212">1</tspan></text>
<text id="80" fill="#3E3E3C" xml:space="preserve" style="white-space: pre" font-family="Salesforce Sans" font-size="12" letter-spacing="0px"><tspan x="457" y="253.212">1</tspan></text>
<text id="100" fill="#3E3E3C" xml:space="preserve" style="white-space: pre" font-family="Salesforce Sans" font-size="12" letter-spacing="0px"><tspan x="504" y="253.212">2</tspan></text>
<g id="Group 5">
<g id="Group 3">
<path id="legendcircle5" d="M245.66 311.649C247.681 311.649 249.32 309.937 249.32 307.825C249.32 305.712 247.681 304 245.66 304C243.639 304 242 305.712 242 307.825C242 309.937 243.639 311.649 245.66 311.649Z" fill="#3296ED"/>
<text id="Account C" fill="#3E3E3C" xml:space="preserve" style="white-space: pre" font-family="Salesforce Sans" font-size="12" letter-spacing="0px"><tspan x="255" y="312.212">$100 - $500</tspan></text>
</g>
<g id="Group 4">
<path id="legendcircle3" d="M180.66 311.649C182.681 311.649 184.32 309.937 184.32 307.825C184.32 305.712 182.681 304 180.66 304C178.639 304 177 305.712 177 307.825C177 309.937 178.639 311.649 180.66 311.649Z" fill="#D8D8D8"/>
<text id="Account A" fill="#3E3E3C" xml:space="preserve" style="white-space: pre" font-family="Salesforce Sans" font-size="12" letter-spacing="0px"><tspan x="188.979" y="312.212">&#60; $100</tspan></text>
</g>
<text id="Account A_2" fill="#3E3E3C" xml:space="preserve" style="white-space: pre" font-family="Salesforce Sans" font-size="12" letter-spacing="0px"><tspan x="53" y="312.212">Average Order Value</tspan></text>
<g id="Group 2">
<path id="legendcircle1" d="M340.66 311.649C342.681 311.649 344.32 309.937 344.32 307.825C344.32 305.712 342.681 304 340.66 304C338.639 304 337 305.712 337 307.825C337 309.937 338.639 311.649 340.66 311.649Z" fill="#04844B"/>
<text id="Account E" fill="#3E3E3C" xml:space="preserve" style="white-space: pre" font-family="Salesforce Sans" font-size="12" letter-spacing="0px"><tspan x="349" y="312.212">$500 +</tspan></text>
</g>
</g>
<g id="Group 5.1">
<g id="Group 4_2">
<g id="Group">
<path id="legendcircle3_2" d="M618.66 311.649C620.681 311.649 622.32 309.937 622.32 307.825C622.32 305.712 620.681 304 618.66 304C616.639 304 615 305.712 615 307.825C615 309.937 616.639 311.649 618.66 311.649Z" fill="#3296ED"/>
<path id="legendcircle3_3" d="M715 324C723.284 324 730 317.284 730 309C730 300.716 723.284 294 715 294C707.395 294 640.001 302 618.5 304C615.253 304.678 622.075 306.762 619 307.5C619 309.162 618 308.5 618 311.5C618 311.5 708.377 324 715 324Z" fill="#3296ED"/>
</g>
<text id="Account A_3" fill="#3E3E3C" xml:space="preserve" style="white-space: pre" font-family="Salesforce Sans" font-size="12" letter-spacing="0px"><tspan x="583" y="312.212">&#60; 10</tspan></text>
<text id="Account A_4" fill="#3E3E3C" xml:space="preserve" style="white-space: pre" font-family="Salesforce Sans" font-size="12" letter-spacing="0px"><tspan x="736" y="312.212">500 +</tspan></text>
</g>
<text id="Account A_5" fill="#3E3E3C" xml:space="preserve" style="white-space: pre" font-family="Salesforce Sans" font-size="12" letter-spacing="0px"><tspan x="494" y="312.212">Order Volume</tspan></text>
</g>
</g>
</g>
</svg>
