<svg width="410" height="520" viewBox="0 0 410 520" fill="none" xmlns="http://www.w3.org/2000/svg">
<g id="pacers-dash-card-05">
<g id="Group 3 Copy">
<g id="Top Overlapping ">
<path id="Rectangle 18 Copy" fill-rule="evenodd" clip-rule="evenodd" d="M0 0V520H410V0H0Z" fill="white"/>
</g>
</g>
<g id="$72m">
<text fill="#080707" xml:space="preserve" style="white-space: pre" font-family="Salesforce Sans" font-size="28" letter-spacing="0px"><tspan x="233.27" y="154.776">k</tspan></text>
<text fill="#080707" xml:space="preserve" style="white-space: pre" font-family="Salesforce Sans" font-size="28" letter-spacing="0px"><tspan x="164.91" y="154.776">$298</tspan></text>
</g>
<g id="Ellipse">
<mask id="path-3-outside-1" maskUnits="userSpaceOnUse" x="85" y="120" width="117" height="154" fill="black">
<rect fill="white" x="85" y="120" width="117" height="154"/>
<path d="M92.0378 122.83C87.5199 139.691 86.7829 157.342 89.8794 174.521C92.9759 191.7 99.8295 207.983 109.95 222.205C120.071 236.427 133.209 248.238 148.424 256.793C163.64 265.348 180.558 270.436 197.969 271.692L199.675 248.054C185.746 247.049 172.212 242.978 160.04 236.135C147.867 229.291 137.357 219.842 129.26 208.464C121.164 197.086 115.681 184.06 113.203 170.317C110.726 156.574 111.316 142.453 114.93 128.964L92.0378 122.83Z"/>
</mask>
<path d="M92.0378 122.83C87.5199 139.691 86.7829 157.342 89.8794 174.521C92.9759 191.7 99.8295 207.983 109.95 222.205C120.071 236.427 133.209 248.238 148.424 256.793C163.64 265.348 180.558 270.436 197.969 271.692L199.675 248.054C185.746 247.049 172.212 242.978 160.04 236.135C147.867 229.291 137.357 219.842 129.26 208.464C121.164 197.086 115.681 184.06 113.203 170.317C110.726 156.574 111.316 142.453 114.93 128.964L92.0378 122.83Z" fill="#F7A452"/>
<path d="M92.0378 122.83C87.5199 139.691 86.7829 157.342 89.8794 174.521C92.9759 191.7 99.8295 207.983 109.95 222.205C120.071 236.427 133.209 248.238 148.424 256.793C163.64 265.348 180.558 270.436 197.969 271.692L199.675 248.054C185.746 247.049 172.212 242.978 160.04 236.135C147.867 229.291 137.357 219.842 129.26 208.464C121.164 197.086 115.681 184.06 113.203 170.317C110.726 156.574 111.316 142.453 114.93 128.964L92.0378 122.83Z" stroke="white" stroke-width="4" mask="url(#path-3-outside-1)"/>
</g>
<g id="Ellipse_2">
<mask id="path-4-outside-2" maskUnits="userSpaceOnUse" x="85" y="33" width="124" height="165" fill="black">
<rect fill="white" x="85" y="33" width="124" height="165"/>
<path d="M206.5 35C187.345 35 168.476 39.6434 151.509 48.5324C134.541 57.4213 119.982 70.291 109.077 86.0387C98.1724 101.787 91.2477 119.943 88.8963 138.953C86.5448 157.963 88.8367 177.259 95.5755 195.189L117.76 186.852C112.369 172.507 110.536 157.07 112.417 141.862C114.298 126.654 119.838 112.129 128.562 99.531C137.285 86.9328 148.933 76.6371 162.507 69.5259C176.081 62.4147 191.176 58.7 206.5 58.7L206.5 35Z"/>
</mask>
<path d="M206.5 35C187.345 35 168.476 39.6434 151.509 48.5324C134.541 57.4213 119.982 70.291 109.077 86.0387C98.1724 101.787 91.2477 119.943 88.8963 138.953C86.5448 157.963 88.8367 177.259 95.5755 195.189L117.76 186.852C112.369 172.507 110.536 157.07 112.417 141.862C114.298 126.654 119.838 112.129 128.562 99.531C137.285 86.9328 148.933 76.6371 162.507 69.5259C176.081 62.4147 191.176 58.7 206.5 58.7L206.5 35Z" fill="#4ED4CD"/>
<path d="M206.5 35C187.345 35 168.476 39.6434 151.509 48.5324C134.541 57.4213 119.982 70.291 109.077 86.0387C98.1724 101.787 91.2477 119.943 88.8963 138.953C86.5448 157.963 88.8367 177.259 95.5755 195.189L117.76 186.852C112.369 172.507 110.536 157.07 112.417 141.862C114.298 126.654 119.838 112.129 128.562 99.531C137.285 86.9328 148.933 76.6371 162.507 69.5259C176.081 62.4147 191.176 58.7 206.5 58.7L206.5 35Z" stroke="white" stroke-width="4" mask="url(#path-4-outside-2)"/>
</g>
<g id="Ellipse_3">
<mask id="path-5-outside-3" maskUnits="userSpaceOnUse" x="204" y="32" width="123" height="120" fill="black">
<rect fill="white" x="204" y="32" width="123" height="120"/>
<path d="M324.868 147.915C323.429 117.421 310.277 88.6582 288.154 67.6225C266.03 46.5869 236.641 34.901 206.113 35.0006L206.191 58.7005C230.613 58.6208 254.124 67.9695 271.823 84.798C289.522 101.627 300.044 124.636 301.195 149.032L324.868 147.915Z"/>
</mask>
<path d="M324.868 147.915C323.429 117.421 310.277 88.6582 288.154 67.6225C266.03 46.5869 236.641 34.901 206.113 35.0006L206.191 58.7005C230.613 58.6208 254.124 67.9695 271.823 84.798C289.522 101.627 300.044 124.636 301.195 149.032L324.868 147.915Z" fill="#3296ED"/>
<path d="M324.868 147.915C323.429 117.421 310.277 88.6582 288.154 67.6225C266.03 46.5869 236.641 34.901 206.113 35.0006L206.191 58.7005C230.613 58.6208 254.124 67.9695 271.823 84.798C289.522 101.627 300.044 124.636 301.195 149.032L324.868 147.915Z" stroke="white" stroke-width="4" mask="url(#path-5-outside-3)"/>
</g>
<g id="Ellipse_4">
<mask id="path-6-outside-4" maskUnits="userSpaceOnUse" x="188" y="142" width="140" height="133" fill="black">
<rect fill="white" x="188" y="142" width="140" height="133"/>
<path d="M191.153 271.002C208.591 273.28 226.318 271.647 243.047 266.223C259.776 260.8 275.088 251.72 287.873 239.644C300.657 227.567 310.593 212.797 316.961 196.403C323.328 180.01 325.966 162.405 324.685 144.865L301.048 146.592C302.073 160.624 299.962 174.708 294.869 187.823C289.775 200.937 281.826 212.754 271.598 222.415C261.371 232.076 249.121 239.34 235.738 243.679C222.354 248.018 208.173 249.324 194.222 247.502L191.153 271.002Z"/>
</mask>
<path d="M191.153 271.002C208.591 273.28 226.318 271.647 243.047 266.223C259.776 260.8 275.088 251.72 287.873 239.644C300.657 227.567 310.593 212.797 316.961 196.403C323.328 180.01 325.966 162.405 324.685 144.865L301.048 146.592C302.073 160.624 299.962 174.708 294.869 187.823C289.775 200.937 281.826 212.754 271.598 222.415C261.371 232.076 249.121 239.34 235.738 243.679C222.354 248.018 208.173 249.324 194.222 247.502L191.153 271.002Z" fill="#77B9F2"/>
<path d="M191.153 271.002C208.591 273.28 226.318 271.647 243.047 266.223C259.776 260.8 275.088 251.72 287.873 239.644C300.657 227.567 310.593 212.797 316.961 196.403C323.328 180.01 325.966 162.405 324.685 144.865L301.048 146.592C302.073 160.624 299.962 174.708 294.869 187.823C289.775 200.937 281.826 212.754 271.598 222.415C261.371 232.076 249.121 239.34 235.738 243.679C222.354 248.018 208.173 249.324 194.222 247.502L191.153 271.002Z" stroke="white" stroke-width="4" mask="url(#path-6-outside-4)"/>
</g>
<g id="Ellipse_5">
<mask id="path-7-outside-5" maskUnits="userSpaceOnUse" x="147" y="234" width="106" height="41" fill="black">
<rect fill="white" x="147" y="234" width="106" height="41"/>
<path d="M150.369 257.863C165.574 266.04 182.382 270.797 199.617 271.8C216.852 272.803 234.098 270.027 250.149 263.668L241.419 241.635C228.579 246.722 214.782 248.942 200.993 248.14C187.205 247.338 173.759 243.532 161.595 236.99L150.369 257.863Z"/>
</mask>
<path d="M150.369 257.863C165.574 266.04 182.382 270.797 199.617 271.8C216.852 272.803 234.098 270.027 250.149 263.668L241.419 241.635C228.579 246.722 214.782 248.942 200.993 248.14C187.205 247.338 173.759 243.532 161.595 236.99L150.369 257.863Z" fill="#9D53F2"/>
<path d="M150.369 257.863C165.574 266.04 182.382 270.797 199.617 271.8C216.852 272.803 234.098 270.027 250.149 263.668L241.419 241.635C228.579 246.722 214.782 248.942 200.993 248.14C187.205 247.338 173.759 243.532 161.595 236.99L150.369 257.863Z" stroke="white" stroke-width="4" mask="url(#path-7-outside-5)"/>
</g>
<text id="Total Revenue" fill="black" xml:space="preserve" style="white-space: pre" font-family="Salesforce Sans" font-size="12" letter-spacing="0px"><tspan x="167.459" y="175.904">Total Revenue</tspan></text>
<text id="Last 30 days" fill="black" xml:space="preserve" style="white-space: pre" font-family="Salesforce Sans" font-size="12" letter-spacing="0px"><tspan x="22" y="14.904">Last 30 days</tspan></text>
<text id="Rook Security" fill="#080707" xml:space="preserve" style="white-space: pre" font-family="Salesforce Sans" font-size="13" letter-spacing="0px"><tspan x="163" y="323.896">Youth Indiana Pacers Logo </tspan><tspan x="163" y="340.896">Hat</tspan></text>
<g id="$12.7m">
<text fill="#080707" xml:space="preserve" style="white-space: pre" font-family="Salesforce Sans" font-size="20" letter-spacing="0px"><tspan x="139.621" y="325.84">k</tspan></text>
<text fill="#080707" xml:space="preserve" style="white-space: pre" font-family="Salesforce Sans" font-size="20" letter-spacing="0px"><tspan x="103" y="325.84">$75</tspan></text>
</g>
<rect id="Rectangle 522.1" x="65" y="352" width="13" height="13" rx="6.5" fill="#77B9F2"/>
<rect id="Rectangle 522.2" x="65" y="390" width="13" height="13" rx="6.5" fill="#9D53F2"/>
<rect id="Rectangle 522.3" x="65" y="428" width="13" height="13" rx="6.5" fill="#F7A452"/>
<rect id="Rectangle 522.4" x="65" y="467" width="13" height="13" rx="6.5" fill="#4ED4CD"/>
<text id="SCORE Systems" fill="#080707" xml:space="preserve" style="white-space: pre" font-family="Salesforce Sans" font-size="13" letter-spacing="0px"><tspan x="162" y="362.896">Indiana Pacers Nike Custom </tspan><tspan x="162" y="379.896">Swingman Jersey</tspan></text>
<g id="$10.8m">
<text fill="#080707" xml:space="preserve" style="white-space: pre" font-family="Salesforce Sans" font-size="20" letter-spacing="0px"><tspan x="139.621" y="364.84">k</tspan></text>
<text fill="#080707" xml:space="preserve" style="white-space: pre" font-family="Salesforce Sans" font-size="20" letter-spacing="0px"><tspan x="103" y="364.84">$62</tspan></text>
</g>
<text id="Fitzmark" fill="#080707" xml:space="preserve" style="white-space: pre" font-family="Salesforce Sans" font-size="13" letter-spacing="0px"><tspan x="162" y="440.896">Women&#x2019;s Pacers Perfect Pitch Full </tspan><tspan x="162" y="457.896">Zip Track Jacket</tspan></text>
<g id="$6.7m">
<text fill="#080707" xml:space="preserve" style="white-space: pre" font-family="Salesforce Sans" font-size="20" letter-spacing="0px"><tspan x="139.621" y="442.84">k</tspan></text>
<text fill="#080707" xml:space="preserve" style="white-space: pre" font-family="Salesforce Sans" font-size="20" letter-spacing="0px"><tspan x="103" y="442.84">$35</tspan></text>
</g>
<text id="Fitzmark_2" fill="#080707" xml:space="preserve" style="white-space: pre" font-family="Salesforce Sans" font-size="13" letter-spacing="0px"><tspan x="161" y="401.896">Pacers ABA Rubber </tspan><tspan x="161" y="418.896">Basketball</tspan></text>
<g id="$6.7m_2">
<text fill="#080707" xml:space="preserve" style="white-space: pre" font-family="Salesforce Sans" font-size="20" letter-spacing="0px"><tspan x="139.621" y="403.84">k</tspan></text>
<text fill="#080707" xml:space="preserve" style="white-space: pre" font-family="Salesforce Sans" font-size="20" letter-spacing="0px"><tspan x="115.207" y="403.84">42</tspan></text>
<text fill="#080707" xml:space="preserve" style="white-space: pre" font-family="Salesforce Sans" font-size="20" letter-spacing="0px"><tspan x="103" y="403.84">$</tspan></text>
</g>
<text id="Fitzmark_3" fill="#080707" xml:space="preserve" style="white-space: pre" font-family="Salesforce Sans" font-size="13" letter-spacing="0px"><tspan x="163" y="479.896">Youth 4-7 Pacers Nike Replica </tspan><tspan x="163" y="496.896">Shorts</tspan></text>
<g id="$6.7m_3">
<text fill="#080707" xml:space="preserve" style="white-space: pre" font-family="Salesforce Sans" font-size="20" letter-spacing="0px"><tspan x="139.621" y="481.84">k</tspan></text>
<text fill="#080707" xml:space="preserve" style="white-space: pre" font-family="Salesforce Sans" font-size="20" letter-spacing="0px"><tspan x="115.207" y="481.84">84</tspan></text>
<text fill="#080707" xml:space="preserve" style="white-space: pre" font-family="Salesforce Sans" font-size="20" letter-spacing="0px"><tspan x="103" y="481.84">$</tspan></text>
</g>
<g id="Group 43">
<rect id="Rectangle 522" x="65" y="312" width="13" height="13" rx="6.5" fill="#3296ED"/>
</g>
</g>
</svg>
