<svg width="815" height="330" viewBox="0 0 815 330" fill="none" xmlns="http://www.w3.org/2000/svg">
<g id="pacers-dash-card-06">
<g id="Channel Available  Copy">
<rect id="Rectangle Copy 12" width="815" height="330" fill="white"/>
</g>
<text id="Addressable populati" fill="#080707" xml:space="preserve" style="white-space: pre" font-family="Salesforce Sans" font-size="14" letter-spacing="0px"><tspan x="593.175" y="31.914">Conversion Channels</tspan></text>
<g id="Icons / Utility Icon Copy">
<g id="Icons / z-nested / icon glyphs / utility /info">
<path id="Mask" fill-rule="evenodd" clip-rule="evenodd" d="M742 19.6154C737.908 19.6154 734.615 22.9077 734.615 27C734.615 31.0923 737.908 34.3846 742 34.3846C746.092 34.3846 749.384 31.0923 749.384 27C749.384 22.9077 746.092 19.6154 742 19.6154ZM742 23.3384C742.523 23.3384 742.923 23.7384 742.923 24.2615C742.923 24.7846 742.523 25.1846 742 25.1846C741.477 25.1846 741.077 24.7846 741.077 24.2615C741.077 23.7384 741.477 23.3384 742 23.3384V23.3384ZM743.538 29.8C743.538 29.9538 743.415 30.0769 743.231 30.0769H740.769C740.615 30.0769 740.461 29.9846 740.461 29.8V29.1846C740.461 29.0307 740.584 28.8461 740.769 28.8461C740.923 28.8461 741.077 28.7538 741.077 28.5692V27.3384C741.077 27.1846 740.954 27 740.769 27C740.615 27 740.461 26.9077 740.461 26.723V26.1077C740.461 25.9538 740.584 25.7692 740.769 25.7692H742.615C742.769 25.7692 742.923 25.923 742.923 26.1077V28.5692C742.923 28.723 743.046 28.8461 743.231 28.8461C743.384 28.8461 743.538 29 743.538 29.1846V29.8Z" fill="black"/>
<mask id="mask0" mask-type="alpha" maskUnits="userSpaceOnUse" x="734" y="19" width="16" height="16">
<path id="Mask_2" fill-rule="evenodd" clip-rule="evenodd" d="M742 19.6154C737.908 19.6154 734.615 22.9077 734.615 27C734.615 31.0923 737.908 34.3846 742 34.3846C746.092 34.3846 749.384 31.0923 749.384 27C749.384 22.9077 746.092 19.6154 742 19.6154ZM742 23.3384C742.523 23.3384 742.923 23.7384 742.923 24.2615C742.923 24.7846 742.523 25.1846 742 25.1846C741.477 25.1846 741.077 24.7846 741.077 24.2615C741.077 23.7384 741.477 23.3384 742 23.3384V23.3384ZM743.538 29.8C743.538 29.9538 743.415 30.0769 743.231 30.0769H740.769C740.615 30.0769 740.461 29.9846 740.461 29.8V29.1846C740.461 29.0307 740.584 28.8461 740.769 28.8461C740.923 28.8461 741.077 28.7538 741.077 28.5692V27.3384C741.077 27.1846 740.954 27 740.769 27C740.615 27 740.461 26.9077 740.461 26.723V26.1077C740.461 25.9538 740.584 25.7692 740.769 25.7692H742.615C742.769 25.7692 742.923 25.923 742.923 26.1077V28.5692C742.923 28.723 743.046 28.8461 743.231 28.8461C743.384 28.8461 743.538 29 743.538 29.1846V29.8Z" fill="white"/>
</mask>
<g mask="url(#mask0)">
<g id="Icon Color">
<g id="z-nested / Color Tokens / PALETTE_GRAY_9">
<path id="Rectangle" fill-rule="evenodd" clip-rule="evenodd" d="M734 19H750V35H734V19Z" fill="#706E6B"/>
</g>
</g>
</g>
</g>
</g>
<path id="Rectangle 9" fill-rule="evenodd" clip-rule="evenodd" d="M658 259.4H671.094V305H658V259.4Z" fill="#6247B3"/>
<rect id="Rectangle 8" x="658" y="144.2" width="13.0939" height="113.6" fill="#476FB3"/>
<rect id="Rectangle 7" x="658" y="110.6" width="13.0939" height="32" fill="#3D9799"/>
<rect id="Rectangle 6" x="658" y="53" width="13.0939" height="56" fill="#DDDBDA"/>
<g id="s9">
<text id="458" fill="#080707" xml:space="preserve" style="white-space: pre" font-family="Salesforce Sans" font-size="18" letter-spacing="0px"><tspan x="676.001" y="297.818">987K</tspan></text>
<text id="stage9" fill="#3E3E3C" xml:space="preserve" style="white-space: pre" font-family="Salesforce Sans" font-size="12" letter-spacing="0px"><tspan x="676.001" y="275.212">Retail Store</tspan></text>
</g>
<g id="s8">
<text id="stage8" fill="#3E3E3C" xml:space="preserve" style="white-space: pre" font-family="Salesforce Sans" font-size="12" letter-spacing="0px"><tspan x="676" y="174.212">Retail </tspan><tspan x="676" y="192.212">Website</tspan></text>
</g>
<g id="s7">
<text id="226" fill="#080707" xml:space="preserve" style="white-space: pre" font-family="Salesforce Sans" font-size="18" letter-spacing="0px"><tspan x="676.001" y="142.818">700K</tspan></text>
<text id="226_2" fill="#080707" xml:space="preserve" style="white-space: pre" font-family="Salesforce Sans" font-size="18" letter-spacing="0px"><tspan x="676.001" y="214.818">5M</tspan></text>
<text id="stage7" fill="#3E3E3C" xml:space="preserve" style="white-space: pre" font-family="Salesforce Sans" font-size="12" letter-spacing="0px"><tspan x="676.001" y="118.212">Partner Sites</tspan></text>
</g>
<g id="branch 1">
<path id="Shape3" d="M134 95C395.372 95 395.125 182 656.497 182" stroke="url(#paint0_linear)" stroke-width="74"/>
<path id="Shape2" d="M134 129C395.248 129 395.248 264 656.496 264" stroke="url(#paint1_linear)" stroke-width="7"/>
<path id="Shape1" d="M134 60C396.998 60 392.602 115 655.6 115" stroke="url(#paint2_linear)" stroke-width="10"/>
<text id="25" fill="#3E3E3C" xml:space="preserve" style="white-space: pre" font-family="Salesforce Sans" font-size="12" letter-spacing="0px"><tspan x="628.008" y="133.212">263K</tspan></text>
<text id="25_2" fill="#3E3E3C" xml:space="preserve" style="white-space: pre" font-family="Salesforce Sans" font-size="12" letter-spacing="0px"><tspan x="628.008" y="282.212">175K</tspan></text>
<text id="25_3" fill="white" xml:space="preserve" style="white-space: pre" font-family="Salesforce Sans" font-size="12" letter-spacing="0px"><tspan x="620.008" y="186.212">3.7M</tspan></text>
</g>
<rect id="Rectangle 5.1" x="120.344" y="282.6" width="11.0088" height="22.4" fill="#DDDBDA"/>
<rect id="Rectangle 4" x="120.344" y="249" width="11.0088" height="32" fill="#DDDBDA"/>
<rect id="Rectangle 3" x="120.344" y="53" width="11.0088" height="90.4" fill="#44A2F5"/>
<rect id="Rectangle 2" x="120.344" y="182.6" width="11.0088" height="64.8" fill="#DDDBDA"/>
<rect id="Rectangle 1" x="120.344" y="145" width="11.0088" height="36" fill="#DDDBDA"/>
<g id="s4">
<text id="180" fill="#3E3E3C" xml:space="preserve" style="white-space: pre" font-family="Salesforce Sans" font-size="12" letter-spacing="0px"><tspan x="82" y="271.212">175K</tspan></text>
<text id="stage4" fill="#3E3E3C" xml:space="preserve" style="white-space: pre" font-family="Salesforce Sans" font-size="12" letter-spacing="0px"><tspan x="22.8672" y="241.212">Abandoned Cart </tspan><tspan x="78.9766" y="255.212">Emails</tspan></text>
</g>
<g id="s3">
<text id="689" fill="#080707" xml:space="preserve" style="white-space: pre" font-family="Salesforce Sans" font-size="18" letter-spacing="0px"><tspan x="80" y="90.818">7M</tspan></text>
<text id="stage3" fill="#3E3E3C" xml:space="preserve" style="white-space: pre" font-family="Salesforce Sans" font-size="12" letter-spacing="0px"><tspan x="78.4703" y="63.212">Email</tspan></text>
</g>
<g id="s2">
<text id="500" fill="#3E3E3C" xml:space="preserve" style="white-space: pre" font-family="Salesforce Sans" font-size="12" letter-spacing="0px"><tspan x="82.0781" y="170.212">3.3M</tspan></text>
<text id="stage2" fill="#3E3E3C" xml:space="preserve" style="white-space: pre" font-family="Salesforce Sans" font-size="12" letter-spacing="0px"><tspan x="86.5195" y="154.212">SMS</tspan></text>
</g>
<g id="s2_2">
<text id="500_2" fill="#3E3E3C" xml:space="preserve" style="white-space: pre" font-family="Salesforce Sans" font-size="12" letter-spacing="0px"><tspan x="81.5977" y="209.212">890K</tspan></text>
<text id="stage2_2" fill="#3E3E3C" xml:space="preserve" style="white-space: pre" font-family="Salesforce Sans" font-size="12" letter-spacing="0px"><tspan x="27.4219" y="191.212">Push Messages</tspan></text>
</g>
<g id="s6">
<text id="stage6" fill="#3E3E3C" xml:space="preserve" style="white-space: pre" font-family="Salesforce Sans" font-size="12" letter-spacing="0px"><tspan x="676" y="67.212">Support Centre</tspan></text>
<text id="521" fill="#080707" xml:space="preserve" style="white-space: pre" font-family="Salesforce Sans" font-size="18" letter-spacing="0px"><tspan x="676" y="91.818">1.3M</tspan></text>
</g>
<g id="s5">
<text id="stage5" fill="#3E3E3C" xml:space="preserve" style="white-space: pre" font-family="Salesforce Sans" font-size="12" letter-spacing="0px"><tspan x="26" y="291.212">Support Emails</tspan></text>
</g>
<text id="120" fill="#3E3E3C" xml:space="preserve" style="white-space: pre" font-family="Salesforce Sans" font-size="12" letter-spacing="0px"><tspan x="81.9009" y="306.212">117K</tspan></text>
<text id="1/31/2019, 10:23 AM" fill="#2B2826" xml:space="preserve" style="white-space: pre" font-family="Salesforce Sans" font-size="12" letter-spacing="0px"><tspan x="19" y="14.712">Last 120 days</tspan></text>
</g>
<defs>
<linearGradient id="paint0_linear" x1="134" y1="67.9409" x2="656.497" y2="67.941" gradientUnits="userSpaceOnUse">
<stop stop-color="#44A2F5"/>
<stop offset="0.339385" stop-color="#44A2F5"/>
<stop offset="1" stop-color="#476FB3"/>
</linearGradient>
<linearGradient id="paint1_linear" x1="134" y1="61.5" x2="656.496" y2="61.5" gradientUnits="userSpaceOnUse">
<stop stop-color="#44A2F5"/>
<stop offset="0.337632" stop-color="#44A2F5"/>
<stop offset="1" stop-color="#6247B3"/>
</linearGradient>
<linearGradient id="paint2_linear" x1="131.311" y1="215.628" x2="657.308" y2="215.628" gradientUnits="userSpaceOnUse">
<stop stop-color="#44A2F5"/>
<stop offset="0.339963" stop-color="#44A2F5"/>
<stop offset="1" stop-color="#59B37B"/>
</linearGradient>
</defs>
</svg>
