<?xml version="1.0" encoding="UTF-8"?>
<svg width="14px" height="14px" viewBox="0 0 14 14" version="1.1" xmlns="http://www.w3.org/2000/svg" xmlns:xlink="http://www.w3.org/1999/xlink">
	<defs>
		<style>
			
		</style>
	</defs>

    <!-- Generator: Sketch 50.2 (55047) - http://www.bohemiancoding.com/sketch -->
    <title>201.the-x</title>
    <desc>Created with Sketch.</desc>
    <defs></defs>
    <g id="DMP-201" stroke="none" stroke-width="1" fill="none" fill-rule="evenodd">
        <g id="JB-5" transform="translate(-1194.000000, -160.000000)" fill="#54698D">
            <path d="M1207.8337,161.771426 C1208.05543,161.549691 1208.05543,161.190221 1207.8337,160.968486 L1207.03151,160.166302 C1206.80978,159.944566 1206.45031,159.944566 1206.22857,160.166302 L1201.26752,165.127355 C1201.11995,165.274926 1200.88005,165.274926 1200.73248,165.127355 L1195.77143,160.166302 C1195.54969,159.944566 1195.19022,159.944566 1194.96849,160.166302 L1194.1663,160.968486 C1193.94457,161.190221 1193.94457,161.549691 1194.1663,161.771426 L1199.12735,166.732479 C1199.27493,166.880051 1199.27493,167.119949 1199.12735,167.267521 L1194.1663,172.228574 C1193.94457,172.450309 1193.94457,172.809779 1194.1663,173.031514 L1194.96849,173.833698 C1195.19022,174.055434 1195.54969,174.055434 1195.77143,173.833698 L1200.73248,168.872645 C1200.88005,168.725074 1201.11995,168.725074 1201.26752,168.872645 L1206.22857,173.833698 C1206.45031,174.055434 1206.80978,174.055434 1207.03151,173.833698 L1207.8337,173.031514 C1208.05543,172.809779 1208.05543,172.450309 1207.8337,172.228574 L1202.87265,167.267521 C1202.72507,167.119949 1202.72507,166.880051 1202.87265,166.732479 L1207.8337,161.771426 Z" id="201.the-x"></path>
        </g>
    </g>
</svg>