<?xml version="1.0" encoding="UTF-8"?>
<svg width="14px" height="11px" viewBox="0 0 14 11" version="1.1" xmlns="http://www.w3.org/2000/svg" xmlns:xlink="http://www.w3.org/1999/xlink">
	<defs>
		<style>
			
		</style>
	</defs>

    <!-- Generator: Sketch 50.2 (55047) - http://www.bohemiancoding.com/sketch -->
    <title>Shape</title>
    <desc>Created with Sketch.</desc>
    <defs></defs>
    <g id="DMP-201" stroke="none" stroke-width="1" fill="none" fill-rule="evenodd">
        <g id="JB-7" transform="translate(-611.000000, -159.000000)" fill="#9FAAB5">
            <g id="Drawer/50%" transform="translate(-3.000000, 134.000000)">
                <path d="M614.442938,31.3725212 L624.124294,31.3725212 C624.377401,31.3725212 624.503955,31.684136 624.314124,31.8711048 L621.529944,34.6133144 C621.340113,34.8002833 621.340113,35.0495751 621.529944,35.2365439 L622.162712,35.8597734 C622.352542,36.0467422 622.60565,36.0467422 622.79548,35.8597734 L627.857627,30.8116147 C628.047458,30.6246459 628.047458,30.3753541 627.857627,30.1883853 L622.79548,25.1402266 C622.60565,24.9532578 622.352542,24.9532578 622.162712,25.1402266 L621.529944,25.7634561 C621.40339,25.9504249 621.40339,26.1997167 621.529944,26.3866856 L624.377401,29.1288952 C624.503955,29.315864 624.440678,29.6274788 624.124294,29.6274788 L614.442938,29.6274788 C614.189831,29.6274788 614,29.8144476 614,30.0637394 L614,30.8739377 C614,31.1232295 614.189831,31.3725212 614.442938,31.3725212 L614.442938,31.3725212 Z" id="Shape" transform="translate(621.000000, 30.500000) rotate(-180.000000) translate(-621.000000, -30.500000) "></path>
            </g>
        </g>
    </g>
</svg>