<?xml version="1.0" encoding="UTF-8"?>
<svg width="1282px" height="56px" viewBox="0 0 1282 56" version="1.1" xmlns="http://www.w3.org/2000/svg" xmlns:xlink="http://www.w3.org/1999/xlink">
    <!-- Generator: Sketch 50.2 (55047) - http://www.bohemiancoding.com/sketch -->
    <title>segments.manage-segments.footer</title>
    <desc>Created with Sketch.</desc>
    <defs></defs>
    <g id="Storyboard---5/31" stroke="none" stroke-width="1" fill="none" fill-rule="evenodd">
        <g id="Manage-Segments" transform="translate(0.000000, -1128.000000)">
            <g id="Group-17" transform="translate(0.000000, 1128.000000)">
                <rect id="Rectangle-8" fill="#F7F9FB" x="0" y="0" width="1280" height="55"></rect>
                <rect id="Rectangle-827" stroke="#E1E6EF" fill="#F7F9FB" x="1195.5" y="12.5" width="60" height="31" rx="4"></rect>
                <g id="Group-16" transform="translate(1237.000000, 20.000000)" fill="#536D95">
                    <g id="down" transform="translate(0.000000, 9.240000)">
                        <path d="M0.384,0.24 L8.256,0.24 C8.448,0.24 8.64,0.528 8.448,0.72 L4.608,5.424 C4.464,5.568 4.176,5.568 4.032,5.424 L0.192,0.72 C-4.85722573e-16,0.528 0.144,0.24 0.384,0.24 L0.384,0.24 Z" id="Shape"></path>
                    </g>
                    <g id="down-copy" transform="translate(4.500000, 3.760000) scale(1, -1) translate(-4.500000, -3.760000) translate(0.000000, 0.760000)">
                        <path d="M0.384,0.24 L8.256,0.24 C8.448,0.24 8.64,0.528 8.448,0.72 L4.608,5.424 C4.464,5.568 4.176,5.568 4.032,5.424 L0.192,0.72 C-4.85722573e-16,0.528 0.144,0.24 0.384,0.24 L0.384,0.24 Z" id="Shape"></path>
                    </g>
                </g>
                <path d="M1217.384,25.736 C1217.384,26.3040028 1217.264,26.8139977 1217.024,27.266 C1216.784,27.7180023 1216.382,28.2159973 1215.818,28.76 C1215.254,29.3040027 1214.36001,30.0879949 1213.136,31.112 L1217.66,31.112 L1217.66,32 L1211.732,32 L1211.732,31.172 C1213.11601,29.979994 1214.102,29.1060028 1214.69,28.55 C1215.278,27.9939972 1215.694,27.516002 1215.938,27.116 C1216.182,26.715998 1216.304,26.2880023 1216.304,25.832 C1216.304,25.3439976 1216.136,24.9480015 1215.8,24.644 C1215.464,24.3399985 1215.004,24.188 1214.42,24.188 C1213.972,24.188 1213.578,24.2719992 1213.238,24.44 C1212.898,24.6080008 1212.556,24.8599983 1212.212,25.196 L1211.576,24.644 C1212,24.1959978 1212.436,23.8620011 1212.884,23.642 C1213.332,23.4219989 1213.872,23.312 1214.504,23.312 C1215.104,23.312 1215.622,23.4219989 1216.058,23.642 C1216.494,23.8620011 1216.824,24.1559982 1217.048,24.524 C1217.272,24.8920018 1217.384,25.2959978 1217.384,25.736 Z M1218.8,31.028 L1219.4,30.404 C1219.776,30.7320016 1220.14,30.9639993 1220.492,31.1 C1220.844,31.2360007 1221.264,31.304 1221.752,31.304 C1222.424,31.304 1222.95,31.1260018 1223.33,30.77 C1223.71,30.4139982 1223.9,29.932003 1223.9,29.324 C1223.9,28.7559972 1223.734,28.3180015 1223.402,28.01 C1223.07,27.7019985 1222.612,27.548 1222.028,27.548 C1221.668,27.548 1221.346,27.5819997 1221.062,27.65 C1220.778,27.7180003 1220.496,27.8239993 1220.216,27.968 L1219.496,27.968 L1219.496,23.504 L1224.524,23.504 L1224.524,24.392 L1220.504,24.392 L1220.504,27.056 C1221.072,26.8159988 1221.672,26.696 1222.304,26.696 C1223.112,26.696 1223.76,26.9319976 1224.248,27.404 C1224.736,27.8760024 1224.98,28.507996 1224.98,29.3 C1224.98,29.8760029 1224.852,30.3839978 1224.596,30.824 C1224.34,31.2640022 1223.97,31.6039988 1223.486,31.844 C1223.002,32.0840012 1222.428,32.204 1221.764,32.204 C1221.116,32.204 1220.56,32.108001 1220.096,31.916 C1219.632,31.723999 1219.2,31.428002 1218.8,31.028 Z" id="25" fill="#536D95"></path>
                <g id="Group-15" transform="translate(556.000000, 14.000000)">
                    <g id="jump_to_bottom" transform="translate(185.000000, 14.000000) rotate(-90.000000) translate(-185.000000, -14.000000) translate(180.000000, 8.000000)" fill="#536D95">
                        <path d="M9.08333333,7.03333333 L4.95,11.2333333 C4.75,11.4333333 4.48333333,11.4333333 4.28333333,11.2333333 L0.15,7.03333333 C-0.05,6.9 -0.05,6.56666667 0.15,6.36666667 L0.816666667,5.7 C1.01666667,5.5 1.28333333,5.5 1.48333333,5.7 L4.28333333,8.56666667 C4.48333333,8.76666667 4.75,8.76666667 4.95,8.56666667 L7.75,5.7 C7.95,5.56666667 8.21666667,5.56666667 8.41666667,5.7 L9.08333333,6.43333333 C9.28333333,6.56666667 9.28333333,6.9 9.08333333,7.03333333 Z M9.08333333,1.5 L4.95,5.7 C4.75,5.9 4.48333333,5.9 4.28333333,5.7 L0.15,1.5 C-0.05,1.3 -0.05,0.966666667 0.15,0.833333333 L0.816666667,0.1 C1.01666667,-0.0333333333 1.28333333,-0.0333333333 1.48333333,0.1 L4.28333333,3.03333333 C4.48333333,3.23333333 4.75,3.23333333 4.95,3.03333333 L7.75,0.166666667 C7.95,-0.0333333333 8.21666667,-0.0333333333 8.41666667,0.166666667 L9.08333333,0.833333333 C9.28333333,1.03333333 9.28333333,1.3 9.08333333,1.5 L9.08333333,1.5 Z" id="Shape"></path>
                    </g>
                    <path d="M24.5,26.5 L24.5,0.5 L4.00281647,0.5 C2.07183831,0.5 0.5,2.06855743 0.5,3.99847066 L0.5,23.0015293 C0.5,24.9321119 2.06897451,26.5 4.00281647,26.5 L24.5,26.5 Z" id="Rectangle-9" stroke="#E1E6EF" fill="#F7F9FB"></path>
                    <rect id="Rectangle-9-Copy-2" stroke="#E1E6EF" fill="#F7F9FB" x="48.5" y="0.5" width="24" height="26"></rect>
                    <rect id="Rectangle-9-Copy-4" stroke="#E1E6EF" fill="#F7F9FB" x="120.5" y="0.5" width="24" height="26"></rect>
                    <rect id="Rectangle-9-Copy" stroke="#E1E6EF" fill="#F2F2F2" x="24.5" y="0.5" width="24" height="26"></rect>
                    <rect id="Rectangle-9-Copy-5" stroke="#E1E6EF" fill="#F7F9FB" x="96.5" y="0.5" width="24" height="26"></rect>
                    <rect id="Rectangle-9-Copy-3" stroke="#E1E6EF" fill="#F7F9FB" x="72.5" y="0.5" width="24" height="26"></rect>
                    <path d="M144.5,0.5 L144.5,26.5 L164.997184,26.5 C166.928162,26.5 168.5,24.9314426 168.5,23.0015293 L168.5,3.99847066 C168.5,2.06788814 166.931025,0.5 164.997184,0.5 L144.5,0.5 Z" id="Rectangle-9-Copy-6" stroke="#E1E6EF" fill="#F7F9FB"></path>
                    <g id="jump_to_bottom" transform="translate(157.000000, 13.000000) rotate(-90.000000) translate(-157.000000, -13.000000) translate(152.000000, 10.000000)" fill="#536D95">
                        <path d="M9.08333333,1.5 L4.95,5.7 C4.75,5.9 4.48333333,5.9 4.28333333,5.7 L0.15,1.5 C-0.05,1.3 -0.05,0.966666667 0.15,0.833333333 L0.816666667,0.1 C1.01666667,-0.0333333333 1.28333333,-0.0333333333 1.48333333,0.1 L4.28333333,3.03333333 C4.48333333,3.23333333 4.75,3.23333333 4.95,3.03333333 L7.75,0.166666667 C7.95,-0.0333333333 8.21666667,-0.0333333333 8.41666667,0.166666667 L9.08333333,0.833333333 C9.28333333,1.03333333 9.28333333,1.3 9.08333333,1.5 L9.08333333,1.5 Z" id="Shape"></path>
                    </g>
                    <text id="1" font-family="SalesforceSans-Regular, Salesforce Sans" font-size="12" font-weight="normal" fill="#536D95">
                        <tspan x="33.68" y="18">1</tspan>
                    </text>
                    <text id="2" font-family="SalesforceSans-Regular, Salesforce Sans" font-size="12" font-weight="normal" fill="#536D95">
                        <tspan x="57.68" y="18">2</tspan>
                    </text>
                    <text id="3" font-family="SalesforceSans-Regular, Salesforce Sans" font-size="12" font-weight="normal" fill="#536D95">
                        <tspan x="81.68" y="18">3</tspan>
                    </text>
                    <text id="4" font-family="SalesforceSans-Regular, Salesforce Sans" font-size="12" font-weight="normal" fill="#536D95">
                        <tspan x="105.68" y="18">4</tspan>
                    </text>
                    <text id="5" font-family="SalesforceSans-Regular, Salesforce Sans" font-size="12" font-weight="normal" fill="#536D95">
                        <tspan x="129.68" y="18">5</tspan>
                    </text>
                </g>
                <g id="jump_to_bottom" transform="translate(540.000000, 28.000000) scale(-1, 1) rotate(-90.000000) translate(-540.000000, -28.000000) translate(535.000000, 22.000000)" fill="#536D95">
                    <path d="M9.08333333,7.03333333 L4.95,11.2333333 C4.75,11.4333333 4.48333333,11.4333333 4.28333333,11.2333333 L0.15,7.03333333 C-0.05,6.9 -0.05,6.56666667 0.15,6.36666667 L0.816666667,5.7 C1.01666667,5.5 1.28333333,5.5 1.48333333,5.7 L4.28333333,8.56666667 C4.48333333,8.76666667 4.75,8.76666667 4.95,8.56666667 L7.75,5.7 C7.95,5.56666667 8.21666667,5.56666667 8.41666667,5.7 L9.08333333,6.43333333 C9.28333333,6.56666667 9.28333333,6.9 9.08333333,7.03333333 Z M9.08333333,1.5 L4.95,5.7 C4.75,5.9 4.48333333,5.9 4.28333333,5.7 L0.15,1.5 C-0.05,1.3 -0.05,0.966666667 0.15,0.833333333 L0.816666667,0.1 C1.01666667,-0.0333333333 1.28333333,-0.0333333333 1.48333333,0.1 L4.28333333,3.03333333 C4.48333333,3.23333333 4.75,3.23333333 4.95,3.03333333 L7.75,0.166666667 C7.95,-0.0333333333 8.21666667,-0.0333333333 8.41666667,0.166666667 L9.08333333,0.833333333 C9.28333333,1.03333333 9.28333333,1.3 9.08333333,1.5 L9.08333333,1.5 Z" id="Shape"></path>
                </g>
                <g id="jump_to_bottom" transform="translate(569.000000, 28.000000) scale(-1, 1) rotate(-90.000000) translate(-569.000000, -28.000000) translate(564.000000, 25.000000)" fill="#536D95">
                    <path d="M9.08333333,1.5 L4.95,5.7 C4.75,5.9 4.48333333,5.9 4.28333333,5.7 L0.15,1.5 C-0.05,1.3 -0.05,0.966666667 0.15,0.833333333 L0.816666667,0.1 C1.01666667,-0.0333333333 1.28333333,-0.0333333333 1.48333333,0.1 L4.28333333,3.03333333 C4.48333333,3.23333333 4.75,3.23333333 4.95,3.03333333 L7.75,0.166666667 C7.95,-0.0333333333 8.21666667,-0.0333333333 8.41666667,0.166666667 L9.08333333,0.833333333 C9.28333333,1.03333333 9.28333333,1.3 9.08333333,1.5 L9.08333333,1.5 Z" id="Shape"></path>
                </g>
                <text id="Total-Items:-401" font-family="SalesforceSans-Regular, Salesforce Sans" font-size="12" font-weight="normal" fill="#5C749A">
                    <tspan x="24.704" y="32">Total Items: 401</tspan>
                </text>
                <text id="Per-Page:" font-family="SalesforceSans-Regular, Salesforce Sans" font-size="12" font-weight="normal" fill="#5C749A">
                    <tspan x="1132.932" y="32">Per Page:</tspan>
                </text>
            </g>
        </g>
    </g>
</svg>