<?xml version="1.0" encoding="UTF-8"?>
<svg width="649px" height="33px" viewBox="0 0 649 33" version="1.1" xmlns="http://www.w3.org/2000/svg" xmlns:xlink="http://www.w3.org/1999/xlink">
    <!-- Generator: Sketch 50.2 (55047) - http://www.bohemiancoding.com/sketch -->
    <title>segments.manage-segments.menu-a-left</title>
    <desc>Created with Sketch.</desc>
    <defs>
        <rect id="path-1" x="0" y="95" width="1280" height="50"></rect>
        <filter x="-0.1%" y="-3.0%" width="100.2%" height="106.0%" filterUnits="objectBoundingBox" id="filter-2">
            <feGaussianBlur stdDeviation="0.5" in="SourceAlpha" result="shadowBlurInner1"></feGaussianBlur>
            <feOffset dx="0" dy="2" in="shadowBlurInner1" result="shadowOffsetInner1"></feOffset>
            <feComposite in="shadowOffsetInner1" in2="SourceAlpha" operator="arithmetic" k2="-1" k3="1" result="shadowInnerInner1"></feComposite>
            <feColorMatrix values="0 0 0 0 1   0 0 0 0 1   0 0 0 0 1  0 0 0 1 0" type="matrix" in="shadowInnerInner1"></feColorMatrix>
        </filter>
    </defs>
    <g id="Storyboard---5/31" stroke="none" stroke-width="1" fill="none" fill-rule="evenodd">
        <g id="Manage-Segments" transform="translate(-24.000000, -195.000000)">
            <g id="Group-20" transform="translate(0.000000, 91.000000)">
                <g id="Rectangle-4">
                    <use fill="#F7F9FB" fill-rule="evenodd" xlink:href="#path-1"></use>
                    <use fill="black" fill-opacity="1" filter="url(#filter-2)" xlink:href="#path-1"></use>
                </g>
            </g>
            <g id="Button:-filter" transform="translate(243.000000, 195.000000)">
                <rect id="button" stroke="#D8DDE6" fill="#FFFFFF" x="0.5" y="0.5" width="43" height="31" rx="4"></rect>
                <text id="0" font-family="SalesforceSans-Regular, Salesforce Sans" font-size="12" font-weight="normal" fill="#54698D">
                    <tspan x="27" y="21">0</tspan>
                </text>
                <path d="M22.502173,9 L9.49782052,9 C9.05848429,9 8.85346071,9.54090909 9.11706245,9.89090909 L14.7991444,17.1136364 C14.9748789,17.3363636 15.0627461,17.6545455 15.0627461,17.9409091 L15.0627461,22.5227273 C15.0627461,22.7772727 15.2970588,23 15.5313714,23 L16.4100439,23 C16.6443566,23 16.8200911,22.7772727 16.8200911,22.5227273 L16.8200911,17.9409091 C16.8200911,17.6227273 16.9372474,17.3363636 17.142271,17.1136364 L22.8829311,9.89090909 C23.1465328,9.54090909 22.9415092,9 22.502173,9" id="filter" fill="#54698D"></path>
            </g>
            <g id="Button:-filter-Copy-2" transform="translate(291.000000, 195.000000)">
                <g id="favorite-icon--inactive-">
                    <rect id="button" stroke="#D8DDE6" fill="#FFFFFF" x="0.5" y="0.5" width="31" height="31" rx="4"></rect>
                    <path d="M16.4852492,9.29159909 L18.3291961,13.2767866 L22.5023391,13.8599848 C22.9875882,13.9571845 23.1816879,14.5403827 22.7934886,14.9291815 L19.7849436,17.9423721 L20.5613423,22.3163584 C20.5613423,22.8023569 20.0760931,23.1911556 19.6878938,22.8995566 L16,20.8583629 L12.3121062,22.8995566 C11.9239069,23.1911556 11.3416078,22.8023569 11.4386577,22.3163584 L12.2150564,17.9423721 L9.20651143,14.9291815 C8.81831209,14.5403827 9.01241176,13.9571845 9.49766094,13.8599848 L13.6708039,13.2767866 L15.5147508,9.29159909 C15.7088505,8.9028003 16.2911495,8.9028003 16.4852492,9.29159909 L16.4852492,9.29159909 Z" id="Shape" stroke="#54698D"></path>
                </g>
                <rect id="button" stroke="#D8DDE6" fill="#FFFFFF" x="231.5" y="0.5" width="31" height="31" rx="4"></rect>
                <g id="justify_text" transform="translate(241.000000, 10.000000)" fill="#54698D">
                    <path d="M13.4909091,0.7 C13.4909091,0.42 13.2363636,0.21 13.0454545,0.21 L0.954545455,0.21 C0.763636364,0.21 0.509090909,0.42 0.509090909,0.7 L0.509090909,1.68 C0.509090909,1.96 0.763636364,2.17 0.954545455,2.17 L13.0454545,2.17 C13.2363636,2.17 13.4909091,1.96 13.4909091,1.68 L13.4909091,0.7 Z M9.84242424,4.55 C9.84242424,4.34 9.65941771,4.06 9.5221628,4.06 L0.829352347,4.06 C0.692097445,4.06 0.509090909,4.34 0.509090909,4.55 L0.509090909,5.53 C0.509090909,5.81 0.692097445,6.02 0.829352347,6.02 L9.5221628,6.02 C9.65941771,6.02 9.84242424,5.81 9.84242424,5.53 L9.84242424,4.55 Z M4.00909091,12.32 C4.00909091,12.04 3.94046346,11.83 3.88899287,11.83 L0.629188948,11.83 C0.57771836,11.83 0.509090909,12.04 0.509090909,12.32 L0.509090909,13.3 C0.509090909,13.58 0.57771836,13.79 0.629188948,13.79 L3.88899287,13.79 C3.94046346,13.79 4.00909091,13.58 4.00909091,13.3 L4.00909091,12.32 Z M6.34242424,8.47 C6.34242424,8.19 6.22804516,7.98 6.14226084,7.98 L0.709254308,7.98 C0.623469994,7.98 0.509090909,8.19 0.509090909,8.47 L0.509090909,9.45 C0.509090909,9.66 0.623469994,9.94 0.709254308,9.94 L6.14226084,9.94 C6.22804516,9.94 6.34242424,9.66 6.34242424,9.45 L6.34242424,8.47 L6.34242424,8.47 Z" id="Shape"></path>
                </g>
            </g>
            <g id="Button-New" transform="translate(558.000000, 195.000000)">
                <rect id="Rectangle-827" stroke="#E1E6EF" fill="#FFFFFF" x="0.5" y="0.5" width="60" height="31" rx="4"></rect>
                <path d="M23.68,12.332 L23.056,13.016 C22.7599985,12.7519987 22.4220019,12.5500007 22.042,12.41 C21.6619981,12.2699993 21.2600021,12.2 20.836,12.2 C19.7959948,12.2 19.0120026,12.5239968 18.484,13.172 C17.9559974,13.8200032 17.692,14.6759947 17.692,15.74 C17.692,16.7960053 17.9559974,17.6479968 18.484,18.296 C19.0120026,18.9440032 19.7879949,19.268 20.812,19.268 C21.2680023,19.268 21.699998,19.1820009 22.108,19.01 C22.516002,18.8379991 22.8719985,18.6040015 23.176,18.308 L23.824,19.016 C23.4559982,19.3840018 23.0100026,19.6739989 22.486,19.886 C21.9619974,20.0980011 21.3920031,20.204 20.776,20.204 C19.8879956,20.204 19.1300031,20.0160019 18.502,19.64 C17.8739969,19.2639981 17.3980016,18.7400034 17.074,18.068 C16.7499984,17.3959966 16.588,16.6200044 16.588,15.74 C16.588,14.8599956 16.7499984,14.0840034 17.074,13.412 C17.3980016,12.7399966 17.8759968,12.2180019 18.508,11.846 C19.1400032,11.4739981 19.9039955,11.288 20.8,11.288 C21.3680028,11.288 21.8999975,11.3779991 22.396,11.558 C22.8920025,11.7380009 23.3199982,11.9959983 23.68,12.332 Z M26.152,11.504 L26.152,20 L25.132,20 L25.132,11.504 L26.152,11.504 Z M33.352,17.312 L28.816,17.312 C28.8560002,17.9360031 29.0439983,18.4319982 29.38,18.8 C29.7160017,19.1680018 30.1959969,19.352 30.82,19.352 C31.1880018,19.352 31.5179985,19.3020005 31.81,19.202 C32.1020015,19.1019995 32.3959985,18.952001 32.692,18.752 L33.148,19.412 C32.8039983,19.6600012 32.4380019,19.8479994 32.05,19.976 C31.6619981,20.1040006 31.2320024,20.168 30.76,20.168 C29.8239953,20.168 29.0940026,19.872003 28.57,19.28 C28.0459974,18.687997 27.784,17.9000049 27.784,16.916 C27.784,16.2839968 27.8959989,15.7280024 28.12,15.248 C28.3440011,14.7679976 28.6699979,14.3940013 29.098,14.126 C29.5260021,13.8579987 30.039997,13.724 30.64,13.724 C31.5280044,13.724 32.2059977,14.0119971 32.674,14.588 C33.1420023,15.1640029 33.376,15.9279952 33.376,16.88 C33.376,17.072001 33.3680001,17.2159995 33.352,17.312 Z M32.38,16.52 C32.3639999,15.911997 32.2080015,15.4240018 31.912,15.056 C31.6159985,14.6879982 31.1880028,14.504 30.628,14.504 C30.0599972,14.504 29.6200016,14.6939981 29.308,15.074 C28.9959984,15.4540019 28.8280001,15.9359971 28.804,16.52 L32.38,16.52 Z M34.468,18.332 C34.468,17.539996 34.7539971,16.9900015 35.326,16.682 C35.8980029,16.3739985 36.7599942,16.22 37.912,16.22 C38.1920014,16.22 38.4039993,16.224 38.548,16.232 L38.548,15.884 C38.548,15.4279977 38.4240012,15.0880011 38.176,14.864 C37.9279988,14.6399989 37.5480026,14.528 37.036,14.528 C36.3879968,14.528 35.7760029,14.6999983 35.2,15.044 L34.84,14.36 C35.5280034,13.9359979 36.2799959,13.724 37.096,13.724 C37.9520043,13.724 38.577998,13.923998 38.974,14.324 C39.370002,14.724002 39.568,15.3319959 39.568,16.148 L39.568,18.644 C39.568,19.0840022 39.5959997,19.5359977 39.652,20 L38.716,20 C38.6599997,19.6479982 38.632,19.372001 38.632,19.172 L38.596,19.172 C38.3719989,19.5000016 38.0900017,19.7479992 37.75,19.916 C37.4099983,20.0840008 36.9720027,20.168 36.436,20.168 C35.843997,20.168 35.3680018,20.0100016 35.008,19.694 C34.6479982,19.3779984 34.468,18.924003 34.468,18.332 Z M38.548,17.744 L38.548,16.952 L38.008,16.94 C37.407997,16.94 36.9300018,16.9799996 36.574,17.06 C36.2179982,17.1400004 35.9540009,17.275999 35.782,17.468 C35.6099991,17.660001 35.524,17.9279983 35.524,18.272 C35.524,18.6240018 35.627999,18.8939991 35.836,19.082 C36.044001,19.2700009 36.3319982,19.364 36.7,19.364 C37.0840019,19.364 37.4159986,19.2820008 37.696,19.118 C37.9760014,18.9539992 38.1879993,18.7480012 38.332,18.5 C38.4760007,18.2519988 38.548,18.0000013 38.548,17.744 Z M41.548,15.26 C41.548,14.8119978 41.5200003,14.3560023 41.464,13.892 L42.436,13.892 C42.4760002,14.1640014 42.5039999,14.4879981 42.52,14.864 L42.544,14.864 C42.8960018,14.1039962 43.5359954,13.724 44.464,13.724 C44.5280003,13.724 44.6439992,13.7359999 44.812,13.76 L44.752,14.636 C44.6719996,14.6199999 44.5480008,14.612 44.38,14.612 C43.7959971,14.612 43.3480016,14.807998 43.036,15.2 C42.7239984,15.592002 42.568,16.0999969 42.568,16.724 L42.568,20 L41.548,20 L41.548,15.26 Z" id="Clear" fill="#0070D2"></path>
            </g>
            <g id="Button-New-Copy-3" transform="translate(623.000000, 195.000000)">
                <rect id="Rectangle-827" stroke="#E1E6EF" fill="#FFFFFF" x="0.5" y="0.5" width="49" height="31" rx="4"></rect>
                <path d="M15.588,15.74 C15.588,14.8599956 15.7559983,14.0860033 16.092,13.418 C16.4280017,12.7499967 16.9179968,12.2300019 17.562,11.858 C18.2060032,11.4859981 18.9719956,11.3 19.86,11.3 C20.4200028,11.3 20.9499975,11.3919991 21.45,11.576 C21.9500025,11.7600009 22.3759982,12.0159984 22.728,12.344 L22.128,13.028 C21.8239985,12.7719987 21.4800019,12.5720007 21.096,12.428 C20.7119981,12.2839993 20.3120021,12.212 19.896,12.212 C18.8479948,12.212 18.0500027,12.5359968 17.502,13.184 C16.9539973,13.8320032 16.68,14.6839947 16.68,15.74 C16.68,16.8440055 16.9419974,17.7159968 17.466,18.356 C17.9900026,18.9960032 18.7839947,19.316 19.848,19.316 C20.2640021,19.316 20.6379983,19.2740004 20.97,19.19 C21.3020017,19.1059996 21.6399983,18.9880008 21.984,18.836 L21.984,16.52 L20.016,16.52 L20.016,15.692 L22.968,15.692 L22.968,19.412 C22.5039977,19.6600012 22.0220025,19.8539993 21.522,19.994 C21.0219975,20.1340007 20.4600031,20.204 19.836,20.204 C18.9239954,20.204 18.1480032,20.0180019 17.508,19.646 C16.8679968,19.2739981 16.3880016,18.7520034 16.068,18.08 C15.7479984,17.4079966 15.588,16.6280044 15.588,15.74 Z M30.672,16.928 C30.672,17.5600032 30.5500012,18.1219975 30.306,18.614 C30.0619988,19.1060025 29.7100023,19.4879986 29.25,19.76 C28.7899977,20.0320014 28.2400032,20.168 27.6,20.168 C26.9679968,20.168 26.4200023,20.0300014 25.956,19.754 C25.4919977,19.4779986 25.1400012,19.0960024 24.9,18.608 C24.6599988,18.1199976 24.54,17.5600032 24.54,16.928 C24.54,15.9519951 24.8079973,15.1740029 25.344,14.594 C25.8800027,14.0139971 26.6319952,13.724 27.6,13.724 C28.2480032,13.724 28.8019977,13.8579987 29.262,14.126 C29.7220023,14.3940013 30.0719988,14.7679976 30.312,15.248 C30.5520012,15.7280024 30.672,16.2879968 30.672,16.928 Z M25.596,16.928 C25.596,17.6560036 25.7619983,18.2419978 26.094,18.686 C26.4260017,19.1300022 26.9279966,19.352 27.6,19.352 C28.2800034,19.352 28.7879983,19.1300022 29.124,18.686 C29.4600017,18.2419978 29.628,17.6560036 29.628,16.928 C29.628,16.1999964 29.4600017,15.6200022 29.124,15.188 C28.7879983,14.7559978 28.2800034,14.54 27.6,14.54 C26.9199966,14.54 26.4160016,14.7559978 26.088,15.188 C25.7599984,15.6200022 25.596,16.1999964 25.596,16.928 Z" id="Go" fill="#0070D2"></path>
            </g>
            <g id="picklist" transform="translate(24.000000, 195.000000)">
                <rect id="bkgd" stroke="#D8DDE6" fill="#FFFFFF" x="0.5" y="0.5" width="214" height="31" rx="4"></rect>
                <path d="M95.5,0.5 L95.5,31.5" id="Line" stroke="#D8DDE6" stroke-linecap="square"></path>
                <path d="M85.2844256,13 C85.5374028,13 85.7144868,13.325 85.5121051,13.55 L81.1355999,18.85 C80.9838136,19.05 80.6549433,19.05 80.503157,18.85 L76.0760564,13.55 C75.8989724,13.325 76.0507587,13 76.3290336,13 L85.2844256,13 Z" id="down" fill="#16325C"></path>
                <text id="Search-All" font-family="SalesforceSans-Regular, Salesforce Sans" font-size="12" font-weight="normal" fill="#16325C">
                    <tspan x="12" y="20">Search All</tspan>
                </text>
                <text id="Search-Segments" font-family="SalesforceSans-Regular, Salesforce Sans" font-size="12" font-weight="normal" fill="#4F6A92">
                    <tspan x="106" y="20">Search Segments</tspan>
                </text>
            </g>
            <g id="picklist" transform="translate(327.000000, 195.000000)">
                <rect id="bkgd" stroke="#D8DDE6" fill="#FFFFFF" x="0.5" y="0.5" width="190" height="31" rx="4"></rect>
                <path d="M179.284426,13 C179.537403,13 179.714487,13.325 179.512105,13.55 L175.1356,18.85 C174.983814,19.05 174.654943,19.05 174.503157,18.85 L170.076056,13.55 C169.898972,13.325 170.050759,13 170.329034,13 L179.284426,13 Z" id="down" fill="#061C3F"></path>
                <text id="Sort-by-Date-Created" font-family="SalesforceSans-Regular, Salesforce Sans" font-size="12" font-weight="normal" fill="#16325C">
                    <tspan x="12" y="20">Sort by Date Created </tspan>
                </text>
            </g>
        </g>
    </g>
</svg>