<?xml version="1.0" encoding="UTF-8"?>
<svg width="84px" height="35px" viewBox="0 0 84 35" version="1.1" xmlns="http://www.w3.org/2000/svg" xmlns:xlink="http://www.w3.org/1999/xlink">
    <!-- Generator: Sketch 50.2 (55047) - http://www.bohemiancoding.com/sketch -->
    <defs>
        <polygon id="path-1" points="29.9498 0.0483870968 0 0.0483870968 0 29.0322581 29.9498 29.0322581 29.9498 0.0483870968"></polygon>
        <polygon id="path-3" points="29.6978 0.302 0 0.302 0 30 29.6978 30 29.6978 0.302"></polygon>
        <rect id="path-5" x="0" y="0" width="53.9039973" height="26.5257924"></rect>
    </defs>
    <g id="DMP-201" stroke="none" stroke-width="1" fill="none" fill-rule="evenodd">
        <g id="BU1---Einstein-Seg-Created" transform="translate(-226.000000, -316.000000)">
            <g id="Group-19" transform="translate(29.000000, 312.000000)">
                <g id="Group-18-Copy" transform="translate(195.000000, 1.000000)">
                    <g id="Group-5">
                        <g id="Group-2" transform="translate(3.000000, 4.000000)">
                            <g id="Group-9-Copy" transform="translate(2.000000, 1.000000)">
                                <g id="Page-1">
                                    <g id="Group-3" transform="translate(0.000000, 0.919548)">
                                        <mask id="mask-2" fill="white">
                                            <use xlink:href="#path-1"></use>
                                        </mask>
                                        <g id="Clip-2"></g>
                                        <path d="M29.9498,14.5407097 C29.9498,22.5439355 23.2448,29.0326452 14.9748,29.0326452 C6.7048,29.0326452 -0.0002,22.5439355 -0.0002,14.5407097 C-0.0002,6.53651613 6.7048,0.0478064516 14.9748,0.0478064516 C23.2448,0.0478064516 29.9498,6.53651613 29.9498,14.5407097" id="Fill-1" fill="#D1D8DC" mask="url(#mask-2)"></path>
                                    </g>
                                    <path d="M24.1832,9.2133871 L5.7672,9.2133871 C5.5572,9.2133871 5.3852,9.37887097 5.3852,9.58209677 L5.3852,20.6008065 C5.3852,20.8030645 5.5572,20.9695161 5.7672,20.9695161 L7.1212,20.9695161 L7.1212,12.525 C7.1212,12.0169355 7.5482,11.6027419 8.0742,11.6027419 L15.3082,11.6027419 C15.8342,11.6027419 16.2622,12.0169355 16.2622,12.525 L16.2622,18.3856452 L20.6872,18.3856452 C21.2132,18.3856452 21.6412,18.7979032 21.6412,19.308871 L21.6412,20.9695161 L24.1832,20.9695161 C24.3932,20.9695161 24.5652,20.8030645 24.5652,20.6008065 L24.5652,9.58209677 C24.5652,9.37887097 24.3932,9.2133871 24.1832,9.2133871" id="Fill-4" fill="#FFFFFF"></path>
                                    <path d="M20.3628,19.4805484 L15.4988,19.4805484 L13.4848,19.4805484 C13.3798,19.4805484 13.2948,19.5628065 13.2948,19.6644194 L13.2948,22.7544194 L13.2948,22.9353871 C13.2948,23.0389355 13.3798,23.1211935 13.4848,23.1211935 L20.3628,23.1211935 C20.4668,23.1211935 20.5528,23.0389355 20.5528,22.9353871 L20.5528,19.6644194 C20.5528,19.5628065 20.4668,19.4805484 20.3628,19.4805484" id="Fill-6" fill="#FFFFFF"></path>
                                    <path d="M15.1661,18.3852581 L15.1661,12.7975161 C15.1661,12.6959032 15.0801,12.6126774 14.9751,12.6126774 L8.3931,12.6126774 C8.2881,12.6126774 8.2021,12.6959032 8.2021,12.7975161 L8.2021,22.5678387 C8.2021,22.6713871 8.2881,22.7546129 8.3931,22.7546129 L12.1961,22.7546129 L12.1961,19.3084839 C12.1961,18.7984839 12.6241,18.3852581 13.1501,18.3852581 L15.1661,18.3852581 Z" id="Fill-8" fill="#FFFFFF"></path>
                                </g>
                            </g>
                            <g id="Page-1" transform="translate(2.000000, 1.000000)">
                                <g id="Group-3" transform="translate(0.000000, 0.698200)">
                                    <mask id="mask-4" fill="white">
                                        <use xlink:href="#path-3"></use>
                                    </mask>
                                    <g id="Clip-2"></g>
                                    <path d="M29.6978,15.1514 C29.6978,23.3514 23.0498,30.0004 14.8488,30.0004 C6.6488,30.0004 -0.0002,23.3514 -0.0002,15.1514 C-0.0002,6.9504 6.6488,0.3014 14.8488,0.3014 C23.0498,0.3014 29.6978,6.9504 29.6978,15.1514" id="Fill-1" fill="#D1D8DC" mask="url(#mask-4)"></path>
                                </g>
                                <path d="M27.7491,19.6758 C27.6081,19.8828 26.7641,20.5458 21.8191,20.5458 C21.3781,20.5458 20.9711,20.5398 20.5951,20.5308 C20.0361,20.0298 19.4161,19.8498 18.9221,19.7628 C18.4001,19.6688 17.8041,19.4988 17.4701,19.3718 C17.4701,19.2618 17.4731,19.1078 17.4831,18.9088 C17.6611,18.6138 17.9941,17.9808 18.1311,17.6228 C18.2101,17.5568 18.2851,17.4798 18.3481,17.3968 C18.9221,17.2628 19.5111,17.0728 19.7721,16.9308 C19.8361,16.8958 19.8901,16.8458 19.9271,16.7848 C20.3461,17.1148 20.9851,17.4228 21.7251,17.4528 L21.7421,17.4528 C22.4621,17.4528 23.0571,17.3338 23.7141,16.7878 C23.7481,16.8458 23.7981,16.8938 23.8571,16.9248 C24.2341,17.1328 25.1321,17.3818 25.7491,17.4918 C26.4801,17.6228 27.2941,17.9378 27.7981,19.2718 C27.8531,19.4078 27.8351,19.5528 27.7491,19.6758 M20.8311,22.3228 C20.8841,22.4578 20.8651,22.6058 20.7811,22.7298 C20.6411,22.9328 19.7931,23.6018 14.8481,23.6018 C9.9061,23.6018 9.0581,22.9328 8.9181,22.7298 C8.8321,22.6058 8.8151,22.4578 8.8641,22.3228 C9.0321,21.8888 9.2291,21.5618 9.4461,21.3158 C9.8961,20.8048 10.4221,20.6328 10.9171,20.5458 C11.2071,20.4938 11.5281,20.4188 11.8281,20.3328 C12.2421,20.2158 12.6121,20.0858 12.8061,19.9788 C12.8711,19.9468 12.9231,19.8968 12.9561,19.8348 C13.0391,19.8988 13.1281,19.9648 13.2291,20.0208 C13.4981,20.1938 13.8201,20.3398 14.1841,20.4228 C14.3681,20.4668 14.5571,20.4968 14.7571,20.5038 L14.7751,20.5038 C15.0421,20.5038 15.2881,20.4868 15.5331,20.4358 C15.8551,20.3718 16.1691,20.2528 16.4911,20.0318 C16.5741,19.9748 16.6561,19.9088 16.7431,19.8408 C16.7801,19.8968 16.8271,19.9468 16.8901,19.9788 C17.1001,20.0958 17.4741,20.2248 17.8751,20.3358 C18.1851,20.4228 18.5081,20.4968 18.7821,20.5458 C19.2741,20.6328 19.8031,20.8048 20.2471,21.3138 C20.4681,21.5618 20.6651,21.8888 20.8311,22.3228 M7.8801,20.5458 C2.9341,20.5458 2.0891,19.8828 1.9501,19.6758 C1.8641,19.5528 1.8461,19.4078 1.8961,19.2698 C2.4031,17.9388 3.2171,17.6228 3.9481,17.4938 C4.6351,17.3688 5.5001,17.1138 5.8371,16.9308 C5.9011,16.8978 5.9511,16.8468 5.9871,16.7848 C6.4111,17.1168 7.0461,17.4228 7.7891,17.4528 L7.8061,17.4528 C8.5241,17.4528 9.1221,17.3348 9.7751,16.7888 C9.8101,16.8468 9.8591,16.8938 9.9181,16.9258 C10.2061,17.0838 10.7931,17.2628 11.3271,17.3908 C11.3971,17.4768 11.4711,17.5568 11.5541,17.6228 C11.6951,17.9978 12.0551,18.6518 12.2171,18.9288 C12.2251,19.1218 12.2281,19.2668 12.2281,19.3718 C11.8921,19.4988 11.2891,19.6698 10.7761,19.7628 C10.2821,19.8498 9.6621,20.0298 9.1041,20.5308 C8.7281,20.5398 8.3201,20.5458 7.8801,20.5458 M5.1501,14.0068 C4.9221,13.8488 4.7461,13.5198 4.6401,13.0508 C4.5701,12.7528 4.5131,12.3788 4.6791,12.1678 L4.6861,12.1548 C4.7631,12.0738 4.8001,11.9608 4.7901,11.8468 C4.6891,10.8768 4.9781,8.8768 6.7661,8.2468 L6.7691,8.2428 C6.7721,8.2428 6.7791,8.2398 6.7861,8.2398 C7.0991,8.1468 7.3961,8.0998 7.6641,8.0998 C7.7271,8.0998 7.7831,8.1038 7.8331,8.1078 C7.8561,8.1098 7.8801,8.1098 7.9021,8.1078 C7.9601,8.1038 8.0191,8.0998 8.0801,8.0998 C8.3531,8.0998 8.6511,8.1468 8.9621,8.2398 C8.9711,8.2428 8.9781,8.2468 8.9881,8.2468 C10.7721,8.8808 11.0581,10.8808 10.9601,11.8468 C10.9461,11.9548 10.9811,12.0608 11.0511,12.1458 C11.0541,12.1528 11.0591,12.1548 11.0641,12.1618 C11.2351,12.3788 11.1771,12.7528 11.1071,13.0528 C11.0001,13.5178 10.8231,13.8518 10.5931,14.0108 C10.5171,14.0638 10.4591,14.1428 10.4401,14.2378 C10.3791,14.4708 9.8901,15.3648 9.7961,15.5198 C9.7921,15.5198 9.7901,15.5228 9.7901,15.5258 L9.7901,15.5288 C9.7281,15.6188 9.6061,15.7918 9.5231,15.9088 C9.4921,15.9528 9.4651,15.9898 9.4461,16.0198 C8.8851,16.5588 8.4671,16.6578 7.8121,16.6598 C7.1601,16.6298 6.6131,16.3108 6.3321,16.0328 C6.3181,16.0128 6.3011,15.9928 6.2841,15.9698 C6.2061,15.8668 6.0411,15.6488 5.9761,15.5448 C5.9711,15.5418 5.9711,15.5418 5.9691,15.5388 C5.8781,15.3888 5.3671,14.4708 5.3081,14.2378 C5.2871,14.1428 5.2301,14.0628 5.1501,14.0068 M11.6471,15.2168 L11.6541,15.2088 C11.7311,15.1248 11.7671,15.0098 11.7581,14.9008 C11.6571,13.9298 11.9441,11.9308 13.7341,11.2958 L13.7371,11.2958 C13.7391,11.2928 13.7501,11.2928 13.7571,11.2888 C14.0701,11.1968 14.3631,11.1498 14.6351,11.1498 C14.6951,11.1498 14.7511,11.1528 14.8051,11.1558 C14.8281,11.1608 14.8481,11.1608 14.8761,11.1608 C14.9281,11.1528 14.9891,11.1498 15.0521,11.1498 C15.3221,11.1498 15.6191,11.1968 15.9341,11.2928 C15.9401,11.2928 15.9481,11.2958 15.9561,11.2998 C17.7421,11.9308 18.0291,13.9298 17.9271,14.9028 C17.9181,15.0068 17.9521,15.1138 18.0191,15.1948 C18.0221,15.2008 18.0291,15.2088 18.0321,15.2138 C18.2061,15.4288 18.1451,15.8028 18.0791,16.1038 C18.0251,16.3328 17.9551,16.5268 17.8681,16.6868 C17.7811,16.8538 17.6821,16.9798 17.5641,17.0608 C17.4861,17.1168 17.4311,17.1978 17.4081,17.2918 C17.3871,17.3638 17.3231,17.5078 17.2451,17.6748 C17.0741,18.0218 16.8311,18.4638 16.7651,18.5678 C16.7611,18.5718 16.7611,18.5748 16.7561,18.5778 L16.7561,18.5808 C16.6971,18.6738 16.5741,18.8448 16.4941,18.9578 C16.4601,19.0058 16.4321,19.0388 16.4131,19.0728 C16.2031,19.2768 16.0131,19.4168 15.8191,19.5138 C15.5771,19.6368 15.3331,19.6868 15.0421,19.6988 C14.9591,19.7058 14.8711,19.7088 14.7821,19.7088 C14.7381,19.7058 14.6991,19.7058 14.6591,19.6988 C14.3721,19.6698 14.1121,19.5848 13.8881,19.4838 C13.6411,19.3638 13.4371,19.2188 13.3011,19.0868 C13.2871,19.0658 13.2711,19.0418 13.2541,19.0198 C13.1721,18.9148 13.0101,18.6988 12.9421,18.5958 C12.9421,18.5958 12.9401,18.5918 12.9401,18.5888 C12.8771,18.4888 12.6151,18.0248 12.4431,17.6668 C12.3591,17.5048 12.2951,17.3638 12.2791,17.2918 C12.2561,17.1978 12.1981,17.1168 12.1191,17.0608 C12.0051,16.9778 11.9021,16.8508 11.8131,16.6848 C11.7281,16.5258 11.6621,16.3288 11.6081,16.1038 C11.5371,15.8028 11.4811,15.4258 11.6471,15.2168 M18.6151,12.1678 L18.6221,12.1548 C18.6981,12.0738 18.7361,11.9608 18.7251,11.8468 C18.6261,10.8768 18.9131,8.8768 20.7011,8.2468 L20.7071,8.2428 C20.7121,8.2428 20.7171,8.2398 20.7251,8.2398 C21.0391,8.1468 21.3321,8.0998 21.6031,8.0998 C21.6651,8.0998 21.7221,8.1038 21.7721,8.1078 C21.7961,8.1098 21.8201,8.1098 21.8431,8.1078 C21.8961,8.1038 21.9571,8.0998 22.0201,8.0998 C22.2911,8.0998 22.5871,8.1468 22.9001,8.2398 C22.9071,8.2428 22.9181,8.2468 22.9241,8.2468 C24.7091,8.8808 24.9951,10.8808 24.8961,11.8468 C24.8861,11.9528 24.9181,12.0608 24.9861,12.1458 C24.9931,12.1528 24.9951,12.1548 25.0001,12.1618 C25.1731,12.3788 25.1141,12.7528 25.0461,13.0508 C24.9361,13.5158 24.7601,13.8488 24.5331,14.0108 C24.4531,14.0638 24.4001,14.1428 24.3751,14.2378 C24.3191,14.4708 23.8281,15.3648 23.7321,15.5198 C23.7281,15.5198 23.7281,15.5218 23.7281,15.5258 C23.7281,15.5288 23.7251,15.5288 23.7251,15.5288 C23.6651,15.6188 23.5411,15.7918 23.4601,15.9088 C23.4311,15.9518 23.4041,15.9878 23.3821,16.0198 C22.8201,16.5588 22.4071,16.6558 21.7491,16.6598 C21.0991,16.6298 20.5511,16.3108 20.2681,16.0328 C20.2551,16.0128 20.2381,15.9918 20.2211,15.9688 C20.1411,15.8648 19.9771,15.6488 19.9091,15.5448 C19.9091,15.5418 19.9071,15.5418 19.9071,15.5388 C19.8131,15.3888 19.3031,14.4708 19.2461,14.2378 C19.2231,14.1428 19.1661,14.0638 19.0891,14.0068 C18.8631,13.8518 18.6851,13.5208 18.5761,13.0528 C18.5061,12.7518 18.4491,12.3788 18.6151,12.1678" id="Fill-4" fill="#FFFFFF"></path>
                            </g>
                            <path d="M34,16.4527115 C34,25.5381765 26.3883139,32.9043244 17,32.9043244 C7.61168614,32.9043244 0,25.5381765 0,16.4527115 C0,7.36614788 7.61168614,0 17,0 C26.3883139,0 34,7.36614788 34,16.4527115" id="Fill-1" stroke="#E7EEF0" stroke-width="2"></path>
                        </g>
                        <g id="Fill-1-Copy" transform="translate(29.147971, 29.331737) rotate(-225.000000) translate(-29.147971, -29.331737) translate(2.147971, 15.831737)">
                            <mask id="mask-6" fill="white">
                                <use xlink:href="#path-5"></use>
                            </mask>
                            <g id="Mask"></g>
                            <path d="M27.0006567,41.2944155 C18.0431796,41.2944155 10.7807995,34.2493528 10.7807995,25.5599169 C10.7807995,16.8694302 18.0431796,9.82436754 27.0006567,9.82436754 C35.9581338,9.82436754 43.220514,16.8694302 43.220514,25.5599169 C43.220514,34.2493528 35.9581338,41.2944155 27.0006567,41.2944155 Z" stroke="#EA785E" mask="url(#mask-6)"></path>
                        </g>
                    </g>
                    <circle id="Oval-5" fill="#CCD5D8" cx="54" cy="22" r="6"></circle>
                    <circle id="Oval-5-Copy" fill="#E3E7E9" cx="70" cy="22" r="5"></circle>
                    <circle id="Oval-5-Copy-2" fill="#F1F3F4" cx="82.5" cy="22.5" r="3.5"></circle>
                </g>
            </g>
        </g>
    </g>
</svg>