<?xml version="1.0" encoding="UTF-8"?>
<svg width="9px" height="14px" viewBox="0 0 9 14" version="1.1" xmlns="http://www.w3.org/2000/svg" xmlns:xlink="http://www.w3.org/1999/xlink">
    <!-- Generator: Sketch 46.2 (44496) - http://www.bohemiancoding.com/sketch -->
    <title>chevronright</title>
    <desc>Created with Sketch.</desc>
    <defs></defs>
    <g id="Einstein-Segmentation" stroke="none" stroke-width="1" fill="none" fill-rule="evenodd">
        <g id="Audience---Persona-Name-change-0" transform="translate(-1205.000000, -605.000000)" fill="#54698D">
            <g id="Top-Personas---New" transform="translate(20.000000, 336.000000)">
                <g id="chevronright" transform="translate(1185.000000, 269.000000)">
                    <path d="M1.5430141,0.273340642 L7.9163332,6.64665975 C8.11759591,6.84792245 8.11759591,7.11627273 7.9163332,7.31753544 L1.5430141,13.6908545 C1.34175139,13.8250297 1.00631354,13.8250297 0.805050834,13.6908545 L0.134175139,13.0199789 C4.02455846e-16,12.8187161 4.02455846e-16,12.4832783 0.134175139,12.2820156 L5.23283042,7.31753544 C5.36700556,7.11627273 5.36700556,6.84792245 5.23283042,6.64665975 L0.201262709,1.6821796 C-1.94289029e-16,1.48091689 -1.94289029e-16,1.14547905 0.201262709,0.944216337 L0.872138404,0.273340642 C1.07340111,0.139165503 1.34175139,0.139165503 1.5430141,0.273340642 Z" id="Shape"></path>
                </g>
            </g>
        </g>
    </g>
</svg>