<?xml version="1.0" encoding="UTF-8"?>
<svg width="16px" height="10px" viewBox="0 0 16 10" version="1.1" xmlns="http://www.w3.org/2000/svg" xmlns:xlink="http://www.w3.org/1999/xlink">
    <!-- Generator: Sketch 47.1 (45422) - http://www.bohemiancoding.com/sketch -->
    <title>chevrondown</title>
    <desc>Created with Sketch.</desc>
    <defs></defs>
    <g id="With-Einstein-Branding" stroke="none" stroke-width="1" fill="none" fill-rule="evenodd">
        <g id="Slide-45-Copy-2" transform="translate(-1200.000000, -201.000000)" fill="#54698D">
            <g id="Definition" transform="translate(26.000000, 180.000000)">
                <g id="chevrondown" transform="translate(1182.000000, 26.285714) scale(1, -1) translate(-1182.000000, -26.285714) translate(1174.000000, 21.285714)">
                    <path d="M15.2727273,2.32727273 L8.36363636,9.30909091 C8.14545455,9.45454545 7.85454545,9.45454545 7.63636364,9.30909091 L0.727272727,2.32727273 C0.581818182,2.10909091 0.581818182,1.81818182 0.727272727,1.6 L1.45454545,0.872727273 C1.67272727,0.654545455 2.03636364,0.654545455 2.25454545,0.872727273 L7.63636364,6.32727273 C7.85454545,6.54545455 8.14545455,6.54545455 8.36363636,6.32727273 L13.7454545,0.872727273 C13.9636364,0.727272727 14.3272727,0.727272727 14.5454545,0.872727273 L15.2727273,1.6 C15.4181818,1.81818182 15.4181818,2.10909091 15.2727273,2.32727273 Z" id="Shape"></path>
                </g>
            </g>
        </g>
    </g>
</svg>