<?xml version="1.0" encoding="UTF-8" standalone="no"?>
<svg width="18px" height="18px" viewBox="0 0 18 18" version="1.1" xmlns="http://www.w3.org/2000/svg" xmlns:xlink="http://www.w3.org/1999/xlink">
    <!-- Generator: Sketch 46.2 (44496) - http://www.bohemiancoding.com/sketch -->
    <title>Group 11 Copy</title>
    <desc>Created with Sketch.</desc>
    <defs></defs>
    <g id="Story-Artboards-Copy" stroke="none" stroke-width="1" fill="none" fill-rule="evenodd">
        <g id="Persona-Summary-Copy" transform="translate(-1280.000000, -363.000000)">
            <g id="Group-11-Copy" transform="translate(1280.000000, 363.000000)">
                <rect id="Rectangle-13-Copy-2" fill="#7DC37D" x="0" y="0" width="18" height="18" rx="9"></rect>
                <path d="M9.515,12.6995 L9.515,13.5465 L8.382,13.5465 L8.382,12.7435 C7.89799758,12.7141665 7.47816844,12.6335007 7.1225,12.5015 C6.76683155,12.3694993 6.44966806,12.1898345 6.171,11.9625 L6.853,11.1265 C7.13166806,11.3171676 7.41033194,11.4564996 7.689,11.5445 C7.96766806,11.6325004 8.28666487,11.6765 8.646,11.6765 C9.65067169,11.6765 10.153,11.33917 10.153,10.6645 C10.153,10.4444989 10.1016672,10.270334 9.999,10.142 C9.89633282,10.013666 9.73866773,9.90733375 9.526,9.823 C9.31333227,9.73866625 9.00533535,9.64883381 8.602,9.5535 C7.83932952,9.36283238 7.28200176,9.11533486 6.93,8.811 C6.57799824,8.50666514 6.402,8.07583612 6.402,7.5185 C6.402,6.99049736 6.58349818,6.55966834 6.9465,6.226 C7.30950181,5.89233167 7.78799703,5.68516707 8.382,5.6045 L8.382,4.7905 L9.515,4.7905 L9.515,5.5935 C10.2556704,5.6668337 10.9156638,5.90516465 11.495,6.3085 L10.879,7.1445 C10.5709985,6.96849912 10.2740014,6.83466713 9.988,6.743 C9.70199857,6.65133287 9.37933513,6.6055 9.02,6.6055 C8.16932908,6.6055 7.744,6.88783051 7.744,7.4525 C7.744,7.65050099 7.78983288,7.80633277 7.8815,7.92 C7.97316712,8.03366723 8.11616569,8.12899962 8.3105,8.206 C8.5048343,8.28300039 8.79633139,8.36549956 9.185,8.4535 C9.96233722,8.62216751 10.5471647,8.87333167 10.9395,9.207 C11.3318353,9.54066833 11.528,10.0154969 11.528,10.6315 C11.528,11.2181696 11.3410019,11.6856649 10.967,12.034 C10.5929981,12.3823351 10.109003,12.6041662 9.515,12.6995 Z" id="$" fill="#FFFFFF"></path>
            </g>
        </g>
    </g>
</svg>