<?xml version="1.0" encoding="UTF-8"?>
<svg width="11px" height="11px" viewBox="0 0 11 11" version="1.1" xmlns="http://www.w3.org/2000/svg" xmlns:xlink="http://www.w3.org/1999/xlink">
    <!-- Generator: Sketch 50.2 (55047) - http://www.bohemiancoding.com/sketch -->
    <title>Shape</title>
    <desc>Created with Sketch.</desc>
    <defs></defs>
    <g id="Storyboard---6/01" stroke="none" stroke-width="1" fill="none" fill-rule="evenodd">
        <g id="Consumer-Rights" transform="translate(-237.000000, -229.000000)" fill="#5F7292">
            <path d="M242.5,229 C239.477477,229 237,231.477477 237,234.5 C237,237.522523 239.477477,240 242.5,240 C245.522523,240 248,237.522523 248,234.5 C248,231.477477 245.522523,229 242.5,229 Z M242.5,231.774775 C242.896396,231.774775 243.193694,232.072072 243.193694,232.468468 C243.193694,232.864865 242.896396,233.162162 242.5,233.162162 C242.103604,233.162162 241.806306,232.864865 241.806306,232.468468 C241.806306,232.072072 242.103604,231.774775 242.5,231.774775 Z M243.63964,236.581081 C243.63964,236.68018 243.540541,236.779279 243.391892,236.779279 L241.608108,236.779279 C241.459459,236.779279 241.36036,236.72973 241.36036,236.581081 L241.36036,236.135135 C241.36036,235.986486 241.459459,235.887387 241.608108,235.887387 C241.707207,235.887387 241.806306,235.788288 241.806306,235.689189 L241.806306,234.747748 C241.806306,234.648649 241.707207,234.5 241.608108,234.5 C241.459459,234.5 241.36036,234.45045 241.36036,234.301802 L241.36036,233.855856 C241.36036,233.707207 241.459459,233.608108 241.608108,233.608108 L242.945946,233.608108 C243.094595,233.608108 243.193694,233.707207 243.193694,233.855856 L243.193694,235.689189 C243.193694,235.788288 243.292793,235.887387 243.391892,235.887387 C243.540541,235.887387 243.63964,235.986486 243.63964,236.135135 L243.63964,236.581081 L243.63964,236.581081 Z" id="Shape"></path>
        </g>
    </g>
</svg>