<?xml version="1.0" encoding="UTF-8"?>
<svg width="24px" height="22px" viewBox="0 0 24 22" version="1.1" xmlns="http://www.w3.org/2000/svg" xmlns:xlink="http://www.w3.org/1999/xlink">
    <!-- Generator: Sketch 50.2 (55047) - http://www.bohemiancoding.com/sketch -->
    <title>join_group</title>
    <desc>Created with Sketch.</desc>
    <defs></defs>
    <g id="Page-1" stroke="none" stroke-width="1" fill="none" fill-rule="evenodd">
        <g id="Dashboard" transform="translate(-451.000000, -523.000000)" fill="#0070D2">
            <g id="Group-18" transform="translate(57.000000, 518.000000)">
                <g id="Group-14" transform="translate(370.000000, 0.000000)">
                    <g id="Group-12" transform="translate(24.000000, 5.000000)">
                        <g id="join_group">
                            <path d="M16.6,11 C16.6,9.7 15.3,9 14,8.4 C13.1,7.9 12.9,7.6 12.9,7.2 C12.9,6.7 13.2,6.4 13.4,6 C14,5.5 14.3,4.8 14.3,3.9 C14.3,2.3 13.4,0.9 11.7,0.9 C10.7,0.9 10,1.4 9.5,2.2 C10.7,3 11.4,4.6 11.4,6.3 C11.4,7.3 11.1,8.3 10.6,9.1 C10.4,9.4 10.5,9.8 10.8,10 C11.8,10.5 12.9,11.2 13.5,12.3 C13.6,12.5 13.8,12.5 14,12.5 L15.3,12.5 C16.1,12.5 16.6,11.9 16.6,11 L16.6,11 Z M9.1,11.1 C8,10.7 7.9,10.2 7.9,9.8 C7.9,9.4 8.2,8.9 8.5,8.5 C9.1,7.9 9.5,7.1 9.5,6.1 C9.5,4.3 8.4,2.8 6.6,2.8 L6.4,2.8 C4.6,2.8 3.5,4.3 3.5,6.1 C3.5,7.1 3.8,7.9 4.4,8.5 C4.8,8.9 5.1,9.3 5.1,9.8 C5.1,10.2 4.9,10.7 3.9,11.1 C2.4,11.8 0.9,12.5 0.9,13.9 C0.9,15 1.6,15.7 2.5,15.7 L10.5,15.7 C11.4,15.7 12.1,15 12.1,14 C12,12.5 10.6,11.8 9.1,11.1 Z M22.4,15.7 L20.3,15.7 L20.3,13.6 C20.3,13.2 20,12.9 19.6,12.9 L18.2,12.9 C17.9,12.9 17.5,13.2 17.5,13.6 L17.5,15.7 L15.5,15.7 C15.1,15.7 14.8,16 14.8,16.4 L14.8,17.8 C14.8,18.1 15.1,18.5 15.5,18.5 L17.5,18.5 L17.5,20.5 C17.5,20.9 17.9,21.2 18.2,21.2 L19.6,21.2 C20,21.2 20.3,20.9 20.3,20.5 L20.3,18.5 L22.4,18.5 C22.8,18.5 23.1,18.1 23.1,17.8 L23.1,16.4 C23.1,16 22.8,15.7 22.4,15.7 Z" id="Shape"></path>
                        </g>
                    </g>
                </g>
            </g>
        </g>
    </g>
</svg>