<?xml version="1.0" encoding="UTF-8"?>
<svg width="375px" height="812px" viewBox="0 0 375 812" version="1.1" xmlns="http://www.w3.org/2000/svg" xmlns:xlink="http://www.w3.org/1999/xlink">
    <!-- Generator: Sketch 52.6 (67491) - http://www.bohemiancoding.com/sketch -->
    <title>homepage-0___drawer-from-left</title>
    <desc>Created with Sketch.</desc>
    <g id="homepage-0___drawer-from-left" stroke="none" stroke-width="1" fill="none" fill-rule="evenodd">
        <rect fill="#FFFFFF" opacity="0" x="0" y="0" width="375" height="812"></rect>
        <path d="M0.5,31.5 L0.5,787.5 L345.744459,787.5 C348.920243,787.5 350.272305,787.238905 351.671583,786.490563 C352.888153,785.839934 353.839934,784.888153 354.490563,783.671583 C355.238905,782.272305 355.5,780.920243 355.5,777.744459 L355.5,41.2555408 C355.5,38.0797567 355.238905,36.727695 354.490563,35.3284166 C353.839934,34.1118471 352.888153,33.1600659 351.671583,32.5094374 C350.272305,31.7610952 348.920243,31.5 345.744459,31.5 L0.5,31.5 Z" id="Combined-Shape" stroke="#979797" fill-opacity="0.9" fill="#FFFFFF"></path>
        <text id="This-is-a-left-drawe" font-family="Arial-BoldMT, Arial" font-size="60" font-weight="bold" fill="#000000">
            <tspan x="43" y="147">This</tspan>
            <tspan x="43" y="219">is</tspan>
            <tspan x="43" y="291">a</tspan>
            <tspan x="43" y="363" font-family="Arial-BoldItalicMT, Arial" font-style="italic">left</tspan>
            <tspan x="133" y="363"></tspan>
            <tspan x="43" y="435">drawer.</tspan>
        </text>
        <text id="drawer-from-left" font-family="InputMono-Regular, Input Mono" font-size="20" font-weight="normal" fill="#000000">
            <tspan x="43" y="503">drawer-from-left</tspan>
        </text>
    </g>
</svg>