<?xml version="1.0" encoding="UTF-8"?>
<svg width="94px" height="32px" viewBox="0 0 94 32" version="1.1" xmlns="http://www.w3.org/2000/svg" xmlns:xlink="http://www.w3.org/1999/xlink">
    <!-- Generator: Sketch 54.1 (76490) - https://sketchapp.com -->
    <g id="Michael-Page" stroke="none" stroke-width="1" fill="none" fill-rule="evenodd">
        <g id="Lifecycle-Stages" transform="translate(-1163.000000, -116.000000)">
            <g id="Group" transform="translate(1163.000000, 116.000000)">
                <g id="Button-Group" stroke="#E0E5EE">
                    <g id="8:16:8:16-copy-5" fill="#007ADD">
                        <path d="M31.5,31.5 L31.5,0.5 L4.0042577,0.5 C2.06754498,0.5 0.5,2.06653374 0.5,4.0042577 L0.5,27.9957423 C0.5,29.932455 2.06653374,31.5 4.0042577,31.5 L31.5,31.5 Z" id="BG"></path>
                    </g>
                    <g id="8:16:8:16-copy-6" transform="translate(31.000000, 0.000000)">
                        <path d="M0.5,0.5 L0.5,31.5 L58.999286,31.5 C60.9339414,31.5 62.5,29.9335654 62.5,27.9957423 L62.5,4.0042577 C62.5,2.06618135 60.9371486,0.5 58.999286,0.5 L0.5,0.5 Z" id="BG" fill="#007ADD"></path>
                        <path d="M31.5,0.5 L31.5,31.5" id="Line" stroke-linecap="square"></path>
                    </g>
                </g>
                <g id="icons/utility/fallback" transform="translate(71.000000, 7.000000)" fill="#FFFFFF" fill-rule="nonzero">
                    <path d="M8.1511374,0.532411241 L6.97508919,6.05745108 C6.97508919,6.21995225 7.14309608,6.38245342 7.39510641,6.38245342 L13.4433544,6.38245342 C13.8633716,6.38245342 14.1153819,6.86995693 13.947375,7.19495928 L7.31110296,17.6762848 C7.05909263,18.2450389 6.21905819,18.0012872 6.21905819,17.4325331 L7.39510641,10.9324862 C7.39510641,10.7699851 7.22709952,10.8512356 6.97508919,10.8512356 L0.590827465,10.8512356 C0.170810247,10.8512356 -0.165203528,10.201231 0.0868068031,9.87622861 L7.05909263,0.288659484 C7.39510641,-0.198844031 8.1511374,-0.0363428594 8.1511374,0.532411241 Z" id="Shape"></path>
                </g>
                <g id="icons/standard/people-copy" transform="translate(38.000000, 7.000000)" fill="#FFFFFF" fill-rule="nonzero">
                    <path d="M18,15.5084746 L18,16.3389831 C18,17.2881356 17.25,18 16.25,18 L1.75,18 C0.75,18 0,17.2881356 0,16.3389831 L0,15.5084746 C0,13.3728814 2.5,12.1864407 5,11.1186441 C5,11.1186441 5.125,11.1186441 5.25,11 C5.375,11 5.625,11 5.75,11.1186441 C6.75,11.7118644 7.875,12.0677966 9,12.0677966 C10.125,12.0677966 11.25,11.7118644 12.25,11.1186441 C12.375,11 12.625,11 12.75,11.1186441 C12.875,11.1186441 13,11.1186441 13,11.2372881 C15.5,12.1864407 18,13.3728814 18,15.5084746 Z" id="Shape"></path>
                    <ellipse id="Oval" cx="9.5" cy="5" rx="4.5" ry="5"></ellipse>
                </g>
                <path d="M24.136699,21.0789131 C24.136699,15.5124831 20.5243759,11 16.0683495,11 C11.6123231,11 8,15.5124831 8,21.0789131" id="Oval-6" stroke="#FFFFFF" stroke-width="2"></path>
                <path d="M16.5429583,21.3358951 C16.5429583,18.3889616 14.6305519,16 12.2714791,16 C9.91240635,16 8,18.3889616 8,21.3358951" id="Oval-6-Copy" stroke="#FFFFFF" stroke-width="2"></path>
            </g>
        </g>
    </g>
</svg>