<?xml version="1.0" encoding="UTF-8"?>
<svg width="642px" height="804px" viewBox="0 0 642 804" version="1.1" xmlns="http://www.w3.org/2000/svg" xmlns:xlink="http://www.w3.org/1999/xlink">
    <!-- Generator: Sketch 50.2 (55047) - http://www.bohemiancoding.com/sketch -->
    <title>201.audience-summary.filled.left</title>
    <desc>Created with Sketch.</desc>
    <defs>
        <rect id="path-1" x="3" y="0" width="642" height="867"></rect>
        <filter x="-0.2%" y="-0.1%" width="100.3%" height="100.1%" filterUnits="objectBoundingBox" id="filter-2">
            <feOffset dx="-1" dy="0" in="SourceAlpha" result="shadowOffsetOuter1"></feOffset>
            <feColorMatrix values="0 0 0 0 0.878431373   0 0 0 0 0.898039216   0 0 0 0 0.933333333  0 0 0 1 0" type="matrix" in="shadowOffsetOuter1"></feColorMatrix>
        </filter>
        <path d="M0.33866801,-4.4408921e-16 L9.55628337,-4.4408921e-16 C9.81666798,-4.4408921e-16 9.99893721,0.338499999 9.79062952,0.572846152 L5.28597569,6.09299998 C5.12974492,6.30130767 4.79124492,6.30130767 4.63501415,6.09299998 L0.078283395,0.572846152 C-0.103985835,0.338499999 0.0522449335,-4.4408921e-16 0.33866801,-4.4408921e-16 Z" id="path-3"></path>
    </defs>
    <g id="DMP-201" stroke="none" stroke-width="1" fill="none" fill-rule="evenodd">
        <g id="JB-7" transform="translate(0.000000, -133.000000)">
            <g id="Drawer/50%" transform="translate(-3.000000, 134.000000)">
                <g id="Rectangle">
                    <use fill="black" fill-opacity="1" filter="url(#filter-2)" xlink:href="#path-1"></use>
                    <use fill="#FFFFFF" fill-rule="evenodd" xlink:href="#path-1"></use>
                </g>
                <g id="Audience-Building" transform="translate(21.000000, 257.000000)">
                    <g id="Population">
                        <g id="SECTION-–-Source"></g>
                        <text id="Source:" font-family="SalesforceSans-Regular, Salesforce Sans" font-size="16" font-weight="normal" fill="#16325C">
                            <tspan x="4" y="37">Source</tspan>
                        </text>
                        <text id="Winter-Jackets---New" font-family="SalesforceSans-Bold, Salesforce Sans" font-size="13" font-weight="bold" line-spacing="27" fill="#16325C">
                            <tspan x="127" y="32">Winter Jackets - New High Value</tspan>
                        </text>
                        <text id="*" font-family="SalesforceSans-Regular, Salesforce Sans" font-size="13" font-weight="normal" fill="#C23934">
                            <tspan x="57" y="35">*</tspan>
                        </text>
                    </g>
                    <g id="Filters" transform="translate(0.000000, 128.000000)">
                        <g id="SECTION-–-Source"></g>
                        <g id="Add-Filters-Button-Disabled-Copy-3" transform="translate(549.000000, 17.000000)">
                            <g id="Group-2">
                                <path d="M4.0065556,0.5 C2.06850889,0.5 0.5,2.06659802 0.5,4.0042577 L0.5,27.9957423 C0.5,29.9303394 2.07107172,31.5 4.0065556,31.5 L55.9934444,31.5 C57.9314911,31.5 59.5,29.933402 59.5,27.9957423 L59.5,4.0042577 C59.5,2.06966061 57.9289283,0.5 55.9934444,0.5 L4.0065556,0.5 Z" id="Rectangle-18" stroke="#E0E5EE" fill="#FFFFFF" transform="translate(30.000000, 16.000000) scale(-1, 1) translate(-30.000000, -16.000000) "></path>
                                <path d="M25.228,13.356 L21.136,13.356 L21.136,16.212 L24.7,16.212 L24.7,17.028 L21.136,17.028 L21.136,20.124 L25.432,20.124 L25.432,21 L20.08,21 L20.08,12.504 L25.228,12.504 L25.228,13.356 Z M32.032,21 L31.084,21 C31.0279997,20.6479982 31,20.3440013 31,20.088 L30.976,20.088 C30.5199977,20.8080036 29.792005,21.168 28.792,21.168 C27.9279957,21.168 27.2660023,20.872003 26.806,20.28 C26.3459977,19.687997 26.116,18.9160048 26.116,17.964 C26.116,17.355997 26.2299989,16.8060025 26.458,16.314 C26.6860011,15.8219975 27.0119979,15.4340014 27.436,15.15 C27.8600021,14.8659986 28.3599971,14.724 28.936,14.724 C29.7520041,14.724 30.4159974,14.9879974 30.928,15.516 L30.928,12.504 L31.948,12.504 L31.948,19.644 C31.948,20.0840022 31.9759997,20.5359977 32.032,21 Z M30.928,18.372 L30.928,16.452 C30.6879988,16.1479985 30.4180015,15.9220007 30.118,15.774 C29.8179985,15.6259993 29.472002,15.552 29.08,15.552 C28.487997,15.552 28.0220017,15.7759978 27.682,16.224 C27.3419983,16.6720022 27.172,17.2519964 27.172,17.964 C27.172,18.7000037 27.3359984,19.2819979 27.664,19.71 C27.9920016,20.1380021 28.4439971,20.352 29.02,20.352 C29.5960029,20.352 30.0579983,20.1660019 30.406,19.794 C30.7540017,19.4219981 30.928,18.9480029 30.928,18.372 Z M35.032,21 L34.012,21 L34.012,14.892 L35.032,14.892 L35.032,21 Z M33.856,12.804 C33.856,12.3719978 34.0799978,12.156 34.528,12.156 C34.9680022,12.156 35.188,12.3719978 35.188,12.804 C35.188,12.9880009 35.1360005,13.1379994 35.032,13.254 C34.9279995,13.3700006 34.7600012,13.428 34.528,13.428 C34.2879988,13.428 34.1160005,13.3700006 34.012,13.254 C33.9079995,13.1379994 33.856,12.9880009 33.856,12.804 Z M38.344,14.892 L39.964,14.892 L39.964,15.672 L38.344,15.672 L38.344,19.356 C38.344,20.0120033 38.643997,20.34 39.244,20.34 C39.4600011,20.34 39.6599991,20.3120003 39.844,20.256 L40,21.012 C39.7279986,21.1160005 39.4120018,21.168 39.052,21.168 C38.5159973,21.168 38.0940015,21.0180015 37.786,20.718 C37.4779985,20.4179985 37.324,19.9920028 37.324,19.44 L37.324,15.672 L36.244,15.672 L36.244,15.012 L37.312,14.892 L37.312,13.392 L38.344,13.032 L38.344,14.892 Z" id="Edit" fill="#006DD5"></path>
                            </g>
                        </g>
                        <text font-family="SalesforceSans-Regular, Salesforce Sans" font-size="16" font-weight="normal" fill="#16325C">
                            <tspan x="4" y="37">Filters</tspan>
                        </text>
                        <text id="Define-filters,-incl" font-family="SalesforceSans-Italic, Salesforce Sans" font-size="13" font-style="italic" font-weight="normal" line-spacing="27" fill="#A8B7C7">
                            <tspan x="127" y="32">Define filters, including attributes, to build a targeted audience</tspan>
                        </text>
                    </g>
                    <path d="M4,127 L609,127" id="Line" stroke="#E0E5EE" stroke-linecap="square"></path>
                    <path d="M4,65 L609,65" id="Line" stroke="#E0E5EE" stroke-linecap="square"></path>
                    <g id="Channels-spoke" transform="translate(0.000000, 64.000000)">
                        <g id="SECTION-–-Source"></g>
                        <text id="Channels" font-family="SalesforceSans-Regular, Salesforce Sans" font-size="16" font-weight="normal" fill="#16325C">
                            <tspan x="4" y="36">Channels</tspan>
                        </text>
                        <text id="*" font-family="SalesforceSans-Regular, Salesforce Sans" font-size="13" font-weight="normal" fill="#C23934">
                            <tspan x="74" y="33">*</tspan>
                        </text>
                        <g id="Group-2" transform="translate(549.000000, 16.000000)">
                            <path d="M4.0065556,0.5 C2.06850889,0.5 0.5,2.06659802 0.5,4.0042577 L0.5,27.9957423 C0.5,29.9303394 2.07107172,31.5 4.0065556,31.5 L55.9934444,31.5 C57.9314911,31.5 59.5,29.933402 59.5,27.9957423 L59.5,4.0042577 C59.5,2.06966061 57.9289283,0.5 55.9934444,0.5 L4.0065556,0.5 Z" id="Rectangle-18" stroke="#E0E5EE" fill="#FFFFFF" transform="translate(30.000000, 16.000000) scale(-1, 1) translate(-30.000000, -16.000000) "></path>
                            <path d="M25.5728679,13.356 L21.4808679,13.356 L21.4808679,16.212 L25.0448679,16.212 L25.0448679,17.028 L21.4808679,17.028 L21.4808679,20.124 L25.7768679,20.124 L25.7768679,21 L20.4248679,21 L20.4248679,12.504 L25.5728679,12.504 L25.5728679,13.356 Z M32.3768679,21 L31.4288679,21 C31.3728676,20.6479982 31.3448679,20.3440013 31.3448679,20.088 L31.3208679,20.088 C30.8648656,20.8080036 30.1368729,21.168 29.1368679,21.168 C28.2728636,21.168 27.6108702,20.872003 27.1508679,20.28 C26.6908656,19.687997 26.4608679,18.9160048 26.4608679,17.964 C26.4608679,17.355997 26.5748668,16.8060025 26.8028679,16.314 C27.0308691,15.8219975 27.3568658,15.4340014 27.7808679,15.15 C28.20487,14.8659986 28.704865,14.724 29.2808679,14.724 C30.096872,14.724 30.7608654,14.9879974 31.2728679,15.516 L31.2728679,12.504 L32.2928679,12.504 L32.2928679,19.644 C32.2928679,20.0840022 32.3208676,20.5359977 32.3768679,21 Z M31.2728679,18.372 L31.2728679,16.452 C31.0328667,16.1479985 30.7628694,15.9220007 30.4628679,15.774 C30.1628664,15.6259993 29.8168699,15.552 29.4248679,15.552 C28.832865,15.552 28.3668696,15.7759978 28.0268679,16.224 C27.6868662,16.6720022 27.5168679,17.2519964 27.5168679,17.964 C27.5168679,18.7000037 27.6808663,19.2819979 28.0088679,19.71 C28.3368696,20.1380021 28.788865,20.352 29.3648679,20.352 C29.9408708,20.352 30.4028662,20.1660019 30.7508679,19.794 C31.0988697,19.4219981 31.2728679,18.9480029 31.2728679,18.372 Z M35.3768679,21 L34.3568679,21 L34.3568679,14.892 L35.3768679,14.892 L35.3768679,21 Z M34.2008679,12.804 C34.2008679,12.3719978 34.4248657,12.156 34.8728679,12.156 C35.3128701,12.156 35.5328679,12.3719978 35.5328679,12.804 C35.5328679,12.9880009 35.4808684,13.1379994 35.3768679,13.254 C35.2728674,13.3700006 35.1048691,13.428 34.8728679,13.428 C34.6328667,13.428 34.4608684,13.3700006 34.3568679,13.254 C34.2528674,13.1379994 34.2008679,12.9880009 34.2008679,12.804 Z M38.6888679,14.892 L40.3088679,14.892 L40.3088679,15.672 L38.6888679,15.672 L38.6888679,19.356 C38.6888679,20.0120033 38.9888649,20.34 39.5888679,20.34 C39.804869,20.34 40.004867,20.3120003 40.1888679,20.256 L40.3448679,21.012 C40.0728666,21.1160005 39.7568697,21.168 39.3968679,21.168 C38.8608652,21.168 38.4388695,21.0180015 38.1308679,20.718 C37.8228664,20.4179985 37.6688679,19.9920028 37.6688679,19.44 L37.6688679,15.672 L36.5888679,15.672 L36.5888679,15.012 L37.6568679,14.892 L37.6568679,13.392 L38.6888679,13.032 L38.6888679,14.892 Z" id="Edit" fill="#006DD5"></path>
                        </g>
                    </g>
                    <g id="Filters-Copy" transform="translate(0.000000, 192.000000)">
                        <g id="SECTION-–-Source"></g>
                        <g id="Group-2" transform="translate(549.000000, 16.000000)">
                            <path d="M4.0065556,0.5 C2.06850889,0.5 0.5,2.06659802 0.5,4.0042577 L0.5,27.9957423 C0.5,29.9303394 2.07107172,31.5 4.0065556,31.5 L55.9934444,31.5 C57.9314911,31.5 59.5,29.933402 59.5,27.9957423 L59.5,4.0042577 C59.5,2.06966061 57.9289283,0.5 55.9934444,0.5 L4.0065556,0.5 Z" id="Rectangle-18" stroke="#E0E5EE" fill="#FFFFFF" transform="translate(30.000000, 16.000000) scale(-1, 1) translate(-30.000000, -16.000000) "></path>
                            <text id="Edit" font-family="SalesforceSans-Regular, Salesforce Sans" font-size="12" font-weight="normal" line-spacing="21" fill="#006DD5">
                                <tspan x="19" y="15">Edit</tspan>
                            </text>
                        </g>
                        <text id="Personalization" font-family="SalesforceSans-Regular, Salesforce Sans" font-size="16" font-weight="normal" fill="#16325C">
                            <tspan x="4" y="39">Personalization</tspan>
                        </text>
                        <text id="Choose-attributes-fo" font-family="SalesforceSans-Italic, Salesforce Sans" font-size="13" font-style="italic" font-weight="normal" line-spacing="27" fill="#A8B7C7">
                            <tspan x="128" y="34">Choose attributes for personalizing this journey</tspan>
                        </text>
                    </g>
                    <path d="M4,192 L609,192" id="Line" stroke="#E0E5EE" stroke-linecap="square"></path>
                </g>
                <text id="/-Source-Type:-Sales" font-family="SalesforceSans-Italic, Salesforce Sans" font-size="13" font-style="italic" font-weight="normal" line-spacing="20" fill="#54698D">
                    <tspan x="360" y="291">/  Source Type: </tspan>
                    <tspan x="452.222" y="291" font-family="SalesforceSans-Regular, Salesforce Sans">Salesforce DMP</tspan>
                </text>
                <g id="Output" transform="translate(24.000000, 115.000000)">
                    <rect id="Rectangle-2" stroke="#E0E5EE" fill="#F8F9FB" x="0.5" y="0.5" width="604" height="139" rx="4"></rect>
                    <text id="Source:-Winter-Jacke" font-family="SalesforceSans-Italic, Salesforce Sans" font-size="12" font-style="italic" font-weight="normal" line-spacing="13">
                        <tspan x="216" y="66.0119019" fill="#54698D">Source:</tspan>
                        <tspan x="257.544" y="66" font-family="SalesforceSans-Regular, Salesforce Sans" fill="#16325C"> Winter Jackets - New High Value, Salesforce DMP</tspan>
                        <tspan x="216" y="85.0119019" fill="#54698D">Channel:</tspan>
                        <tspan x="265.992" y="85" font-family="SalesforceSans-Regular, Salesforce Sans" fill="#16325C"> Email Address</tspan>
                        <tspan x="216" y="104.011902" fill="#53688E">Personalization:</tspan>
                        <tspan x="304.68" y="104" font-family="SalesforceSans-Regular, Salesforce Sans" fill="#16325C"> —</tspan>
                    </text>
                    <path d="M198,14.4988637 L198,124.500984" id="Line" stroke="#E0E5EE" stroke-linecap="square"></path>
                    <g id="Add-Filters-Button-Disabled-Copy-3" transform="translate(23.000000, 104.000000)">
                        <g id="Group-2"></g>
                    </g>
                    <text id="Attributes" font-family="SalesforceSans-Regular, Salesforce Sans" font-size="16" font-weight="normal" fill="#16325C">
                        <tspan x="239" y="38">Attributes</tspan>
                    </text>
                    <g id="Group-4" transform="translate(225.000000, 33.000000) rotate(-90.000000) translate(-225.000000, -33.000000) translate(218.000000, 26.000000)">
                        <rect id="Rectangle-12" stroke="#54698D" x="0.5" y="5.5" width="13" height="3"></rect>
                        <rect id="Rectangle-12" stroke="#54698D" x="0.5" y="10.5" width="13" height="3"></rect>
                        <rect id="Rectangle-12" fill="#54698D" x="0" y="0" width="14" height="4"></rect>
                    </g>
                    <text id="Count" font-family="SalesforceSans-Regular, Salesforce Sans" font-size="16" font-weight="normal" fill="#16325C">
                        <tspan x="44" y="38">Count</tspan>
                    </text>
                    <path d="M183.434783,14 L183.434783,14 C186.196206,14 188.434783,16.2385763 188.434783,19 L188.434783,119 C188.434783,121.761424 186.196206,124 183.434783,124 L183.434783,124 C180.673359,124 178.434783,121.761424 178.434783,119 L178.434783,19 C178.434783,16.2385763 180.673359,14 183.434783,14 Z" id="Rectangle-6" fill="#40ABDE"></path>
                    <text id="4,174,612" font-family="SalesforceSans-Regular, Salesforce Sans" font-size="24" font-weight="normal" fill="#5876A3">
                        <tspan x="21" y="83">4,174,612</tspan>
                    </text>
                    <text id="Contacts" font-family="SalesforceSans-Italic, Salesforce Sans" font-size="12" font-style="italic" font-weight="normal" line-spacing="13" fill="#54698D">
                        <tspan x="23" y="106">Contacts</tspan>
                    </text>
                    <g id="Group-4" transform="translate(23.000000, 26.000000)">
                        <rect id="Rectangle-12" stroke="#54698D" x="0.5" y="5.5" width="13" height="3"></rect>
                        <rect id="Rectangle-12" stroke="#54698D" x="0.5" y="10.5" width="13" height="3"></rect>
                        <rect id="Rectangle-12" fill="#54698D" x="0" y="0" width="14" height="4"></rect>
                    </g>
                    <path d="M325.5,27 C321.897917,27 319,29.8979167 319,33.5 C319,37.1020833 321.897917,40 325.5,40 C329.102083,40 332,37.1020833 332,33.5 C332,29.8979167 329.102083,27 325.5,27 L325.5,27 Z M325.5,30.2770833 C325.960417,30.2770833 326.3125,30.6291667 326.3125,31.0895833 C326.3125,31.55 325.960417,31.9020833 325.5,31.9020833 C325.039583,31.9020833 324.6875,31.55 324.6875,31.0895833 C324.6875,30.6291667 325.039583,30.2770833 325.5,30.2770833 L325.5,30.2770833 Z M326.854167,35.9645833 C326.854167,36.1 326.745833,36.2083333 326.583333,36.2083333 L324.416667,36.2083333 C324.28125,36.2083333 324.145833,36.1270833 324.145833,35.9645833 L324.145833,35.4229167 C324.145833,35.2875 324.254167,35.125 324.416667,35.125 C324.552083,35.125 324.6875,35.04375 324.6875,34.88125 L324.6875,33.7979167 C324.6875,33.6625 324.579167,33.5 324.416667,33.5 C324.28125,33.5 324.145833,33.41875 324.145833,33.25625 L324.145833,32.7145833 C324.145833,32.5791667 324.254167,32.4166667 324.416667,32.4166667 L326.041667,32.4166667 C326.177083,32.4166667 326.3125,32.5520833 326.3125,32.7145833 L326.3125,34.88125 C326.3125,35.0166667 326.420833,35.125 326.583333,35.125 C326.71875,35.125 326.854167,35.2604167 326.854167,35.4229167 L326.854167,35.9645833 L326.854167,35.9645833 Z" id="Shape" fill="#586C8F"></path>
                </g>
                <text id="Audience-Summary" font-family="SalesforceSans-Regular, Salesforce Sans" font-size="20" font-weight="normal" line-spacing="25" fill="#16325C">
                    <tspan x="65" y="39">Audience Summary</tspan>
                </text>
                <g id="BG---messages" transform="translate(23.000000, 16.000000)" fill="#92D359">
                    <rect id="Rectangle" x="0" y="0" width="34" height="34" rx="17"></rect>
                </g>
                <path d="M44.4961765,35.4900256 C43.7720439,35.1839457 42.6970816,34.3895671 41.1046143,34.1210028 C41.5122509,33.7017805 41.8206315,33.0515096 42.1365031,32.2827369 C42.3200333,31.8390996 42.2894449,31.457393 42.2894449,30.913714 C42.2894449,30.5135473 42.3693492,29.8728041 42.2644748,29.5196808 C41.9136451,28.3251355 41.0259585,28 39.9872028,28 C38.9453259,28 38.057015,28.3287084 37.7061853,29.5226583 C37.6031837,29.8757816 37.6837122,30.5165247 37.6837122,30.913714 C37.6837122,31.457393 37.6506269,31.8390996 37.8360298,32.2892872 C38.1550226,33.0610373 38.4584092,33.7083309 38.8666701,34.1239802 C37.2866878,34.4020723 36.2185923,35.1869231 35.497581,35.493003 C34.0068668,36.1277913 34,36.8215328 34,36.8215328 L34,38 L46,37.9970226 L46,36.8215328 C46,36.8215328 45.9918847,36.1248139 44.4961765,35.4900256 L44.4961765,35.4900256 Z M32.8951837,36.8606383 L32.8951837,36.8543372 C32.898278,36.6108838 33.0152449,35.8318331 34.2610353,35.1283961 C34.490637,34.839689 34.6787743,34.449018 34.8706248,33.9976268 C35.000588,33.6848609 34.9795463,33.4202128 34.9795463,33.0415712 C34.9795463,32.7591653 35.0358637,32.3106383 34.961599,32.0643208 C34.7078613,31.2314239 34.0679471,31 33.3178736,31 C32.5671812,31 31.927267,31.2314239 31.6735293,32.0671849 C31.5992646,32.3140753 31.6574386,32.7620295 31.6574386,33.0415712 C31.6574386,33.4202128 31.6345403,33.6882979 31.7682168,34.0010638 C31.9971996,34.5452537 32.2162805,34.996072 32.5083883,35.2847791 C31.3702818,35.4801146 30.5985477,36.0306056 30.0805514,36.2471358 C29.0068076,36.6893617 29,37.1734043 29,37.1734043 L29,38 L32.8951837,37.9971358 L32.8951837,36.8663666 L32.8951837,36.8606383 Z M50,38 L46.1090387,38 L46.1090387,36.8687679 L46.1090387,36.8630372 L46.1090387,36.8595989 C46.1053371,36.6103152 45.9856532,35.8217765 44.7197181,35.1123209 C44.499475,34.8292264 44.3193322,34.4469914 44.1317862,34.0022923 C43.9991468,33.6893983 44.0201224,33.4212034 44.0201224,33.0424069 C44.0201224,32.7627507 43.9645989,32.3146132 44.0380133,32.0676218 C44.2903366,31.2315186 44.9282396,31 45.6765725,31 C46.4230547,31 47.0609577,31.2315186 47.3169826,32.0647564 C47.38978,32.3111748 47.3330227,32.7598854 47.3330227,33.0424069 C47.3330227,33.4212034 47.355849,33.6859599 47.2225927,33.9988539 C46.9961803,34.5404011 46.7728526,34.9948424 46.4810459,35.286533 C47.6260632,35.4762178 48.3996902,36.0326648 48.9197601,36.2464183 C49.9950646,36.6882521 50,37.1759312 50,37.1759312 L50,38 Z" id="Fill-1" fill="#FFFFFF"></path>
                <g id="Audience-Name" transform="translate(22.000000, 56.000000)">
                    <path d="M1.5,46.5 L296.50678,46.5" id="Line" stroke="#D8DDE6" stroke-linecap="square"></path>
                    <g id="Group-Copy-2" transform="translate(280.000000, 26.000000)" fill="#D8DDE6">
                        <path d="M2.13938413,9.04361668 L4.70270224,11.6069348 C4.81790755,11.7221401 4.99071551,11.7221401 5.10592082,11.6069348 L11.4998154,5.18423886 C11.6150207,5.06903355 11.6150207,4.89622559 11.4998154,4.78102028 L8.96529863,2.24650351 C8.85009333,2.1312982 8.67728536,2.1312982 8.56208006,2.24650351 L2.13938413,8.66919943 C2.02417883,8.78440473 2.02417883,8.9572127 2.13938413,9.04361668 L2.13938413,9.04361668 Z M9.80053712,1.0656491 C9.68533181,1.18085441 9.68533181,1.35366237 9.80053712,1.46886768 L12.3350539,4.00338445 C12.4502592,4.11858976 12.6230672,4.11858976 12.7382725,4.00338445 L13.4583056,3.28335128 C13.9191269,2.85133137 13.9191269,2.16009952 13.4583056,1.69927829 L12.1046433,0.345615924 C11.643822,-0.115205308 10.9237889,-0.115205308 10.4629676,0.345615924 L9.80053712,1.0656491 L9.80053712,1.0656491 Z M0.00808593669,13.3062131 C-0.0495167173,13.5942263 0.209695226,13.8534383 0.497708496,13.7958356 L3.63705314,13.0470011 C3.75225845,13.0181998 3.83866243,12.9605971 3.89626508,12.9029945 L3.95386774,12.8453918 C4.01147039,12.7877892 4.04027172,12.5861799 3.92506641,12.4709746 L1.33294698,9.87885516 C1.21774167,9.76364985 1.01613238,9.79245118 0.958529728,9.85005383 L0.900927074,9.90765649 C0.814523093,9.99406047 0.785721766,10.0804644 0.756920439,10.1668684 L0.00808593669,13.3062131 L0.00808593669,13.3062131 Z" id="Shape"></path>
                    </g>
                    <text id="Title" font-family="SalesforceSans-Regular, Salesforce Sans" font-size="12" font-weight="normal" line-spacing="25" fill="#16325C">
                        <tspan x="3" y="34">Winter Jackets -  New High Value</tspan>
                    </text>
                    <text id="NAME" font-family="SalesforceSans-Regular, Salesforce Sans" font-size="12" font-weight="normal" fill="#54698D">
                        <tspan x="3" y="14">NAME</tspan>
                    </text>
                    <text id="*" font-family="SalesforceSans-Regular, Salesforce Sans" font-size="13" font-weight="normal" fill="#C23934">
                        <tspan x="41" y="13">*</tspan>
                    </text>
                </g>
                <g id="Description" transform="translate(350.000000, 58.000000)">
                    <path d="M0.498099685,44.5 L279.516128,44.5" id="Line" stroke="#D8DDE6" stroke-linecap="square"></path>
                    <text id="Title" font-family="SalesforceSans-Regular, Salesforce Sans" font-size="12" font-weight="normal" line-spacing="25" fill="#16325C">
                        <tspan x="3" y="32">High propensity customers - Winter…</tspan>
                    </text>
                    <text id="DESCRIPTION" font-family="SalesforceSans-Regular, Salesforce Sans" font-size="12" font-weight="normal" fill="#54698D">
                        <tspan x="1" y="12">DESCRIPTION</tspan>
                    </text>
                    <g id="Group-Copy-2" transform="translate(261.000000, 22.000000)" fill="#D8DDE6">
                        <path d="M2.8060508,9.71028334 L5.3693689,12.2736014 C5.48457421,12.3888068 5.65738217,12.3888068 5.77258748,12.2736014 L12.1664821,5.85090553 C12.2816874,5.73570022 12.2816874,5.56289226 12.1664821,5.44768695 L9.6319653,2.91317017 C9.51675999,2.79796486 9.34395203,2.79796486 9.22874672,2.91317017 L2.8060508,9.33586609 C2.69084549,9.4510714 2.69084549,9.62387936 2.8060508,9.71028334 L2.8060508,9.71028334 Z M10.4672038,1.73231577 C10.3519985,1.84752107 10.3519985,2.02032904 10.4672038,2.13553434 L13.0017206,4.67005112 C13.1169259,4.78525643 13.2897338,4.78525643 13.4049391,4.67005112 L14.1249723,3.95001794 C14.5857935,3.51799804 14.5857935,2.82676619 14.1249723,2.36594496 L12.7713099,1.01228259 C12.3104887,0.551461359 11.5904555,0.551461359 11.1296343,1.01228259 L10.4672038,1.73231577 L10.4672038,1.73231577 Z M0.674752603,13.9728797 C0.617149949,14.260893 0.876361892,14.520105 1.16437516,14.4625023 L4.30371981,13.7136678 C4.41892511,13.6848665 4.50532909,13.6272638 4.56293175,13.5696612 L4.6205344,13.5120585 C4.67813706,13.4544559 4.70693838,13.2528466 4.59173308,13.1376413 L1.99961365,10.5455218 C1.88440834,10.4303165 1.68279905,10.4591178 1.62519639,10.5167205 L1.56759374,10.5743232 C1.48118976,10.6607271 1.45238843,10.7471311 1.42358711,10.8335351 L0.674752603,13.9728797 L0.674752603,13.9728797 Z" id="Shape"></path>
                    </g>
                </g>
                <text id="＊-required" font-family="SalesforceSans-Regular, Salesforce Sans" font-size="12" font-weight="normal" letter-spacing="1">
                    <tspan x="23" y="521" fill="#C23934">＊</tspan>
                    <tspan x="36" y="521" font-family="SalesforceSans-Regular, Salesforce Sans" fill="#7E8C99"> </tspan>
                    <tspan x="40.096" y="521" font-family="SalesforceSans-Italic, Salesforce Sans" font-style="italic" fill="#7E8C99">required</tspan>
                </text>
                <g id="Group-2" transform="translate(570.000000, 274.000000)">
                    <path d="M4.0065556,0.5 C2.06850889,0.5 0.5,2.06659802 0.5,4.0042577 L0.5,27.9957423 C0.5,29.9303394 2.07107172,31.5 4.0065556,31.5 L55.9934444,31.5 C57.9314911,31.5 59.5,29.933402 59.5,27.9957423 L59.5,4.0042577 C59.5,2.06966061 57.9289283,0.5 55.9934444,0.5 L4.0065556,0.5 Z" id="Rectangle-18" stroke="#E0E5EE" fill="#FFFFFF" transform="translate(30.000000, 16.000000) scale(-1, 1) translate(-30.000000, -16.000000) "></path>
                    <text id="Edit" font-family="SalesforceSans-Regular, Salesforce Sans" font-size="12" font-weight="normal" line-spacing="21" fill="#006DD5">
                        <tspan x="20" y="15">Edit</tspan>
                    </text>
                </g>
                <g id="Group-2" transform="translate(570.000000, 274.000000)">
                    <path d="M4.0065556,0.5 C2.06850889,0.5 0.5,2.06659802 0.5,4.0042577 L0.5,27.9957423 C0.5,29.9303394 2.07107172,31.5 4.0065556,31.5 L55.9934444,31.5 C57.9314911,31.5 59.5,29.933402 59.5,27.9957423 L59.5,4.0042577 C59.5,2.06966061 57.9289283,0.5 55.9934444,0.5 L4.0065556,0.5 Z" id="Rectangle-18" stroke="#E0E5EE" fill="#FFFFFF" transform="translate(30.000000, 16.000000) scale(-1, 1) translate(-30.000000, -16.000000) "></path>
                    <path d="M44.308469,14 L52.704149,14 C52.9413151,14 53.1073314,14.2708333 52.9175985,14.4583333 L48.8146249,18.875 C48.6723253,19.0416667 48.3640093,19.0416667 48.2217097,18.875 L44.0713029,14.4583333 C43.9052866,14.2708333 44.0475862,14 44.308469,14" id="down" fill="#00396B"></path>
                    <path d="M18.228,13.356 L14.136,13.356 L14.136,16.212 L17.7,16.212 L17.7,17.028 L14.136,17.028 L14.136,20.124 L18.432,20.124 L18.432,21 L13.08,21 L13.08,12.504 L18.228,12.504 L18.228,13.356 Z M25.032,21 L24.084,21 C24.0279997,20.6479982 24,20.3440013 24,20.088 L23.976,20.088 C23.5199977,20.8080036 22.792005,21.168 21.792,21.168 C20.9279957,21.168 20.2660023,20.872003 19.806,20.28 C19.3459977,19.687997 19.116,18.9160048 19.116,17.964 C19.116,17.355997 19.2299989,16.8060025 19.458,16.314 C19.6860011,15.8219975 20.0119979,15.4340014 20.436,15.15 C20.8600021,14.8659986 21.3599971,14.724 21.936,14.724 C22.7520041,14.724 23.4159974,14.9879974 23.928,15.516 L23.928,12.504 L24.948,12.504 L24.948,19.644 C24.948,20.0840022 24.9759997,20.5359977 25.032,21 Z M23.928,18.372 L23.928,16.452 C23.6879988,16.1479985 23.4180015,15.9220007 23.118,15.774 C22.8179985,15.6259993 22.472002,15.552 22.08,15.552 C21.487997,15.552 21.0220017,15.7759978 20.682,16.224 C20.3419983,16.6720022 20.172,17.2519964 20.172,17.964 C20.172,18.7000037 20.3359984,19.2819979 20.664,19.71 C20.9920016,20.1380021 21.4439971,20.352 22.02,20.352 C22.5960029,20.352 23.0579983,20.1660019 23.406,19.794 C23.7540017,19.4219981 23.928,18.9480029 23.928,18.372 Z M28.032,21 L27.012,21 L27.012,14.892 L28.032,14.892 L28.032,21 Z M26.856,12.804 C26.856,12.3719978 27.0799978,12.156 27.528,12.156 C27.9680022,12.156 28.188,12.3719978 28.188,12.804 C28.188,12.9880009 28.1360005,13.1379994 28.032,13.254 C27.9279995,13.3700006 27.7600012,13.428 27.528,13.428 C27.2879988,13.428 27.1160005,13.3700006 27.012,13.254 C26.9079995,13.1379994 26.856,12.9880009 26.856,12.804 Z M31.344,14.892 L32.964,14.892 L32.964,15.672 L31.344,15.672 L31.344,19.356 C31.344,20.0120033 31.643997,20.34 32.244,20.34 C32.4600011,20.34 32.6599991,20.3120003 32.844,20.256 L33,21.012 C32.7279986,21.1160005 32.4120018,21.168 32.052,21.168 C31.5159973,21.168 31.0940015,21.0180015 30.786,20.718 C30.4779985,20.4179985 30.324,19.9920028 30.324,19.44 L30.324,15.672 L29.244,15.672 L29.244,15.012 L30.312,14.892 L30.312,13.392 L31.344,13.032 L31.344,14.892 Z" id="Edit" fill="#006DD5"></path>
                </g>
                <g id="Group-2" transform="translate(570.000000, 465.000000)">
                    <path d="M4.0065556,0.5 C2.06850889,0.5 0.5,2.06659802 0.5,4.0042577 L0.5,27.9957423 C0.5,29.9303394 2.07107172,31.5 4.0065556,31.5 L55.9934444,31.5 C57.9314911,31.5 59.5,29.933402 59.5,27.9957423 L59.5,4.0042577 C59.5,2.06966061 57.9289283,0.5 55.9934444,0.5 L4.0065556,0.5 Z" id="Rectangle-18" stroke="#E0E5EE" fill="#FFFFFF" transform="translate(30.000000, 16.000000) scale(-1, 1) translate(-30.000000, -16.000000) "></path>
                    <path d="M44.308469,14 L52.704149,14 C52.9413151,14 53.1073314,14.2708333 52.9175985,14.4583333 L48.8146249,18.875 C48.6723253,19.0416667 48.3640093,19.0416667 48.2217097,18.875 L44.0713029,14.4583333 C43.9052866,14.2708333 44.0475862,14 44.308469,14" id="down" fill="#00396B"></path>
                    <path d="M18.228,13.356 L14.136,13.356 L14.136,16.212 L17.7,16.212 L17.7,17.028 L14.136,17.028 L14.136,20.124 L18.432,20.124 L18.432,21 L13.08,21 L13.08,12.504 L18.228,12.504 L18.228,13.356 Z M25.032,21 L24.084,21 C24.0279997,20.6479982 24,20.3440013 24,20.088 L23.976,20.088 C23.5199977,20.8080036 22.792005,21.168 21.792,21.168 C20.9279957,21.168 20.2660023,20.872003 19.806,20.28 C19.3459977,19.687997 19.116,18.9160048 19.116,17.964 C19.116,17.355997 19.2299989,16.8060025 19.458,16.314 C19.6860011,15.8219975 20.0119979,15.4340014 20.436,15.15 C20.8600021,14.8659986 21.3599971,14.724 21.936,14.724 C22.7520041,14.724 23.4159974,14.9879974 23.928,15.516 L23.928,12.504 L24.948,12.504 L24.948,19.644 C24.948,20.0840022 24.9759997,20.5359977 25.032,21 Z M23.928,18.372 L23.928,16.452 C23.6879988,16.1479985 23.4180015,15.9220007 23.118,15.774 C22.8179985,15.6259993 22.472002,15.552 22.08,15.552 C21.487997,15.552 21.0220017,15.7759978 20.682,16.224 C20.3419983,16.6720022 20.172,17.2519964 20.172,17.964 C20.172,18.7000037 20.3359984,19.2819979 20.664,19.71 C20.9920016,20.1380021 21.4439971,20.352 22.02,20.352 C22.5960029,20.352 23.0579983,20.1660019 23.406,19.794 C23.7540017,19.4219981 23.928,18.9480029 23.928,18.372 Z M28.032,21 L27.012,21 L27.012,14.892 L28.032,14.892 L28.032,21 Z M26.856,12.804 C26.856,12.3719978 27.0799978,12.156 27.528,12.156 C27.9680022,12.156 28.188,12.3719978 28.188,12.804 C28.188,12.9880009 28.1360005,13.1379994 28.032,13.254 C27.9279995,13.3700006 27.7600012,13.428 27.528,13.428 C27.2879988,13.428 27.1160005,13.3700006 27.012,13.254 C26.9079995,13.1379994 26.856,12.9880009 26.856,12.804 Z M31.344,14.892 L32.964,14.892 L32.964,15.672 L31.344,15.672 L31.344,19.356 C31.344,20.0120033 31.643997,20.34 32.244,20.34 C32.4600011,20.34 32.6599991,20.3120003 32.844,20.256 L33,21.012 C32.7279986,21.1160005 32.4120018,21.168 32.052,21.168 C31.5159973,21.168 31.0940015,21.0180015 30.786,20.718 C30.4779985,20.4179985 30.324,19.9920028 30.324,19.44 L30.324,15.672 L29.244,15.672 L29.244,15.012 L30.312,14.892 L30.312,13.392 L31.344,13.032 L31.344,14.892 Z" id="Edit" fill="#006DD5"></path>
                </g>
            </g>
            <g id="JB-App-Nav" opacity="0.33" transform="translate(0.000000, 54.000000)">
                <g id="JB-Nav">
                    <g id="Nav/Versions" transform="translate(289.000000, 24.000000)">
                        <g>
                            <rect id="Rectangle-10" stroke="#D8DDE6" fill="#FFFFFF" x="0.5" y="0.5" width="87" height="31" rx="4"></rect>
                            <g id="icons/utility/down" transform="translate(70.000000, 14.000000)">
                                <mask id="mask-4" fill="white">
                                    <use xlink:href="#path-3"></use>
                                </mask>
                                <use id="Mask" fill="#54698D" xlink:href="#path-3"></use>
                            </g>
                            <text id="Version-1" font-family="SalesforceSans-Bold, Salesforce Sans" font-size="12" font-weight="bold" fill="#6187BF">
                                <tspan x="8.198" y="21">Version 1</tspan>
                            </text>
                        </g>
                    </g>
                </g>
            </g>
            <text id="Email-/-Address:-Ema" font-family="SalesforceSans-Bold, Salesforce Sans" font-size="13" font-weight="bold" line-spacing="27">
                <tspan x="145" y="486" fill="#16325C">Email </tspan>
                <tspan x="183.168" y="486" font-family="SalesforceSans-Regular, Salesforce Sans" font-weight="normal" fill="#A8B7C7">/</tspan>
                <tspan x="190.11" y="486" font-family="SalesforceSans-Regular, Salesforce Sans" font-weight="normal" fill="#16325C"> </tspan>
                <tspan x="193.464" y="486" font-family="SalesforceSans-Italic, Salesforce Sans" font-style="italic" font-weight="normal" fill="#54698D">Address:</tspan>
                <tspan x="244.229" y="486" font-family="SalesforceSans-Regular, Salesforce Sans" font-weight="normal" fill="#16325C"> Email Address</tspan>
            </text>
        </g>
    </g>
</svg>