<?xml version="1.0" encoding="UTF-8"?>
<svg width="1024px" height="768px" viewBox="0 0 1024 768" version="1.1" xmlns="http://www.w3.org/2000/svg" xmlns:xlink="http://www.w3.org/1999/xlink">
    <!-- Generator: Sketch 51.2 (57519) - http://www.bohemiancoding.com/sketch -->
    <title>9</title>
    <desc>Created with Sketch.</desc>
    <defs>
        <linearGradient x1="50%" y1="0%" x2="50%" y2="98.6158779%" id="linearGradient-1">
            <stop stop-color="#FFFFFF" offset="0%"></stop>
            <stop stop-color="#D6EAF5" offset="100%"></stop>
        </linearGradient>
        <linearGradient x1="96.9428266%" y1="48.828125%" x2="2.06497026%" y2="48.828125%" id="linearGradient-2">
            <stop stop-color="#CCCCCE" stop-opacity="0" offset="0%"></stop>
            <stop stop-color="#CCCCCE" offset="5.16166908%"></stop>
            <stop stop-color="#CCCCCE" offset="93.8109646%"></stop>
            <stop stop-color="#CCCCCE" stop-opacity="0" offset="100%"></stop>
        </linearGradient>
        <rect id="path-3" x="-13" y="653" width="1049" height="131"></rect>
        <filter x="-0.4%" y="-3.4%" width="100.9%" height="106.9%" filterUnits="objectBoundingBox" id="filter-4">
            <feGaussianBlur stdDeviation="3" in="SourceAlpha" result="shadowBlurInner1"></feGaussianBlur>
            <feOffset dx="0" dy="3" in="shadowBlurInner1" result="shadowOffsetInner1"></feOffset>
            <feComposite in="shadowOffsetInner1" in2="SourceAlpha" operator="arithmetic" k2="-1" k3="1" result="shadowInnerInner1"></feComposite>
            <feColorMatrix values="0 0 0 0 0.705882353   0 0 0 0 0.752941176   0 0 0 0 0.780392157  0 0 0 1 0" type="matrix" in="shadowInnerInner1"></feColorMatrix>
        </filter>
        <linearGradient x1="50%" y1="0%" x2="50%" y2="97.1595014%" id="linearGradient-5">
            <stop stop-color="#107DBB" offset="0%"></stop>
            <stop stop-color="#085997" offset="100%"></stop>
        </linearGradient>
        <linearGradient x1="50%" y1="0%" x2="50%" y2="100%" id="linearGradient-6">
            <stop stop-color="#B8025D" offset="0%"></stop>
            <stop stop-color="#97004D" offset="97.1595014%"></stop>
        </linearGradient>
    </defs>
    <g id="9" stroke="none" stroke-width="1" fill="none" fill-rule="evenodd">
        <rect id="Rectangle" fill="url(#linearGradient-1)" fill-rule="nonzero" x="0" y="0" width="1024" height="768"></rect>
        <g id="Top-Right-Block" transform="translate(662.000000, 40.000000)">
            <g id="Group-3">
                <text id="Customer-Service" font-family=".AppleSystemUIFont" font-size="17" font-weight="normal" fill="#969698">
                    <tspan x="24" y="16">Customer Service</tspan>
                </text>
                <text id="Thursday,-September" font-family=".AppleSystemUIFont" font-size="17" font-weight="normal" fill="#969698">
                    <tspan x="24" y="48">Thursday, September 27, 2018</tspan>
                </text>
                <text id="Sarah-Flamion" font-family=".AppleSystemUIFont" font-size="17" font-weight="normal" fill="#969698">
                    <tspan x="24" y="80">Sarah Flamion</tspan>
                </text>
                <text id="1-800-266-7277" font-family=".AppleSystemUIFont" font-size="17" font-weight="normal" fill="#969698">
                    <tspan x="195.943359" y="16">1-800-266-7277</tspan>
                </text>
                <text id="1:24-PM" opacity="0" font-family=".AppleSystemUIFont" font-size="17" font-weight="normal" fill="#969698">
                    <tspan x="265.141113" y="48">1:24 </tspan>
                    <tspan x="302.170898" y="48" font-size="14">PM</tspan>
                </text>
                <path d="M0.5,30.25 L340.5,30.25" id="Line" stroke="url(#linearGradient-2)" stroke-width="2" stroke-linecap="square" fill-rule="nonzero"></path>
                <path d="M0.5,62.25 L340.5,62.25" id="Line-Copy" stroke="url(#linearGradient-2)" stroke-width="2" stroke-linecap="square" fill-rule="nonzero"></path>
            </g>
        </g>
        <g id="Group-2" transform="translate(23.000000, 0.000000)" fill-rule="nonzero">
            <g id="Group">
                <rect id="Rectangle-2" fill="#114F9C" x="0" y="0" width="13" height="14"></rect>
                <rect id="Rectangle-2-Copy" fill="#0B72B6" x="0" y="14" width="13" height="14"></rect>
                <rect id="Rectangle-2-Copy-2" fill="#12ABDB" x="0" y="28" width="13" height="14"></rect>
                <rect id="Rectangle-2-Copy-3" fill="#5ABFE7" x="0" y="42" width="13" height="14"></rect>
                <rect id="Rectangle-2-Copy-4" fill="#94D3E8" x="0" y="56" width="13" height="14"></rect>
                <rect id="Rectangle-2-Copy-5" fill="#B9E6F8" x="0" y="70" width="13" height="14"></rect>
            </g>
            <g id="BBVA-Compass-Logo" transform="translate(41.000000, 42.000000)" fill="#114F9C">
                <path d="M191.138131,26.1275345 C188.49362,26.1275345 186.652471,25.4073471 185.023506,23.7250275 L185.023506,13.4773429 C187.320605,10.8337599 189.587456,9.59927708 192.141666,9.59927708 C195.877344,9.59927708 197.93557,12.5134733 197.93557,17.8041141 C197.93557,24.6845535 194.238148,26.1275345 191.138131,26.1275345 M192.462833,7 C189.722684,7 187.172922,8.07246242 185.023506,10.118785 L185.023506,9.76911621 C185.023506,8.04596578 184.866926,7.23325732 183.431016,7.23325732 L182,7.23325732 L182,35 L185.023506,35 L185.023506,26.8451157 C186.804603,28.115217 188.84726,28.6903244 191.499333,28.6903244 C193.728818,28.6903244 201,27.8906471 201,17.6099502 C201,8.03250027 195.029499,7 192.462833,7" id="Shape"></path>
                <path d="M216.959782,23.4289293 C216.186201,24.3018965 215.37014,25.0458431 214.41412,25.5575524 C213.408017,26.1059998 212.189515,26.4322691 210.56589,26.4322691 C209.907675,26.4322691 209.292835,26.3579182 208.727629,26.202656 C208.321611,26.0924417 207.964333,25.923184 207.634331,25.7158761 C207.16437,25.416723 206.786075,25.0099797 206.504814,24.4659059 C206.223552,23.9122103 206.067494,23.2264323 206.067494,22.3687726 C206.067494,21.6340106 206.21908,21.058447 206.504814,20.5826011 C206.72392,20.2160948 206.989531,19.9095066 207.33563,19.6121029 C207.840917,19.2066717 208.514335,18.9162658 209.330843,18.704147 C210.12231,18.5007753 211.040323,18.402807 212.069678,18.402807 C213.87932,18.402807 215.476117,18.6341696 216.959782,18.9512544 L216.959782,23.4289293 Z M218.325846,8.80541529 C217.651533,8.15550078 216.774659,7.68315375 215.746646,7.3979961 C214.752617,7.11939883 213.607896,7 212.376427,7 C208.172261,7.02186792 205.807249,8.21279472 204.269925,9.06870502 C205.407044,11.4203809 206.609895,10.8448173 208.164212,10.1909666 C209.357226,9.68975389 210.731785,9.47938452 212.181467,9.47938452 C212.847283,9.48113395 213.58062,9.63420938 214.292493,9.77591348 C214.71282,9.88612779 215.088879,10.0400779 215.400994,10.2185201 C215.909858,10.5277325 216.270714,10.9104211 216.544821,11.4050734 C216.813115,11.9054113 216.959782,12.5658224 216.959782,13.4125482 L216.959782,16.4841159 C215.37014,16.1381655 213.76932,15.9829033 211.945815,15.9829033 C210.669183,15.9829033 209.499421,16.1014274 208.413278,16.3542205 C207.619128,16.5475329 206.899653,16.8086358 206.211479,17.1528369 C205.22997,17.6794163 204.423747,18.3940599 203.854069,19.2858336 C203.290205,20.1999125 203,21.2736273 203,22.5275337 C203,23.5452666 203.186017,24.4952089 203.529433,25.299511 C204.075412,26.5031211 205.010416,27.4556876 206.17034,28.0658026 C207.350387,28.6890382 208.731206,29 210.290889,29 L210.296254,29 C212.092483,29 213.518018,28.672856 214.736967,28.1169735 C215.568678,27.7189774 216.294413,27.2335096 216.959782,26.6544471 C216.973644,26.9365433 216.996449,27.1652817 217.030433,27.380462 C217.062628,27.6144487 217.122994,27.8248181 217.231206,28.0159437 C217.304093,28.1572104 217.397996,28.2980398 217.525882,28.4073794 C217.717713,28.5578307 217.938608,28.6636714 218.163081,28.7148424 C218.393813,28.7756352 218.655847,28.7926921 218.934426,28.7926921 L220,28.7926921 L220,13.2861516 C220,12.1704505 219.810406,11.2143851 219.447762,10.3860284 C219.178126,9.76847839 218.803409,9.23971214 218.325846,8.80541529 Z" id="Shape"></path>
                <path d="M112.932159,2.7028922 C113.604293,2.7028922 114.210453,2.74233129 114.765694,2.81419807 C115.972702,2.96669588 116.926441,3.27125329 117.715468,3.66213848 L117.798267,3.70420684 L118.088728,3.86021034 C118.229974,3.94303243 118.369006,4.0254163 118.496968,4.10911481 L118.523977,4.12883436 L118.745365,4.28133216 L118.99022,4.46932515 C119.21338,4.65162138 119.424141,4.83304119 119.627375,5.00175285 C119.846106,5.18141981 120.058196,5.34312007 120.269843,5.47063979 C121.038945,5.9347064 121.812918,5.93733567 123,4.61086766 C122.627183,4.07756354 122.232226,3.61700263 121.830186,3.21209465 C119.858504,1.22743208 117.695543,0.670026293 116.815747,0.4057844 L116.797594,0.39964943 C116.183021,0.253286591 115.509115,0.151621385 114.765694,0.0828220859 C114.164405,0.0297984224 113.520166,0 112.812609,0 C106.434864,0 100,4.45749343 100,14.42156 L100.001771,14.5004382 L100,14.5801928 C100,24.5416301 106.434864,29 112.812609,29 C113.520166,29 114.164405,28.9697634 114.765694,28.9167397 C115.509115,28.8501315 116.183021,28.7440841 116.797594,28.5985977 L116.815747,28.595092 C117.695543,28.3295355 119.858504,27.7734443 121.830186,25.7887818 C122.232226,25.3847502 122.627183,24.9241893 123,24.3891323 C121.812918,23.0644172 121.038945,23.0652936 120.269843,23.528922 C120.058196,23.6573181 119.846106,23.8185802 119.627375,23.9991236 C119.424141,24.1682734 119.21338,24.3483786 118.99022,24.5306748 L118.745365,24.7186678 L118.523977,24.8720421 L118.496968,24.8917616 C118.369006,24.9763365 118.229974,25.057844 118.088728,25.1397897 L117.798267,25.2966696 L117.715468,25.3365469 C116.926441,25.7296231 115.972702,26.035057 114.765694,26.1884312 C114.210453,26.2576687 113.604293,26.2971078 112.932159,26.2971078 C106.935643,26.2971078 103.210126,21.8387379 103.210126,14.6586328 L103.214554,14.5004382 L103.210126,14.3426819 C103.210126,7.1630149 106.935643,2.7028922 112.932159,2.7028922" id="Shape"></path>
                <path d="M231.183921,16.2602851 C227.111519,15.546486 226.424233,14.6162248 226.424233,12.8008351 C226.424233,10.6107996 227.867366,9.54995998 230.839016,9.54557816 C233.292048,9.54294906 234.108463,10.22739 234.853794,10.5783741 C235.599546,10.9311109 236.223319,11.0108601 237.013235,10.0249497 C237.117127,9.89480952 237.223123,9.7484566 237.333745,9.58150911 C237.245836,9.48028898 237.139841,9.36767611 237.013235,9.24323231 C234.460939,6.93620201 231.910325,7.00017664 230.801161,7.00017664 C226.406988,7.00017664 223.677612,9.28354509 223.677612,12.9585808 C223.677612,17.2948338 227.200269,18.4367371 230.269503,18.9494105 C234.442852,19.6469968 235.17893,20.6574454 235.17893,22.5258552 C235.17893,25.1702859 233.573019,26.4541603 230.269503,26.4541603 C228.764539,26.4541603 227.590601,26.1320962 226.690062,25.6974193 L226.690062,25.7018011 C225.337362,25.0348875 224.572262,24.3504466 223.487914,25.5655264 C223.332707,25.7403612 223.17077,25.9533178 223,26.2100927 C223.127447,26.3538165 223.28686,26.5242695 223.487914,26.7100588 C223.879087,27.0693684 224.426308,27.4930908 225.182996,27.9115549 C225.617492,28.128017 226.115922,28.3344009 226.690062,28.5070448 C227.667153,28.8015034 228.864646,29 230.345213,29 C235.28156,29 238,26.6447696 238,22.3681095 C238,17.9727019 234.722141,16.8338659 231.183921,16.2602851" id="Shape"></path>
                <path d="M249.183539,16.2602851 C245.109226,15.546486 244.422743,14.6162248 244.422743,12.8008351 C244.422743,10.6107996 245.865956,9.54995998 248.837773,9.54557816 C251.290101,9.54294906 252.107403,10.22739 252.853617,10.5783741 C253.599411,10.9311109 254.222378,11.0108601 255.01318,10.0249497 C255.116657,9.89480952 255.222658,9.7484566 255.334549,9.58150911 C255.245794,9.48028898 255.139792,9.36767611 255.01318,9.24323231 C252.459899,6.93620201 249.909142,7.00017664 248.799916,7.00017664 C244.405496,7.00017664 241.676809,9.28354509 241.676809,12.9585808 C241.676809,17.2948338 245.198822,18.4367371 248.268228,18.9494105 C252.443494,19.6469968 253.17793,20.6574454 253.17793,22.5258552 C253.17793,25.1702859 251.571929,26.4541603 248.268228,26.4541603 C246.76318,26.4541603 245.589176,26.1320962 244.689428,25.6974193 L244.689428,25.7018011 C243.336652,25.0348875 242.570667,24.3504466 241.486259,25.5655264 C241.331884,25.7403612 241.169938,25.9533178 241,26.2100927 C241.12493,26.3538165 241.285193,26.5242695 241.486259,26.7100588 C241.877454,27.0693684 242.425547,27.4930908 243.180595,27.9115549 C243.615956,28.128017 244.114414,28.3344009 244.689428,28.5070448 C245.667414,28.8015034 246.864133,29 248.343943,29 C253.281408,29 256,26.6447696 256,22.3681095 C256,17.9727019 252.721116,16.8338659 249.183539,16.2602851" id="Shape"></path>
                <path d="M140.519732,21.6445956 C140.020559,23.2206909 139.204286,24.3902503 138.125795,25.197176 C137.029009,26.0023456 135.64997,26.4299548 133.999564,26.4299548 C132.885356,26.4299548 131.900078,26.2345892 131.04591,25.8701995 C129.769666,25.3302002 128.769144,24.3902503 128.054796,23.0815204 C127.359613,21.763571 126.972384,20.0755246 126.972384,18.0011372 C126.972384,16.6406025 127.137468,15.431531 127.466765,14.3783129 C127.956791,12.8184615 128.782211,11.6208046 129.8668,10.8086106 C130.951389,9.97534344 132.333914,9.5481733 133.999564,9.5481733 C135.094608,9.5481733 136.083805,9.73870962 136.928827,10.1066116 C138.217702,10.6751473 139.211255,11.6251948 139.904696,12.95851 C140.623399,14.267679 141.008015,15.9697742 141.008015,18.0011372 C141.008015,19.3765987 140.837268,20.6036702 140.519732,21.6445956 M139.790574,8.71051592 C138.206377,7.57520042 136.22711,6.99217684 133.999564,7.00007927 C132.513372,7.00007927 131.161774,7.25120087 129.930395,7.7372002 C128.102274,8.51163815 126.606063,9.81992902 125.581584,11.5720729 C124.557975,13.3299242 124,15.5153845 124,18.0011372 C124,19.6799641 124.247844,21.1954742 124.719139,22.5551309 C125.415629,24.5755183 126.625664,26.1985892 128.213782,27.3123926 C129.815838,28.4038057 131.785086,29 133.999564,29 C135.471383,29 136.843018,28.7282443 138.082237,28.2334645 C139.904696,27.4822948 141.405262,26.1805893 142.416238,24.4372258 C143.459012,22.6960575 144,20.507524 144,18.0011372 C144,16.3394322 143.759997,14.8028489 143.300897,13.4633874 C142.589598,11.4311463 141.389145,9.80544124 139.790574,8.71051592" id="Shape"></path>
                <path d="M175.741721,8.57268722 C175.218806,8.00410355 174.558577,7.59435158 173.850849,7.34681069 C173.125849,7.10476133 172.331328,7 171.506581,7 C169.796203,7 168.195935,7.40214833 166.773571,8.02226782 C165.586971,8.55536781 164.528186,9.208014 163.589011,9.9257136 C163.444789,9.56918713 163.263431,9.24096313 163.054869,8.95371432 C162.529363,8.26431718 161.826817,7.74600205 161.031001,7.43256291 C160.252457,7.12039104 159.394029,7 158.516602,7 C156.75268,7 155.135572,7.43256291 153.731343,8.07591576 C152.690694,8.56423873 151.743746,9.13704665 150.923317,9.71365639 L150.923317,9.67563816 C150.923317,9.22955766 150.918136,8.8764106 150.875819,8.57775632 C150.858115,8.35725062 150.815798,8.15448675 150.7588,7.96228351 C150.706552,7.83175427 150.632281,7.69826806 150.518285,7.59181703 C150.445742,7.51155633 150.360676,7.43256291 150.266974,7.39201014 C150.111093,7.30879247 149.973347,7.2648603 149.820057,7.24838573 C149.668061,7.23106632 149.52902,7.22937662 149.383934,7.21797115 L148,7.21797115 L148,28 L150.923317,28 L150.923317,12.5079959 C151.912582,11.724398 152.935527,11.0100778 154.027561,10.4735985 C155.195593,9.90754933 156.423645,9.55271257 157.826147,9.55271257 C158.33654,9.55271257 158.795116,9.60002414 159.194967,9.69971637 C159.49939,9.78124434 159.748973,9.90248024 159.971784,10.0427252 C160.302978,10.2780158 160.560334,10.5792046 160.749032,11.0155694 C160.944208,11.4734778 161.056909,12.0636051 161.056909,12.8497375 L161.056909,28 L163.997067,28 L163.997067,12.4860298 C164.970354,11.724398 166.000208,11.0155694 167.07972,10.4769779 C168.238252,9.91092873 169.464577,9.55271257 170.806194,9.55271257 C171.360631,9.55271257 171.846412,9.60002414 172.251013,9.69971637 C172.552844,9.78124434 172.814518,9.90248024 173.041215,10.0427252 C173.368523,10.2763261 173.611629,10.571601 173.799464,11.0155694 C173.981686,11.4709432 174.085319,12.0560014 174.085319,12.8497375 L174.085319,28 L177,28 L177,12.3174823 C177,11.396174 176.85405,10.6070847 176.587627,9.90754933 C176.376042,9.3926136 176.087597,8.94230885 175.741721,8.57268722" id="Shape"></path>
                <path d="M72.4796527,17.849647 L76.3357967,5.07068423 L80.2419141,17.849647 L72.4796527,17.849647 Z M79.0179944,0 L73.6281813,0 L65,28 L69.3942206,28 L71.2471169,21.9709684 L81.496421,21.9709684 L83.3583643,28 L91,28 L82.4459173,2.84209883 C81.6644353,0.540781713 81.2254441,3.41993341e-15 79.0179944,0 Z" id="Shape"></path>
                <path d="M32.8200063,24.2609652 L30.7739337,24.2609652 L30.7739337,3.64795357 L34.4717242,3.64795357 C36.2522558,3.64795357 37.7879094,5.07617593 37.7879094,6.80158827 C37.7879094,7.41050703 37.6714054,7.97751985 37.062068,8.82846671 L34.6656043,12.3263286 C37.1732962,12.9100183 38.8491941,14.7692731 38.8491941,18.2410507 C38.8491941,22.4628589 36.2522558,24.2609652 32.8200063,24.2609652 M40.0819375,10.9742211 L41.4944926,8.94691509 C44.4638039,4.65668907 42.4203691,0 36.5446147,0 L24,0 L24,28 L36.0970638,28 C46.7349709,28 49.9205838,15.9499084 40.0819375,10.9742211" id="Shape"></path>
                <path d="M16.0750976,10.9742211 C25.9347369,15.9499084 22.7199811,28 12.0951121,28 L0,28 L0,0 L12.5249769,0 C18.4147401,0 20.4572572,4.65668907 17.4763338,8.94691509 L16.0750976,10.9742211 Z M8.81486566,24.2609652 C12.2480701,24.2609652 14.8408845,22.4628589 14.8408845,18.2410507 C14.8408845,14.7692731 13.1671369,12.9100183 10.6516806,12.3263286 L13.0616486,8.82846671 C13.6809528,7.97751985 13.7956713,7.41050703 13.7956713,6.80158827 C13.7956713,5.07617593 12.2480701,3.64795357 10.4648784,3.64795357 L6.78597412,3.64795357 L6.78597412,24.2609652 L8.81486566,24.2609652 Z" id="Combined-Shape"></path>
                <path d="M64.4651733,0 L57.9963571,21.2680915 L52.555178,3.64912388 C51.5349843,0.492766465 51.0165683,4.9864124e-16 49.0589348,4.9864124e-16 L44,0 L53.3774629,28 L60.2635515,28 L69,0 L64.4651733,0 Z" id="Shape"></path>
            </g>
        </g>
        <g id="Rectangle-7" fill-rule="nonzero">
            <use fill="#C8D4DD" xlink:href="#path-3"></use>
            <use fill="black" fill-opacity="1" filter="url(#filter-4)" xlink:href="#path-3"></use>
        </g>
        <g id="Group-4-Copy" transform="translate(37.000000, 677.000000)">
            <rect id="Rectangle-8" stroke="#10669D" stroke-width="2" fill="url(#linearGradient-5)" fill-rule="nonzero" x="1" y="1" width="207" height="64" rx="7"></rect>
            <g id="chevronleft" transform="translate(29.000000, 21.000000)" fill="#FFFFFF" fill-rule="nonzero">
                <path d="M11.84,23.3066667 L0.746666667,12.3733333 C0.426666667,12.0533333 0.426666667,11.52 0.746666667,11.2 L11.84,0.266666667 C12.16,-0.0533333333 12.6933333,-0.0533333333 13.0133333,0.266666667 L14.1866667,1.44 C14.5066667,1.76 14.5066667,2.29333333 14.1866667,2.61333333 L5.38666667,11.2 C5.06666667,11.52 5.06666667,12.0533333 5.38666667,12.3733333 L14.08,20.96 C14.4,21.28 14.4,21.8133333 14.08,22.1333333 L12.9066667,23.3066667 C12.64,23.5733333 12.16,23.5733333 11.84,23.3066667 Z" id="Shape"></path>
            </g>
            <text id="Back" font-family=".SFNSDisplay, .SF NS Display" font-size="20" font-weight="normal" fill="#FFFFFF">
                <tspan x="136.699219" y="35">Back</tspan>
            </text>
        </g>
        <g id="Group-4-Copy-2" transform="translate(258.000000, 677.000000)">
            <rect id="Rectangle-8" stroke="#10669D" stroke-width="2" fill="url(#linearGradient-5)" fill-rule="nonzero" x="1" y="1" width="207" height="64" rx="7"></rect>
            <g id="close" opacity="0.5" transform="translate(29.000000, 21.000000)" fill="#FFFFFF" fill-rule="nonzero">
                <path d="M15.1578947,11.6210526 L23.3684211,3.34736842 C23.7473684,2.96842105 23.7473684,2.4 23.3684211,2.02105263 L22.1052632,0.694736842 C21.7263158,0.315789474 21.1578947,0.315789474 20.7789474,0.694736842 L12.5052632,8.96842105 C12.2526316,9.22105263 11.8736842,9.22105263 11.6210526,8.96842105 L3.34736842,0.631578947 C2.96842105,0.252631579 2.4,0.252631579 2.02105263,0.631578947 L0.694736842,1.95789474 C0.315789474,2.33684211 0.315789474,2.90526316 0.694736842,3.28421053 L8.96842105,11.5578947 C9.22105263,11.8105263 9.22105263,12.1894737 8.96842105,12.4421053 L0.631578947,20.7789474 C0.252631579,21.1578947 0.252631579,21.7263158 0.631578947,22.1052632 L1.95789474,23.4315789 C2.33684211,23.8105263 2.90526316,23.8105263 3.28421053,23.4315789 L11.5578947,15.1578947 C11.8105263,14.9052632 12.1894737,14.9052632 12.4421053,15.1578947 L20.7157895,23.4315789 C21.0947368,23.8105263 21.6631579,23.8105263 22.0421053,23.4315789 L23.3684211,22.1052632 C23.7473684,21.7263158 23.7473684,21.1578947 23.3684211,20.7789474 L15.1578947,12.5052632 C14.9052632,12.2526316 14.9052632,11.8736842 15.1578947,11.6210526 Z" id="Shape"></path>
            </g>
            <text id="Cancel-Transaction" font-family=".SFNSDisplay, .SF NS Display" font-size="20" font-weight="normal" line-spacing="23" fill="#FFFFFF">
                <tspan x="70" y="29">Cancel</tspan>
                <tspan x="70" y="52">Transaction</tspan>
            </text>
        </g>
        <g id="Group-4" transform="translate(776.000000, 677.000000)">
            <rect id="Rectangle-8" stroke="#770049" stroke-width="2" fill="url(#linearGradient-6)" fill-rule="nonzero" x="1" y="1" width="207" height="64" rx="7"></rect>
            <text id="Exit" font-family=".SFNSDisplay, .SF NS Display" font-size="20" font-weight="normal" fill="#FFFFFF">
                <tspan x="148.017578" y="35">Exit</tspan>
            </text>
            <path d="M52.2258065,35.5260483 L50.7181664,35.5260483 C50.3106961,35.5260483 49.9847199,35.9326557 49.9847199,36.2579416 L49.9847199,41.2592122 C49.9847199,41.6658196 49.6179966,41.9911055 49.2512733,41.9911055 L32.7079796,41.9911055 C32.3005093,41.9911055 31.9745331,41.6251588 31.9745331,41.2592122 L31.9745331,36.2579416 C31.9745331,35.8919949 31.6078098,35.5260483 31.2410866,35.5260483 L29.7334465,35.5260483 C29.3259762,35.5260483 29,35.9326557 29,36.2579416 L29,43.0076239 C29,44.1054638 29.8964346,45 30.9966044,45 L51.0033956,45 C52.1035654,45 53,44.1054638 53,43.0076239 L53,36.2579416 C52.959253,35.8919949 52.6332767,35.5260483 52.2258065,35.5260483 Z M41.4685908,21.2134689 C41.1833616,20.9288437 40.7351443,20.9288437 40.4091681,21.2134689 L33.6451613,27.9631512 C33.3599321,28.2477764 33.3599321,28.6950445 33.6451613,29.0203304 L34.704584,30.0775095 C34.9898132,30.3621347 35.4380306,30.3621347 35.7640068,30.0775095 L38.5755518,27.2719187 C38.860781,26.9872935 39.4719864,27.1905972 39.4719864,27.6378653 L39.4719864,38.2096569 C39.4719864,38.6162643 39.7572156,38.9415502 40.1646859,38.9415502 L41.672326,38.9415502 C42.0797963,38.9415502 42.4872666,38.5349428 42.4872666,38.2096569 L42.4872666,27.678526 C42.4872666,27.2312579 42.9762309,27.0279543 43.3429542,27.3125794 L46.1544992,30.1181703 C46.4397284,30.4027954 46.8879457,30.4027954 47.2139219,30.1181703 L48.2733447,29.0609911 C48.5585739,28.7763659 48.5585739,28.3290978 48.2733447,28.0038119 C48.1918506,28.0038119 41.4685908,21.2134689 41.4685908,21.2134689 Z" id="Shape" fill="#FFFFFF" fill-rule="nonzero" opacity="0.5" transform="translate(41.000000, 33.000000) rotate(90.000000) translate(-41.000000, -33.000000) "></path>
        </g>
        <g id="Group-4-Copy-9" transform="translate(37.000000, 358.000000)" fill="url(#linearGradient-5)" fill-rule="nonzero" stroke="#10669D" stroke-width="2">
            <rect id="Rectangle-8-Copy" x="1" y="1" width="307" height="129" rx="7"></rect>
        </g>
        <g id="Group-4-Copy-15" transform="translate(37.000000, 496.000000)" fill="url(#linearGradient-5)" fill-rule="nonzero" stroke="#10669D" stroke-width="2">
            <rect id="Rectangle-8-Copy" x="1" y="1" width="307" height="129" rx="7"></rect>
        </g>
        <g id="Group-4-Copy-13" transform="translate(358.000000, 358.000000)" fill="url(#linearGradient-5)" fill-rule="nonzero" stroke="#10669D" stroke-width="2">
            <rect id="Rectangle-8-Copy" x="1" y="1" width="307" height="129" rx="7"></rect>
        </g>
        <text id="$20" font-family=".SFNSDisplay, .SF NS Display" font-size="48" font-weight="normal" fill="#FFFFFF">
            <tspan x="148.828125" y="421" fill-opacity="0.5">$</tspan>
            <tspan x="178.195312" y="421">20</tspan>
        </text>
        <text id="$80" font-family=".SFNSDisplay, .SF NS Display" font-size="48" font-weight="normal" fill="#FFFFFF">
            <tspan x="148.03125" y="559" fill-opacity="0.5">$</tspan>
            <tspan x="177.398438" y="559">80</tspan>
        </text>
        <g id="Group-4-Copy-16" transform="translate(358.000000, 496.000000)" fill="url(#linearGradient-5)" fill-rule="nonzero" stroke="#10669D" stroke-width="2">
            <rect id="Rectangle-8-Copy" x="1" y="1" width="307" height="129" rx="7"></rect>
        </g>
        <g id="Group-4-Copy-14" transform="translate(679.000000, 358.000000)" fill="url(#linearGradient-5)" fill-rule="nonzero" stroke="#10669D" stroke-width="2">
            <rect id="Rectangle-8-Copy" x="1" y="1" width="307" height="129" rx="7"></rect>
        </g>
        <g id="Group-4-Copy-17" transform="translate(679.000000, 496.000000)" fill="url(#linearGradient-5)" fill-rule="nonzero" stroke="#10669D" stroke-width="2">
            <rect id="Rectangle-8-Copy" x="1" y="1" width="307" height="129" rx="7"></rect>
        </g>
        <text id="$40" font-family=".SFNSDisplay, .SF NS Display" font-size="48" font-weight="normal" fill="#FFFFFF">
            <tspan x="467.902344" y="421" fill-opacity="0.5">$</tspan>
            <tspan x="497.269531" y="421">40</tspan>
        </text>
        <text id="$100" font-family=".SFNSDisplay, .SF NS Display" font-size="48" font-weight="normal" fill="#FFFFFF">
            <tspan x="457.039062" y="559" fill-opacity="0.5">$</tspan>
            <tspan x="486.40625" y="559">100</tspan>
        </text>
        <text id="$60" font-family=".SFNSDisplay, .SF NS Display" font-size="48" font-weight="normal" fill="#FFFFFF">
            <tspan x="790.042969" y="421" fill-opacity="0.5">$</tspan>
            <tspan x="819.410156" y="421">60</tspan>
        </text>
        <text id="Other-Amount" font-family=".SFNSDisplay, .SF NS Display" font-size="20" font-weight="normal" line-spacing="29" fill="#FFFFFF">
            <tspan x="703" y="558">Other</tspan>
            <tspan x="703" y="587">Amount</tspan>
        </text>
        <text id="Withdrawal" font-family=".SFNSDisplay, .SF NS Display" font-size="26" font-weight="normal" fill="#114F9C">
            <tspan x="64" y="170">Withdrawal</tspan>
        </text>
        <text id="Please-select-a-with" font-family=".AppleSystemUIFont" font-size="19" font-weight="normal" fill="#114F9C">
            <tspan x="64" y="191">Please select a withdrawal amount.</tspan>
        </text>
        <g id="number_input" opacity="0.2" transform="translate(935.000000, 517.000000)" fill="#FFFFFF" fill-rule="nonzero">
            <path d="M28.5333333,31.6666667 L3.46666667,31.6666667 C1.73333333,31.6666667 0.333333333,30.2666667 0.333333333,28.5333333 L0.333333333,3.46666667 C0.333333333,1.73333333 1.73333333,0.333333333 3.46666667,0.333333333 L28.5333333,0.333333333 C30.2666667,0.333333333 31.6666667,1.73333333 31.6666667,3.46666667 L31.6666667,28.5333333 C31.6666667,30.2666667 30.2666667,31.6666667 28.5333333,31.6666667 Z M4.53333333,5.53333333 L4.53333333,26.4 C4.53333333,27 5,27.4666667 5.6,27.4666667 L26.4666667,27.4666667 C27.0666667,27.4666667 27.5333333,27 27.5333333,26.4 L27.5333333,5.53333333 C27.5333333,4.93333333 27.0666667,4.46666667 26.4666667,4.46666667 L5.6,4.46666667 C5,4.53333333 4.53333333,5 4.53333333,5.53333333 Z M22.8,12.2 L20.8666667,12.2 L21.6666667,9 L21.6666667,8.93333333 C21.6666667,8.8 21.6,8.66666667 21.4,8.66666667 L19.8666667,8.66666667 C19.7333333,8.66666667 19.6666667,8.73333333 19.6,8.86666667 L18.8,12.1333333 L14.9333333,12.1333333 L15.7333333,8.93333333 L15.7333333,8.86666667 C15.7333333,8.73333333 15.6666667,8.6 15.4666667,8.6 L13.9333333,8.6 C13.8,8.6 13.7333333,8.66666667 13.6666667,8.8 L12.8,12.0666667 L10.6666667,12.0666667 C10.5333333,12.0666667 10.4666667,12.1333333 10.4,12.2666667 L10,13.7333333 L10,13.8 C10,13.9333333 10.0666667,14.0666667 10.2666667,14.0666667 L12.2666667,14.0666667 L11.3333333,17.8 L9.26666667,17.8 C9.13333333,17.8 9.06666667,17.8666667 9,18 L8.6,19.4666667 L8.6,19.5333333 C8.6,19.6666667 8.66666667,19.8 8.86666667,19.8 L10.8,19.8 L10,23 L10,23.0666667 C10,23.2 10.0666667,23.3333333 10.2666667,23.3333333 L11.8,23.3333333 C11.9333333,23.3333333 12,23.2666667 12.0666667,23.1333333 L12.9333333,19.8 L16.7333333,19.8 L16,22.9333333 L16,23 C16,23.1333333 16.0666667,23.2666667 16.2666667,23.2666667 L17.8,23.2666667 C17.9333333,23.2666667 18,23.2 18.0666667,23.0666667 L18.9333333,19.7333333 L21.0666667,19.7333333 C21.2,19.7333333 21.2666667,19.6666667 21.3333333,19.5333333 L21.7333333,18.0666667 L21.7333333,18 C21.7333333,17.8666667 21.6666667,17.7333333 21.4666667,17.7333333 L19.4666667,17.7333333 L20.4,14 L22.4666667,14 C22.6,14 22.6666667,13.9333333 22.7333333,13.8 L23.1333333,12.3333333 L23.1333333,12.2666667 C23.0666667,12.3333333 22.9333333,12.2 22.8,12.2 Z M17.4,17.8666667 L13.5333333,17.8666667 L14.4666667,14.1333333 L18.2666667,14.1333333 L17.4,17.8666667 Z" id="Shape"></path>
        </g>
    </g>
</svg>