<?xml version="1.0"?><svg xmlns="http://www.w3.org/2000/svg" width="52" height="52" viewBox="0 0 52 52"><path fill="#fff" d="m46 32.7c-4.2-4.2-11-4.2-15.2 0s-4.2 11 0 15.2 11 4.2 15.2 0 4.2-11 0-15.2z m-3.2 10.8l-1.3 1.3c-0.4 0.4-0.8 0.4-1.2-0.1l-1.9-1.9-2 2c-0.4 0.4-0.8 0.4-1.2-0.1l-1.3-1.3c-0.4-0.4-0.4-0.8-0.1-1.2l2-2-1.9-2c-0.4-0.4-0.4-0.8-0.1-1.2l1.3-1.3c0.4-0.4 1-0.4 1.3-0.1l1.9 1.9 1.9-1.9c0.4-0.4 1-0.4 1.3-0.1l1.3 1.3c0.4 0.4 0.4 1-0.1 1.3l-1.9 1.9 2.1 2.2c0.4 0.4 0.4 1-0.1 1.3z m-15.8-11.8"></path><path fill="#fff" d="m24.2 0.9c-11.9 0-21.3 8.8-21.3 19.6 0 3.4 1 6.6 2.6 9.5 0.3 0.4 0.4 1 0.2 1.5l-2.8 7.6c-0.3 0.7 0.4 1.3 1.2 1.2l7.7-2.9c0.4-0.2 1-0.1 1.5 0.2 3.1 1.7 6.8 2.8 10.8 2.8-0.1-3.2 1-6.2 2.9-8.7h-1.9c-0.5 0-0.8-0.3-0.8-0.8v-9.2c0-0.5 0.3-0.8 0.8-0.8h9.2c0.5 0 0.8 0.3 0.8 0.8v4.7c0.7-0.2 1.2-0.2 1.2-0.2 2.8-0.5 5.7-0.1 8.4 1.1 0.8-2.1 1.2-4.3 1.2-6.6-0.3-11-9.9-19.8-21.7-19.8z m-4.5 30c0 0.5-0.3 0.8-0.8 0.8h-4.6c-0.5 0-0.8-0.3-0.8-0.8v-9.2c0-0.5 0.3-0.8 0.8-0.8h4.7c0.5 0 0.8 0.3 0.8 0.8v9.2z m15.3-15.3c0 0.5-0.3 0.8-0.8 0.8h-19.8c-0.5 0-0.8-0.3-0.8-0.8v-4.6c0-0.5 0.3-0.8 0.8-0.8h19.9c0.5 0 0.8 0.3 0.8 0.8v4.6z"></path></svg>