<?xml version="1.0" encoding="UTF-8"?>
<svg width="422px" height="814px" viewBox="0 0 422 814" version="1.1" xmlns="http://www.w3.org/2000/svg" xmlns:xlink="http://www.w3.org/1999/xlink">
    <!-- Generator: Sketch 55.1 (78136) - https://sketchapp.com -->
    <title>Activity Log</title>
    <desc>Created with Sketch.</desc>
    <g id="Page-1" stroke="none" stroke-width="1" fill="none" fill-rule="evenodd">
        <g id="0020___ID=segment" transform="translate(-846.000000, -593.000000)">
            <g id="Activity-Log" transform="translate(846.000000, 593.000000)">
                <path d="M4,0 C1.791,0 0,1.791 0,4 L0,810 C0,812.21 1.791,814 4,814 L418,814 C420.21,814 422,812.21 422,810 L422,4 C422,1.791 420.21,0 418,0 L4,0 Z" id="Rectangle-18-Copy_3" fill="#FFFFFF"></path>
                <text id="Past-Activity" fill="#2B2826" font-family="SalesforceSans-Regular, Salesforce Sans" font-size="16" font-weight="normal">
                    <tspan x="24.543" y="90.598">Past Activity</tspan>
                </text>
                <g id="Group-17_2" transform="translate(24.000000, 180.000000)">
                    <path d="M4.725,0.656 C2.516,0.656 0.725,2.447 0.725,4.656 L0.725,22.189 C0.725,24.398 2.516,26.189 4.725,26.189 L21.411,26.189 C23.621,26.189 25.411,24.398 25.411,22.189 L25.411,4.656 C25.411,2.447 23.621,0.656 21.411,0.656 L4.725,0.656 Z" id="Rectangle-48_3" fill="#4BC076"></path>
                    <path d="M11.633,6.954 L11.141,6.445 C11.001,6.299 10.79,6.299 10.649,6.445 L7.556,9.644 L6.314,8.359 C6.174,8.214 5.963,8.214 5.822,8.359 L5.33,8.868 C5.19,9.014 5.19,9.232 5.33,9.377 L7.064,11.171 C7.205,11.316 7.392,11.389 7.556,11.389 C7.744,11.389 7.908,11.316 8.048,11.171 L11.633,7.463 C11.75,7.341 11.75,7.099 11.633,6.954 Z M18.756,10.419 L12.664,10.419 C12.406,10.419 12.196,10.201 12.196,9.935 L12.196,8.965 C12.196,8.699 12.406,8.481 12.664,8.481 L18.756,8.481 C19.014,8.481 19.225,8.699 19.225,8.965 L19.225,9.935 C19.225,10.201 19.014,10.419 18.756,10.419 Z M18.756,14.782 L11.258,14.782 C11.001,14.782 10.79,14.563 10.79,14.297 L10.79,13.327 C10.79,13.061 11.001,12.843 11.258,12.843 L18.756,12.843 C19.014,12.843 19.225,13.061 19.225,13.327 L19.225,14.297 C19.225,14.563 19.014,14.782 18.756,14.782 Z M8.447,14.782 L7.509,14.782 C7.252,14.782 7.041,14.563 7.041,14.297 L7.041,13.327 C7.041,13.061 7.252,12.843 7.509,12.843 L8.447,12.843 C8.704,12.843 8.915,13.061 8.915,13.327 L8.915,14.297 C8.915,14.563 8.704,14.782 8.447,14.782 Z M8.447,19.144 L7.509,19.144 C7.252,19.144 7.041,18.926 7.041,18.659 L7.041,17.69 C7.041,17.423 7.252,17.205 7.509,17.205 L8.447,17.205 C8.704,17.205 8.915,17.423 8.915,17.69 L8.915,18.659 C8.915,18.926 8.704,19.144 8.447,19.144 Z M18.756,19.144 L11.258,19.144 C11.001,19.144 10.79,18.926 10.79,18.659 L10.79,17.69 C10.79,17.423 11.001,17.205 11.258,17.205 L18.756,17.205 C19.014,17.205 19.225,17.423 19.225,17.69 L19.225,18.659 C19.225,18.926 19.014,19.144 18.756,19.144 Z" id="Imported-Layers-Copy-3_2" fill="#FFFFFF"></path>
                </g>
                <rect id="Rectangle-1593-Copy_2" fill="#EB7092" fill-rule="nonzero" opacity="0.70056" x="36.225" y="145.489" width="2" height="24.9772"></rect>
                <text id="Lina-Wood" fill="#1570D2" font-family="SalesforceSans-Regular, Salesforce Sans" font-size="14" font-weight="normal">
                    <tspan x="65.725" y="130.751">Lina Wood</tspan>
                </text>
                <text id="Lina-Wood" fill="#1570D2" font-family="SalesforceSans-Regular, Salesforce Sans" font-size="14" font-weight="normal">
                    <tspan x="65.725" y="195.913">Lina Wood</tspan>
                </text>
                <g id="Event_3" transform="translate(24.000000, 114.000000)">
                    <g id="Event_4">
                        <g id="event-icon_3">
                            <path d="M4.725,0.46 C2.516,0.46 0.725,2.251 0.725,4.46 L0.725,21.403 C0.725,23.612 2.516,25.403 4.725,25.403 L20.84,25.403 C23.049,25.403 24.84,23.612 24.84,21.403 L24.84,4.46 C24.84,2.251 23.049,0.46 20.84,0.46 L4.725,0.46 Z" id="Rectangle-48_4" fill="#EB7092"></path>
                            <g id="event-icon_4" transform="translate(6.000000, 5.000000)" fill="#FFFFFF">
                                <path d="M12.175,5.478 L1.008,5.478 C0.77,5.478 0.578,5.667 0.578,5.899 L0.578,12.217 C0.578,12.914 1.155,13.48 1.867,13.48 L11.316,13.48 C12.028,13.48 12.605,12.914 12.605,12.217 L12.605,5.899 C12.605,5.667 12.412,5.478 12.175,5.478 Z M4.444,11.374 C4.444,11.607 4.252,11.795 4.014,11.795 L3.155,11.795 C2.918,11.795 2.726,11.607 2.726,11.374 L2.726,10.532 C2.726,10.3 2.918,10.111 3.155,10.111 L4.014,10.111 C4.252,10.111 4.444,10.3 4.444,10.532 L4.444,11.374 Z M4.444,8.426 C4.444,8.659 4.252,8.847 4.014,8.847 L3.155,8.847 C2.918,8.847 2.726,8.659 2.726,8.426 L2.726,7.584 C2.726,7.352 2.918,7.163 3.155,7.163 L4.014,7.163 C4.252,7.163 4.444,7.352 4.444,7.584 L4.444,8.426 Z M7.451,11.374 C7.451,11.607 7.258,11.795 7.021,11.795 L6.162,11.795 C5.925,11.795 5.732,11.607 5.732,11.374 L5.732,10.532 C5.732,10.3 5.925,10.111 6.162,10.111 L7.021,10.111 C7.258,10.111 7.451,10.3 7.451,10.532 L7.451,11.374 Z M7.451,8.426 C7.451,8.659 7.258,8.847 7.021,8.847 L6.162,8.847 C5.925,8.847 5.732,8.659 5.732,8.426 L5.732,7.584 C5.732,7.352 5.925,7.163 6.162,7.163 L7.021,7.163 C7.258,7.163 7.451,7.352 7.451,7.584 L7.451,8.426 Z M10.457,11.374 C10.457,11.607 10.265,11.795 10.028,11.795 L9.169,11.795 C8.932,11.795 8.739,11.607 8.739,11.374 L8.739,10.532 C8.739,10.3 8.932,10.111 9.169,10.111 L10.028,10.111 C10.265,10.111 10.457,10.3 10.457,10.532 L10.457,11.374 Z M10.457,8.426 C10.457,8.659 10.265,8.847 10.028,8.847 L9.169,8.847 C8.932,8.847 8.739,8.659 8.739,8.426 L8.739,7.584 C8.739,7.352 8.932,7.163 9.169,7.163 L10.028,7.163 C10.265,7.163 10.457,7.352 10.457,7.584 L10.457,8.426 Z" id="Fill-1_2"></path>
                                <path d="M11.316,2.109 L10.242,2.109 L10.242,1.688 C10.242,1.223 9.858,0.846 9.383,0.846 C8.909,0.846 8.524,1.223 8.524,1.688 L8.524,2.109 L4.659,2.109 L4.659,1.688 C4.659,1.223 4.274,0.846 3.8,0.846 C3.325,0.846 2.941,1.223 2.941,1.688 L2.941,2.109 L1.867,2.109 C1.155,2.109 0.578,2.675 0.578,3.373 L0.578,3.794 C0.578,4.026 0.77,4.215 1.008,4.215 L12.175,4.215 C12.412,4.215 12.605,4.026 12.605,3.794 L12.605,3.373 C12.605,2.675 12.028,2.109 11.316,2.109 Z" id="Fill-2_2"></path>
                            </g>
                        </g>
                    </g>
                </g>
                <path d="M121.725,92.74 L359.75,92.74" id="Line-Copy-4_2" stroke="#DDDBDA" stroke-linecap="square" stroke-dasharray="4"></path>
                <g id="Dropdown_2" transform="translate(379.000000, 117.000000)">
                    <rect id="Rectangle-391-Copy-9_3" stroke="#E0E5EE" fill="#FFFFFF" fill-rule="nonzero" x="0.22" y="0.029" width="19" height="19.6861" rx="1.5"></rect>
                    <path d="M5.8,6.663 C7.23,9.143 9.47,11.294 9.57,11.376 C9.79,11.564 10.12,11.564 10.34,11.376 C10.44,11.294 12.68,9.143 14.11,6.663 C14.21,6.498 14.21,6.299 14.11,6.134 C14.02,5.97 13.85,5.864 13.66,5.852 C13.63,5.84 11.83,5.734 9.96,5.734 C8.08,5.734 6.28,5.84 6.25,5.852 C6.06,5.864 5.88,5.97 5.8,6.134 C5.7,6.299 5.7,6.498 5.8,6.663 Z" id="dropdown-copy-10_3" fill="#706E6B"></path>
                </g>
                <g id="Dropdown-Copy_2" transform="translate(379.000000, 186.000000)">
                    <rect id="Rectangle-391-Copy-9_4" stroke="#E0E5EE" fill="#FFFFFF" fill-rule="nonzero" x="0.22" y="0.327" width="19" height="19.6861" rx="1.5"></rect>
                    <path d="M5.8,6.962 C7.23,9.442 9.47,11.592 9.57,11.675 C9.79,11.863 10.12,11.863 10.34,11.675 C10.44,11.592 12.68,9.442 14.11,6.962 C14.21,6.797 14.21,6.597 14.11,6.433 C14.02,6.268 13.85,6.162 13.66,6.151 C13.63,6.139 11.83,6.033 9.96,6.033 C8.08,6.033 6.28,6.139 6.25,6.151 C6.06,6.162 5.88,6.268 5.8,6.433 C5.7,6.597 5.7,6.797 5.8,6.962 Z" id="dropdown-copy-10_4" fill="#706E6B"></path>
                </g>
                <text id="Added-an-activation-partner-on-02/04/2019" fill="#2B2826" font-family="SalesforceSans-Regular, Salesforce Sans" font-size="13" font-weight="normal">
                    <tspan x="65.725" y="150.278">Added an activation partner on 02/04/2019</tspan>
                </text>
                <text id="Added-an-activation-partner-on-02/02/2019" fill="#2B2826" font-family="SalesforceSans-Regular, Salesforce Sans" font-size="13" font-weight="normal">
                    <tspan x="65.725" y="215.439">Added an activation partner on 02/02/2019</tspan>
                </text>
                <path d="M367.22,65.49 C367.22,63.557 368.79,61.99 370.72,61.99 L394.72,61.99 C396.66,61.99 398.22,63.557 398.22,65.49 L398.22,90.588 C398.22,92.521 396.66,94.088 394.72,94.088 L370.72,94.088 C368.79,94.088 367.22,92.521 367.22,90.588 L367.22,65.49 Z" id="BG_6" stroke="#E0E5EE" fill="#FFFFFF" fill-rule="nonzero"></path>
                <path d="M388.29,71.848 L387.48,71.848 C387.26,71.848 387.07,72.044 387.07,72.269 L387.07,74.234 C387.07,74.487 386.93,74.599 386.74,74.431 C386.66,74.318 386.58,74.234 386.47,74.15 C385.11,72.746 383.21,72.156 381.26,72.549 C380.58,72.69 379.93,72.971 379.36,73.364 C377.7,74.487 376.75,76.312 376.73,78.278 C376.7,79.794 377.27,81.31 378.3,82.405 C379.39,83.584 380.85,84.23 382.43,84.23 C383.81,84.23 385.11,83.725 386.15,82.826 C386.34,82.658 386.34,82.377 386.17,82.209 L385.6,81.619 C385.47,81.478 385.22,81.45 385.06,81.591 C384.08,82.433 382.75,82.77 381.42,82.433 C381.07,82.349 380.72,82.18 380.39,81.984 C378.84,81.001 378.11,79.148 378.54,77.295 C378.63,76.93 378.79,76.565 378.98,76.228 C379.74,74.852 381.07,74.094 382.48,74.094 C383.57,74.094 384.6,74.543 385.36,75.329 C385.49,75.442 385.6,75.582 385.68,75.722 C385.77,75.947 385.58,76.059 385.33,76.059 L383.43,76.059 C383.21,76.059 383.02,76.256 383.02,76.48 L383.02,77.351 C383.02,77.576 383.19,77.744 383.4,77.744 L388.37,77.744 C388.56,77.744 388.72,77.576 388.72,77.379 L388.72,72.269 C388.7,72.044 388.51,71.848 388.29,71.848 L388.29,71.848 Z" id="Shape_4" fill="#706E6B"></path>
                <g id="Tabs-Copy_3" transform="translate(21.000000, 8.000000)">
                    <rect id="Rectangle-8_4" fill="#DDDBDA" fill-rule="nonzero" x="0" y="38.961" width="377.489" height="2"></rect>
                    <g id="Desktop-Components-/-Tabs-/-z-nested-/Tab---Selected_6">
                        <rect id="Rectangle-5_7" fill="#FFFFFF" fill-rule="nonzero" x="0" y="0.961" width="78" height="40"></rect>
                        <text id="Activity-Log" fill="#080707" font-family="SalesforceSans-Bold, Salesforce Sans" font-size="13" font-weight="bold">
                            <tspan x="2.958" y="24.524">Activity Log</tspan>
                        </text>
                        <polygon id="Active-2_4" fill="#1589EE" points="0 38.961 0 40.961 78 40.961 78 38.961"></polygon>
                    </g>
                    <g id="Desktop-Components-/-Tabs-/-z-nested-/Tab---Selected_7" transform="translate(78.000000, 0.000000)">
                        <rect id="Rectangle-5_8" fill="#FFFFFF" fill-rule="nonzero" x="0" y="0.961" width="95" height="38"></rect>
                        <text id="Chatter" fill="#080707" font-family="SalesforceSans-Regular, Salesforce Sans" font-size="13" font-weight="normal">
                            <tspan x="18" y="24.524">Chatter</tspan>
                        </text>
                    </g>
                </g>
            </g>
        </g>
    </g>
</svg>