<?xml version="1.0" encoding="UTF-8"?>
<svg width="888px" height="949px" viewBox="0 0 888 949" version="1.1" xmlns="http://www.w3.org/2000/svg" xmlns:xlink="http://www.w3.org/1999/xlink">
    <!-- Generator: Sketch 50.2 (55047) - http://www.bohemiancoding.com/sketch -->
    <title>201-segment-builder.details-and-activation.segment-details.deactivated</title>
    <desc>Created with Sketch.</desc>
    <defs></defs>
    <g id="DMP-201" stroke="none" stroke-width="1" fill="none" fill-rule="evenodd">
        <g id="BU1---Activation-deactivated" transform="translate(-41.000000, -371.000000)">
            <g id="Rules" transform="translate(40.000000, 325.000000)">
                <rect id="Rectangle-5" stroke="#E0E5EE" fill="#FFFFFF" x="0.5" y="0.5" width="889" height="995" rx="4"></rect>
                <g id="Picklist" transform="translate(20.000000, 295.000000)">
                    <g id="picklist">
                        <rect id="bkgd" stroke="#D8DDE6" fill="#FFFFFF" x="0.5" y="0.5" width="239" height="31" rx="4"></rect>
                        <path d="M212.329034,13 L221.284426,13 C221.537403,13 221.714487,13.325 221.512105,13.55 L217.1356,18.85 C216.983814,19.05 216.654943,19.05 216.503157,18.85 L212.076056,13.55 C211.898972,13.325 212.050759,13 212.329034,13" id="down" fill="#061C3F"></path>
                        <text id="Select-an-Option" font-family="SalesforceSans-Regular, Salesforce Sans" font-size="12" font-weight="normal" fill="#16325C">
                            <tspan x="17" y="20">Update Daily</tspan>
                        </text>
                    </g>
                </g>
                <g id="Button-New-Copy-2" transform="translate(20.000000, 62.000000)">
                    <rect id="Rectangle-827" stroke="#D8DDE6" fill="#FFFFFF" x="0.5" y="0.5" width="260" height="54" rx="4"></rect>
                    <path d="M87.36,30.208 L87.9,29.536 C88.2440017,29.8080014 88.5999982,30.0039994 88.968,30.124 C89.3360018,30.2440006 89.7519977,30.304 90.216,30.304 C90.7920029,30.304 91.2579982,30.1700013 91.614,29.902 C91.9700018,29.6339987 92.148,29.2440026 92.148,28.732 C92.148,28.3719982 92.0640008,28.0800011 91.896,27.856 C91.7279992,27.6319989 91.4960015,27.4520007 91.2,27.316 C90.9039985,27.1799993 90.5120024,27.0480006 90.024,26.92 C89.231996,26.711999 88.640002,26.4300018 88.248,26.074 C87.855998,25.7179982 87.66,25.2200032 87.66,24.58 C87.66,23.8679964 87.9259973,23.312002 88.458,22.912 C88.9900027,22.511998 89.6679959,22.312 90.492,22.312 C91.0120026,22.312 91.4819979,22.3799993 91.902,22.516 C92.3220021,22.6520007 92.7119982,22.8519987 93.072,23.116 L92.592,23.812 C92.2559983,23.5959989 91.9220017,23.4360005 91.59,23.332 C91.2579983,23.2279995 90.892002,23.176 90.492,23.176 C89.9559973,23.176 89.5240016,23.2899989 89.196,23.518 C88.8679984,23.7460011 88.704,24.0759978 88.704,24.508 C88.704,24.9400022 88.8539985,25.2659989 89.154,25.486 C89.4540015,25.7060011 89.9439966,25.9039991 90.624,26.08 C91.4800043,26.3040011 92.1279978,26.6079981 92.568,26.992 C93.0080022,27.3760019 93.228,27.9439962 93.228,28.696 C93.228,29.2400027 93.0940013,29.6999981 92.826,30.076 C92.5579987,30.4520019 92.1960023,30.7339991 91.74,30.922 C91.2839977,31.1100009 90.7720028,31.204 90.204,31.204 C89.0999945,31.204 88.152004,30.8720033 87.36,30.208 Z M99.876,28.312 L95.34,28.312 C95.3800002,28.9360031 95.5679983,29.4319982 95.904,29.8 C96.2400017,30.1680018 96.7199969,30.352 97.344,30.352 C97.7120018,30.352 98.0419985,30.3020005 98.334,30.202 C98.6260015,30.1019995 98.9199985,29.952001 99.216,29.752 L99.672,30.412 C99.3279983,30.6600012 98.9620019,30.8479994 98.574,30.976 C98.1859981,31.1040006 97.7560024,31.168 97.284,31.168 C96.3479953,31.168 95.6180026,30.872003 95.094,30.28 C94.5699974,29.687997 94.308,28.9000049 94.308,27.916 C94.308,27.2839968 94.4199989,26.7280024 94.644,26.248 C94.8680011,25.7679976 95.1939979,25.3940013 95.622,25.126 C96.0500021,24.8579987 96.563997,24.724 97.164,24.724 C98.0520044,24.724 98.7299977,25.0119971 99.198,25.588 C99.6660023,26.1640029 99.9,26.9279952 99.9,27.88 C99.9,28.072001 99.8920001,28.2159995 99.876,28.312 Z M98.904,27.52 C98.8879999,26.911997 98.7320015,26.4240018 98.436,26.056 C98.1399985,25.6879982 97.7120028,25.504 97.152,25.504 C96.5839972,25.504 96.1440016,25.6939981 95.832,26.074 C95.5199984,26.4540019 95.3520001,26.9359971 95.328,27.52 L98.904,27.52 Z M100.728,32.248 C100.728,31.9039983 100.825999,31.5940014 101.022,31.318 C101.218001,31.0419986 101.539998,30.7920011 101.988,30.568 C101.595998,30.3919991 101.4,30.1240018 101.4,29.764 C101.4,29.5479989 101.477999,29.3560008 101.634,29.188 C101.790001,29.0199992 102.007999,28.8960004 102.288,28.816 C101.911998,28.6639992 101.618001,28.4320016 101.406,28.12 C101.193999,27.8079984 101.088,27.4120024 101.088,26.932 C101.088,26.2519966 101.311998,25.716002 101.76,25.324 C102.208002,24.931998 102.831996,24.736 103.632,24.736 C103.848001,24.736 104.029999,24.7479999 104.178,24.772 C104.326001,24.7960001 104.503999,24.8359997 104.712,24.892 L106.836,24.892 L106.836,25.708 L105.48,25.564 C105.672001,25.7000007 105.827999,25.8919988 105.948,26.14 C106.068001,26.3880012 106.128,26.6839983 106.128,27.028 C106.128,27.6760032 105.908002,28.1819982 105.468,28.546 C105.027998,28.9100018 104.412004,29.092 103.62,29.092 C103.219998,29.092 102.906001,29.1439995 102.678,29.248 C102.449999,29.3520005 102.336,29.4959991 102.336,29.68 C102.336,30.0080016 102.723996,30.176 103.5,30.184 C104.628006,30.2000001 105.445997,30.3499986 105.954,30.634 C106.462003,30.9180014 106.716,31.3479971 106.716,31.924 C106.716,32.6120034 106.430003,33.1439981 105.858,33.52 C105.285997,33.8960019 104.484005,34.084 103.452,34.084 C102.555996,34.084 101.878002,33.9240016 101.418,33.604 C100.957998,33.2839984 100.728,32.8320029 100.728,32.248 Z M105.18,26.944 C105.18,26.5039978 105.048001,26.1520013 104.784,25.888 C104.519999,25.6239987 104.128003,25.492 103.608,25.492 C103.127998,25.492 102.746001,25.6199987 102.462,25.876 C102.177999,26.1320013 102.036,26.4759978 102.036,26.908 C102.036,27.3640023 102.165999,27.7199987 102.426,27.976 C102.686001,28.2320013 103.079997,28.36 103.608,28.36 C104.656005,28.36 105.18,27.8880047 105.18,26.944 Z M105.708,32.008 C105.708,31.7679988 105.618001,31.5720008 105.438,31.42 C105.257999,31.2679992 104.952002,31.1520004 104.52,31.072 C104.087998,30.9919996 103.496004,30.952 102.744,30.952 C102.383998,31.1120008 102.124001,31.293999 101.964,31.498 C101.803999,31.702001 101.724,31.9359987 101.724,32.2 C101.724,32.9440037 102.311994,33.316 103.488,33.316 C104.216004,33.316 104.767998,33.2040011 105.144,32.98 C105.520002,32.7559989 105.708,32.4320021 105.708,32.008 Z M108.144,26.26 C108.144,25.8119978 108.116,25.3560023 108.06,24.892 L109.032,24.892 C109.072,25.1080011 109.1,25.3959982 109.116,25.756 L109.14,25.756 C109.332001,25.4519985 109.601998,25.204001 109.95,25.012 C110.298002,24.819999 110.699998,24.724 111.156,24.724 C111.676003,24.724 112.099998,24.8339989 112.428,25.054 C112.756002,25.2740011 112.995999,25.5759981 113.148,25.96 L113.172,25.96 C113.380001,25.5759981 113.663998,25.2740011 114.024,25.054 C114.384002,24.8339989 114.815997,24.724 115.32,24.724 C115.824003,24.724 116.243998,24.8339989 116.58,25.054 C116.916002,25.2740011 117.163999,25.5619982 117.324,25.918 C117.484001,26.2740018 117.564,26.6639979 117.564,27.088 L117.564,31 L116.544,31 L116.544,27.232 C116.544,26.7599976 116.430001,26.3640016 116.202,26.044 C115.973999,25.7239984 115.608003,25.564 115.104,25.564 C114.735998,25.564 114.420001,25.659999 114.156,25.852 C113.891999,26.044001 113.692001,26.2999984 113.556,26.62 C113.419999,26.9400016 113.352,27.2839982 113.352,27.652 L113.352,31 L112.332,31 L112.332,27.208 C112.332,26.7439977 112.216001,26.3540016 111.984,26.038 C111.751999,25.7219984 111.388002,25.564 110.892,25.564 C110.363997,25.564 109.944002,25.7499981 109.632,26.122 C109.319998,26.4940019 109.164,26.9519973 109.164,27.496 L109.164,31 L108.144,31 L108.144,26.26 Z M124.68,28.312 L120.144,28.312 C120.184,28.9360031 120.371998,29.4319982 120.708,29.8 C121.044002,30.1680018 121.523997,30.352 122.148,30.352 C122.516002,30.352 122.845999,30.3020005 123.138,30.202 C123.430001,30.1019995 123.723999,29.952001 124.02,29.752 L124.476,30.412 C124.131998,30.6600012 123.766002,30.8479994 123.378,30.976 C122.989998,31.1040006 122.560002,31.168 122.088,31.168 C121.151995,31.168 120.422003,30.872003 119.898,30.28 C119.373997,29.687997 119.112,28.9000049 119.112,27.916 C119.112,27.2839968 119.223999,26.7280024 119.448,26.248 C119.672001,25.7679976 119.997998,25.3940013 120.426,25.126 C120.854002,24.8579987 121.367997,24.724 121.968,24.724 C122.856004,24.724 123.533998,25.0119971 124.002,25.588 C124.470002,26.1640029 124.704,26.9279952 124.704,27.88 C124.704,28.072001 124.696,28.2159995 124.68,28.312 Z M123.708,27.52 C123.692,26.911997 123.536001,26.4240018 123.24,26.056 C122.943999,25.6879982 122.516003,25.504 121.956,25.504 C121.387997,25.504 120.948002,25.6939981 120.636,26.074 C120.323998,26.4540019 120.156,26.9359971 120.132,27.52 L123.708,27.52 Z M126.324,26.26 C126.324,25.8119978 126.296,25.3560023 126.24,24.892 L127.212,24.892 C127.252,25.1080011 127.28,25.3959982 127.296,25.756 L127.32,25.756 C127.520001,25.4439984 127.799998,25.1940009 128.16,25.006 C128.520002,24.8179991 128.947998,24.724 129.444,24.724 C130.212004,24.724 130.781998,24.9459978 131.154,25.39 C131.526002,25.8340022 131.712,26.3879967 131.712,27.052 L131.712,31 L130.692,31 L130.692,27.256 C130.692,26.7679976 130.572001,26.3660016 130.332,26.05 C130.091999,25.7339984 129.704003,25.576 129.168,25.576 C128.615997,25.576 128.174002,25.7579982 127.842,26.122 C127.509998,26.4860018 127.344,26.9439972 127.344,27.496 L127.344,31 L126.324,31 L126.324,26.26 Z M134.94,24.892 L136.56,24.892 L136.56,25.672 L134.94,25.672 L134.94,29.356 C134.94,30.0120033 135.239997,30.34 135.84,30.34 C136.056001,30.34 136.255999,30.3120003 136.44,30.256 L136.596,31.012 C136.323999,31.1160005 136.008002,31.168 135.648,31.168 C135.111997,31.168 134.690002,31.0180015 134.382,30.718 C134.073998,30.4179985 133.92,29.9920028 133.92,29.44 L133.92,25.672 L132.84,25.672 L132.84,25.012 L133.908,24.892 L133.908,23.392 L134.94,23.032 L134.94,24.892 Z M141.12,22.504 L142.344,22.504 L147.288,29.56 L147.312,29.56 L147.288,22.504 L148.284,22.504 L148.284,31 L147.06,31 L142.116,23.944 L142.092,23.944 L142.116,31 L141.12,31 L141.12,22.504 Z M149.856,29.332 C149.856,28.539996 150.141997,27.9900015 150.714,27.682 C151.286003,27.3739985 152.147994,27.22 153.3,27.22 C153.580001,27.22 153.791999,27.224 153.936,27.232 L153.936,26.884 C153.936,26.4279977 153.812001,26.0880011 153.564,25.864 C153.315999,25.6399989 152.936003,25.528 152.424,25.528 C151.775997,25.528 151.164003,25.6999983 150.588,26.044 L150.228,25.36 C150.916003,24.9359979 151.667996,24.724 152.484,24.724 C153.340004,24.724 153.965998,24.923998 154.362,25.324 C154.758002,25.724002 154.956,26.3319959 154.956,27.148 L154.956,29.644 C154.956,30.0840022 154.984,30.5359977 155.04,31 L154.104,31 C154.048,30.6479982 154.02,30.372001 154.02,30.172 L153.984,30.172 C153.759999,30.5000016 153.478002,30.7479992 153.138,30.916 C152.797998,31.0840008 152.360003,31.168 151.824,31.168 C151.231997,31.168 150.756002,31.0100016 150.396,30.694 C150.035998,30.3779984 149.856,29.924003 149.856,29.332 Z M153.936,28.744 L153.936,27.952 L153.396,27.94 C152.795997,27.94 152.318002,27.9799996 151.962,28.06 C151.605998,28.1400004 151.342001,28.275999 151.17,28.468 C150.997999,28.660001 150.912,28.9279983 150.912,29.272 C150.912,29.6240018 151.015999,29.8939991 151.224,30.082 C151.432001,30.2700009 151.719998,30.364 152.088,30.364 C152.472002,30.364 152.803999,30.2820008 153.084,30.118 C153.364001,29.9539992 153.575999,29.7480012 153.72,29.5 C153.864001,29.2519988 153.936,29.0000013 153.936,28.744 Z M156.936,26.26 C156.936,25.8119978 156.908,25.3560023 156.852,24.892 L157.824,24.892 C157.864,25.1080011 157.892,25.3959982 157.908,25.756 L157.932,25.756 C158.124001,25.4519985 158.393998,25.204001 158.742,25.012 C159.090002,24.819999 159.491998,24.724 159.948,24.724 C160.468003,24.724 160.891998,24.8339989 161.22,25.054 C161.548002,25.2740011 161.787999,25.5759981 161.94,25.96 L161.964,25.96 C162.172001,25.5759981 162.455998,25.2740011 162.816,25.054 C163.176002,24.8339989 163.607997,24.724 164.112,24.724 C164.616003,24.724 165.035998,24.8339989 165.372,25.054 C165.708002,25.2740011 165.955999,25.5619982 166.116,25.918 C166.276001,26.2740018 166.356,26.6639979 166.356,27.088 L166.356,31 L165.336,31 L165.336,27.232 C165.336,26.7599976 165.222001,26.3640016 164.994,26.044 C164.765999,25.7239984 164.400003,25.564 163.896,25.564 C163.527998,25.564 163.212001,25.659999 162.948,25.852 C162.683999,26.044001 162.484001,26.2999984 162.348,26.62 C162.211999,26.9400016 162.144,27.2839982 162.144,27.652 L162.144,31 L161.124,31 L161.124,27.208 C161.124,26.7439977 161.008001,26.3540016 160.776,26.038 C160.543999,25.7219984 160.180002,25.564 159.684,25.564 C159.155997,25.564 158.736002,25.7499981 158.424,26.122 C158.111998,26.4940019 157.956,26.9519973 157.956,27.496 L157.956,31 L156.936,31 L156.936,26.26 Z M173.472,28.312 L168.936,28.312 C168.976,28.9360031 169.163998,29.4319982 169.5,29.8 C169.836002,30.1680018 170.315997,30.352 170.94,30.352 C171.308002,30.352 171.637999,30.3020005 171.93,30.202 C172.222001,30.1019995 172.515999,29.952001 172.812,29.752 L173.268,30.412 C172.923998,30.6600012 172.558002,30.8479994 172.17,30.976 C171.781998,31.1040006 171.352002,31.168 170.88,31.168 C169.943995,31.168 169.214003,30.872003 168.69,30.28 C168.165997,29.687997 167.904,28.9000049 167.904,27.916 C167.904,27.2839968 168.015999,26.7280024 168.24,26.248 C168.464001,25.7679976 168.789998,25.3940013 169.218,25.126 C169.646002,24.8579987 170.159997,24.724 170.76,24.724 C171.648004,24.724 172.325998,25.0119971 172.794,25.588 C173.262002,26.1640029 173.496,26.9279952 173.496,27.88 C173.496,28.072001 173.488,28.2159995 173.472,28.312 Z M172.5,27.52 C172.484,26.911997 172.328001,26.4240018 172.032,26.056 C171.735999,25.6879982 171.308003,25.504 170.748,25.504 C170.179997,25.504 169.740002,25.6939981 169.428,26.074 C169.115998,26.4540019 168.948,26.9359971 168.924,27.52 L172.5,27.52 Z" id="Segment-Name-Copy" fill="#54698D"></path>
                </g>
                <g id="Button-New-Copy-5" transform="translate(20.000000, 127.000000)" fill="#FFFFFF" stroke="#D8DDE6">
                    <rect id="Rectangle-827" x="0.5" y="0.5" width="260" height="54" rx="4"></rect>
                </g>
                <g id="Button-New-Copy-8" transform="translate(20.000000, 192.000000)">
                    <rect id="Rectangle-827" stroke="#D8DDE6" fill="#FFFFFF" x="0.5" y="0.5" width="551" height="92" rx="4"></rect>
                    <path d="M18.196,12.74 C18.196,14.1240069 17.8100039,15.1799964 17.038,15.908 C16.2659961,16.6360036 15.1920069,17 13.816,17 L11.08,17 L11.08,8.504 L13.792,8.504 C15.200007,8.504 16.2859962,8.8539965 17.05,9.554 C17.8140038,10.2540035 18.196,11.3159929 18.196,12.74 Z M12.136,9.38 L12.136,16.112 L13.708,16.112 C14.8120055,16.112 15.6539971,15.8360028 16.234,15.284 C16.8140029,14.7319972 17.104,13.8840057 17.104,12.74 C17.104,10.4999888 15.9760113,9.38 13.72,9.38 L12.136,9.38 Z M24.952,14.312 L20.416,14.312 C20.4560002,14.9360031 20.6439983,15.4319982 20.98,15.8 C21.3160017,16.1680018 21.7959969,16.352 22.42,16.352 C22.7880018,16.352 23.1179985,16.3020005 23.41,16.202 C23.7020015,16.1019995 23.9959985,15.952001 24.292,15.752 L24.748,16.412 C24.4039983,16.6600012 24.0380019,16.8479994 23.65,16.976 C23.2619981,17.1040006 22.8320024,17.168 22.36,17.168 C21.4239953,17.168 20.6940026,16.872003 20.17,16.28 C19.6459974,15.687997 19.384,14.9000049 19.384,13.916 C19.384,13.2839968 19.4959989,12.7280024 19.72,12.248 C19.9440011,11.7679976 20.2699979,11.3940013 20.698,11.126 C21.1260021,10.8579987 21.639997,10.724 22.24,10.724 C23.1280044,10.724 23.8059977,11.0119971 24.274,11.588 C24.7420023,12.1640029 24.976,12.9279952 24.976,13.88 C24.976,14.072001 24.9680001,14.2159995 24.952,14.312 Z M23.98,13.52 C23.9639999,12.911997 23.8080015,12.4240018 23.512,12.056 C23.2159985,11.6879982 22.7880028,11.504 22.228,11.504 C21.6599972,11.504 21.2200016,11.6939981 20.908,12.074 C20.5959984,12.4540019 20.4280001,12.9359971 20.404,13.52 L23.98,13.52 Z M30.292,11.372 L29.836,12.008 C29.3639976,11.6799984 28.8520028,11.516 28.3,11.516 C27.9159981,11.516 27.6160011,11.5899993 27.4,11.738 C27.1839989,11.8860007 27.076,12.0959986 27.076,12.368 C27.076,12.568001 27.1199996,12.7319994 27.208,12.86 C27.2960004,12.9880006 27.443999,13.0959996 27.652,13.184 C27.860001,13.2720004 28.163998,13.3639995 28.564,13.46 C29.1880031,13.6120008 29.6499985,13.8339985 29.95,14.126 C30.2500015,14.4180015 30.4,14.7999976 30.4,15.272 C30.4,15.872003 30.1760022,16.3379983 29.728,16.67 C29.2799978,17.0020017 28.7280033,17.168 28.072,17.168 C27.1919956,17.168 26.456003,16.9320024 25.864,16.46 L26.332,15.824 C26.6040014,16.0080009 26.8719987,16.1439996 27.136,16.232 C27.4000013,16.3200004 27.6999983,16.364 28.036,16.364 C28.444002,16.364 28.7659988,16.2760009 29.002,16.1 C29.2380012,15.9239991 29.356,15.6720016 29.356,15.344 C29.356,15.1279989 29.3120004,14.9540007 29.224,14.822 C29.1359996,14.6899993 28.990001,14.5800004 28.786,14.492 C28.581999,14.4039996 28.276002,14.3080005 27.868,14.204 C27.2359968,14.0439992 26.7760014,13.8280014 26.488,13.556 C26.1999986,13.2839986 26.056,12.9080024 26.056,12.428 C26.056,11.9079974 26.257998,11.4940015 26.662,11.186 C27.066002,10.8779985 27.5999967,10.724 28.264,10.724 C29.0480039,10.724 29.7239972,10.9399978 30.292,11.372 Z M34.492,10.724 C34.8760019,10.724 35.2419983,10.7819994 35.59,10.898 C35.9380017,11.0140006 36.2479986,11.175999 36.52,11.384 L36.112,12.092 C35.6479977,11.7479983 35.1080031,11.576 34.492,11.576 C33.8359967,11.576 33.3400017,11.7899979 33.004,12.218 C32.6679983,12.6460021 32.5,13.2199964 32.5,13.94 C32.5,14.6440035 32.6679983,15.2139978 33.004,15.65 C33.3400017,16.0860022 33.8319968,16.304 34.48,16.304 C35.0320028,16.304 35.5799973,16.1320017 36.124,15.788 L36.496,16.508 C35.887997,16.9480022 35.1920039,17.168 34.408,17.168 C33.7199966,17.168 33.1560022,17.0140015 32.716,16.706 C32.2759978,16.3979985 31.958001,16.0000024 31.762,15.512 C31.565999,15.0239976 31.468,14.5000028 31.468,13.94 C31.468,12.9639951 31.7359973,12.1840029 32.272,11.6 C32.8080027,11.0159971 33.5479953,10.724 34.492,10.724 Z M37.936,12.26 C37.936,11.8119978 37.9080003,11.3560023 37.852,10.892 L38.824,10.892 C38.8640002,11.1640014 38.8919999,11.4879981 38.908,11.864 L38.932,11.864 C39.2840018,11.1039962 39.9239954,10.724 40.852,10.724 C40.9160003,10.724 41.0319992,10.7359999 41.2,10.76 L41.14,11.636 C41.0599996,11.6199999 40.9360008,11.612 40.768,11.612 C40.1839971,11.612 39.7360016,11.807998 39.424,12.2 C39.1119984,12.592002 38.956,13.0999969 38.956,13.724 L38.956,17 L37.936,17 L37.936,12.26 Z M43.336,17 L42.316,17 L42.316,10.892 L43.336,10.892 L43.336,17 Z M42.16,8.804 C42.16,8.37199784 42.3839978,8.156 42.832,8.156 C43.2720022,8.156 43.492,8.37199784 43.492,8.804 C43.492,8.98800092 43.4400005,9.13799942 43.336,9.254 C43.2319995,9.37000058 43.0640012,9.428 42.832,9.428 C42.5919988,9.428 42.4200005,9.37000058 42.316,9.254 C42.2119995,9.13799942 42.16,8.98800092 42.16,8.804 Z M51.244,13.94 C51.244,14.548003 51.1320011,15.0959976 50.908,15.584 C50.6839989,16.0720024 50.3580021,16.4579986 49.93,16.742 C49.5019979,17.0260014 49.0000029,17.168 48.424,17.168 C47.6479961,17.168 46.9800028,16.9160025 46.42,16.412 L46.42,19.928 L45.4,19.928 L45.4,12.26 C45.4,11.8119978 45.3720003,11.3560023 45.316,10.892 L46.288,10.892 C46.3280002,11.1560013 46.3559999,11.4679982 46.372,11.828 L46.396,11.828 C46.596001,11.4919983 46.8759982,11.224001 47.236,11.024 C47.5960018,10.823999 48.0359974,10.724 48.556,10.724 C49.1400029,10.724 49.631998,10.8659986 50.032,11.15 C50.432002,11.4340014 50.733999,11.8179976 50.938,12.302 C51.142001,12.7860024 51.244,13.331997 51.244,13.94 Z M50.188,13.94 C50.188,13.2039963 50.0260016,12.6200022 49.702,12.188 C49.3779984,11.7559978 48.9280029,11.54 48.352,11.54 C47.9759981,11.54 47.6400015,11.6279991 47.344,11.804 C47.0479985,11.9800009 46.8200008,12.2199985 46.66,12.524 C46.4999992,12.8280015 46.42,13.1599982 46.42,13.52 L46.42,15.548 C46.7000014,15.8280014 46.9779986,16.0319994 47.254,16.16 C47.5300014,16.2880006 47.8479982,16.352 48.208,16.352 C48.8480032,16.352 49.3379983,16.1300022 49.678,15.686 C50.0180017,15.2419978 50.188,14.6600036 50.188,13.94 Z M54.112,10.892 L55.732,10.892 L55.732,11.672 L54.112,11.672 L54.112,15.356 C54.112,16.0120033 54.411997,16.34 55.012,16.34 C55.2280011,16.34 55.4279991,16.3120003 55.612,16.256 L55.768,17.012 C55.4959986,17.1160005 55.1800018,17.168 54.82,17.168 C54.2839973,17.168 53.8620015,17.0180015 53.554,16.718 C53.2459985,16.4179985 53.092,15.9920028 53.092,15.44 L53.092,11.672 L52.012,11.672 L52.012,11.012 L53.08,10.892 L53.08,9.392 L54.112,9.032 L54.112,10.892 Z M58.18,17 L57.16,17 L57.16,10.892 L58.18,10.892 L58.18,17 Z M57.004,8.804 C57.004,8.37199784 57.2279978,8.156 57.676,8.156 C58.1160022,8.156 58.336,8.37199784 58.336,8.804 C58.336,8.98800092 58.2840005,9.13799942 58.18,9.254 C58.0759995,9.37000058 57.9080012,9.428 57.676,9.428 C57.4359988,9.428 57.2640005,9.37000058 57.16,9.254 C57.0559995,9.13799942 57.004,8.98800092 57.004,8.804 Z M65.944,13.928 C65.944,14.5600032 65.8220012,15.1219975 65.578,15.614 C65.3339988,16.1060025 64.9820023,16.4879986 64.522,16.76 C64.0619977,17.0320014 63.5120032,17.168 62.872,17.168 C62.2399968,17.168 61.6920023,17.0300014 61.228,16.754 C60.7639977,16.4779986 60.4120012,16.0960024 60.172,15.608 C59.9319988,15.1199976 59.812,14.5600032 59.812,13.928 C59.812,12.9519951 60.0799973,12.1740029 60.616,11.594 C61.1520027,11.0139971 61.9039952,10.724 62.872,10.724 C63.5200032,10.724 64.0739977,10.8579987 64.534,11.126 C64.9940023,11.3940013 65.3439988,11.7679976 65.584,12.248 C65.8240012,12.7280024 65.944,13.2879968 65.944,13.928 Z M60.868,13.928 C60.868,14.6560036 61.0339983,15.2419978 61.366,15.686 C61.6980017,16.1300022 62.1999966,16.352 62.872,16.352 C63.5520034,16.352 64.0599983,16.1300022 64.396,15.686 C64.7320017,15.2419978 64.9,14.6560036 64.9,13.928 C64.9,13.1999964 64.7320017,12.6200022 64.396,12.188 C64.0599983,11.7559978 63.5520034,11.54 62.872,11.54 C62.1919966,11.54 61.6880016,11.7559978 61.36,12.188 C61.0319984,12.6200022 60.868,13.1999964 60.868,13.928 Z M67.576,12.26 C67.576,11.8119978 67.5480003,11.3560023 67.492,10.892 L68.464,10.892 C68.5040002,11.1080011 68.5319999,11.3959982 68.548,11.756 L68.572,11.756 C68.772001,11.4439984 69.0519982,11.1940009 69.412,11.006 C69.7720018,10.8179991 70.1999975,10.724 70.696,10.724 C71.4640038,10.724 72.0339981,10.9459978 72.406,11.39 C72.7780019,11.8340022 72.964,12.3879967 72.964,13.052 L72.964,17 L71.944,17 L71.944,13.256 C71.944,12.7679976 71.8240012,12.3660016 71.584,12.05 C71.3439988,11.7339984 70.9560027,11.576 70.42,11.576 C69.8679972,11.576 69.4260017,11.7579982 69.094,12.122 C68.7619983,12.4860018 68.596,12.9439972 68.596,13.496 L68.596,17 L67.576,17 L67.576,12.26 Z" id="Description-Copy" fill="#54698D"></path>
                </g>
                <g id="Button-New-Copy-4" transform="translate(311.000000, 62.000000)" fill="#FFFFFF" stroke="#D8DDE6">
                    <rect id="Rectangle-827" x="0.5" y="0.5" width="260" height="54" rx="4"></rect>
                </g>
                <g id="Button-New-Copy-6" transform="translate(311.000000, 127.000000)" fill="#FFFFFF" stroke="#D8DDE6">
                    <rect id="Rectangle-827" x="0.5" y="0.5" width="260" height="54" rx="4"></rect>
                </g>
                <g id="Button-New-Copy" transform="translate(89.000000, 432.000000)">
                    <rect id="Rectangle-827" fill="#0070D2" x="0" y="0" width="177" height="32" rx="4"></rect>
                    <path d="M16.36,19.208 L16.9,18.536 C17.2440017,18.8080014 17.5999982,19.0039994 17.968,19.124 C18.3360018,19.2440006 18.7519977,19.304 19.216,19.304 C19.7920029,19.304 20.2579982,19.1700013 20.614,18.902 C20.9700018,18.6339987 21.148,18.2440026 21.148,17.732 C21.148,17.3719982 21.0640008,17.0800011 20.896,16.856 C20.7279992,16.6319989 20.4960015,16.4520007 20.2,16.316 C19.9039985,16.1799993 19.5120024,16.0480006 19.024,15.92 C18.231996,15.711999 17.640002,15.4300018 17.248,15.074 C16.855998,14.7179982 16.66,14.2200032 16.66,13.58 C16.66,12.8679964 16.9259973,12.312002 17.458,11.912 C17.9900027,11.511998 18.6679959,11.312 19.492,11.312 C20.0120026,11.312 20.4819979,11.3799993 20.902,11.516 C21.3220021,11.6520007 21.7119982,11.8519987 22.072,12.116 L21.592,12.812 C21.2559983,12.5959989 20.9220017,12.4360005 20.59,12.332 C20.2579983,12.2279995 19.892002,12.176 19.492,12.176 C18.9559973,12.176 18.5240016,12.2899989 18.196,12.518 C17.8679984,12.7460011 17.704,13.0759978 17.704,13.508 C17.704,13.9400022 17.8539985,14.2659989 18.154,14.486 C18.4540015,14.7060011 18.9439966,14.9039991 19.624,15.08 C20.4800043,15.3040011 21.1279978,15.6079981 21.568,15.992 C22.0080022,16.3760019 22.228,16.9439962 22.228,17.696 C22.228,18.2400027 22.0940013,18.6999981 21.826,19.076 C21.5579987,19.4520019 21.1960023,19.7339991 20.74,19.922 C20.2839977,20.1100009 19.7720028,20.204 19.204,20.204 C18.0999945,20.204 17.152004,19.8720033 16.36,19.208 Z M23.212,18.332 C23.212,17.539996 23.4979971,16.9900015 24.07,16.682 C24.6420029,16.3739985 25.5039942,16.22 26.656,16.22 C26.9360014,16.22 27.1479993,16.224 27.292,16.232 L27.292,15.884 C27.292,15.4279977 27.1680012,15.0880011 26.92,14.864 C26.6719988,14.6399989 26.2920026,14.528 25.78,14.528 C25.1319968,14.528 24.5200029,14.6999983 23.944,15.044 L23.584,14.36 C24.2720034,13.9359979 25.0239959,13.724 25.84,13.724 C26.6960043,13.724 27.321998,13.923998 27.718,14.324 C28.114002,14.724002 28.312,15.3319959 28.312,16.148 L28.312,18.644 C28.312,19.0840022 28.3399997,19.5359977 28.396,20 L27.46,20 C27.4039997,19.6479982 27.376,19.372001 27.376,19.172 L27.34,19.172 C27.1159989,19.5000016 26.8340017,19.7479992 26.494,19.916 C26.1539983,20.0840008 25.7160027,20.168 25.18,20.168 C24.587997,20.168 24.1120018,20.0100016 23.752,19.694 C23.3919982,19.3779984 23.212,18.924003 23.212,18.332 Z M27.292,17.744 L27.292,16.952 L26.752,16.94 C26.151997,16.94 25.6740018,16.9799996 25.318,17.06 C24.9619982,17.1400004 24.6980009,17.275999 24.526,17.468 C24.3539991,17.660001 24.268,17.9279983 24.268,18.272 C24.268,18.6240018 24.371999,18.8939991 24.58,19.082 C24.788001,19.2700009 25.0759982,19.364 25.444,19.364 C25.8280019,19.364 26.1599986,19.2820008 26.44,19.118 C26.7200014,18.9539992 26.9319993,18.7480012 27.076,18.5 C27.2200007,18.2519988 27.292,18.0000013 27.292,17.744 Z M32.776,20 L31.636,20 L29.308,13.892 L30.4,13.892 L32.212,18.98 L32.248,18.98 L34,13.892 L35.056,13.892 L32.776,20 Z M41.284,17.312 L36.748,17.312 C36.7880002,17.9360031 36.9759983,18.4319982 37.312,18.8 C37.6480017,19.1680018 38.1279969,19.352 38.752,19.352 C39.1200018,19.352 39.4499985,19.3020005 39.742,19.202 C40.0340015,19.1019995 40.3279985,18.952001 40.624,18.752 L41.08,19.412 C40.7359983,19.6600012 40.3700019,19.8479994 39.982,19.976 C39.5939981,20.1040006 39.1640024,20.168 38.692,20.168 C37.7559953,20.168 37.0260026,19.872003 36.502,19.28 C35.9779974,18.687997 35.716,17.9000049 35.716,16.916 C35.716,16.2839968 35.8279989,15.7280024 36.052,15.248 C36.2760011,14.7679976 36.6019979,14.3940013 37.03,14.126 C37.4580021,13.8579987 37.971997,13.724 38.572,13.724 C39.4600044,13.724 40.1379977,14.0119971 40.606,14.588 C41.0740023,15.1640029 41.308,15.9279952 41.308,16.88 C41.308,17.072001 41.3000001,17.2159995 41.284,17.312 Z M40.312,16.52 C40.2959999,15.911997 40.1400015,15.4240018 39.844,15.056 C39.5479985,14.6879982 39.1200028,14.504 38.56,14.504 C37.9919972,14.504 37.5520016,14.6939981 37.24,15.074 C36.9279984,15.4540019 36.7600001,15.9359971 36.736,16.52 L40.312,16.52 Z M52.24,20.168 L51.136,19.1 C50.7919983,19.4520018 50.4040022,19.7179991 49.972,19.898 C49.5399978,20.0780009 49.028003,20.168 48.436,20.168 C47.8679972,20.168 47.3680022,20.066001 46.936,19.862 C46.5039978,19.657999 46.1700012,19.3760018 45.934,19.016 C45.6979988,18.6559982 45.58,18.2400024 45.58,17.768 C45.58,17.2399974 45.7139987,16.7840019 45.982,16.4 C46.2500013,16.0159981 46.679997,15.6720015 47.272,15.368 C46.8959981,14.9919981 46.6240008,14.6560015 46.456,14.36 C46.2879992,14.0639985 46.204,13.6960022 46.204,13.256 C46.204,12.6719971 46.4159979,12.2000018 46.84,11.84 C47.2640021,11.4799982 47.8039967,11.3 48.46,11.3 C48.9240023,11.3 49.3259983,11.3819992 49.666,11.546 C50.0060017,11.7100008 50.2639991,11.9359986 50.44,12.224 C50.6160009,12.5120014 50.704,12.8319982 50.704,13.184 C50.704,13.7120026 50.5400016,14.1539982 50.212,14.51 C49.8839984,14.8660018 49.3880033,15.1999984 48.724,15.512 L51.028,17.732 C51.3240015,17.1639972 51.5319994,16.5480033 51.652,15.884 L52.504,16.04 C52.3999995,16.8560041 52.1280022,17.6319963 51.688,18.368 L52.864,19.496 L52.24,20.168 Z M47.26,13.244 C47.26,13.5720016 47.3219994,13.8559988 47.446,14.096 C47.5700006,14.3360012 47.7959984,14.6159984 48.124,14.936 C48.7000029,14.6559986 49.1019989,14.3940012 49.33,14.15 C49.5580011,13.9059988 49.672,13.5960019 49.672,13.22 C49.672,12.8919984 49.5660011,12.624001 49.354,12.416 C49.1419989,12.207999 48.8480019,12.104 48.472,12.104 C48.0959981,12.104 47.8000011,12.207999 47.584,12.416 C47.3679989,12.624001 47.26,12.8999983 47.26,13.244 Z M50.5,18.488 L47.884,15.968 C47.4279977,16.2320013 47.1120009,16.4919987 46.936,16.748 C46.7599991,17.0040013 46.672,17.335998 46.672,17.744 C46.672,18.2080023 46.8299984,18.5759986 47.146,18.848 C47.4620016,19.1200014 47.8919973,19.256 48.436,19.256 C49.3160044,19.256 50.0039975,19.0000026 50.5,18.488 Z M60.46,20 L59.356,20 L56.14,11.504 L57.28,11.504 L59.92,18.812 L59.956,18.812 L62.56,11.504 L63.688,11.504 L60.46,20 Z M65.788,20 L64.768,20 L64.768,13.892 L65.788,13.892 L65.788,20 Z M64.612,11.804 C64.612,11.3719978 64.8359978,11.156 65.284,11.156 C65.7240022,11.156 65.944,11.3719978 65.944,11.804 C65.944,11.9880009 65.8920005,12.1379994 65.788,12.254 C65.6839995,12.3700006 65.5160012,12.428 65.284,12.428 C65.0439988,12.428 64.8720005,12.3700006 64.768,12.254 C64.6639995,12.1379994 64.612,11.9880009 64.612,11.804 Z M72.988,17.312 L68.452,17.312 C68.4920002,17.9360031 68.6799983,18.4319982 69.016,18.8 C69.3520017,19.1680018 69.8319969,19.352 70.456,19.352 C70.8240018,19.352 71.1539985,19.3020005 71.446,19.202 C71.7380015,19.1019995 72.0319985,18.952001 72.328,18.752 L72.784,19.412 C72.4399983,19.6600012 72.0740019,19.8479994 71.686,19.976 C71.2979981,20.1040006 70.8680024,20.168 70.396,20.168 C69.4599953,20.168 68.7300026,19.872003 68.206,19.28 C67.6819974,18.687997 67.42,17.9000049 67.42,16.916 C67.42,16.2839968 67.5319989,15.7280024 67.756,15.248 C67.9800011,14.7679976 68.3059979,14.3940013 68.734,14.126 C69.1620021,13.8579987 69.675997,13.724 70.276,13.724 C71.1640044,13.724 71.8419977,14.0119971 72.31,14.588 C72.7780023,15.1640029 73.012,15.9279952 73.012,16.88 C73.012,17.072001 73.0040001,17.2159995 72.988,17.312 Z M72.016,16.52 C71.9999999,15.911997 71.8440015,15.4240018 71.548,15.056 C71.2519985,14.6879982 70.8240028,14.504 70.264,14.504 C69.6959972,14.504 69.2560016,14.6939981 68.944,15.074 C68.6319984,15.4540019 68.4640001,15.9359971 68.44,16.52 L72.016,16.52 Z M80.956,20 L79.816,20 L78.232,14.984 L78.208,14.984 L76.648,20 L75.52,20 L73.804,13.892 L74.872,13.892 L76.12,18.896 L76.144,18.896 L77.692,13.892 L78.796,13.892 L80.356,18.896 L80.38,18.896 L81.64,13.892 L82.672,13.892 L80.956,20 Z M93.664,12.332 L93.04,13.016 C92.7439985,12.7519987 92.4060019,12.5500007 92.026,12.41 C91.6459981,12.2699993 91.2440021,12.2 90.82,12.2 C89.7799948,12.2 88.9960026,12.5239968 88.468,13.172 C87.9399974,13.8200032 87.676,14.6759947 87.676,15.74 C87.676,16.7960053 87.9399974,17.6479968 88.468,18.296 C88.9960026,18.9440032 89.7719949,19.268 90.796,19.268 C91.2520023,19.268 91.683998,19.1820009 92.092,19.01 C92.500002,18.8379991 92.8559985,18.6040015 93.16,18.308 L93.808,19.016 C93.4399982,19.3840018 92.9940026,19.6739989 92.47,19.886 C91.9459974,20.0980011 91.3760031,20.204 90.76,20.204 C89.8719956,20.204 89.1140031,20.0160019 88.486,19.64 C87.8579969,19.2639981 87.3820016,18.7400034 87.058,18.068 C86.7339984,17.3959966 86.572,16.6200044 86.572,15.74 C86.572,14.8599956 86.7339984,14.0840034 87.058,13.412 C87.3820016,12.7399966 87.8599968,12.2180019 88.492,11.846 C89.1240032,11.4739981 89.8879955,11.288 90.784,11.288 C91.3520028,11.288 91.8839975,11.3779991 92.38,11.558 C92.8760025,11.7380009 93.3039982,11.9959983 93.664,12.332 Z M100.804,16.928 C100.804,17.5600032 100.682001,18.1219975 100.438,18.614 C100.193999,19.1060025 99.8420023,19.4879986 99.382,19.76 C98.9219977,20.0320014 98.3720032,20.168 97.732,20.168 C97.0999968,20.168 96.5520023,20.0300014 96.088,19.754 C95.6239977,19.4779986 95.2720012,19.0960024 95.032,18.608 C94.7919988,18.1199976 94.672,17.5600032 94.672,16.928 C94.672,15.9519951 94.9399973,15.1740029 95.476,14.594 C96.0120027,14.0139971 96.7639952,13.724 97.732,13.724 C98.3800032,13.724 98.9339977,13.8579987 99.394,14.126 C99.8540023,14.3940013 100.203999,14.7679976 100.444,15.248 C100.684001,15.7280024 100.804,16.2879968 100.804,16.928 Z M95.728,16.928 C95.728,17.6560036 95.8939983,18.2419978 96.226,18.686 C96.5580017,19.1300022 97.0599966,19.352 97.732,19.352 C98.4120034,19.352 98.9199983,19.1300022 99.256,18.686 C99.5920017,18.2419978 99.76,17.6560036 99.76,16.928 C99.76,16.1999964 99.5920017,15.6200022 99.256,15.188 C98.9199983,14.7559978 98.4120034,14.54 97.732,14.54 C97.0519966,14.54 96.5480016,14.7559978 96.22,15.188 C95.8919984,15.6200022 95.728,16.1999964 95.728,16.928 Z M102.436,15.26 C102.436,14.8119978 102.408,14.3560023 102.352,13.892 L103.324,13.892 C103.364,14.1080011 103.392,14.3959982 103.408,14.756 L103.432,14.756 C103.632001,14.4439984 103.911998,14.1940009 104.272,14.006 C104.632002,13.8179991 105.059998,13.724 105.556,13.724 C106.324004,13.724 106.893998,13.9459978 107.266,14.39 C107.638002,14.8340022 107.824,15.3879967 107.824,16.052 L107.824,20 L106.804,20 L106.804,16.256 C106.804,15.7679976 106.684001,15.3660016 106.444,15.05 C106.203999,14.7339984 105.816003,14.576 105.28,14.576 C104.727997,14.576 104.286002,14.7579982 103.954,15.122 C103.621998,15.4860018 103.456,15.9439972 103.456,16.496 L103.456,20 L102.436,20 L102.436,15.26 Z M114.796,20 L113.776,20 L113.776,14.672 L111.04,14.672 L111.04,20 L110.02,20 L110.02,14.672 L108.952,14.672 L108.952,14.024 L110.02,13.892 L110.02,13.364 C110.02,12.7239968 110.213998,12.2260018 110.602,11.87 C110.990002,11.5139982 111.575996,11.336 112.36,11.336 C113.168004,11.336 113.951996,11.5559978 114.712,11.996 L114.352,12.704 C113.703997,12.3359982 113.044003,12.152 112.372,12.152 C111.899998,12.152 111.560001,12.255999 111.352,12.464 C111.143999,12.672001 111.04,12.979998 111.04,13.388 L111.04,13.892 L114.796,13.892 L114.796,20 Z M116.86,15.26 C116.86,14.8119978 116.832,14.3560023 116.776,13.892 L117.748,13.892 C117.788,14.1640014 117.816,14.4879981 117.832,14.864 L117.856,14.864 C118.208002,14.1039962 118.847995,13.724 119.776,13.724 C119.84,13.724 119.955999,13.7359999 120.124,13.76 L120.064,14.636 C119.984,14.6199999 119.860001,14.612 119.692,14.612 C119.107997,14.612 118.660002,14.807998 118.348,15.2 C118.035998,15.592002 117.88,16.0999969 117.88,16.724 L117.88,20 L116.86,20 L116.86,15.26 Z M121.228,15.26 C121.228,14.8119978 121.2,14.3560023 121.144,13.892 L122.116,13.892 C122.156,14.1080011 122.184,14.3959982 122.2,14.756 L122.224,14.756 C122.416001,14.4519985 122.685998,14.204001 123.034,14.012 C123.382002,13.819999 123.783998,13.724 124.24,13.724 C124.760003,13.724 125.183998,13.8339989 125.512,14.054 C125.840002,14.2740011 126.079999,14.5759981 126.232,14.96 L126.256,14.96 C126.464001,14.5759981 126.747998,14.2740011 127.108,14.054 C127.468002,13.8339989 127.899997,13.724 128.404,13.724 C128.908003,13.724 129.327998,13.8339989 129.664,14.054 C130.000002,14.2740011 130.247999,14.5619982 130.408,14.918 C130.568001,15.2740018 130.648,15.6639979 130.648,16.088 L130.648,20 L129.628,20 L129.628,16.232 C129.628,15.7599976 129.514001,15.3640016 129.286,15.044 C129.057999,14.7239984 128.692003,14.564 128.188,14.564 C127.819998,14.564 127.504001,14.659999 127.24,14.852 C126.975999,15.044001 126.776001,15.2999984 126.64,15.62 C126.503999,15.9400016 126.436,16.2839982 126.436,16.652 L126.436,20 L125.416,20 L125.416,16.208 C125.416,15.7439977 125.300001,15.3540016 125.068,15.038 C124.835999,14.7219984 124.472002,14.564 123.976,14.564 C123.447997,14.564 123.028002,14.7499981 122.716,15.122 C122.403998,15.4940019 122.248,15.9519973 122.248,16.496 L122.248,20 L121.228,20 L121.228,15.26 Z M132.1,18.332 C132.1,17.539996 132.385997,16.9900015 132.958,16.682 C133.530003,16.3739985 134.391994,16.22 135.544,16.22 C135.824001,16.22 136.035999,16.224 136.18,16.232 L136.18,15.884 C136.18,15.4279977 136.056001,15.0880011 135.808,14.864 C135.559999,14.6399989 135.180003,14.528 134.668,14.528 C134.019997,14.528 133.408003,14.6999983 132.832,15.044 L132.472,14.36 C133.160003,13.9359979 133.911996,13.724 134.728,13.724 C135.584004,13.724 136.209998,13.923998 136.606,14.324 C137.002002,14.724002 137.2,15.3319959 137.2,16.148 L137.2,18.644 C137.2,19.0840022 137.228,19.5359977 137.284,20 L136.348,20 C136.292,19.6479982 136.264,19.372001 136.264,19.172 L136.228,19.172 C136.003999,19.5000016 135.722002,19.7479992 135.382,19.916 C135.041998,20.0840008 134.604003,20.168 134.068,20.168 C133.475997,20.168 133.000002,20.0100016 132.64,19.694 C132.279998,19.3779984 132.1,18.924003 132.1,18.332 Z M136.18,17.744 L136.18,16.952 L135.64,16.94 C135.039997,16.94 134.562002,16.9799996 134.206,17.06 C133.849998,17.1400004 133.586001,17.275999 133.414,17.468 C133.241999,17.660001 133.156,17.9279983 133.156,18.272 C133.156,18.6240018 133.259999,18.8939991 133.468,19.082 C133.676001,19.2700009 133.963998,19.364 134.332,19.364 C134.716002,19.364 135.047999,19.2820008 135.328,19.118 C135.608001,18.9539992 135.819999,18.7480012 135.964,18.5 C136.108001,18.2519988 136.18,18.0000013 136.18,17.744 Z M140.428,13.892 L142.048,13.892 L142.048,14.672 L140.428,14.672 L140.428,18.356 C140.428,19.0120033 140.727997,19.34 141.328,19.34 C141.544001,19.34 141.743999,19.3120003 141.928,19.256 L142.084,20.012 C141.811999,20.1160005 141.496002,20.168 141.136,20.168 C140.599997,20.168 140.178002,20.0180015 139.87,19.718 C139.561998,19.4179985 139.408,18.9920028 139.408,18.44 L139.408,14.672 L138.328,14.672 L138.328,14.012 L139.396,13.892 L139.396,12.392 L140.428,12.032 L140.428,13.892 Z M144.496,20 L143.476,20 L143.476,13.892 L144.496,13.892 L144.496,20 Z M143.32,11.804 C143.32,11.3719978 143.543998,11.156 143.992,11.156 C144.432002,11.156 144.652,11.3719978 144.652,11.804 C144.652,11.9880009 144.600001,12.1379994 144.496,12.254 C144.391999,12.3700006 144.224001,12.428 143.992,12.428 C143.751999,12.428 143.580001,12.3700006 143.476,12.254 C143.371999,12.1379994 143.32,11.9880009 143.32,11.804 Z M152.26,16.928 C152.26,17.5600032 152.138001,18.1219975 151.894,18.614 C151.649999,19.1060025 151.298002,19.4879986 150.838,19.76 C150.377998,20.0320014 149.828003,20.168 149.188,20.168 C148.555997,20.168 148.008002,20.0300014 147.544,19.754 C147.079998,19.4779986 146.728001,19.0960024 146.488,18.608 C146.247999,18.1199976 146.128,17.5600032 146.128,16.928 C146.128,15.9519951 146.395997,15.1740029 146.932,14.594 C147.468003,14.0139971 148.219995,13.724 149.188,13.724 C149.836003,13.724 150.389998,13.8579987 150.85,14.126 C151.310002,14.3940013 151.659999,14.7679976 151.9,15.248 C152.140001,15.7280024 152.26,16.2879968 152.26,16.928 Z M147.184,16.928 C147.184,17.6560036 147.349998,18.2419978 147.682,18.686 C148.014002,19.1300022 148.515997,19.352 149.188,19.352 C149.868003,19.352 150.375998,19.1300022 150.712,18.686 C151.048002,18.2419978 151.216,17.6560036 151.216,16.928 C151.216,16.1999964 151.048002,15.6200022 150.712,15.188 C150.375998,14.7559978 149.868003,14.54 149.188,14.54 C148.507997,14.54 148.004002,14.7559978 147.676,15.188 C147.347998,15.6200022 147.184,16.1999964 147.184,16.928 Z M153.892,15.26 C153.892,14.8119978 153.864,14.3560023 153.808,13.892 L154.78,13.892 C154.82,14.1080011 154.848,14.3959982 154.864,14.756 L154.888,14.756 C155.088001,14.4439984 155.367998,14.1940009 155.728,14.006 C156.088002,13.8179991 156.515998,13.724 157.012,13.724 C157.780004,13.724 158.349998,13.9459978 158.722,14.39 C159.094002,14.8340022 159.28,15.3879967 159.28,16.052 L159.28,20 L158.26,20 L158.26,16.256 C158.26,15.7679976 158.140001,15.3660016 157.9,15.05 C157.659999,14.7339984 157.272003,14.576 156.736,14.576 C156.183997,14.576 155.742002,14.7579982 155.41,15.122 C155.077998,15.4860018 154.912,15.9439972 154.912,16.496 L154.912,20 L153.892,20 L153.892,15.26 Z" id="Save-&amp;-View-Confirma-Copy" fill="#FFFFFF"></path>
                </g>
                <g id="Button-New-Copy-7" transform="translate(275.000000, 432.000000)">
                    <rect id="Rectangle-827" stroke="#D8DDE6" fill="#FFFFFF" x="0.5" y="0.5" width="69" height="31" rx="4"></rect>
                    <path d="M23.68,12.2747313 L23.056,12.9587313 C22.7599985,12.69473 22.4220019,12.492732 22.042,12.3527313 C21.6619981,12.2127306 21.2600021,12.1427313 20.836,12.1427313 C19.7959948,12.1427313 19.0120026,12.466728 18.484,13.1147313 C17.9559974,13.7627345 17.692,14.618726 17.692,15.6827313 C17.692,16.7387366 17.9559974,17.590728 18.484,18.2387313 C19.0120026,18.8867345 19.7879949,19.2107313 20.812,19.2107313 C21.2680023,19.2107313 21.699998,19.1247321 22.108,18.9527313 C22.516002,18.7807304 22.8719985,18.5467328 23.176,18.2507313 L23.824,18.9587313 C23.4559982,19.3267331 23.0100026,19.6167302 22.486,19.8287313 C21.9619974,20.0407323 21.3920031,20.1467313 20.776,20.1467313 C19.8879956,20.1467313 19.1300031,19.9587332 18.502,19.5827313 C17.8739969,19.2067294 17.3980016,18.6827346 17.074,18.0107313 C16.7499984,17.3387279 16.588,16.5627357 16.588,15.6827313 C16.588,14.8027269 16.7499984,14.0267346 17.074,13.3547313 C17.3980016,12.6827279 17.8759968,12.1607331 18.508,11.7887313 C19.1400032,11.4167294 19.9039955,11.2307313 20.8,11.2307313 C21.3680028,11.2307313 21.8999975,11.3207304 22.396,11.5007313 C22.8920025,11.6807322 23.3199982,11.9387296 23.68,12.2747313 Z M24.592,18.2747313 C24.592,17.4827273 24.8779971,16.9327328 25.45,16.6247313 C26.0220029,16.3167297 26.8839942,16.1627313 28.036,16.1627313 C28.3160014,16.1627313 28.5279993,16.1667312 28.672,16.1747313 L28.672,15.8267313 C28.672,15.370729 28.5480012,15.0307324 28.3,14.8067313 C28.0519988,14.5827302 27.6720026,14.4707313 27.16,14.4707313 C26.5119968,14.4707313 25.9000029,14.6427296 25.324,14.9867313 L24.964,14.3027313 C25.6520034,13.8787292 26.4039959,13.6667313 27.22,13.6667313 C28.0760043,13.6667313 28.701998,13.8667293 29.098,14.2667313 C29.494002,14.6667333 29.692,15.2747272 29.692,16.0907313 L29.692,18.5867313 C29.692,19.0267335 29.7199997,19.478729 29.776,19.9427313 L28.84,19.9427313 C28.7839997,19.5907295 28.756,19.3147323 28.756,19.1147313 L28.72,19.1147313 C28.4959989,19.4427329 28.2140017,19.6907304 27.874,19.8587313 C27.5339983,20.0267321 27.0960027,20.1107313 26.56,20.1107313 C25.967997,20.1107313 25.4920018,19.9527329 25.132,19.6367313 C24.7719982,19.3207297 24.592,18.8667342 24.592,18.2747313 Z M28.672,17.6867313 L28.672,16.8947313 L28.132,16.8827313 C27.531997,16.8827313 27.0540018,16.9227309 26.698,17.0027313 C26.3419982,17.0827317 26.0780009,17.2187303 25.906,17.4107313 C25.7339991,17.6027322 25.648,17.8707296 25.648,18.2147313 C25.648,18.566733 25.751999,18.8367303 25.96,19.0247313 C26.168001,19.2127322 26.4559982,19.3067313 26.824,19.3067313 C27.2080019,19.3067313 27.5399986,19.2247321 27.82,19.0607313 C28.1000014,18.8967305 28.3119993,18.6907325 28.456,18.4427313 C28.6000007,18.19473 28.672,17.9427326 28.672,17.6867313 Z M31.672,15.2027313 C31.672,14.754729 31.6440003,14.2987336 31.588,13.8347313 L32.56,13.8347313 C32.6000002,14.0507324 32.6279999,14.3387295 32.644,14.6987313 L32.668,14.6987313 C32.868001,14.3867297 33.1479982,14.1367322 33.508,13.9487313 C33.8680018,13.7607303 34.2959975,13.6667313 34.792,13.6667313 C35.5600038,13.6667313 36.1299981,13.8887291 36.502,14.3327313 C36.8740019,14.7767335 37.06,15.330728 37.06,15.9947313 L37.06,19.9427313 L36.04,19.9427313 L36.04,16.1987313 C36.04,15.7107288 35.9200012,15.3087329 35.68,14.9927313 C35.4399988,14.6767297 35.0520027,14.5187313 34.516,14.5187313 C33.9639972,14.5187313 33.5220017,14.7007295 33.19,15.0647313 C32.8579983,15.4287331 32.692,15.8867285 32.692,16.4387313 L32.692,19.9427313 L31.672,19.9427313 L31.672,15.2027313 Z M41.632,13.6667313 C42.0160019,13.6667313 42.3819983,13.7247307 42.73,13.8407313 C43.0780017,13.9567319 43.3879986,14.1187302 43.66,14.3267313 L43.252,15.0347313 C42.7879977,14.6907296 42.2480031,14.5187313 41.632,14.5187313 C40.9759967,14.5187313 40.4800017,14.7327291 40.144,15.1607313 C39.8079983,15.5887334 39.64,16.1627277 39.64,16.8827313 C39.64,17.5867348 39.8079983,18.1567291 40.144,18.5927313 C40.4800017,19.0287335 40.9719968,19.2467313 41.62,19.2467313 C42.1720028,19.2467313 42.7199973,19.074733 43.264,18.7307313 L43.636,19.4507313 C43.027997,19.8907335 42.3320039,20.1107313 41.548,20.1107313 C40.8599966,20.1107313 40.2960022,19.9567328 39.856,19.6487313 C39.4159978,19.3407297 39.098001,18.9427337 38.902,18.4547313 C38.705999,17.9667288 38.608,17.4427341 38.608,16.8827313 C38.608,15.9067264 38.8759973,15.1267342 39.412,14.5427313 C39.9480027,13.9587284 40.6879953,13.6667313 41.632,13.6667313 Z M50.212,17.2547313 L45.676,17.2547313 C45.7160002,17.8787344 45.9039983,18.3747294 46.24,18.7427313 C46.5760017,19.1107331 47.0559969,19.2947313 47.68,19.2947313 C48.0480018,19.2947313 48.3779985,19.2447318 48.67,19.1447313 C48.9620015,19.0447308 49.2559985,18.8947323 49.552,18.6947313 L50.008,19.3547313 C49.6639983,19.6027325 49.2980019,19.7907306 48.91,19.9187313 C48.5219981,20.0467319 48.0920024,20.1107313 47.62,20.1107313 C46.6839953,20.1107313 45.9540026,19.8147342 45.43,19.2227313 C44.9059974,18.6307283 44.644,17.8427362 44.644,16.8587313 C44.644,16.2267281 44.7559989,15.6707337 44.98,15.1907313 C45.2040011,14.7107289 45.5299979,14.3367326 45.958,14.0687313 C46.3860021,13.8007299 46.899997,13.6667313 47.5,13.6667313 C48.3880044,13.6667313 49.0659977,13.9547284 49.534,14.5307313 C50.0020023,15.1067342 50.236,15.8707265 50.236,16.8227313 C50.236,17.0147322 50.2280001,17.1587308 50.212,17.2547313 Z M49.24,16.4627313 C49.2239999,15.8547282 49.0680015,15.3667331 48.772,14.9987313 C48.4759985,14.6307294 48.0480028,14.4467313 47.488,14.4467313 C46.9199972,14.4467313 46.4800016,14.6367294 46.168,15.0167313 C45.8559984,15.3967332 45.6880001,15.8787284 45.664,16.4627313 L49.24,16.4627313 Z M52.888,11.4467313 L52.888,19.9427313 L51.868,19.9427313 L51.868,11.4467313 L52.888,11.4467313 Z" id="Cancel-Copy" fill="#0070D2"></path>
                </g>
                <g id="Button-New-Copy-9" transform="translate(20.000000, 432.000000)">
                    <rect id="Rectangle-827" stroke="#D8DDE6" fill="#FFFFFF" x="0.5" y="0.5" width="58" height="31" rx="4"></rect>
                    <path d="M22.624,13.5227313 C22.624,14.0267338 22.4800014,14.4467296 22.192,14.7827313 C21.9039986,15.118733 21.5360022,15.3387308 21.088,15.4427313 L21.088,15.4667313 C21.6720029,15.5387316 22.1359983,15.7567295 22.48,16.1207313 C22.8240017,16.4847331 22.996,16.9747282 22.996,17.5907313 C22.996,18.3987353 22.7300027,18.9927294 22.198,19.3727313 C21.6659973,19.7527332 20.9760042,19.9427313 20.128,19.9427313 L17.08,19.9427313 L17.08,11.4467313 L20.068,11.4467313 C20.8360038,11.4467313 21.4539977,11.6107296 21.922,11.9387313 C22.3900023,12.2667329 22.624,12.7947276 22.624,13.5227313 Z M18.112,12.2627313 L18.112,15.1307313 L19.816,15.1307313 C20.3440026,15.1307313 20.7659984,15.0047325 21.082,14.7527313 C21.3980016,14.50073 21.556,14.1307337 21.556,13.6427313 C21.556,12.7227267 20.9800058,12.2627313 19.828,12.2627313 L18.112,12.2627313 Z M18.112,15.8987313 L18.112,19.1147313 L19.912,19.1147313 C20.512003,19.1147313 20.9939982,18.9847326 21.358,18.7247313 C21.7220018,18.46473 21.904,18.0507341 21.904,17.4827313 C21.904,16.9627287 21.7360017,16.5687326 21.4,16.3007313 C21.0639983,16.0327299 20.5880031,15.8987313 19.972,15.8987313 L18.112,15.8987313 Z M24.028,18.2747313 C24.028,17.4827273 24.3139971,16.9327328 24.886,16.6247313 C25.4580029,16.3167297 26.3199942,16.1627313 27.472,16.1627313 C27.7520014,16.1627313 27.9639993,16.1667312 28.108,16.1747313 L28.108,15.8267313 C28.108,15.370729 27.9840012,15.0307324 27.736,14.8067313 C27.4879988,14.5827302 27.1080026,14.4707313 26.596,14.4707313 C25.9479968,14.4707313 25.3360029,14.6427296 24.76,14.9867313 L24.4,14.3027313 C25.0880034,13.8787292 25.8399959,13.6667313 26.656,13.6667313 C27.5120043,13.6667313 28.137998,13.8667293 28.534,14.2667313 C28.930002,14.6667333 29.128,15.2747272 29.128,16.0907313 L29.128,18.5867313 C29.128,19.0267335 29.1559997,19.478729 29.212,19.9427313 L28.276,19.9427313 C28.2199997,19.5907295 28.192,19.3147323 28.192,19.1147313 L28.156,19.1147313 C27.9319989,19.4427329 27.6500017,19.6907304 27.31,19.8587313 C26.9699983,20.0267321 26.5320027,20.1107313 25.996,20.1107313 C25.403997,20.1107313 24.9280018,19.9527329 24.568,19.6367313 C24.2079982,19.3207297 24.028,18.8667342 24.028,18.2747313 Z M28.108,17.6867313 L28.108,16.8947313 L27.568,16.8827313 C26.967997,16.8827313 26.4900018,16.9227309 26.134,17.0027313 C25.7779982,17.0827317 25.5140009,17.2187303 25.342,17.4107313 C25.1699991,17.6027322 25.084,17.8707296 25.084,18.2147313 C25.084,18.566733 25.187999,18.8367303 25.396,19.0247313 C25.604001,19.2127322 25.8919982,19.3067313 26.26,19.3067313 C26.6440019,19.3067313 26.9759986,19.2247321 27.256,19.0607313 C27.5360014,18.8967305 27.7479993,18.6907325 27.892,18.4427313 C28.0360007,18.19473 28.108,17.9427326 28.108,17.6867313 Z M33.7,13.6667313 C34.0840019,13.6667313 34.4499983,13.7247307 34.798,13.8407313 C35.1460017,13.9567319 35.4559986,14.1187302 35.728,14.3267313 L35.32,15.0347313 C34.8559977,14.6907296 34.3160031,14.5187313 33.7,14.5187313 C33.0439967,14.5187313 32.5480017,14.7327291 32.212,15.1607313 C31.8759983,15.5887334 31.708,16.1627277 31.708,16.8827313 C31.708,17.5867348 31.8759983,18.1567291 32.212,18.5927313 C32.5480017,19.0287335 33.0399968,19.2467313 33.688,19.2467313 C34.2400028,19.2467313 34.7879973,19.074733 35.332,18.7307313 L35.704,19.4507313 C35.095997,19.8907335 34.4000039,20.1107313 33.616,20.1107313 C32.9279966,20.1107313 32.3640022,19.9567328 31.924,19.6487313 C31.4839978,19.3407297 31.166001,18.9427337 30.97,18.4547313 C30.773999,17.9667288 30.676,17.4427341 30.676,16.8827313 C30.676,15.9067264 30.9439973,15.1267342 31.48,14.5427313 C32.0160027,13.9587284 32.7559953,13.6667313 33.7,13.6667313 Z M38.764,17.0147313 L38.176,17.5667313 L38.176,19.9427313 L37.156,19.9427313 L37.156,11.4467313 L38.176,11.4467313 L38.176,16.4147313 L40.948,13.8347313 L42.172,13.8347313 L39.472,16.3547313 L42.436,19.9427313 L41.164,19.9427313 L38.764,17.0147313 Z" id="Back-Copy" fill="#0070D2"></path>
                </g>
                <path d="M5,1.00498753 L885,1.00498753 C887.209139,1.00498753 889,2.79584853 889,5.00498753 L889,46.2249888 L1,46.2249888 L1,5.00498753 C1,2.79584853 2.790861,1.00498753 5,1.00498753 Z" id="Rectangle-6" fill="#F4F6F9"></path>
            </g>
            <g id="Group" transform="translate(60.000000, 663.000000)">
                <rect id="Rectangle-1" fill="#A8B7C7" x="0" y="0" width="48" height="24" rx="12"></rect>
                <circle id="Oval-1" fill="#FFFFFF" cx="12" cy="12" r="10"></circle>
                <text id="Persistent" font-family="SalesforceSans-Regular, Salesforce Sans" font-size="14" font-weight="normal" fill="#54698D">
                    <tspan x="56.95" y="16">Persistent</tspan>
                </text>
                <text id="Activate" font-family="SalesforceSans-Regular, Salesforce Sans" font-size="14" font-weight="normal" fill="#54698D">
                    <tspan x="56.724" y="63">Activate</tspan>
                </text>
            </g>
            <path d="M154.68,476.332 L154.056,477.016 C153.759999,476.751999 153.422002,476.550001 153.042,476.41 C152.661998,476.269999 152.260002,476.2 151.836,476.2 C150.795995,476.2 150.012003,476.523997 149.484,477.172 C148.955997,477.820003 148.692,478.675995 148.692,479.74 C148.692,480.796005 148.955997,481.647997 149.484,482.296 C150.012003,482.944003 150.787995,483.268 151.812,483.268 C152.268002,483.268 152.699998,483.182001 153.108,483.01 C153.516002,482.837999 153.871998,482.604001 154.176,482.308 L154.824,483.016 C154.455998,483.384002 154.010003,483.673999 153.486,483.886 C152.961997,484.098001 152.392003,484.204 151.776,484.204 C150.887996,484.204 150.130003,484.016002 149.502,483.64 C148.873997,483.263998 148.398002,482.740003 148.074,482.068 C147.749998,481.395997 147.588,480.620004 147.588,479.74 C147.588,478.859996 147.749998,478.084003 148.074,477.412 C148.398002,476.739997 148.875997,476.218002 149.508,475.846 C150.140003,475.473998 150.903996,475.288 151.8,475.288 C152.368003,475.288 152.899998,475.377999 153.396,475.558 C153.892002,475.738001 154.319998,475.995998 154.68,476.332 Z M155.592,482.332 C155.592,481.539996 155.877997,480.990002 156.45,480.682 C157.022003,480.373998 157.883994,480.22 159.036,480.22 C159.316001,480.22 159.527999,480.224 159.672,480.232 L159.672,479.884 C159.672,479.427998 159.548001,479.088001 159.3,478.864 C159.051999,478.639999 158.672003,478.528 158.16,478.528 C157.511997,478.528 156.900003,478.699998 156.324,479.044 L155.964,478.36 C156.652003,477.935998 157.403996,477.724 158.22,477.724 C159.076004,477.724 159.701998,477.923998 160.098,478.324 C160.494002,478.724002 160.692,479.331996 160.692,480.148 L160.692,482.644 C160.692,483.084002 160.72,483.535998 160.776,484 L159.84,484 C159.784,483.647998 159.756,483.372001 159.756,483.172 L159.72,483.172 C159.495999,483.500002 159.214002,483.747999 158.874,483.916 C158.533998,484.084001 158.096003,484.168 157.56,484.168 C156.967997,484.168 156.492002,484.010002 156.132,483.694 C155.771998,483.377998 155.592,482.924003 155.592,482.332 Z M159.672,481.744 L159.672,480.952 L159.132,480.94 C158.531997,480.94 158.054002,480.98 157.698,481.06 C157.341998,481.14 157.078001,481.275999 156.906,481.468 C156.733999,481.660001 156.648,481.927998 156.648,482.272 C156.648,482.624002 156.751999,482.893999 156.96,483.082 C157.168001,483.270001 157.455998,483.364 157.824,483.364 C158.208002,483.364 158.539999,483.282001 158.82,483.118 C159.100001,482.953999 159.311999,482.748001 159.456,482.5 C159.600001,482.251999 159.672,482.000001 159.672,481.744 Z M163.92,477.892 L165.54,477.892 L165.54,478.672 L163.92,478.672 L163.92,482.356 C163.92,483.012003 164.219997,483.34 164.82,483.34 C165.036001,483.34 165.235999,483.312 165.42,483.256 L165.576,484.012 C165.303999,484.116001 164.988002,484.168 164.628,484.168 C164.091997,484.168 163.670002,484.018002 163.362,483.718 C163.053998,483.417999 162.9,482.992003 162.9,482.44 L162.9,478.672 L161.82,478.672 L161.82,478.012 L162.888,477.892 L162.888,476.392 L163.92,476.032 L163.92,477.892 Z M172.092,481.312 L167.556,481.312 C167.596,481.936003 167.783998,482.431998 168.12,482.8 C168.456002,483.168002 168.935997,483.352 169.56,483.352 C169.928002,483.352 170.257999,483.302001 170.55,483.202 C170.842001,483.101999 171.135999,482.952001 171.432,482.752 L171.888,483.412 C171.543998,483.660001 171.178002,483.847999 170.79,483.976 C170.401998,484.104001 169.972002,484.168 169.5,484.168 C168.563995,484.168 167.834003,483.872003 167.31,483.28 C166.785997,482.687997 166.524,481.900005 166.524,480.916 C166.524,480.283997 166.635999,479.728002 166.86,479.248 C167.084001,478.767998 167.409998,478.394001 167.838,478.126 C168.266002,477.857999 168.779997,477.724 169.38,477.724 C170.268004,477.724 170.945998,478.011997 171.414,478.588 C171.882002,479.164003 172.116,479.927995 172.116,480.88 C172.116,481.072001 172.108,481.216 172.092,481.312 Z M171.12,480.52 C171.104,479.911997 170.948001,479.424002 170.652,479.056 C170.355999,478.687998 169.928003,478.504 169.368,478.504 C168.799997,478.504 168.360002,478.693998 168.048,479.074 C167.735998,479.454002 167.568,479.935997 167.544,480.52 L171.12,480.52 Z M172.944,485.248 C172.944,484.903998 173.041999,484.594001 173.238,484.318 C173.434001,484.041999 173.755998,483.792001 174.204,483.568 C173.811998,483.391999 173.616,483.124002 173.616,482.764 C173.616,482.547999 173.693999,482.356001 173.85,482.188 C174.006001,482.019999 174.223999,481.896 174.504,481.816 C174.127998,481.663999 173.834001,481.432002 173.622,481.12 C173.409999,480.807998 173.304,480.412002 173.304,479.932 C173.304,479.251997 173.527998,478.716002 173.976,478.324 C174.424002,477.931998 175.047996,477.736 175.848,477.736 C176.064001,477.736 176.245999,477.748 176.394,477.772 C176.542001,477.796 176.719999,477.836 176.928,477.892 L179.052,477.892 L179.052,478.708 L177.696,478.564 C177.888001,478.700001 178.043999,478.891999 178.164,479.14 C178.284001,479.388001 178.344,479.683998 178.344,480.028 C178.344,480.676003 178.124002,481.181998 177.684,481.546 C177.243998,481.910002 176.628004,482.092 175.836,482.092 C175.435998,482.092 175.122001,482.143999 174.894,482.248 C174.665999,482.352001 174.552,482.495999 174.552,482.68 C174.552,483.008002 174.939996,483.176 175.716,483.184 C176.844006,483.2 177.661997,483.349999 178.17,483.634 C178.678003,483.918001 178.932,484.347997 178.932,484.924 C178.932,485.612003 178.646003,486.143998 178.074,486.52 C177.501997,486.896002 176.700005,487.084 175.668,487.084 C174.771996,487.084 174.094002,486.924002 173.634,486.604 C173.173998,486.283998 172.944,485.832003 172.944,485.248 Z M177.396,479.944 C177.396,479.503998 177.264001,479.152001 177,478.888 C176.735999,478.623999 176.344003,478.492 175.824,478.492 C175.343998,478.492 174.962001,478.619999 174.678,478.876 C174.393999,479.132001 174.252,479.475998 174.252,479.908 C174.252,480.364002 174.381999,480.719999 174.642,480.976 C174.902001,481.232001 175.295997,481.36 175.824,481.36 C176.872005,481.36 177.396,480.888005 177.396,479.944 Z M177.924,485.008 C177.924,484.767999 177.834001,484.572001 177.654,484.42 C177.473999,484.267999 177.168002,484.152 176.736,484.072 C176.303998,483.992 175.712004,483.952 174.96,483.952 C174.599998,484.112001 174.340001,484.293999 174.18,484.498 C174.019999,484.702001 173.94,484.935999 173.94,485.2 C173.94,485.944004 174.527994,486.316 175.704,486.316 C176.432004,486.316 176.983998,486.204001 177.36,485.98 C177.736002,485.755999 177.924,485.432002 177.924,485.008 Z M186.06,480.928 C186.06,481.560003 185.938001,482.121998 185.694,482.614 C185.449999,483.106002 185.098002,483.487999 184.638,483.76 C184.177998,484.032001 183.628003,484.168 182.988,484.168 C182.355997,484.168 181.808002,484.030001 181.344,483.754 C180.879998,483.477999 180.528001,483.096002 180.288,482.608 C180.047999,482.119998 179.928,481.560003 179.928,480.928 C179.928,479.951995 180.195997,479.174003 180.732,478.594 C181.268003,478.013997 182.019995,477.724 182.988,477.724 C183.636003,477.724 184.189998,477.857999 184.65,478.126 C185.110002,478.394001 185.459999,478.767998 185.7,479.248 C185.940001,479.728002 186.06,480.287997 186.06,480.928 Z M180.984,480.928 C180.984,481.656004 181.149998,482.241998 181.482,482.686 C181.814002,483.130002 182.315997,483.352 182.988,483.352 C183.668003,483.352 184.175998,483.130002 184.512,482.686 C184.848002,482.241998 185.016,481.656004 185.016,480.928 C185.016,480.199996 184.848002,479.620002 184.512,479.188 C184.175998,478.755998 183.668003,478.54 182.988,478.54 C182.307997,478.54 181.804002,478.755998 181.476,479.188 C181.147998,479.620002 180.984,480.199996 180.984,480.928 Z M187.692,479.26 C187.692,478.811998 187.664,478.356002 187.608,477.892 L188.58,477.892 C188.62,478.164001 188.648,478.487998 188.664,478.864 L188.688,478.864 C189.040002,478.103996 189.679995,477.724 190.608,477.724 C190.672,477.724 190.787999,477.736 190.956,477.76 L190.896,478.636 C190.816,478.62 190.692001,478.612 190.524,478.612 C189.939997,478.612 189.492002,478.807998 189.18,479.2 C188.867998,479.592002 188.712,480.099997 188.712,480.724 L188.712,484 L187.692,484 L187.692,479.26 Z M193.968,485.488 C193.767999,486.040003 193.520001,486.443999 193.224,486.7 C192.927999,486.956001 192.536002,487.084 192.048,487.084 C191.735998,487.084 191.452001,487.036 191.196,486.94 L191.4,486.184 C191.576001,486.232 191.747999,486.256 191.916,486.256 C192.212001,486.256 192.441999,486.172001 192.606,486.004 C192.770001,485.835999 192.911999,485.584002 193.032,485.248 L193.452,484.036 L191.076,477.892 L192.18,477.892 L193.956,482.92 L193.98,482.92 L195.612,477.892 L196.656,477.892 L193.968,485.488 Z M200.892,475.504 L202.116,475.504 L207.06,482.56 L207.084,482.56 L207.06,475.504 L208.056,475.504 L208.056,484 L206.832,484 L201.888,476.944 L201.864,476.944 L201.888,484 L200.892,484 L200.892,475.504 Z M209.628,482.332 C209.628,481.539996 209.913997,480.990002 210.486,480.682 C211.058003,480.373998 211.919994,480.22 213.072,480.22 C213.352001,480.22 213.563999,480.224 213.708,480.232 L213.708,479.884 C213.708,479.427998 213.584001,479.088001 213.336,478.864 C213.087999,478.639999 212.708003,478.528 212.196,478.528 C211.547997,478.528 210.936003,478.699998 210.36,479.044 L210,478.36 C210.688003,477.935998 211.439996,477.724 212.256,477.724 C213.112004,477.724 213.737998,477.923998 214.134,478.324 C214.530002,478.724002 214.728,479.331996 214.728,480.148 L214.728,482.644 C214.728,483.084002 214.756,483.535998 214.812,484 L213.876,484 C213.82,483.647998 213.792,483.372001 213.792,483.172 L213.756,483.172 C213.531999,483.500002 213.250002,483.747999 212.91,483.916 C212.569998,484.084001 212.132003,484.168 211.596,484.168 C211.003997,484.168 210.528002,484.010002 210.168,483.694 C209.807998,483.377998 209.628,482.924003 209.628,482.332 Z M213.708,481.744 L213.708,480.952 L213.168,480.94 C212.567997,480.94 212.090002,480.98 211.734,481.06 C211.377998,481.14 211.114001,481.275999 210.942,481.468 C210.769999,481.660001 210.684,481.927998 210.684,482.272 C210.684,482.624002 210.787999,482.893999 210.996,483.082 C211.204001,483.270001 211.491998,483.364 211.86,483.364 C212.244002,483.364 212.575999,483.282001 212.856,483.118 C213.136001,482.953999 213.347999,482.748001 213.492,482.5 C213.636001,482.251999 213.708,482.000001 213.708,481.744 Z M216.708,479.26 C216.708,478.811998 216.68,478.356002 216.624,477.892 L217.596,477.892 C217.636,478.108001 217.664,478.395998 217.68,478.756 L217.704,478.756 C217.896001,478.451998 218.165998,478.204001 218.514,478.012 C218.862002,477.819999 219.263998,477.724 219.72,477.724 C220.240003,477.724 220.663998,477.833999 220.992,478.054 C221.320002,478.274001 221.559999,478.575998 221.712,478.96 L221.736,478.96 C221.944001,478.575998 222.227998,478.274001 222.588,478.054 C222.948002,477.833999 223.379997,477.724 223.884,477.724 C224.388003,477.724 224.807998,477.833999 225.144,478.054 C225.480002,478.274001 225.727999,478.561998 225.888,478.918 C226.048001,479.274002 226.128,479.663998 226.128,480.088 L226.128,484 L225.108,484 L225.108,480.232 C225.108,479.759998 224.994001,479.364002 224.766,479.044 C224.537999,478.723998 224.172003,478.564 223.668,478.564 C223.299998,478.564 222.984001,478.659999 222.72,478.852 C222.455999,479.044001 222.256001,479.299998 222.12,479.62 C221.983999,479.940002 221.916,480.283998 221.916,480.652 L221.916,484 L220.896,484 L220.896,480.208 C220.896,479.743998 220.780001,479.354002 220.548,479.038 C220.315999,478.721998 219.952002,478.564 219.456,478.564 C218.927997,478.564 218.508002,478.749998 218.196,479.122 C217.883998,479.494002 217.728,479.951997 217.728,480.496 L217.728,484 L216.708,484 L216.708,479.26 Z M233.244,481.312 L228.708,481.312 C228.748,481.936003 228.935998,482.431998 229.272,482.8 C229.608002,483.168002 230.087997,483.352 230.712,483.352 C231.080002,483.352 231.409999,483.302001 231.702,483.202 C231.994001,483.101999 232.287999,482.952001 232.584,482.752 L233.04,483.412 C232.695998,483.660001 232.330002,483.847999 231.942,483.976 C231.553998,484.104001 231.124002,484.168 230.652,484.168 C229.715995,484.168 228.986003,483.872003 228.462,483.28 C227.937997,482.687997 227.676,481.900005 227.676,480.916 C227.676,480.283997 227.787999,479.728002 228.012,479.248 C228.236001,478.767998 228.561998,478.394001 228.99,478.126 C229.418002,477.857999 229.931997,477.724 230.532,477.724 C231.420004,477.724 232.097998,478.011997 232.566,478.588 C233.034002,479.164003 233.268,479.927995 233.268,480.88 C233.268,481.072001 233.26,481.216 233.244,481.312 Z M232.272,480.52 C232.256,479.911997 232.100001,479.424002 231.804,479.056 C231.507999,478.687998 231.080003,478.504 230.52,478.504 C229.951997,478.504 229.512002,478.693998 229.2,479.074 C228.887998,479.454002 228.72,479.935997 228.696,480.52 L232.272,480.52 Z" id="Category-Name-Copy" fill="#54698D"></path>
            <path d="M442.36,418.208 L442.9,417.536 C443.244002,417.808001 443.599998,418.003999 443.968,418.124 C444.336002,418.244001 444.751998,418.304 445.216,418.304 C445.792003,418.304 446.257998,418.170001 446.614,417.902 C446.970002,417.633999 447.148,417.244003 447.148,416.732 C447.148,416.371998 447.064001,416.080001 446.896,415.856 C446.727999,415.631999 446.496001,415.452001 446.2,415.316 C445.903999,415.179999 445.512002,415.048001 445.024,414.92 C444.231996,414.711999 443.640002,414.430002 443.248,414.074 C442.855998,413.717998 442.66,413.220003 442.66,412.58 C442.66,411.867996 442.925997,411.312002 443.458,410.912 C443.990003,410.511998 444.667996,410.312 445.492,410.312 C446.012003,410.312 446.481998,410.379999 446.902,410.516 C447.322002,410.652001 447.711998,410.851999 448.072,411.116 L447.592,411.812 C447.255998,411.595999 446.922002,411.436001 446.59,411.332 C446.257998,411.227999 445.892002,411.176 445.492,411.176 C444.955997,411.176 444.524002,411.289999 444.196,411.518 C443.867998,411.746001 443.704,412.075998 443.704,412.508 C443.704,412.940002 443.853998,413.265999 444.154,413.486 C444.454002,413.706001 444.943997,413.903999 445.624,414.08 C446.480004,414.304001 447.127998,414.607998 447.568,414.992 C448.008002,415.376002 448.228,415.943996 448.228,416.696 C448.228,417.240003 448.094001,417.699998 447.826,418.076 C447.557999,418.452002 447.196002,418.733999 446.74,418.922 C446.283998,419.110001 445.772003,419.204 445.204,419.204 C444.099994,419.204 443.152004,418.872003 442.36,418.208 Z M454.876,416.312 L450.34,416.312 C450.38,416.936003 450.567998,417.431998 450.904,417.8 C451.240002,418.168002 451.719997,418.352 452.344,418.352 C452.712002,418.352 453.041999,418.302001 453.334,418.202 C453.626001,418.101999 453.919999,417.952001 454.216,417.752 L454.672,418.412 C454.327998,418.660001 453.962002,418.847999 453.574,418.976 C453.185998,419.104001 452.756002,419.168 452.284,419.168 C451.347995,419.168 450.618003,418.872003 450.094,418.28 C449.569997,417.687997 449.308,416.900005 449.308,415.916 C449.308,415.283997 449.419999,414.728002 449.644,414.248 C449.868001,413.767998 450.193998,413.394001 450.622,413.126 C451.050002,412.857999 451.563997,412.724 452.164,412.724 C453.052004,412.724 453.729998,413.011997 454.198,413.588 C454.666002,414.164003 454.9,414.927995 454.9,415.88 C454.9,416.072001 454.892,416.216 454.876,416.312 Z M453.904,415.52 C453.888,414.911997 453.732001,414.424002 453.436,414.056 C453.139999,413.687998 452.712003,413.504 452.152,413.504 C451.583997,413.504 451.144002,413.693998 450.832,414.074 C450.519998,414.454002 450.352,414.935997 450.328,415.52 L453.904,415.52 Z M455.728,420.248 C455.728,419.903998 455.825999,419.594001 456.022,419.318 C456.218001,419.041999 456.539998,418.792001 456.988,418.568 C456.595998,418.391999 456.4,418.124002 456.4,417.764 C456.4,417.547999 456.477999,417.356001 456.634,417.188 C456.790001,417.019999 457.007999,416.896 457.288,416.816 C456.911998,416.663999 456.618001,416.432002 456.406,416.12 C456.193999,415.807998 456.088,415.412002 456.088,414.932 C456.088,414.251997 456.311998,413.716002 456.76,413.324 C457.208002,412.931998 457.831996,412.736 458.632,412.736 C458.848001,412.736 459.029999,412.748 459.178,412.772 C459.326001,412.796 459.503999,412.836 459.712,412.892 L461.836,412.892 L461.836,413.708 L460.48,413.564 C460.672001,413.700001 460.827999,413.891999 460.948,414.14 C461.068001,414.388001 461.128,414.683998 461.128,415.028 C461.128,415.676003 460.908002,416.181998 460.468,416.546 C460.027998,416.910002 459.412004,417.092 458.62,417.092 C458.219998,417.092 457.906001,417.143999 457.678,417.248 C457.449999,417.352001 457.336,417.495999 457.336,417.68 C457.336,418.008002 457.723996,418.176 458.5,418.184 C459.628006,418.2 460.445997,418.349999 460.954,418.634 C461.462003,418.918001 461.716,419.347997 461.716,419.924 C461.716,420.612003 461.430003,421.143998 460.858,421.52 C460.285997,421.896002 459.484005,422.084 458.452,422.084 C457.555996,422.084 456.878002,421.924002 456.418,421.604 C455.957998,421.283998 455.728,420.832003 455.728,420.248 Z M460.18,414.944 C460.18,414.503998 460.048001,414.152001 459.784,413.888 C459.519999,413.623999 459.128003,413.492 458.608,413.492 C458.127998,413.492 457.746001,413.619999 457.462,413.876 C457.177999,414.132001 457.036,414.475998 457.036,414.908 C457.036,415.364002 457.165999,415.719999 457.426,415.976 C457.686001,416.232001 458.079997,416.36 458.608,416.36 C459.656005,416.36 460.18,415.888005 460.18,414.944 Z M460.708,420.008 C460.708,419.767999 460.618001,419.572001 460.438,419.42 C460.257999,419.267999 459.952002,419.152 459.52,419.072 C459.087998,418.992 458.496004,418.952 457.744,418.952 C457.383998,419.112001 457.124001,419.293999 456.964,419.498 C456.803999,419.702001 456.724,419.935999 456.724,420.2 C456.724,420.944004 457.311994,421.316 458.488,421.316 C459.216004,421.316 459.767998,421.204001 460.144,420.98 C460.520002,420.755999 460.708,420.432002 460.708,420.008 Z M463.144,414.26 C463.144,413.811998 463.116,413.356002 463.06,412.892 L464.032,412.892 C464.072,413.108001 464.1,413.395998 464.116,413.756 L464.14,413.756 C464.332001,413.451998 464.601998,413.204001 464.95,413.012 C465.298002,412.819999 465.699998,412.724 466.156,412.724 C466.676003,412.724 467.099998,412.833999 467.428,413.054 C467.756002,413.274001 467.995999,413.575998 468.148,413.96 L468.172,413.96 C468.380001,413.575998 468.663998,413.274001 469.024,413.054 C469.384002,412.833999 469.815997,412.724 470.32,412.724 C470.824003,412.724 471.243998,412.833999 471.58,413.054 C471.916002,413.274001 472.163999,413.561998 472.324,413.918 C472.484001,414.274002 472.564,414.663998 472.564,415.088 L472.564,419 L471.544,419 L471.544,415.232 C471.544,414.759998 471.430001,414.364002 471.202,414.044 C470.973999,413.723998 470.608003,413.564 470.104,413.564 C469.735998,413.564 469.420001,413.659999 469.156,413.852 C468.891999,414.044001 468.692001,414.299998 468.556,414.62 C468.419999,414.940002 468.352,415.283998 468.352,415.652 L468.352,419 L467.332,419 L467.332,415.208 C467.332,414.743998 467.216001,414.354002 466.984,414.038 C466.751999,413.721998 466.388002,413.564 465.892,413.564 C465.363997,413.564 464.944002,413.749998 464.632,414.122 C464.319998,414.494002 464.164,414.951997 464.164,415.496 L464.164,419 L463.144,419 L463.144,414.26 Z M479.68,416.312 L475.144,416.312 C475.184,416.936003 475.371998,417.431998 475.708,417.8 C476.044002,418.168002 476.523997,418.352 477.148,418.352 C477.516002,418.352 477.845999,418.302001 478.138,418.202 C478.430001,418.101999 478.723999,417.952001 479.02,417.752 L479.476,418.412 C479.131998,418.660001 478.766002,418.847999 478.378,418.976 C477.989998,419.104001 477.560002,419.168 477.088,419.168 C476.151995,419.168 475.422003,418.872003 474.898,418.28 C474.373997,417.687997 474.112,416.900005 474.112,415.916 C474.112,415.283997 474.223999,414.728002 474.448,414.248 C474.672001,413.767998 474.997998,413.394001 475.426,413.126 C475.854002,412.857999 476.367997,412.724 476.968,412.724 C477.856004,412.724 478.533998,413.011997 479.002,413.588 C479.470002,414.164003 479.704,414.927995 479.704,415.88 C479.704,416.072001 479.696,416.216 479.68,416.312 Z M478.708,415.52 C478.692,414.911997 478.536001,414.424002 478.24,414.056 C477.943999,413.687998 477.516003,413.504 476.956,413.504 C476.387997,413.504 475.948002,413.693998 475.636,414.074 C475.323998,414.454002 475.156,414.935997 475.132,415.52 L478.708,415.52 Z M481.324,414.26 C481.324,413.811998 481.296,413.356002 481.24,412.892 L482.212,412.892 C482.252,413.108001 482.28,413.395998 482.296,413.756 L482.32,413.756 C482.520001,413.443998 482.799998,413.194001 483.16,413.006 C483.520002,412.817999 483.947998,412.724 484.444,412.724 C485.212004,412.724 485.781998,412.945998 486.154,413.39 C486.526002,413.834002 486.712,414.387997 486.712,415.052 L486.712,419 L485.692,419 L485.692,415.256 C485.692,414.767998 485.572001,414.366002 485.332,414.05 C485.091999,413.733998 484.704003,413.576 484.168,413.576 C483.615997,413.576 483.174002,413.757998 482.842,414.122 C482.509998,414.486002 482.344,414.943997 482.344,415.496 L482.344,419 L481.324,419 L481.324,414.26 Z M489.94,412.892 L491.56,412.892 L491.56,413.672 L489.94,413.672 L489.94,417.356 C489.94,418.012003 490.239997,418.34 490.84,418.34 C491.056001,418.34 491.255999,418.312 491.44,418.256 L491.596,419.012 C491.323999,419.116001 491.008002,419.168 490.648,419.168 C490.111997,419.168 489.690002,419.018002 489.382,418.718 C489.073998,418.417999 488.92,417.992003 488.92,417.44 L488.92,413.672 L487.84,413.672 L487.84,413.012 L488.908,412.892 L488.908,411.392 L489.94,411.032 L489.94,412.892 Z M501.52,411.404 L498.844,411.404 L498.844,419 L497.776,419 L497.776,411.404 L495.088,411.404 L495.088,410.504 L501.52,410.504 L501.52,411.404 Z M504.52,420.488 C504.319999,421.040003 504.072001,421.443999 503.776,421.7 C503.479999,421.956001 503.088002,422.084 502.6,422.084 C502.287998,422.084 502.004001,422.036 501.748,421.94 L501.952,421.184 C502.128001,421.232 502.299999,421.256 502.468,421.256 C502.764001,421.256 502.993999,421.172001 503.158,421.004 C503.322001,420.835999 503.463999,420.584002 503.584,420.248 L504.004,419.036 L501.628,412.892 L502.732,412.892 L504.508,417.92 L504.532,417.92 L506.164,412.892 L507.208,412.892 L504.52,420.488 Z M514.144,415.94 C514.144,416.548003 514.032001,417.095998 513.808,417.584 C513.583999,418.072002 513.258002,418.457999 512.83,418.742 C512.401998,419.026001 511.900003,419.168 511.324,419.168 C510.547996,419.168 509.880003,418.916003 509.32,418.412 L509.32,421.928 L508.3,421.928 L508.3,414.26 C508.3,413.811998 508.272,413.356002 508.216,412.892 L509.188,412.892 C509.228,413.156001 509.256,413.467998 509.272,413.828 L509.296,413.828 C509.496001,413.491998 509.775998,413.224001 510.136,413.024 C510.496002,412.823999 510.935997,412.724 511.456,412.724 C512.040003,412.724 512.531998,412.865999 512.932,413.15 C513.332002,413.434001 513.633999,413.817998 513.838,414.302 C514.042001,414.786002 514.144,415.331997 514.144,415.94 Z M513.088,415.94 C513.088,415.203996 512.926002,414.620002 512.602,414.188 C512.277998,413.755998 511.828003,413.54 511.252,413.54 C510.875998,413.54 510.540001,413.627999 510.244,413.804 C509.947999,413.980001 509.720001,414.219998 509.56,414.524 C509.399999,414.828002 509.32,415.159998 509.32,415.52 L509.32,417.548 C509.600001,417.828001 509.877999,418.031999 510.154,418.16 C510.430001,418.288001 510.747998,418.352 511.108,418.352 C511.748003,418.352 512.237998,418.130002 512.578,417.686 C512.918002,417.241998 513.088,416.660004 513.088,415.94 Z M520.9,416.312 L516.364,416.312 C516.404,416.936003 516.591998,417.431998 516.928,417.8 C517.264002,418.168002 517.743997,418.352 518.368,418.352 C518.736002,418.352 519.065999,418.302001 519.358,418.202 C519.650001,418.101999 519.943999,417.952001 520.24,417.752 L520.696,418.412 C520.351998,418.660001 519.986002,418.847999 519.598,418.976 C519.209998,419.104001 518.780002,419.168 518.308,419.168 C517.371995,419.168 516.642003,418.872003 516.118,418.28 C515.593997,417.687997 515.332,416.900005 515.332,415.916 C515.332,415.283997 515.443999,414.728002 515.668,414.248 C515.892001,413.767998 516.217998,413.394001 516.646,413.126 C517.074002,412.857999 517.587997,412.724 518.188,412.724 C519.076004,412.724 519.753998,413.011997 520.222,413.588 C520.690002,414.164003 520.924,414.927995 520.924,415.88 C520.924,416.072001 520.916,416.216 520.9,416.312 Z M519.928,415.52 C519.912,414.911997 519.756001,414.424002 519.46,414.056 C519.163999,413.687998 518.736003,413.504 518.176,413.504 C517.607997,413.504 517.168002,413.693998 516.856,414.074 C516.543998,414.454002 516.376,414.935997 516.352,415.52 L519.928,415.52 Z" id="Segment-Type-Copy" fill="#54698D"></path>
            <path d="M424.36,483.208 L424.9,482.536 C425.244002,482.808001 425.599998,483.003999 425.968,483.124 C426.336002,483.244001 426.751998,483.304 427.216,483.304 C427.792003,483.304 428.257998,483.170001 428.614,482.902 C428.970002,482.633999 429.148,482.244003 429.148,481.732 C429.148,481.371998 429.064001,481.080001 428.896,480.856 C428.727999,480.631999 428.496001,480.452001 428.2,480.316 C427.903999,480.179999 427.512002,480.048001 427.024,479.92 C426.231996,479.711999 425.640002,479.430002 425.248,479.074 C424.855998,478.717998 424.66,478.220003 424.66,477.58 C424.66,476.867996 424.925997,476.312002 425.458,475.912 C425.990003,475.511998 426.667996,475.312 427.492,475.312 C428.012003,475.312 428.481998,475.379999 428.902,475.516 C429.322002,475.652001 429.711998,475.851999 430.072,476.116 L429.592,476.812 C429.255998,476.595999 428.922002,476.436001 428.59,476.332 C428.257998,476.227999 427.892002,476.176 427.492,476.176 C426.955997,476.176 426.524002,476.289999 426.196,476.518 C425.867998,476.746001 425.704,477.075998 425.704,477.508 C425.704,477.940002 425.853998,478.265999 426.154,478.486 C426.454002,478.706001 426.943997,478.903999 427.624,479.08 C428.480004,479.304001 429.127998,479.607998 429.568,479.992 C430.008002,480.376002 430.228,480.943996 430.228,481.696 C430.228,482.240003 430.094001,482.699998 429.826,483.076 C429.557999,483.452002 429.196002,483.733999 428.74,483.922 C428.283998,484.110001 427.772003,484.204 427.204,484.204 C426.099994,484.204 425.152004,483.872003 424.36,483.208 Z M431.656,481.636 L431.656,477.892 L432.688,477.892 L432.688,481.492 C432.688,482.052003 432.809999,482.501998 433.054,482.842 C433.298001,483.182002 433.675997,483.352 434.188,483.352 C434.748003,483.352 435.195998,483.142002 435.532,482.722 C435.868002,482.301998 436.036,481.780003 436.036,481.156 L436.036,477.892 L437.056,477.892 L437.056,482.644 C437.056,483.084002 437.084,483.535998 437.14,484 L436.168,484 C436.128,483.743999 436.1,483.420002 436.084,483.028 L436.06,483.028 C435.619998,483.788004 434.916005,484.168 433.948,484.168 C433.187996,484.168 432.616002,483.934002 432.232,483.466 C431.847998,482.997998 431.656,482.388004 431.656,481.636 Z M444.964,480.94 C444.964,481.548003 444.852001,482.095998 444.628,482.584 C444.403999,483.072002 444.072002,483.457999 443.632,483.742 C443.191998,484.026001 442.668003,484.168 442.06,484.168 C441.291996,484.168 440.628003,483.900003 440.068,483.364 L439.972,484 L439.132,484 L439.132,475.504 L440.152,475.504 L440.152,478.768 L440.188,478.768 C440.388001,478.439998 440.663998,478.184001 441.016,478 C441.368002,477.815999 441.783998,477.724 442.264,477.724 C442.848003,477.724 443.343998,477.865999 443.752,478.15 C444.160002,478.434001 444.463999,478.817998 444.664,479.302 C444.864001,479.786002 444.964,480.331997 444.964,480.94 Z M443.92,480.94 C443.92,480.203996 443.758002,479.620002 443.434,479.188 C443.109998,478.755998 442.660003,478.54 442.084,478.54 C441.707998,478.54 441.372001,478.627999 441.076,478.804 C440.779999,478.980001 440.552001,479.219998 440.392,479.524 C440.231999,479.828002 440.152,480.159998 440.152,480.52 L440.152,482.548 C440.424001,482.820001 440.701999,483.021999 440.986,483.154 C441.270001,483.286001 441.587998,483.352 441.94,483.352 C442.572003,483.352 443.059998,483.130002 443.404,482.686 C443.748002,482.241998 443.92,481.660004 443.92,480.94 Z M448.78,480.928 L446.08,480.928 L446.08,480.1 L448.78,480.1 L448.78,480.928 Z M460.084,476.332 L459.46,477.016 C459.163999,476.751999 458.826002,476.550001 458.446,476.41 C458.065998,476.269999 457.664002,476.2 457.24,476.2 C456.199995,476.2 455.416003,476.523997 454.888,477.172 C454.359997,477.820003 454.096,478.675995 454.096,479.74 C454.096,480.796005 454.359997,481.647997 454.888,482.296 C455.416003,482.944003 456.191995,483.268 457.216,483.268 C457.672002,483.268 458.103998,483.182001 458.512,483.01 C458.920002,482.837999 459.275998,482.604001 459.58,482.308 L460.228,483.016 C459.859998,483.384002 459.414003,483.673999 458.89,483.886 C458.365997,484.098001 457.796003,484.204 457.18,484.204 C456.291996,484.204 455.534003,484.016002 454.906,483.64 C454.277997,483.263998 453.802002,482.740003 453.478,482.068 C453.153998,481.395997 452.992,480.620004 452.992,479.74 C452.992,478.859996 453.153998,478.084003 453.478,477.412 C453.802002,476.739997 454.279997,476.218002 454.912,475.846 C455.544003,475.473998 456.307996,475.288 457.204,475.288 C457.772003,475.288 458.303998,475.377999 458.8,475.558 C459.296002,475.738001 459.723998,475.995998 460.084,476.332 Z M460.996,482.332 C460.996,481.539996 461.281997,480.990002 461.854,480.682 C462.426003,480.373998 463.287994,480.22 464.44,480.22 C464.720001,480.22 464.931999,480.224 465.076,480.232 L465.076,479.884 C465.076,479.427998 464.952001,479.088001 464.704,478.864 C464.455999,478.639999 464.076003,478.528 463.564,478.528 C462.915997,478.528 462.304003,478.699998 461.728,479.044 L461.368,478.36 C462.056003,477.935998 462.807996,477.724 463.624,477.724 C464.480004,477.724 465.105998,477.923998 465.502,478.324 C465.898002,478.724002 466.096,479.331996 466.096,480.148 L466.096,482.644 C466.096,483.084002 466.124,483.535998 466.18,484 L465.244,484 C465.188,483.647998 465.16,483.372001 465.16,483.172 L465.124,483.172 C464.899999,483.500002 464.618002,483.747999 464.278,483.916 C463.937998,484.084001 463.500003,484.168 462.964,484.168 C462.371997,484.168 461.896002,484.010002 461.536,483.694 C461.175998,483.377998 460.996,482.924003 460.996,482.332 Z M465.076,481.744 L465.076,480.952 L464.536,480.94 C463.935997,480.94 463.458002,480.98 463.102,481.06 C462.745998,481.14 462.482001,481.275999 462.31,481.468 C462.137999,481.660001 462.052,481.927998 462.052,482.272 C462.052,482.624002 462.155999,482.893999 462.364,483.082 C462.572001,483.270001 462.859998,483.364 463.228,483.364 C463.612002,483.364 463.943999,483.282001 464.224,483.118 C464.504001,482.953999 464.715999,482.748001 464.86,482.5 C465.004001,482.251999 465.076,482.000001 465.076,481.744 Z M469.324,477.892 L470.944,477.892 L470.944,478.672 L469.324,478.672 L469.324,482.356 C469.324,483.012003 469.623997,483.34 470.224,483.34 C470.440001,483.34 470.639999,483.312 470.824,483.256 L470.98,484.012 C470.707999,484.116001 470.392002,484.168 470.032,484.168 C469.495997,484.168 469.074002,484.018002 468.766,483.718 C468.457998,483.417999 468.304,482.992003 468.304,482.44 L468.304,478.672 L467.224,478.672 L467.224,478.012 L468.292,477.892 L468.292,476.392 L469.324,476.032 L469.324,477.892 Z M477.496,481.312 L472.96,481.312 C473,481.936003 473.187998,482.431998 473.524,482.8 C473.860002,483.168002 474.339997,483.352 474.964,483.352 C475.332002,483.352 475.661999,483.302001 475.954,483.202 C476.246001,483.101999 476.539999,482.952001 476.836,482.752 L477.292,483.412 C476.947998,483.660001 476.582002,483.847999 476.194,483.976 C475.805998,484.104001 475.376002,484.168 474.904,484.168 C473.967995,484.168 473.238003,483.872003 472.714,483.28 C472.189997,482.687997 471.928,481.900005 471.928,480.916 C471.928,480.283997 472.039999,479.728002 472.264,479.248 C472.488001,478.767998 472.813998,478.394001 473.242,478.126 C473.670002,477.857999 474.183997,477.724 474.784,477.724 C475.672004,477.724 476.349998,478.011997 476.818,478.588 C477.286002,479.164003 477.52,479.927995 477.52,480.88 C477.52,481.072001 477.512,481.216 477.496,481.312 Z M476.524,480.52 C476.508,479.911997 476.352001,479.424002 476.056,479.056 C475.759999,478.687998 475.332003,478.504 474.772,478.504 C474.203997,478.504 473.764002,478.693998 473.452,479.074 C473.139998,479.454002 472.972,479.935997 472.948,480.52 L476.524,480.52 Z M478.348,485.248 C478.348,484.903998 478.445999,484.594001 478.642,484.318 C478.838001,484.041999 479.159998,483.792001 479.608,483.568 C479.215998,483.391999 479.02,483.124002 479.02,482.764 C479.02,482.547999 479.097999,482.356001 479.254,482.188 C479.410001,482.019999 479.627999,481.896 479.908,481.816 C479.531998,481.663999 479.238001,481.432002 479.026,481.12 C478.813999,480.807998 478.708,480.412002 478.708,479.932 C478.708,479.251997 478.931998,478.716002 479.38,478.324 C479.828002,477.931998 480.451996,477.736 481.252,477.736 C481.468001,477.736 481.649999,477.748 481.798,477.772 C481.946001,477.796 482.123999,477.836 482.332,477.892 L484.456,477.892 L484.456,478.708 L483.1,478.564 C483.292001,478.700001 483.447999,478.891999 483.568,479.14 C483.688001,479.388001 483.748,479.683998 483.748,480.028 C483.748,480.676003 483.528002,481.181998 483.088,481.546 C482.647998,481.910002 482.032004,482.092 481.24,482.092 C480.839998,482.092 480.526001,482.143999 480.298,482.248 C480.069999,482.352001 479.956,482.495999 479.956,482.68 C479.956,483.008002 480.343996,483.176 481.12,483.184 C482.248006,483.2 483.065997,483.349999 483.574,483.634 C484.082003,483.918001 484.336,484.347997 484.336,484.924 C484.336,485.612003 484.050003,486.143998 483.478,486.52 C482.905997,486.896002 482.104005,487.084 481.072,487.084 C480.175996,487.084 479.498002,486.924002 479.038,486.604 C478.577998,486.283998 478.348,485.832003 478.348,485.248 Z M482.8,479.944 C482.8,479.503998 482.668001,479.152001 482.404,478.888 C482.139999,478.623999 481.748003,478.492 481.228,478.492 C480.747998,478.492 480.366001,478.619999 480.082,478.876 C479.797999,479.132001 479.656,479.475998 479.656,479.908 C479.656,480.364002 479.785999,480.719999 480.046,480.976 C480.306001,481.232001 480.699997,481.36 481.228,481.36 C482.276005,481.36 482.8,480.888005 482.8,479.944 Z M483.328,485.008 C483.328,484.767999 483.238001,484.572001 483.058,484.42 C482.877999,484.267999 482.572002,484.152 482.14,484.072 C481.707998,483.992 481.116004,483.952 480.364,483.952 C480.003998,484.112001 479.744001,484.293999 479.584,484.498 C479.423999,484.702001 479.344,484.935999 479.344,485.2 C479.344,485.944004 479.931994,486.316 481.108,486.316 C481.836004,486.316 482.387998,486.204001 482.764,485.98 C483.140002,485.755999 483.328,485.432002 483.328,485.008 Z M491.464,480.928 C491.464,481.560003 491.342001,482.121998 491.098,482.614 C490.853999,483.106002 490.502002,483.487999 490.042,483.76 C489.581998,484.032001 489.032003,484.168 488.392,484.168 C487.759997,484.168 487.212002,484.030001 486.748,483.754 C486.283998,483.477999 485.932001,483.096002 485.692,482.608 C485.451999,482.119998 485.332,481.560003 485.332,480.928 C485.332,479.951995 485.599997,479.174003 486.136,478.594 C486.672003,478.013997 487.423995,477.724 488.392,477.724 C489.040003,477.724 489.593998,477.857999 490.054,478.126 C490.514002,478.394001 490.863999,478.767998 491.104,479.248 C491.344001,479.728002 491.464,480.287997 491.464,480.928 Z M486.388,480.928 C486.388,481.656004 486.553998,482.241998 486.886,482.686 C487.218002,483.130002 487.719997,483.352 488.392,483.352 C489.072003,483.352 489.579998,483.130002 489.916,482.686 C490.252002,482.241998 490.42,481.656004 490.42,480.928 C490.42,480.199996 490.252002,479.620002 489.916,479.188 C489.579998,478.755998 489.072003,478.54 488.392,478.54 C487.711997,478.54 487.208002,478.755998 486.88,479.188 C486.551998,479.620002 486.388,480.199996 486.388,480.928 Z M493.096,479.26 C493.096,478.811998 493.068,478.356002 493.012,477.892 L493.984,477.892 C494.024,478.164001 494.052,478.487998 494.068,478.864 L494.092,478.864 C494.444002,478.103996 495.083995,477.724 496.012,477.724 C496.076,477.724 496.191999,477.736 496.36,477.76 L496.3,478.636 C496.22,478.62 496.096001,478.612 495.928,478.612 C495.343997,478.612 494.896002,478.807998 494.584,479.2 C494.271998,479.592002 494.116,480.099997 494.116,480.724 L494.116,484 L493.096,484 L493.096,479.26 Z M499.372,485.488 C499.171999,486.040003 498.924001,486.443999 498.628,486.7 C498.331999,486.956001 497.940002,487.084 497.452,487.084 C497.139998,487.084 496.856001,487.036 496.6,486.94 L496.804,486.184 C496.980001,486.232 497.151999,486.256 497.32,486.256 C497.616001,486.256 497.845999,486.172001 498.01,486.004 C498.174001,485.835999 498.315999,485.584002 498.436,485.248 L498.856,484.036 L496.48,477.892 L497.584,477.892 L499.36,482.92 L499.384,482.92 L501.016,477.892 L502.06,477.892 L499.372,485.488 Z M506.296,475.504 L507.52,475.504 L512.464,482.56 L512.488,482.56 L512.464,475.504 L513.46,475.504 L513.46,484 L512.236,484 L507.292,476.944 L507.268,476.944 L507.292,484 L506.296,484 L506.296,475.504 Z M515.032,482.332 C515.032,481.539996 515.317997,480.990002 515.89,480.682 C516.462003,480.373998 517.323994,480.22 518.476,480.22 C518.756001,480.22 518.967999,480.224 519.112,480.232 L519.112,479.884 C519.112,479.427998 518.988001,479.088001 518.74,478.864 C518.491999,478.639999 518.112003,478.528 517.6,478.528 C516.951997,478.528 516.340003,478.699998 515.764,479.044 L515.404,478.36 C516.092003,477.935998 516.843996,477.724 517.66,477.724 C518.516004,477.724 519.141998,477.923998 519.538,478.324 C519.934002,478.724002 520.132,479.331996 520.132,480.148 L520.132,482.644 C520.132,483.084002 520.16,483.535998 520.216,484 L519.28,484 C519.224,483.647998 519.196,483.372001 519.196,483.172 L519.16,483.172 C518.935999,483.500002 518.654002,483.747999 518.314,483.916 C517.973998,484.084001 517.536003,484.168 517,484.168 C516.407997,484.168 515.932002,484.010002 515.572,483.694 C515.211998,483.377998 515.032,482.924003 515.032,482.332 Z M519.112,481.744 L519.112,480.952 L518.572,480.94 C517.971997,480.94 517.494002,480.98 517.138,481.06 C516.781998,481.14 516.518001,481.275999 516.346,481.468 C516.173999,481.660001 516.088,481.927998 516.088,482.272 C516.088,482.624002 516.191999,482.893999 516.4,483.082 C516.608001,483.270001 516.895998,483.364 517.264,483.364 C517.648002,483.364 517.979999,483.282001 518.26,483.118 C518.540001,482.953999 518.751999,482.748001 518.896,482.5 C519.040001,482.251999 519.112,482.000001 519.112,481.744 Z M522.112,479.26 C522.112,478.811998 522.084,478.356002 522.028,477.892 L523,477.892 C523.04,478.108001 523.068,478.395998 523.084,478.756 L523.108,478.756 C523.300001,478.451998 523.569998,478.204001 523.918,478.012 C524.266002,477.819999 524.667998,477.724 525.124,477.724 C525.644003,477.724 526.067998,477.833999 526.396,478.054 C526.724002,478.274001 526.963999,478.575998 527.116,478.96 L527.14,478.96 C527.348001,478.575998 527.631998,478.274001 527.992,478.054 C528.352002,477.833999 528.783997,477.724 529.288,477.724 C529.792003,477.724 530.211998,477.833999 530.548,478.054 C530.884002,478.274001 531.131999,478.561998 531.292,478.918 C531.452001,479.274002 531.532,479.663998 531.532,480.088 L531.532,484 L530.512,484 L530.512,480.232 C530.512,479.759998 530.398001,479.364002 530.17,479.044 C529.941999,478.723998 529.576003,478.564 529.072,478.564 C528.703998,478.564 528.388001,478.659999 528.124,478.852 C527.859999,479.044001 527.660001,479.299998 527.524,479.62 C527.387999,479.940002 527.32,480.283998 527.32,480.652 L527.32,484 L526.3,484 L526.3,480.208 C526.3,479.743998 526.184001,479.354002 525.952,479.038 C525.719999,478.721998 525.356002,478.564 524.86,478.564 C524.331997,478.564 523.912002,478.749998 523.6,479.122 C523.287998,479.494002 523.132,479.951997 523.132,480.496 L523.132,484 L522.112,484 L522.112,479.26 Z M538.648,481.312 L534.112,481.312 C534.152,481.936003 534.339998,482.431998 534.676,482.8 C535.012002,483.168002 535.491997,483.352 536.116,483.352 C536.484002,483.352 536.813999,483.302001 537.106,483.202 C537.398001,483.101999 537.691999,482.952001 537.988,482.752 L538.444,483.412 C538.099998,483.660001 537.734002,483.847999 537.346,483.976 C536.957998,484.104001 536.528002,484.168 536.056,484.168 C535.119995,484.168 534.390003,483.872003 533.866,483.28 C533.341997,482.687997 533.08,481.900005 533.08,480.916 C533.08,480.283997 533.191999,479.728002 533.416,479.248 C533.640001,478.767998 533.965998,478.394001 534.394,478.126 C534.822002,477.857999 535.335997,477.724 535.936,477.724 C536.824004,477.724 537.501998,478.011997 537.97,478.588 C538.438002,479.164003 538.672,479.927995 538.672,480.88 C538.672,481.072001 538.664,481.216 538.648,481.312 Z M537.676,480.52 C537.66,479.911997 537.504001,479.424002 537.208,479.056 C536.911999,478.687998 536.484003,478.504 535.924,478.504 C535.355997,478.504 534.916002,478.693998 534.604,479.074 C534.291998,479.454002 534.124,479.935997 534.1,480.52 L537.676,480.52 Z" id="Sub--Category-Name-Copy" fill="#54698D"></path>
            <rect id="Rectangle-1-Copy" fill="#A8B7C7" x="62" y="710" width="48" height="24" rx="12"></rect>
            <circle id="Oval-1-Copy" fill="#FFFFFF" cx="74" cy="722" r="10"></circle>
        </g>
    </g>
</svg>