<?xml version="1.0" encoding="UTF-8"?>
<svg width="1240px" height="62px" viewBox="0 0 1240 62" version="1.1" xmlns="http://www.w3.org/2000/svg" xmlns:xlink="http://www.w3.org/1999/xlink">
    <!-- Generator: Sketch 50.2 (55047) - http://www.bohemiancoding.com/sketch -->
    <title>snow.insights.einstein-segmentation.top</title>
    <desc>Created with Sketch.</desc>
    <defs></defs>
    <g id="DMP-201" stroke="none" stroke-width="1" fill="none" fill-rule="evenodd">
        <g id="BU1---Einstein-Segmentation" transform="translate(-21.000000, -249.000000)">
            <g id="Definition" transform="translate(18.000000, 201.000000)">
                <path d="M0.5,47.5 L1223.55569,47.5" id="Line-2" stroke="#C3CBD1" stroke-linecap="square"></path>
                <path d="M4,0.5 C2.06700338,0.5 0.5,2.06700338 0.5,4 L0.5,108.5 C0.5,110.432997 2.06700338,112 4,112 L1243.10424,112 C1245.03723,112 1246.60424,110.432997 1246.60424,108.5 L1246.60424,4 C1246.60424,2.06700338 1245.03723,0.5 1243.10424,0.5 L4,0.5 Z" id="Rectangle-16" stroke="#E0E5EE"></path>
                <path d="M1,47.5 L1246,47.5" id="Line-Copy-5" stroke="#E0E5EE" stroke-linecap="square"></path>
            </g>
            <g id="Group-5" transform="translate(40.000000, 259.000000)">
                <g id="Group-15-Copy" fill="#54698D">
                    <path d="M6.468,11.112 L6.468,12 L1.26,12 L1.26,11.124 L3.564,11.124 L3.564,4.596 L1.272,5.784 L0.852,5.016 L3.684,3.504 L4.62,3.504 L4.62,11.112 L6.468,11.112 Z M12.048,6.372 L11.592,7.008 C11.1199976,6.67999836 10.6080028,6.516 10.056,6.516 C9.67199808,6.516 9.37200108,6.58999926 9.156,6.738 C8.93999892,6.88600074 8.832,7.09599864 8.832,7.368 C8.832,7.568001 8.87599956,7.73199936 8.964,7.86 C9.05200044,7.98800064 9.19999896,8.09599956 9.408,8.184 C9.61600104,8.27200044 9.919998,8.36399952 10.32,8.46 C10.9440031,8.61200076 11.4059985,8.83399854 11.706,9.126 C12.0060015,9.41800146 12.156,9.79999764 12.156,10.272 C12.156,10.872003 11.9320022,11.3379983 11.484,11.67 C11.0359978,12.0020017 10.4840033,12.168 9.828,12.168 C8.9479956,12.168 8.21200296,11.9320024 7.62,11.46 L8.088,10.824 C8.36000136,11.0080009 8.62799868,11.1439996 8.892,11.232 C9.15600132,11.3200004 9.45599832,11.364 9.792,11.364 C10.200002,11.364 10.5219988,11.2760009 10.758,11.1 C10.9940012,10.9239991 11.112,10.6720016 11.112,10.344 C11.112,10.1279989 11.0680004,9.95400066 10.98,9.822 C10.8919996,9.68999934 10.746001,9.58000044 10.542,9.492 C10.337999,9.40399956 10.032002,9.30800052 9.624,9.204 C8.99199684,9.0439992 8.53200144,8.82800136 8.244,8.556 C7.95599856,8.28399864 7.812,7.9080024 7.812,7.428 C7.812,6.9079974 8.01399798,6.49400154 8.418,6.186 C8.82200202,5.87799846 9.35599668,5.724 10.02,5.724 C10.8040039,5.724 11.4799972,5.93999784 12.048,6.372 Z M14.904,5.892 L16.524,5.892 L16.524,6.672 L14.904,6.672 L14.904,10.356 C14.904,11.0120033 15.203997,11.34 15.804,11.34 C16.0200011,11.34 16.2199991,11.3120003 16.404,11.256 L16.56,12.012 C16.2879986,12.1160005 15.9720018,12.168 15.612,12.168 C15.0759973,12.168 14.6540015,12.0180015 14.346,11.718 C14.0379985,11.4179985 13.884,10.9920028 13.884,10.44 L13.884,6.672 L12.804,6.672 L12.804,6.012 L13.872,5.892 L13.872,4.392 L14.904,4.032 L14.904,5.892 Z M26.988,6.264 C26.988,6.87200304 26.8480014,7.3859979 26.568,7.806 C26.2879986,8.2260021 25.9180023,8.53999896 25.458,8.748 C24.9979977,8.95600104 24.5040026,9.06 23.976,9.06 L22.152,9.06 L22.152,12 L21.084,12 L21.084,3.504 L23.952,3.504 C24.8400044,3.504 25.5679972,3.72799776 26.136,4.176 C26.7040028,4.62400224 26.988,5.31999528 26.988,6.264 Z M22.14,4.356 L22.14,8.196 L23.88,8.196 C24.4480028,8.196 24.9259981,8.03200164 25.314,7.704 C25.7020019,7.37599836 25.896,6.90000312 25.896,6.276 C25.896,5.60399664 25.7020019,5.11600152 25.314,4.812 C24.9259981,4.50799848 24.4400029,4.356 23.856,4.356 L22.14,4.356 Z M27.408,10.332 C27.408,9.53999604 27.6939971,8.99000154 28.266,8.682 C28.8380029,8.37399846 29.6999942,8.22 30.852,8.22 C31.1320014,8.22 31.3439993,8.22399996 31.488,8.232 L31.488,7.884 C31.488,7.42799772 31.3640012,7.08800112 31.116,6.864 C30.8679988,6.63999888 30.4880026,6.528 29.976,6.528 C29.3279968,6.528 28.7160029,6.69999828 28.14,7.044 L27.78,6.36 C28.4680034,5.93599788 29.2199959,5.724 30.036,5.724 C30.8920043,5.724 31.517998,5.923998 31.914,6.324 C32.310002,6.724002 32.508,7.33199592 32.508,8.148 L32.508,10.644 C32.508,11.0840022 32.5359997,11.5359977 32.592,12 L31.656,12 C31.5999997,11.6479982 31.572,11.372001 31.572,11.172 L31.536,11.172 C31.3119989,11.5000016 31.0300017,11.7479992 30.69,11.916 C30.3499983,12.0840008 29.9120027,12.168 29.376,12.168 C28.783997,12.168 28.3080018,12.0100016 27.948,11.694 C27.5879982,11.3779984 27.408,10.924003 27.408,10.332 Z M31.488,9.744 L31.488,8.952 L30.948,8.94 C30.347997,8.94 29.8700018,8.9799996 29.514,9.06 C29.1579982,9.1400004 28.8940009,9.27599904 28.722,9.468 C28.5499991,9.66000096 28.464,9.92799828 28.464,10.272 C28.464,10.6240018 28.567999,10.8939991 28.776,11.082 C28.984001,11.2700009 29.2719982,11.364 29.64,11.364 C30.0240019,11.364 30.3559986,11.2820008 30.636,11.118 C30.9160014,10.9539992 31.1279993,10.7480012 31.272,10.5 C31.4160007,10.2519988 31.488,10.0000013 31.488,9.744 Z M34.488,7.26 C34.488,6.81199776 34.4600003,6.35600232 34.404,5.892 L35.376,5.892 C35.4160002,6.16400136 35.4439999,6.48799812 35.46,6.864 L35.484,6.864 C35.8360018,6.1039962 36.4759954,5.724 37.404,5.724 C37.4680003,5.724 37.5839992,5.73599988 37.752,5.76 L37.692,6.636 C37.6119996,6.61999992 37.4880008,6.612 37.32,6.612 C36.7359971,6.612 36.2880016,6.80799804 35.976,7.2 C35.6639984,7.59200196 35.508,8.09999688 35.508,8.724 L35.508,12 L34.488,12 L34.488,7.26 Z M40.14,5.892 L41.76,5.892 L41.76,6.672 L40.14,6.672 L40.14,10.356 C40.14,11.0120033 40.439997,11.34 41.04,11.34 C41.2560011,11.34 41.4559991,11.3120003 41.64,11.256 L41.796,12.012 C41.5239986,12.1160005 41.2080018,12.168 40.848,12.168 C40.3119973,12.168 39.8900015,12.0180015 39.582,11.718 C39.2739985,11.4179985 39.12,10.9920028 39.12,10.44 L39.12,6.672 L38.04,6.672 L38.04,6.012 L39.108,5.892 L39.108,4.392 L40.14,4.032 L40.14,5.892 Z M45.084,13.488 C44.883999,14.0400028 44.6360015,14.4439987 44.34,14.7 C44.0439985,14.9560013 43.6520024,15.084 43.164,15.084 C42.8519984,15.084 42.5680013,15.0360005 42.312,14.94 L42.516,14.184 C42.6920009,14.2320002 42.8639992,14.256 43.032,14.256 C43.3280015,14.256 43.5579992,14.1720008 43.722,14.004 C43.8860008,13.8359992 44.0279994,13.5840017 44.148,13.248 L44.568,12.036 L42.192,5.892 L43.296,5.892 L45.072,10.92 L45.096,10.92 L46.728,5.892 L47.772,5.892 L45.084,13.488 Z M59.124,7.74 C59.124,9.12400692 58.7380039,10.1799964 57.966,10.908 C57.1939961,11.6360036 56.1200069,12 54.744,12 L52.008,12 L52.008,3.504 L54.72,3.504 C56.128007,3.504 57.2139962,3.8539965 57.978,4.554 C58.7420038,5.2540035 59.124,6.31599288 59.124,7.74 Z M53.064,4.38 L53.064,11.112 L54.636,11.112 C55.7400055,11.112 56.5819971,10.8360028 57.162,10.284 C57.7420029,9.73199724 58.032,8.88400572 58.032,7.74 C58.032,5.4999888 56.9040113,4.38 54.648,4.38 L53.064,4.38 Z M60.096,10.332 C60.096,9.53999604 60.3819971,8.99000154 60.954,8.682 C61.5260029,8.37399846 62.3879942,8.22 63.54,8.22 C63.8200014,8.22 64.0319993,8.22399996 64.176,8.232 L64.176,7.884 C64.176,7.42799772 64.0520012,7.08800112 63.804,6.864 C63.5559988,6.63999888 63.1760026,6.528 62.664,6.528 C62.0159968,6.528 61.4040029,6.69999828 60.828,7.044 L60.468,6.36 C61.1560034,5.93599788 61.9079959,5.724 62.724,5.724 C63.5800043,5.724 64.205998,5.923998 64.602,6.324 C64.998002,6.724002 65.196,7.33199592 65.196,8.148 L65.196,10.644 C65.196,11.0840022 65.2239997,11.5359977 65.28,12 L64.344,12 C64.2879997,11.6479982 64.26,11.372001 64.26,11.172 L64.224,11.172 C63.9999989,11.5000016 63.7180017,11.7479992 63.378,11.916 C63.0379983,12.0840008 62.6000027,12.168 62.064,12.168 C61.471997,12.168 60.9960018,12.0100016 60.636,11.694 C60.2759982,11.3779984 60.096,10.924003 60.096,10.332 Z M64.176,9.744 L64.176,8.952 L63.636,8.94 C63.035997,8.94 62.5580018,8.9799996 62.202,9.06 C61.8459982,9.1400004 61.5820009,9.27599904 61.41,9.468 C61.2379991,9.66000096 61.152,9.92799828 61.152,10.272 C61.152,10.6240018 61.255999,10.8939991 61.464,11.082 C61.672001,11.2700009 61.9599982,11.364 62.328,11.364 C62.7120019,11.364 63.0439986,11.2820008 63.324,11.118 C63.6040014,10.9539992 63.8159993,10.7480012 63.96,10.5 C64.1040007,10.2519988 64.176,10.0000013 64.176,9.744 Z M68.352,5.892 L69.972,5.892 L69.972,6.672 L68.352,6.672 L68.352,10.356 C68.352,11.0120033 68.651997,11.34 69.252,11.34 C69.4680011,11.34 69.6679991,11.3120003 69.852,11.256 L70.008,12.012 C69.7359986,12.1160005 69.4200018,12.168 69.06,12.168 C68.5239973,12.168 68.1020015,12.0180015 67.794,11.718 C67.4859985,11.4179985 67.332,10.9920028 67.332,10.44 L67.332,6.672 L66.252,6.672 L66.252,6.012 L67.32,5.892 L67.32,4.392 L68.352,4.032 L68.352,5.892 Z M70.86,10.332 C70.86,9.53999604 71.1459971,8.99000154 71.718,8.682 C72.2900029,8.37399846 73.1519942,8.22 74.304,8.22 C74.5840014,8.22 74.7959993,8.22399996 74.94,8.232 L74.94,7.884 C74.94,7.42799772 74.8160012,7.08800112 74.568,6.864 C74.3199988,6.63999888 73.9400026,6.528 73.428,6.528 C72.7799968,6.528 72.1680029,6.69999828 71.592,7.044 L71.232,6.36 C71.9200034,5.93599788 72.6719959,5.724 73.488,5.724 C74.3440043,5.724 74.969998,5.923998 75.366,6.324 C75.762002,6.724002 75.96,7.33199592 75.96,8.148 L75.96,10.644 C75.96,11.0840022 75.9879997,11.5359977 76.044,12 L75.108,12 C75.0519997,11.6479982 75.024,11.372001 75.024,11.172 L74.988,11.172 C74.7639989,11.5000016 74.4820017,11.7479992 74.142,11.916 C73.8019983,12.0840008 73.3640027,12.168 72.828,12.168 C72.235997,12.168 71.7600018,12.0100016 71.4,11.694 C71.0399982,11.3779984 70.86,10.924003 70.86,10.332 Z M74.94,9.744 L74.94,8.952 L74.4,8.94 C73.799997,8.94 73.3220018,8.9799996 72.966,9.06 C72.6099982,9.1400004 72.3460009,9.27599904 72.174,9.468 C72.0019991,9.66000096 71.916,9.92799828 71.916,10.272 C71.916,10.6240018 72.019999,10.8939991 72.228,11.082 C72.436001,11.2700009 72.7239982,11.364 73.092,11.364 C73.4760019,11.364 73.8079986,11.2820008 74.088,11.118 C74.3680014,10.9539992 74.5799993,10.7480012 74.724,10.5 C74.8680007,10.2519988 74.94,10.0000013 74.94,9.744 Z" id="1st-Party-Data"></path>
                </g>
                <path d="M7.93,30.592 L3.282,30.592 L2.358,33 L1.056,33 L4.976,23.088 L6.278,23.088 L10.17,33 L8.826,33 L7.93,30.592 Z M3.632,29.626 L7.58,29.626 L5.606,24.264 L3.632,29.626 Z M12.648,23.088 L12.648,33 L11.458,33 L11.458,23.088 L12.648,23.088 Z M16.26,23.088 L16.26,33 L15.07,33 L15.07,23.088 L16.26,23.088 Z M28.006,30.592 L23.358,30.592 L22.434,33 L21.132,33 L25.052,23.088 L26.354,23.088 L30.246,33 L28.902,33 L28.006,30.592 Z M23.708,29.626 L27.656,29.626 L25.682,24.264 L23.708,29.626 Z M32.836,25.874 L34.726,25.874 L34.726,26.784 L32.836,26.784 L32.836,31.082 C32.836,31.8473372 33.1859965,32.23 33.886,32.23 C34.1380013,32.23 34.3713323,32.1973337 34.586,32.132 L34.768,33.014 C34.4506651,33.1353339 34.0820021,33.196 33.662,33.196 C33.0366635,33.196 32.5443351,33.0210017 32.185,32.671 C31.8256649,32.3209983 31.646,31.8240032 31.646,31.18 L31.646,26.784 L30.386,26.784 L30.386,26.014 L31.632,25.874 L31.632,24.124 L32.836,23.704 L32.836,25.874 Z M37.834,25.874 L39.724,25.874 L39.724,26.784 L37.834,26.784 L37.834,31.082 C37.834,31.8473372 38.1839965,32.23 38.884,32.23 C39.1360013,32.23 39.3693323,32.1973337 39.584,32.132 L39.766,33.014 C39.4486651,33.1353339 39.0800021,33.196 38.66,33.196 C38.0346635,33.196 37.5423351,33.0210017 37.183,32.671 C36.8236649,32.3209983 36.644,31.8240032 36.644,31.18 L36.644,26.784 L35.384,26.784 L35.384,26.014 L36.63,25.874 L36.63,24.124 L37.834,23.704 L37.834,25.874 Z M41.376,27.47 C41.376,26.9473307 41.3433337,26.415336 41.278,25.874 L42.412,25.874 C42.4586669,26.1913349 42.4913332,26.5693311 42.51,27.008 L42.538,27.008 C42.9486687,26.1213289 43.6953279,25.678 44.778,25.678 C44.852667,25.678 44.987999,25.6919999 45.184,25.72 L45.114,26.742 C45.0206662,26.7233332 44.876001,26.714 44.68,26.714 C43.9986633,26.714 43.4760018,26.9426644 43.112,27.4 C42.7479982,27.8573356 42.566,28.4499964 42.566,29.178 L42.566,33 L41.376,33 L41.376,27.47 Z M47.676,33 L46.486,33 L46.486,25.874 L47.676,25.874 L47.676,33 Z M46.304,23.438 C46.304,22.9339975 46.5653307,22.682 47.088,22.682 C47.6013359,22.682 47.858,22.9339975 47.858,23.438 C47.858,23.6526677 47.7973339,23.827666 47.676,23.963 C47.5546661,24.098334 47.358668,24.166 47.088,24.166 C46.8079986,24.166 46.6073339,24.098334 46.486,23.963 C46.3646661,23.827666 46.304,23.6526677 46.304,23.438 Z M56.902,29.43 C56.902,30.1393369 56.7713346,30.7786638 56.51,31.348 C56.2486654,31.9173362 55.8613359,32.367665 55.348,32.699 C54.8346641,33.030335 54.2233369,33.196 53.514,33.196 C52.6179955,33.196 51.8433366,32.8833365 51.19,32.258 L51.078,33 L50.098,33 L50.098,23.088 L51.288,23.088 L51.288,26.896 L51.33,26.896 C51.5633345,26.5133314 51.8853313,26.2146677 52.296,26 C52.7066687,25.7853323 53.1919972,25.678 53.752,25.678 C54.4333367,25.678 55.0119976,25.843665 55.488,26.175 C55.9640024,26.506335 56.3186655,26.9543305 56.552,27.519 C56.7853345,28.0836695 56.902,28.7206631 56.902,29.43 Z M55.684,29.43 C55.684,28.571329 55.4950019,27.8900025 55.117,27.386 C54.7389981,26.8819975 54.2140034,26.63 53.542,26.63 C53.1033311,26.63 52.7113351,26.7326656 52.366,26.938 C52.0206649,27.1433344 51.7546676,27.4233316 51.568,27.778 C51.3813324,28.1326684 51.288,28.5199979 51.288,28.94 L51.288,31.306 C51.6053349,31.6233349 51.929665,31.8589992 52.261,32.013 C52.592335,32.1670008 52.9633313,32.244 53.374,32.244 C54.111337,32.244 54.6806647,31.9850026 55.082,31.467 C55.4833353,30.9489974 55.684,30.2700042 55.684,29.43 Z M58.694,30.242 L58.694,25.874 L59.898,25.874 L59.898,30.074 C59.898,30.7273366 60.0403319,31.2523313 60.325,31.649 C60.6096681,32.0456686 61.0506637,32.244 61.648,32.244 C62.3013366,32.244 62.823998,31.9990024 63.216,31.509 C63.608002,31.0189976 63.804,30.4100036 63.804,29.682 L63.804,25.874 L64.994,25.874 L64.994,31.418 C64.994,31.9313359 65.0266663,32.458664 65.092,33 L63.958,33 C63.9113331,32.7013318 63.8786668,32.3233356 63.86,31.866 L63.832,31.866 C63.3186641,32.7526711 62.497339,33.196 61.368,33.196 C60.4813289,33.196 59.8140022,32.9230027 59.366,32.377 C58.9179978,31.8309973 58.694,31.1193377 58.694,30.242 Z M68.858,25.874 L70.748,25.874 L70.748,26.784 L68.858,26.784 L68.858,31.082 C68.858,31.8473372 69.2079965,32.23 69.908,32.23 C70.1600013,32.23 70.3933323,32.1973337 70.608,32.132 L70.79,33.014 C70.4726651,33.1353339 70.1040021,33.196 69.684,33.196 C69.0586635,33.196 68.5663351,33.0210017 68.207,32.671 C67.8476649,32.3209983 67.668,31.8240032 67.668,31.18 L67.668,26.784 L66.408,26.784 L66.408,26.014 L67.654,25.874 L67.654,24.124 L68.858,23.704 L68.858,25.874 Z M78.21,29.864 L72.918,29.864 C72.9646669,30.5920036 73.183998,31.1706645 73.576,31.6 C73.968002,32.0293355 74.5279964,32.244 75.256,32.244 C75.6853355,32.244 76.0703316,32.1856673 76.411,32.069 C76.7516684,31.9523328 77.0946649,31.7773345 77.44,31.544 L77.972,32.314 C77.5706647,32.6033348 77.1436689,32.8226659 76.691,32.972 C76.2383311,33.1213341 75.7366694,33.196 75.186,33.196 C74.0939945,33.196 73.2423364,32.8506701 72.631,32.16 C72.0196636,31.4693299 71.714,30.5500057 71.714,29.402 C71.714,28.664663 71.8446654,28.0160028 72.106,27.456 C72.3673346,26.8959972 72.7476642,26.4596682 73.247,26.147 C73.7463358,25.8343318 74.3459965,25.678 75.046,25.678 C76.0820052,25.678 76.8729973,26.0139966 77.419,26.686 C77.9650027,27.3580034 78.238,28.2493278 78.238,29.36 C78.238,29.5840011 78.2286668,29.7519994 78.21,29.864 Z M77.076,28.94 C77.0573332,28.2306631 76.8753351,27.6613355 76.53,27.232 C76.1846649,26.8026645 75.6853366,26.588 75.032,26.588 C74.36933,26.588 73.8560018,26.8096644 73.492,27.253 C73.1279982,27.6963356 72.9320001,28.2586633 72.904,28.94 L77.076,28.94 Z M84.44,26.434 L83.908,27.176 C83.3573306,26.7933314 82.7600032,26.602 82.116,26.602 C81.6679978,26.602 81.3180013,26.6883325 81.066,26.861 C80.8139987,27.0336675 80.688,27.2786651 80.688,27.596 C80.688,27.8293345 80.7393328,28.0206659 80.842,28.17 C80.9446672,28.3193341 81.1173321,28.4453328 81.36,28.548 C81.6026679,28.6506672 81.957331,28.7579994 82.424,28.87 C83.1520036,29.0473342 83.6909983,29.3063316 84.041,29.647 C84.3910018,29.9876684 84.566,30.4333306 84.566,30.984 C84.566,31.6840035 84.3046693,32.2276647 83.782,32.615 C83.2593307,33.0023353 82.6153372,33.196 81.85,33.196 C80.8233282,33.196 79.9646701,32.9206694 79.274,32.37 L79.82,31.628 C80.1373349,31.8426677 80.4499985,32.0013328 80.758,32.104 C81.0660015,32.2066672 81.415998,32.258 81.808,32.258 C82.2840024,32.258 82.6596653,32.1553344 82.935,31.95 C83.2103347,31.7446656 83.348,31.4506686 83.348,31.068 C83.348,30.8159987 83.2966672,30.6130008 83.194,30.459 C83.0913328,30.3049992 82.9210012,30.1766672 82.683,30.074 C82.4449988,29.9713328 82.0880024,29.8593339 81.612,29.738 C80.874663,29.5513324 80.3380017,29.2993349 80.002,28.982 C79.6659983,28.6646651 79.498,28.2260028 79.498,27.666 C79.498,27.0593303 79.7336643,26.5763351 80.205,26.217 C80.6763357,25.8576649 81.2993295,25.678 82.074,25.678 C82.9886712,25.678 83.77733,25.9299975 84.44,26.434 Z M89.816,28.366 C89.816,27.4886623 90.2546623,27.05 91.132,27.05 C92.0093377,27.05 92.448,27.4886623 92.448,28.366 C92.448,29.224671 92.0093377,29.654 91.132,29.654 C90.2546623,29.654 89.816,29.224671 89.816,28.366 Z M104.082,30.592 L99.434,30.592 L98.51,33 L97.208,33 L101.128,23.088 L102.43,23.088 L106.322,33 L104.978,33 L104.082,30.592 Z M99.784,29.626 L103.732,29.626 L101.758,24.264 L99.784,29.626 Z M108.8,23.088 L108.8,33 L107.61,33 L107.61,23.088 L108.8,23.088 Z M112.412,23.088 L112.412,33 L111.222,33 L111.222,23.088 L112.412,23.088 Z M117.648,32.076 L118.278,31.292 C118.679335,31.6093349 119.094665,31.8379993 119.524,31.978 C119.953335,32.1180007 120.438664,32.188 120.98,32.188 C121.652003,32.188 122.195665,32.0316682 122.611,31.719 C123.026335,31.4063318 123.234,30.9513363 123.234,30.354 C123.234,29.9339979 123.136001,29.5933346 122.94,29.332 C122.743999,29.0706654 122.473335,28.8606675 122.128,28.702 C121.782665,28.5433325 121.325336,28.3893341 120.756,28.24 C119.831995,27.9973321 119.141336,27.6683354 118.684,27.253 C118.226664,26.8376646 117.998,26.2566704 117.998,25.51 C117.998,24.6793292 118.30833,24.030669 118.929,23.564 C119.54967,23.097331 120.340662,22.864 121.302,22.864 C121.90867,22.864 122.456998,22.9433325 122.947,23.102 C123.437002,23.2606675 123.891998,23.4939985 124.312,23.802 L123.752,24.614 C123.359998,24.3619987 122.970335,24.1753339 122.583,24.054 C122.195665,23.9326661 121.768669,23.872 121.302,23.872 C120.676664,23.872 120.172669,24.0049987 119.79,24.271 C119.407331,24.5370013 119.216,24.9219975 119.216,25.426 C119.216,25.9300025 119.390998,26.310332 119.741,26.567 C120.091002,26.823668 120.662663,27.0546656 121.456,27.26 C122.454672,27.5213346 123.210664,27.8759978 123.724,28.324 C124.237336,28.7720022 124.494,29.4346623 124.494,30.312 C124.494,30.9466698 124.337668,31.4833311 124.025,31.922 C123.712332,32.3606689 123.290003,32.6896656 122.758,32.909 C122.225997,33.1283344 121.62867,33.238 120.966,33.238 C119.677994,33.238 118.572005,32.8506705 117.648,32.076 Z M132.25,29.864 L126.958,29.864 C127.004667,30.5920036 127.223998,31.1706645 127.616,31.6 C128.008002,32.0293355 128.567996,32.244 129.296,32.244 C129.725335,32.244 130.110332,32.1856673 130.451,32.069 C130.791668,31.9523328 131.134665,31.7773345 131.48,31.544 L132.012,32.314 C131.610665,32.6033348 131.183669,32.8226659 130.731,32.972 C130.278331,33.1213341 129.776669,33.196 129.226,33.196 C128.133995,33.196 127.282336,32.8506701 126.671,32.16 C126.059664,31.4693299 125.754,30.5500057 125.754,29.402 C125.754,28.664663 125.884665,28.0160028 126.146,27.456 C126.407335,26.8959972 126.787664,26.4596682 127.287,26.147 C127.786336,25.8343318 128.385996,25.678 129.086,25.678 C130.122005,25.678 130.912997,26.0139966 131.459,26.686 C132.005003,27.3580034 132.278,28.2493278 132.278,29.36 C132.278,29.5840011 132.268667,29.7519994 132.25,29.864 Z M131.116,28.94 C131.097333,28.2306631 130.915335,27.6613355 130.57,27.232 C130.224665,26.8026645 129.725337,26.588 129.072,26.588 C128.40933,26.588 127.896002,26.8096644 127.532,27.253 C127.167998,27.6963356 126.972,28.2586633 126.944,28.94 L131.116,28.94 Z M133.244,34.456 C133.244,34.0546647 133.358332,33.6930016 133.587,33.371 C133.815668,33.0489984 134.191331,32.7573346 134.714,32.496 C134.256664,32.2906656 134.028,31.9780021 134.028,31.558 C134.028,31.3059987 134.118999,31.082001 134.301,30.886 C134.483001,30.689999 134.737332,30.5453338 135.064,30.452 C134.625331,30.2746658 134.282335,30.0040018 134.035,29.64 C133.787665,29.2759982 133.664,28.8140028 133.664,28.254 C133.664,27.4606627 133.925331,26.8353356 134.448,26.378 C134.970669,25.9206644 135.698662,25.692 136.632,25.692 C136.884001,25.692 137.096332,25.7059999 137.269,25.734 C137.441668,25.7620001 137.649332,25.8086663 137.892,25.874 L140.37,25.874 L140.37,26.826 L138.788,26.658 C139.012001,26.8166675 139.193999,27.0406652 139.334,27.33 C139.474001,27.6193348 139.544,27.9646647 139.544,28.366 C139.544,29.1220038 139.287336,29.7123312 138.774,30.137 C138.260664,30.5616688 137.542005,30.774 136.618,30.774 C136.151331,30.774 135.785001,30.8346661 135.519,30.956 C135.252999,31.0773339 135.12,31.2453323 135.12,31.46 C135.12,31.8426686 135.572662,32.0386666 136.478,32.048 C137.794007,32.0666668 138.74833,32.241665 139.341,32.573 C139.93367,32.904335 140.23,33.4059966 140.23,34.078 C140.23,34.8806707 139.896337,35.5013311 139.229,35.94 C138.561663,36.3786689 137.626006,36.598 136.422,36.598 C135.376661,36.598 134.585669,36.4113352 134.049,36.038 C133.512331,35.6646648 133.244,35.1373367 133.244,34.456 Z M138.438,28.268 C138.438,27.7546641 138.284002,27.3440015 137.976,27.036 C137.667998,26.7279985 137.21067,26.574 136.604,26.574 C136.043997,26.574 135.598335,26.7233318 135.267,27.022 C134.935665,27.3206682 134.77,27.7219975 134.77,28.226 C134.77,28.7580027 134.921665,29.1733318 135.225,29.472 C135.528335,29.7706682 135.987997,29.92 136.604,29.92 C137.826673,29.92 138.438,29.3693388 138.438,28.268 Z M139.054,34.176 C139.054,33.8959986 138.949001,33.6673342 138.739,33.49 C138.528999,33.3126658 138.172003,33.1773338 137.668,33.084 C137.163997,32.9906662 136.473338,32.944 135.596,32.944 C135.175998,33.1306676 134.872668,33.3429988 134.686,33.581 C134.499332,33.8190012 134.406,34.0919985 134.406,34.4 C134.406,35.2680043 135.091993,35.702 136.464,35.702 C137.313338,35.702 137.957331,35.5713346 138.396,35.31 C138.834669,35.0486654 139.054,34.6706691 139.054,34.176 Z M141.896,27.47 C141.896,26.9473307 141.863334,26.415336 141.798,25.874 L142.932,25.874 C142.978667,26.1260013 143.011333,26.4619979 143.03,26.882 L143.058,26.882 C143.282001,26.5273316 143.596998,26.2380011 144.003,26.014 C144.409002,25.7899989 144.877997,25.678 145.41,25.678 C146.01667,25.678 146.511331,25.8063321 146.894,26.063 C147.276669,26.3196679 147.556666,26.6719978 147.734,27.12 L147.762,27.12 C148.004668,26.6719978 148.335998,26.3196679 148.756,26.063 C149.176002,25.8063321 149.679997,25.678 150.268,25.678 C150.856003,25.678 151.345998,25.8063321 151.738,26.063 C152.130002,26.3196679 152.419332,26.6556646 152.606,27.071 C152.792668,27.4863354 152.886,27.9413309 152.886,28.436 L152.886,33 L151.696,33 L151.696,28.604 C151.696,28.0533306 151.563001,27.5913352 151.297,27.218 C151.030999,26.8446648 150.604003,26.658 150.016,26.658 C149.586665,26.658 149.218002,26.7699989 148.91,26.994 C148.601998,27.2180011 148.368667,27.5166648 148.21,27.89 C148.051333,28.2633352 147.972,28.6646645 147.972,29.094 L147.972,33 L146.782,33 L146.782,28.576 C146.782,28.034664 146.646668,27.5796685 146.376,27.211 C146.105332,26.8423315 145.68067,26.658 145.102,26.658 C144.485997,26.658 143.996002,26.8749978 143.632,27.309 C143.267998,27.7430022 143.086,28.2773302 143.086,28.912 L143.086,33 L141.896,33 L141.896,27.47 Z M161.188,29.864 L155.896,29.864 C155.942667,30.5920036 156.161998,31.1706645 156.554,31.6 C156.946002,32.0293355 157.505996,32.244 158.234,32.244 C158.663335,32.244 159.048332,32.1856673 159.389,32.069 C159.729668,31.9523328 160.072665,31.7773345 160.418,31.544 L160.95,32.314 C160.548665,32.6033348 160.121669,32.8226659 159.669,32.972 C159.216331,33.1213341 158.714669,33.196 158.164,33.196 C157.071995,33.196 156.220336,32.8506701 155.609,32.16 C154.997664,31.4693299 154.692,30.5500057 154.692,29.402 C154.692,28.664663 154.822665,28.0160028 155.084,27.456 C155.345335,26.8959972 155.725664,26.4596682 156.225,26.147 C156.724336,25.8343318 157.323996,25.678 158.024,25.678 C159.060005,25.678 159.850997,26.0139966 160.397,26.686 C160.943003,27.3580034 161.216,28.2493278 161.216,29.36 C161.216,29.5840011 161.206667,29.7519994 161.188,29.864 Z M160.054,28.94 C160.035333,28.2306631 159.853335,27.6613355 159.508,27.232 C159.162665,26.8026645 158.663337,26.588 158.01,26.588 C157.34733,26.588 156.834002,26.8096644 156.47,27.253 C156.105998,27.6963356 155.91,28.2586633 155.882,28.94 L160.054,28.94 Z M163.106,27.47 C163.106,26.9473307 163.073334,26.415336 163.008,25.874 L164.142,25.874 C164.188667,26.1260013 164.221333,26.4619979 164.24,26.882 L164.268,26.882 C164.501334,26.5179982 164.827998,26.2263344 165.248,26.007 C165.668002,25.7876656 166.16733,25.678 166.746,25.678 C167.642004,25.678 168.306998,25.9369974 168.741,26.455 C169.175002,26.9730026 169.392,27.6193295 169.392,28.394 L169.392,33 L168.202,33 L168.202,28.632 C168.202,28.0626638 168.062001,27.5936685 167.782,27.225 C167.501999,26.8563315 167.049336,26.672 166.424,26.672 C165.779997,26.672 165.264335,26.8843312 164.877,27.309 C164.489665,27.7336688 164.296,28.2679968 164.296,28.912 L164.296,33 L163.106,33 L163.106,27.47 Z M173.074,25.874 L174.964,25.874 L174.964,26.784 L173.074,26.784 L173.074,31.082 C173.074,31.8473372 173.423996,32.23 174.124,32.23 C174.376001,32.23 174.609332,32.1973337 174.824,32.132 L175.006,33.014 C174.688665,33.1353339 174.320002,33.196 173.9,33.196 C173.274664,33.196 172.782335,33.0210017 172.423,32.671 C172.063665,32.3209983 171.884,31.8240032 171.884,31.18 L171.884,26.784 L170.624,26.784 L170.624,26.014 L171.87,25.874 L171.87,24.124 L173.074,23.704 L173.074,25.874 Z M180.928,26.434 L180.396,27.176 C179.845331,26.7933314 179.248003,26.602 178.604,26.602 C178.155998,26.602 177.806001,26.6883325 177.554,26.861 C177.301999,27.0336675 177.176,27.2786651 177.176,27.596 C177.176,27.8293345 177.227333,28.0206659 177.33,28.17 C177.432667,28.3193341 177.605332,28.4453328 177.848,28.548 C178.090668,28.6506672 178.445331,28.7579994 178.912,28.87 C179.640004,29.0473342 180.178998,29.3063316 180.529,29.647 C180.879002,29.9876684 181.054,30.4333306 181.054,30.984 C181.054,31.6840035 180.792669,32.2276647 180.27,32.615 C179.747331,33.0023353 179.103337,33.196 178.338,33.196 C177.311328,33.196 176.45267,32.9206694 175.762,32.37 L176.308,31.628 C176.625335,31.8426677 176.937998,32.0013328 177.246,32.104 C177.554002,32.2066672 177.903998,32.258 178.296,32.258 C178.772002,32.258 179.147665,32.1553344 179.423,31.95 C179.698335,31.7446656 179.836,31.4506686 179.836,31.068 C179.836,30.8159987 179.784667,30.6130008 179.682,30.459 C179.579333,30.3049992 179.409001,30.1766672 179.171,30.074 C178.932999,29.9713328 178.576002,29.8593339 178.1,29.738 C177.362663,29.5513324 176.826002,29.2993349 176.49,28.982 C176.153998,28.6646651 175.986,28.2260028 175.986,27.666 C175.986,27.0593303 176.221664,26.5763351 176.693,26.217 C177.164336,25.8576649 177.787329,25.678 178.562,25.678 C179.476671,25.678 180.26533,25.9299975 180.928,26.434 Z" id="All-Attributes-•-All" fill="#16325C"></path>
            </g>
            <g id="Group-5-Copy-2" transform="translate(268.000000, 259.000000)">
                <g id="Group-15-Copy" fill="#54698D">
                    <path d="M6.216,5.544 C6.216,6.144003 6.0660015,6.59999844 5.766,6.912 C5.4659985,7.22400156 5.09200224,7.42799952 4.644,7.524 L4.644,7.548 C5.15600256,7.60400028 5.58999822,7.79799834 5.946,8.13 C6.30200178,8.46200166 6.48,8.95199676 6.48,9.6 C6.48,10.1120026 6.35600124,10.563998 6.108,10.956 C5.85999876,11.348002 5.50000236,11.6539989 5.028,11.874 C4.55599764,12.0940011 3.98800332,12.204 3.324,12.204 C2.66799672,12.204 2.10800232,12.108001 1.644,11.916 C1.17999768,11.723999 0.748002,11.428002 0.348,11.028 L0.912,10.404 C1.28000184,10.7320016 1.64599818,10.9659993 2.01,11.106 C2.37400182,11.2460007 2.81199744,11.316 3.324,11.316 C3.9640032,11.316 4.46999814,11.1620015 4.842,10.854 C5.21400186,10.5459985 5.4,10.1160028 5.4,9.564 C5.4,9.02799732 5.24200158,8.63400126 4.926,8.382 C4.60999842,8.12999874 4.1720028,8.004 3.612,8.004 L2.292,8.004 L2.292,7.14 L3.42,7.14 C3.94800264,7.14 4.3719984,7.01800122 4.692,6.774 C5.0120016,6.52999878 5.172,6.16000248 5.172,5.664 C5.172,5.19199764 5.01600156,4.8260013 4.704,4.566 C4.39199844,4.3059987 3.94800288,4.176 3.372,4.176 C2.93999784,4.176 2.55000174,4.23999936 2.202,4.368 C1.85399826,4.49600064 1.50400176,4.69599864 1.152,4.968 L0.6,4.368 C1.02400212,3.99999816 1.46399772,3.73000086 1.92,3.558 C2.37600228,3.38599914 2.89199712,3.3 3.468,3.3 C4.04400288,3.3 4.53799794,3.39599904 4.95,3.588 C5.36200206,3.78000096 5.67599892,4.0459983 5.892,4.386 C6.10800108,4.7260017 6.216,5.11199784 6.216,5.544 Z M8.352,7.26 C8.352,6.81199776 8.32400028,6.35600232 8.268,5.892 L9.24,5.892 C9.2800002,6.16400136 9.30799992,6.48799812 9.324,6.864 L9.348,6.864 C9.70000176,6.1039962 10.3399954,5.724 11.268,5.724 C11.3320003,5.724 11.4479992,5.73599988 11.616,5.76 L11.556,6.636 C11.4759996,6.61999992 11.3520008,6.612 11.184,6.612 C10.5999971,6.612 10.1520016,6.80799804 9.84,7.2 C9.52799844,7.59200196 9.372,8.09999688 9.372,8.724 L9.372,12 L8.352,12 L8.352,7.26 Z M17.976,12 L17.028,12 C16.9719997,11.6479982 16.944,11.3440013 16.944,11.088 L16.92,11.088 C16.4639977,11.8080036 15.736005,12.168 14.736,12.168 C13.8719957,12.168 13.2100023,11.872003 12.75,11.28 C12.2899977,10.687997 12.06,9.91600476 12.06,8.964 C12.06,8.35599696 12.1739989,7.80600246 12.402,7.314 C12.6300011,6.82199754 12.9559979,6.43400142 13.38,6.15 C13.8040021,5.86599858 14.3039971,5.724 14.88,5.724 C15.6960041,5.724 16.3599974,5.98799736 16.872,6.516 L16.872,3.504 L17.892,3.504 L17.892,10.644 C17.892,11.0840022 17.9199997,11.5359977 17.976,12 Z M16.872,9.372 L16.872,7.452 C16.6319988,7.14799848 16.3620015,6.92200074 16.062,6.774 C15.7619985,6.62599926 15.416002,6.552 15.024,6.552 C14.431997,6.552 13.9660017,6.77599776 13.626,7.224 C13.2859983,7.67200224 13.116,8.25199644 13.116,8.964 C13.116,9.70000368 13.2799984,10.2819979 13.608,10.71 C13.9360016,11.1380021 14.3879971,11.352 14.964,11.352 C15.5400029,11.352 16.0019983,11.1660019 16.35,10.794 C16.6980017,10.4219981 16.872,9.94800288 16.872,9.372 Z M28.992,6.264 C28.992,6.87200304 28.8520014,7.3859979 28.572,7.806 C28.2919986,8.2260021 27.9220023,8.53999896 27.462,8.748 C27.0019977,8.95600104 26.5080026,9.06 25.98,9.06 L24.156,9.06 L24.156,12 L23.088,12 L23.088,3.504 L25.956,3.504 C26.8440044,3.504 27.5719972,3.72799776 28.14,4.176 C28.7080028,4.62400224 28.992,5.31999528 28.992,6.264 Z M24.144,4.356 L24.144,8.196 L25.884,8.196 C26.4520028,8.196 26.9299981,8.03200164 27.318,7.704 C27.7060019,7.37599836 27.9,6.90000312 27.9,6.276 C27.9,5.60399664 27.7060019,5.11600152 27.318,4.812 C26.9299981,4.50799848 26.4440029,4.356 25.86,4.356 L24.144,4.356 Z M29.412,10.332 C29.412,9.53999604 29.6979971,8.99000154 30.27,8.682 C30.8420029,8.37399846 31.7039942,8.22 32.856,8.22 C33.1360014,8.22 33.3479993,8.22399996 33.492,8.232 L33.492,7.884 C33.492,7.42799772 33.3680012,7.08800112 33.12,6.864 C32.8719988,6.63999888 32.4920026,6.528 31.98,6.528 C31.3319968,6.528 30.7200029,6.69999828 30.144,7.044 L29.784,6.36 C30.4720034,5.93599788 31.2239959,5.724 32.04,5.724 C32.8960043,5.724 33.521998,5.923998 33.918,6.324 C34.314002,6.724002 34.512,7.33199592 34.512,8.148 L34.512,10.644 C34.512,11.0840022 34.5399997,11.5359977 34.596,12 L33.66,12 C33.6039997,11.6479982 33.576,11.372001 33.576,11.172 L33.54,11.172 C33.3159989,11.5000016 33.0340017,11.7479992 32.694,11.916 C32.3539983,12.0840008 31.9160027,12.168 31.38,12.168 C30.787997,12.168 30.3120018,12.0100016 29.952,11.694 C29.5919982,11.3779984 29.412,10.924003 29.412,10.332 Z M33.492,9.744 L33.492,8.952 L32.952,8.94 C32.351997,8.94 31.8740018,8.9799996 31.518,9.06 C31.1619982,9.1400004 30.8980009,9.27599904 30.726,9.468 C30.5539991,9.66000096 30.468,9.92799828 30.468,10.272 C30.468,10.6240018 30.571999,10.8939991 30.78,11.082 C30.988001,11.2700009 31.2759982,11.364 31.644,11.364 C32.0280019,11.364 32.3599986,11.2820008 32.64,11.118 C32.9200014,10.9539992 33.1319993,10.7480012 33.276,10.5 C33.4200007,10.2519988 33.492,10.0000013 33.492,9.744 Z M36.492,7.26 C36.492,6.81199776 36.4640003,6.35600232 36.408,5.892 L37.38,5.892 C37.4200002,6.16400136 37.4479999,6.48799812 37.464,6.864 L37.488,6.864 C37.8400018,6.1039962 38.4799954,5.724 39.408,5.724 C39.4720003,5.724 39.5879992,5.73599988 39.756,5.76 L39.696,6.636 C39.6159996,6.61999992 39.4920008,6.612 39.324,6.612 C38.7399971,6.612 38.2920016,6.80799804 37.98,7.2 C37.6679984,7.59200196 37.512,8.09999688 37.512,8.724 L37.512,12 L36.492,12 L36.492,7.26 Z M42.144,5.892 L43.764,5.892 L43.764,6.672 L42.144,6.672 L42.144,10.356 C42.144,11.0120033 42.443997,11.34 43.044,11.34 C43.2600011,11.34 43.4599991,11.3120003 43.644,11.256 L43.8,12.012 C43.5279986,12.1160005 43.2120018,12.168 42.852,12.168 C42.3159973,12.168 41.8940015,12.0180015 41.586,11.718 C41.2779985,11.4179985 41.124,10.9920028 41.124,10.44 L41.124,6.672 L40.044,6.672 L40.044,6.012 L41.112,5.892 L41.112,4.392 L42.144,4.032 L42.144,5.892 Z M47.088,13.488 C46.887999,14.0400028 46.6400015,14.4439987 46.344,14.7 C46.0479985,14.9560013 45.6560024,15.084 45.168,15.084 C44.8559984,15.084 44.5720013,15.0360005 44.316,14.94 L44.52,14.184 C44.6960009,14.2320002 44.8679992,14.256 45.036,14.256 C45.3320015,14.256 45.5619992,14.1720008 45.726,14.004 C45.8900008,13.8359992 46.0319994,13.5840017 46.152,13.248 L46.572,12.036 L44.196,5.892 L45.3,5.892 L47.076,10.92 L47.1,10.92 L48.732,5.892 L49.776,5.892 L47.088,13.488 Z M61.128,7.74 C61.128,9.12400692 60.7420039,10.1799964 59.97,10.908 C59.1979961,11.6360036 58.1240069,12 56.748,12 L54.012,12 L54.012,3.504 L56.724,3.504 C58.132007,3.504 59.2179962,3.8539965 59.982,4.554 C60.7460038,5.2540035 61.128,6.31599288 61.128,7.74 Z M55.068,4.38 L55.068,11.112 L56.64,11.112 C57.7440055,11.112 58.5859971,10.8360028 59.166,10.284 C59.7460029,9.73199724 60.036,8.88400572 60.036,7.74 C60.036,5.4999888 58.9080113,4.38 56.652,4.38 L55.068,4.38 Z M62.1,10.332 C62.1,9.53999604 62.3859971,8.99000154 62.958,8.682 C63.5300029,8.37399846 64.3919942,8.22 65.544,8.22 C65.8240014,8.22 66.0359993,8.22399996 66.18,8.232 L66.18,7.884 C66.18,7.42799772 66.0560012,7.08800112 65.808,6.864 C65.5599988,6.63999888 65.1800026,6.528 64.668,6.528 C64.0199968,6.528 63.4080029,6.69999828 62.832,7.044 L62.472,6.36 C63.1600034,5.93599788 63.9119959,5.724 64.728,5.724 C65.5840043,5.724 66.209998,5.923998 66.606,6.324 C67.002002,6.724002 67.2,7.33199592 67.2,8.148 L67.2,10.644 C67.2,11.0840022 67.2279997,11.5359977 67.284,12 L66.348,12 C66.2919997,11.6479982 66.264,11.372001 66.264,11.172 L66.228,11.172 C66.0039989,11.5000016 65.7220017,11.7479992 65.382,11.916 C65.0419983,12.0840008 64.6040027,12.168 64.068,12.168 C63.475997,12.168 63.0000018,12.0100016 62.64,11.694 C62.2799982,11.3779984 62.1,10.924003 62.1,10.332 Z M66.18,9.744 L66.18,8.952 L65.64,8.94 C65.039997,8.94 64.5620018,8.9799996 64.206,9.06 C63.8499982,9.1400004 63.5860009,9.27599904 63.414,9.468 C63.2419991,9.66000096 63.156,9.92799828 63.156,10.272 C63.156,10.6240018 63.259999,10.8939991 63.468,11.082 C63.676001,11.2700009 63.9639982,11.364 64.332,11.364 C64.7160019,11.364 65.0479986,11.2820008 65.328,11.118 C65.6080014,10.9539992 65.8199993,10.7480012 65.964,10.5 C66.1080007,10.2519988 66.18,10.0000013 66.18,9.744 Z M70.356,5.892 L71.976,5.892 L71.976,6.672 L70.356,6.672 L70.356,10.356 C70.356,11.0120033 70.655997,11.34 71.256,11.34 C71.4720011,11.34 71.6719991,11.3120003 71.856,11.256 L72.012,12.012 C71.7399986,12.1160005 71.4240018,12.168 71.064,12.168 C70.5279973,12.168 70.1060015,12.0180015 69.798,11.718 C69.4899985,11.4179985 69.336,10.9920028 69.336,10.44 L69.336,6.672 L68.256,6.672 L68.256,6.012 L69.324,5.892 L69.324,4.392 L70.356,4.032 L70.356,5.892 Z M72.864,10.332 C72.864,9.53999604 73.1499971,8.99000154 73.722,8.682 C74.2940029,8.37399846 75.1559942,8.22 76.308,8.22 C76.5880014,8.22 76.7999993,8.22399996 76.944,8.232 L76.944,7.884 C76.944,7.42799772 76.8200012,7.08800112 76.572,6.864 C76.3239988,6.63999888 75.9440026,6.528 75.432,6.528 C74.7839968,6.528 74.1720029,6.69999828 73.596,7.044 L73.236,6.36 C73.9240034,5.93599788 74.6759959,5.724 75.492,5.724 C76.3480043,5.724 76.973998,5.923998 77.37,6.324 C77.766002,6.724002 77.964,7.33199592 77.964,8.148 L77.964,10.644 C77.964,11.0840022 77.9919997,11.5359977 78.048,12 L77.112,12 C77.0559997,11.6479982 77.028,11.372001 77.028,11.172 L76.992,11.172 C76.7679989,11.5000016 76.4860017,11.7479992 76.146,11.916 C75.8059983,12.0840008 75.3680027,12.168 74.832,12.168 C74.239997,12.168 73.7640018,12.0100016 73.404,11.694 C73.0439982,11.3779984 72.864,10.924003 72.864,10.332 Z M76.944,9.744 L76.944,8.952 L76.404,8.94 C75.803997,8.94 75.3260018,8.9799996 74.97,9.06 C74.6139982,9.1400004 74.3500009,9.27599904 74.178,9.468 C74.0059991,9.66000096 73.92,9.92799828 73.92,10.272 C73.92,10.6240018 74.023999,10.8939991 74.232,11.082 C74.440001,11.2700009 74.7279982,11.364 75.096,11.364 C75.4800019,11.364 75.8119986,11.2820008 76.092,11.118 C76.3720014,10.9539992 76.5839993,10.7480012 76.728,10.5 C76.8720007,10.2519988 76.944,10.0000013 76.944,9.744 Z" id="3rd-Party-Data"></path>
                </g>
                <path d="M8.448,25.692 C8.448,26.35467 8.3080014,26.949664 8.028,27.477 C7.7479986,28.004336 7.27900329,28.5853302 6.621,29.22 C5.96299671,29.8546698 4.92000714,30.7693274 3.492,31.964 L8.77,31.964 L8.77,33 L1.854,33 L1.854,32.034 C3.46867474,30.6433264 4.61899657,29.6236699 5.305,28.975 C5.99100343,28.3263301 6.47633191,27.768669 6.761,27.302 C7.04566809,26.835331 7.188,26.3360027 7.188,25.804 C7.188,25.2346638 6.99200196,24.7726684 6.6,24.418 C6.20799804,24.0633316 5.67133674,23.886 4.99,23.886 C4.46733072,23.886 4.00766865,23.983999 3.611,24.18 C3.21433135,24.376001 2.81533534,24.669998 2.414,25.062 L1.672,24.418 C2.16666914,23.8953307 2.67533072,23.5056679 3.198,23.249 C3.72066928,22.992332 4.35066298,22.864 5.088,22.864 C5.7880035,22.864 6.39233079,22.992332 6.901,23.249 C7.40966921,23.5056679 7.79466536,23.8486645 8.056,24.278 C8.31733464,24.7073355 8.448,25.1786641 8.448,25.692 Z M16.988,25.692 C16.988,26.35467 16.8480014,26.949664 16.568,27.477 C16.2879986,28.004336 15.8190033,28.5853302 15.161,29.22 C14.5029967,29.8546698 13.4600071,30.7693274 12.032,31.964 L17.31,31.964 L17.31,33 L10.394,33 L10.394,32.034 C12.0086747,30.6433264 13.1589966,29.6236699 13.845,28.975 C14.5310034,28.3263301 15.0163319,27.768669 15.301,27.302 C15.5856681,26.835331 15.728,26.3360027 15.728,25.804 C15.728,25.2346638 15.532002,24.7726684 15.14,24.418 C14.747998,24.0633316 14.2113367,23.886 13.53,23.886 C13.0073307,23.886 12.5476687,23.983999 12.151,24.18 C11.7543314,24.376001 11.3553353,24.669998 10.954,25.062 L10.212,24.418 C10.7066691,23.8953307 11.2153307,23.5056679 11.738,23.249 C12.2606693,22.992332 12.890663,22.864 13.628,22.864 C14.3280035,22.864 14.9323308,22.992332 15.441,23.249 C15.9496692,23.5056679 16.3346654,23.8486645 16.596,24.278 C16.8573346,24.7073355 16.988,25.1786641 16.988,25.692 Z M18.64,31.866 L19.34,31.138 C19.7786689,31.5206686 20.2033313,31.7913325 20.614,31.95 C21.0246687,32.1086675 21.5146638,32.188 22.084,32.188 C22.8680039,32.188 23.4816645,31.9803354 23.925,31.565 C24.3683356,31.1496646 24.59,30.5873369 24.59,29.878 C24.59,29.21533 24.3963353,28.7043351 24.009,28.345 C23.6216647,27.9856649 23.0873367,27.806 22.406,27.806 C21.9859979,27.806 21.610335,27.8456663 21.279,27.925 C20.947665,28.0043337 20.6186683,28.1279992 20.292,28.296 L19.452,28.296 L19.452,23.088 L25.318,23.088 L25.318,24.124 L20.628,24.124 L20.628,27.232 C21.29067,26.9519986 21.990663,26.812 22.728,26.812 C23.6706714,26.812 24.4266638,27.0873306 24.996,27.638 C25.5653362,28.1886694 25.85,28.9259954 25.85,29.85 C25.85,30.5220034 25.7006682,31.1146641 25.402,31.628 C25.1033318,32.1413359 24.6716695,32.5379986 24.107,32.818 C23.5423305,33.0980014 22.8726705,33.238 22.098,33.238 C21.3419962,33.238 20.693336,33.1260011 20.152,32.902 C19.610664,32.6779989 19.106669,32.332669 18.64,31.866 Z M30.652,32.076 L31.282,31.292 C31.6833353,31.6093349 32.0986645,31.8379993 32.528,31.978 C32.9573355,32.1180007 33.442664,32.188 33.984,32.188 C34.6560034,32.188 35.1996646,32.0316682 35.615,31.719 C36.0303354,31.4063318 36.238,30.9513363 36.238,30.354 C36.238,29.9339979 36.140001,29.5933346 35.944,29.332 C35.747999,29.0706654 35.4773351,28.8606675 35.132,28.702 C34.7866649,28.5433325 34.3293362,28.3893341 33.76,28.24 C32.8359954,27.9973321 32.1453356,27.6683354 31.688,27.253 C31.2306644,26.8376646 31.002,26.2566704 31.002,25.51 C31.002,24.6793292 31.3123302,24.030669 31.933,23.564 C32.5536698,23.097331 33.3446619,22.864 34.306,22.864 C34.9126697,22.864 35.4609976,22.9433325 35.951,23.102 C36.4410024,23.2606675 36.8959979,23.4939985 37.316,23.802 L36.756,24.614 C36.363998,24.3619987 35.9743353,24.1753339 35.587,24.054 C35.1996647,23.9326661 34.772669,23.872 34.306,23.872 C33.6806635,23.872 33.1766686,24.0049987 32.794,24.271 C32.4113314,24.5370013 32.22,24.9219975 32.22,25.426 C32.22,25.9300025 32.3949983,26.310332 32.745,26.567 C33.0950018,26.823668 33.6666627,27.0546656 34.46,27.26 C35.4586717,27.5213346 36.2146641,27.8759978 36.728,28.324 C37.2413359,28.7720022 37.498,29.4346623 37.498,30.312 C37.498,30.9466698 37.3416682,31.4833311 37.029,31.922 C36.7163318,32.3606689 36.2940027,32.6896656 35.762,32.909 C35.2299973,33.1283344 34.63267,33.238 33.97,33.238 C32.6819936,33.238 31.5760046,32.8506705 30.652,32.076 Z M45.254,29.864 L39.962,29.864 C40.0086669,30.5920036 40.227998,31.1706645 40.62,31.6 C41.012002,32.0293355 41.5719964,32.244 42.3,32.244 C42.7293355,32.244 43.1143316,32.1856673 43.455,32.069 C43.7956684,31.9523328 44.1386649,31.7773345 44.484,31.544 L45.016,32.314 C44.6146647,32.6033348 44.1876689,32.8226659 43.735,32.972 C43.2823311,33.1213341 42.7806694,33.196 42.23,33.196 C41.1379945,33.196 40.2863364,32.8506701 39.675,32.16 C39.0636636,31.4693299 38.758,30.5500057 38.758,29.402 C38.758,28.664663 38.8886654,28.0160028 39.15,27.456 C39.4113346,26.8959972 39.7916642,26.4596682 40.291,26.147 C40.7903358,25.8343318 41.3899965,25.678 42.09,25.678 C43.1260052,25.678 43.9169973,26.0139966 44.463,26.686 C45.0090027,27.3580034 45.282,28.2493278 45.282,29.36 C45.282,29.5840011 45.2726668,29.7519994 45.254,29.864 Z M44.12,28.94 C44.1013332,28.2306631 43.9193351,27.6613355 43.574,27.232 C43.2286649,26.8026645 42.7293366,26.588 42.076,26.588 C41.41333,26.588 40.9000018,26.8096644 40.536,27.253 C40.1719982,27.6963356 39.9760001,28.2586633 39.948,28.94 L44.12,28.94 Z M46.248,34.456 C46.248,34.0546647 46.3623322,33.6930016 46.591,33.371 C46.8196678,33.0489984 47.1953307,32.7573346 47.718,32.496 C47.2606644,32.2906656 47.032,31.9780021 47.032,31.558 C47.032,31.3059987 47.1229991,31.082001 47.305,30.886 C47.4870009,30.689999 47.7413317,30.5453338 48.068,30.452 C47.6293311,30.2746658 47.2863346,30.0040018 47.039,29.64 C46.7916654,29.2759982 46.668,28.8140028 46.668,28.254 C46.668,27.4606627 46.9293307,26.8353356 47.452,26.378 C47.9746693,25.9206644 48.702662,25.692 49.636,25.692 C49.8880013,25.692 50.1003325,25.7059999 50.273,25.734 C50.4456675,25.7620001 50.6533321,25.8086663 50.896,25.874 L53.374,25.874 L53.374,26.826 L51.792,26.658 C52.0160011,26.8166675 52.1979993,27.0406652 52.338,27.33 C52.4780007,27.6193348 52.548,27.9646647 52.548,28.366 C52.548,29.1220038 52.2913359,29.7123312 51.778,30.137 C51.2646641,30.5616688 50.5460046,30.774 49.622,30.774 C49.155331,30.774 48.7890013,30.8346661 48.523,30.956 C48.2569987,31.0773339 48.124,31.2453323 48.124,31.46 C48.124,31.8426686 48.5766621,32.0386666 49.482,32.048 C50.7980066,32.0666668 51.7523304,32.241665 52.345,32.573 C52.9376696,32.904335 53.234,33.4059966 53.234,34.078 C53.234,34.8806707 52.9003367,35.5013311 52.233,35.94 C51.5656633,36.3786689 50.630006,36.598 49.426,36.598 C48.3806614,36.598 47.5896694,36.4113352 47.053,36.038 C46.5163307,35.6646648 46.248,35.1373367 46.248,34.456 Z M51.442,28.268 C51.442,27.7546641 51.2880015,27.3440015 50.98,27.036 C50.6719985,26.7279985 50.2146697,26.574 49.608,26.574 C49.0479972,26.574 48.602335,26.7233318 48.271,27.022 C47.939665,27.3206682 47.774,27.7219975 47.774,28.226 C47.774,28.7580027 47.9256652,29.1733318 48.229,29.472 C48.5323349,29.7706682 48.9919969,29.92 49.608,29.92 C50.8306728,29.92 51.442,29.3693388 51.442,28.268 Z M52.058,34.176 C52.058,33.8959986 51.9530011,33.6673342 51.743,33.49 C51.532999,33.3126658 51.1760025,33.1773338 50.672,33.084 C50.1679975,32.9906662 49.4773377,32.944 48.6,32.944 C48.1799979,33.1306676 47.8766676,33.3429988 47.69,33.581 C47.5033324,33.8190012 47.41,34.0919985 47.41,34.4 C47.41,35.2680043 48.0959931,35.702 49.468,35.702 C50.3173376,35.702 50.9613311,35.5713346 51.4,35.31 C51.8386689,35.0486654 52.058,34.6706691 52.058,34.176 Z M54.9,27.47 C54.9,26.9473307 54.8673337,26.415336 54.802,25.874 L55.936,25.874 C55.9826669,26.1260013 56.0153332,26.4619979 56.034,26.882 L56.062,26.882 C56.2860011,26.5273316 56.600998,26.2380011 57.007,26.014 C57.413002,25.7899989 57.8819973,25.678 58.414,25.678 C59.0206697,25.678 59.5153314,25.8063321 59.898,26.063 C60.2806686,26.3196679 60.5606658,26.6719978 60.738,27.12 L60.766,27.12 C61.0086679,26.6719978 61.3399979,26.3196679 61.76,26.063 C62.1800021,25.8063321 62.6839971,25.678 63.272,25.678 C63.8600029,25.678 64.349998,25.8063321 64.742,26.063 C65.134002,26.3196679 65.4233324,26.6556646 65.61,27.071 C65.7966676,27.4863354 65.89,27.9413309 65.89,28.436 L65.89,33 L64.7,33 L64.7,28.604 C64.7,28.0533306 64.5670013,27.5913352 64.301,27.218 C64.0349987,26.8446648 63.6080029,26.658 63.02,26.658 C62.5906645,26.658 62.2220015,26.7699989 61.914,26.994 C61.6059985,27.2180011 61.3726675,27.5166648 61.214,27.89 C61.0553325,28.2633352 60.976,28.6646645 60.976,29.094 L60.976,33 L59.786,33 L59.786,28.576 C59.786,28.034664 59.650668,27.5796685 59.38,27.211 C59.109332,26.8423315 58.6846696,26.658 58.106,26.658 C57.4899969,26.658 57.0000018,26.8749978 56.636,27.309 C56.2719982,27.7430022 56.09,28.2773302 56.09,28.912 L56.09,33 L54.9,33 L54.9,27.47 Z M74.192,29.864 L68.9,29.864 C68.9466669,30.5920036 69.165998,31.1706645 69.558,31.6 C69.950002,32.0293355 70.5099964,32.244 71.238,32.244 C71.6673355,32.244 72.0523316,32.1856673 72.393,32.069 C72.7336684,31.9523328 73.0766649,31.7773345 73.422,31.544 L73.954,32.314 C73.5526647,32.6033348 73.1256689,32.8226659 72.673,32.972 C72.2203311,33.1213341 71.7186694,33.196 71.168,33.196 C70.0759945,33.196 69.2243364,32.8506701 68.613,32.16 C68.0016636,31.4693299 67.696,30.5500057 67.696,29.402 C67.696,28.664663 67.8266654,28.0160028 68.088,27.456 C68.3493346,26.8959972 68.7296642,26.4596682 69.229,26.147 C69.7283358,25.8343318 70.3279965,25.678 71.028,25.678 C72.0640052,25.678 72.8549973,26.0139966 73.401,26.686 C73.9470027,27.3580034 74.22,28.2493278 74.22,29.36 C74.22,29.5840011 74.2106668,29.7519994 74.192,29.864 Z M73.058,28.94 C73.0393332,28.2306631 72.8573351,27.6613355 72.512,27.232 C72.1666649,26.8026645 71.6673366,26.588 71.014,26.588 C70.35133,26.588 69.8380018,26.8096644 69.474,27.253 C69.1099982,27.6963356 68.9140001,28.2586633 68.886,28.94 L73.058,28.94 Z M76.11,27.47 C76.11,26.9473307 76.0773337,26.415336 76.012,25.874 L77.146,25.874 C77.1926669,26.1260013 77.2253332,26.4619979 77.244,26.882 L77.272,26.882 C77.5053345,26.5179982 77.8319979,26.2263344 78.252,26.007 C78.6720021,25.7876656 79.1713304,25.678 79.75,25.678 C80.6460045,25.678 81.3109978,25.9369974 81.745,26.455 C82.1790022,26.9730026 82.396,27.6193295 82.396,28.394 L82.396,33 L81.206,33 L81.206,28.632 C81.206,28.0626638 81.0660014,27.5936685 80.786,27.225 C80.5059986,26.8563315 80.0533365,26.672 79.428,26.672 C78.7839968,26.672 78.2683353,26.8843312 77.881,27.309 C77.4936647,27.7336688 77.3,28.2679968 77.3,28.912 L77.3,33 L76.11,33 L76.11,27.47 Z M86.078,25.874 L87.968,25.874 L87.968,26.784 L86.078,26.784 L86.078,31.082 C86.078,31.8473372 86.4279965,32.23 87.128,32.23 C87.3800013,32.23 87.6133323,32.1973337 87.828,32.132 L88.01,33.014 C87.6926651,33.1353339 87.3240021,33.196 86.904,33.196 C86.2786635,33.196 85.7863351,33.0210017 85.427,32.671 C85.0676649,32.3209983 84.888,31.8240032 84.888,31.18 L84.888,26.784 L83.628,26.784 L83.628,26.014 L84.874,25.874 L84.874,24.124 L86.078,23.704 L86.078,25.874 Z M93.932,26.434 L93.4,27.176 C92.8493306,26.7933314 92.2520032,26.602 91.608,26.602 C91.1599978,26.602 90.8100013,26.6883325 90.558,26.861 C90.3059987,27.0336675 90.18,27.2786651 90.18,27.596 C90.18,27.8293345 90.2313328,28.0206659 90.334,28.17 C90.4366672,28.3193341 90.6093321,28.4453328 90.852,28.548 C91.0946679,28.6506672 91.449331,28.7579994 91.916,28.87 C92.6440036,29.0473342 93.1829983,29.3063316 93.533,29.647 C93.8830018,29.9876684 94.058,30.4333306 94.058,30.984 C94.058,31.6840035 93.7966693,32.2276647 93.274,32.615 C92.7513307,33.0023353 92.1073372,33.196 91.342,33.196 C90.3153282,33.196 89.4566701,32.9206694 88.766,32.37 L89.312,31.628 C89.6293349,31.8426677 89.9419985,32.0013328 90.25,32.104 C90.5580015,32.2066672 90.907998,32.258 91.3,32.258 C91.7760024,32.258 92.1516653,32.1553344 92.427,31.95 C92.7023347,31.7446656 92.84,31.4506686 92.84,31.068 C92.84,30.8159987 92.7886672,30.6130008 92.686,30.459 C92.5833328,30.3049992 92.4130012,30.1766672 92.175,30.074 C91.9369988,29.9713328 91.5800024,29.8593339 91.104,29.738 C90.366663,29.5513324 89.8300017,29.2993349 89.494,28.982 C89.1579983,28.6646651 88.99,28.2260028 88.99,27.666 C88.99,27.0593303 89.2256643,26.5763351 89.697,26.217 C90.1683357,25.8576649 90.7913295,25.678 91.566,25.678 C92.4806712,25.678 93.26933,25.9299975 93.932,26.434 Z" id="225-Segments" fill="#16325C"></path>
            </g>
            <g id="Group-21-Copy" transform="translate(965.000000, 281.000000)" fill="#16325C">
                <path d="M2.148,11.1 L6.036,11.1 L6.036,12 L1.08,12 L1.08,3.504 L2.148,3.504 L2.148,11.1 Z M6.576,10.332 C6.576,9.53999604 6.86199714,8.99000154 7.434,8.682 C8.00600286,8.37399846 8.86799424,8.22 10.02,8.22 C10.3000014,8.22 10.5119993,8.22399996 10.656,8.232 L10.656,7.884 C10.656,7.42799772 10.5320012,7.08800112 10.284,6.864 C10.0359988,6.63999888 9.65600256,6.528 9.144,6.528 C8.49599676,6.528 7.88400288,6.69999828 7.308,7.044 L6.948,6.36 C7.63600344,5.93599788 8.38799592,5.724 9.204,5.724 C10.0600043,5.724 10.685998,5.923998 11.082,6.324 C11.478002,6.724002 11.676,7.33199592 11.676,8.148 L11.676,10.644 C11.676,11.0840022 11.7039997,11.5359977 11.76,12 L10.824,12 C10.7679997,11.6479982 10.74,11.372001 10.74,11.172 L10.704,11.172 C10.4799989,11.5000016 10.1980017,11.7479992 9.858,11.916 C9.5179983,12.0840008 9.08000268,12.168 8.544,12.168 C7.95199704,12.168 7.4760018,12.0100016 7.116,11.694 C6.7559982,11.3779984 6.576,10.924003 6.576,10.332 Z M10.656,9.744 L10.656,8.952 L10.116,8.94 C9.515997,8.94 9.03800178,8.9799996 8.682,9.06 C8.32599822,9.1400004 8.06200086,9.27599904 7.89,9.468 C7.71799914,9.66000096 7.632,9.92799828 7.632,10.272 C7.632,10.6240018 7.73599896,10.8939991 7.944,11.082 C8.15200104,11.2700009 8.43999816,11.364 8.808,11.364 C9.19200192,11.364 9.5239986,11.2820008 9.804,11.118 C10.0840014,10.9539992 10.2959993,10.7480012 10.44,10.5 C10.5840007,10.2519988 10.656,10.0000013 10.656,9.744 Z M17.352,6.372 L16.896,7.008 C16.4239976,6.67999836 15.9120028,6.516 15.36,6.516 C14.9759981,6.516 14.6760011,6.58999926 14.46,6.738 C14.2439989,6.88600074 14.136,7.09599864 14.136,7.368 C14.136,7.568001 14.1799996,7.73199936 14.268,7.86 C14.3560004,7.98800064 14.503999,8.09599956 14.712,8.184 C14.920001,8.27200044 15.223998,8.36399952 15.624,8.46 C16.2480031,8.61200076 16.7099985,8.83399854 17.01,9.126 C17.3100015,9.41800146 17.46,9.79999764 17.46,10.272 C17.46,10.872003 17.2360022,11.3379983 16.788,11.67 C16.3399978,12.0020017 15.7880033,12.168 15.132,12.168 C14.2519956,12.168 13.516003,11.9320024 12.924,11.46 L13.392,10.824 C13.6640014,11.0080009 13.9319987,11.1439996 14.196,11.232 C14.4600013,11.3200004 14.7599983,11.364 15.096,11.364 C15.504002,11.364 15.8259988,11.2760009 16.062,11.1 C16.2980012,10.9239991 16.416,10.6720016 16.416,10.344 C16.416,10.1279989 16.3720004,9.95400066 16.284,9.822 C16.1959996,9.68999934 16.050001,9.58000044 15.846,9.492 C15.641999,9.40399956 15.336002,9.30800052 14.928,9.204 C14.2959968,9.0439992 13.8360014,8.82800136 13.548,8.556 C13.2599986,8.28399864 13.116,7.9080024 13.116,7.428 C13.116,6.9079974 13.317998,6.49400154 13.722,6.186 C14.126002,5.87799846 14.6599967,5.724 15.324,5.724 C16.1080039,5.724 16.7839972,5.93999784 17.352,6.372 Z M20.208,5.892 L21.828,5.892 L21.828,6.672 L20.208,6.672 L20.208,10.356 C20.208,11.0120033 20.507997,11.34 21.108,11.34 C21.3240011,11.34 21.5239991,11.3120003 21.708,11.256 L21.864,12.012 C21.5919986,12.1160005 21.2760018,12.168 20.916,12.168 C20.3799973,12.168 19.9580015,12.0180015 19.65,11.718 C19.3419985,11.4179985 19.188,10.9920028 19.188,10.44 L19.188,6.672 L18.108,6.672 L18.108,6.012 L19.176,5.892 L19.176,4.392 L20.208,4.032 L20.208,5.892 Z M35.316,12 L34.272,12 L34.296,4.74 L34.272,4.74 L31.224,12 L30.42,12 L27.384,4.74 L27.36,4.74 L27.384,12 L26.388,12 L26.388,3.504 L27.96,3.504 L30.828,10.572 L30.852,10.572 L33.732,3.504 L35.316,3.504 L35.316,12 Z M43.116,8.928 C43.116,9.56000316 42.9940012,10.1219975 42.75,10.614 C42.5059988,11.1060025 42.1540023,11.4879986 41.694,11.76 C41.2339977,12.0320014 40.6840032,12.168 40.044,12.168 C39.4119968,12.168 38.8640023,12.0300014 38.4,11.754 C37.9359977,11.4779986 37.5840012,11.0960024 37.344,10.608 C37.1039988,10.1199976 36.984,9.56000316 36.984,8.928 C36.984,7.95199512 37.2519973,7.1740029 37.788,6.594 C38.3240027,6.0139971 39.0759952,5.724 40.044,5.724 C40.6920032,5.724 41.2459977,5.85799866 41.706,6.126 C42.1660023,6.39400134 42.5159988,6.7679976 42.756,7.248 C42.9960012,7.7280024 43.116,8.2879968 43.116,8.928 Z M38.04,8.928 C38.04,9.65600364 38.2059983,10.2419978 38.538,10.686 C38.8700017,11.1300022 39.3719966,11.352 40.044,11.352 C40.7240034,11.352 41.2319983,11.1300022 41.568,10.686 C41.9040017,10.2419978 42.072,9.65600364 42.072,8.928 C42.072,8.19999636 41.9040017,7.62000216 41.568,7.188 C41.2319983,6.75599784 40.7240034,6.54 40.044,6.54 C39.3639966,6.54 38.8600016,6.75599784 38.532,7.188 C38.2039984,7.62000216 38.04,8.19999636 38.04,8.928 Z M50.232,12 L49.284,12 C49.2279997,11.6479982 49.2,11.3440013 49.2,11.088 L49.176,11.088 C48.7199977,11.8080036 47.992005,12.168 46.992,12.168 C46.1279957,12.168 45.4660023,11.872003 45.006,11.28 C44.5459977,10.687997 44.316,9.91600476 44.316,8.964 C44.316,8.35599696 44.4299989,7.80600246 44.658,7.314 C44.8860011,6.82199754 45.2119979,6.43400142 45.636,6.15 C46.0600021,5.86599858 46.5599971,5.724 47.136,5.724 C47.9520041,5.724 48.6159974,5.98799736 49.128,6.516 L49.128,3.504 L50.148,3.504 L50.148,10.644 C50.148,11.0840022 50.1759997,11.5359977 50.232,12 Z M49.128,9.372 L49.128,7.452 C48.8879988,7.14799848 48.6180015,6.92200074 48.318,6.774 C48.0179985,6.62599926 47.672002,6.552 47.28,6.552 C46.687997,6.552 46.2220017,6.77599776 45.882,7.224 C45.5419983,7.67200224 45.372,8.25199644 45.372,8.964 C45.372,9.70000368 45.5359984,10.2819979 45.864,10.71 C46.1920016,11.1380021 46.6439971,11.352 47.22,11.352 C47.7960029,11.352 48.2579983,11.1660019 48.606,10.794 C48.9540017,10.4219981 49.128,9.94800288 49.128,9.372 Z M53.232,12 L52.212,12 L52.212,5.892 L53.232,5.892 L53.232,12 Z M52.056,3.804 C52.056,3.37199784 52.2799978,3.156 52.728,3.156 C53.1680022,3.156 53.388,3.37199784 53.388,3.804 C53.388,3.98800092 53.3360005,4.13799942 53.232,4.254 C53.1279995,4.37000058 52.9600012,4.428 52.728,4.428 C52.4879988,4.428 52.3160005,4.37000058 52.212,4.254 C52.1079995,4.13799942 52.056,3.98800092 52.056,3.804 Z M60.288,12 L59.268,12 L59.268,6.672 L56.532,6.672 L56.532,12 L55.512,12 L55.512,6.672 L54.444,6.672 L54.444,6.024 L55.512,5.892 L55.512,5.364 C55.512,4.7239968 55.7059981,4.22600178 56.094,3.87 C56.4820019,3.51399822 57.0679961,3.336 57.852,3.336 C58.660004,3.336 59.4439962,3.5559978 60.204,3.996 L59.844,4.704 C59.1959968,4.33599816 58.5360034,4.152 57.864,4.152 C57.3919976,4.152 57.052001,4.25599896 56.844,4.464 C56.635999,4.67200104 56.532,4.97999796 56.532,5.388 L56.532,5.892 L60.288,5.892 L60.288,12 Z M67.488,9.312 L62.952,9.312 C62.9920002,9.93600312 63.1799983,10.4319982 63.516,10.8 C63.8520017,11.1680018 64.3319969,11.352 64.956,11.352 C65.3240018,11.352 65.6539985,11.3020005 65.946,11.202 C66.2380015,11.1019995 66.5319985,10.952001 66.828,10.752 L67.284,11.412 C66.9399983,11.6600012 66.5740019,11.8479994 66.186,11.976 C65.7979981,12.1040006 65.3680024,12.168 64.896,12.168 C63.9599953,12.168 63.2300026,11.872003 62.706,11.28 C62.1819974,10.687997 61.92,9.90000492 61.92,8.916 C61.92,8.28399684 62.0319989,7.7280024 62.256,7.248 C62.4800011,6.7679976 62.8059979,6.39400134 63.234,6.126 C63.6620021,5.85799866 64.175997,5.724 64.776,5.724 C65.6640044,5.724 66.3419977,6.01199712 66.81,6.588 C67.2780023,7.16400288 67.512,7.92799524 67.512,8.88 C67.512,9.07200096 67.5040001,9.21599952 67.488,9.312 Z M66.516,8.52 C66.4999999,7.91199696 66.3440015,7.42400184 66.048,7.056 C65.7519985,6.68799816 65.3240028,6.504 64.764,6.504 C64.1959972,6.504 63.7560016,6.6939981 63.444,7.074 C63.1319984,7.4540019 62.9640001,7.93599708 62.94,8.52 L66.516,8.52 Z M74.616,12 L73.668,12 C73.6119997,11.6479982 73.584,11.3440013 73.584,11.088 L73.56,11.088 C73.1039977,11.8080036 72.376005,12.168 71.376,12.168 C70.5119957,12.168 69.8500023,11.872003 69.39,11.28 C68.9299977,10.687997 68.7,9.91600476 68.7,8.964 C68.7,8.35599696 68.8139989,7.80600246 69.042,7.314 C69.2700011,6.82199754 69.5959979,6.43400142 70.02,6.15 C70.4440021,5.86599858 70.9439971,5.724 71.52,5.724 C72.3360041,5.724 72.9999974,5.98799736 73.512,6.516 L73.512,3.504 L74.532,3.504 L74.532,10.644 C74.532,11.0840022 74.5599997,11.5359977 74.616,12 Z M73.512,9.372 L73.512,7.452 C73.2719988,7.14799848 73.0020015,6.92200074 72.702,6.774 C72.4019985,6.62599926 72.056002,6.552 71.664,6.552 C71.071997,6.552 70.6060017,6.77599776 70.266,7.224 C69.9259983,7.67200224 69.756,8.25199644 69.756,8.964 C69.756,9.70000368 69.9199984,10.2819979 70.248,10.71 C70.5760016,11.1380021 71.0279971,11.352 71.604,11.352 C72.1800029,11.352 72.6419983,11.1660019 72.99,10.794 C73.3380017,10.4219981 73.512,9.94800288 73.512,9.372 Z M85.524,8.94 C85.524,9.54800304 85.4120011,10.0959976 85.188,10.584 C84.9639989,11.0720024 84.6320022,11.4579986 84.192,11.742 C83.7519978,12.0260014 83.228003,12.168 82.62,12.168 C81.8519962,12.168 81.1880028,11.9000027 80.628,11.364 L80.532,12 L79.692,12 L79.692,3.504 L80.712,3.504 L80.712,6.768 L80.748,6.768 C80.948001,6.43999836 81.2239982,6.18400092 81.576,6 C81.9280018,5.81599908 82.3439976,5.724 82.824,5.724 C83.4080029,5.724 83.903998,5.86599858 84.312,6.15 C84.720002,6.43400142 85.023999,6.81799758 85.224,7.302 C85.424001,7.78600242 85.524,8.33199696 85.524,8.94 Z M84.48,8.94 C84.48,8.20399632 84.3180016,7.62000216 83.994,7.188 C83.6699984,6.75599784 83.2200029,6.54 82.644,6.54 C82.2679981,6.54 81.9320015,6.62799912 81.636,6.804 C81.3399985,6.98000088 81.1120008,7.21999848 80.952,7.524 C80.7919992,7.82800152 80.712,8.1599982 80.712,8.52 L80.712,10.548 C80.9840014,10.8200014 81.2619986,11.0219993 81.546,11.154 C81.8300014,11.2860007 82.1479982,11.352 82.5,11.352 C83.1320032,11.352 83.6199983,11.1300022 83.964,10.686 C84.3080017,10.2419978 84.48,9.6600036 84.48,8.94 Z M88.968,13.488 C88.767999,14.0400028 88.5200015,14.4439987 88.224,14.7 C87.9279985,14.9560013 87.5360024,15.084 87.048,15.084 C86.7359984,15.084 86.4520013,15.0360005 86.196,14.94 L86.4,14.184 C86.5760009,14.2320002 86.7479992,14.256 86.916,14.256 C87.2120015,14.256 87.4419992,14.1720008 87.606,14.004 C87.7700008,13.8359992 87.9119994,13.5840017 88.032,13.248 L88.452,12.036 L86.076,5.892 L87.18,5.892 L88.956,10.92 L88.98,10.92 L90.612,5.892 L91.656,5.892 L88.968,13.488 Z M103.008,7.74 C103.008,9.12400692 102.622004,10.1799964 101.85,10.908 C101.077996,11.6360036 100.004007,12 98.628,12 L95.892,12 L95.892,3.504 L98.604,3.504 C100.012007,3.504 101.097996,3.8539965 101.862,4.554 C102.626004,5.2540035 103.008,6.31599288 103.008,7.74 Z M96.948,4.38 L96.948,11.112 L98.52,11.112 C99.6240055,11.112 100.465997,10.8360028 101.046,10.284 C101.626003,9.73199724 101.916,8.88400572 101.916,7.74 C101.916,5.4999888 100.788011,4.38 98.532,4.38 L96.948,4.38 Z M103.98,10.332 C103.98,9.53999604 104.265997,8.99000154 104.838,8.682 C105.410003,8.37399846 106.271994,8.22 107.424,8.22 C107.704001,8.22 107.915999,8.22399996 108.06,8.232 L108.06,7.884 C108.06,7.42799772 107.936001,7.08800112 107.688,6.864 C107.439999,6.63999888 107.060003,6.528 106.548,6.528 C105.899997,6.528 105.288003,6.69999828 104.712,7.044 L104.352,6.36 C105.040003,5.93599788 105.791996,5.724 106.608,5.724 C107.464004,5.724 108.089998,5.923998 108.486,6.324 C108.882002,6.724002 109.08,7.33199592 109.08,8.148 L109.08,10.644 C109.08,11.0840022 109.108,11.5359977 109.164,12 L108.228,12 C108.172,11.6479982 108.144,11.372001 108.144,11.172 L108.108,11.172 C107.883999,11.5000016 107.602002,11.7479992 107.262,11.916 C106.921998,12.0840008 106.484003,12.168 105.948,12.168 C105.355997,12.168 104.880002,12.0100016 104.52,11.694 C104.159998,11.3779984 103.98,10.924003 103.98,10.332 Z M108.06,9.744 L108.06,8.952 L107.52,8.94 C106.919997,8.94 106.442002,8.9799996 106.086,9.06 C105.729998,9.1400004 105.466001,9.27599904 105.294,9.468 C105.121999,9.66000096 105.036,9.92799828 105.036,10.272 C105.036,10.6240018 105.139999,10.8939991 105.348,11.082 C105.556001,11.2700009 105.843998,11.364 106.212,11.364 C106.596002,11.364 106.927999,11.2820008 107.208,11.118 C107.488001,10.9539992 107.699999,10.7480012 107.844,10.5 C107.988001,10.2519988 108.06,10.0000013 108.06,9.744 Z M111.06,7.26 C111.06,6.81199776 111.032,6.35600232 110.976,5.892 L111.948,5.892 C111.988,6.10800108 112.016,6.3959982 112.032,6.756 L112.056,6.756 C112.256001,6.44399844 112.535998,6.19400094 112.896,6.006 C113.256002,5.81799906 113.683998,5.724 114.18,5.724 C114.948004,5.724 115.517998,5.94599778 115.89,6.39 C116.262002,6.83400222 116.448,7.38799668 116.448,8.052 L116.448,12 L115.428,12 L115.428,8.256 C115.428,7.76799756 115.308001,7.36600158 115.068,7.05 C114.827999,6.73399842 114.440003,6.576 113.904,6.576 C113.351997,6.576 112.910002,6.75799818 112.578,7.122 C112.245998,7.48600182 112.08,7.94399724 112.08,8.496 L112.08,12 L111.06,12 L111.06,7.26 Z M124.524,8.028 C124.524,7.27599624 124.899996,6.9 125.652,6.9 C126.404004,6.9 126.78,7.27599624 126.78,8.028 C126.78,8.76400368 126.404004,9.132 125.652,9.132 C124.899996,9.132 124.524,8.76400368 124.524,8.028 Z M130.884,11.796 L131.28,11.016 C131.424001,11.0960004 131.589999,11.1599998 131.778,11.208 C131.966001,11.2560002 132.155999,11.28 132.348,11.28 C132.852003,11.28 133.217999,11.1280015 133.446,10.824 C133.674001,10.5199985 133.788,10.1080026 133.788,9.588 L133.788,3.504 L134.856,3.504 L134.856,9.576 C134.856,10.3440038 134.654002,10.9739975 134.25,11.466 C133.845998,11.9580025 133.232004,12.204 132.408,12.204 C131.839997,12.204 131.332002,12.0680014 130.884,11.796 Z M136.776,9.636 L136.776,5.892 L137.808,5.892 L137.808,9.492 C137.808,10.0520028 137.929999,10.5019983 138.174,10.842 C138.418001,11.1820017 138.795997,11.352 139.308,11.352 C139.868003,11.352 140.315998,11.1420021 140.652,10.722 C140.988002,10.3019979 141.156,9.78000312 141.156,9.156 L141.156,5.892 L142.176,5.892 L142.176,10.644 C142.176,11.0840022 142.204,11.5359977 142.26,12 L141.288,12 C141.248,11.7439987 141.22,11.420002 141.204,11.028 L141.18,11.028 C140.739998,11.7880038 140.036005,12.168 139.068,12.168 C138.307996,12.168 137.736002,11.9340023 137.352,11.466 C136.967998,10.9979977 136.776,10.3880038 136.776,9.636 Z M144.24,7.26 C144.24,6.81199776 144.212,6.35600232 144.156,5.892 L145.128,5.892 C145.168,6.10800108 145.196,6.3959982 145.212,6.756 L145.236,6.756 C145.436001,6.44399844 145.715998,6.19400094 146.076,6.006 C146.436002,5.81799906 146.863998,5.724 147.36,5.724 C148.128004,5.724 148.697998,5.94599778 149.07,6.39 C149.442002,6.83400222 149.628,7.38799668 149.628,8.052 L149.628,12 L148.608,12 L148.608,8.256 C148.608,7.76799756 148.488001,7.36600158 148.248,7.05 C148.007999,6.73399842 147.620003,6.576 147.084,6.576 C146.531997,6.576 146.090002,6.75799818 145.758,7.122 C145.425998,7.48600182 145.26,7.94399724 145.26,8.496 L145.26,12 L144.24,12 L144.24,7.26 Z M160.44,7.224 C160.44,8.25600516 160.240002,9.1419963 159.84,9.882 C159.439998,10.6220037 158.850004,11.187998 158.07,11.58 C157.289996,11.972002 156.340006,12.168 155.22,12.168 L155.22,11.292 C156.468006,11.292 157.447996,11.0040029 158.16,10.428 C158.872004,9.85199712 159.272,9.04800516 159.36,8.016 C158.687997,8.68800336 157.876005,9.024 156.924,9.024 C156.403997,9.024 155.936002,8.91600108 155.52,8.7 C155.103998,8.48399892 154.776001,8.17200204 154.536,7.764 C154.295999,7.35599796 154.176,6.86800284 154.176,6.3 C154.176,5.72399712 154.299999,5.21000226 154.548,4.758 C154.796001,4.30599774 155.157998,3.9500013 155.634,3.69 C156.110002,3.4299987 156.671997,3.3 157.32,3.3 C158.368005,3.3 159.149997,3.6399966 159.666,4.32 C160.182003,5.0000034 160.44,5.96799372 160.44,7.224 Z M159.372,7.08 C159.364,6.08799504 159.200002,5.35400238 158.88,4.878 C158.559998,4.40199762 158.036004,4.164 157.308,4.164 C156.643997,4.164 156.134002,4.3539981 155.778,4.734 C155.421998,5.1140019 155.244,5.6239968 155.244,6.264 C155.244,6.88800312 155.415998,7.36799832 155.76,7.704 C156.104002,8.04000168 156.571997,8.208 157.164,8.208 C157.620002,8.208 158.033998,8.108001 158.406,7.908 C158.778002,7.707999 159.099999,7.43200176 159.372,7.08 Z M162.036,14.124 L161.64,13.764 C161.960002,13.4199983 162.185999,13.1140013 162.318,12.846 C162.450001,12.5779987 162.524,12.2960015 162.54,12 C162.331999,11.9679998 162.182,11.9020005 162.09,11.802 C161.998,11.7019995 161.952,11.5640009 161.952,11.388 C161.952,11.2119991 162.009999,11.0640006 162.126,10.944 C162.242001,10.8239994 162.403999,10.764 162.612,10.764 C162.844001,10.764 163.019999,10.8359993 163.14,10.98 C163.260001,11.1240007 163.32,11.3319986 163.32,11.604 C163.32,12.0440022 163.230001,12.4559981 163.05,12.84 C162.869999,13.2240019 162.532002,13.6519976 162.036,14.124 Z M173.748,5.736 C173.748,6.30400284 173.628001,6.81399774 173.388,7.266 C173.147999,7.71800226 172.746003,8.21599728 172.182,8.76 C171.617997,9.30400272 170.724006,10.0879949 169.5,11.112 L174.024,11.112 L174.024,12 L168.096,12 L168.096,11.172 C169.480007,9.97999404 170.465997,9.10600278 171.054,8.55 C171.642003,7.99399722 172.057999,7.516002 172.302,7.116 C172.546001,6.715998 172.668,6.28800228 172.668,5.832 C172.668,5.34399756 172.500002,4.94800152 172.164,4.644 C171.827998,4.33999848 171.368003,4.188 170.784,4.188 C170.335998,4.188 169.942002,4.27199916 169.602,4.44 C169.261998,4.60800084 168.920002,4.85999832 168.576,5.196 L167.94,4.644 C168.364002,4.19599776 168.799998,3.8620011 169.248,3.642 C169.696002,3.4219989 170.235997,3.312 170.868,3.312 C171.468003,3.312 171.985998,3.4219989 172.422,3.642 C172.858002,3.8620011 173.187999,4.15599816 173.412,4.524 C173.636001,4.89200184 173.748,5.2959978 173.748,5.736 Z M175.2,7.752 C175.2,6.33599292 175.461997,5.24000388 175.986,4.464 C176.510003,3.68799612 177.291995,3.3 178.332,3.3 C179.380005,3.3 180.167997,3.68799612 180.696,4.464 C181.224003,5.24000388 181.488,6.33599292 181.488,7.752 C181.488,9.16800708 181.224003,10.2639961 180.696,11.04 C180.167997,11.8160039 179.380005,12.204 178.332,12.204 C177.291995,12.204 176.510003,11.8160039 175.986,11.04 C175.461997,10.2639961 175.2,9.16800708 175.2,7.752 Z M180.42,7.752 C180.42,6.5919942 180.258002,5.71000302 179.934,5.106 C179.609998,4.50199698 179.080004,4.2 178.344,4.2 C177.599996,4.2 177.066002,4.499997 176.742,5.1 C176.417998,5.700003 176.256,6.58399416 176.256,7.752 C176.256,8.9120058 176.417998,9.79399698 176.742,10.398 C177.066002,11.002003 177.599996,11.304 178.344,11.304 C179.080004,11.304 179.609998,11.002003 179.934,10.398 C180.258002,9.79399698 180.42,8.9120058 180.42,7.752 Z M188.472,11.112 L188.472,12 L183.264,12 L183.264,11.124 L185.568,11.124 L185.568,4.596 L183.276,5.784 L182.856,5.016 L185.688,3.504 L186.624,3.504 L186.624,11.112 L188.472,11.112 Z M196.152,9.816 C196.152,10.2800023 196.024001,10.6919982 195.768,11.052 C195.511999,11.4120018 195.144002,11.693999 194.664,11.898 C194.183998,12.102001 193.616003,12.204 192.96,12.204 C192.303997,12.204 191.740002,12.102001 191.268,11.898 C190.795998,11.693999 190.436001,11.4120018 190.188,11.052 C189.939999,10.6919982 189.816,10.2840023 189.816,9.828 C189.816,9.25199712 189.967998,8.77800186 190.272,8.406 C190.576002,8.03399814 191.051997,7.71600132 191.7,7.452 C191.171997,7.21999884 190.794001,6.9540015 190.566,6.654 C190.337999,6.3539985 190.224,5.96000244 190.224,5.472 C190.224,5.04799788 190.347999,4.67000166 190.596,4.338 C190.844001,4.00599834 191.179998,3.7500009 191.604,3.57 C192.028002,3.3899991 192.491997,3.3 192.996,3.3 C193.500003,3.3 193.961998,3.38399916 194.382,3.552 C194.802002,3.72000084 195.135999,3.96599838 195.384,4.29 C195.632001,4.61400162 195.756,4.9959978 195.756,5.436 C195.756,5.88400224 195.634001,6.27599832 195.39,6.612 C195.145999,6.94800168 194.764003,7.25999856 194.244,7.548 C194.940003,7.80400128 195.431999,8.09999832 195.72,8.436 C196.008001,8.77200168 196.152,9.23199708 196.152,9.816 Z M192.768,7.044 L193.392,7.26 C193.856002,6.99599868 194.189999,6.73000134 194.394,6.462 C194.598001,6.19399866 194.7,5.87600184 194.7,5.508 C194.7,5.07599784 194.540002,4.73200128 194.22,4.476 C193.899998,4.21999872 193.492002,4.092 192.996,4.092 C192.507998,4.092 192.098002,4.21999872 191.766,4.476 C191.433998,4.73200128 191.268,5.07599784 191.268,5.508 C191.268,5.8680018 191.379999,6.16399884 191.604,6.396 C191.828001,6.62800116 192.215997,6.843999 192.768,7.044 Z M195.072,9.756 C195.072,9.44399844 195.012001,9.188001 194.892,8.988 C194.771999,8.787999 194.582001,8.61600072 194.322,8.472 C194.061999,8.32799928 193.688002,8.16800088 193.2,7.992 L192.552,7.764 C191.967997,7.97200104 191.548001,8.23399842 191.292,8.55 C191.035999,8.86600158 190.908,9.25999764 190.908,9.732 C190.908,10.2520026 191.089998,10.6539986 191.454,10.938 C191.818002,11.2220014 192.327997,11.364 192.984,11.364 C193.640003,11.364 194.151998,11.2200014 194.52,10.932 C194.888002,10.6439986 195.072,10.2520025 195.072,9.756 Z M206.208,11.112 L206.208,12 L201,12 L201,11.124 L203.304,11.124 L203.304,4.596 L201.012,5.784 L200.592,5.016 L203.424,3.504 L204.36,3.504 L204.36,11.112 L206.208,11.112 Z M207.576,7.752 C207.576,6.33599292 207.837997,5.24000388 208.362,4.464 C208.886003,3.68799612 209.667995,3.3 210.708,3.3 C211.756005,3.3 212.543997,3.68799612 213.072,4.464 C213.600003,5.24000388 213.864,6.33599292 213.864,7.752 C213.864,9.16800708 213.600003,10.2639961 213.072,11.04 C212.543997,11.8160039 211.756005,12.204 210.708,12.204 C209.667995,12.204 208.886003,11.8160039 208.362,11.04 C207.837997,10.2639961 207.576,9.16800708 207.576,7.752 Z M212.796,7.752 C212.796,6.5919942 212.634002,5.71000302 212.31,5.106 C211.985998,4.50199698 211.456004,4.2 210.72,4.2 C209.975996,4.2 209.442002,4.499997 209.118,5.1 C208.793998,5.700003 208.632,6.58399416 208.632,7.752 C208.632,8.9120058 208.793998,9.79399698 209.118,10.398 C209.442002,11.002003 209.975996,11.304 210.72,11.304 C211.456004,11.304 211.985998,11.002003 212.31,10.398 C212.634002,9.79399698 212.796,8.9120058 212.796,7.752 Z M215.316,11.436 C215.316,10.9879978 215.539998,10.764 215.988,10.764 C216.428002,10.764 216.648,10.9879978 216.648,11.436 C216.648,11.636001 216.596001,11.7959994 216.492,11.916 C216.387999,12.0360006 216.220001,12.096 215.988,12.096 C215.747999,12.096 215.576001,12.0360006 215.472,11.916 C215.367999,11.7959994 215.316,11.636001 215.316,11.436 Z M215.328,7.044 C215.328,6.59599776 215.551998,6.372 216,6.372 C216.440002,6.372 216.66,6.59599776 216.66,7.044 C216.66,7.244001 216.608001,7.4039994 216.504,7.524 C216.399999,7.6440006 216.232001,7.704 216,7.704 C215.759999,7.704 215.588001,7.6440006 215.484,7.524 C215.379999,7.4039994 215.328,7.244001 215.328,7.044 Z M223.8,5.544 C223.8,6.144003 223.650001,6.59999844 223.35,6.912 C223.049998,7.22400156 222.676002,7.42799952 222.228,7.524 L222.228,7.548 C222.740003,7.60400028 223.173998,7.79799834 223.53,8.13 C223.886002,8.46200166 224.064,8.95199676 224.064,9.6 C224.064,10.1120026 223.940001,10.563998 223.692,10.956 C223.443999,11.348002 223.084002,11.6539989 222.612,11.874 C222.139998,12.0940011 221.572003,12.204 220.908,12.204 C220.251997,12.204 219.692002,12.108001 219.228,11.916 C218.763998,11.723999 218.332002,11.428002 217.932,11.028 L218.496,10.404 C218.864002,10.7320016 219.229998,10.9659993 219.594,11.106 C219.958002,11.2460007 220.395997,11.316 220.908,11.316 C221.548003,11.316 222.053998,11.1620015 222.426,10.854 C222.798002,10.5459985 222.984,10.1160028 222.984,9.564 C222.984,9.02799732 222.826002,8.63400126 222.51,8.382 C222.193998,8.12999874 221.756003,8.004 221.196,8.004 L219.876,8.004 L219.876,7.14 L221.004,7.14 C221.532003,7.14 221.955998,7.01800122 222.276,6.774 C222.596002,6.52999878 222.756,6.16000248 222.756,5.664 C222.756,5.19199764 222.600002,4.8260013 222.288,4.566 C221.975998,4.3059987 221.532003,4.176 220.956,4.176 C220.523998,4.176 220.134002,4.23999936 219.786,4.368 C219.437998,4.49600064 219.088002,4.69599864 218.736,4.968 L218.184,4.368 C218.608002,3.99999816 219.047998,3.73000086 219.504,3.558 C219.960002,3.38599914 220.475997,3.3 221.052,3.3 C221.628003,3.3 222.121998,3.39599904 222.534,3.588 C222.946002,3.78000096 223.259999,4.0459983 223.476,4.386 C223.692001,4.7260017 223.8,5.11199784 223.8,5.544 Z M225.42,7.752 C225.42,6.33599292 225.681997,5.24000388 226.206,4.464 C226.730003,3.68799612 227.511995,3.3 228.552,3.3 C229.600005,3.3 230.387997,3.68799612 230.916,4.464 C231.444003,5.24000388 231.708,6.33599292 231.708,7.752 C231.708,9.16800708 231.444003,10.2639961 230.916,11.04 C230.387997,11.8160039 229.600005,12.204 228.552,12.204 C227.511995,12.204 226.730003,11.8160039 226.206,11.04 C225.681997,10.2639961 225.42,9.16800708 225.42,7.752 Z M230.64,7.752 C230.64,6.5919942 230.478002,5.71000302 230.154,5.106 C229.829998,4.50199698 229.300004,4.2 228.564,4.2 C227.819996,4.2 227.286002,4.499997 226.962,5.1 C226.637998,5.700003 226.476,6.58399416 226.476,7.752 C226.476,8.9120058 226.637998,9.79399698 226.962,10.398 C227.286002,11.002003 227.819996,11.304 228.564,11.304 C229.300004,11.304 229.829998,11.002003 230.154,10.398 C230.478002,9.79399698 230.64,8.9120058 230.64,7.752 Z M241.26,9.936 L237.276,9.936 L236.484,12 L235.368,12 L238.728,3.504 L239.844,3.504 L243.18,12 L242.028,12 L241.26,9.936 Z M237.576,9.108 L240.96,9.108 L239.268,4.512 L237.576,9.108 Z M253.248,12 L252.204,12 L252.228,4.74 L252.204,4.74 L249.156,12 L248.352,12 L245.316,4.74 L245.292,4.74 L245.316,12 L244.32,12 L244.32,3.504 L245.892,3.504 L248.76,10.572 L248.784,10.572 L251.664,3.504 L253.248,3.504 L253.248,12 Z M258.384,8.952 L258.384,3.504 L259.44,3.504 L259.44,8.868 C259.44,9.66000396 259.627998,10.259998 260.004,10.668 C260.380002,11.076002 260.983996,11.28 261.816,11.28 C262.648004,11.28 263.251998,11.076002 263.628,10.668 C264.004002,10.259998 264.192,9.66000396 264.192,8.868 L264.192,3.504 L265.26,3.504 L265.26,8.952 C265.26,9.9920052 264.966003,10.7939972 264.378,11.358 C263.789997,11.9220028 262.936006,12.204 261.816,12.204 C260.695994,12.204 259.844003,11.9220028 259.26,11.358 C258.675997,10.7939972 258.384,9.9920052 258.384,8.952 Z M272.712,4.404 L270.036,4.404 L270.036,12 L268.968,12 L268.968,4.404 L266.28,4.404 L266.28,3.504 L272.712,3.504 L272.712,4.404 Z M280.212,4.332 L279.588,5.016 C279.291999,4.75199868 278.954002,4.5500007 278.574,4.41 C278.193998,4.2699993 277.792002,4.2 277.368,4.2 C276.327995,4.2 275.544003,4.52399676 275.016,5.172 C274.487997,5.82000324 274.224,6.67599468 274.224,7.74 C274.224,8.79600528 274.487997,9.64799676 275.016,10.296 C275.544003,10.9440032 276.319995,11.268 277.344,11.268 C277.800002,11.268 278.231998,11.1820009 278.64,11.01 C279.048002,10.8379991 279.403998,10.6040015 279.708,10.308 L280.356,11.016 C279.987998,11.3840018 279.542003,11.6739989 279.018,11.886 C278.493997,12.0980011 277.924003,12.204 277.308,12.204 C276.419996,12.204 275.662003,12.0160019 275.034,11.64 C274.405997,11.2639981 273.930002,10.7400034 273.606,10.068 C273.281998,9.39599664 273.12,8.6200044 273.12,7.74 C273.12,6.8599956 273.281998,6.08400336 273.606,5.412 C273.930002,4.73999664 274.407997,4.21800186 275.04,3.846 C275.672003,3.47399814 276.435996,3.288 277.332,3.288 C277.900003,3.288 278.431998,3.3779991 278.928,3.558 C279.424002,3.7380009 279.851998,3.99599832 280.212,4.332 Z" id="Last-Modified-by-Dan"></path>
            </g>
            <path d="M1217.404,269 L1216.36,269 L1216.384,261.74 L1216.36,261.74 L1213.312,269 L1212.508,269 L1209.472,261.74 L1209.448,261.74 L1209.472,269 L1208.476,269 L1208.476,260.504 L1210.048,260.504 L1212.916,267.572 L1212.94,267.572 L1215.82,260.504 L1217.404,260.504 L1217.404,269 Z M1225.204,265.928 C1225.204,266.560003 1225.082,267.121998 1224.838,267.614 C1224.594,268.106002 1224.242,268.487999 1223.782,268.76 C1223.322,269.032001 1222.772,269.168 1222.132,269.168 C1221.5,269.168 1220.952,269.030001 1220.488,268.754 C1220.024,268.477999 1219.672,268.096002 1219.432,267.608 C1219.192,267.119998 1219.072,266.560003 1219.072,265.928 C1219.072,264.951995 1219.34,264.174003 1219.876,263.594 C1220.412,263.013997 1221.164,262.724 1222.132,262.724 C1222.78,262.724 1223.334,262.857999 1223.794,263.126 C1224.254,263.394001 1224.604,263.767998 1224.844,264.248 C1225.084,264.728002 1225.204,265.287997 1225.204,265.928 Z M1220.128,265.928 C1220.128,266.656004 1220.294,267.241998 1220.626,267.686 C1220.958,268.130002 1221.46,268.352 1222.132,268.352 C1222.812,268.352 1223.32,268.130002 1223.656,267.686 C1223.992,267.241998 1224.16,266.656004 1224.16,265.928 C1224.16,265.199996 1223.992,264.620002 1223.656,264.188 C1223.32,263.755998 1222.812,263.54 1222.132,263.54 C1221.452,263.54 1220.948,263.755998 1220.62,264.188 C1220.292,264.620002 1220.128,265.199996 1220.128,265.928 Z M1232.32,269 L1231.372,269 C1231.316,268.647998 1231.288,268.344001 1231.288,268.088 L1231.264,268.088 C1230.808,268.808004 1230.08001,269.168 1229.08,269.168 C1228.216,269.168 1227.554,268.872003 1227.094,268.28 C1226.634,267.687997 1226.404,266.916005 1226.404,265.964 C1226.404,265.355997 1226.518,264.806002 1226.746,264.314 C1226.974,263.821998 1227.3,263.434001 1227.724,263.15 C1228.148,262.865999 1228.648,262.724 1229.224,262.724 C1230.04,262.724 1230.704,262.987997 1231.216,263.516 L1231.216,260.504 L1232.236,260.504 L1232.236,267.644 C1232.236,268.084002 1232.264,268.535998 1232.32,269 Z M1231.216,266.372 L1231.216,264.452 C1230.976,264.147998 1230.706,263.922001 1230.406,263.774 C1230.106,263.625999 1229.76,263.552 1229.368,263.552 C1228.776,263.552 1228.31,263.775998 1227.97,264.224 C1227.63,264.672002 1227.46,265.251996 1227.46,265.964 C1227.46,266.700004 1227.624,267.281998 1227.952,267.71 C1228.28,268.138002 1228.732,268.352 1229.308,268.352 C1229.884,268.352 1230.346,268.166002 1230.694,267.794 C1231.042,267.421998 1231.216,266.948003 1231.216,266.372 Z M1235.32,269 L1234.3,269 L1234.3,262.892 L1235.32,262.892 L1235.32,269 Z M1234.144,260.804 C1234.144,260.371998 1234.368,260.156 1234.816,260.156 C1235.256,260.156 1235.476,260.371998 1235.476,260.804 C1235.476,260.988001 1235.424,261.137999 1235.32,261.254 C1235.216,261.370001 1235.048,261.428 1234.816,261.428 C1234.576,261.428 1234.404,261.370001 1234.3,261.254 C1234.196,261.137999 1234.144,260.988001 1234.144,260.804 Z M1240.72,260.492 L1240.492,261.224 C1240.236,261.168 1239.988,261.144 1239.748,261.152 C1238.996,261.16 1238.62,261.571996 1238.62,262.388 L1238.62,262.892 L1240.156,262.892 L1240.156,263.672 L1238.62,263.672 L1238.62,269 L1237.6,269 L1237.6,263.672 L1236.532,263.672 L1236.532,263.024 L1237.6,262.892 L1237.6,262.364 C1237.6,261.715997 1237.772,261.218002 1238.116,260.87 C1238.46,260.521998 1238.972,260.344 1239.652,260.336 C1240.044,260.336 1240.4,260.387999 1240.72,260.492 Z M1243.252,270.488 C1243.052,271.040003 1242.804,271.443999 1242.508,271.7 C1242.212,271.956001 1241.82,272.084 1241.332,272.084 C1241.02,272.084 1240.736,272.036 1240.48,271.94 L1240.684,271.184 C1240.86,271.232 1241.032,271.256 1241.2,271.256 C1241.496,271.256 1241.726,271.172001 1241.89,271.004 C1242.054,270.835999 1242.196,270.584002 1242.316,270.248 L1242.736,269.036 L1240.36,262.892 L1241.464,262.892 L1243.24,267.92 L1243.264,267.92 L1244.896,262.892 L1245.94,262.892 L1243.252,270.488 Z" id="Modify" fill="#0070D2"></path>
        </g>
    </g>
</svg>