<?xml version="1.0" encoding="UTF-8"?>
<svg width="1280px" height="920px" viewBox="0 0 1280 920" version="1.1" xmlns="http://www.w3.org/2000/svg" xmlns:xlink="http://www.w3.org/1999/xlink">
    <!-- Generator: Sketch 50.2 (55047) - http://www.bohemiancoding.com/sketch -->
    <title>consumer-rights-management.content</title>
    <desc>Created with Sketch.</desc>
    <defs></defs>
    <g id="Page-1" stroke="none" stroke-width="1" fill="none" fill-rule="evenodd">
        <g id="Consumer-Rights" transform="translate(0.000000, -168.000000)">
            <text id="Define-your-consent" font-family="SalesforceSans-Regular, Salesforce Sans" font-size="12" font-weight="normal" fill="#16325C">
                <tspan x="24" y="183">Define your consent collection settings, as well as manage consent changes, raise data deletion and portability requests.</tspan>
            </text>
            <g id="Group-9-Copy-2" transform="translate(111.000000, 223.000000)" fill="#16325C" font-family="SalesforceSans-Regular, Salesforce Sans" font-size="16" font-weight="normal">
                <g id="Send-Performance-Copy-3">
                    <g id="Group-12">
                        <text id="Consent-sources">
                            <tspan x="0" y="16">Consent sources</tspan>
                        </text>
                    </g>
                </g>
            </g>
            <path d="M242.5,229 C239.477477,229 237,231.477477 237,234.5 C237,237.522523 239.477477,240 242.5,240 C245.522523,240 248,237.522523 248,234.5 C248,231.477477 245.522523,229 242.5,229 Z M242.5,231.774775 C242.896396,231.774775 243.193694,232.072072 243.193694,232.468468 C243.193694,232.864865 242.896396,233.162162 242.5,233.162162 C242.103604,233.162162 241.806306,232.864865 241.806306,232.468468 C241.806306,232.072072 242.103604,231.774775 242.5,231.774775 Z M243.63964,236.581081 C243.63964,236.68018 243.540541,236.779279 243.391892,236.779279 L241.608108,236.779279 C241.459459,236.779279 241.36036,236.72973 241.36036,236.581081 L241.36036,236.135135 C241.36036,235.986486 241.459459,235.887387 241.608108,235.887387 C241.707207,235.887387 241.806306,235.788288 241.806306,235.689189 L241.806306,234.747748 C241.806306,234.648649 241.707207,234.5 241.608108,234.5 C241.459459,234.5 241.36036,234.45045 241.36036,234.301802 L241.36036,233.855856 C241.36036,233.707207 241.459459,233.608108 241.608108,233.608108 L242.945946,233.608108 C243.094595,233.608108 243.193694,233.707207 243.193694,233.855856 L243.193694,235.689189 C243.193694,235.788288 243.292793,235.887387 243.391892,235.887387 C243.540541,235.887387 243.63964,235.986486 243.63964,236.135135 L243.63964,236.581081 L243.63964,236.581081 Z" id="Shape" fill="#5F7292"></path>
            <path d="M663.5,229 C660.477477,229 658,231.477477 658,234.5 C658,237.522523 660.477477,240 663.5,240 C666.522523,240 669,237.522523 669,234.5 C669,231.477477 666.522523,229 663.5,229 Z M663.5,231.774775 C663.896396,231.774775 664.193694,232.072072 664.193694,232.468468 C664.193694,232.864865 663.896396,233.162162 663.5,233.162162 C663.103604,233.162162 662.806306,232.864865 662.806306,232.468468 C662.806306,232.072072 663.103604,231.774775 663.5,231.774775 Z M664.63964,236.581081 C664.63964,236.68018 664.540541,236.779279 664.391892,236.779279 L662.608108,236.779279 C662.459459,236.779279 662.36036,236.72973 662.36036,236.581081 L662.36036,236.135135 C662.36036,235.986486 662.459459,235.887387 662.608108,235.887387 C662.707207,235.887387 662.806306,235.788288 662.806306,235.689189 L662.806306,234.747748 C662.806306,234.648649 662.707207,234.5 662.608108,234.5 C662.459459,234.5 662.36036,234.45045 662.36036,234.301802 L662.36036,233.855856 C662.36036,233.707207 662.459459,233.608108 662.608108,233.608108 L663.945946,233.608108 C664.094595,233.608108 664.193694,233.707207 664.193694,233.855856 L664.193694,235.689189 C664.193694,235.788288 664.292793,235.887387 664.391892,235.887387 C664.540541,235.887387 664.63964,235.986486 664.63964,236.135135 L664.63964,236.581081 L664.63964,236.581081 Z" id="Shape-Copy-2" fill="#5F7292"></path>
            <rect id="Rectangle" stroke="#D8DDE6" x="90.5" y="207.5" width="1100" height="278" rx="4"></rect>
            <g id="Send-Performance-Copy-2" transform="translate(499.000000, 223.000000)" fill="#16325C" font-family="SalesforceSans-Regular, Salesforce Sans" font-size="16" font-weight="normal">
                <g id="Group-12">
                    <text id="Consent-distribution">
                        <tspan x="0" y="16">Consent distribution</tspan>
                    </text>
                </g>
            </g>
            <path d="M477,207.839008 L477,484.261208" id="Line-2" stroke="#D8DDE6" stroke-linecap="square"></path>
            <g id="Group-16" transform="translate(540.000000, 273.000000)">
                <rect id="Bar-Copy-3" fill="#C398F5" x="93" y="0" width="460" height="20"></rect>
                <rect id="Bar-Copy-4" fill="#D8DDE6" x="555" y="0" width="32" height="20"></rect>
                <g id="Group-13" transform="translate(0.000000, 3.000000)" fill="#333333" font-family="SalesforceSans-Regular, Salesforce Sans" font-size="12" font-weight="normal">
                    <g id="Group-4-Copy">
                        <text id="Data-collection">
                            <tspan x="0" y="12">Data collection</tspan>
                        </text>
                    </g>
                </g>
            </g>
            <g id="Group-11" transform="translate(574.000000, 329.000000)">
                <rect id="Bar-Copy-7" fill="#C398F5" x="59" y="0" width="106.188313" height="20"></rect>
                <rect id="Bar-Copy-9" fill="#D8DDE6" x="168" y="0" width="385" height="20"></rect>
                <g id="Group-13-Copy-2" transform="translate(0.000000, 3.000000)" fill="#333333" font-family="SalesforceSans-Regular, Salesforce Sans" font-size="12" font-weight="normal">
                    <g id="Group-4-Copy">
                        <text id="Analytics">
                            <tspan x="0.656" y="12">Analytics</tspan>
                        </text>
                    </g>
                </g>
            </g>
            <g id="Group-8" transform="translate(557.000000, 385.000000)">
                <rect id="Bar-Copy-11" fill="#C398F5" x="76" y="0" width="85.2551332" height="20"></rect>
                <rect id="Bar-Copy-13" fill="#D8DDE6" x="164" y="0" width="406" height="20"></rect>
                <g id="Group-13-Copy-4" transform="translate(0.000000, 3.000000)" fill="#333333" font-family="SalesforceSans-Regular, Salesforce Sans" font-size="12" font-weight="normal">
                    <g id="Group-4-Copy">
                        <text id="Data-Selling">
                            <tspan x="0" y="12">Data Selling</tspan>
                        </text>
                    </g>
                </g>
            </g>
            <g id="Group-15" transform="translate(571.000000, 301.000000)">
                <polygon id="Bar-Copy-5" fill="#C398F5" points="62 0 401.00326 0 401.00326 20 62 20"></polygon>
                <rect id="Bar-Copy-6" fill="#D8DDE6" x="403" y="0" width="153" height="20"></rect>
                <g id="Group-13-Copy" transform="translate(0.000000, 3.000000)" fill="#333333" font-family="SalesforceSans-Regular, Salesforce Sans" font-size="12" font-weight="normal">
                    <g id="Group-4-Copy">
                        <text id="Targeting">
                            <tspan x="0" y="12">Targeting</tspan>
                        </text>
                    </g>
                </g>
            </g>
            <g id="Group-9" transform="translate(552.000000, 357.000000)">
                <polygon id="Bar-Copy-8" fill="#C398F5" points="81 0 404.93987 0 404.93987 20 81 20"></polygon>
                <rect id="Bar-Copy-10" fill="#D8DDE6" x="407" y="0" width="168" height="20"></rect>
                <g id="Group-13-Copy-3" transform="translate(0.000000, 3.000000)" fill="#333333" font-family="SalesforceSans-Regular, Salesforce Sans" font-size="12" font-weight="normal">
                    <g id="Group-4-Copy">
                        <text id="Data-Sharing">
                            <tspan x="0" y="12">Data Sharing</tspan>
                        </text>
                    </g>
                </g>
            </g>
            <g id="Group-7" transform="translate(530.000000, 413.000000)">
                <polygon id="Bar-Copy-12" fill="#C398F5" points="103 0 195 0 195 20 103 20"></polygon>
                <rect id="Bar-Copy-14" fill="#D8DDE6" x="197" y="0" width="401" height="20"></rect>
                <g id="Group-13-Copy-5" transform="translate(0.000000, 3.000000)" fill="#333333" font-family="SalesforceSans-Regular, Salesforce Sans" font-size="12" font-weight="normal">
                    <g id="Group-4-Copy">
                        <text id="Re-Identification">
                            <tspan x="0" y="12">Re-Identification</tspan>
                        </text>
                    </g>
                </g>
            </g>
            <g id="Group-2-Copy-3" transform="translate(638.000000, 501.000000)" stroke="#E0E5EE">
                <g id="Folder-with-issues">
                    <rect id="Rectangle-13-Copy" x="0.5" y="0.5" width="552" height="219" rx="4"></rect>
                </g>
            </g>
            <g id="Title" transform="translate(701.000000, 524.000000)" fill="#16325C" font-family="SalesforceSans-Regular, Salesforce Sans" font-size="20" font-weight="normal">
                <text id="Consumer-Rights-Requ">
                    <tspan x="0.551928783" y="20">Consumer Rights Requests</tspan>
                </text>
            </g>
            <text id="Update-consent-setti" font-family="SalesforceSans-Regular, Salesforce Sans" font-size="12" font-weight="normal" fill="#54698D">
                <tspan x="661" y="584">Update consent settings, request data deletion or portability feeds for data subjects.</tspan>
            </text>
            <path d="M965,530 C961.153153,530 958,533.153153 958,537 C958,540.846847 961.153153,544 965,544 C968.846847,544 972,540.846847 972,537 C972,533.153153 968.846847,530 965,530 Z M965,533.531532 C965.504505,533.531532 965.882883,533.90991 965.882883,534.414414 C965.882883,534.918919 965.504505,535.297297 965,535.297297 C964.495495,535.297297 964.117117,534.918919 964.117117,534.414414 C964.117117,533.90991 964.495495,533.531532 965,533.531532 Z M966.45045,539.648649 C966.45045,539.774775 966.324324,539.900901 966.135135,539.900901 L963.864865,539.900901 C963.675676,539.900901 963.54955,539.837838 963.54955,539.648649 L963.54955,539.081081 C963.54955,538.891892 963.675676,538.765766 963.864865,538.765766 C963.990991,538.765766 964.117117,538.63964 964.117117,538.513514 L964.117117,537.315315 C964.117117,537.189189 963.990991,537 963.864865,537 C963.675676,537 963.54955,536.936937 963.54955,536.747748 L963.54955,536.18018 C963.54955,535.990991 963.675676,535.864865 963.864865,535.864865 L965.567568,535.864865 C965.756757,535.864865 965.882883,535.990991 965.882883,536.18018 L965.882883,538.513514 C965.882883,538.63964 966.009009,538.765766 966.135135,538.765766 C966.324324,538.765766 966.45045,538.891892 966.45045,539.081081 L966.45045,539.648649 L966.45045,539.648649 Z" id="Shape-Copy-4" fill="#5F7292"></path>
            <path d="M293,531 C289.153153,531 286,534.153153 286,538 C286,541.846847 289.153153,545 293,545 C296.846847,545 300,541.846847 300,538 C300,534.153153 296.846847,531 293,531 Z M293,534.531532 C293.504505,534.531532 293.882883,534.90991 293.882883,535.414414 C293.882883,535.918919 293.504505,536.297297 293,536.297297 C292.495495,536.297297 292.117117,535.918919 292.117117,535.414414 C292.117117,534.90991 292.495495,534.531532 293,534.531532 Z M294.45045,540.648649 C294.45045,540.774775 294.324324,540.900901 294.135135,540.900901 L291.864865,540.900901 C291.675676,540.900901 291.54955,540.837838 291.54955,540.648649 L291.54955,540.081081 C291.54955,539.891892 291.675676,539.765766 291.864865,539.765766 C291.990991,539.765766 292.117117,539.63964 292.117117,539.513514 L292.117117,538.315315 C292.117117,538.189189 291.990991,538 291.864865,538 C291.675676,538 291.54955,537.936937 291.54955,537.747748 L291.54955,537.18018 C291.54955,536.990991 291.675676,536.864865 291.864865,536.864865 L293.567568,536.864865 C293.756757,536.864865 293.882883,536.990991 293.882883,537.18018 L293.882883,539.513514 C293.882883,539.63964 294.009009,539.765766 294.135135,539.765766 C294.324324,539.765766 294.45045,539.891892 294.45045,540.081081 L294.45045,540.648649 L294.45045,540.648649 Z" id="Shape-Copy-4" fill="#5F7292"></path>
            <g id="Back-Copy" transform="translate(378.000000, 665.000000)">
                <rect id="Rectangle-153" stroke="#D8DDE6" fill="#FFFFFF" x="0.5" y="0.5" width="214" height="35" rx="3"></rect>
                <text id="Edit-configuration" font-family="SalesforceSans-Regular, Salesforce Sans" font-size="14" font-weight="normal" fill="#0070D2">
                    <tspan x="43.946" y="22">Edit configuration</tspan>
                </text>
            </g>
            <text id="LAST-UPDATED:-Jun-12" font-family="SalesforceSans-Regular, Salesforce Sans" font-size="12" font-weight="normal" fill="#54698D">
                <tspan x="111" y="614">LAST UPDATED: Jun 12, 2018</tspan>
            </text>
            <g id="Title" transform="translate(153.000000, 524.000000)" fill="#16325C" font-family="SalesforceSans-Regular, Salesforce Sans" font-size="20" font-weight="normal">
                <text id="Configuration">
                    <tspan x="0.567934783" y="20">Configuration</tspan>
                </text>
            </g>
            <text id="Define-default-setti" font-family="SalesforceSans-Regular, Salesforce Sans" font-size="12" font-weight="normal" fill="#54698D">
                <tspan x="111" y="583">Define default settings for how consent is managed in your organization.</tspan>
            </text>
            <rect id="Rectangle-13-Copy" stroke="#E0E5EE" x="92.5" y="501.5" width="528" height="219" rx="4"></rect>
            <g id="Group-18" transform="translate(111.000000, 520.000000)">
                <g id="Group-5-Copy" fill="#7E8BE4">
                    <g id="standard-icon">
                        <rect id="bkgd" x="0" y="0" width="32" height="32" rx="4"></rect>
                    </g>
                </g>
                <path d="M11.0857143,16.0285714 C10.8571429,16.1428571 10.7428571,16.1428571 10.5142857,16.1428571 C10.4,16.1428571 10.1714286,16.1428571 9.94285714,16.0285714 C9.82857143,16.0285714 9.71428571,16.1428571 9.71428571,16.3714286 L9.71428571,23.8 C9.71428571,24.1428571 9.94285714,24.3714286 10.2857143,24.3714286 L10.7428571,24.3714286 C11.0857143,24.3714286 11.3142857,24.1428571 11.3142857,23.8 L11.3142857,16.3714286 C11.3142857,16.1428571 11.2,16.0285714 11.0857143,16.0285714 L11.0857143,16.0285714 Z M16.5714286,21.8571429 L15.4285714,21.8571429 C15.3142857,21.7428571 15.2,21.9714286 15.2,22.0857143 L15.2,23.8 C15.2,24.1428571 15.4285714,24.3714286 15.7714286,24.3714286 L16.2285714,24.3714286 C16.5714286,24.3714286 16.8,24.1428571 16.8,23.8 L16.8,22.0857143 C16.8,21.8571429 16.6857143,21.7428571 16.5714286,21.8571429 L16.5714286,21.8571429 Z M22.0571429,17.7428571 L20.9142857,17.7428571 C20.8,17.6285714 20.6857143,17.8571429 20.6857143,17.9714286 L20.6857143,23.8 C20.6857143,24.1428571 20.9142857,24.3714286 21.2571429,24.3714286 L21.7142857,24.3714286 C22.0571429,24.3714286 22.2857143,24.1428571 22.2857143,23.8 L22.2857143,17.9714286 C22.2857143,17.7428571 22.1714286,17.6285714 22.0571429,17.7428571 Z M11.3142857,10.8857143 L11.3142857,8.48571429 C11.3142857,8.14285714 11.0857143,7.91428571 10.7428571,7.91428571 L10.2857143,7.91428571 C9.94285714,7.91428571 9.71428571,8.14285714 9.71428571,8.48571429 L9.71428571,10.8857143 C9.02857143,11.1142857 8.57142857,11.8 8.57142857,12.6 C8.57142857,13.6285714 9.48571429,14.5428571 10.5142857,14.5428571 C11.5428571,14.5428571 12.4571429,13.6285714 12.4571429,12.6 C12.4571429,11.8 12,11.1142857 11.3142857,10.8857143 Z M16.8,16.6 L16.8,8.48571429 C16.8,8.14285714 16.5714286,7.91428571 16.2285714,7.91428571 L15.7714286,7.91428571 C15.4285714,7.91428571 15.2,8.14285714 15.2,8.48571429 L15.2,16.6 C14.5142857,16.9428571 14.0571429,17.5142857 14.0571429,18.3142857 C14.0571429,19.4571429 14.9714286,20.2571429 16,20.2571429 C17.0285714,20.2571429 17.9428571,19.4571429 17.9428571,18.3142857 C17.9428571,17.5142857 17.4857143,16.9428571 16.8,16.6 L16.8,16.6 Z M22.2857143,12.4857143 L22.2857143,8.48571429 C22.2857143,8.14285714 22.0571429,7.91428571 21.7142857,7.91428571 L21.2571429,7.91428571 C20.9142857,7.91428571 20.6857143,8.14285714 20.6857143,8.48571429 L20.6857143,12.4857143 C20,12.8285714 19.5428571,13.4 19.5428571,14.2 C19.5428571,15.3428571 20.4571429,16.1428571 21.4857143,16.1428571 C22.5142857,16.1428571 23.4285714,15.3428571 23.4285714,14.2 C23.4285714,13.4 22.9714286,12.8285714 22.2857143,12.4857143 Z" id="Shape" fill="#FFFFFF"></path>
            </g>
            <g id="Group-20" transform="translate(658.000000, 519.000000)">
                <g id="Group-14" fill="#7E8BE4">
                    <g id="Group-5-Copy">
                        <g id="standard-icon">
                            <rect id="bkgd" x="0" y="0" width="32" height="32" rx="4"></rect>
                        </g>
                    </g>
                </g>
                <g id="custom91" transform="translate(7.000000, 8.000000)" fill="#FFFFFF">
                    <path d="M16.5375,4.275 C15.75,4.05 14.9625,3.4875 14.5125,2.8125 C14.175,2.25 14.175,0.9 13.275,0.9 L4.725,0.9 C3.825,0.9 3.825,2.25 3.4875,2.8125 C2.925,3.6 2.1375,3.825 1.35,4.3875 C0.45,4.95 1.2375,7.0875 1.4625,7.7625 C2.25,10.8 3.825,13.6125 6.3,15.525 C7.0875,16.0875 7.7625,16.65 8.6625,16.9875 C9.3375,17.4375 10.575,16.3125 11.1375,15.975 C12.4875,14.9625 13.725,13.725 14.625,12.2625 C15.4125,11.025 15.975,9.675 16.425,8.2125 C16.5375,7.65 16.7625,7.0875 16.875,6.525 C16.9875,6.075 17.2125,5.2875 16.9875,4.8375 C16.9875,4.6125 16.7625,4.3875 16.5375,4.275 C15.3,3.9375 16.875,4.3875 16.5375,4.275 L16.5375,4.275 Z M15.3,6.1875 C14.625,9.7875 12.6,13.1625 9.45,15.1875 L9,15.4125 L8.55,15.1875 C4.725,12.825 3.2625,9 2.7,6.1875 L2.5875,5.625 L3.0375,5.2875 C3.9375,4.8375 4.725,3.9375 5.175,2.925 L5.4,2.475 L12.6,2.475 L12.825,2.8125 C13.275,3.825 14.0625,4.8375 15.075,5.4 L15.4125,5.625 L15.3,6.1875 L15.3,6.1875 Z M8.6625,4.1625 C8.1,4.1625 6.525,4.1625 6.3,4.3875 C5.7375,4.8375 5.5125,5.5125 4.95,5.9625 C4.3875,6.525 4.6125,6.975 4.8375,7.65 C5.175,8.775 5.7375,9.9 6.4125,10.9125 C6.75,11.3625 7.2,11.8125 7.65,12.2625 C7.7625,12.375 9,13.725 9,12.9375 L9,4.725 C9,4.3875 9,4.1625 8.6625,4.1625 L8.6625,4.1625 Z" id="Shape"></path>
                </g>
            </g>
            <g id="Group-21-Copy" transform="translate(951.000000, 665.000000)">
                <g id="Back-Copy-2">
                    <path d="M2.99067192,0.5 C1.61539584,0.5 0.5,1.62140296 0.5,3.00741988 L0.5,32.9925801 C0.5,34.3752939 1.62032879,35.5 2.99067192,35.5 L210.009328,35.5 C211.384604,35.5 212.5,34.378597 212.5,32.9925801 L212.5,3.00741988 C212.5,1.62470608 211.379671,0.5 210.009328,0.5 L2.99067192,0.5 Z" id="Rectangle-153" stroke="#D8DDE6" fill="#FFFFFF"></path>
                    <text id="Raise-a-new-request" font-family="SalesforceSans-Regular, Salesforce Sans" font-size="14" font-weight="normal" fill="#0070D2">
                        <tspan x="23.016" y="22">Raise a new request</tspan>
                    </text>
                </g>
                <path d="M178.342743,15 L187.671277,15 C187.934795,15 188.119257,15.325 187.908443,15.55 L183.349583,20.85 C183.191473,21.05 182.848899,21.05 182.690789,20.85 L178.079225,15.55 C177.894763,15.325 178.052874,15 178.342743,15" id="down" fill="#0070D2"></path>
            </g>
            <g id="Legend" transform="translate(112.000000, 427.000000)">
                <circle id="legendcircle4" fill="#FFD33F" cx="5" cy="33" r="5"></circle>
                <text id="Backfill-Consent" font-family="SalesforceSans-Regular, Salesforce Sans" font-size="12" font-weight="normal" fill="#536FA6">
                    <tspan x="18" y="37">Backfill Consent</tspan>
                </text>
                <circle id="legendcircle3" fill="#F49E60" cx="5" cy="8" r="5"></circle>
                <text id="1st-Party-Consent" font-family="SalesforceSans-Regular, Salesforce Sans" font-size="12" font-weight="normal" fill="#536FA6">
                    <tspan x="18" y="12">1st Party Consent</tspan>
                </text>
            </g>
            <g id="Legend-Copy" transform="translate(295.000000, 427.000000)">
                <circle id="legendcircle4" fill="#73ACE8" cx="5" cy="33" r="5"></circle>
                <text id="Policy-Regime-Consen" font-family="SalesforceSans-Regular, Salesforce Sans" font-size="12" font-weight="normal" fill="#536FA6">
                    <tspan x="18" y="37">Policy Regime Consent</tspan>
                </text>
                <circle id="legendcircle3" fill="#EE7C8F" cx="5" cy="8" r="5"></circle>
                <text id="2nd-Party-Consent" font-family="SalesforceSans-Regular, Salesforce Sans" font-size="12" font-weight="normal" fill="#536FA6">
                    <tspan x="18" y="12">2nd Party Consent</tspan>
                </text>
            </g>
            <g id="Group-5" transform="translate(690.000000, 452.000000)">
                <circle id="legendcircle3-copy" fill="#C398F5" cx="5" cy="8" r="5"></circle>
                <circle id="legendcircle3-copy-2" fill="#D8DDE6" cx="183" cy="8" r="5"></circle>
                <text id="Consented-Population" font-family="SalesforceSans-Regular, Salesforce Sans" font-size="12" font-weight="normal" fill="#536FA6">
                    <tspan x="18" y="12">Consented Population</tspan>
                </text>
                <text id="Non-consented-Popula" font-family="SalesforceSans-Regular, Salesforce Sans" font-size="12" font-weight="normal" fill="#536FA6">
                    <tspan x="196" y="12">Non-consented Population</tspan>
                </text>
            </g>
            <g id="Group-23-Copy" transform="translate(214.000000, 264.000000)">
                <g id="Variable-segments-circle">
                    <g id="Group-21">
                        <path d="M65.5,0 C88.90315,0 110.5247,12.4843 122.223,32.75 C133.9213,53.0157 133.9213,77.9843 122.223,98.25 C110.5247,118.5157 88.90315,131 65.5,131 C42.09685,131 20.4753,118.5157 8.777,98.25 C-2.9213,77.9843 -2.9213,53.0157 8.777,32.75 C20.4753,12.4843 42.09685,0 65.5,0 L65.5,32.75 C53.8017,32.75 42.98765,38.99215 37.1385,49.125 C31.28935,59.25785 31.28935,71.74215 37.1385,81.875 C42.98765,92.00785 53.8017,98.25 65.5,98.25 C77.1983,98.25 88.01235,92.00785 93.8615,81.875 C99.71065,71.74215 99.71065,59.25785 93.8615,49.125 C88.01235,38.99215 77.1983,32.75 65.5,32.75 L65.5,0 Z" id="Base-plate" fill-opacity="0.002" fill="#455A64"></path>
                        <path d="M65.625,0.125117835 L65.625,32.6252373 C71.3547823,32.6469996 76.9767082,34.1647368 81.9374916,37.030242 C92.1081943,42.9012423 98.375,53.756083 98.375,65.5 C98.375,77.243917 92.1081943,88.0987577 81.9374916,93.969758 C71.7659707,99.8412307 59.2340293,99.8412307 49.0625084,93.969758 C38.9279005,88.1195933 32.6695296,77.3208996 32.6252367,65.625 L0.125119444,65.625 C0.146979211,77.0579037 3.1675209,88.2889202 8.88525805,98.1875084 C20.5614573,118.414922 42.141966,130.875 65.5,130.875 C88.858034,130.875 110.438543,118.414922 122.114742,98.1875084 C133.790719,77.9604793 133.790719,53.0395207 122.114742,32.8124916 C110.459374,12.6211651 88.9350047,0.169483996 65.625,0.125118951 Z" id="Segment-75" stroke="#FFFFFF" stroke-width="0.25" fill="#73ACE8"></path>
                        <path d="M0.125119372,65.375 L32.625237,65.375 C32.6512799,58.5146565 34.8206836,51.8364422 38.8308028,46.2773118 L12.5382464,27.1737708 C4.49546215,38.2877477 0.15134994,51.655298 0.125119492,65.375 Z" id="Segment-10" stroke="#FFFFFF" stroke-width="0.25" fill="#FFD33F"></path>
                        <path d="M12.6851978,26.9715203 L38.9778303,46.0751166 C43.0331096,40.5425109 48.7131981,36.4158088 55.2228139,34.2746956 L45.1802845,3.36060509 C32.1406957,7.62863748 20.7682176,15.891417 12.6851979,26.9715204 Z" id="Segment-10" stroke="#FFFFFF" stroke-width="0.25" fill="#F49E60"></path>
                        <path d="M45.4180484,3.28335003 L55.4605944,34.1974917 C58.6710211,33.1686001 62.0127259,32.6380716 65.375,32.6252385 L65.375,0.125119452 C58.6001045,0.138068523 51.8658992,1.20368002 45.4180484,3.28335004 Z" id="Segment-5" stroke="#FFFFFF" stroke-width="0.25" fill="#EE7C8F"></path>
                    </g>
                </g>
                <circle id="Oval-3" fill="#FFFFFF" cx="65.5" cy="65.5" r="47.5"></circle>
            </g>
            <g id="Group-21-Copy-5" transform="translate(1000.000000, 219.000000)">
                <g id="Group-17" fill="#FFFFFF" stroke="#D8DDE6">
                    <g id="Back-Copy">
                        <rect id="Rectangle-153" x="0.5" y="0.5" width="173" height="31" rx="3"></rect>
                    </g>
                </g>
                <path d="M153.329034,15 L162.284426,15 C162.537403,15 162.714487,15.325 162.512105,15.55 L158.1356,20.85 C157.983814,21.05 157.654943,21.05 157.503157,20.85 L153.076056,15.55 C152.898972,15.325 153.050759,15 153.329034,15" id="down" fill="#061C3F"></path>
                <text id="All-Consent-Sources" font-family="SalesforceSans-Regular, Salesforce Sans" font-size="12" font-weight="normal" fill="#16325C">
                    <tspan x="9" y="21">All Consent Sources</tspan>
                </text>
            </g>
        </g>
    </g>
</svg>