<?xml version="1.0" encoding="UTF-8"?>
<svg width="107px" height="33px" viewBox="0 0 107 33" version="1.1" xmlns="http://www.w3.org/2000/svg" xmlns:xlink="http://www.w3.org/1999/xlink">
    <!-- Generator: Sketch 50.2 (55047) - http://www.bohemiancoding.com/sketch -->
    <title>data-studio.audience-discovery.menu-a-right</title>
    <desc>Created with Sketch.</desc>
    <defs>
        <rect id="path-1" x="0" y="214" width="1280" height="50"></rect>
        <filter x="-0.1%" y="-3.0%" width="100.2%" height="106.0%" filterUnits="objectBoundingBox" id="filter-2">
            <feGaussianBlur stdDeviation="0.5" in="SourceAlpha" result="shadowBlurInner1"></feGaussianBlur>
            <feOffset dx="0" dy="2" in="shadowBlurInner1" result="shadowOffsetInner1"></feOffset>
            <feComposite in="shadowOffsetInner1" in2="SourceAlpha" operator="arithmetic" k2="-1" k3="1" result="shadowInnerInner1"></feComposite>
            <feColorMatrix values="0 0 0 0 1   0 0 0 0 1   0 0 0 0 1  0 0 0 1 0" type="matrix" in="shadowInnerInner1"></feColorMatrix>
        </filter>
    </defs>
    <g id="Storyboard---5/31" stroke="none" stroke-width="1" fill="none" fill-rule="evenodd">
        <g id="Audience-Discovery" transform="translate(-1093.000000, -224.000000)">
            <g id="Rectangle-4">
                <use fill="#F7F9FB" fill-rule="evenodd" xlink:href="#path-1"></use>
                <use fill="black" fill-opacity="1" filter="url(#filter-2)" xlink:href="#path-1"></use>
            </g>
            <g id="Group-5" transform="translate(1093.000000, 225.000000)">
                <rect id="button" stroke="#D8DDE6" fill="#FFFFFF" x="0.5" y="0.5" width="63" height="31" rx="4"></rect>
                <path d="M4,1 L32,1 L32,31 L4,31 C1.790861,31 2.705415e-16,29.209139 0,27 L0,5 C-2.705415e-16,2.790861 1.790861,1 4,1 Z" id="Rectangle-2" fill="#54698D"></path>
                <g id="tile_card_list" transform="translate(10.000000, 9.000000)" fill="#FFFFFF">
                    <path d="M3.62727273,0.509090909 L0.954545455,0.509090909 C0.763636364,0.509090909 0.509090909,0.763636364 0.509090909,0.954545455 L0.509090909,5.98181818 C0.509090909,6.23636364 0.763636364,6.42727273 0.954545455,6.42727273 L3.62727273,6.42727273 C3.88181818,6.42727273 4.07272727,6.23636364 4.07272727,5.98181818 L4.07272727,0.954545455 C4.07272727,0.763636364 3.88181818,0.509090909 3.62727273,0.509090909 Z M8.33636364,0.509090909 L5.66363636,0.509090909 C5.47272727,0.509090909 5.21818182,0.763636364 5.21818182,0.954545455 L5.21818182,5.98181818 C5.21818182,6.23636364 5.47272727,6.42727273 5.66363636,6.42727273 L8.33636364,6.42727273 C8.52727273,6.42727273 8.78181818,6.23636364 8.78181818,5.98181818 L8.78181818,0.954545455 C8.78181818,0.763636364 8.52727273,0.509090909 8.33636364,0.509090909 Z M13.0454545,0.509090909 L10.3727273,0.509090909 C10.1181818,0.509090909 9.92727273,0.763636364 9.92727273,0.954545455 L9.92727273,5.98181818 C9.92727273,6.23636364 10.1181818,6.42727273 10.3727273,6.42727273 L13.0454545,6.42727273 C13.2363636,6.42727273 13.4909091,6.23636364 13.4909091,5.98181818 L13.4909091,0.954545455 C13.4909091,0.763636364 13.2363636,0.509090909 13.0454545,0.509090909 Z M3.62727273,7.57272727 L0.954545455,7.57272727 C0.763636364,7.57272727 0.509090909,7.76363636 0.509090909,8.01818182 L0.509090909,13.0454545 C0.509090909,13.2363636 0.763636364,13.4909091 0.954545455,13.4909091 L3.62727273,13.4909091 C3.88181818,13.4909091 4.07272727,13.2363636 4.07272727,13.0454545 L4.07272727,8.01818182 C4.07272727,7.76363636 3.88181818,7.57272727 3.62727273,7.57272727 Z M8.33636364,7.57272727 L5.66363636,7.57272727 C5.47272727,7.57272727 5.21818182,7.76363636 5.21818182,8.01818182 L5.21818182,13.0454545 C5.21818182,13.2363636 5.47272727,13.4909091 5.66363636,13.4909091 L8.33636364,13.4909091 C8.52727273,13.4909091 8.78181818,13.2363636 8.78181818,13.0454545 L8.78181818,8.01818182 C8.78181818,7.76363636 8.52727273,7.57272727 8.33636364,7.57272727 Z M13.0454545,7.57272727 L10.3727273,7.57272727 C10.1181818,7.57272727 9.92727273,7.76363636 9.92727273,8.01818182 L9.92727273,13.0454545 C9.92727273,13.2363636 10.1181818,13.4909091 10.3727273,13.4909091 L13.0454545,13.4909091 C13.2363636,13.4909091 13.4909091,13.2363636 13.4909091,13.0454545 L13.4909091,8.01818182 C13.4909091,7.76363636 13.2363636,7.57272727 13.0454545,7.57272727 Z" id="Shape"></path>
                </g>
                <g id="chart" transform="translate(41.000000, 9.000000)" fill="#54698D">
                    <path d="M12.7272727,6.87272727 L6.68181818,10.1818182 C6.3,10.3727273 5.85454545,10.1181818 5.85454545,9.67272727 L5.85454545,2.48181818 C5.85454545,2.16363636 5.53636364,1.90909091 5.28181818,2.03636364 C2.35454545,2.86363636 0.190909091,5.72727273 0.572727273,8.97272727 C0.890909091,11.9 3.24545455,14.3181818 6.23636364,14.6363636 C10.1818182,15.0818182 13.4909091,12.0272727 13.4909091,8.20909091 C13.4909091,7.89090909 13.4272727,7.50909091 13.3636364,7.19090909 C13.3,6.87272727 12.9818182,6.74545455 12.7272727,6.87272727 Z M7.50909091,8.20909091 L13.3,5.15454545 C13.6181818,4.96363636 13.7454545,4.51818182 13.4909091,4.2 C12.2181818,2.35454545 10.1181818,1.01818182 7.76363636,0.636363636 C7.38181818,0.572727273 7,0.890909091 7,1.27272727 L7,7.95454545 C7,8.20909091 7.25454545,8.33636364 7.50909091,8.20909091 L7.50909091,8.20909091 Z" id="Shape"></path>
                </g>
            </g>
            <g id="download" transform="translate(1168.000000, 224.000000)">
                <rect id="Rectangle-207" stroke="#E0E5EE" fill="#FFFFFF" x="0.5" y="0.5" width="31" height="31" rx="4"></rect>
                <path d="M22.5585586,17.4504505 L21.6756757,17.4504505 C21.4234234,17.4504505 21.2342342,17.6396396 21.2342342,17.8918919 L21.2342342,20.7927928 C21.2342342,21.045045 21.045045,21.2342342 20.7927928,21.2342342 L11.2072072,21.2342342 C10.954955,21.2342342 10.7657658,21.045045 10.7657658,20.7927928 L10.7657658,17.8918919 C10.7657658,17.6396396 10.5765766,17.4504505 10.3243243,17.4504505 L9.44144144,17.4504505 C9.18918919,17.4504505 9,17.6396396 9,17.8918919 L9,21.8018018 C9,22.4324324 9.56756757,23 10.1981982,23 L21.8018018,23 C22.4324324,23 23,22.4324324 23,21.8018018 L23,17.8918919 C23,17.6396396 22.8108108,17.4504505 22.5585586,17.4504505 Z M15.6846847,19.4054054 C15.8738739,19.5315315 16.1261261,19.5315315 16.3153153,19.4054054 L20.2252252,15.4324324 C20.4144144,15.2432432 20.4144144,14.990991 20.2252252,14.8648649 L19.6576577,14.2342342 C19.4684685,14.045045 19.2162162,14.045045 19.027027,14.2342342 L17.3873874,15.8738739 C17.1981982,16 16.8828829,15.9369369 16.8828829,15.6216216 L16.8828829,9.44144144 C16.8828829,9.18918919 16.6306306,9 16.4414414,9 L15.5585586,9 C15.3063063,9 15.1171171,9.18918919 15.1171171,9.44144144 L15.1171171,15.6216216 C15.1171171,15.8738739 14.8018018,16 14.6126126,15.8108108 L12.972973,14.1711712 C12.8468468,14.045045 12.5945946,14.045045 12.4054054,14.1711712 L11.7747748,14.8648649 C11.5855856,14.990991 11.5855856,15.2432432 11.7747748,15.4324324 L15.6846847,19.4054054 L15.6846847,19.4054054 Z" id="Shape" fill="#54698D"></path>
            </g>
        </g>
    </g>
</svg>