<?xml version="1.0" encoding="UTF-8"?>
<svg width="590px" height="358px" viewBox="0 0 590 358" version="1.1" xmlns="http://www.w3.org/2000/svg" xmlns:xlink="http://www.w3.org/1999/xlink">
    <!-- Generator: Sketch 50.2 (55047) - http://www.bohemiancoding.com/sketch -->
    <title>index.activated-segments</title>
    <desc>Created with Sketch.</desc>
    <defs></defs>
    <g id="Page-1" stroke="none" stroke-width="1" fill="none" fill-rule="evenodd">
        <g id="Dashboard" transform="translate(-646.000000, -208.000000)">
            <path d="M649,167.5 C647.067003,167.5 645.5,169.067003 645.5,171 L645.5,563 C645.5,564.932997 647.067003,566.5 649,566.5 L1231,566.5 C1232.933,566.5 1234.5,564.932997 1234.5,563 L1234.5,171 C1234.5,169.067003 1232.933,167.5 1231,167.5 L649,167.5 Z" id="Rectangle-24-Copy-2" stroke="#D8DDE6" fill="#FFFFFF"></path>
            <path d="M645.005711,537.5 L1235.00571,537.5" id="Line-4-Copy-35" stroke="#D8DDE6" stroke-linecap="square"></path>
            <g id="Group-15-Copy-2" transform="translate(646.000000, 209.000000)" fill="#F7F9FB">
                <rect id="Rectangle-4-Copy-3" x="0" y="0" width="588" height="49"></rect>
            </g>
            <g id="Group-32" transform="translate(663.000000, 216.000000)">
                <g id="Group-21-Copy-8" transform="translate(425.000000, 0.000000)">
                    <g id="Group-17" fill="#FFFFFF" stroke="#D8DDE6">
                        <g id="Back-Copy">
                            <rect id="Rectangle-153" x="0.5" y="0.5" width="130" height="31" rx="3"></rect>
                        </g>
                    </g>
                    <path d="M112.329034,15 L121.284426,15 C121.537403,15 121.714487,15.325 121.512105,15.55 L117.1356,20.85 C116.983814,21.05 116.654943,21.05 116.503157,20.85 L112.076056,15.55 C111.898972,15.325 112.050759,15 112.329034,15" id="down" fill="#061C3F"></path>
                    <text id="Last-30-days" font-family="SalesforceSans-Regular, Salesforce Sans" font-size="12" font-weight="normal" fill="#16325C">
                        <tspan x="9" y="21">Last 30 days</tspan>
                    </text>
                </g>
                <g id="Group-21-Copy-5" transform="translate(149.000000, 0.000000)">
                    <g id="Group-17" fill="#FFFFFF" stroke="#D8DDE6">
                        <g id="Back-Copy">
                            <rect id="Rectangle-153" x="0.5" y="0.5" width="173" height="31" rx="3"></rect>
                        </g>
                    </g>
                    <path d="M153.329034,15 L162.284426,15 C162.537403,15 162.714487,15.325 162.512105,15.55 L158.1356,20.85 C157.983814,21.05 157.654943,21.05 157.503157,20.85 L153.076056,15.55 C152.898972,15.325 153.050759,15 153.329034,15" id="down" fill="#061C3F"></path>
                    <text id="By-Impressions" font-family="SalesforceSans-Regular, Salesforce Sans" font-size="12" font-weight="normal" fill="#16325C">
                        <tspan x="9" y="21">By Impressions</tspan>
                    </text>
                </g>
                <g id="Group-21-Copy-7">
                    <g id="Group-17" fill="#FFFFFF" stroke="#D8DDE6">
                        <g id="Back-Copy">
                            <rect id="Rectangle-153" x="0.5" y="0.5" width="140" height="31" rx="3"></rect>
                        </g>
                    </g>
                    <path d="M121.329034,15 L130.284426,15 C130.537403,15 130.714487,15.325 130.512105,15.55 L126.1356,20.85 C125.983814,21.05 125.654943,21.05 125.503157,20.85 L121.076056,15.55 C120.898972,15.325 121.050759,15 121.329034,15" id="down" fill="#061C3F"></path>
                    <text id="Top-5" font-family="SalesforceSans-Regular, Salesforce Sans" font-size="12" font-weight="normal" fill="#16325C">
                        <tspan x="12" y="21">Top 5</tspan>
                    </text>
                </g>
            </g>
            <g id="Group-7" transform="translate(373.000000, 514.000000)">
                <g id="Back-Copy"></g>
            </g>
            <text id="View-All-Segments" font-family="SalesforceSans-Regular, Salesforce Sans" font-size="12" font-weight="normal" line-spacing="17" fill="#0070D2">
                <tspan x="888.838" y="554">View All Segments</tspan>
            </text>
            <text id="5.2M-Copy-2" font-family="SalesforceSans-Regular, Salesforce Sans" font-size="13" font-weight="normal" line-spacing="17" fill="#16325C">
                <tspan x="1177.67" y="310">5.2M</tspan>
            </text>
            <text id="4M-Copy-2" font-family="SalesforceSans-Regular, Salesforce Sans" font-size="13" font-weight="normal" line-spacing="17" fill="#16325C">
                <tspan x="1189.071" y="408">4M</tspan>
            </text>
            <text id="4.7M-Copy-2" font-family="SalesforceSans-Regular, Salesforce Sans" font-size="13" font-weight="normal" line-spacing="17" fill="#16325C">
                <tspan x="1177.67" y="359">4.7M</tspan>
            </text>
            <text id="3.7M-Copy-2" font-family="SalesforceSans-Regular, Salesforce Sans" font-size="13" font-weight="normal" line-spacing="17" fill="#16325C">
                <tspan x="1177.67" y="458">3.7M</tspan>
            </text>
            <text id="2.3M-Copy-2" font-family="SalesforceSans-Regular, Salesforce Sans" font-size="13" font-weight="normal" line-spacing="17" fill="#16325C">
                <tspan x="1177.67" y="507">2.3M</tspan>
            </text>
            <text id="SEGMENTS" font-family="SalesforceSans-Regular, Salesforce Sans" font-size="12" font-weight="normal" line-spacing="17" fill="#54698D">
                <tspan x="663" y="279">SEGMENTS</tspan>
            </text>
            <text id="IMPRESSIONS" font-family="SalesforceSans-Regular, Salesforce Sans" font-size="12" font-weight="normal" line-spacing="17" fill="#54698D">
                <tspan x="1135" y="279">IMPRESSIONS</tspan>
            </text>
            <g id="Group-40" transform="translate(663.000000, 493.000000)">
                <path d="M3,26 L185.584227,26" id="Line-4-Copy-18" stroke="#70ABEA" stroke-width="7" stroke-linecap="round"></path>
                <g id="Group-5-Copy-3" fill="#0070D2" font-family="SalesforceSans-Regular, Salesforce Sans" font-size="13" font-weight="normal" line-spacing="17">
                    <text id="Early_adopters">
                        <tspan x="0" y="13">Early_adopters</tspan>
                    </text>
                </g>
            </g>
            <g id="Group-44" transform="translate(663.000000, 297.000000)">
                <text id="Gold-Customers_2018_" font-family="SalesforceSans-Regular, Salesforce Sans" font-size="13" font-weight="normal" line-spacing="17" fill="#0070D2">
                    <tspan x="18" y="13">Gold Customers_2018_High propensity shoppers</tspan>
                </text>
                <path d="M6,3 C2.7027027,3 0,5.7027027 0,9 C0,12.2972973 2.7027027,15 6,15 C9.2972973,15 12,12.2972973 12,9 C12,5.7027027 9.2972973,3 6,3 Z M8.27027027,6.89189189 C8.27027027,7.05405405 8.05405405,7.27027027 7.89189189,7.27027027 L5.51351351,7.27027027 C5.35135135,7.27027027 5.24324324,7.37837838 5.24324324,7.48648649 L5.24324324,8.02702703 C5.24324324,8.13513514 5.35135135,8.24324324 5.51351351,8.24324324 L6.48648649,8.24324324 C7.45945946,8.24324324 8.27027027,9 8.27027027,9.97297297 L8.27027027,10.5135135 C8.27027027,11.4864865 7.45945946,12.2432432 6.48648649,12.2432432 L6.75675676,12.2432432 L6.75675676,12.7297297 C6.75675676,13 6.54054054,13.2162162 6.27027027,13.2162162 C6,13.2162162 5.72972973,13 5.72972973,12.7297297 L5.72972973,12.2432432 L4.10810811,12.2432432 C3.94594595,12.2432432 3.72972973,12.0810811 3.72972973,11.8648649 L3.72972973,11.1081081 C3.72972973,10.9459459 3.94594595,10.7297297 4.10810811,10.7297297 L6.48648649,10.7297297 C6.64864865,10.7297297 6.75675676,10.6216216 6.75675676,10.5135135 L6.75675676,9.97297297 C6.75675676,9.86486486 6.64864865,9.75675676 6.48648649,9.75675676 L5.51351351,9.75675676 C4.54054054,9.75675676 3.72972973,9 3.72972973,8.02702703 L3.72972973,7.48648649 C3.72972973,6.51351351 4.54054054,5.75675676 5.51351351,5.75675676 L5.72972973,5.75675676 L5.72972973,5.27027027 C5.72972973,5 6,4.78378378 6.27027027,4.78378378 C6.54054054,4.78378378 6.75675676,5 6.75675676,5.27027027 L6.75675676,5.75675676 L7.89189189,5.75675676 C8.05405405,5.75675676 8.27027027,5.91891892 8.27027027,6.13513514 L8.27027027,6.89189189 Z" id="Shape-Copy-4" fill="#73ACE8"></path>
                <path d="M3,29 L361.62585,29" id="Line-4-Copy-11" stroke="#70ABEA" stroke-width="7" stroke-linecap="round"></path>
            </g>
            <g id="Group-43" transform="translate(663.000000, 350.500000)">
                <text id="In-Market_2017_poten" font-family="SalesforceSans-Regular, Salesforce Sans" font-size="13" font-weight="normal" line-spacing="17" fill="#0070D2">
                    <tspan x="0" y="13">In-Market_2017_potential target</tspan>
                </text>
                <path d="M3,26 L307.526271,26" id="Line-4-Copy-12" stroke="#70ABEA" stroke-width="7" stroke-linecap="round"></path>
            </g>
            <g id="Group-41" transform="translate(663.000000, 445.500000)">
                <text id="Multistrada-Interest" font-family="SalesforceSans-Regular, Salesforce Sans" font-size="13" font-weight="normal" line-spacing="17" fill="#0070D2">
                    <tspan x="0" y="13">Multistrada Interest List 2018</tspan>
                </text>
                <path d="M3,26 L269.608327,26" id="Line-4-Copy-13" stroke="#70ABEA" stroke-width="7" stroke-linecap="round"></path>
            </g>
            <g id="Group-42" transform="translate(663.000000, 398.000000)">
                <path d="M6,2 C2.7027027,2 0,4.7027027 0,8 C0,11.2972973 2.7027027,14 6,14 C9.2972973,14 12,11.2972973 12,8 C12,4.7027027 9.2972973,2 6,2 Z M8.27027027,5.89189189 C8.27027027,6.05405405 8.05405405,6.27027027 7.89189189,6.27027027 L5.51351351,6.27027027 C5.35135135,6.27027027 5.24324324,6.37837838 5.24324324,6.48648649 L5.24324324,7.02702703 C5.24324324,7.13513514 5.35135135,7.24324324 5.51351351,7.24324324 L6.48648649,7.24324324 C7.45945946,7.24324324 8.27027027,8 8.27027027,8.97297297 L8.27027027,9.51351351 C8.27027027,10.4864865 7.45945946,11.2432432 6.48648649,11.2432432 L6.75675676,11.2432432 L6.75675676,11.7297297 C6.75675676,12 6.54054054,12.2162162 6.27027027,12.2162162 C6,12.2162162 5.72972973,12 5.72972973,11.7297297 L5.72972973,11.2432432 L4.10810811,11.2432432 C3.94594595,11.2432432 3.72972973,11.0810811 3.72972973,10.8648649 L3.72972973,10.1081081 C3.72972973,9.94594595 3.94594595,9.72972973 4.10810811,9.72972973 L6.48648649,9.72972973 C6.64864865,9.72972973 6.75675676,9.62162162 6.75675676,9.51351351 L6.75675676,8.97297297 C6.75675676,8.86486486 6.64864865,8.75675676 6.48648649,8.75675676 L5.51351351,8.75675676 C4.54054054,8.75675676 3.72972973,8 3.72972973,7.02702703 L3.72972973,6.48648649 C3.72972973,5.51351351 4.54054054,4.75675676 5.51351351,4.75675676 L5.72972973,4.75675676 L5.72972973,4.27027027 C5.72972973,4 6,3.78378378 6.27027027,3.78378378 C6.54054054,3.78378378 6.75675676,4 6.75675676,4.27027027 L6.75675676,4.75675676 L7.89189189,4.75675676 C8.05405405,4.75675676 8.27027027,4.91891892 8.27027027,5.13513514 L8.27027027,5.89189189 Z" id="Shape-Copy-5" fill="#73ACE8"></path>
                <text id="Ducati_loyalists" font-family="SalesforceSans-Regular, Salesforce Sans" font-size="13" font-weight="normal" line-spacing="17" fill="#0070D2">
                    <tspan x="18" y="13">Ducati_loyalists</tspan>
                </text>
                <path d="M3,26 L289.111866,26" id="Line-4-Copy-20" stroke="#70ABEA" stroke-width="7" stroke-linecap="round"></path>
            </g>
        </g>
    </g>
</svg>