<svg xmlns="http://www.w3.org/2000/svg" xmlns:xlink="http://www.w3.org/1999/xlink" width="1227" height="450" viewBox="0 0 1227 450">
  <defs>
    <rect id="all-personas_persona-01-a" width="42" height="32" rx="4"/>
    <rect id="all-personas_persona-01-b" width="35" height="32" x="1155" rx="4"/>
    <rect id="all-personas_persona-01-c" width="59" height="32" rx="4"/>
    <rect id="all-personas_persona-01-d" width="59" height="32" x="67" rx="4"/>
    <rect id="all-personas_persona-01-e" width="42" height="32" rx="4"/>
    <path id="all-personas_persona-01-f" d="M68,0 L327,0 L327,0 C328.656854,-3.04359188e-16 330,1.34314575 330,3 L330,29 L330,29 C330,30.6568542 328.656854,32 327,32 L68,32 L68,0 Z"/>
    <path id="all-personas_persona-01-g" d="M8.52651283e-14,0 L67,-4.25061462e-16 L67,-4.4408921e-16 C68.6568542,-8.1063628e-15 70,1.34314575 70,3 L70,29 L70,29 C70,30.6568542 68.6568542,32 67,32 L8.52651283e-14,32 L8.52651283e-14,0 Z"/>
  </defs>
  <g fill="none" fill-rule="evenodd" transform="translate(-46 -954)">
    <path stroke="#FFF" stroke-linecap="square" stroke-width="2" d="M48.5,956 L1271.21634,956"/>
    <path stroke="#E0E5EE" stroke-linecap="square" d="M46,953.934066 L1272.34681,953.934066"/>
    <g transform="translate(418 965)">
      <use fill="#E1E7EC" xlink:href="#all-personas_persona-01-a"/>
      <rect width="41" height="31" x=".5" y=".5" stroke="#CCD3D9" rx="4"/>
      <path fill="#63859B" d="M14.8,0.533333333 L1.2,0.533333333 C0.733333333,0.533333333 0.466666667,1.06666667 0.8,1.4 L6.8,8.4 C6.93333333,8.6 7.06666667,8.93333333 7.06666667,9.2 L7.06666667,13.6666667 C7.06666667,13.8666667 7.26666667,14.1333333 7.53333333,14.1333333 L8.46666667,14.1333333 C8.73333333,14.1333333 8.93333333,13.8666667 8.93333333,13.6666667 L8.93333333,9.2 C8.93333333,8.93333333 9,8.6 9.2,8.4 L15.2,1.4 C15.5333333,1.06666667 15.2666667,0.533333333 14.8,0.533333333 L14.8,0.533333333 Z" transform="translate(5 9)"/>
      <text fill="#7A8289" font-family="SalesforceSans-Regular, Salesforce Sans" font-size="12">
        <tspan x="27" y="21">0</tspan>
      </text>
    </g>
    <rect width="1224" height="852" x="48" y="954" fill="#FFF"/>
    <path stroke="#D8DDE6" stroke-linecap="square" d="M1271,1163.5 L49,1163.5"/>
    <path fill="#54698D" d="M6.98493024,4.96363636 C5.75995949,4.96363636 4.80720445,5.85454545 4.80720445,7 C4.80720445,8.14545455 5.75995949,9.1 6.98493024,9.1 C8.209901,9.1 9.23070997,8.14545455 9.23070997,7 C9.23070997,5.85454545 8.209901,4.96363636 6.98493024,4.96363636 Z M13.5861615,8.90909091 L12.4292447,7.95454545 C12.4972987,7.63636364 12.5653526,7.31818182 12.5653526,7 C12.5653526,6.68181818 12.4972987,6.3 12.4292447,5.98181818 L13.5861615,5.09090909 C13.9944851,4.77272727 14.130593,4.26363636 13.8583773,3.81818182 L13.3819998,2.99090909 C13.177838,2.73636364 12.8375683,2.54545455 12.4292447,2.54545455 C12.2931369,2.54545455 12.2250829,2.54545455 12.0889751,2.60909091 L10.6598425,3.11818182 C10.1154111,2.60909091 9.43487176,2.29090909 8.82238638,2.1 L8.55017066,0.7 C8.48211673,0.254545455 8.00573921,0 7.52936169,0 L6.50855273,0 C6.03217521,0 5.55579769,0.254545455 5.48774376,0.7 L5.21552804,2.03636364 C4.53498873,2.29090909 3.92250335,2.60909091 3.31001797,3.05454545 L1.88088542,2.54545455 C1.74477756,2.54545455 1.67672363,2.48181818 1.54061577,2.48181818 C1.20034611,2.48181818 0.860076458,2.67272727 0.655914665,2.99090909 L0.111483218,3.81818182 C-0.0926785752,4.2 -0.0246246443,4.70909091 0.383698941,5.02727273 L1.54061577,5.91818182 C1.47256184,6.23636364 1.47256184,6.61818182 1.47256184,6.93636364 C1.47256184,7.31818182 1.47256184,7.63636364 1.54061577,7.95454545 L0.383698941,8.84545455 C0.0434292867,9.16363636 -0.0926785752,9.67272727 0.111483218,10.0545455 L0.655914665,10.8818182 C0.860076458,11.2 1.20034611,11.3909091 1.54061577,11.3909091 C1.67672363,11.3909091 1.81283149,11.3272727 1.88088542,11.3272727 L3.31001797,10.8181818 C3.92250335,11.2636364 4.53498873,11.5818182 5.21552804,11.8363636 L5.41968983,13.2363636 C5.55579769,13.6818182 5.96412128,14 6.50855273,14 L7.46130776,14 C8.00573921,14 8.41406279,13.6818182 8.55017066,13.1727273 L8.75433245,11.7727273 C9.50292569,11.5818182 10.183465,11.2 10.7278964,10.6909091 L12.0889751,11.2 C12.2250829,11.2 12.2931369,11.2636364 12.4292447,11.2636364 C12.8375683,11.2636364 13.177838,11.0727273 13.3819998,10.8181818 L13.8583773,10.0545455 C14.130593,9.67272727 13.9944851,9.16363636 13.5861615,8.90909091 L13.5861615,8.90909091 Z M6.98493024,10.2454545 C5.07942018,10.2454545 3.5822337,8.84545455 3.5822337,7 C3.5822337,5.15454545 5.07942018,3.81818182 6.98493024,3.81818182 C8.89044031,3.81818182 10.4556807,5.21818182 10.4556807,7 C10.4556807,8.78181818 8.95849424,10.2454545 6.98493024,10.2454545 L6.98493024,10.2454545 Z" transform="translate(1237 1178)"/>
    <path fill="#54698D" d="M6.98493024,4.96363636 C5.75995949,4.96363636 4.80720445,5.85454545 4.80720445,7 C4.80720445,8.14545455 5.75995949,9.1 6.98493024,9.1 C8.209901,9.1 9.23070997,8.14545455 9.23070997,7 C9.23070997,5.85454545 8.209901,4.96363636 6.98493024,4.96363636 Z M13.5861615,8.90909091 L12.4292447,7.95454545 C12.4972987,7.63636364 12.5653526,7.31818182 12.5653526,7 C12.5653526,6.68181818 12.4972987,6.3 12.4292447,5.98181818 L13.5861615,5.09090909 C13.9944851,4.77272727 14.130593,4.26363636 13.8583773,3.81818182 L13.3819998,2.99090909 C13.177838,2.73636364 12.8375683,2.54545455 12.4292447,2.54545455 C12.2931369,2.54545455 12.2250829,2.54545455 12.0889751,2.60909091 L10.6598425,3.11818182 C10.1154111,2.60909091 9.43487176,2.29090909 8.82238638,2.1 L8.55017066,0.7 C8.48211673,0.254545455 8.00573921,0 7.52936169,0 L6.50855273,0 C6.03217521,0 5.55579769,0.254545455 5.48774376,0.7 L5.21552804,2.03636364 C4.53498873,2.29090909 3.92250335,2.60909091 3.31001797,3.05454545 L1.88088542,2.54545455 C1.74477756,2.54545455 1.67672363,2.48181818 1.54061577,2.48181818 C1.20034611,2.48181818 0.860076458,2.67272727 0.655914665,2.99090909 L0.111483218,3.81818182 C-0.0926785752,4.2 -0.0246246443,4.70909091 0.383698941,5.02727273 L1.54061577,5.91818182 C1.47256184,6.23636364 1.47256184,6.61818182 1.47256184,6.93636364 C1.47256184,7.31818182 1.47256184,7.63636364 1.54061577,7.95454545 L0.383698941,8.84545455 C0.0434292867,9.16363636 -0.0926785752,9.67272727 0.111483218,10.0545455 L0.655914665,10.8818182 C0.860076458,11.2 1.20034611,11.3909091 1.54061577,11.3909091 C1.67672363,11.3909091 1.81283149,11.3272727 1.88088542,11.3272727 L3.31001797,10.8181818 C3.92250335,11.2636364 4.53498873,11.5818182 5.21552804,11.8363636 L5.41968983,13.2363636 C5.55579769,13.6818182 5.96412128,14 6.50855273,14 L7.46130776,14 C8.00573921,14 8.41406279,13.6818182 8.55017066,13.1727273 L8.75433245,11.7727273 C9.50292569,11.5818182 10.183465,11.2 10.7278964,10.6909091 L12.0889751,11.2 C12.2250829,11.2 12.2931369,11.2636364 12.4292447,11.2636364 C12.8375683,11.2636364 13.177838,11.0727273 13.3819998,10.8181818 L13.8583773,10.0545455 C14.130593,9.67272727 13.9944851,9.16363636 13.5861615,8.90909091 L13.5861615,8.90909091 Z M6.98493024,10.2454545 C5.07942018,10.2454545 3.5822337,8.84545455 3.5822337,7 C3.5822337,5.15454545 5.07942018,3.81818182 6.98493024,3.81818182 C8.89044031,3.81818182 10.4556807,5.21818182 10.4556807,7 C10.4556807,8.78181818 8.95849424,10.2454545 6.98493024,10.2454545 L6.98493024,10.2454545 Z" transform="translate(1237 1375)"/>
    <path fill="#54698D" d="M6.98493024,4.96363636 C5.75995949,4.96363636 4.80720445,5.85454545 4.80720445,7 C4.80720445,8.14545455 5.75995949,9.1 6.98493024,9.1 C8.209901,9.1 9.23070997,8.14545455 9.23070997,7 C9.23070997,5.85454545 8.209901,4.96363636 6.98493024,4.96363636 Z M13.5861615,8.90909091 L12.4292447,7.95454545 C12.4972987,7.63636364 12.5653526,7.31818182 12.5653526,7 C12.5653526,6.68181818 12.4972987,6.3 12.4292447,5.98181818 L13.5861615,5.09090909 C13.9944851,4.77272727 14.130593,4.26363636 13.8583773,3.81818182 L13.3819998,2.99090909 C13.177838,2.73636364 12.8375683,2.54545455 12.4292447,2.54545455 C12.2931369,2.54545455 12.2250829,2.54545455 12.0889751,2.60909091 L10.6598425,3.11818182 C10.1154111,2.60909091 9.43487176,2.29090909 8.82238638,2.1 L8.55017066,0.7 C8.48211673,0.254545455 8.00573921,0 7.52936169,0 L6.50855273,0 C6.03217521,0 5.55579769,0.254545455 5.48774376,0.7 L5.21552804,2.03636364 C4.53498873,2.29090909 3.92250335,2.60909091 3.31001797,3.05454545 L1.88088542,2.54545455 C1.74477756,2.54545455 1.67672363,2.48181818 1.54061577,2.48181818 C1.20034611,2.48181818 0.860076458,2.67272727 0.655914665,2.99090909 L0.111483218,3.81818182 C-0.0926785752,4.2 -0.0246246443,4.70909091 0.383698941,5.02727273 L1.54061577,5.91818182 C1.47256184,6.23636364 1.47256184,6.61818182 1.47256184,6.93636364 C1.47256184,7.31818182 1.47256184,7.63636364 1.54061577,7.95454545 L0.383698941,8.84545455 C0.0434292867,9.16363636 -0.0926785752,9.67272727 0.111483218,10.0545455 L0.655914665,10.8818182 C0.860076458,11.2 1.20034611,11.3909091 1.54061577,11.3909091 C1.67672363,11.3909091 1.81283149,11.3272727 1.88088542,11.3272727 L3.31001797,10.8181818 C3.92250335,11.2636364 4.53498873,11.5818182 5.21552804,11.8363636 L5.41968983,13.2363636 C5.55579769,13.6818182 5.96412128,14 6.50855273,14 L7.46130776,14 C8.00573921,14 8.41406279,13.6818182 8.55017066,13.1727273 L8.75433245,11.7727273 C9.50292569,11.5818182 10.183465,11.2 10.7278964,10.6909091 L12.0889751,11.2 C12.2250829,11.2 12.2931369,11.2636364 12.4292447,11.2636364 C12.8375683,11.2636364 13.177838,11.0727273 13.3819998,10.8181818 L13.8583773,10.0545455 C14.130593,9.67272727 13.9944851,9.16363636 13.5861615,8.90909091 L13.5861615,8.90909091 Z M6.98493024,10.2454545 C5.07942018,10.2454545 3.5822337,8.84545455 3.5822337,7 C3.5822337,5.15454545 5.07942018,3.81818182 6.98493024,3.81818182 C8.89044031,3.81818182 10.4556807,5.21818182 10.4556807,7 C10.4556807,8.78181818 8.95849424,10.2454545 6.98493024,10.2454545 L6.98493024,10.2454545 Z" transform="translate(1237 1279)"/>
    <path fill="#54698D" d="M6.98493024,4.96363636 C5.75995949,4.96363636 4.80720445,5.85454545 4.80720445,7 C4.80720445,8.14545455 5.75995949,9.1 6.98493024,9.1 C8.209901,9.1 9.23070997,8.14545455 9.23070997,7 C9.23070997,5.85454545 8.209901,4.96363636 6.98493024,4.96363636 Z M13.5861615,8.90909091 L12.4292447,7.95454545 C12.4972987,7.63636364 12.5653526,7.31818182 12.5653526,7 C12.5653526,6.68181818 12.4972987,6.3 12.4292447,5.98181818 L13.5861615,5.09090909 C13.9944851,4.77272727 14.130593,4.26363636 13.8583773,3.81818182 L13.3819998,2.99090909 C13.177838,2.73636364 12.8375683,2.54545455 12.4292447,2.54545455 C12.2931369,2.54545455 12.2250829,2.54545455 12.0889751,2.60909091 L10.6598425,3.11818182 C10.1154111,2.60909091 9.43487176,2.29090909 8.82238638,2.1 L8.55017066,0.7 C8.48211673,0.254545455 8.00573921,0 7.52936169,0 L6.50855273,0 C6.03217521,0 5.55579769,0.254545455 5.48774376,0.7 L5.21552804,2.03636364 C4.53498873,2.29090909 3.92250335,2.60909091 3.31001797,3.05454545 L1.88088542,2.54545455 C1.74477756,2.54545455 1.67672363,2.48181818 1.54061577,2.48181818 C1.20034611,2.48181818 0.860076458,2.67272727 0.655914665,2.99090909 L0.111483218,3.81818182 C-0.0926785752,4.2 -0.0246246443,4.70909091 0.383698941,5.02727273 L1.54061577,5.91818182 C1.47256184,6.23636364 1.47256184,6.61818182 1.47256184,6.93636364 C1.47256184,7.31818182 1.47256184,7.63636364 1.54061577,7.95454545 L0.383698941,8.84545455 C0.0434292867,9.16363636 -0.0926785752,9.67272727 0.111483218,10.0545455 L0.655914665,10.8818182 C0.860076458,11.2 1.20034611,11.3909091 1.54061577,11.3909091 C1.67672363,11.3909091 1.81283149,11.3272727 1.88088542,11.3272727 L3.31001797,10.8181818 C3.92250335,11.2636364 4.53498873,11.5818182 5.21552804,11.8363636 L5.41968983,13.2363636 C5.55579769,13.6818182 5.96412128,14 6.50855273,14 L7.46130776,14 C8.00573921,14 8.41406279,13.6818182 8.55017066,13.1727273 L8.75433245,11.7727273 C9.50292569,11.5818182 10.183465,11.2 10.7278964,10.6909091 L12.0889751,11.2 C12.2250829,11.2 12.2931369,11.2636364 12.4292447,11.2636364 C12.8375683,11.2636364 13.177838,11.0727273 13.3819998,10.8181818 L13.8583773,10.0545455 C14.130593,9.67272727 13.9944851,9.16363636 13.5861615,8.90909091 L13.5861615,8.90909091 Z M6.98493024,10.2454545 C5.07942018,10.2454545 3.5822337,8.84545455 3.5822337,7 C3.5822337,5.15454545 5.07942018,3.81818182 6.98493024,3.81818182 C8.89044031,3.81818182 10.4556807,5.21818182 10.4556807,7 C10.4556807,8.78181818 8.95849424,10.2454545 6.98493024,10.2454545 L6.98493024,10.2454545 Z" transform="translate(1237 1127)"/>
    <path fill="#54698D" d="M6.98493024,4.96363636 C5.75995949,4.96363636 4.80720445,5.85454545 4.80720445,7 C4.80720445,8.14545455 5.75995949,9.1 6.98493024,9.1 C8.209901,9.1 9.23070997,8.14545455 9.23070997,7 C9.23070997,5.85454545 8.209901,4.96363636 6.98493024,4.96363636 Z M13.5861615,8.90909091 L12.4292447,7.95454545 C12.4972987,7.63636364 12.5653526,7.31818182 12.5653526,7 C12.5653526,6.68181818 12.4972987,6.3 12.4292447,5.98181818 L13.5861615,5.09090909 C13.9944851,4.77272727 14.130593,4.26363636 13.8583773,3.81818182 L13.3819998,2.99090909 C13.177838,2.73636364 12.8375683,2.54545455 12.4292447,2.54545455 C12.2931369,2.54545455 12.2250829,2.54545455 12.0889751,2.60909091 L10.6598425,3.11818182 C10.1154111,2.60909091 9.43487176,2.29090909 8.82238638,2.1 L8.55017066,0.7 C8.48211673,0.254545455 8.00573921,0 7.52936169,0 L6.50855273,0 C6.03217521,0 5.55579769,0.254545455 5.48774376,0.7 L5.21552804,2.03636364 C4.53498873,2.29090909 3.92250335,2.60909091 3.31001797,3.05454545 L1.88088542,2.54545455 C1.74477756,2.54545455 1.67672363,2.48181818 1.54061577,2.48181818 C1.20034611,2.48181818 0.860076458,2.67272727 0.655914665,2.99090909 L0.111483218,3.81818182 C-0.0926785752,4.2 -0.0246246443,4.70909091 0.383698941,5.02727273 L1.54061577,5.91818182 C1.47256184,6.23636364 1.47256184,6.61818182 1.47256184,6.93636364 C1.47256184,7.31818182 1.47256184,7.63636364 1.54061577,7.95454545 L0.383698941,8.84545455 C0.0434292867,9.16363636 -0.0926785752,9.67272727 0.111483218,10.0545455 L0.655914665,10.8818182 C0.860076458,11.2 1.20034611,11.3909091 1.54061577,11.3909091 C1.67672363,11.3909091 1.81283149,11.3272727 1.88088542,11.3272727 L3.31001797,10.8181818 C3.92250335,11.2636364 4.53498873,11.5818182 5.21552804,11.8363636 L5.41968983,13.2363636 C5.55579769,13.6818182 5.96412128,14 6.50855273,14 L7.46130776,14 C8.00573921,14 8.41406279,13.6818182 8.55017066,13.1727273 L8.75433245,11.7727273 C9.50292569,11.5818182 10.183465,11.2 10.7278964,10.6909091 L12.0889751,11.2 C12.2250829,11.2 12.2931369,11.2636364 12.4292447,11.2636364 C12.8375683,11.2636364 13.177838,11.0727273 13.3819998,10.8181818 L13.8583773,10.0545455 C14.130593,9.67272727 13.9944851,9.16363636 13.5861615,8.90909091 L13.5861615,8.90909091 Z M6.98493024,10.2454545 C5.07942018,10.2454545 3.5822337,8.84545455 3.5822337,7 C3.5822337,5.15454545 5.07942018,3.81818182 6.98493024,3.81818182 C8.89044031,3.81818182 10.4556807,5.21818182 10.4556807,7 C10.4556807,8.78181818 8.95849424,10.2454545 6.98493024,10.2454545 L6.98493024,10.2454545 Z" transform="translate(1237 1329)"/>
    <path fill="#54698D" d="M6.98493024,4.96363636 C5.75995949,4.96363636 4.80720445,5.85454545 4.80720445,7 C4.80720445,8.14545455 5.75995949,9.1 6.98493024,9.1 C8.209901,9.1 9.23070997,8.14545455 9.23070997,7 C9.23070997,5.85454545 8.209901,4.96363636 6.98493024,4.96363636 Z M13.5861615,8.90909091 L12.4292447,7.95454545 C12.4972987,7.63636364 12.5653526,7.31818182 12.5653526,7 C12.5653526,6.68181818 12.4972987,6.3 12.4292447,5.98181818 L13.5861615,5.09090909 C13.9944851,4.77272727 14.130593,4.26363636 13.8583773,3.81818182 L13.3819998,2.99090909 C13.177838,2.73636364 12.8375683,2.54545455 12.4292447,2.54545455 C12.2931369,2.54545455 12.2250829,2.54545455 12.0889751,2.60909091 L10.6598425,3.11818182 C10.1154111,2.60909091 9.43487176,2.29090909 8.82238638,2.1 L8.55017066,0.7 C8.48211673,0.254545455 8.00573921,0 7.52936169,0 L6.50855273,0 C6.03217521,0 5.55579769,0.254545455 5.48774376,0.7 L5.21552804,2.03636364 C4.53498873,2.29090909 3.92250335,2.60909091 3.31001797,3.05454545 L1.88088542,2.54545455 C1.74477756,2.54545455 1.67672363,2.48181818 1.54061577,2.48181818 C1.20034611,2.48181818 0.860076458,2.67272727 0.655914665,2.99090909 L0.111483218,3.81818182 C-0.0926785752,4.2 -0.0246246443,4.70909091 0.383698941,5.02727273 L1.54061577,5.91818182 C1.47256184,6.23636364 1.47256184,6.61818182 1.47256184,6.93636364 C1.47256184,7.31818182 1.47256184,7.63636364 1.54061577,7.95454545 L0.383698941,8.84545455 C0.0434292867,9.16363636 -0.0926785752,9.67272727 0.111483218,10.0545455 L0.655914665,10.8818182 C0.860076458,11.2 1.20034611,11.3909091 1.54061577,11.3909091 C1.67672363,11.3909091 1.81283149,11.3272727 1.88088542,11.3272727 L3.31001797,10.8181818 C3.92250335,11.2636364 4.53498873,11.5818182 5.21552804,11.8363636 L5.41968983,13.2363636 C5.55579769,13.6818182 5.96412128,14 6.50855273,14 L7.46130776,14 C8.00573921,14 8.41406279,13.6818182 8.55017066,13.1727273 L8.75433245,11.7727273 C9.50292569,11.5818182 10.183465,11.2 10.7278964,10.6909091 L12.0889751,11.2 C12.2250829,11.2 12.2931369,11.2636364 12.4292447,11.2636364 C12.8375683,11.2636364 13.177838,11.0727273 13.3819998,10.8181818 L13.8583773,10.0545455 C14.130593,9.67272727 13.9944851,9.16363636 13.5861615,8.90909091 L13.5861615,8.90909091 Z M6.98493024,10.2454545 C5.07942018,10.2454545 3.5822337,8.84545455 3.5822337,7 C3.5822337,5.15454545 5.07942018,3.81818182 6.98493024,3.81818182 C8.89044031,3.81818182 10.4556807,5.21818182 10.4556807,7 C10.4556807,8.78181818 8.95849424,10.2454545 6.98493024,10.2454545 L6.98493024,10.2454545 Z" transform="translate(1237 1228)"/>
    <path stroke="#F2F2F2" stroke-linecap="square" d="M1273.5,1061.00151 L47,1061.00151"/>
    <path stroke="#D8DDE6" stroke-linecap="square" d="M1271 1208.5L49 1208.5M1271 1253.5L49 1253.5M1271 1313.5L49 1313.5M1271 1358.5L49 1358.5M1271 1403.5L49 1403.5"/>
    <text fill="#16325C" font-family="SalesforceSans-Regular, Salesforce Sans" font-size="13">
      <tspan x="468" y="1124">www.hotels.com/hotel-deals • Subscription: America’s Test Kitchen • Memberships: </tspan> <tspan x="468" y="1148">James Beard Foundation • TV: Top Chef • Avg. dining out &gt; $500 per month</tspan>
    </text>
    <text fill="#16325C" font-family="SalesforceSans-Regular, Salesforce Sans" font-size="13">
      <tspan x="468" y="1273">Category: Packages &amp; Flights • New Member • Category: Gift Cards • Category: Hotel </tspan> <tspan x="468" y="1297">Deals • Favorite: Las Vegas</tspan>
    </text>
    <text fill="#16325C" font-family="SalesforceSans-Regular, Salesforce Sans" font-size="13">
      <tspan x="470" y="1193">Memberships: epicurious.com • TV Shows: Great Wild North </tspan>
    </text>
    <text fill="#16325C" font-family="SalesforceSans-Regular, Salesforce Sans" font-size="13">
      <tspan x="470" y="1342">Memberships: Netflix • TV Shows: The Layover</tspan>
    </text>
    <text fill="#16325C" font-family="SalesforceSans-Regular, Salesforce Sans" font-size="13">
      <tspan x="471" y="1239">Category: Gift Cards • New Travelers • Subscription: Travel Magazine</tspan>
    </text>
    <text fill="#16325C" font-family="SalesforceSans-Regular, Salesforce Sans" font-size="13">
      <tspan x="471" y="1388">TV Shows: Passport to Europe • New Travelers</tspan>
    </text>
    <text fill="#0070D2" font-family="SalesforceSans-Regular, Salesforce Sans" font-size="13">
      <tspan x="172" y="1140">Persona 01</tspan>
    </text>
    <g transform="translate(81 1127)">
      <rect width="18" height="17" fill="#E0E5EE" rx="8.5"/>
      <text fill="#16325C" font-family="SalesforceSans-Regular, Salesforce Sans" font-size="10" letter-spacing=".6">
        <tspan x="6" y="12">1</tspan>
      </text>
    </g>
    <g transform="translate(81 1224)">
      <rect width="18" height="17" fill="#E0E5EE" rx="8.5"/>
      <text fill="#16325C" font-family="SalesforceSans-Regular, Salesforce Sans" font-size="10" letter-spacing=".6">
        <tspan x="6" y="12">8</tspan>
      </text>
    </g>
    <g transform="translate(81 1375)">
      <rect width="18" height="17" fill="#E0E5EE" rx="8.5"/>
      <text fill="#16325C" font-family="SalesforceSans-Regular, Salesforce Sans" font-size="10" letter-spacing=".6">
        <tspan x="6" y="12">6</tspan>
      </text>
    </g>
    <g transform="translate(81 1178)">
      <rect width="18" height="17" fill="#E0E5EE" rx="8.5"/>
      <text fill="#16325C" font-family="SalesforceSans-Regular, Salesforce Sans" font-size="10" letter-spacing=".6">
        <tspan x="6" y="12">2</tspan>
      </text>
    </g>
    <text fill="#0070D2" font-family="SalesforceSans-Regular, Salesforce Sans" font-size="13">
      <tspan x="172" y="1193">Persona 02</tspan>
    </text>
    <text fill="#0070D2" font-family="SalesforceSans-Regular, Salesforce Sans" font-size="13">
      <tspan x="173" y="1239">Persona 08</tspan>
    </text>
    <text fill="#0070D2" font-family="SalesforceSans-Regular, Salesforce Sans" font-size="13">
      <tspan x="173" y="1289">Persona 12</tspan>
    </text>
    <text fill="#0070D2" font-family="SalesforceSans-Regular, Salesforce Sans" font-size="13">
      <tspan x="173" y="1344">Persona 49</tspan>
    </text>
    <text fill="#0070D2" font-family="SalesforceSans-Regular, Salesforce Sans" font-size="13">
      <tspan x="173" y="1386">Persona 06</tspan>
    </text>
    <text fill="#16325C" font-family="SalesforceSans-Regular, Salesforce Sans" font-size="13">
      <tspan x="1142.455" y="1140">$ 1.75</tspan>
    </text>
    <text fill="#16325C" font-family="SalesforceSans-Regular, Salesforce Sans" font-size="13">
      <tspan x="1142.455" y="1344">$ 0.85</tspan>
    </text>
    <rect width="1222" height="32" x="49" y="1062" fill="#F7F9FB"/>
    <path stroke="#E0E5EE" stroke-linecap="square" d="M1270.5173,1093.00151 L50,1093.00151"/>
    <text fill="#54698D" font-family="SalesforceSans-Regular, Salesforce Sans" font-size="12">
      <tspan x="173" y="1082">PERSONA</tspan>
    </text>
    <text fill="#54698D" font-family="SalesforceSans-Regular, Salesforce Sans" font-size="12">
      <tspan x="73" y="1082">RANK</tspan>
    </text>
    <text fill="#54698D" font-family="SalesforceSans-Regular, Salesforce Sans" font-size="12">
      <tspan x="468" y="1082">ATTRIBUTES</tspan>
    </text>
    <text fill="#54698D" font-family="SalesforceSans-Regular, Salesforce Sans" font-size="12">
      <tspan x="1135.256" y="1082">CPM ($)</tspan>
    </text>
    <text fill="#16325C" font-family="SalesforceSans-Regular, Salesforce Sans" font-size="13">
      <tspan x="1044.871" y="1193">278,122</tspan>
    </text>
    <text fill="#16325C" font-family="SalesforceSans-Regular, Salesforce Sans" font-size="13">
      <tspan x="1044.871" y="1140">345,427</tspan>
    </text>
    <text fill="#16325C" font-family="SalesforceSans-Regular, Salesforce Sans" font-size="13">
      <tspan x="1044.871" y="1239">186,201</tspan>
    </text>
    <text fill="#16325C" font-family="SalesforceSans-Regular, Salesforce Sans" font-size="13">
      <tspan x="1044.871" y="1289">176,009</tspan>
    </text>
    <text fill="#16325C" font-family="SalesforceSans-Regular, Salesforce Sans" font-size="13">
      <tspan x="1052.801" y="1344">89,913</tspan>
    </text>
    <text fill="#16325C" font-family="SalesforceSans-Regular, Salesforce Sans" font-size="13">
      <tspan x="1052.801" y="1386">78,099</tspan>
    </text>
    <text fill="#54698D" font-family="SalesforceSans-Regular, Salesforce Sans" font-size="12">
      <tspan x="1048" y="1082">DEVICES</tspan>
    </text>
    <path fill="#62849B" d="M1040.36101,1084.89189 L1044.83755,1080.35135 C1045.05415,1080.13514 1045.05415,1079.84685 1044.83755,1079.7027 L1044.18773,1078.98198 C1043.97112,1078.76577 1043.68231,1078.76577 1043.4657,1078.98198 L1041.58845,1080.85586 C1041.37184,1081 1041.01083,1080.92793 1041.01083,1080.56757 L1041.01083,1073.5045 C1041.01083,1073.21622 1040.72202,1073 1040.50542,1073 L1039.49458,1073 C1039.20578,1073 1038.98917,1073.21622 1038.98917,1073.5045 L1038.98917,1080.56757 C1038.98917,1080.85586 1038.62816,1081 1038.41155,1080.78378 L1036.5343,1078.90991 C1036.38989,1078.76577 1036.10108,1078.76577 1035.88448,1078.90991 L1035.16245,1079.7027 C1034.94585,1079.84685 1034.94585,1080.13514 1035.16245,1080.35135 L1039.63899,1084.89189 C1039.8556,1085.03604 1040.1444,1085.03604 1040.36101,1084.89189 Z"/>
    <text fill="#16325C" font-family="SalesforceSans-Regular, Salesforce Sans" font-size="14">
      <tspan x="66" y="1038">175 Personas • Sorted by Devices</tspan>
    </text>
    <polygon fill="#F7F9FB" points="47 954 1272 954 1272 1008 48 1008"/>
    <g transform="translate(64 962)">
      <use fill="#FFF" xlink:href="#all-personas_persona-01-b"/>
      <rect width="34" height="31" x="1155.5" y=".5" stroke="#E1E6EF" rx="4"/>
      <path fill="#54698D" d="M1180.08874,17.4041441 L1179.10622,17.4041441 C1178.8255,17.4041441 1178.61495,17.6146846 1178.61495,17.8954054 L1178.61495,21.1236936 C1178.61495,21.4044143 1178.40441,21.6149549 1178.12369,21.6149549 L1167.45631,21.6149549 C1167.17559,21.6149549 1166.96505,21.4044143 1166.96505,21.1236936 L1166.96505,17.8954054 C1166.96505,17.6146846 1166.7545,17.4041441 1166.47378,17.4041441 L1165.49126,17.4041441 C1165.21054,17.4041441 1165,17.6146846 1165,17.8954054 L1165,22.2465765 C1165,22.9483783 1165.63162,23.5799999 1166.33342,23.5799999 L1179.24658,23.5799999 C1179.94838,23.5799999 1180.58,22.9483783 1180.58,22.2465765 L1180.58,17.8954054 C1180.58,17.6146846 1180.36946,17.4041441 1180.08874,17.4041441 Z M1172.43891,19.5797297 C1172.64944,19.72009 1172.93015,19.72009 1173.14068,19.5797297 L1177.49167,15.1583783 C1177.7022,14.9478378 1177.7022,14.6671171 1177.49167,14.5267567 L1176.86007,13.8249549 C1176.64954,13.6144144 1176.36883,13.6144144 1176.1583,13.8249549 L1174.33369,15.6496396 C1174.12316,15.79 1173.77227,15.7198198 1173.77227,15.3689189 L1173.77227,8.49126126 C1173.77227,8.21054054 1173.49157,8 1173.28103,8 L1172.29855,8 C1172.01784,8 1171.80731,8.21054054 1171.80731,8.49126126 L1171.80731,15.3689189 C1171.80731,15.6496396 1171.45643,15.79 1171.2459,15.5794594 L1169.42129,13.7547747 C1169.28093,13.6144144 1169.00022,13.6144144 1168.78969,13.7547747 L1168.08792,14.5267567 C1167.87739,14.6671171 1167.87739,14.9478378 1168.08792,15.1583783 L1172.43891,19.5797297 L1172.43891,19.5797297 Z"/>
      <g transform="translate(0 2)">
        <g transform="translate(345 1)">
          <g transform="translate(48)">
            <use fill="#FFF" xlink:href="#all-personas_persona-01-c"/>
            <rect width="58" height="31" x=".5" y=".5" stroke="#E1E6EF" rx="4"/>
            <use fill="#FFF" xlink:href="#all-personas_persona-01-d"/>
            <rect width="58" height="31" x="67.5" y=".5" stroke="#E1E6EF" rx="4"/>
            <text fill="#0070D2" font-family="SalesforceSans-Regular, Salesforce Sans" font-size="12">
              <tspan x="15" y="21">Clear</tspan>
            </text>
            <text fill="#0070D2" font-family="SalesforceSans-Regular, Salesforce Sans" font-size="12">
              <tspan x="86" y="21">GO</tspan>
            </text>
          </g>
          <use fill="#FFF" xlink:href="#all-personas_persona-01-e"/>
          <rect width="41" height="31" x=".5" y=".5" stroke="#E1E6EF" rx="4"/>
          <text fill="#63859B" font-family="SalesforceSans-Regular, Salesforce Sans" font-size="12">
            <tspan x="26" y="21">0</tspan>
          </text>
          <path fill="#54698D" d="M20.5732911,10 L9.4267033,10 C9.05012939,10 8.8743949,10.4636364 9.10033924,10.7636364 L13.9706952,16.9545455 C14.1213248,17.1454545 14.1966395,17.4181818 14.1966395,17.6636364 L14.1966395,21.5909091 C14.1966395,21.8090909 14.397479,22 14.5983184,22 L15.3514662,22 C15.5523056,22 15.7029352,21.8090909 15.7029352,21.5909091 L15.7029352,17.6636364 C15.7029352,17.3909091 15.8033549,17.1454545 15.9790894,16.9545455 L20.8996552,10.7636364 C21.1255995,10.4636364 20.9498651,10 20.5732911,10"/>
        </g>
        <use fill="#FFF" xlink:href="#all-personas_persona-01-f"/>
        <path stroke="#E1E6EF" d="M68.5,0.5 L68.5,31.5 L327,31.5 C328.380712,31.5 329.5,30.3807119 329.5,29 L329.5,3 C329.5,1.61928813 328.380712,0.5 327,0.5 L68.5,0.5 Z"/>
        <g transform="matrix(-1 0 0 1 70 0)">
          <use fill="#FFF" xlink:href="#all-personas_persona-01-g"/>
          <path stroke="#D0D2D5" d="M0.5,0.5 L0.5,31.5 L67,31.5 C68.3807119,31.5 69.5,30.3807119 69.5,29 L69.5,3 C69.5,1.61928813 68.3807119,0.5 67,0.5 L0.5,0.5 Z"/>
        </g>
        <text fill="#16325C" font-family="SalesforceSans-Regular, Salesforce Sans" font-size="12">
          <tspan x="10" y="20">Attribute</tspan>
        </text>
        <text fill="#B0B2B4" font-family="SalesforceSans-Regular, Salesforce Sans" font-size="12">
          <tspan x="80" y="20">Search</tspan>
        </text>
      </g>
    </g>
    <rect width="1226" height="891" x="46.5" y="914.5" stroke="#E0E5EE" rx="4"/>
    <path fill="#D8DDE6" d="M1193.85417 1078.96458C1193.85417 1079.1 1193.74583 1079.20833 1193.58333 1079.20833L1191.41667 1079.20833C1191.28125 1079.20833 1191.14583 1079.12708 1191.14583 1078.96458L1191.14583 1078.42292C1191.14583 1078.2875 1191.25417 1078.125 1191.41667 1078.125 1191.55208 1078.125 1191.6875 1078.04375 1191.6875 1077.88125L1191.6875 1076.79792C1191.6875 1076.6625 1191.57917 1076.5 1191.41667 1076.5 1191.28125 1076.5 1191.14583 1076.41875 1191.14583 1076.25625L1191.14583 1075.71458C1191.14583 1075.57917 1191.25417 1075.41667 1191.41667 1075.41667L1193.04167 1075.41667C1193.17708 1075.41667 1193.3125 1075.55208 1193.3125 1075.71458L1193.3125 1077.88125C1193.3125 1078.01667 1193.42083 1078.125 1193.58333 1078.125 1193.71875 1078.125 1193.85417 1078.26042 1193.85417 1078.42292L1193.85417 1078.96458zM1192.5 1073.27708C1192.96042 1073.27708 1193.3125 1073.62917 1193.3125 1074.08958 1193.3125 1074.55 1192.96042 1074.90208 1192.5 1074.90208 1192.03958 1074.90208 1191.6875 1074.55 1191.6875 1074.08958 1191.6875 1073.62917 1192.03958 1073.27708 1192.5 1073.27708L1192.5 1073.27708zM1192.5 1070C1188.89792 1070 1186 1072.89792 1186 1076.5 1186 1080.10208 1188.89792 1083 1192.5 1083 1196.10208 1083 1199 1080.10208 1199 1076.5 1199 1072.89792 1196.10208 1070 1192.5 1070L1192.5 1070zM118.854167 1078.96458C118.854167 1079.1 118.745833 1079.20833 118.583333 1079.20833L116.416667 1079.20833C116.28125 1079.20833 116.145833 1079.12708 116.145833 1078.96458L116.145833 1078.42292C116.145833 1078.2875 116.254167 1078.125 116.416667 1078.125 116.552083 1078.125 116.6875 1078.04375 116.6875 1077.88125L116.6875 1076.79792C116.6875 1076.6625 116.579167 1076.5 116.416667 1076.5 116.28125 1076.5 116.145833 1076.41875 116.145833 1076.25625L116.145833 1075.71458C116.145833 1075.57917 116.254167 1075.41667 116.416667 1075.41667L118.041667 1075.41667C118.177083 1075.41667 118.3125 1075.55208 118.3125 1075.71458L118.3125 1077.88125C118.3125 1078.01667 118.420833 1078.125 118.583333 1078.125 118.71875 1078.125 118.854167 1078.26042 118.854167 1078.42292L118.854167 1078.96458zM117.5 1073.27708C117.960417 1073.27708 118.3125 1073.62917 118.3125 1074.08958 118.3125 1074.55 117.960417 1074.90208 117.5 1074.90208 117.039583 1074.90208 116.6875 1074.55 116.6875 1074.08958 116.6875 1073.62917 117.039583 1073.27708 117.5 1073.27708L117.5 1073.27708zM117.5 1070C113.897917 1070 111 1072.89792 111 1076.5 111 1080.10208 113.897917 1083 117.5 1083 121.102083 1083 124 1080.10208 124 1076.5 124 1072.89792 121.102083 1070 117.5 1070L117.5 1070z"/>
    <g transform="translate(81 1276)">
      <rect width="24" height="17" fill="#E0E5EE" rx="8.5"/>
      <text fill="#16325C" font-family="SalesforceSans-Regular, Salesforce Sans" font-size="10" letter-spacing=".6">
        <tspan x="6" y="12">12</tspan>
      </text>
    </g>
    <g transform="translate(81 1332)">
      <rect width="24" height="17" fill="#E0E5EE" rx="8.5"/>
      <text fill="#16325C" font-family="SalesforceSans-Regular, Salesforce Sans" font-size="10" letter-spacing=".6">
        <tspan x="6" y="12">49</tspan>
      </text>
    </g>
  </g>
</svg>
