<?xml version="1.0" encoding="UTF-8"?>
<svg width="1244px" height="824px" viewBox="0 0 1244 824" version="1.1" xmlns="http://www.w3.org/2000/svg" xmlns:xlink="http://www.w3.org/1999/xlink">
    <!-- Generator: Sketch 50.2 (55047) - http://www.bohemiancoding.com/sketch -->
    <title>insights.einstein-segmentation.bottom</title>
    <desc>Created with Sketch.</desc>
    <defs></defs>
    <g id="Storyboard---5/31" stroke="none" stroke-width="1" fill="none" fill-rule="evenodd">
        <g id="Einstein-Segmentation-Copy" transform="translate(-19.000000, -905.000000)">
            <path d="M20.5,911 L1243.21634,911" id="Line" stroke="#FFFFFF" stroke-width="2" stroke-linecap="square"></path>
            <path d="M23,869.999782 L1261,869.999782 C1263.20914,869.999782 1265,871.790643 1265,873.999782 L1265,908.296703 L19,908.296703 L19,873.999782 C19,871.790643 20.790861,869.999782 23,869.999782 Z" id="Rectangle-17-Copy" fill="#F5F7F8"></path>
            <path d="M18,908.934066 L1244.34681,908.934066" id="Line-Copy-5" stroke="#E0E5EE" stroke-linecap="square"></path>
            <g id="Group-14" transform="translate(390.000000, 920.000000)">
                <rect id="Rectangle-18" stroke="#CCD3D9" fill="#E1E7EC" x="0.5" y="0.5" width="41" height="31" rx="4"></rect>
                <g id="filter" transform="translate(5.000000, 9.000000)" fill="#63859B">
                    <path d="M14.8,0.533333333 L1.2,0.533333333 C0.733333333,0.533333333 0.466666667,1.06666667 0.8,1.4 L6.8,8.4 C6.93333333,8.6 7.06666667,8.93333333 7.06666667,9.2 L7.06666667,13.6666667 C7.06666667,13.8666667 7.26666667,14.1333333 7.53333333,14.1333333 L8.46666667,14.1333333 C8.73333333,14.1333333 8.93333333,13.8666667 8.93333333,13.6666667 L8.93333333,9.2 C8.93333333,8.93333333 9,8.6 9.2,8.4 L15.2,1.4 C15.5333333,1.06666667 15.2666667,0.533333333 14.8,0.533333333 L14.8,0.533333333 Z" id="Shape"></path>
                </g>
                <text id="0" font-family="SalesforceSans-Regular, Salesforce Sans" font-size="12" font-weight="normal" fill="#7A8289">
                    <tspan x="27" y="21">0</tspan>
                </text>
            </g>
            <rect id="Rectangle-16-Copy-2" fill="#FFFFFF" x="20" y="909" width="1224" height="851.914062"></rect>
            <path d="M1264,1111.5 L18,1111.5" id="Line" stroke="#D8DDE6" stroke-linecap="square"></path>
            <g id="Group" transform="translate(1229.000000, 1126.000000)" fill="#54698D">
                <path d="M6.98493024,4.96363636 C5.75995949,4.96363636 4.80720445,5.85454545 4.80720445,7 C4.80720445,8.14545455 5.75995949,9.1 6.98493024,9.1 C8.209901,9.1 9.23070997,8.14545455 9.23070997,7 C9.23070997,5.85454545 8.209901,4.96363636 6.98493024,4.96363636 Z M13.5861615,8.90909091 L12.4292447,7.95454545 C12.4972987,7.63636364 12.5653526,7.31818182 12.5653526,7 C12.5653526,6.68181818 12.4972987,6.3 12.4292447,5.98181818 L13.5861615,5.09090909 C13.9944851,4.77272727 14.130593,4.26363636 13.8583773,3.81818182 L13.3819998,2.99090909 C13.177838,2.73636364 12.8375683,2.54545455 12.4292447,2.54545455 C12.2931369,2.54545455 12.2250829,2.54545455 12.0889751,2.60909091 L10.6598425,3.11818182 C10.1154111,2.60909091 9.43487176,2.29090909 8.82238638,2.1 L8.55017066,0.7 C8.48211673,0.254545455 8.00573921,0 7.52936169,0 L6.50855273,0 C6.03217521,0 5.55579769,0.254545455 5.48774376,0.7 L5.21552804,2.03636364 C4.53498873,2.29090909 3.92250335,2.60909091 3.31001797,3.05454545 L1.88088542,2.54545455 C1.74477756,2.54545455 1.67672363,2.48181818 1.54061577,2.48181818 C1.20034611,2.48181818 0.860076458,2.67272727 0.655914665,2.99090909 L0.111483218,3.81818182 C-0.0926785752,4.2 -0.0246246443,4.70909091 0.383698941,5.02727273 L1.54061577,5.91818182 C1.47256184,6.23636364 1.47256184,6.61818182 1.47256184,6.93636364 C1.47256184,7.31818182 1.47256184,7.63636364 1.54061577,7.95454545 L0.383698941,8.84545455 C0.0434292867,9.16363636 -0.0926785752,9.67272727 0.111483218,10.0545455 L0.655914665,10.8818182 C0.860076458,11.2 1.20034611,11.3909091 1.54061577,11.3909091 C1.67672363,11.3909091 1.81283149,11.3272727 1.88088542,11.3272727 L3.31001797,10.8181818 C3.92250335,11.2636364 4.53498873,11.5818182 5.21552804,11.8363636 L5.41968983,13.2363636 C5.55579769,13.6818182 5.96412128,14 6.50855273,14 L7.46130776,14 C8.00573921,14 8.41406279,13.6818182 8.55017066,13.1727273 L8.75433245,11.7727273 C9.50292569,11.5818182 10.183465,11.2 10.7278964,10.6909091 L12.0889751,11.2 C12.2250829,11.2 12.2931369,11.2636364 12.4292447,11.2636364 C12.8375683,11.2636364 13.177838,11.0727273 13.3819998,10.8181818 L13.8583773,10.0545455 C14.130593,9.67272727 13.9944851,9.16363636 13.5861615,8.90909091 L13.5861615,8.90909091 Z M6.98493024,10.2454545 C5.07942018,10.2454545 3.5822337,8.84545455 3.5822337,7 C3.5822337,5.15454545 5.07942018,3.81818182 6.98493024,3.81818182 C8.89044031,3.81818182 10.4556807,5.21818182 10.4556807,7 C10.4556807,8.78181818 8.95849424,10.2454545 6.98493024,10.2454545 L6.98493024,10.2454545 Z" id="Shape"></path>
            </g>
            <g id="Group-Copy-4" transform="translate(1229.000000, 1323.000000)" fill="#54698D">
                <path d="M6.98493024,4.96363636 C5.75995949,4.96363636 4.80720445,5.85454545 4.80720445,7 C4.80720445,8.14545455 5.75995949,9.1 6.98493024,9.1 C8.209901,9.1 9.23070997,8.14545455 9.23070997,7 C9.23070997,5.85454545 8.209901,4.96363636 6.98493024,4.96363636 Z M13.5861615,8.90909091 L12.4292447,7.95454545 C12.4972987,7.63636364 12.5653526,7.31818182 12.5653526,7 C12.5653526,6.68181818 12.4972987,6.3 12.4292447,5.98181818 L13.5861615,5.09090909 C13.9944851,4.77272727 14.130593,4.26363636 13.8583773,3.81818182 L13.3819998,2.99090909 C13.177838,2.73636364 12.8375683,2.54545455 12.4292447,2.54545455 C12.2931369,2.54545455 12.2250829,2.54545455 12.0889751,2.60909091 L10.6598425,3.11818182 C10.1154111,2.60909091 9.43487176,2.29090909 8.82238638,2.1 L8.55017066,0.7 C8.48211673,0.254545455 8.00573921,0 7.52936169,0 L6.50855273,0 C6.03217521,0 5.55579769,0.254545455 5.48774376,0.7 L5.21552804,2.03636364 C4.53498873,2.29090909 3.92250335,2.60909091 3.31001797,3.05454545 L1.88088542,2.54545455 C1.74477756,2.54545455 1.67672363,2.48181818 1.54061577,2.48181818 C1.20034611,2.48181818 0.860076458,2.67272727 0.655914665,2.99090909 L0.111483218,3.81818182 C-0.0926785752,4.2 -0.0246246443,4.70909091 0.383698941,5.02727273 L1.54061577,5.91818182 C1.47256184,6.23636364 1.47256184,6.61818182 1.47256184,6.93636364 C1.47256184,7.31818182 1.47256184,7.63636364 1.54061577,7.95454545 L0.383698941,8.84545455 C0.0434292867,9.16363636 -0.0926785752,9.67272727 0.111483218,10.0545455 L0.655914665,10.8818182 C0.860076458,11.2 1.20034611,11.3909091 1.54061577,11.3909091 C1.67672363,11.3909091 1.81283149,11.3272727 1.88088542,11.3272727 L3.31001797,10.8181818 C3.92250335,11.2636364 4.53498873,11.5818182 5.21552804,11.8363636 L5.41968983,13.2363636 C5.55579769,13.6818182 5.96412128,14 6.50855273,14 L7.46130776,14 C8.00573921,14 8.41406279,13.6818182 8.55017066,13.1727273 L8.75433245,11.7727273 C9.50292569,11.5818182 10.183465,11.2 10.7278964,10.6909091 L12.0889751,11.2 C12.2250829,11.2 12.2931369,11.2636364 12.4292447,11.2636364 C12.8375683,11.2636364 13.177838,11.0727273 13.3819998,10.8181818 L13.8583773,10.0545455 C14.130593,9.67272727 13.9944851,9.16363636 13.5861615,8.90909091 L13.5861615,8.90909091 Z M6.98493024,10.2454545 C5.07942018,10.2454545 3.5822337,8.84545455 3.5822337,7 C3.5822337,5.15454545 5.07942018,3.81818182 6.98493024,3.81818182 C8.89044031,3.81818182 10.4556807,5.21818182 10.4556807,7 C10.4556807,8.78181818 8.95849424,10.2454545 6.98493024,10.2454545 L6.98493024,10.2454545 Z" id="Shape"></path>
            </g>
            <g id="Group-Copy-8" transform="translate(1229.000000, 1594.000000)" fill="#54698D">
                <path d="M6.98493024,4.96363636 C5.75995949,4.96363636 4.80720445,5.85454545 4.80720445,7 C4.80720445,8.14545455 5.75995949,9.1 6.98493024,9.1 C8.209901,9.1 9.23070997,8.14545455 9.23070997,7 C9.23070997,5.85454545 8.209901,4.96363636 6.98493024,4.96363636 Z M13.5861615,8.90909091 L12.4292447,7.95454545 C12.4972987,7.63636364 12.5653526,7.31818182 12.5653526,7 C12.5653526,6.68181818 12.4972987,6.3 12.4292447,5.98181818 L13.5861615,5.09090909 C13.9944851,4.77272727 14.130593,4.26363636 13.8583773,3.81818182 L13.3819998,2.99090909 C13.177838,2.73636364 12.8375683,2.54545455 12.4292447,2.54545455 C12.2931369,2.54545455 12.2250829,2.54545455 12.0889751,2.60909091 L10.6598425,3.11818182 C10.1154111,2.60909091 9.43487176,2.29090909 8.82238638,2.1 L8.55017066,0.7 C8.48211673,0.254545455 8.00573921,0 7.52936169,0 L6.50855273,0 C6.03217521,0 5.55579769,0.254545455 5.48774376,0.7 L5.21552804,2.03636364 C4.53498873,2.29090909 3.92250335,2.60909091 3.31001797,3.05454545 L1.88088542,2.54545455 C1.74477756,2.54545455 1.67672363,2.48181818 1.54061577,2.48181818 C1.20034611,2.48181818 0.860076458,2.67272727 0.655914665,2.99090909 L0.111483218,3.81818182 C-0.0926785752,4.2 -0.0246246443,4.70909091 0.383698941,5.02727273 L1.54061577,5.91818182 C1.47256184,6.23636364 1.47256184,6.61818182 1.47256184,6.93636364 C1.47256184,7.31818182 1.47256184,7.63636364 1.54061577,7.95454545 L0.383698941,8.84545455 C0.0434292867,9.16363636 -0.0926785752,9.67272727 0.111483218,10.0545455 L0.655914665,10.8818182 C0.860076458,11.2 1.20034611,11.3909091 1.54061577,11.3909091 C1.67672363,11.3909091 1.81283149,11.3272727 1.88088542,11.3272727 L3.31001797,10.8181818 C3.92250335,11.2636364 4.53498873,11.5818182 5.21552804,11.8363636 L5.41968983,13.2363636 C5.55579769,13.6818182 5.96412128,14 6.50855273,14 L7.46130776,14 C8.00573921,14 8.41406279,13.6818182 8.55017066,13.1727273 L8.75433245,11.7727273 C9.50292569,11.5818182 10.183465,11.2 10.7278964,10.6909091 L12.0889751,11.2 C12.2250829,11.2 12.2931369,11.2636364 12.4292447,11.2636364 C12.8375683,11.2636364 13.177838,11.0727273 13.3819998,10.8181818 L13.8583773,10.0545455 C14.130593,9.67272727 13.9944851,9.16363636 13.5861615,8.90909091 L13.5861615,8.90909091 Z M6.98493024,10.2454545 C5.07942018,10.2454545 3.5822337,8.84545455 3.5822337,7 C3.5822337,5.15454545 5.07942018,3.81818182 6.98493024,3.81818182 C8.89044031,3.81818182 10.4556807,5.21818182 10.4556807,7 C10.4556807,8.78181818 8.95849424,10.2454545 6.98493024,10.2454545 L6.98493024,10.2454545 Z" id="Shape"></path>
            </g>
            <g id="Group-Copy-2" transform="translate(1229.000000, 1227.000000)" fill="#54698D">
                <path d="M6.98493024,4.96363636 C5.75995949,4.96363636 4.80720445,5.85454545 4.80720445,7 C4.80720445,8.14545455 5.75995949,9.1 6.98493024,9.1 C8.209901,9.1 9.23070997,8.14545455 9.23070997,7 C9.23070997,5.85454545 8.209901,4.96363636 6.98493024,4.96363636 Z M13.5861615,8.90909091 L12.4292447,7.95454545 C12.4972987,7.63636364 12.5653526,7.31818182 12.5653526,7 C12.5653526,6.68181818 12.4972987,6.3 12.4292447,5.98181818 L13.5861615,5.09090909 C13.9944851,4.77272727 14.130593,4.26363636 13.8583773,3.81818182 L13.3819998,2.99090909 C13.177838,2.73636364 12.8375683,2.54545455 12.4292447,2.54545455 C12.2931369,2.54545455 12.2250829,2.54545455 12.0889751,2.60909091 L10.6598425,3.11818182 C10.1154111,2.60909091 9.43487176,2.29090909 8.82238638,2.1 L8.55017066,0.7 C8.48211673,0.254545455 8.00573921,0 7.52936169,0 L6.50855273,0 C6.03217521,0 5.55579769,0.254545455 5.48774376,0.7 L5.21552804,2.03636364 C4.53498873,2.29090909 3.92250335,2.60909091 3.31001797,3.05454545 L1.88088542,2.54545455 C1.74477756,2.54545455 1.67672363,2.48181818 1.54061577,2.48181818 C1.20034611,2.48181818 0.860076458,2.67272727 0.655914665,2.99090909 L0.111483218,3.81818182 C-0.0926785752,4.2 -0.0246246443,4.70909091 0.383698941,5.02727273 L1.54061577,5.91818182 C1.47256184,6.23636364 1.47256184,6.61818182 1.47256184,6.93636364 C1.47256184,7.31818182 1.47256184,7.63636364 1.54061577,7.95454545 L0.383698941,8.84545455 C0.0434292867,9.16363636 -0.0926785752,9.67272727 0.111483218,10.0545455 L0.655914665,10.8818182 C0.860076458,11.2 1.20034611,11.3909091 1.54061577,11.3909091 C1.67672363,11.3909091 1.81283149,11.3272727 1.88088542,11.3272727 L3.31001797,10.8181818 C3.92250335,11.2636364 4.53498873,11.5818182 5.21552804,11.8363636 L5.41968983,13.2363636 C5.55579769,13.6818182 5.96412128,14 6.50855273,14 L7.46130776,14 C8.00573921,14 8.41406279,13.6818182 8.55017066,13.1727273 L8.75433245,11.7727273 C9.50292569,11.5818182 10.183465,11.2 10.7278964,10.6909091 L12.0889751,11.2 C12.2250829,11.2 12.2931369,11.2636364 12.4292447,11.2636364 C12.8375683,11.2636364 13.177838,11.0727273 13.3819998,10.8181818 L13.8583773,10.0545455 C14.130593,9.67272727 13.9944851,9.16363636 13.5861615,8.90909091 L13.5861615,8.90909091 Z M6.98493024,10.2454545 C5.07942018,10.2454545 3.5822337,8.84545455 3.5822337,7 C3.5822337,5.15454545 5.07942018,3.81818182 6.98493024,3.81818182 C8.89044031,3.81818182 10.4556807,5.21818182 10.4556807,7 C10.4556807,8.78181818 8.95849424,10.2454545 6.98493024,10.2454545 L6.98493024,10.2454545 Z" id="Shape"></path>
            </g>
            <g id="Group-Copy-9" transform="translate(1229.000000, 1503.000000)" fill="#54698D">
                <path d="M6.98493024,4.96363636 C5.75995949,4.96363636 4.80720445,5.85454545 4.80720445,7 C4.80720445,8.14545455 5.75995949,9.1 6.98493024,9.1 C8.209901,9.1 9.23070997,8.14545455 9.23070997,7 C9.23070997,5.85454545 8.209901,4.96363636 6.98493024,4.96363636 Z M13.5861615,8.90909091 L12.4292447,7.95454545 C12.4972987,7.63636364 12.5653526,7.31818182 12.5653526,7 C12.5653526,6.68181818 12.4972987,6.3 12.4292447,5.98181818 L13.5861615,5.09090909 C13.9944851,4.77272727 14.130593,4.26363636 13.8583773,3.81818182 L13.3819998,2.99090909 C13.177838,2.73636364 12.8375683,2.54545455 12.4292447,2.54545455 C12.2931369,2.54545455 12.2250829,2.54545455 12.0889751,2.60909091 L10.6598425,3.11818182 C10.1154111,2.60909091 9.43487176,2.29090909 8.82238638,2.1 L8.55017066,0.7 C8.48211673,0.254545455 8.00573921,0 7.52936169,0 L6.50855273,0 C6.03217521,0 5.55579769,0.254545455 5.48774376,0.7 L5.21552804,2.03636364 C4.53498873,2.29090909 3.92250335,2.60909091 3.31001797,3.05454545 L1.88088542,2.54545455 C1.74477756,2.54545455 1.67672363,2.48181818 1.54061577,2.48181818 C1.20034611,2.48181818 0.860076458,2.67272727 0.655914665,2.99090909 L0.111483218,3.81818182 C-0.0926785752,4.2 -0.0246246443,4.70909091 0.383698941,5.02727273 L1.54061577,5.91818182 C1.47256184,6.23636364 1.47256184,6.61818182 1.47256184,6.93636364 C1.47256184,7.31818182 1.47256184,7.63636364 1.54061577,7.95454545 L0.383698941,8.84545455 C0.0434292867,9.16363636 -0.0926785752,9.67272727 0.111483218,10.0545455 L0.655914665,10.8818182 C0.860076458,11.2 1.20034611,11.3909091 1.54061577,11.3909091 C1.67672363,11.3909091 1.81283149,11.3272727 1.88088542,11.3272727 L3.31001797,10.8181818 C3.92250335,11.2636364 4.53498873,11.5818182 5.21552804,11.8363636 L5.41968983,13.2363636 C5.55579769,13.6818182 5.96412128,14 6.50855273,14 L7.46130776,14 C8.00573921,14 8.41406279,13.6818182 8.55017066,13.1727273 L8.75433245,11.7727273 C9.50292569,11.5818182 10.183465,11.2 10.7278964,10.6909091 L12.0889751,11.2 C12.2250829,11.2 12.2931369,11.2636364 12.4292447,11.2636364 C12.8375683,11.2636364 13.177838,11.0727273 13.3819998,10.8181818 L13.8583773,10.0545455 C14.130593,9.67272727 13.9944851,9.16363636 13.5861615,8.90909091 L13.5861615,8.90909091 Z M6.98493024,10.2454545 C5.07942018,10.2454545 3.5822337,8.84545455 3.5822337,7 C3.5822337,5.15454545 5.07942018,3.81818182 6.98493024,3.81818182 C8.89044031,3.81818182 10.4556807,5.21818182 10.4556807,7 C10.4556807,8.78181818 8.95849424,10.2454545 6.98493024,10.2454545 L6.98493024,10.2454545 Z" id="Shape"></path>
            </g>
            <g id="Group-Copy-5" transform="translate(1229.000000, 1413.000000)" fill="#54698D">
                <path d="M6.98493024,4.96363636 C5.75995949,4.96363636 4.80720445,5.85454545 4.80720445,7 C4.80720445,8.14545455 5.75995949,9.1 6.98493024,9.1 C8.209901,9.1 9.23070997,8.14545455 9.23070997,7 C9.23070997,5.85454545 8.209901,4.96363636 6.98493024,4.96363636 Z M13.5861615,8.90909091 L12.4292447,7.95454545 C12.4972987,7.63636364 12.5653526,7.31818182 12.5653526,7 C12.5653526,6.68181818 12.4972987,6.3 12.4292447,5.98181818 L13.5861615,5.09090909 C13.9944851,4.77272727 14.130593,4.26363636 13.8583773,3.81818182 L13.3819998,2.99090909 C13.177838,2.73636364 12.8375683,2.54545455 12.4292447,2.54545455 C12.2931369,2.54545455 12.2250829,2.54545455 12.0889751,2.60909091 L10.6598425,3.11818182 C10.1154111,2.60909091 9.43487176,2.29090909 8.82238638,2.1 L8.55017066,0.7 C8.48211673,0.254545455 8.00573921,0 7.52936169,0 L6.50855273,0 C6.03217521,0 5.55579769,0.254545455 5.48774376,0.7 L5.21552804,2.03636364 C4.53498873,2.29090909 3.92250335,2.60909091 3.31001797,3.05454545 L1.88088542,2.54545455 C1.74477756,2.54545455 1.67672363,2.48181818 1.54061577,2.48181818 C1.20034611,2.48181818 0.860076458,2.67272727 0.655914665,2.99090909 L0.111483218,3.81818182 C-0.0926785752,4.2 -0.0246246443,4.70909091 0.383698941,5.02727273 L1.54061577,5.91818182 C1.47256184,6.23636364 1.47256184,6.61818182 1.47256184,6.93636364 C1.47256184,7.31818182 1.47256184,7.63636364 1.54061577,7.95454545 L0.383698941,8.84545455 C0.0434292867,9.16363636 -0.0926785752,9.67272727 0.111483218,10.0545455 L0.655914665,10.8818182 C0.860076458,11.2 1.20034611,11.3909091 1.54061577,11.3909091 C1.67672363,11.3909091 1.81283149,11.3272727 1.88088542,11.3272727 L3.31001797,10.8181818 C3.92250335,11.2636364 4.53498873,11.5818182 5.21552804,11.8363636 L5.41968983,13.2363636 C5.55579769,13.6818182 5.96412128,14 6.50855273,14 L7.46130776,14 C8.00573921,14 8.41406279,13.6818182 8.55017066,13.1727273 L8.75433245,11.7727273 C9.50292569,11.5818182 10.183465,11.2 10.7278964,10.6909091 L12.0889751,11.2 C12.2250829,11.2 12.2931369,11.2636364 12.4292447,11.2636364 C12.8375683,11.2636364 13.177838,11.0727273 13.3819998,10.8181818 L13.8583773,10.0545455 C14.130593,9.67272727 13.9944851,9.16363636 13.5861615,8.90909091 L13.5861615,8.90909091 Z M6.98493024,10.2454545 C5.07942018,10.2454545 3.5822337,8.84545455 3.5822337,7 C3.5822337,5.15454545 5.07942018,3.81818182 6.98493024,3.81818182 C8.89044031,3.81818182 10.4556807,5.21818182 10.4556807,7 C10.4556807,8.78181818 8.95849424,10.2454545 6.98493024,10.2454545 L6.98493024,10.2454545 Z" id="Shape"></path>
            </g>
            <g id="Group-Copy" transform="translate(1229.000000, 1075.000000)" fill="#54698D">
                <path d="M6.98493024,4.96363636 C5.75995949,4.96363636 4.80720445,5.85454545 4.80720445,7 C4.80720445,8.14545455 5.75995949,9.1 6.98493024,9.1 C8.209901,9.1 9.23070997,8.14545455 9.23070997,7 C9.23070997,5.85454545 8.209901,4.96363636 6.98493024,4.96363636 Z M13.5861615,8.90909091 L12.4292447,7.95454545 C12.4972987,7.63636364 12.5653526,7.31818182 12.5653526,7 C12.5653526,6.68181818 12.4972987,6.3 12.4292447,5.98181818 L13.5861615,5.09090909 C13.9944851,4.77272727 14.130593,4.26363636 13.8583773,3.81818182 L13.3819998,2.99090909 C13.177838,2.73636364 12.8375683,2.54545455 12.4292447,2.54545455 C12.2931369,2.54545455 12.2250829,2.54545455 12.0889751,2.60909091 L10.6598425,3.11818182 C10.1154111,2.60909091 9.43487176,2.29090909 8.82238638,2.1 L8.55017066,0.7 C8.48211673,0.254545455 8.00573921,0 7.52936169,0 L6.50855273,0 C6.03217521,0 5.55579769,0.254545455 5.48774376,0.7 L5.21552804,2.03636364 C4.53498873,2.29090909 3.92250335,2.60909091 3.31001797,3.05454545 L1.88088542,2.54545455 C1.74477756,2.54545455 1.67672363,2.48181818 1.54061577,2.48181818 C1.20034611,2.48181818 0.860076458,2.67272727 0.655914665,2.99090909 L0.111483218,3.81818182 C-0.0926785752,4.2 -0.0246246443,4.70909091 0.383698941,5.02727273 L1.54061577,5.91818182 C1.47256184,6.23636364 1.47256184,6.61818182 1.47256184,6.93636364 C1.47256184,7.31818182 1.47256184,7.63636364 1.54061577,7.95454545 L0.383698941,8.84545455 C0.0434292867,9.16363636 -0.0926785752,9.67272727 0.111483218,10.0545455 L0.655914665,10.8818182 C0.860076458,11.2 1.20034611,11.3909091 1.54061577,11.3909091 C1.67672363,11.3909091 1.81283149,11.3272727 1.88088542,11.3272727 L3.31001797,10.8181818 C3.92250335,11.2636364 4.53498873,11.5818182 5.21552804,11.8363636 L5.41968983,13.2363636 C5.55579769,13.6818182 5.96412128,14 6.50855273,14 L7.46130776,14 C8.00573921,14 8.41406279,13.6818182 8.55017066,13.1727273 L8.75433245,11.7727273 C9.50292569,11.5818182 10.183465,11.2 10.7278964,10.6909091 L12.0889751,11.2 C12.2250829,11.2 12.2931369,11.2636364 12.4292447,11.2636364 C12.8375683,11.2636364 13.177838,11.0727273 13.3819998,10.8181818 L13.8583773,10.0545455 C14.130593,9.67272727 13.9944851,9.16363636 13.5861615,8.90909091 L13.5861615,8.90909091 Z M6.98493024,10.2454545 C5.07942018,10.2454545 3.5822337,8.84545455 3.5822337,7 C3.5822337,5.15454545 5.07942018,3.81818182 6.98493024,3.81818182 C8.89044031,3.81818182 10.4556807,5.21818182 10.4556807,7 C10.4556807,8.78181818 8.95849424,10.2454545 6.98493024,10.2454545 L6.98493024,10.2454545 Z" id="Shape"></path>
            </g>
            <g id="Group-Copy-6" transform="translate(1229.000000, 1277.000000)" fill="#54698D">
                <path d="M6.98493024,4.96363636 C5.75995949,4.96363636 4.80720445,5.85454545 4.80720445,7 C4.80720445,8.14545455 5.75995949,9.1 6.98493024,9.1 C8.209901,9.1 9.23070997,8.14545455 9.23070997,7 C9.23070997,5.85454545 8.209901,4.96363636 6.98493024,4.96363636 Z M13.5861615,8.90909091 L12.4292447,7.95454545 C12.4972987,7.63636364 12.5653526,7.31818182 12.5653526,7 C12.5653526,6.68181818 12.4972987,6.3 12.4292447,5.98181818 L13.5861615,5.09090909 C13.9944851,4.77272727 14.130593,4.26363636 13.8583773,3.81818182 L13.3819998,2.99090909 C13.177838,2.73636364 12.8375683,2.54545455 12.4292447,2.54545455 C12.2931369,2.54545455 12.2250829,2.54545455 12.0889751,2.60909091 L10.6598425,3.11818182 C10.1154111,2.60909091 9.43487176,2.29090909 8.82238638,2.1 L8.55017066,0.7 C8.48211673,0.254545455 8.00573921,0 7.52936169,0 L6.50855273,0 C6.03217521,0 5.55579769,0.254545455 5.48774376,0.7 L5.21552804,2.03636364 C4.53498873,2.29090909 3.92250335,2.60909091 3.31001797,3.05454545 L1.88088542,2.54545455 C1.74477756,2.54545455 1.67672363,2.48181818 1.54061577,2.48181818 C1.20034611,2.48181818 0.860076458,2.67272727 0.655914665,2.99090909 L0.111483218,3.81818182 C-0.0926785752,4.2 -0.0246246443,4.70909091 0.383698941,5.02727273 L1.54061577,5.91818182 C1.47256184,6.23636364 1.47256184,6.61818182 1.47256184,6.93636364 C1.47256184,7.31818182 1.47256184,7.63636364 1.54061577,7.95454545 L0.383698941,8.84545455 C0.0434292867,9.16363636 -0.0926785752,9.67272727 0.111483218,10.0545455 L0.655914665,10.8818182 C0.860076458,11.2 1.20034611,11.3909091 1.54061577,11.3909091 C1.67672363,11.3909091 1.81283149,11.3272727 1.88088542,11.3272727 L3.31001797,10.8181818 C3.92250335,11.2636364 4.53498873,11.5818182 5.21552804,11.8363636 L5.41968983,13.2363636 C5.55579769,13.6818182 5.96412128,14 6.50855273,14 L7.46130776,14 C8.00573921,14 8.41406279,13.6818182 8.55017066,13.1727273 L8.75433245,11.7727273 C9.50292569,11.5818182 10.183465,11.2 10.7278964,10.6909091 L12.0889751,11.2 C12.2250829,11.2 12.2931369,11.2636364 12.4292447,11.2636364 C12.8375683,11.2636364 13.177838,11.0727273 13.3819998,10.8181818 L13.8583773,10.0545455 C14.130593,9.67272727 13.9944851,9.16363636 13.5861615,8.90909091 L13.5861615,8.90909091 Z M6.98493024,10.2454545 C5.07942018,10.2454545 3.5822337,8.84545455 3.5822337,7 C3.5822337,5.15454545 5.07942018,3.81818182 6.98493024,3.81818182 C8.89044031,3.81818182 10.4556807,5.21818182 10.4556807,7 C10.4556807,8.78181818 8.95849424,10.2454545 6.98493024,10.2454545 L6.98493024,10.2454545 Z" id="Shape"></path>
            </g>
            <g id="Group-Copy-11" transform="translate(1229.000000, 1549.000000)" fill="#54698D">
                <path d="M6.98493024,4.96363636 C5.75995949,4.96363636 4.80720445,5.85454545 4.80720445,7 C4.80720445,8.14545455 5.75995949,9.1 6.98493024,9.1 C8.209901,9.1 9.23070997,8.14545455 9.23070997,7 C9.23070997,5.85454545 8.209901,4.96363636 6.98493024,4.96363636 Z M13.5861615,8.90909091 L12.4292447,7.95454545 C12.4972987,7.63636364 12.5653526,7.31818182 12.5653526,7 C12.5653526,6.68181818 12.4972987,6.3 12.4292447,5.98181818 L13.5861615,5.09090909 C13.9944851,4.77272727 14.130593,4.26363636 13.8583773,3.81818182 L13.3819998,2.99090909 C13.177838,2.73636364 12.8375683,2.54545455 12.4292447,2.54545455 C12.2931369,2.54545455 12.2250829,2.54545455 12.0889751,2.60909091 L10.6598425,3.11818182 C10.1154111,2.60909091 9.43487176,2.29090909 8.82238638,2.1 L8.55017066,0.7 C8.48211673,0.254545455 8.00573921,0 7.52936169,0 L6.50855273,0 C6.03217521,0 5.55579769,0.254545455 5.48774376,0.7 L5.21552804,2.03636364 C4.53498873,2.29090909 3.92250335,2.60909091 3.31001797,3.05454545 L1.88088542,2.54545455 C1.74477756,2.54545455 1.67672363,2.48181818 1.54061577,2.48181818 C1.20034611,2.48181818 0.860076458,2.67272727 0.655914665,2.99090909 L0.111483218,3.81818182 C-0.0926785752,4.2 -0.0246246443,4.70909091 0.383698941,5.02727273 L1.54061577,5.91818182 C1.47256184,6.23636364 1.47256184,6.61818182 1.47256184,6.93636364 C1.47256184,7.31818182 1.47256184,7.63636364 1.54061577,7.95454545 L0.383698941,8.84545455 C0.0434292867,9.16363636 -0.0926785752,9.67272727 0.111483218,10.0545455 L0.655914665,10.8818182 C0.860076458,11.2 1.20034611,11.3909091 1.54061577,11.3909091 C1.67672363,11.3909091 1.81283149,11.3272727 1.88088542,11.3272727 L3.31001797,10.8181818 C3.92250335,11.2636364 4.53498873,11.5818182 5.21552804,11.8363636 L5.41968983,13.2363636 C5.55579769,13.6818182 5.96412128,14 6.50855273,14 L7.46130776,14 C8.00573921,14 8.41406279,13.6818182 8.55017066,13.1727273 L8.75433245,11.7727273 C9.50292569,11.5818182 10.183465,11.2 10.7278964,10.6909091 L12.0889751,11.2 C12.2250829,11.2 12.2931369,11.2636364 12.4292447,11.2636364 C12.8375683,11.2636364 13.177838,11.0727273 13.3819998,10.8181818 L13.8583773,10.0545455 C14.130593,9.67272727 13.9944851,9.16363636 13.5861615,8.90909091 L13.5861615,8.90909091 Z M6.98493024,10.2454545 C5.07942018,10.2454545 3.5822337,8.84545455 3.5822337,7 C3.5822337,5.15454545 5.07942018,3.81818182 6.98493024,3.81818182 C8.89044031,3.81818182 10.4556807,5.21818182 10.4556807,7 C10.4556807,8.78181818 8.95849424,10.2454545 6.98493024,10.2454545 L6.98493024,10.2454545 Z" id="Shape"></path>
            </g>
            <g id="Group-Copy-3" transform="translate(1229.000000, 1176.000000)" fill="#54698D">
                <path d="M6.98493024,4.96363636 C5.75995949,4.96363636 4.80720445,5.85454545 4.80720445,7 C4.80720445,8.14545455 5.75995949,9.1 6.98493024,9.1 C8.209901,9.1 9.23070997,8.14545455 9.23070997,7 C9.23070997,5.85454545 8.209901,4.96363636 6.98493024,4.96363636 Z M13.5861615,8.90909091 L12.4292447,7.95454545 C12.4972987,7.63636364 12.5653526,7.31818182 12.5653526,7 C12.5653526,6.68181818 12.4972987,6.3 12.4292447,5.98181818 L13.5861615,5.09090909 C13.9944851,4.77272727 14.130593,4.26363636 13.8583773,3.81818182 L13.3819998,2.99090909 C13.177838,2.73636364 12.8375683,2.54545455 12.4292447,2.54545455 C12.2931369,2.54545455 12.2250829,2.54545455 12.0889751,2.60909091 L10.6598425,3.11818182 C10.1154111,2.60909091 9.43487176,2.29090909 8.82238638,2.1 L8.55017066,0.7 C8.48211673,0.254545455 8.00573921,0 7.52936169,0 L6.50855273,0 C6.03217521,0 5.55579769,0.254545455 5.48774376,0.7 L5.21552804,2.03636364 C4.53498873,2.29090909 3.92250335,2.60909091 3.31001797,3.05454545 L1.88088542,2.54545455 C1.74477756,2.54545455 1.67672363,2.48181818 1.54061577,2.48181818 C1.20034611,2.48181818 0.860076458,2.67272727 0.655914665,2.99090909 L0.111483218,3.81818182 C-0.0926785752,4.2 -0.0246246443,4.70909091 0.383698941,5.02727273 L1.54061577,5.91818182 C1.47256184,6.23636364 1.47256184,6.61818182 1.47256184,6.93636364 C1.47256184,7.31818182 1.47256184,7.63636364 1.54061577,7.95454545 L0.383698941,8.84545455 C0.0434292867,9.16363636 -0.0926785752,9.67272727 0.111483218,10.0545455 L0.655914665,10.8818182 C0.860076458,11.2 1.20034611,11.3909091 1.54061577,11.3909091 C1.67672363,11.3909091 1.81283149,11.3272727 1.88088542,11.3272727 L3.31001797,10.8181818 C3.92250335,11.2636364 4.53498873,11.5818182 5.21552804,11.8363636 L5.41968983,13.2363636 C5.55579769,13.6818182 5.96412128,14 6.50855273,14 L7.46130776,14 C8.00573921,14 8.41406279,13.6818182 8.55017066,13.1727273 L8.75433245,11.7727273 C9.50292569,11.5818182 10.183465,11.2 10.7278964,10.6909091 L12.0889751,11.2 C12.2250829,11.2 12.2931369,11.2636364 12.4292447,11.2636364 C12.8375683,11.2636364 13.177838,11.0727273 13.3819998,10.8181818 L13.8583773,10.0545455 C14.130593,9.67272727 13.9944851,9.16363636 13.5861615,8.90909091 L13.5861615,8.90909091 Z M6.98493024,10.2454545 C5.07942018,10.2454545 3.5822337,8.84545455 3.5822337,7 C3.5822337,5.15454545 5.07942018,3.81818182 6.98493024,3.81818182 C8.89044031,3.81818182 10.4556807,5.21818182 10.4556807,7 C10.4556807,8.78181818 8.95849424,10.2454545 6.98493024,10.2454545 L6.98493024,10.2454545 Z" id="Shape"></path>
            </g>
            <g id="Group-Copy-12" transform="translate(1229.000000, 1459.000000)" fill="#54698D">
                <path d="M6.98493024,4.96363636 C5.75995949,4.96363636 4.80720445,5.85454545 4.80720445,7 C4.80720445,8.14545455 5.75995949,9.1 6.98493024,9.1 C8.209901,9.1 9.23070997,8.14545455 9.23070997,7 C9.23070997,5.85454545 8.209901,4.96363636 6.98493024,4.96363636 Z M13.5861615,8.90909091 L12.4292447,7.95454545 C12.4972987,7.63636364 12.5653526,7.31818182 12.5653526,7 C12.5653526,6.68181818 12.4972987,6.3 12.4292447,5.98181818 L13.5861615,5.09090909 C13.9944851,4.77272727 14.130593,4.26363636 13.8583773,3.81818182 L13.3819998,2.99090909 C13.177838,2.73636364 12.8375683,2.54545455 12.4292447,2.54545455 C12.2931369,2.54545455 12.2250829,2.54545455 12.0889751,2.60909091 L10.6598425,3.11818182 C10.1154111,2.60909091 9.43487176,2.29090909 8.82238638,2.1 L8.55017066,0.7 C8.48211673,0.254545455 8.00573921,0 7.52936169,0 L6.50855273,0 C6.03217521,0 5.55579769,0.254545455 5.48774376,0.7 L5.21552804,2.03636364 C4.53498873,2.29090909 3.92250335,2.60909091 3.31001797,3.05454545 L1.88088542,2.54545455 C1.74477756,2.54545455 1.67672363,2.48181818 1.54061577,2.48181818 C1.20034611,2.48181818 0.860076458,2.67272727 0.655914665,2.99090909 L0.111483218,3.81818182 C-0.0926785752,4.2 -0.0246246443,4.70909091 0.383698941,5.02727273 L1.54061577,5.91818182 C1.47256184,6.23636364 1.47256184,6.61818182 1.47256184,6.93636364 C1.47256184,7.31818182 1.47256184,7.63636364 1.54061577,7.95454545 L0.383698941,8.84545455 C0.0434292867,9.16363636 -0.0926785752,9.67272727 0.111483218,10.0545455 L0.655914665,10.8818182 C0.860076458,11.2 1.20034611,11.3909091 1.54061577,11.3909091 C1.67672363,11.3909091 1.81283149,11.3272727 1.88088542,11.3272727 L3.31001797,10.8181818 C3.92250335,11.2636364 4.53498873,11.5818182 5.21552804,11.8363636 L5.41968983,13.2363636 C5.55579769,13.6818182 5.96412128,14 6.50855273,14 L7.46130776,14 C8.00573921,14 8.41406279,13.6818182 8.55017066,13.1727273 L8.75433245,11.7727273 C9.50292569,11.5818182 10.183465,11.2 10.7278964,10.6909091 L12.0889751,11.2 C12.2250829,11.2 12.2931369,11.2636364 12.4292447,11.2636364 C12.8375683,11.2636364 13.177838,11.0727273 13.3819998,10.8181818 L13.8583773,10.0545455 C14.130593,9.67272727 13.9944851,9.16363636 13.5861615,8.90909091 L13.5861615,8.90909091 Z M6.98493024,10.2454545 C5.07942018,10.2454545 3.5822337,8.84545455 3.5822337,7 C3.5822337,5.15454545 5.07942018,3.81818182 6.98493024,3.81818182 C8.89044031,3.81818182 10.4556807,5.21818182 10.4556807,7 C10.4556807,8.78181818 8.95849424,10.2454545 6.98493024,10.2454545 L6.98493024,10.2454545 Z" id="Shape"></path>
            </g>
            <g id="Group-Copy-7" transform="translate(1229.000000, 1367.000000)" fill="#54698D">
                <path d="M6.98493024,4.96363636 C5.75995949,4.96363636 4.80720445,5.85454545 4.80720445,7 C4.80720445,8.14545455 5.75995949,9.1 6.98493024,9.1 C8.209901,9.1 9.23070997,8.14545455 9.23070997,7 C9.23070997,5.85454545 8.209901,4.96363636 6.98493024,4.96363636 Z M13.5861615,8.90909091 L12.4292447,7.95454545 C12.4972987,7.63636364 12.5653526,7.31818182 12.5653526,7 C12.5653526,6.68181818 12.4972987,6.3 12.4292447,5.98181818 L13.5861615,5.09090909 C13.9944851,4.77272727 14.130593,4.26363636 13.8583773,3.81818182 L13.3819998,2.99090909 C13.177838,2.73636364 12.8375683,2.54545455 12.4292447,2.54545455 C12.2931369,2.54545455 12.2250829,2.54545455 12.0889751,2.60909091 L10.6598425,3.11818182 C10.1154111,2.60909091 9.43487176,2.29090909 8.82238638,2.1 L8.55017066,0.7 C8.48211673,0.254545455 8.00573921,0 7.52936169,0 L6.50855273,0 C6.03217521,0 5.55579769,0.254545455 5.48774376,0.7 L5.21552804,2.03636364 C4.53498873,2.29090909 3.92250335,2.60909091 3.31001797,3.05454545 L1.88088542,2.54545455 C1.74477756,2.54545455 1.67672363,2.48181818 1.54061577,2.48181818 C1.20034611,2.48181818 0.860076458,2.67272727 0.655914665,2.99090909 L0.111483218,3.81818182 C-0.0926785752,4.2 -0.0246246443,4.70909091 0.383698941,5.02727273 L1.54061577,5.91818182 C1.47256184,6.23636364 1.47256184,6.61818182 1.47256184,6.93636364 C1.47256184,7.31818182 1.47256184,7.63636364 1.54061577,7.95454545 L0.383698941,8.84545455 C0.0434292867,9.16363636 -0.0926785752,9.67272727 0.111483218,10.0545455 L0.655914665,10.8818182 C0.860076458,11.2 1.20034611,11.3909091 1.54061577,11.3909091 C1.67672363,11.3909091 1.81283149,11.3272727 1.88088542,11.3272727 L3.31001797,10.8181818 C3.92250335,11.2636364 4.53498873,11.5818182 5.21552804,11.8363636 L5.41968983,13.2363636 C5.55579769,13.6818182 5.96412128,14 6.50855273,14 L7.46130776,14 C8.00573921,14 8.41406279,13.6818182 8.55017066,13.1727273 L8.75433245,11.7727273 C9.50292569,11.5818182 10.183465,11.2 10.7278964,10.6909091 L12.0889751,11.2 C12.2250829,11.2 12.2931369,11.2636364 12.4292447,11.2636364 C12.8375683,11.2636364 13.177838,11.0727273 13.3819998,10.8181818 L13.8583773,10.0545455 C14.130593,9.67272727 13.9944851,9.16363636 13.5861615,8.90909091 L13.5861615,8.90909091 Z M6.98493024,10.2454545 C5.07942018,10.2454545 3.5822337,8.84545455 3.5822337,7 C3.5822337,5.15454545 5.07942018,3.81818182 6.98493024,3.81818182 C8.89044031,3.81818182 10.4556807,5.21818182 10.4556807,7 C10.4556807,8.78181818 8.95849424,10.2454545 6.98493024,10.2454545 L6.98493024,10.2454545 Z" id="Shape"></path>
            </g>
            <g id="Group-Copy-13" transform="translate(1229.000000, 1639.000000)" fill="#54698D">
                <path d="M6.98493024,4.96363636 C5.75995949,4.96363636 4.80720445,5.85454545 4.80720445,7 C4.80720445,8.14545455 5.75995949,9.1 6.98493024,9.1 C8.209901,9.1 9.23070997,8.14545455 9.23070997,7 C9.23070997,5.85454545 8.209901,4.96363636 6.98493024,4.96363636 Z M13.5861615,8.90909091 L12.4292447,7.95454545 C12.4972987,7.63636364 12.5653526,7.31818182 12.5653526,7 C12.5653526,6.68181818 12.4972987,6.3 12.4292447,5.98181818 L13.5861615,5.09090909 C13.9944851,4.77272727 14.130593,4.26363636 13.8583773,3.81818182 L13.3819998,2.99090909 C13.177838,2.73636364 12.8375683,2.54545455 12.4292447,2.54545455 C12.2931369,2.54545455 12.2250829,2.54545455 12.0889751,2.60909091 L10.6598425,3.11818182 C10.1154111,2.60909091 9.43487176,2.29090909 8.82238638,2.1 L8.55017066,0.7 C8.48211673,0.254545455 8.00573921,0 7.52936169,0 L6.50855273,0 C6.03217521,0 5.55579769,0.254545455 5.48774376,0.7 L5.21552804,2.03636364 C4.53498873,2.29090909 3.92250335,2.60909091 3.31001797,3.05454545 L1.88088542,2.54545455 C1.74477756,2.54545455 1.67672363,2.48181818 1.54061577,2.48181818 C1.20034611,2.48181818 0.860076458,2.67272727 0.655914665,2.99090909 L0.111483218,3.81818182 C-0.0926785752,4.2 -0.0246246443,4.70909091 0.383698941,5.02727273 L1.54061577,5.91818182 C1.47256184,6.23636364 1.47256184,6.61818182 1.47256184,6.93636364 C1.47256184,7.31818182 1.47256184,7.63636364 1.54061577,7.95454545 L0.383698941,8.84545455 C0.0434292867,9.16363636 -0.0926785752,9.67272727 0.111483218,10.0545455 L0.655914665,10.8818182 C0.860076458,11.2 1.20034611,11.3909091 1.54061577,11.3909091 C1.67672363,11.3909091 1.81283149,11.3272727 1.88088542,11.3272727 L3.31001797,10.8181818 C3.92250335,11.2636364 4.53498873,11.5818182 5.21552804,11.8363636 L5.41968983,13.2363636 C5.55579769,13.6818182 5.96412128,14 6.50855273,14 L7.46130776,14 C8.00573921,14 8.41406279,13.6818182 8.55017066,13.1727273 L8.75433245,11.7727273 C9.50292569,11.5818182 10.183465,11.2 10.7278964,10.6909091 L12.0889751,11.2 C12.2250829,11.2 12.2931369,11.2636364 12.4292447,11.2636364 C12.8375683,11.2636364 13.177838,11.0727273 13.3819998,10.8181818 L13.8583773,10.0545455 C14.130593,9.67272727 13.9944851,9.16363636 13.5861615,8.90909091 L13.5861615,8.90909091 Z M6.98493024,10.2454545 C5.07942018,10.2454545 3.5822337,8.84545455 3.5822337,7 C3.5822337,5.15454545 5.07942018,3.81818182 6.98493024,3.81818182 C8.89044031,3.81818182 10.4556807,5.21818182 10.4556807,7 C10.4556807,8.78181818 8.95849424,10.2454545 6.98493024,10.2454545 L6.98493024,10.2454545 Z" id="Shape"></path>
            </g>
            <path d="M1264,1442.5 L18,1442.5" id="Line-Copy" stroke="#D8DDE6" stroke-linecap="square"></path>
            <path d="M1262.51698,1016.00151 L19,1016.00151" id="Line-Copy-7" stroke="#F2F2F2" stroke-linecap="square"></path>
            <path d="M1264,1156.5 L18,1156.5" id="Line" stroke="#D8DDE6" stroke-linecap="square"></path>
            <path d="M1264,1487.5 L18,1487.5" id="Line-Copy-2" stroke="#D8DDE6" stroke-linecap="square"></path>
            <path d="M1264,1201.5 L18,1201.5" id="Line" stroke="#D8DDE6" stroke-linecap="square"></path>
            <path d="M1264,1532.5 L18,1532.5" id="Line-Copy-3" stroke="#D8DDE6" stroke-linecap="square"></path>
            <path d="M1264,1261.5 L18,1261.5" id="Line" stroke="#D8DDE6" stroke-linecap="square"></path>
            <path d="M1264,1578.5 L18,1578.5" id="Line-Copy-4" stroke="#D8DDE6" stroke-linecap="square"></path>
            <path d="M1264,1623.5 L18,1623.5" id="Line-Copy-5" stroke="#D8DDE6" stroke-linecap="square"></path>
            <path d="M1264,1306.5 L18,1306.5" id="Line" stroke="#D8DDE6" stroke-linecap="square"></path>
            <path d="M1264,1351.5 L18,1351.5" id="Line" stroke="#D8DDE6" stroke-linecap="square"></path>
            <path d="M1264,1396.5 L18,1396.5" id="Line" stroke="#D8DDE6" stroke-linecap="square"></path>
            <text id="Models:-Diavel,-Mult" font-family="SalesforceSans-Regular, Salesforce Sans" font-size="13" font-weight="normal" line-spacing="24" fill="#16325C">
                <tspan x="440" y="1221">Models: Diavel, Multistrada • New Parent • Interest- Hiking  • TV Shows: Biker Build-off  </tspan>
                <tspan x="440" y="1245">• Hot Bike Subscribers</tspan>
            </text>
            <text id="Test-Ride-Status:-Co" font-family="SalesforceSans-Regular, Salesforce Sans" font-size="13" font-weight="normal" fill="#16325C">
                <tspan x="442" y="1141">Test Ride Status: Complete </tspan>
            </text>
            <text id="Motorcycle-Group-Mem" font-family="SalesforceSans-Regular, Salesforce Sans" font-size="13" font-weight="normal" fill="#16325C">
                <tspan x="442" y="1290">Motorcycle Group Members</tspan>
            </text>
            <text id="Models:-Diavel,-Mult" font-family="SalesforceSans-Regular, Salesforce Sans" font-size="13" font-weight="normal" fill="#16325C">
                <tspan x="442" y="1424">Models: Diavel, Multistrada • New Parent • Interest- Hiking</tspan>
            </text>
            <text id="Motorcycle-Enthusias" font-family="SalesforceSans-Regular, Salesforce Sans" font-size="13" font-weight="normal" fill="#16325C">
                <tspan x="443" y="1187">Motorcycle Enthusiasts</tspan>
            </text>
            <text id="Riders-Magazine-Subs" font-family="SalesforceSans-Regular, Salesforce Sans" font-size="13" font-weight="normal" fill="#16325C">
                <tspan x="443" y="1336">Riders Magazine Subscribers</tspan>
            </text>
            <text id="TV-Shows:-Biker-Buil" font-family="SalesforceSans-Regular, Salesforce Sans" font-size="13" font-weight="normal" fill="#16325C">
                <tspan x="443" y="1470">TV Shows: Biker Build-off  • Hot Bike Subscribers</tspan>
            </text>
            <text id="Configurator-usage:" font-family="SalesforceSans-Regular, Salesforce Sans" font-size="13" font-weight="normal" fill="#16325C">
                <tspan x="443" y="1380">Configurator usage: High • Motorcycle Group Members</tspan>
            </text>
            <text id="Ducati-Loyals" font-family="SalesforceSans-Regular, Salesforce Sans" font-size="13" font-weight="normal" fill="#16325C">
                <tspan x="443" y="1514">Ducati Loyals</tspan>
            </text>
            <text id="Motorcycle-Group-Mem" font-family="SalesforceSans-Regular, Salesforce Sans" font-size="13" font-weight="normal" fill="#16325C">
                <tspan x="443" y="1606">Motorcycle Group Members • Ducati Loyals</tspan>
            </text>
            <text id="Models:-Diavel-•-Mem" font-family="SalesforceSans-Regular, Salesforce Sans" font-size="13" font-weight="normal" fill="#16325C">
                <tspan x="443" y="1561">Models: Diavel  • Memberships: Netflix</tspan>
            </text>
            <text id="Configurator-usage:" font-family="SalesforceSans-Regular, Salesforce Sans" font-size="13" font-weight="normal" fill="#16325C">
                <tspan x="443" y="1652">Configurator usage: High • Motorcycle Group Members • TV Shows: Biker Build-off</tspan>
            </text>
            <g id="badge" transform="translate(53.000000, 1075.000000)">
                <rect id="bkgd" fill="#E0E5EE" x="0" y="0" width="18" height="17" rx="8.5"></rect>
                <text id="1" font-family="SalesforceSans-Regular, Salesforce Sans" font-size="10" font-weight="normal" letter-spacing="0.600000024" fill="#16325C">
                    <tspan x="6" y="12">1</tspan>
                </text>
            </g>
            <g id="badge-copy-2" transform="translate(53.000000, 1172.000000)">
                <rect id="bkgd" fill="#E0E5EE" x="0" y="0" width="18" height="17" rx="8.5"></rect>
                <text id="8" font-family="SalesforceSans-Regular, Salesforce Sans" font-size="10" font-weight="normal" letter-spacing="0.600000024" fill="#16325C">
                    <tspan x="6" y="12">8</tspan>
                </text>
            </g>
            <g id="badge-copy-4" transform="translate(53.000000, 1323.000000)">
                <rect id="bkgd" fill="#E0E5EE" x="0" y="0" width="18" height="17" rx="8.5"></rect>
                <text id="6" font-family="SalesforceSans-Regular, Salesforce Sans" font-size="10" font-weight="normal" letter-spacing="0.600000024" fill="#16325C">
                    <tspan x="6" y="12">6</tspan>
                </text>
            </g>
            <g id="badge-copy-8" transform="translate(53.000000, 1506.000000)">
                <rect id="bkgd" fill="#E0E5EE" x="0" y="0" width="24" height="17" rx="8.5"></rect>
                <text id="10" font-family="SalesforceSans-Regular, Salesforce Sans" font-size="10" font-weight="normal" letter-spacing="0.600000024" fill="#16325C">
                    <tspan x="6" y="12">10</tspan>
                </text>
            </g>
            <g id="badge-copy-9" transform="translate(53.000000, 1549.000000)">
                <rect id="bkgd" fill="#E0E5EE" x="0" y="0" width="24" height="17" rx="8.5"></rect>
                <text id="11" font-family="SalesforceSans-Regular, Salesforce Sans" font-size="10" font-weight="normal" letter-spacing="0.600000024" fill="#16325C">
                    <tspan x="6" y="12">11</tspan>
                </text>
            </g>
            <g id="badge-copy-12" transform="translate(53.000000, 1636.000000)">
                <rect id="bkgd" fill="#E0E5EE" x="0" y="0" width="24" height="17" rx="8.5"></rect>
                <text id="13" font-family="SalesforceSans-Regular, Salesforce Sans" font-size="10" font-weight="normal" letter-spacing="0.600000024" fill="#16325C">
                    <tspan x="6" y="12">13</tspan>
                </text>
            </g>
            <g id="badge-copy-6" transform="translate(53.000000, 1413.000000)">
                <rect id="bkgd" fill="#E0E5EE" x="0" y="0" width="18" height="17" rx="8.5"></rect>
                <text id="3" font-family="SalesforceSans-Regular, Salesforce Sans" font-size="10" font-weight="normal" letter-spacing="0.600000024" fill="#16325C">
                    <tspan x="6" y="12">3</tspan>
                </text>
            </g>
            <g id="badge-copy" transform="translate(53.000000, 1126.000000)">
                <rect id="bkgd" fill="#E0E5EE" x="0" y="0" width="18" height="17" rx="8.5"></rect>
                <text id="2" font-family="SalesforceSans-Regular, Salesforce Sans" font-size="10" font-weight="normal" letter-spacing="0.600000024" fill="#16325C">
                    <tspan x="6" y="12">2</tspan>
                </text>
            </g>
            <g id="badge-copy-10" transform="translate(53.000000, 1460.000000)">
                <rect id="bkgd" fill="#E0E5EE" x="0" y="0" width="18" height="17" rx="8.5"></rect>
                <text id="9" font-family="SalesforceSans-Regular, Salesforce Sans" font-size="10" font-weight="normal" letter-spacing="0.600000024" fill="#16325C">
                    <tspan x="6" y="12">9</tspan>
                </text>
            </g>
            <rect id="Rectangle-10" fill="#F7F9FB" x="17" y="1017" width="1246" height="32"></rect>
            <path d="M1262.52266,1048.00151 L18.4950807,1048.00151" id="Line" stroke="#E0E5EE" stroke-linecap="square"></path>
            <text id="PERSONA" font-family="SalesforceSans-Regular, Salesforce Sans" font-size="12" font-weight="normal" fill="#54698D">
                <tspan x="145" y="1037">PERSONA</tspan>
            </text>
            <text id="RANK" font-family="SalesforceSans-Regular, Salesforce Sans" font-size="12" font-weight="normal" fill="#54698D">
                <tspan x="45" y="1037">RANK</tspan>
            </text>
            <text id="ATTRIBUTES" font-family="SalesforceSans-Regular, Salesforce Sans" font-size="12" font-weight="normal" fill="#54698D">
                <tspan x="440" y="1037">ATTRIBUTES</tspan>
            </text>
            <text id="278,122" font-family="SalesforceSans-Regular, Salesforce Sans" font-size="13" font-weight="normal" fill="#16325C">
                <tspan x="1016.871" y="1141">278,122</tspan>
            </text>
            <text id="75,000" font-family="SalesforceSans-Regular, Salesforce Sans" font-size="13" font-weight="normal" fill="#16325C">
                <tspan x="1024.801" y="1471">75,000</tspan>
            </text>
            <text id="345,427" font-family="SalesforceSans-Regular, Salesforce Sans" font-size="13" font-weight="normal" fill="#16325C">
                <tspan x="1016.871" y="1089">345,427</tspan>
            </text>
            <text id="76,011" font-family="SalesforceSans-Regular, Salesforce Sans" font-size="13" font-weight="normal" fill="#16325C">
                <tspan x="1024.801" y="1425">76,011</tspan>
            </text>
            <text id="186,201" font-family="SalesforceSans-Regular, Salesforce Sans" font-size="13" font-weight="normal" fill="#16325C">
                <tspan x="1016.871" y="1187">186,201</tspan>
            </text>
            <text id="74,870" font-family="SalesforceSans-Regular, Salesforce Sans" font-size="13" font-weight="normal" fill="#16325C">
                <tspan x="1024.801" y="1516">74,870</tspan>
            </text>
            <text id="176,009" font-family="SalesforceSans-Regular, Salesforce Sans" font-size="13" font-weight="normal" fill="#16325C">
                <tspan x="1016.871" y="1237">176,009</tspan>
            </text>
            <text id="74,832" font-family="SalesforceSans-Regular, Salesforce Sans" font-size="13" font-weight="normal" fill="#16325C">
                <tspan x="1024.801" y="1561">74,832</tspan>
            </text>
            <text id="89,913" font-family="SalesforceSans-Regular, Salesforce Sans" font-size="13" font-weight="normal" fill="#16325C">
                <tspan x="1024.801" y="1288">89,913</tspan>
            </text>
            <text id="74,811" font-family="SalesforceSans-Regular, Salesforce Sans" font-size="13" font-weight="normal" fill="#16325C">
                <tspan x="1024.801" y="1606">74,811</tspan>
            </text>
            <text id="78,099" font-family="SalesforceSans-Regular, Salesforce Sans" font-size="13" font-weight="normal" fill="#16325C">
                <tspan x="1024.45317" y="1334">78,099</tspan>
            </text>
            <text id="67,056" font-family="SalesforceSans-Regular, Salesforce Sans" font-size="13" font-weight="normal" fill="#16325C">
                <tspan x="1024.45317" y="1651">67,056</tspan>
            </text>
            <text id="76,191" font-family="SalesforceSans-Regular, Salesforce Sans" font-size="13" font-weight="normal" fill="#16325C">
                <tspan x="1024.45317" y="1379">76,191</tspan>
            </text>
            <text id="DEVICES" font-family="SalesforceSans-Regular, Salesforce Sans" font-size="12" font-weight="normal" fill="#54698D">
                <tspan x="1020" y="1037">DEVICES</tspan>
            </text>
            <text id="$-1.75" font-family="SalesforceSans-Regular, Salesforce Sans" font-size="13" font-weight="normal" fill="#16325C">
                <tspan x="1161.455" y="1088">$ 1.75</tspan>
            </text>
            <text id="$-0.85" font-family="SalesforceSans-Regular, Salesforce Sans" font-size="13" font-weight="normal" fill="#16325C">
                <tspan x="1161.455" y="1289">$ 0.85</tspan>
            </text>
            <text id="CPM-($)" font-family="SalesforceSans-Regular, Salesforce Sans" font-size="12" font-weight="normal" fill="#54698D">
                <tspan x="1154.256" y="1029">CPM ($)</tspan>
            </text>
            <path d="M1012.21066,1039.57973 L1016.56164,1035.15838 C1016.77218,1034.94784 1016.77218,1034.66712 1016.56164,1034.52676 L1015.93005,1033.82495 C1015.71952,1033.61441 1015.43881,1033.61441 1015.22828,1033.82495 L1013.40367,1035.64964 C1013.19314,1035.79 1012.84225,1035.71982 1012.84225,1035.36892 L1012.84225,1028.49126 C1012.84225,1028.21054 1012.56154,1028 1012.35101,1028 L1011.36853,1028 C1011.08782,1028 1010.87729,1028.21054 1010.87729,1028.49126 L1010.87729,1035.36892 C1010.87729,1035.64964 1010.5264,1035.79 1010.31587,1035.57946 L1008.49127,1033.75477 C1008.35091,1033.61441 1008.0702,1033.61441 1007.85967,1033.75477 L1007.1579,1034.52676 C1006.94737,1034.66712 1006.94737,1034.94784 1007.1579,1035.15838 L1011.50889,1039.57973 C1011.71942,1039.72009 1012.00013,1039.72009 1012.21066,1039.57973 Z" id="Path-Copy" fill="#62849B"></path>
            <text id="175-Personas-•-Sorte" font-family="SalesforceSans-Regular, Salesforce Sans" font-size="14" font-weight="normal" fill="#16325C">
                <tspan x="38" y="993">175 Personas • Sorted by Devices</tspan>
            </text>
            <polygon id="Rectangle" fill="#F7F9FB" points="19 909 1265 909 1265 963 20.0171429 963"></polygon>
            <g id="Group-9" transform="translate(36.000000, 917.000000)">
                <rect id="Rectangle-18" stroke="#E1E6EF" fill="#FFFFFF" x="1155.5" y="0.5" width="34" height="31" rx="4"></rect>
                <path d="M1180.08874,17.4041441 L1179.10622,17.4041441 C1178.8255,17.4041441 1178.61495,17.6146846 1178.61495,17.8954054 L1178.61495,21.1236936 C1178.61495,21.4044143 1178.40441,21.6149549 1178.12369,21.6149549 L1167.45631,21.6149549 C1167.17559,21.6149549 1166.96505,21.4044143 1166.96505,21.1236936 L1166.96505,17.8954054 C1166.96505,17.6146846 1166.7545,17.4041441 1166.47378,17.4041441 L1165.49126,17.4041441 C1165.21054,17.4041441 1165,17.6146846 1165,17.8954054 L1165,22.2465765 C1165,22.9483783 1165.63162,23.5799999 1166.33342,23.5799999 L1179.24658,23.5799999 C1179.94838,23.5799999 1180.58,22.9483783 1180.58,22.2465765 L1180.58,17.8954054 C1180.58,17.6146846 1180.36946,17.4041441 1180.08874,17.4041441 Z M1172.43891,19.5797297 C1172.64944,19.72009 1172.93015,19.72009 1173.14068,19.5797297 L1177.49167,15.1583783 C1177.7022,14.9478378 1177.7022,14.6671171 1177.49167,14.5267567 L1176.86007,13.8249549 C1176.64954,13.6144144 1176.36883,13.6144144 1176.1583,13.8249549 L1174.33369,15.6496396 C1174.12316,15.79 1173.77227,15.7198198 1173.77227,15.3689189 L1173.77227,8.49126126 C1173.77227,8.21054054 1173.49157,8 1173.28103,8 L1172.29855,8 C1172.01784,8 1171.80731,8.21054054 1171.80731,8.49126126 L1171.80731,15.3689189 C1171.80731,15.6496396 1171.45643,15.79 1171.2459,15.5794594 L1169.42129,13.7547747 C1169.28093,13.6144144 1169.00022,13.6144144 1168.78969,13.7547747 L1168.08792,14.5267567 C1167.87739,14.6671171 1167.87739,14.9478378 1168.08792,15.1583783 L1172.43891,19.5797297 L1172.43891,19.5797297 Z" id="Shape" fill="#54698D"></path>
                <g id="Group-6" transform="translate(0.000000, 2.000000)">
                    <g id="Group-5" transform="translate(340.000000, 1.000000)">
                        <g id="Group-14-Copy-2">
                            <rect id="Rectangle-18-Copy-2" stroke="#E1E6EF" fill="#FFFFFF" x="0.5" y="0.5" width="58" height="31" rx="4"></rect>
                            <text id="GO" font-family="SalesforceSans-Regular, Salesforce Sans" font-size="12" font-weight="normal" fill="#0070D2">
                                <tspan x="19" y="21">GO</tspan>
                            </text>
                        </g>
                    </g>
                    <g id="Group-19">
                        <path d="M68.5,0.5 L68.5,31.5 L327,31.5 C328.380712,31.5 329.5,30.3807119 329.5,29 L329.5,3 C329.5,1.61928813 328.380712,0.5 327,0.5 L68.5,0.5 Z" id="Rectangle-2" stroke="#E1E6EF" fill="#FFFFFF"></path>
                        <path d="M0.5,0.499836287 L0.5,31.5 L67,31.5 C68.3807119,31.5 69.5,30.3807119 69.5,29 L69.5,2.99983629 C69.5,1.61912441 68.3807119,0.499836287 67,0.499836287 L0.5,0.499836287 Z" id="Rectangle-2" stroke="#D0D2D5" fill="#FFFFFF" transform="translate(35.000000, 16.000000) scale(-1, 1) translate(-35.000000, -16.000000) "></path>
                        <text id="Attribute" font-family="SalesforceSans-Regular, Salesforce Sans" font-size="12" font-weight="normal" fill="#16325C">
                            <tspan x="10" y="20">Attribute</tspan>
                        </text>
                    </g>
                </g>
            </g>
            <text id="Search" font-family="SalesforceSans-Regular, Salesforce Sans" font-size="12" font-weight="normal" fill="#B0B2B4">
                <tspan x="114" y="940">Search</tspan>
            </text>
            <rect id="Rectangle-16-Copy" stroke="#E0E5EE" x="18.5" y="869.5" width="1245" height="890.914062" rx="4"></rect>
            <path d="M90.8541667,1033.96458 C90.8541667,1034.1 90.7458333,1034.20833 90.5833333,1034.20833 L88.4166667,1034.20833 C88.28125,1034.20833 88.1458333,1034.12708 88.1458333,1033.96458 L88.1458333,1033.42292 C88.1458333,1033.2875 88.2541667,1033.125 88.4166667,1033.125 C88.5520833,1033.125 88.6875,1033.04375 88.6875,1032.88125 L88.6875,1031.79792 C88.6875,1031.6625 88.5791667,1031.5 88.4166667,1031.5 C88.28125,1031.5 88.1458333,1031.41875 88.1458333,1031.25625 L88.1458333,1030.71458 C88.1458333,1030.57917 88.2541667,1030.41667 88.4166667,1030.41667 L90.0416667,1030.41667 C90.1770833,1030.41667 90.3125,1030.55208 90.3125,1030.71458 L90.3125,1032.88125 C90.3125,1033.01667 90.4208333,1033.125 90.5833333,1033.125 C90.71875,1033.125 90.8541667,1033.26042 90.8541667,1033.42292 L90.8541667,1033.96458 Z M89.5,1028.27708 C89.9604167,1028.27708 90.3125,1028.62917 90.3125,1029.08958 C90.3125,1029.55 89.9604167,1029.90208 89.5,1029.90208 C89.0395833,1029.90208 88.6875,1029.55 88.6875,1029.08958 C88.6875,1028.62917 89.0395833,1028.27708 89.5,1028.27708 L89.5,1028.27708 Z M89.5,1025 C85.8979167,1025 83,1027.89792 83,1031.5 C83,1035.10208 85.8979167,1038 89.5,1038 C93.1020833,1038 96,1035.10208 96,1031.5 C96,1027.89792 93.1020833,1025 89.5,1025 L89.5,1025 Z" id="Page-1-Copy" fill="#D8DDE6"></path>
            <g id="badge-copy-15" transform="translate(53.000000, 1224.000000)">
                <rect id="bkgd" fill="#E0E5EE" x="0" y="0" width="24" height="17" rx="8.5"></rect>
                <text id="12" font-family="SalesforceSans-Regular, Salesforce Sans" font-size="10" font-weight="normal" letter-spacing="0.600000024" fill="#16325C">
                    <tspan x="6" y="12">12</tspan>
                </text>
            </g>
            <g id="badge-copy-15" transform="translate(53.000000, 1593.000000)">
                <rect id="bkgd" fill="#E0E5EE" x="0" y="0" width="18" height="17" rx="8.5"></rect>
                <text id="4" font-family="SalesforceSans-Regular, Salesforce Sans" font-size="10" font-weight="normal" letter-spacing="0.600000024" fill="#16325C">
                    <tspan x="6" y="12">4</tspan>
                </text>
            </g>
            <g id="badge-copy-16" transform="translate(53.000000, 1280.000000)">
                <rect id="bkgd" fill="#E0E5EE" x="0" y="0" width="24" height="17" rx="8.5"></rect>
                <text id="49" font-family="SalesforceSans-Regular, Salesforce Sans" font-size="10" font-weight="normal" letter-spacing="0.600000024" fill="#16325C">
                    <tspan x="6" y="12">49</tspan>
                </text>
            </g>
            <g id="badge-copy-11" transform="translate(53.000000, 1368.000000)">
                <rect id="bkgd" fill="#E0E5EE" x="0" y="0" width="30" height="17" rx="8.5"></rect>
                <text id="172" font-family="SalesforceSans-Regular, Salesforce Sans" font-size="10" font-weight="normal" letter-spacing="0.600000024" fill="#16325C">
                    <tspan x="6" y="12">172</tspan>
                </text>
            </g>
            <text id="Persona-03" font-family="SalesforceSans-Regular, Salesforce Sans" font-size="13" font-weight="normal" fill="#16325C">
                <tspan x="144" y="1425">Persona 03</tspan>
            </text>
            <text id="Persona-172" font-family="SalesforceSans-Regular, Salesforce Sans" font-size="13" font-weight="normal" fill="#16325C">
                <tspan x="144" y="1380">Persona 172</tspan>
            </text>
            <text id="Persona-02" font-family="SalesforceSans-Regular, Salesforce Sans" font-size="13" font-weight="normal" fill="#16325C">
                <tspan x="144" y="1141">Persona 02</tspan>
            </text>
            <text id="Persona-09" font-family="SalesforceSans-Regular, Salesforce Sans" font-size="13" font-weight="normal" fill="#16325C">
                <tspan x="144" y="1471">Persona 09</tspan>
            </text>
            <text id="Persona-08" font-family="SalesforceSans-Regular, Salesforce Sans" font-size="13" font-weight="normal" fill="#16325C">
                <tspan x="144" y="1187">Persona 08</tspan>
            </text>
            <text id="Persona-10" font-family="SalesforceSans-Regular, Salesforce Sans" font-size="13" font-weight="normal" fill="#16325C">
                <tspan x="144" y="1516">Persona 10</tspan>
            </text>
            <text id="Persona-12" font-family="SalesforceSans-Regular, Salesforce Sans" font-size="13" font-weight="normal" fill="#16325C">
                <tspan x="144" y="1237">Persona 12</tspan>
            </text>
            <text id="Persona-11" font-family="SalesforceSans-Regular, Salesforce Sans" font-size="13" font-weight="normal" fill="#16325C">
                <tspan x="144" y="1561">Persona 11</tspan>
            </text>
            <text id="Persona-49" font-family="SalesforceSans-Regular, Salesforce Sans" font-size="13" font-weight="normal" fill="#16325C">
                <tspan x="144" y="1292">Persona 49</tspan>
            </text>
            <text id="Persona-04" font-family="SalesforceSans-Regular, Salesforce Sans" font-size="13" font-weight="normal" fill="#16325C">
                <tspan x="145" y="1606">Persona 04</tspan>
            </text>
            <text id="Persona-06" font-family="SalesforceSans-Regular, Salesforce Sans" font-size="13" font-weight="normal" fill="#16325C">
                <tspan x="144" y="1334">Persona 06</tspan>
            </text>
            <text id="Persona-13" font-family="SalesforceSans-Regular, Salesforce Sans" font-size="13" font-weight="normal" fill="#16325C">
                <tspan x="145" y="1651">Persona 13</tspan>
            </text>
            <g id="Group-Copy-13" transform="translate(1229.000000, 1685.000000)" fill="#54698D">
                <path d="M6.98493024,4.96363636 C5.75995949,4.96363636 4.80720445,5.85454545 4.80720445,7 C4.80720445,8.14545455 5.75995949,9.1 6.98493024,9.1 C8.209901,9.1 9.23070997,8.14545455 9.23070997,7 C9.23070997,5.85454545 8.209901,4.96363636 6.98493024,4.96363636 Z M13.5861615,8.90909091 L12.4292447,7.95454545 C12.4972987,7.63636364 12.5653526,7.31818182 12.5653526,7 C12.5653526,6.68181818 12.4972987,6.3 12.4292447,5.98181818 L13.5861615,5.09090909 C13.9944851,4.77272727 14.130593,4.26363636 13.8583773,3.81818182 L13.3819998,2.99090909 C13.177838,2.73636364 12.8375683,2.54545455 12.4292447,2.54545455 C12.2931369,2.54545455 12.2250829,2.54545455 12.0889751,2.60909091 L10.6598425,3.11818182 C10.1154111,2.60909091 9.43487176,2.29090909 8.82238638,2.1 L8.55017066,0.7 C8.48211673,0.254545455 8.00573921,0 7.52936169,0 L6.50855273,0 C6.03217521,0 5.55579769,0.254545455 5.48774376,0.7 L5.21552804,2.03636364 C4.53498873,2.29090909 3.92250335,2.60909091 3.31001797,3.05454545 L1.88088542,2.54545455 C1.74477756,2.54545455 1.67672363,2.48181818 1.54061577,2.48181818 C1.20034611,2.48181818 0.860076458,2.67272727 0.655914665,2.99090909 L0.111483218,3.81818182 C-0.0926785752,4.2 -0.0246246443,4.70909091 0.383698941,5.02727273 L1.54061577,5.91818182 C1.47256184,6.23636364 1.47256184,6.61818182 1.47256184,6.93636364 C1.47256184,7.31818182 1.47256184,7.63636364 1.54061577,7.95454545 L0.383698941,8.84545455 C0.0434292867,9.16363636 -0.0926785752,9.67272727 0.111483218,10.0545455 L0.655914665,10.8818182 C0.860076458,11.2 1.20034611,11.3909091 1.54061577,11.3909091 C1.67672363,11.3909091 1.81283149,11.3272727 1.88088542,11.3272727 L3.31001797,10.8181818 C3.92250335,11.2636364 4.53498873,11.5818182 5.21552804,11.8363636 L5.41968983,13.2363636 C5.55579769,13.6818182 5.96412128,14 6.50855273,14 L7.46130776,14 C8.00573921,14 8.41406279,13.6818182 8.55017066,13.1727273 L8.75433245,11.7727273 C9.50292569,11.5818182 10.183465,11.2 10.7278964,10.6909091 L12.0889751,11.2 C12.2250829,11.2 12.2931369,11.2636364 12.4292447,11.2636364 C12.8375683,11.2636364 13.177838,11.0727273 13.3819998,10.8181818 L13.8583773,10.0545455 C14.130593,9.67272727 13.9944851,9.16363636 13.5861615,8.90909091 L13.5861615,8.90909091 Z M6.98493024,10.2454545 C5.07942018,10.2454545 3.5822337,8.84545455 3.5822337,7 C3.5822337,5.15454545 5.07942018,3.81818182 6.98493024,3.81818182 C8.89044031,3.81818182 10.4556807,5.21818182 10.4556807,7 C10.4556807,8.78181818 8.95849424,10.2454545 6.98493024,10.2454545 L6.98493024,10.2454545 Z" id="Shape"></path>
            </g>
            <path d="M1264,1669.5 L18,1669.5" id="Line-Copy-5" stroke="#D8DDE6" stroke-linecap="square"></path>
            <text id="Models:-Diavel-•-Hot" font-family="SalesforceSans-Regular, Salesforce Sans" font-size="13" font-weight="normal" fill="#16325C">
                <tspan x="443" y="1698">Models: Diavel  • Hot Bike Subscribers</tspan>
            </text>
            <g id="badge-copy-12" transform="translate(53.000000, 1682.000000)">
                <rect id="bkgd" fill="#E0E5EE" x="0" y="0" width="24" height="17" rx="8.5"></rect>
                <text id="13" font-family="SalesforceSans-Regular, Salesforce Sans" font-size="10" font-weight="normal" letter-spacing="0.600000024" fill="#16325C">
                    <tspan x="6" y="12">13</tspan>
                </text>
            </g>
            <text id="67,056" font-family="SalesforceSans-Regular, Salesforce Sans" font-size="13" font-weight="normal" fill="#16325C">
                <tspan x="1024.45317" y="1697">67,056</tspan>
            </text>
            <text id="Persona-13" font-family="SalesforceSans-Regular, Salesforce Sans" font-size="13" font-weight="normal" fill="#16325C">
                <tspan x="145" y="1697">Persona 13</tspan>
            </text>
            <text id="Persona-01" font-family="SalesforceSans-Regular, Salesforce Sans" font-size="13" font-weight="normal" fill="#16325C">
                <tspan x="144" y="1088">Persona 01</tspan>
            </text>
            <text id="Saveur-Subscribers-•" font-family="SalesforceSans-Regular, Salesforce Sans" font-size="13" font-weight="normal" line-spacing="24" fill="#16325C">
                <tspan x="440" y="1072">www.coastalliving.com/travel • Travel Channel Viewers • Travel + Leisure Subscribers •  Category:</tspan>
                <tspan x="440" y="1096">Travel Accessories •  XDiavel S - Explorers</tspan>
            </text>
        </g>
    </g>
</svg>