<?xml version="1.0" encoding="UTF-8"?>
<svg width="1284px" height="79px" viewBox="0 0 1284 79" version="1.1" xmlns="http://www.w3.org/2000/svg" xmlns:xlink="http://www.w3.org/1999/xlink">
    <!-- Generator: Sketch 50.2 (55047) - http://www.bohemiancoding.com/sketch -->
    <title>journey-builder-shell-top-nav--prototype</title>
    <desc>Created with Sketch.</desc>
    <defs>
        <path d="M4.88505747,10.9063032 L0.103448276,5.78421352 C-0.0344827586,5.63429869 -0.0344827586,5.38444066 0.103448276,5.23452584 L4.88505747,0.112436116 C5.02298851,-0.0374787053 5.25287356,-0.0374787053 5.3908046,0.112436116 L5.89655172,0.662123793 C6.03448276,0.812038614 6.03448276,1.06189665 5.89655172,1.21181147 L2.10344828,5.23452584 C1.96551724,5.38444066 1.96551724,5.63429869 2.10344828,5.78421352 L5.85057471,9.80692788 C5.98850575,9.9568427 5.98850575,10.2067007 5.85057471,10.3566156 L5.34482759,10.9063032 C5.22988506,11.0312323 5.02298851,11.0312323 4.88505747,10.9063032 L4.88505747,10.9063032 Z" id="path-1"></path>
        <path d="M10.3230769,3.95384615 L10.5384615,3.95384615 C10.8461538,3.95384615 10.8461538,3.73846154 10.6615385,3.55384615 L9.15384615,2.04615385 C8.96923077,1.89230769 8.96923077,1.58461538 9.15384615,1.4 L9.8,0.753846154 C9.95384615,0.569230769 10.2615385,0.569230769 10.4461538,0.753846154 L14.4153846,4.72307692 C14.5692308,4.87692308 14.5692308,5.12307692 14.4153846,5.27692308 L10.4153846,9.27692308 C10.2307692,9.43076923 10.0153846,9.43076923 9.83076923,9.24615385 L9.15384615,8.56923077 C8.96923077,8.38461538 8.93846154,8.10769231 9.12307692,7.92307692 L10.6307692,6.41538462 C10.8461538,6.2 10.9076923,6.01538462 10.6615385,5.89230769 C10.5692308,5.86153846 10.3230769,5.86153846 10.3230769,5.86153846 L6.04615385,5.86153846 C3.86153846,5.86153846 2.10769231,7.61538462 2.10769231,9.8 C2.10769231,11.9846154 3.86153846,13.7384615 6.04615385,13.7384615 L8.53846154,13.7384615 C8.78461538,13.7384615 8.96923077,13.9538462 8.96923077,14.2 L8.96923077,15.1846154 C8.96923077,15.4307692 8.81538462,15.6153846 8.56923077,15.6153846 L6.04615385,15.6153846 C2.84615385,15.6153846 0.230769231,13.0307692 0.230769231,9.8 C0.230769231,6.56923077 2.84615385,3.98461538 6.04615385,3.98461538 L10.3230769,3.95384615 L10.3230769,3.95384615 Z" id="path-3"></path>
        <path d="M9.1,3.98461538 C12.3,3.98461538 14.9153846,6.56923077 14.9153846,9.8 C14.9153846,13.0307692 12.3,15.6153846 9.1,15.6153846 L6.57692308,15.6153846 C6.33076923,15.6153846 6.17692308,15.4307692 6.17692308,15.1846154 L6.17692308,14.2 C6.17692308,13.9538462 6.36153846,13.7384615 6.60769231,13.7384615 L9.1,13.7384615 C11.2846154,13.7384615 13.0384615,11.9846154 13.0384615,9.8 C13.0384615,7.61538462 11.2846154,5.86153846 9.1,5.86153846 L4.82307692,5.86153846 C4.82307692,5.86153846 4.57692308,5.86153846 4.48461538,5.89230769 C4.23846154,6.01538462 4.3,6.2 4.51538462,6.41538462 L6.02307692,7.92307692 C6.20769231,8.10769231 6.17692308,8.38461538 5.99230769,8.56923077 L5.31538462,9.24615385 C5.13076923,9.43076923 4.91538462,9.43076923 4.73076923,9.27692308 L0.730769231,5.27692308 C0.576923077,5.12307692 0.576923077,4.87692308 0.730769231,4.72307692 L4.7,0.753846154 C4.88461538,0.569230769 5.19230769,0.569230769 5.34615385,0.753846154 L5.99230769,1.4 C6.17692308,1.58461538 6.17692308,1.89230769 5.99230769,2.04615385 L4.48461538,3.55384615 C4.3,3.73846154 4.3,3.95384615 4.60769231,3.95384615 L4.82307692,3.95384615 L9.1,3.98461538 L9.1,3.98461538 Z" id="path-5"></path>
        <path d="M10.3230769,3.95384615 L10.5384615,3.95384615 C10.8461538,3.95384615 10.8461538,3.73846154 10.6615385,3.55384615 L9.15384615,2.04615385 C8.96923077,1.89230769 8.96923077,1.58461538 9.15384615,1.4 L9.8,0.753846154 C9.95384615,0.569230769 10.2615385,0.569230769 10.4461538,0.753846154 L14.4153846,4.72307692 C14.5692308,4.87692308 14.5692308,5.12307692 14.4153846,5.27692308 L10.4153846,9.27692308 C10.2307692,9.43076923 10.0153846,9.43076923 9.83076923,9.24615385 L9.15384615,8.56923077 C8.96923077,8.38461538 8.93846154,8.10769231 9.12307692,7.92307692 L10.6307692,6.41538462 C10.8461538,6.2 10.9076923,6.01538462 10.6615385,5.89230769 C10.5692308,5.86153846 10.3230769,5.86153846 10.3230769,5.86153846 L6.04615385,5.86153846 C3.86153846,5.86153846 2.10769231,7.61538462 2.10769231,9.8 C2.10769231,11.9846154 3.86153846,13.7384615 6.04615385,13.7384615 L8.53846154,13.7384615 C8.78461538,13.7384615 8.96923077,13.9538462 8.96923077,14.2 L8.96923077,15.1846154 C8.96923077,15.4307692 8.81538462,15.6153846 8.56923077,15.6153846 L6.04615385,15.6153846 C2.84615385,15.6153846 0.230769231,13.0307692 0.230769231,9.8 C0.230769231,6.56923077 2.84615385,3.98461538 6.04615385,3.98461538 L10.3230769,3.95384615 L10.3230769,3.95384615 Z" id="path-7"></path>
        <path d="M9.1,3.98461538 C12.3,3.98461538 14.9153846,6.56923077 14.9153846,9.8 C14.9153846,13.0307692 12.3,15.6153846 9.1,15.6153846 L6.57692308,15.6153846 C6.33076923,15.6153846 6.17692308,15.4307692 6.17692308,15.1846154 L6.17692308,14.2 C6.17692308,13.9538462 6.36153846,13.7384615 6.60769231,13.7384615 L9.1,13.7384615 C11.2846154,13.7384615 13.0384615,11.9846154 13.0384615,9.8 C13.0384615,7.61538462 11.2846154,5.86153846 9.1,5.86153846 L4.82307692,5.86153846 C4.82307692,5.86153846 4.57692308,5.86153846 4.48461538,5.89230769 C4.23846154,6.01538462 4.3,6.2 4.51538462,6.41538462 L6.02307692,7.92307692 C6.20769231,8.10769231 6.17692308,8.38461538 5.99230769,8.56923077 L5.31538462,9.24615385 C5.13076923,9.43076923 4.91538462,9.43076923 4.73076923,9.27692308 L0.730769231,5.27692308 C0.576923077,5.12307692 0.576923077,4.87692308 0.730769231,4.72307692 L4.7,0.753846154 C4.88461538,0.569230769 5.19230769,0.569230769 5.34615385,0.753846154 L5.99230769,1.4 C6.17692308,1.58461538 6.17692308,1.89230769 5.99230769,2.04615385 L4.48461538,3.55384615 C4.3,3.73846154 4.3,3.95384615 4.60769231,3.95384615 L4.82307692,3.95384615 L9.1,3.98461538 L9.1,3.98461538 Z" id="path-9"></path>
        <path d="M2.90094612,10.2769231 L5.63940765,13.0153846 C5.76248458,13.1384615 5.94709996,13.1384615 6.07017688,13.0153846 L12.9009461,6.15384615 C13.024023,6.03076923 13.024023,5.84615385 12.9009461,5.72307692 L10.1932538,3.01538462 C10.0701769,2.89230769 9.8855615,2.89230769 9.76248458,3.01538462 L2.90094612,9.87692308 C2.77786919,10 2.77786919,10.1846154 2.90094612,10.2769231 L2.90094612,10.2769231 Z M11.0855615,1.75384615 C10.9624846,1.87692308 10.9624846,2.06153846 11.0855615,2.18461538 L13.7932538,4.89230769 C13.9163307,5.01538462 14.1009461,5.01538462 14.224023,4.89230769 L14.9932538,4.12307692 C15.4855615,3.66153846 15.4855615,2.92307692 14.9932538,2.43076923 L13.5471,0.984615385 C13.0547923,0.492307692 12.2855615,0.492307692 11.7932538,0.984615385 L11.0855615,1.75384615 L11.0855615,1.75384615 Z M0.624023039,14.8307692 C0.562484577,15.1384615 0.839407654,15.4153846 1.14709996,15.3538462 L4.50094612,14.5538462 C4.62402304,14.5230769 4.71633073,14.4615385 4.77786919,14.4 L4.83940765,14.3384615 C4.90094612,14.2769231 4.93171535,14.0615385 4.80863842,13.9384615 L2.03940765,11.1692308 C1.91633073,11.0461538 1.70094612,11.0769231 1.63940765,11.1384615 L1.57786919,11.2 C1.4855615,11.2923077 1.45479227,11.3846154 1.42402304,11.4769231 L0.624023039,14.8307692 L0.624023039,14.8307692 Z" id="path-11"></path>
        <path d="M12.5384615,0.615384615 L4.53846154,0.615384615 C3.86153846,0.615384615 3.30769231,1.16923077 3.30769231,1.84615385 L3.30769231,2.46153846 L10.6923077,2.46153846 C11.3692308,2.46153846 11.9230769,3.01538462 11.9230769,3.69230769 L11.9230769,12.3076923 L12.5384615,12.3076923 C13.2153846,12.3076923 13.7692308,11.7538462 13.7692308,11.0769231 L13.7692308,1.84615385 C13.7692308,1.16923077 13.2153846,0.615384615 12.5384615,0.615384615 Z M10.6923077,4.92307692 C10.6923077,4.24615385 10.1384615,3.69230769 9.46153846,3.69230769 L1.46153846,3.69230769 C0.784615385,3.69230769 0.230769231,4.24615385 0.230769231,4.92307692 L0.230769231,14.1538462 C0.230769231,14.8307692 0.784615385,15.3846154 1.46153846,15.3846154 L9.46153846,15.3846154 C10.1384615,15.3846154 10.6923077,14.8307692 10.6923077,14.1538462 L10.6923077,4.92307692 Z M5.15384615,7.07692308 C5.15384615,7.26153846 5.03076923,7.38461538 4.84615385,7.38461538 L2.38461538,7.38461538 C2.2,7.38461538 2.07692308,7.26153846 2.07692308,7.07692308 L2.07692308,6.46153846 C2.07692308,6.27692308 2.2,6.15384615 2.38461538,6.15384615 L4.84615385,6.15384615 C5.03076923,6.15384615 5.15384615,6.27692308 5.15384615,6.46153846 L5.15384615,7.07692308 Z M7.61538462,12 C7.61538462,12.1846154 7.49230769,12.3076923 7.30769231,12.3076923 L2.38461538,12.3076923 C2.2,12.3076923 2.07692308,12.1846154 2.07692308,12 L2.07692308,11.3846154 C2.07692308,11.2 2.2,11.0769231 2.38461538,11.0769231 L7.30769231,11.0769231 C7.49230769,11.0769231 7.61538462,11.2 7.61538462,11.3846154 L7.61538462,12 Z M8.84615385,9.53846154 C8.84615385,9.72307692 8.72307692,9.84615385 8.53846154,9.84615385 L2.38461538,9.84615385 C2.2,9.84615385 2.07692308,9.72307692 2.07692308,9.53846154 L2.07692308,8.92307692 C2.07692308,8.73846154 2.2,8.61538462 2.38461538,8.61538462 L8.53846154,8.61538462 C8.72307692,8.61538462 8.84615385,8.73846154 8.84615385,8.92307692 L8.84615385,9.53846154 Z" id="path-13"></path>
        <path d="M14.6230769,2.15384615 L13.3307692,1.2 C13.1461538,1.07692308 12.9615385,1.01538462 12.7461538,1.01538462 L8.37692308,1.01538462 L8.37692308,0.492307692 C8.37692308,0.215384615 8.16153846,0 7.88461538,0 L6.9,0 C6.62307692,0 6.40769231,0.215384615 6.40769231,0.492307692 L6.40769231,0.984615385 L1.48461538,0.984615385 C1.20769231,0.984615385 0.992307692,1.2 0.992307692,1.47692308 L0.992307692,3.44615385 C0.992307692,3.72307692 1.20769231,3.93846154 1.48461538,3.93846154 L12.7461538,3.93846154 C12.9615385,3.93846154 13.1769231,3.87692308 13.3307692,3.75384615 L14.6230769,2.8 C14.8384615,2.61538462 14.8384615,2.30769231 14.6230769,2.15384615 L14.6230769,2.15384615 Z M13.3,6.4 L8.37692308,6.4 L8.37692308,5.66153846 C8.37692308,5.50769231 8.28461538,5.41538462 8.13076923,5.41538462 L6.65384615,5.41538462 C6.5,5.41538462 6.40769231,5.50769231 6.40769231,5.66153846 L6.40769231,6.4 L2.03846154,6.4 C1.82307692,6.4 1.60769231,6.46153846 1.45384615,6.58461538 L0.161538462,7.53846154 C-0.0538461538,7.69230769 -0.0538461538,8 0.161538462,8.18461538 L1.45384615,9.13846154 C1.63846154,9.26153846 1.82307692,9.32307692 2.03846154,9.32307692 L13.3,9.32307692 C13.5769231,9.32307692 13.7923077,9.10769231 13.7923077,8.83076923 L13.7923077,6.86153846 C13.7923077,6.61538462 13.5769231,6.4 13.3,6.4 L13.3,6.4 Z M8.37692308,12.7076923 L8.37692308,11.0769231 C8.37692308,10.9230769 8.28461538,10.8307692 8.13076923,10.8307692 L6.65384615,10.8307692 C6.5,10.8307692 6.40769231,10.9230769 6.40769231,11.0769231 L6.40769231,12.7076923 C5.42307692,12.9846154 4.86923077,13.5692308 4.71538462,14.3076923 C4.65384615,14.5230769 4.83846154,14.7692308 5.08461538,14.7692308 L9.73076923,14.7692308 C9.97692308,14.7692308 10.1615385,14.5538462 10.1,14.3076923 C9.91538462,13.5692308 9.36153846,12.9846154 8.37692308,12.7076923 Z" id="path-15"></path>
        <path d="M2.90094612,10.2769231 L5.63940765,13.0153846 C5.76248458,13.1384615 5.94709996,13.1384615 6.07017688,13.0153846 L12.9009461,6.15384615 C13.024023,6.03076923 13.024023,5.84615385 12.9009461,5.72307692 L10.1932538,3.01538462 C10.0701769,2.89230769 9.8855615,2.89230769 9.76248458,3.01538462 L2.90094612,9.87692308 C2.77786919,10 2.77786919,10.1846154 2.90094612,10.2769231 L2.90094612,10.2769231 Z M11.0855615,1.75384615 C10.9624846,1.87692308 10.9624846,2.06153846 11.0855615,2.18461538 L13.7932538,4.89230769 C13.9163307,5.01538462 14.1009461,5.01538462 14.224023,4.89230769 L14.9932538,4.12307692 C15.4855615,3.66153846 15.4855615,2.92307692 14.9932538,2.43076923 L13.5471,0.984615385 C13.0547923,0.492307692 12.2855615,0.492307692 11.7932538,0.984615385 L11.0855615,1.75384615 L11.0855615,1.75384615 Z M0.624023039,14.8307692 C0.562484577,15.1384615 0.839407654,15.4153846 1.14709996,15.3538462 L4.50094612,14.5538462 C4.62402304,14.5230769 4.71633073,14.4615385 4.77786919,14.4 L4.83940765,14.3384615 C4.90094612,14.2769231 4.93171535,14.0615385 4.80863842,13.9384615 L2.03940765,11.1692308 C1.91633073,11.0461538 1.70094612,11.0769231 1.63940765,11.1384615 L1.57786919,11.2 C1.4855615,11.2923077 1.45479227,11.3846154 1.42402304,11.4769231 L0.624023039,14.8307692 L0.624023039,14.8307692 Z" id="path-17"></path>
        <path d="M0.307845027,-4.4408921e-16 L8.68654325,-4.4408921e-16 C8.92322964,-4.4408921e-16 9.08891012,0.307692308 8.899561,0.520710059 L4.80488645,5.53846154 C4.66287461,5.72781065 4.35518231,5.72781065 4.21317047,5.53846154 L0.0711586367,0.520710059 C-0.0945218367,0.307692308 0.0474899977,-4.4408921e-16 0.307845027,-4.4408921e-16 Z" id="path-19"></path>
        <path d="M7.01965137,5.33472803 C5.79426852,5.33472803 4.82024625,6.30753138 4.82024625,7.53138075 C4.82024625,8.75523013 5.79426852,9.72803347 7.01965137,9.72803347 C8.24503423,9.72803347 9.2190565,8.75523013 9.2190565,7.53138075 C9.2190565,6.30753138 8.24503423,5.33472803 7.01965137,5.33472803 Z M13.6178668,9.5083682 L12.4553241,8.53556485 C12.5181642,8.19037657 12.5495843,7.81380753 12.5495843,7.46861925 C12.5495843,7.12343096 12.5181642,6.74686192 12.4553241,6.40167364 L13.6178668,5.42887029 C13.9949076,5.11506276 14.1205879,4.55020921 13.8692273,4.11087866 L13.3665062,3.23221757 C13.1779857,2.91841004 12.8323649,2.73012552 12.4553241,2.73012552 C12.3296438,2.73012552 12.2039635,2.76150628 12.1097032,2.79288703 L10.6643799,3.32635983 C10.0988186,2.82426778 9.47041709,2.4790795 8.81059555,2.25941423 L8.55923497,0.784518828 C8.46497475,0.282426778 8.02509372,0 7.52237255,0 L6.5169302,0 C6.01420903,0 5.574328,0.282426778 5.48006778,0.784518828 L5.2287072,2.22803347 C4.53746559,2.44769874 3.90906412,2.82426778 3.3435028,3.29497908 L1.89817943,2.76150628 C1.77249914,2.73012552 1.67823892,2.69874477 1.55255863,2.69874477 C1.17551775,2.69874477 0.82989694,2.88702929 0.6413765,3.20083682 L0.138655328,4.07949791 C-0.112705258,4.51882845 -0.0184450385,5.08368201 0.390015914,5.39748954 L1.55255863,6.37029289 C1.48971848,6.71548117 1.45829841,7.09205021 1.45829841,7.43723849 C1.45829841,7.81380753 1.48971848,8.15899582 1.55255863,8.5041841 L0.390015914,9.47698745 C0.0129750348,9.79079498 -0.112705258,10.3556485 0.138655328,10.7949791 L0.6413765,11.6736402 C0.82989694,11.9874477 1.17551775,12.1757322 1.55255863,12.1757322 C1.67823892,12.1757322 1.80391921,12.1443515 1.89817943,12.1129707 L3.3435028,11.5794979 C3.90906412,12.08159 4.53746559,12.4267782 5.19728712,12.6464435 L5.44864771,14.1527197 C5.54290793,14.6548117 5.95136888,15 6.48551013,15 L7.49095247,15 C7.99367365,15 8.43355467,14.623431 8.52781489,14.1213389 L8.77917548,12.6150628 C9.50183716,12.3640167 10.1616587,11.9874477 10.72722,11.4539749 L12.0782832,11.9874477 C12.2039635,12.0188285 12.3296438,12.0502092 12.4553241,12.0502092 C12.8323649,12.0502092 13.1779857,11.8619247 13.3665062,11.5481172 L13.8378073,10.7322176 C14.1205879,10.3870293 13.9949076,9.82217573 13.6178668,9.5083682 L13.6178668,9.5083682 Z M7.01965137,10.9832636 C5.10302691,10.9832636 3.56344331,9.44560669 3.56344331,7.53138075 C3.56344331,5.61715481 5.10302691,4.07949791 7.01965137,4.07949791 C8.93627584,4.07949791 10.4758594,5.61715481 10.4758594,7.53138075 C10.4758594,9.44560669 8.93627584,10.9832636 7.01965137,10.9832636 Z" id="path-21"></path>
    </defs>
    <g id="journey-builder-shell-top-nav--prototype" stroke="none" stroke-width="1" fill="none" fill-rule="evenodd">
        <g id="JB-App-Nav">
            <g id="JB-Nav">
                <g id="Background" fill="#F8F9FB" stroke="#D8DDE6">
                    <rect id="Rectangle-30" x="0.5" y="0.5" width="1283" height="78"></rect>
                </g>
                <g id="Nav/Save,-Validate-and-Test" transform="translate(979.000000, 24.000000)">
                    <g>
                        <rect id="Rectangle-8" stroke="#D9DDE6" fill="#FFFFFF" x="0.5" y="0.5" width="185" height="31" rx="4"></rect>
                        <path d="M135.5,0.5 L135.5,31.5644491" id="Line-2" stroke="#DADDE6" stroke-linecap="square"></path>
                        <path d="M56.5,0.5 L56.5,31.5644491" id="Line-2" stroke="#DADDE6" stroke-linecap="square"></path>
                        <text id="Save" font-family="SalesforceSans-Bold, Salesforce Sans" font-size="13" font-weight="bold" fill="#6187BF">
                            <tspan x="13" y="21">Save</tspan>
                        </text>
                        <text id="Validate" font-family="SalesforceSans-Bold, Salesforce Sans" font-size="13" font-weight="bold" fill="#6187BF">
                            <tspan x="70" y="21">Validate</tspan>
                        </text>
                        <text id="Test" font-family="SalesforceSans-Bold, Salesforce Sans" font-size="13" font-weight="bold" fill="#6187BF">
                            <tspan x="148" y="21">Test</tspan>
                        </text>
                    </g>
                </g>
                <g id="Nav/Status" transform="translate(396.000000, 33.000000)" fill="#00396B" font-family="SalesforceSans-Bold, Salesforce Sans" font-size="13" font-weight="bold">
                    <g id="Status:-Draft">
                        <text>
                            <tspan x="0" y="13">Status:</tspan>
                            <tspan x="42.809" y="13" font-family="SalesforceSans-Regular, Salesforce Sans" font-weight="normal"> Draft</tspan>
                        </text>
                    </g>
                </g>
                <g id="Nav/Journey-Builder-Name" transform="translate(36.000000, 12.000000)">
                    <text id="Winter-Jackets-Sale" font-family="SalesforceSans-Regular, Salesforce Sans" font-size="20" font-weight="normal" fill="#16325C">
                        <tspan x="5" y="20">Winter Jackets Sale</tspan>
                    </text>
                    <text id="Enter-a-description…" font-family="SalesforceSans-Regular, Salesforce Sans" font-size="12" font-weight="normal" fill="#54698D">
                        <tspan x="5" y="49">Enter a description…</tspan>
                    </text>
                    <path d="M238.502101,28.5 L0.480851844,28.5" id="Line-5" stroke="#D1D6F0" stroke-linecap="square"></path>
                    <path d="M238.518907,54.5 L0.5,54.5" id="Line-5" stroke="#D1D6F0" stroke-linecap="square"></path>
                </g>
                <g id="Nav/Back-Navigation" transform="translate(17.000000, 34.000000)">
                    <g>
                        <mask id="mask-2" fill="white">
                            <use xlink:href="#path-1"></use>
                        </mask>
                        <use id="Mask" fill="#061C3F" xlink:href="#path-1"></use>
                    </g>
                </g>
                <g id="Nav/Activate" transform="translate(1187.000000, 24.000000)">
                    <g>
                        <rect id="Rectangle-32" fill="#0070D2" x="0" y="0" width="73" height="32" rx="3"></rect>
                        <text id="Activate" font-family="SalesforceSans-Bold, Salesforce Sans" font-size="13" font-weight="bold" fill="#FFFFFF">
                            <tspan x="11" y="21">Activate</tspan>
                        </text>
                    </g>
                </g>
                <g id="Nav/Undo-and-Redo" transform="translate(689.000000, 23.000000)">
                    <g id="Undo-and-Redo-Disabled">
                        <rect id="Rectangle-10" stroke="#D8DDE6" fill="#FFFFFF" x="0.5" y="0.5" width="65" height="31" rx="4"></rect>
                        <g id="icons/utility/redo" transform="translate(42.000000, 8.000000)">
                            <mask id="mask-4" fill="white">
                                <use xlink:href="#path-3"></use>
                            </mask>
                            <use id="Mask" fill="#E3E7ED" xlink:href="#path-3"></use>
                        </g>
                        <g id="icons/utility/undo" transform="translate(8.000000, 8.000000)">
                            <mask id="mask-6" fill="white">
                                <use xlink:href="#path-5"></use>
                            </mask>
                            <use id="Mask" fill="#E3E7ED" xlink:href="#path-5"></use>
                        </g>
                        <path d="M33.5,1.5 L33.5,31.5" id="Line-3" stroke="#D8DDE6" stroke-linecap="square"></path>
                    </g>
                    <g id="Undo-and-Redo-Active">
                        <g>
                            <rect id="Rectangle-10" stroke="#D8DDE6" fill="#FFFFFF" x="0.5" y="0.5" width="65" height="31" rx="4"></rect>
                            <g id="icons/utility/redo" transform="translate(42.000000, 8.000000)">
                                <mask id="mask-8" fill="white">
                                    <use xlink:href="#path-7"></use>
                                </mask>
                                <use id="Mask" fill="#54698D" xlink:href="#path-7"></use>
                            </g>
                            <g id="icons/utility/undo" transform="translate(8.000000, 8.000000)">
                                <mask id="mask-10" fill="white">
                                    <use xlink:href="#path-9"></use>
                                </mask>
                                <use id="Mask" fill="#54698D" xlink:href="#path-9"></use>
                            </g>
                            <path d="M33.5,1.5 L33.5,31.5" id="Line-3" stroke="#D8DDE6" stroke-linecap="square"></path>
                        </g>
                    </g>
                </g>
                <g id="Nav/Journey-Builder-Modes" transform="translate(782.000000, 23.000000)">
                    <g id="Inactive">
                        <rect id="Rectangle-10" stroke="#D8DDE6" fill="#FFFFFF" x="0.5" y="0.5" width="90" height="31" rx="4"></rect>
                        <g id="icons/utility/edit-copy" transform="translate(38.000000, 8.000000)">
                            <mask id="mask-12" fill="white">
                                <use xlink:href="#path-11"></use>
                            </mask>
                            <use id="Mask" fill="#4E6993" xlink:href="#path-11"></use>
                        </g>
                        <path d="M30.5,1.5 L30.5,31.5" id="Line-3" stroke="#D8DDE6" stroke-linecap="square"></path>
                        <path d="M60.5,1.5 L60.5,31.5" id="Line-3" stroke="#D8DDE6" stroke-linecap="square"></path>
                        <g id="Group-2" transform="translate(65.000000, 7.000000)">
                            <g id="icons/utility/copy" transform="translate(5.000000, 0.000000)">
                                <mask id="mask-14" fill="white">
                                    <use xlink:href="#path-13"></use>
                                </mask>
                                <use id="Mask" fill="#54698D" xlink:href="#path-13"></use>
                            </g>
                            <rect id="Rectangle-6" fill="#FFFFFF" transform="translate(6.410534, 15.410534) rotate(-45.000000) translate(-6.410534, -15.410534) " x="2" y="11" width="8.82106781" height="8.82106781" rx="1"></rect>
                            <rect id="Rectangle-6" fill="#54698D" transform="translate(6.500000, 15.500000) rotate(-45.000000) translate(-6.500000, -15.500000) " x="3" y="12" width="7" height="7" rx="1"></rect>
                        </g>
                        <g id="icons/utility/checkin" transform="translate(10.000000, 8.000000)"></g>
                        <g id="Group-6" transform="translate(8.000000, 9.000000)">
                            <mask id="mask-16" fill="white">
                                <use xlink:href="#path-15"></use>
                            </mask>
                            <use id="Mask" fill="#54698D" xlink:href="#path-15"></use>
                        </g>
                    </g>
                    <g id="Edit-Active" transform="translate(30.000000, 0.000000)">
                        <g>
                            <rect id="Rectangle" stroke="#D8DDE6" fill="#005FB2" x="0.5" y="0.5" width="30" height="31"></rect>
                            <g id="icons/utility/edit-copy" transform="translate(8.000000, 8.000000)">
                                <mask id="mask-18" fill="white">
                                    <use xlink:href="#path-17"></use>
                                </mask>
                                <use id="Mask" fill="#FFFFFF" xlink:href="#path-17"></use>
                            </g>
                        </g>
                    </g>
                </g>
            </g>
            <g id="Options/Button" transform="translate(900.000000, 24.000000)">
                <g id="Options">
                    <g>
                        <rect id="Rectangle-10" stroke="#D8DDE6" fill="#FFFFFF" x="0.5" y="0.5" width="54" height="31" rx="4"></rect>
                        <g id="icons/utility/down" transform="translate(34.000000, 13.000000)">
                            <mask id="mask-20" fill="white">
                                <use xlink:href="#path-19"></use>
                            </mask>
                            <use id="Mask" fill="#54698D" xlink:href="#path-19"></use>
                        </g>
                        <g id="icons/utility/settings" transform="translate(11.000000, 9.000000)">
                            <mask id="mask-22" fill="white">
                                <use xlink:href="#path-21"></use>
                            </mask>
                            <use id="Mask" fill="#54698D" xlink:href="#path-21"></use>
                        </g>
                    </g>
                </g>
            </g>
        </g>
    </g>
</svg>