<?xml version="1.0" encoding="UTF-8"?>
<svg width="199px" height="33px" viewBox="0 0 199 33" version="1.1" xmlns="http://www.w3.org/2000/svg" xmlns:xlink="http://www.w3.org/1999/xlink">
	<defs>
		<style>
			
		</style>
	</defs>

    <!-- Generator: Sketch 50.2 (55047) - http://www.bohemiancoding.com/sketch -->
    <title>segments.manage-segments.menu-a-right</title>
    <desc>Created with Sketch.</desc>
    <defs>
        <rect id="path-1" x="0" y="95" width="1280" height="50"></rect>
        <filter x="-0.1%" y="-3.0%" width="100.2%" height="106.0%" filterUnits="objectBoundingBox" id="filter-2">
            <feGaussianBlur stdDeviation="0.5" in="SourceAlpha" result="shadowBlurInner1"></feGaussianBlur>
            <feOffset dx="0" dy="2" in="shadowBlurInner1" result="shadowOffsetInner1"></feOffset>
            <feComposite in="shadowOffsetInner1" in2="SourceAlpha" operator="arithmetic" k2="-1" k3="1" result="shadowInnerInner1"></feComposite>
            <feColorMatrix values="0 0 0 0 1   0 0 0 0 1   0 0 0 0 1  0 0 0 1 0" type="matrix" in="shadowInnerInner1"></feColorMatrix>
        </filter>
    </defs>
    <g id="Storyboard---5/31" stroke="none" stroke-width="1" fill="none" fill-rule="evenodd">
        <g id="Manage-Segments" transform="translate(-1057.000000, -195.000000)">
            <g id="Group-20" transform="translate(0.000000, 91.000000)">
                <g id="Rectangle-4">
                    <use fill="#F7F9FB" fill-rule="evenodd" xlink:href="#path-1"></use>
                    <use fill="black" fill-opacity="1" filter="url(#filter-2)" xlink:href="#path-1"></use>
                </g>
            </g>
            <g id="download" transform="translate(1188.000000, 195.000000)">
                <rect id="Rectangle-207" stroke="#E0E5EE" fill="#FFFFFF" x="0.5" y="0.5" width="31" height="31" rx="4"></rect>
                <path d="M22.5585586,17.4504505 L21.6756757,17.4504505 C21.4234234,17.4504505 21.2342342,17.6396396 21.2342342,17.8918919 L21.2342342,20.7927928 C21.2342342,21.045045 21.045045,21.2342342 20.7927928,21.2342342 L11.2072072,21.2342342 C10.954955,21.2342342 10.7657658,21.045045 10.7657658,20.7927928 L10.7657658,17.8918919 C10.7657658,17.6396396 10.5765766,17.4504505 10.3243243,17.4504505 L9.44144144,17.4504505 C9.18918919,17.4504505 9,17.6396396 9,17.8918919 L9,21.8018018 C9,22.4324324 9.56756757,23 10.1981982,23 L21.8018018,23 C22.4324324,23 23,22.4324324 23,21.8018018 L23,17.8918919 C23,17.6396396 22.8108108,17.4504505 22.5585586,17.4504505 Z M15.6846847,19.4054054 C15.8738739,19.5315315 16.1261261,19.5315315 16.3153153,19.4054054 L20.2252252,15.4324324 C20.4144144,15.2432432 20.4144144,14.990991 20.2252252,14.8648649 L19.6576577,14.2342342 C19.4684685,14.045045 19.2162162,14.045045 19.027027,14.2342342 L17.3873874,15.8738739 C17.1981982,16 16.8828829,15.9369369 16.8828829,15.6216216 L16.8828829,9.44144144 C16.8828829,9.18918919 16.6306306,9 16.4414414,9 L15.5585586,9 C15.3063063,9 15.1171171,9.18918919 15.1171171,9.44144144 L15.1171171,15.6216216 C15.1171171,15.8738739 14.8018018,16 14.6126126,15.8108108 L12.972973,14.1711712 C12.8468468,14.045045 12.5945946,14.045045 12.4054054,14.1711712 L11.7747748,14.8648649 C11.5855856,14.990991 11.5855856,15.2432432 11.7747748,15.4324324 L15.6846847,19.4054054 L15.6846847,19.4054054 Z" id="Shape" fill="#54698D"></path>
            </g>
            <g id="Button-New-Copy-2" transform="translate(1057.000000, 195.000000)">
                <rect id="Rectangle-827" fill="#0070D2" x="0" y="0" width="127" height="32" rx="4"></rect>
                <path d="M33.08,11.504 L34.304,11.504 L39.248,18.56 L39.272,18.56 L39.248,11.504 L40.244,11.504 L40.244,20 L39.02,20 L34.076,12.944 L34.052,12.944 L34.076,20 L33.08,20 L33.08,11.504 Z M47.48,17.312 L42.944,17.312 C42.9840002,17.9360031 43.1719983,18.4319982 43.508,18.8 C43.8440017,19.1680018 44.3239969,19.352 44.948,19.352 C45.3160018,19.352 45.6459985,19.3020005 45.938,19.202 C46.2300015,19.1019995 46.5239985,18.952001 46.82,18.752 L47.276,19.412 C46.9319983,19.6600012 46.5660019,19.8479994 46.178,19.976 C45.7899981,20.1040006 45.3600024,20.168 44.888,20.168 C43.9519953,20.168 43.2220026,19.872003 42.698,19.28 C42.1739974,18.687997 41.912,17.9000049 41.912,16.916 C41.912,16.2839968 42.0239989,15.7280024 42.248,15.248 C42.4720011,14.7679976 42.7979979,14.3940013 43.226,14.126 C43.6540021,13.8579987 44.167997,13.724 44.768,13.724 C45.6560044,13.724 46.3339977,14.0119971 46.802,14.588 C47.2700023,15.1640029 47.504,15.9279952 47.504,16.88 C47.504,17.072001 47.4960001,17.2159995 47.48,17.312 Z M46.508,16.52 C46.4919999,15.911997 46.3360015,15.4240018 46.04,15.056 C45.7439985,14.6879982 45.3160028,14.504 44.756,14.504 C44.1879972,14.504 43.7480016,14.6939981 43.436,15.074 C43.1239984,15.4540019 42.9560001,15.9359971 42.932,16.52 L46.508,16.52 Z M55.448,20 L54.308,20 L52.724,14.984 L52.7,14.984 L51.14,20 L50.012,20 L48.296,13.892 L49.364,13.892 L50.612,18.896 L50.636,18.896 L52.184,13.892 L53.288,13.892 L54.848,18.896 L54.872,18.896 L56.132,13.892 L57.164,13.892 L55.448,20 Z M60.836,19.208 L61.376,18.536 C61.7200017,18.8080014 62.0759982,19.0039994 62.444,19.124 C62.8120018,19.2440006 63.2279977,19.304 63.692,19.304 C64.2680029,19.304 64.7339982,19.1700013 65.09,18.902 C65.4460018,18.6339987 65.624,18.2440026 65.624,17.732 C65.624,17.3719982 65.5400008,17.0800011 65.372,16.856 C65.2039992,16.6319989 64.9720015,16.4520007 64.676,16.316 C64.3799985,16.1799993 63.9880024,16.0480006 63.5,15.92 C62.707996,15.711999 62.116002,15.4300018 61.724,15.074 C61.331998,14.7179982 61.136,14.2200032 61.136,13.58 C61.136,12.8679964 61.4019973,12.312002 61.934,11.912 C62.4660027,11.511998 63.1439959,11.312 63.968,11.312 C64.4880026,11.312 64.9579979,11.3799993 65.378,11.516 C65.7980021,11.6520007 66.1879982,11.8519987 66.548,12.116 L66.068,12.812 C65.7319983,12.5959989 65.3980017,12.4360005 65.066,12.332 C64.7339983,12.2279995 64.368002,12.176 63.968,12.176 C63.4319973,12.176 63.0000016,12.2899989 62.672,12.518 C62.3439984,12.7460011 62.18,13.0759978 62.18,13.508 C62.18,13.9400022 62.3299985,14.2659989 62.63,14.486 C62.9300015,14.7060011 63.4199966,14.9039991 64.1,15.08 C64.9560043,15.3040011 65.6039978,15.6079981 66.044,15.992 C66.4840022,16.3760019 66.704,16.9439962 66.704,17.696 C66.704,18.2400027 66.5700013,18.6999981 66.302,19.076 C66.0339987,19.4520019 65.6720023,19.7339991 65.216,19.922 C64.7599977,20.1100009 64.2480028,20.204 63.68,20.204 C62.5759945,20.204 61.628004,19.8720033 60.836,19.208 Z M73.352,17.312 L68.816,17.312 C68.8560002,17.9360031 69.0439983,18.4319982 69.38,18.8 C69.7160017,19.1680018 70.1959969,19.352 70.82,19.352 C71.1880018,19.352 71.5179985,19.3020005 71.81,19.202 C72.1020015,19.1019995 72.3959985,18.952001 72.692,18.752 L73.148,19.412 C72.8039983,19.6600012 72.4380019,19.8479994 72.05,19.976 C71.6619981,20.1040006 71.2320024,20.168 70.76,20.168 C69.8239953,20.168 69.0940026,19.872003 68.57,19.28 C68.0459974,18.687997 67.784,17.9000049 67.784,16.916 C67.784,16.2839968 67.8959989,15.7280024 68.12,15.248 C68.3440011,14.7679976 68.6699979,14.3940013 69.098,14.126 C69.5260021,13.8579987 70.039997,13.724 70.64,13.724 C71.5280044,13.724 72.2059977,14.0119971 72.674,14.588 C73.1420023,15.1640029 73.376,15.9279952 73.376,16.88 C73.376,17.072001 73.3680001,17.2159995 73.352,17.312 Z M72.38,16.52 C72.3639999,15.911997 72.2080015,15.4240018 71.912,15.056 C71.6159985,14.6879982 71.1880028,14.504 70.628,14.504 C70.0599972,14.504 69.6200016,14.6939981 69.308,15.074 C68.9959984,15.4540019 68.8280001,15.9359971 68.804,16.52 L72.38,16.52 Z M74.204,21.248 C74.204,20.9039983 74.301999,20.5940014 74.498,20.318 C74.694001,20.0419986 75.0159978,19.7920011 75.464,19.568 C75.071998,19.3919991 74.876,19.1240018 74.876,18.764 C74.876,18.5479989 74.9539992,18.3560008 75.11,18.188 C75.2660008,18.0199992 75.4839986,17.8960004 75.764,17.816 C75.3879981,17.6639992 75.0940011,17.4320016 74.882,17.12 C74.6699989,16.8079984 74.564,16.4120024 74.564,15.932 C74.564,15.2519966 74.7879978,14.716002 75.236,14.324 C75.6840022,13.931998 76.307996,13.736 77.108,13.736 C77.3240011,13.736 77.5059993,13.7479999 77.654,13.772 C77.8020007,13.7960001 77.979999,13.8359997 78.188,13.892 L80.312,13.892 L80.312,14.708 L78.956,14.564 C79.148001,14.7000007 79.3039994,14.8919988 79.424,15.14 C79.5440006,15.3880012 79.604,15.6839983 79.604,16.028 C79.604,16.6760032 79.3840022,17.1819982 78.944,17.546 C78.5039978,17.9100018 77.888004,18.092 77.096,18.092 C76.695998,18.092 76.3820011,18.1439995 76.154,18.248 C75.9259989,18.3520005 75.812,18.4959991 75.812,18.68 C75.812,19.0080016 76.1999961,19.176 76.976,19.184 C78.1040056,19.2000001 78.9219975,19.3499986 79.43,19.634 C79.9380025,19.9180014 80.192,20.3479971 80.192,20.924 C80.192,21.6120034 79.9060029,22.1439981 79.334,22.52 C78.7619971,22.8960019 77.9600052,23.084 76.928,23.084 C76.0319955,23.084 75.3540023,22.9240016 74.894,22.604 C74.4339977,22.2839984 74.204,21.8320029 74.204,21.248 Z M78.656,15.944 C78.656,15.5039978 78.5240013,15.1520013 78.26,14.888 C77.9959987,14.6239987 77.6040026,14.492 77.084,14.492 C76.6039976,14.492 76.2220014,14.6199987 75.938,14.876 C75.6539986,15.1320013 75.512,15.4759978 75.512,15.908 C75.512,16.3640023 75.6419987,16.7199987 75.902,16.976 C76.1620013,17.2320013 76.5559974,17.36 77.084,17.36 C78.1320052,17.36 78.656,16.8880047 78.656,15.944 Z M79.184,21.008 C79.184,20.7679988 79.0940009,20.5720008 78.914,20.42 C78.7339991,20.2679992 78.4280022,20.1520004 77.996,20.072 C77.5639978,19.9919996 76.9720038,19.952 76.22,19.952 C75.8599982,20.1120008 75.6000008,20.293999 75.44,20.498 C75.2799992,20.702001 75.2,20.9359987 75.2,21.2 C75.2,21.9440037 75.7879941,22.316 76.964,22.316 C77.6920036,22.316 78.2439981,22.2040011 78.62,21.98 C78.9960019,21.7559989 79.184,21.4320021 79.184,21.008 Z M81.62,15.26 C81.62,14.8119978 81.5920003,14.3560023 81.536,13.892 L82.508,13.892 C82.5480002,14.1080011 82.5759999,14.3959982 82.592,14.756 L82.616,14.756 C82.808001,14.4519985 83.0779983,14.204001 83.426,14.012 C83.7740017,13.819999 84.1759977,13.724 84.632,13.724 C85.1520026,13.724 85.5759984,13.8339989 85.904,14.054 C86.2320016,14.2740011 86.4719992,14.5759981 86.624,14.96 L86.648,14.96 C86.856001,14.5759981 87.1399982,14.2740011 87.5,14.054 C87.8600018,13.8339989 88.2919975,13.724 88.796,13.724 C89.3000025,13.724 89.7199983,13.8339989 90.056,14.054 C90.3920017,14.2740011 90.6399992,14.5619982 90.8,14.918 C90.9600008,15.2740018 91.04,15.6639979 91.04,16.088 L91.04,20 L90.02,20 L90.02,16.232 C90.02,15.7599976 89.9060011,15.3640016 89.678,15.044 C89.4499989,14.7239984 89.0840025,14.564 88.58,14.564 C88.2119982,14.564 87.8960013,14.659999 87.632,14.852 C87.3679987,15.044001 87.1680007,15.2999984 87.032,15.62 C86.8959993,15.9400016 86.828,16.2839982 86.828,16.652 L86.828,20 L85.808,20 L85.808,16.208 C85.808,15.7439977 85.6920012,15.3540016 85.46,15.038 C85.2279988,14.7219984 84.8640025,14.564 84.368,14.564 C83.8399974,14.564 83.4200016,14.7499981 83.108,15.122 C82.7959984,15.4940019 82.64,15.9519973 82.64,16.496 L82.64,20 L81.62,20 L81.62,15.26 Z M98.156,17.312 L93.62,17.312 C93.6600002,17.9360031 93.8479983,18.4319982 94.184,18.8 C94.5200017,19.1680018 94.9999969,19.352 95.624,19.352 C95.9920018,19.352 96.3219985,19.3020005 96.614,19.202 C96.9060015,19.1019995 97.1999985,18.952001 97.496,18.752 L97.952,19.412 C97.6079983,19.6600012 97.2420019,19.8479994 96.854,19.976 C96.4659981,20.1040006 96.0360024,20.168 95.564,20.168 C94.6279953,20.168 93.8980026,19.872003 93.374,19.28 C92.8499974,18.687997 92.588,17.9000049 92.588,16.916 C92.588,16.2839968 92.6999989,15.7280024 92.924,15.248 C93.1480011,14.7679976 93.4739979,14.3940013 93.902,14.126 C94.3300021,13.8579987 94.843997,13.724 95.444,13.724 C96.3320044,13.724 97.0099977,14.0119971 97.478,14.588 C97.9460023,15.1640029 98.18,15.9279952 98.18,16.88 C98.18,17.072001 98.1720001,17.2159995 98.156,17.312 Z M97.184,16.52 C97.1679999,15.911997 97.0120015,15.4240018 96.716,15.056 C96.4199985,14.6879982 95.9920028,14.504 95.432,14.504 C94.8639972,14.504 94.4240016,14.6939981 94.112,15.074 C93.7999984,15.4540019 93.6320001,15.9359971 93.608,16.52 L97.184,16.52 Z M99.8,15.26 C99.8,14.8119978 99.7720003,14.3560023 99.716,13.892 L100.688,13.892 C100.728,14.1080011 100.756,14.3959982 100.772,14.756 L100.796,14.756 C100.996001,14.4439984 101.275998,14.1940009 101.636,14.006 C101.996002,13.8179991 102.423998,13.724 102.92,13.724 C103.688004,13.724 104.257998,13.9459978 104.63,14.39 C105.002002,14.8340022 105.188,15.3879967 105.188,16.052 L105.188,20 L104.168,20 L104.168,16.256 C104.168,15.7679976 104.048001,15.3660016 103.808,15.05 C103.567999,14.7339984 103.180003,14.576 102.644,14.576 C102.091997,14.576 101.650002,14.7579982 101.318,15.122 C100.985998,15.4860018 100.82,15.9439972 100.82,16.496 L100.82,20 L99.8,20 L99.8,15.26 Z M108.416,13.892 L110.036,13.892 L110.036,14.672 L108.416,14.672 L108.416,18.356 C108.416,19.0120033 108.715997,19.34 109.316,19.34 C109.532001,19.34 109.731999,19.3120003 109.916,19.256 L110.072,20.012 C109.799999,20.1160005 109.484002,20.168 109.124,20.168 C108.587997,20.168 108.166002,20.0180015 107.858,19.718 C107.549998,19.4179985 107.396,18.9920028 107.396,18.44 L107.396,14.672 L106.316,14.672 L106.316,14.012 L107.384,13.892 L107.384,12.392 L108.416,12.032 L108.416,13.892 Z" id="New-Segment" fill="#FFFFFF"></path>
                <g id="new" transform="translate(16.000000, 10.000000)" fill="#FFFFFF">
                    <path d="M6.98181818,6.76363636 L11.1818182,6.76363636 C11.3454545,6.76363636 11.5636364,6.6 11.5636364,6.38181818 L11.5636364,5.61818182 C11.5636364,5.4 11.3454545,5.23636364 11.1818182,5.23636364 L6.98181818,5.23636364 C6.87272727,5.23636364 6.76363636,5.12727273 6.76363636,5.01818182 L6.76363636,0.818181818 C6.76363636,0.654545455 6.6,0.436363636 6.38181818,0.436363636 L5.61818182,0.436363636 C5.4,0.436363636 5.23636364,0.654545455 5.23636364,0.818181818 L5.23636364,5.01818182 C5.23636364,5.12727273 5.12727273,5.23636364 5.01818182,5.23636364 L0.818181818,5.23636364 C0.654545455,5.23636364 0.436363636,5.4 0.436363636,5.61818182 L0.436363636,6.38181818 C0.436363636,6.6 0.654545455,6.76363636 0.818181818,6.76363636 L5.01818182,6.76363636 C5.12727273,6.76363636 5.23636364,6.87272727 5.23636364,6.98181818 L5.23636364,11.1818182 C5.23636364,11.3454545 5.4,11.5636364 5.61818182,11.5636364 L6.38181818,11.5636364 C6.6,11.5636364 6.76363636,11.3454545 6.76363636,11.1818182 L6.76363636,6.98181818 C6.76363636,6.87272727 6.87272727,6.76363636 6.98181818,6.76363636 L6.98181818,6.76363636 Z" id="Shape"></path>
                </g>
            </g>
            <g id="Bulk-Selection-Icon" transform="translate(1224.000000, 195.000000)">
                <g id="success">
                    <rect id="Rectangle-207" stroke="#E0E5EE" fill="#FFFFFF" x="0.5" y="0.5" width="31" height="31" rx="4"></rect>
                    <g id="overflow" transform="translate(9.000000, 9.000000)" fill="#54688D">
                        <path d="M12.0272727,0.858547009 C12.6954545,0.858547009 13.2893939,1.44487179 13.2893939,2.10448718 L13.2893939,10.166453 C13.2893939,10.8260684 12.6954545,11.4123932 12.0272727,11.4123932 L11.8045455,11.4123932 C11.730303,11.4123932 11.5818182,11.3391026 11.5818182,11.1925214 L11.5818182,3.71688034 C11.5818182,3.05726496 11.0621212,2.47094017 10.319697,2.47094017 L3.63787879,2.47094017 C3.48939394,2.47094017 3.41515152,2.39764957 3.41515152,2.32435897 L3.41515152,2.10448718 C3.41515152,1.44487179 3.93484848,0.858547009 4.67727273,0.858547009 L12.0272727,0.858547009 Z M9.07613636,6.97831197 C9.22462121,7.19818376 9.22462121,7.41805556 9.07613636,7.56463675 L4.84431818,11.6689103 C4.62159091,11.8887821 4.39886364,11.9620726 4.25037879,11.9620726 C4.02765152,11.9620726 3.80492424,11.8887821 3.65643939,11.6689103 L1.65189394,9.6900641 C1.42916667,9.54348291 1.42916667,9.32361111 1.65189394,9.10373932 L2.17159091,8.59070513 C2.39431818,8.37083333 2.61704545,8.37083333 2.7655303,8.59070513 L4.25037879,9.9832265 L7.88825758,6.39198718 C8.03674242,6.24540598 8.33371212,6.24540598 8.48219697,6.39198718 L9.07613636,6.97831197 Z M10.3939394,4.88952991 C10.3939394,4.15662393 9.87424242,3.64358974 9.13181818,3.64358974 L1.55909091,3.64358974 C0.816666667,3.64358974 0.296969697,4.15662393 0.296969697,4.88952991 L0.296969697,13.1713675 C0.296969697,13.8309829 0.890909091,14.4173077 1.55909091,14.4173077 L9.13181818,14.4173077 C9.87424242,14.4173077 10.3939394,13.8309829 10.3939394,13.1713675 L10.3939394,4.88952991 L10.3939394,4.88952991 Z" id="Shape"></path>
                    </g>
                </g>
            </g>
        </g>
    </g>
</svg>