<?xml version="1.0" encoding="UTF-8"?>
<svg class="slds-m-top_small" width="1248px" height="521px" viewBox="0 0 1256 521" version="1.1" xmlns="http://www.w3.org/2000/svg" xmlns:xlink="http://www.w3.org/1999/xlink">
    <!-- Generator: Sketch 55.1 (78136) - https://sketchapp.com -->
    <title>Group 14</title>
    <desc>Created with Sketch.</desc>
    <g id="Page-1" stroke="none" stroke-width="1" fill="none" fill-rule="evenodd">
        <g id="LAL" transform="translate(-12.000000, -316.000000)">
            <g id="Group-14" transform="translate(12.000000, 316.000000)">
                <rect id="Rectangle-5" stroke="#E0E5EE" fill="#FFFFFF" x="0.5" y="0.5" width="1255" height="520" rx="4"></rect>
                <path d="M12.5,88.0051581 L12.5,437.994842 C12.5,439.927418 14.0662325,441.5 15.9928966,441.5 L861.007103,441.5 C862.930385,441.5 864.5,439.927897 864.5,437.994842 L864.5,88.0051581 C864.5,86.0725824 862.933768,84.5 861.007103,84.5 L15.9928966,84.5 C14.0696154,84.5 12.5,86.0721027 12.5,88.0051581 Z" id="Rectangle-142-Copy" stroke="#D8DDE6" fill="#FFFFFF"></path>
                <g id="Header" transform="translate(28.000000, 100.000000)" font-family="SalesforceSans-Regular, Salesforce Sans" font-weight="normal">
                    <text id="Reach-vs.-Similarity" font-size="14" fill="#14315D">
                        <tspan x="0" y="16">Reach vs. Similarity</tspan>
                    </text>
                    <text id="Potential-Lookalikes" font-size="12" fill="#54698D">
                        <tspan x="0" y="38">Potential Lookalikes for Crime Genre Lover</tspan>
                    </text>
                </g>
                <g id="picklist-copy" transform="translate(609.000000, 100.000000)">
                    <path d="M0.5,25.0042577 L0.5,48.9957423 C0.5,50.9338598 2.0616438,52.5 3.99018572,52.5 L236.009814,52.5 C237.932317,52.5 239.5,50.9287918 239.5,48.9957423 L239.5,25.0042577 C239.5,23.0661402 237.938356,21.5 236.009814,21.5 L3.99018572,21.5 C2.06768294,21.5 0.5,23.0712082 0.5,25.0042577 Z" id="bkgd" stroke="#D8DDE6" fill="#FFFFFF"></path>
                    <path d="M227.517549,34 C227.77626,34 227.957357,34.325 227.750389,34.55 L223.274703,39.85 C223.119477,40.05 222.783153,40.05 222.627927,39.85 L218.100499,34.55 C217.919402,34.325 218.074628,34 218.35921,34 L227.517549,34 Z" id="down" fill="#54698D"></path>
                    <text id="All" font-family="SalesforceSans-Regular, Salesforce Sans" font-size="13" font-weight="normal" fill="#16325C">
                        <tspan x="11.9141174" y="43">All</tspan>
                    </text>
                    <text id="Similarity-Range" font-family="SalesforceSans-Regular, Salesforce Sans" font-size="13" font-weight="normal" line-spacing="18" fill="#53688E">
                        <tspan x="0.178141136" y="15">Similarity Range</tspan>
                    </text>
                </g>
                <g id="picklist-copy-4" transform="translate(363.000000, 100.000000)">
                    <path d="M0.5,25.0042577 L0.5,48.9957423 C0.5,50.9338598 2.0616438,52.5 3.99018572,52.5 L236.009814,52.5 C237.932317,52.5 239.5,50.9287918 239.5,48.9957423 L239.5,25.0042577 C239.5,23.0661402 237.938356,21.5 236.009814,21.5 L3.99018572,21.5 C2.06768294,21.5 0.5,23.0712082 0.5,25.0042577 Z" id="bkgd" stroke="#D8DDE6" fill="#FFFFFF"></path>
                    <path d="M227.517549,34 C227.77626,34 227.957357,34.325 227.750389,34.55 L223.274703,39.85 C223.119477,40.05 222.783153,40.05 222.627927,39.85 L218.100499,34.55 C217.919402,34.325 218.074628,34 218.35921,34 L227.517549,34 Z" id="down" fill="#54698D"></path>
                    <text id="All" font-family="SalesforceSans-Regular, Salesforce Sans" font-size="13" font-weight="normal" fill="#14315D">
                        <tspan x="11.9141174" y="43">All</tspan>
                    </text>
                    <text id="Reach-Range" font-family="SalesforceSans-Regular, Salesforce Sans" font-size="13" font-weight="normal" line-spacing="18" fill="#53688E">
                        <tspan x="0.178141136" y="15">Reach Range</tspan>
                    </text>
                </g>
                <path d="M12.5,16.0034866 L12.5,71.9965134 C12.5,73.9298544 14.0651944,75.5 15.9928966,75.5 L861.007103,75.5 C862.930431,75.5 864.5,73.9286002 864.5,71.9965134 L864.5,16.0034866 C864.5,14.0701456 862.934806,12.5 861.007103,12.5 L15.9928966,12.5 C14.0695686,12.5 12.5,14.0713998 12.5,16.0034866 Z" id="Rectangle-142-Copy" stroke="#D8DDE6" fill="#FFFFFF"></path>
                <g id="Group-21" transform="translate(28.000000, 27.000000)">
                    <g id="Group-32-Copy-2">
                        <g id="Group-25" transform="translate(42.000000, 1.000000)">
                            <g id="Group-22">
                                <text id="Reach-Protection" font-family="SalesforceSans-Regular, Salesforce Sans" font-size="14" font-weight="normal" fill="#0C2B63">
                                    <tspan x="0" y="16">Reach Protection</tspan>
                                </text>
                                <text id="Reach-protection-has" font-family="SalesforceSans-Regular, Salesforce Sans" font-size="12" font-weight="normal" fill="#4D619A">
                                    <tspan x="0" y="33">Reach protection has been enabled and will be applied if your audince number reaches the selected reach thresholds.</tspan>
                                </text>
                                <path d="M121.854167,10.9645833 C121.854167,11.1 121.745833,11.2083333 121.583333,11.2083333 L119.416667,11.2083333 C119.28125,11.2083333 119.145833,11.1270833 119.145833,10.9645833 L119.145833,10.4229167 C119.145833,10.2875 119.254167,10.125 119.416667,10.125 C119.552083,10.125 119.6875,10.04375 119.6875,9.88125 L119.6875,8.79791667 C119.6875,8.6625 119.579167,8.5 119.416667,8.5 C119.28125,8.5 119.145833,8.41875 119.145833,8.25625 L119.145833,7.71458333 C119.145833,7.57916667 119.254167,7.41666667 119.416667,7.41666667 L121.041667,7.41666667 C121.177083,7.41666667 121.3125,7.55208333 121.3125,7.71458333 L121.3125,9.88125 C121.3125,10.0166667 121.420833,10.125 121.583333,10.125 C121.71875,10.125 121.854167,10.2604167 121.854167,10.4229167 L121.854167,10.9645833 Z M120.5,5.27708333 C120.960417,5.27708333 121.3125,5.62916667 121.3125,6.08958333 C121.3125,6.55 120.960417,6.90208333 120.5,6.90208333 C120.039583,6.90208333 119.6875,6.55 119.6875,6.08958333 C119.6875,5.62916667 120.039583,5.27708333 120.5,5.27708333 L120.5,5.27708333 Z M120.5,2 C116.897917,2 114,4.89791667 114,8.5 C114,12.1020833 116.897917,15 120.5,15 C124.102083,15 127,12.1020833 127,8.5 C127,4.89791667 124.102083,2 120.5,2 L120.5,2 Z" id="Page-1-Copy" fill="#54698D"></path>
                            </g>
                        </g>
                        <g id="Group-29">
                            <g id="icon-container-filled-copy-3" fill="#54698D">
                                <rect id="bkgd" x="0" y="0" width="32" height="32" rx="4"></rect>
                            </g>
                            <g id="new_custom77" transform="translate(10.000000, 7.000000)" fill="#FFFFFF">
                                <path d="M1.63043478,5.47297297 L2.54347826,5.47297297 C2.73913043,5.47297297 2.80434783,5.40540541 2.80434783,5.27027027 L2.80434783,4.86486486 C2.80434783,2.97297297 4.17391304,1.48648649 5.86956522,1.48648649 C7.56521739,1.48648649 8.93478261,2.97297297 8.93478261,4.86486486 L8.93478261,5.27027027 C8.93478261,5.40540541 9.06521739,5.47297297 9.19565217,5.47297297 L10.1086957,5.47297297 C10.3043478,5.47297297 10.3695652,5.40540541 10.3695652,5.27027027 L10.3695652,4.86486486 C10.3695652,2.16216216 8.41304348,1.77635684e-15 5.86956522,1.77635684e-15 C3.32608696,1.77635684e-15 1.36956522,2.16216216 1.36956522,4.86486486 L1.36956522,5.27027027 C1.36956522,5.40540541 1.5,5.47297297 1.63043478,5.47297297 L1.63043478,5.47297297 Z M10.6304348,7.02702703 L1.36956522,7.02702703 C0.586956522,7.02702703 0,7.7027027 0,8.51351351 L0,13.5135135 C0,14.3243243 0.586956522,15 1.36956522,15 L10.6304348,15 C11.4130435,15 12,14.3243243 12,13.5135135 L12,8.51351351 C12,7.7027027 11.4130435,7.02702703 10.6304348,7.02702703 L10.6304348,7.02702703 Z M7.17391304,11.0135135 C6.91304348,11.3513514 6.7826087,11.7567568 6.91304348,12.1621622 L7.04347826,12.9054054 C7.10869565,13.1756757 6.91304348,13.5135135 6.65217391,13.5135135 L5.15217391,13.5135135 C4.82608696,13.5135135 4.63043478,13.1756757 4.69565217,12.9054054 L4.82608696,12.1621622 C4.95652174,11.7567568 4.82608696,11.3513514 4.63043478,11.0135135 C4.43478261,10.7432432 4.30434783,10.3378378 4.36956522,9.93243243 C4.5,9.32432432 4.95652174,8.85135135 5.54347826,8.71621622 C6.52173913,8.51351351 7.36956522,9.25675676 7.36956522,10.2027027 C7.36956522,10.472973 7.23913043,10.7432432 7.17391304,11.0135135 L7.17391304,11.0135135 Z" id="Shape"></path>
                            </g>
                        </g>
                    </g>
                </g>
            </g>
        </g>
    </g>
</svg>