<?xml version="1.0" encoding="UTF-8"?>
<svg width="300px" height="233px" viewBox="0 0 300 233" version="1.1" xmlns="http://www.w3.org/2000/svg" xmlns:xlink="http://www.w3.org/1999/xlink">
    <!-- Generator: Sketch 54.1 (76490) - https://sketchapp.com -->
    <title>Group 30</title>
    <desc>Created with Sketch.</desc>
    <defs>
        <path d="M16,29.44 L16,29.44 C23.422707,29.44 29.44,23.422707 29.44,16 C29.44,8.57729296 23.422707,2.56 16,2.56 C8.57729296,2.56 2.56,8.57729296 2.56,16 C2.56,23.422707 8.57729296,29.44 16,29.44 L16,29.44 L16,29.44 L16,29.44 Z M16,32 L16,32 C7.163444,32 0,24.836556 0,16 C0,7.163444 7.163444,0 16,0 C24.836556,0 32,7.163444 32,16 C32,24.836556 24.836556,32 16,32 L16,32 L16,32 L16,32 Z" id="path-1"></path>
    </defs>
    <g id="Page-1" stroke="none" stroke-width="1" fill="none" fill-rule="evenodd">
        <g id="Manage-Segments-Einstein" transform="translate(-785.000000, -425.000000)">
            <g id="popover" transform="translate(785.000000, 369.000000)">
                <g id="Group-30" transform="translate(1.000000, 53.000000)">
                    <path d="M149,-65 L149,233" id="Bottom-border" stroke="#E0E5EE" stroke-linecap="square" transform="translate(149.000000, 84.000000) rotate(-90.000000) translate(-149.000000, -84.000000) "></path>
                    <g id="Button-New-Copy-2" transform="translate(153.000000, 204.000000)">
                        <rect id="Rectangle-827" stroke="#E1E6EF" fill="#FFFFFF" x="0.5" y="0.5" width="133" height="31" rx="4"></rect>
                        <text id="Create-a-Segment" font-family="SalesforceSans-Regular, Salesforce Sans" font-size="12" font-weight="normal" line-spacing="20" fill="#0070D2">
                            <tspan x="16" y="17">Create a Segment</tspan>
                        </text>
                    </g>
                    <text id="Family-Prospect-Targ" font-family="SalesforceSans-Bold, Salesforce Sans" font-size="13" font-weight="bold" fill="#16325C">
                        <tspan x="29" y="112">Family Prospect Targets - Lookalike</tspan>
                    </text>
                    <g id="standard_objects" transform="translate(11.000000, 96.000000)" fill="#54698D">
                        <path d="M13.51,12.75 L7.42,16.2208333 C7.14,16.4333333 6.72,16.4333333 6.37,16.2208333 L0.35,12.75 C0.07,12.6083333 0.07,12.2541667 0.35,12.1125 L1.75,11.3333333 C1.89,11.2625 1.96,11.2625 2.1,11.3333333 L5.74,13.4583333 C6.16,13.6 6.51,13.7416667 6.93,13.7416667 C7.35,13.7416667 7.77,13.6 8.12,13.4583333 L11.76,11.3333333 C11.9,11.2625 12.04,11.2625 12.11,11.3333333 L13.51,12.1125 C13.79,12.2541667 13.79,12.6083333 13.51,12.75 L13.51,12.75 Z M13.51,8.78333333 L7.42,12.325 C7.14,12.4666667 6.72,12.4666667 6.37,12.325 L0.35,8.78333333 C0.07,8.64166667 0.07,8.35833333 0.35,8.21666667 L1.75,7.36666667 C1.89,7.29583333 1.96,7.29583333 2.1,7.36666667 L5.74,9.49166667 C6.16,9.70416667 6.51,9.775 6.93,9.775 C7.35,9.775 7.77,9.70416667 8.12,9.49166667 L11.76,7.36666667 C11.9,7.29583333 12.04,7.29583333 12.11,7.36666667 L13.51,8.21666667 C13.79,8.35833333 13.79,8.64166667 13.51,8.78333333 L13.51,8.78333333 Z M6.44,8.35833333 L0.35,4.8875 C0.14,4.74583333 0.14,4.39166667 0.35,4.25 L6.44,0.779166667 C6.79,0.566666667 7.21,0.566666667 7.49,0.779166667 L13.58,4.25 C13.86,4.39166667 13.86,4.74583333 13.58,4.8875 L7.49,8.35833333 C7.21,8.5 6.79,8.5 6.44,8.35833333 Z" id="Shape"></path>
                    </g>
                    <g id="standard_objects-copy" transform="translate(11.000000, 137.000000)" fill="#54698D">
                        <path d="M13.51,12.75 L7.42,16.2208333 C7.14,16.4333333 6.72,16.4333333 6.37,16.2208333 L0.35,12.75 C0.07,12.6083333 0.07,12.2541667 0.35,12.1125 L1.75,11.3333333 C1.89,11.2625 1.96,11.2625 2.1,11.3333333 L5.74,13.4583333 C6.16,13.6 6.51,13.7416667 6.93,13.7416667 C7.35,13.7416667 7.77,13.6 8.12,13.4583333 L11.76,11.3333333 C11.9,11.2625 12.04,11.2625 12.11,11.3333333 L13.51,12.1125 C13.79,12.2541667 13.79,12.6083333 13.51,12.75 L13.51,12.75 Z M13.51,8.78333333 L7.42,12.325 C7.14,12.4666667 6.72,12.4666667 6.37,12.325 L0.35,8.78333333 C0.07,8.64166667 0.07,8.35833333 0.35,8.21666667 L1.75,7.36666667 C1.89,7.29583333 1.96,7.29583333 2.1,7.36666667 L5.74,9.49166667 C6.16,9.70416667 6.51,9.775 6.93,9.775 C7.35,9.775 7.77,9.70416667 8.12,9.49166667 L11.76,7.36666667 C11.9,7.29583333 12.04,7.29583333 12.11,7.36666667 L13.51,8.21666667 C13.79,8.35833333 13.79,8.64166667 13.51,8.78333333 L13.51,8.78333333 Z M6.44,8.35833333 L0.35,4.8875 C0.14,4.74583333 0.14,4.39166667 0.35,4.25 L6.44,0.779166667 C6.79,0.566666667 7.21,0.566666667 7.49,0.779166667 L13.58,4.25 C13.86,4.39166667 13.86,4.74583333 13.58,4.8875 L7.49,8.35833333 C7.21,8.5 6.79,8.5 6.44,8.35833333 Z" id="Shape"></path>
                    </g>
                    <g id="standard_objects-copy-2" transform="translate(11.886719, 178.000000)" fill="#54698D">
                        <path d="M13.51,12.75 L7.42,16.2208333 C7.14,16.4333333 6.72,16.4333333 6.37,16.2208333 L0.35,12.75 C0.07,12.6083333 0.07,12.2541667 0.35,12.1125 L1.75,11.3333333 C1.89,11.2625 1.96,11.2625 2.1,11.3333333 L5.74,13.4583333 C6.16,13.6 6.51,13.7416667 6.93,13.7416667 C7.35,13.7416667 7.77,13.6 8.12,13.4583333 L11.76,11.3333333 C11.9,11.2625 12.04,11.2625 12.11,11.3333333 L13.51,12.1125 C13.79,12.2541667 13.79,12.6083333 13.51,12.75 L13.51,12.75 Z M13.51,8.78333333 L7.42,12.325 C7.14,12.4666667 6.72,12.4666667 6.37,12.325 L0.35,8.78333333 C0.07,8.64166667 0.07,8.35833333 0.35,8.21666667 L1.75,7.36666667 C1.89,7.29583333 1.96,7.29583333 2.1,7.36666667 L5.74,9.49166667 C6.16,9.70416667 6.51,9.775 6.93,9.775 C7.35,9.775 7.77,9.70416667 8.12,9.49166667 L11.76,7.36666667 C11.9,7.29583333 12.04,7.29583333 12.11,7.36666667 L13.51,8.21666667 C13.79,8.35833333 13.79,8.64166667 13.51,8.78333333 L13.51,8.78333333 Z M6.44,8.35833333 L0.35,4.8875 C0.14,4.74583333 0.14,4.39166667 0.35,4.25 L6.44,0.779166667 C6.79,0.566666667 7.21,0.566666667 7.49,0.779166667 L13.58,4.25 C13.86,4.39166667 13.86,4.74583333 13.58,4.8875 L7.49,8.35833333 C7.21,8.5 6.79,8.5 6.44,8.35833333 Z" id="Shape"></path>
                    </g>
                    <text id="Crime-Genre-Lovers" font-family="SalesforceSans-Bold, Salesforce Sans" font-size="13" font-weight="bold" fill="#16325C">
                        <tspan x="29" y="152">Crime Genre Lovers</tspan>
                    </text>
                    <text id="Hulu-Subscribers" font-family="SalesforceSans-Bold, Salesforce Sans" font-size="13" font-weight="bold" fill="#16325C">
                        <tspan x="29" y="193">Hulu Subscribers</tspan>
                    </text>
                    <text id="+-4-more" font-family="SalesforceSans-Regular, Salesforce Sans" font-size="11" font-weight="normal" fill="#16325C">
                        <tspan x="29" y="216">+ 4 more</tspan>
                    </text>
                    <g id="Group-9" transform="translate(11.000000, 40.000000)">
                        <g id="Group-32" transform="translate(4.000000, 7.000000)">
                            <path d="M12,24 C5.37295492,24 0,18.6272245 0,12.0004007 C0,5.37277553 5.37295492,0 12,0 C18.6270451,0 24,5.37277553 24,12.0004007 C24,18.6272245 18.6270451,24 12,24 Z" id="Fill-1" fill="#5AA7EA"></path>
                            <g id="Group-31" transform="translate(4.000200, 5.032645)">
                                <g id="Group-23">
                                    <g id="custom27" transform="translate(2.517574, 0.000000)" fill="#FFFFFF">
                                        <path d="M1.51054453,8.28067974 L11.9165179,8.28067974 C12.1682754,8.28067974 12.3361136,8.11670588 12.3361136,7.8707451 L12.3361136,1.63973856 C12.3361136,0.983843137 11.8325988,0.409934641 11.1612457,0.409934641 L2.26581679,0.409934641 C1.59446367,0.409934641 1.09094883,0.983843137 1.09094883,1.63973856 L1.09094883,7.8707451 C1.09094883,8.11670588 1.25878711,8.28067974 1.51054453,8.28067974 L1.51054453,8.28067974 Z M12.7557093,9.51048366 L8.3079949,9.51048366 C8.14015662,9.51048366 7.8883992,9.67445752 7.8883992,9.83843137 C7.8883992,10.0024052 7.72056092,10.248366 7.55272264,10.248366 L5.87433983,10.248366 C5.70650155,10.248366 5.53866327,10.0843922 5.53866327,9.83843137 C5.53866327,9.59247059 5.28690585,9.51048366 5.11906757,9.51048366 L0.671353123,9.51048366 C0.419595702,9.51048366 0.251757421,9.67445752 0.251757421,9.83843137 C0.251757421,10.4943268 0.839191404,11.0682353 1.51054453,11.0682353 L11.9165179,11.0682353 C12.5878711,11.0682353 13.175305,10.4943268 13.175305,9.83843137 C13.175305,9.67445752 13.0074668,9.51048366 12.7557093,9.51048366 Z" id="Shape"></path>
                                    </g>
                                    <g id="custom28" transform="translate(0.000000, 2.779477)">
                                        <path d="M6.36574198,0.187877715 L1.08666814,0.187877715 C0.465600633,0.187877715 -0.0002,0.650063985 -0.0002,1.26631235 L-0.0002,10.2019136 C-0.0002,10.8181619 0.465600633,11.2803482 1.08666814,11.2803482 L6.36574198,11.2803482 C6.98680949,11.2803482 7.45261012,10.8181619 7.45261012,10.2019136 L7.45261012,1.26631235 C7.45261012,0.650063985 6.98680949,0.187877715 6.36574198,0.187877715 L6.36574198,0.187877715 Z" id="Path" fill="#5AA7EA"></path>
                                        <path d="M5.63936624,1.03291503 L1.074165,1.03291503 C0.537082499,1.03291503 0.134270625,1.43260131 0.134270625,1.96551634 L0.134270625,9.69278431 C0.134270625,10.2256993 0.537082499,10.6253856 1.074165,10.6253856 L5.63936624,10.6253856 C6.17644873,10.6253856 6.57926061,10.2256993 6.57926061,9.69278431 L6.57926061,1.96551634 C6.57926061,1.43260131 6.17644873,1.03291503 5.63936624,1.03291503 L5.63936624,1.03291503 Z M3.35676562,10.2923137 C3.08822437,10.2923137 2.88681843,10.0924706 2.88681843,9.82601307 C2.88681843,9.55955556 3.08822437,9.35971242 3.35676562,9.35971242 C3.62530687,9.35971242 3.8267128,9.55955556 3.8267128,9.82601307 C3.8267128,10.0924706 3.62530687,10.2923137 3.35676562,10.2923137 Z" id="Shape" fill="#FFFFFF"></path>
                                    </g>
                                </g>
                            </g>
                        </g>
                        <g id="Donut" transform="translate(16.000000, 19.000000) scale(-1, 1) translate(-16.000000, -19.000000) translate(0.000000, 3.000000)">
                            <mask id="mask-2" fill="white">
                                <use xlink:href="#path-1"></use>
                            </mask>
                            <use id="Mask" fill="#E6ECF2" fill-rule="nonzero" xlink:href="#path-1"></use>
                            <polygon id="Rectangle-442-Copy" fill="#5AA7EA" mask="url(#mask-2)" points="16.1684211 16.2807018 32 28 32 36.7382812 -4.89330357 32.7700893 -1.82723214 7.80127558 15.4592634 -6.06361607"></polygon>
                            <polygon id="Rectangle-442-Copy-3" fill="#5AA7EA" mask="url(#mask-2)" points="31.4551759 -3.51517857 36.8920898 32 16 16 15.6098214 2.84217094e-14 17.9021924 -8.18540114"></polygon>
                        </g>
                        <text id="2.7M" font-family="SalesforceSans-Light, Salesforce Sans" font-size="28" font-weight="300" fill="#16325C">
                            <tspan x="40" y="32">2.7M</tspan>
                        </text>
                    </g>
                    <g id="Group-16" transform="translate(11.000000, 0.000000)" fill="#16325C" font-family="SalesforceSans-Regular, Salesforce Sans" font-size="12" font-weight="normal" line-spacing="16" opacity="0.900000036">
                        <text id="This-segment-is-part">
                            <tspan x="0" y="14">This segment is part of a domonant persona in </tspan>
                            <tspan x="0" y="30">your audience.</tspan>
                        </text>
                    </g>
                </g>
            </g>
        </g>
    </g>
</svg>