<?xml version="1.0" encoding="UTF-8"?>
<svg width="793px" height="120px" viewBox="0 0 793 120" version="1.1" xmlns="http://www.w3.org/2000/svg" xmlns:xlink="http://www.w3.org/1999/xlink">
    <!-- Generator: Sketch 54.1 (76490) - https://sketchapp.com -->
    <title>Group 30</title>
    <desc>Created with Sketch.</desc>
    <style>
        #Oval-2 {
            animation: grow-oval2 400ms linear backwards;
        }

        @keyframes grow-oval2 {
            from {
                stroke-dashoffset: 70;
            }
        }

        #Oval-3 {
            animation: grow-oval3 400ms linear backwards;
        }

        @keyframes grow-oval3 {
            from {
                stroke-dashoffset: 70;
            }
        }

        #Oval-4 {
            animation: grow-oval4 400ms linear backwards;
        }

        @keyframes grow-oval4 {
            from {
                stroke-dashoffset: 180;
            }
        }
    </style>
    <defs>
        <path d="M7,0.538461538 C3.41923077,0.538461538 0.538461538,3.41923077 0.538461538,7 C0.538461538,10.5807692 3.41923077,13.4615385 7,13.4615385 C10.5807692,13.4615385 13.4615385,10.5807692 13.4615385,7 C13.4615385,3.41923077 10.5807692,0.538461538 7,0.538461538 Z M7,3.79615385 C7.45769231,3.79615385 7.80769231,4.14615385 7.80769231,4.60384615 C7.80769231,5.06153846 7.45769231,5.41153846 7,5.41153846 C6.54230769,5.41153846 6.19230769,5.06153846 6.19230769,4.60384615 C6.19230769,4.14615385 6.54230769,3.79615385 7,3.79615385 L7,3.79615385 Z M8.34615385,9.45 C8.34615385,9.58461538 8.23846154,9.69230769 8.07692308,9.69230769 L5.92307692,9.69230769 C5.78846154,9.69230769 5.65384615,9.61153846 5.65384615,9.45 L5.65384615,8.91153846 C5.65384615,8.77692308 5.76153846,8.61538462 5.92307692,8.61538462 C6.05769231,8.61538462 6.19230769,8.53461538 6.19230769,8.37307692 L6.19230769,7.29615385 C6.19230769,7.16153846 6.08461538,7 5.92307692,7 C5.78846154,7 5.65384615,6.91923077 5.65384615,6.75769231 L5.65384615,6.21923077 C5.65384615,6.08461538 5.76153846,5.92307692 5.92307692,5.92307692 L7.53846154,5.92307692 C7.67307692,5.92307692 7.80769231,6.05769231 7.80769231,6.21923077 L7.80769231,8.37307692 C7.80769231,8.50769231 7.91538462,8.61538462 8.07692308,8.61538462 C8.21153846,8.61538462 8.34615385,8.75 8.34615385,8.91153846 L8.34615385,9.45 Z" id="path-1"></path>
        <path d="M7,0.538461538 C3.41923077,0.538461538 0.538461538,3.41923077 0.538461538,7 C0.538461538,10.5807692 3.41923077,13.4615385 7,13.4615385 C10.5807692,13.4615385 13.4615385,10.5807692 13.4615385,7 C13.4615385,3.41923077 10.5807692,0.538461538 7,0.538461538 Z M7,3.79615385 C7.45769231,3.79615385 7.80769231,4.14615385 7.80769231,4.60384615 C7.80769231,5.06153846 7.45769231,5.41153846 7,5.41153846 C6.54230769,5.41153846 6.19230769,5.06153846 6.19230769,4.60384615 C6.19230769,4.14615385 6.54230769,3.79615385 7,3.79615385 L7,3.79615385 Z M8.34615385,9.45 C8.34615385,9.58461538 8.23846154,9.69230769 8.07692308,9.69230769 L5.92307692,9.69230769 C5.78846154,9.69230769 5.65384615,9.61153846 5.65384615,9.45 L5.65384615,8.91153846 C5.65384615,8.77692308 5.76153846,8.61538462 5.92307692,8.61538462 C6.05769231,8.61538462 6.19230769,8.53461538 6.19230769,8.37307692 L6.19230769,7.29615385 C6.19230769,7.16153846 6.08461538,7 5.92307692,7 C5.78846154,7 5.65384615,6.91923077 5.65384615,6.75769231 L5.65384615,6.21923077 C5.65384615,6.08461538 5.76153846,5.92307692 5.92307692,5.92307692 L7.53846154,5.92307692 C7.67307692,5.92307692 7.80769231,6.05769231 7.80769231,6.21923077 L7.80769231,8.37307692 C7.80769231,8.50769231 7.91538462,8.61538462 8.07692308,8.61538462 C8.21153846,8.61538462 8.34615385,8.75 8.34615385,8.91153846 L8.34615385,9.45 Z" id="path-3"></path>
    </defs>
    <g id="Page-1" stroke="none" stroke-width="1" fill="none" fill-rule="evenodd">
        <g id="Manage-Segments" transform="translate(-39.000000, -214.000000)">
            <g id="Group-37" transform="translate(12.000000, 182.000000)">
                <g id="Group-29">
                    <g id="Group-30" transform="translate(31.000000, 33.000000)">
                        <g id="Group-33" transform="translate(0.000000, 23.000000)">
                            <g id="Group-21" transform="translate(83.000000, 0.000000)">
                                <g id="Group-36">
                                    <text id="Total-Segments" font-family="SalesforceSans-Regular, Salesforce Sans" font-size="12" font-weight="normal" fill="#54698D">
                                        <tspan x="0" y="14">Total Segments</tspan>
                                    </text>
                                    <text id="3812" font-family="SalesforceSans-Bold, Salesforce Sans" font-size="20" font-weight="bold" fill="#16325C">
                                        <tspan x="0" y="46">3812</tspan>
                                    </text>
                                    <text id="Out-of-4000" font-family="SalesforceSans-Regular, Salesforce Sans" font-size="10" font-weight="normal" fill="#54698D">
                                        <tspan x="0" y="70">Out of </tspan>
                                        <tspan x="32.35" y="70" font-family="SalesforceSans-Bold, Salesforce Sans" font-weight="bold">4000</tspan>
                                    </text>
                                    <g id="icons/utility/info-copy" transform="translate(61.000000, 58.000000)">
                                        <mask id="mask-2" fill="white">
                                            <use xlink:href="#path-1"></use>
                                        </mask>
                                        <use id="Mask" fill="#53688E" xlink:href="#path-1"></use>
                                    </g>
                                </g>
                            </g>
                            <g id="Charts-/-Metric-/-Polar-Gauge" transform="translate(0.000000, 6.000000)">
                                <g id="Oval">
                                    <g>
                                        <path d="M29.8595542,0.0182277071 C13.3734422,0.0182277071 0.00880788173,13.382862 0.00880788173,29.868974 C0.00880788173,46.3550859 13.3734422,59.7197202 29.8595542,59.7197202 L29.8595542,59.7197202 C46.3456661,59.7197202 59.7103004,46.3550859 59.7103004,29.868974" id="Oval-1" stroke="#C9C7C5" stroke-width="4.8" opacity="0.5"></path>
                                        <circle stroke="#E6ECF2" stroke-width="8" opacity="0.5" fill-rule="nonzero" cx="29.76" cy="29.76" r="29.76"></circle>
                                        <path d="M29.8595542,0.0182277071 C13.3734422,0.0182277071 0.00880788173,13.382862 0.00880788173,29.868974 C0.00880788173,46.3550859 13.3734422,59.7197202 29.8595542,59.7197202 C46.3456661,59.7197202 59.52,46.4861119 59.52,30 C59.52,30 60.2512207,19.8283691 53.130127,11.4265137" id="Oval-4" stroke="#54698D" stroke-dashoffset="0" stroke-dasharray="188" stroke-width="8" stroke-linecap="round"></path>
                                    </g>
                                </g>
                            </g>
                        </g>
                        <g id="Group-24" transform="translate(230.000000, 0.000000)">
                            <g id="Group-36-Copy">
                                <path d="M1,0 L1,118" id="Bottom-border" stroke="#D8DDE6" stroke-linecap="square"></path>
                                <g id="Group-18" transform="translate(114.000000, 27.000000)">
                                    <text id="Targeted-Segments" font-family="SalesforceSans-Regular, Salesforce Sans" font-size="12" font-weight="normal" fill="#54698D">
                                        <tspan x="0" y="14">Targeted Segments</tspan>
                                    </text>
                                    <text id="1147" font-family="SalesforceSans-Bold, Salesforce Sans" font-size="20" font-weight="bold" fill="#16325C">
                                        <tspan x="0.5" y="46">1147</tspan>
                                    </text>
                                </g>
                            </g>
                            <g id="Charts-/-Metric-/-Polar-Gauge" transform="translate(31.000000, 33.000000)" stroke-width="8">
                                <g id="Oval">
                                    <g>
                                        <circle stroke="#E6ECF2" opacity="0.5" fill-rule="nonzero" cx="29.76" cy="29.76" r="29.76"></circle>
                                        <path d="M29.8595542,0.0182277071 C13.3734422,0.0182277071 0.00880788173,13.382862 0.00880788173,29.868974 C0.00880788173,42.0411124 7.29422392,52.5116507 17.742375,57.157908" id="Oval-2" stroke="#26AC70" stroke-dashoffset="0" stroke-dasharray="88" stroke-linecap="round"></path>
                                    </g>
                                </g>
                            </g>
                        </g>
                        <g id="Group-24-Copy" transform="translate(515.000000, 0.000000)">
                            <g id="Group-36-Copy">
                                <path d="M1,0 L1,118" id="Bottom-border" stroke="#D8DDE6" stroke-linecap="square"></path>
                                <g id="Group-18" transform="translate(115.000000, 29.000000)">
                                    <text id="Switching-to-On-Dema-Copy" font-family="SalesforceSans-Regular, Salesforce Sans" font-size="12" font-weight="normal" fill="#54698D">
                                        <tspan x="0" y="14">Switching to On-Demand</tspan>
                                    </text>
                                    <g id="icons/utility/info-copy-2" transform="translate(145.000000, 1.000000)">
                                        <mask id="mask-4" fill="white">
                                            <use xlink:href="#path-3"></use>
                                        </mask>
                                        <use id="Mask" fill="#53688E" xlink:href="#path-3"></use>
                                    </g>
                                    <text id="1035-copy" font-family="SalesforceSans-Bold, Salesforce Sans" font-size="20" font-weight="bold" fill="#16325C">
                                        <tspan x="0.5" y="46">1035</tspan>
                                    </text>
                                    <text id="View-Segments-Copy" font-family="SalesforceSans-Regular, Salesforce Sans" font-size="12" font-weight="normal" fill="#0070D2">
                                        <tspan x="0" y="71">View Segments</tspan>
                                    </text>
                                </g>
                            </g>
                            <g id="Charts-/-Metric-/-Polar-Gauge" transform="translate(32.000000, 33.000000)" stroke-width="8">
                                <g id="Oval">
                                    <g>
                                        <circle stroke="#E6ECF2" opacity="0.5" fill-rule="nonzero" cx="29.76" cy="29.76" r="29.76"></circle>
                                        <path d="M29.8595542,0.0182277071 C13.3734422,0.0182277071 0.00880788173,13.382862 0.00880788173,29.868974 C0.00880788173,40.0616867 5.11738744,49.0612268 12.9138049,54.4468525" id="Oval-3" stroke="#FFB75D" stroke-dashoffset="0" stroke-dasharray="73" stroke-linecap="round"></path>
                                    </g>
                                </g>
                            </g>
                        </g>
                    </g>
                </g>
            </g>
        </g>
    </g>
</svg>