<?xml version="1.0" encoding="UTF-8"?>
<svg width="318px" height="163px" viewBox="0 0 318 163" version="1.1" xmlns="http://www.w3.org/2000/svg" xmlns:xlink="http://www.w3.org/1999/xlink">
    <!-- Generator: Sketch 54.1 (76490) - https://sketchapp.com -->
    <title>Group 38</title>
    <desc>Created with Sketch.</desc>
        <style>
        circle.animated {
            animation: grow-circle-2 400ms linear backwards;
        }

        @keyframes grow-circle-2 {
            from  {
                stroke-dashoffset: 157;
            }
        }
    </style>
    <defs>
        <path d="M7,0.538461538 C3.41923077,0.538461538 0.538461538,3.41923077 0.538461538,7 C0.538461538,10.5807692 3.41923077,13.4615385 7,13.4615385 C10.5807692,13.4615385 13.4615385,10.5807692 13.4615385,7 C13.4615385,3.41923077 10.5807692,0.538461538 7,0.538461538 Z M7,3.79615385 C7.45769231,3.79615385 7.80769231,4.14615385 7.80769231,4.60384615 C7.80769231,5.06153846 7.45769231,5.41153846 7,5.41153846 C6.54230769,5.41153846 6.19230769,5.06153846 6.19230769,4.60384615 C6.19230769,4.14615385 6.54230769,3.79615385 7,3.79615385 L7,3.79615385 Z M8.34615385,9.45 C8.34615385,9.58461538 8.23846154,9.69230769 8.07692308,9.69230769 L5.92307692,9.69230769 C5.78846154,9.69230769 5.65384615,9.61153846 5.65384615,9.45 L5.65384615,8.91153846 C5.65384615,8.77692308 5.76153846,8.61538462 5.92307692,8.61538462 C6.05769231,8.61538462 6.19230769,8.53461538 6.19230769,8.37307692 L6.19230769,7.29615385 C6.19230769,7.16153846 6.08461538,7 5.92307692,7 C5.78846154,7 5.65384615,6.91923077 5.65384615,6.75769231 L5.65384615,6.21923077 C5.65384615,6.08461538 5.76153846,5.92307692 5.92307692,5.92307692 L7.53846154,5.92307692 C7.67307692,5.92307692 7.80769231,6.05769231 7.80769231,6.21923077 L7.80769231,8.37307692 C7.80769231,8.50769231 7.91538462,8.61538462 8.07692308,8.61538462 C8.21153846,8.61538462 8.34615385,8.75 8.34615385,8.91153846 L8.34615385,9.45 Z" id="path-1"></path>
        <path d="M30,52.362115 L30,52.362115 C42.3502551,52.362115 52.362115,42.3502551 52.362115,30 C52.362115,17.6497449 42.3502551,7.63788504 30,7.63788504 C17.6497449,7.63788504 7.63788504,17.6497449 7.63788504,30 C7.63788504,42.3502551 17.6497449,52.362115 30,52.362115 L30,52.362115 L30,52.362115 L30,52.362115 Z M30,60 L30,60 C13.4314575,60 0,46.5685425 0,30 C0,13.4314575 13.4314575,0 30,0 C46.5685425,0 60,13.4314575 60,30 C60,46.5685425 46.5685425,60 30,60 L30,60 L30,60 L30,60 Z" id="path-3"></path>
        <path d="M7,0.538461538 C3.41923077,0.538461538 0.538461538,3.41923077 0.538461538,7 C0.538461538,10.5807692 3.41923077,13.4615385 7,13.4615385 C10.5807692,13.4615385 13.4615385,10.5807692 13.4615385,7 C13.4615385,3.41923077 10.5807692,0.538461538 7,0.538461538 Z M7,3.79615385 C7.45769231,3.79615385 7.80769231,4.14615385 7.80769231,4.60384615 C7.80769231,5.06153846 7.45769231,5.41153846 7,5.41153846 C6.54230769,5.41153846 6.19230769,5.06153846 6.19230769,4.60384615 C6.19230769,4.14615385 6.54230769,3.79615385 7,3.79615385 L7,3.79615385 Z M8.34615385,9.45 C8.34615385,9.58461538 8.23846154,9.69230769 8.07692308,9.69230769 L5.92307692,9.69230769 C5.78846154,9.69230769 5.65384615,9.61153846 5.65384615,9.45 L5.65384615,8.91153846 C5.65384615,8.77692308 5.76153846,8.61538462 5.92307692,8.61538462 C6.05769231,8.61538462 6.19230769,8.53461538 6.19230769,8.37307692 L6.19230769,7.29615385 C6.19230769,7.16153846 6.08461538,7 5.92307692,7 C5.78846154,7 5.65384615,6.91923077 5.65384615,6.75769231 L5.65384615,6.21923077 C5.65384615,6.08461538 5.76153846,5.92307692 5.92307692,5.92307692 L7.53846154,5.92307692 C7.67307692,5.92307692 7.80769231,6.05769231 7.80769231,6.21923077 L7.80769231,8.37307692 C7.80769231,8.50769231 7.91538462,8.61538462 8.07692308,8.61538462 C8.21153846,8.61538462 8.34615385,8.75 8.34615385,8.91153846 L8.34615385,9.45 Z" id="path-5"></path>
        <path d="M17.2307692,9.14871795 C16.0820513,8.6974359 15.9179487,8.24615385 15.9179487,7.79487179 C15.9179487,7.34358974 16.2461538,6.89230769 16.6564103,6.56410256 C17.3538462,5.98974359 17.7230769,5.12820513 17.7230769,4.18461538 C17.7230769,2.37948718 16.5333333,0.820512821 14.4410256,0.820512821 C12.5128205,0.820512821 11.3641026,2.13333333 11.2,3.73333333 C11.2,3.8974359 11.2820513,4.02051282 11.4051282,4.1025641 C12.9641026,5.08717949 13.9076923,6.81025641 13.9076923,8.9025641 C13.9076923,10.4615385 13.2923077,11.8564103 12.1846154,12.8410256 C12.1025641,12.9230769 12.1025641,13.0871795 12.1846154,13.1692308 C12.4717949,13.374359 13.1282051,13.6615385 13.5384615,13.8666667 C13.6615385,13.9076923 13.7435897,13.9487179 13.8666667,13.9487179 L18.8307692,13.9487179 C19.774359,13.9487179 20.5128205,13.1692308 20.5128205,12.3076923 L20.5128205,12.0615385 C20.5128205,10.625641 18.9538462,9.84615385 17.2307692,9.14871795 L17.2307692,9.14871795 Z M11.7333333,14.8512821 C10.3384615,14.2769231 10.1333333,13.7846154 10.1333333,13.2512821 C10.1333333,12.7179487 10.5435897,12.1846154 10.9948718,11.774359 C11.8153846,11.0769231 12.2666667,10.0923077 12.2666667,8.94358974 C12.2666667,6.81025641 10.8717949,4.96410256 8.32820513,4.96410256 C5.82564103,4.96410256 4.38974359,6.81025641 4.38974359,8.94358974 C4.38974359,10.0923077 4.84102564,11.0769231 5.66153846,11.774359 C6.11282051,12.1846154 6.52307692,12.7179487 6.52307692,13.2512821 C6.52307692,13.7846154 6.31794872,14.3179487 4.88205128,14.8512821 C2.83076923,15.6717949 0.820512821,16.6153846 0.820512821,18.3384615 L0.820512821,18.8717949 C0.820512821,19.774359 1.55897436,20.5128205 2.5025641,20.5128205 L13.8666667,20.5128205 C14.8102564,20.5128205 15.5897436,19.774359 15.5897436,18.8717949 L15.5897436,18.2974359 C15.5897436,16.6153846 13.7846154,15.6717949 11.7333333,14.8512821 L11.7333333,14.8512821 Z" id="path-7"></path>
        <path d="M30,52.362115 L30,52.362115 C42.3502551,52.362115 52.362115,42.3502551 52.362115,30 C52.362115,17.6497449 42.3502551,7.63788504 30,7.63788504 C17.6497449,7.63788504 7.63788504,17.6497449 7.63788504,30 C7.63788504,42.3502551 17.6497449,52.362115 30,52.362115 L30,52.362115 L30,52.362115 L30,52.362115 Z M30,60 L30,60 C13.4314575,60 0,46.5685425 0,30 C0,13.4314575 13.4314575,0 30,0 C46.5685425,0 60,13.4314575 60,30 C60,46.5685425 46.5685425,60 30,60 L30,60 L30,60 L30,60 Z" id="path-9"  stroke-dashoffset="0" stroke-dasharray="73"></path>
    </defs>
    <g id="Page-1" stroke="none" stroke-width="1" fill="none" fill-rule="evenodd">
        <g id="Manage-Segments" transform="translate(-927.000000, -198.000000)">
            <g id="Group-37" transform="translate(12.000000, 182.000000)">
                <g id="Group-35" transform="translate(892.000000, 0.000000)">
                    <g id="Group-34">
                        <g id="Group-38" transform="translate(24.000000, 16.000000)">
                            <text id="Grow-My-Population" font-family="SalesforceSans-Regular, Salesforce Sans" font-size="12" font-weight="normal" fill="#0070D2">
                                <tspan x="202" y="159">Grow My Population</tspan>
                            </text>
                            <g id="Group-39">
                                <g id="Group-26" transform="translate(81.000000, 4.000000)">
                                    <text id="Total-Devices" font-family="SalesforceSans-Regular, Salesforce Sans" font-size="12" font-weight="normal" fill="#54698D">
                                        <tspan x="0" y="14">Total Devices</tspan>
                                    </text>
                                    <g id="icons/utility/info-copy" transform="translate(77.000000, 1.000000)">
                                        <mask id="mask-2" fill="white">
                                            <use xlink:href="#path-1"></use>
                                        </mask>
                                        <use id="Mask" fill="#53688E" xlink:href="#path-1"></use>
                                    </g>
                                    <text id="25.2M" font-family="SalesforceSans-Bold, Salesforce Sans" font-size="28" font-weight="bold" fill="#16325C">
                                        <tspan x="0" y="47">25.2M</tspan>
                                    </text>
                                </g>
                                <g id="Group-32" transform="translate(14.000000, 14.000000)">
                                    <path d="M16,32 C7.1639399,32 0,24.8362993 0,16.0005342 C0,7.16370071 7.1639399,0 16,0 C24.8360601,0 32,7.16370071 32,16.0005342 C32,24.8362993 24.8360601,32 16,32 Z" id="Fill-1" fill="#5AA7EA"></path>
                                    <g id="Group-31" transform="translate(5.333600, 6.710194)">
                                        <g id="Group-23">
                                            <g id="custom27" transform="translate(3.356766, 0.000000)" fill="#FFFFFF">
                                                <path d="M2.01405937,11.0409063 L15.8886906,11.0409063 C16.2243671,11.0409063 16.4481515,10.8222745 16.4481515,10.4943268 L16.4481515,2.18631808 C16.4481515,1.31179085 15.7767984,0.546579521 14.8816609,0.546579521 L3.02108905,0.546579521 C2.12595156,0.546579521 1.45459843,1.31179085 1.45459843,2.18631808 L1.45459843,10.4943268 C1.45459843,10.8222745 1.67838281,11.0409063 2.01405937,11.0409063 L2.01405937,11.0409063 Z M17.0076125,12.6806449 L11.0773265,12.6806449 C10.8535422,12.6806449 10.5178656,12.8992767 10.5178656,13.1179085 C10.5178656,13.3365403 10.2940812,13.664488 10.0702968,13.664488 L7.83245311,13.664488 C7.60866873,13.664488 7.38488436,13.4458562 7.38488436,13.1179085 C7.38488436,12.7899608 7.04920779,12.6806449 6.82542342,12.6806449 L0.895137498,12.6806449 C0.559460936,12.6806449 0.335676562,12.8992767 0.335676562,13.1179085 C0.335676562,13.9924357 1.11892187,14.7576471 2.01405937,14.7576471 L15.8886906,14.7576471 C16.7838281,14.7576471 17.5670734,13.9924357 17.5670734,13.1179085 C17.5670734,12.8992767 17.343289,12.6806449 17.0076125,12.6806449 Z" id="Shape"></path>
                                            </g>
                                            <g id="custom28" transform="translate(0.000000, 3.705969)">
                                                <path d="M8.48765598,0.250503619 L1.44889086,0.250503619 C0.620800844,0.250503619 -0.000266666667,0.86675198 -0.000266666667,1.68841646 L-0.000266666667,13.6025514 C-0.000266666667,14.4242159 0.620800844,15.0404643 1.44889086,15.0404643 L8.48765598,15.0404643 C9.31574599,15.0404643 9.9368135,14.4242159 9.9368135,13.6025514 L9.9368135,1.68841646 C9.9368135,0.86675198 9.31574599,0.250503619 8.48765598,0.250503619 L8.48765598,0.250503619 Z" id="Path" fill="#5AA7EA"></path>
                                                <path d="M7.51915498,1.37722004 L1.43222,1.37722004 C0.716109998,1.37722004 0.1790275,1.91013508 0.1790275,2.62068845 L0.1790275,12.9237124 C0.1790275,13.6342658 0.716109998,14.1671808 1.43222,14.1671808 L7.51915498,14.1671808 C8.23526498,14.1671808 8.77234748,13.6342658 8.77234748,12.9237124 L8.77234748,2.62068845 C8.77234748,1.91013508 8.23526498,1.37722004 7.51915498,1.37722004 L7.51915498,1.37722004 Z M4.47568749,13.723085 C4.11763249,13.723085 3.84909124,13.4566275 3.84909124,13.1013508 C3.84909124,12.7460741 4.11763249,12.4796166 4.47568749,12.4796166 C4.83374249,12.4796166 5.10228374,12.7460741 5.10228374,13.1013508 C5.10228374,13.4566275 4.83374249,13.723085 4.47568749,13.723085 Z" id="Shape" fill="#FFFFFF"></path>
                                            </g>
                                        </g>
                                    </g>
                                </g>
                                <g id="Donut">
                                    <circle cx="30" cy="30" r="25" stroke="#E6ECF2" stroke-width="8" fill="none" />
                                    <circle class="animated" cx="10" cy="30" r="25" stroke="#5AA7EA"  stroke-dasharray="157" stroke-dashoffset="0" transform="rotate(-90, 20, 20)" stroke-width="8" fill="none" />
                                </g>
                            </g>
                            <g id="Group-25" transform="translate(0.000000, 75.000000)">
                                <g id="Group-27">
                                    <path d="M158,-157 L158,159" id="Bottom-border" stroke="#E0E5EE" stroke-linecap="square" transform="translate(158.000000, 1.000000) rotate(-90.000000) translate(-158.000000, -1.000000) "></path>
                                    <g id="Group-39" transform="translate(0.000000, 17.000000)">
                                        <g id="Group-28" transform="translate(81.000000, 4.000000)">
                                            <text id="Total-Population" font-family="SalesforceSans-Regular, Salesforce Sans" font-size="12" font-weight="normal" fill="#54698D">
                                                <tspan x="0" y="14">Total Population</tspan>
                                            </text>
                                            <g id="icons/utility/info-copy" transform="translate(95.000000, 0.000000)">
                                                <mask id="mask-6" fill="white">
                                                    <use xlink:href="#path-5"></use>
                                                </mask>
                                                <use id="Mask" fill="#53688E" xlink:href="#path-5"></use>
                                            </g>
                                            <text id="17.2M" font-family="SalesforceSans-Bold, Salesforce Sans" font-size="28" font-weight="bold" fill="#16325C">
                                                <tspan x="0" y="47">17.2M</tspan>
                                            </text>
                                        </g>
                                        <g id="Group-32-Copy" transform="translate(14.000000, 14.000000)">
                                            <path d="M32,16.0005342 C32,24.8362993 24.8360601,32 16,32 C7.1639399,32 0,24.8362993 0,16.0005342 C0,7.16370071 7.1639399,0 16,0 C24.8360601,0 32,7.16370071 32,16.0005342" id="Fill-1" fill="#67CCD4"></path>
                                            <g id="icons/utility/people-copy" transform="translate(5.333333, 5.376860)">
                                                <mask id="mask-8" fill="white">
                                                    <use xlink:href="#path-7"></use>
                                                </mask>
                                                <use id="Mask" fill="#54698D" xlink:href="#path-7"></use>
                                                <g id="↳-icn-color" mask="url(#mask-8)" fill="#FFFFFF">
                                                    <polygon id="color" points="0 0 21.3333333 0 21.3333333 21.3333333 0 21.3333333"></polygon>
                                                </g>
                                            </g>
                                        </g>
                                        <g id="Donut">
                                            <circle cx="30" cy="30" r="25" stroke="#E6ECF2" stroke-width="8" fill="none" />
                                            <circle class="animated" cx="10" cy="30" r="25" stroke="#67CCD4"  stroke-dasharray="157" stroke-dashoffset="55" transform="rotate(-90, 20, 20)" stroke-width="8" fill="none" />
                                        </g>
                                    </g>
                                </g>
                            </g>
                        </g>
                    </g>
                </g>
            </g>
        </g>
    </g>
</svg>