<?xml version="1.0" encoding="UTF-8"?>
<svg width="14px" height="14px" viewBox="0 0 14 14" version="1.1" xmlns="http://www.w3.org/2000/svg" xmlns:xlink="http://www.w3.org/1999/xlink">
    <!-- Generator: Sketch 50.2 (55047) - http://www.bohemiancoding.com/sketch -->
    <title>notification</title>
    <desc>Created with Sketch.</desc>
    <defs></defs>
    <g id="Storyboard" stroke="none" stroke-width="1" fill="none" fill-rule="evenodd">
        <g id="Dashboard" transform="translate(-1109.000000, -64.000000)" fill="#54698D">
            <g id="Group-3" transform="translate(988.000000, 55.000000)">
                <g id="notification" transform="translate(121.000000, 9.000000)">
                    <path d="M12.8018018,9.01990111 L12.6756757,9.01990111 C12.1081081,9.01990111 11.6666667,8.57862653 11.6666667,8.01127349 L11.6666667,4.67019449 C11.6666667,2.02254697 9.45945946,-0.120786725 6.74774775,0.00529172766 C4.28828829,0.131370181 2.33333333,2.27470388 2.33333333,4.79627294 L2.33333333,8.07431271 C2.33333333,8.57862653 1.89189189,9.01990111 1.32432432,9.01990111 L1.1981982,9.01990111 C0.567567568,9.01990111 0,9.58725415 0,10.2176464 L0,10.658921 C0,10.8480387 0.189189189,11.1001956 0.441441441,11.1001956 L13.5585586,11.1001956 C13.8108108,11.1001956 14,10.8480387 14,10.658921 L14,10.2176464 C14,9.58725415 13.4324324,9.01990111 12.8018018,9.01990111 L12.8018018,9.01990111 Z M8.45045045,12.2349017 L5.54954955,12.2349017 C5.42342342,12.2349017 5.23423423,12.4240193 5.2972973,12.613137 C5.42342342,13.432647 6.18018018,14 7,14 C7.81981982,14 8.57657658,13.3696077 8.7027027,12.613137 C8.76576577,12.4240193 8.57657658,12.2349017 8.45045045,12.2349017 Z" id="Shape"></path>
                </g>
            </g>
        </g>
    </g>
</svg>