<?xml version="1.0" encoding="UTF-8"?>
<svg width="40px" height="28px" viewBox="0 0 40 28" version="1.1" xmlns="http://www.w3.org/2000/svg" xmlns:xlink="http://www.w3.org/1999/xlink">
    <!-- Generator: Sketch 50.2 (55047) - http://www.bohemiancoding.com/sketch -->
    <title>Group</title>
    <desc>Created with Sketch.</desc>
    <defs></defs>
    <g id="Page-1" stroke="none" stroke-width="1" fill="none" fill-rule="evenodd">
        <g id="Consumer-Rights" transform="translate(-18.000000, -12.000000)" fill="#009CDB">
            <g id="Group-9">
                <g id="Group-8">
                    <g id="Canvas">
                        <g id="Group">
                            <g id="MC-Head---Home">
                                <g id="Group" transform="translate(18.000000, 12.000000)">
                                    <path d="M16.6455556,3.05390904 C17.9355556,1.70980237 19.7316667,0.875847289 21.7181111,0.875847289 C24.3583333,0.875847289 26.6622222,2.34829748 27.8886667,4.53435987 C28.9552222,4.05776649 30.1352222,3.79274546 31.3766667,3.79274546 C36.1391111,3.79274546 40,7.68761013 40,12.492547 C40,17.2973728 36.1391111,21.1923486 31.3766667,21.1923486 C30.7952222,21.1923486 30.2272222,21.1338995 29.6778889,21.0231129 C28.5977778,22.9499325 26.5387778,24.2520359 24.176,24.2520359 C23.187,24.2520359 22.2513333,24.0236844 21.4182222,23.6172077 C20.3231111,26.1935233 17.7712222,28 14.7978889,28 C11.7008889,28 9.06122222,26.0404 8.04866667,23.2920708 C7.60566667,23.3857449 7.14666667,23.434971 6.67622222,23.434971 C2.989,23.434971 0,20.4146202 0,16.6886578 C0,14.1914596 1.34277778,12.0113977 3.33844444,10.8448607 C2.92755556,9.8992301 2.69933333,8.85592507 2.69933333,7.75928248 C2.69933333,3.47394238 6.17755556,0 10.4683333,0 C12.9874444,0 15.2261111,1.19776173 16.6455556,3.05390904" id="Fill-1"></path>
                                </g>
                            </g>
                        </g>
                    </g>
                </g>
            </g>
        </g>
    </g>
</svg>